<svg version="1.1" xmlns="http://www.w3.org/2000/svg" xmlns:xlink="http://www.w3.org/1999/xlink" width="482.18126" height="641.17045" viewBox="0,0,482.18126,641.17045"><g transform="translate(0.83333,246.32956)"><g data-paper-data="{&quot;isPaintingLayer&quot;:true}" fill-rule="nonzero" stroke-linecap="butt" stroke-linejoin="miter" stroke-miterlimit="10" stroke-dasharray="" stroke-dashoffset="0" style="mix-blend-mode: normal"><path d="M460.25732,288.67044v-139.33333h7v139.33333z" fill="#aeb100" stroke="#000000" stroke-width="4"/><path d="M440.25732,229.67044c0,-5.52285 4.47715,-10 10,-10c5.52285,0 10,4.47715 10,10c0,5.52285 -4.47715,10 -10,10c-5.52285,0 -10,-4.47715 -10,-10z" fill="#fbff00" stroke="#000000" stroke-width="4"/><path d="M-0.65207,394.84089v-87h482v87z" fill="#af0000" stroke="none" stroke-width="NaN"/><g stroke="none"><path d="M-0.83333,307.34089v-25h481v25z" fill="#cb0000" stroke-width="0"/><path d="M20.93717,287.00755c3.07348,1.5 0.76837,3.5 0.76837,3.5l-1.89362,1.6011c-1.42989,0.84076 -3.33568,1.43265 -4.28966,2.52227c-0.52037,0.59435 0.19497,1.36219 0.29244,2.04329c0,0 0,2.5 -3.84185,2.5c-3.84185,0 -3.84185,-2.5 -3.84185,-2.5c0.09748,-1.3189 -0.61771,-2.77656 0.29244,-3.95671c1.30366,-1.69039 3.97019,-2.76293 5.95529,-4.14439l1.17986,-1.06557c0,0 2.30511,-2 5.37859,-0.5z" fill="#dd0000" stroke-width="0.5"/><path d="M54.64472,300.10864c-2.71661,1.76777 -5.43319,0 -5.43319,0l-0.51224,-0.33333c-2.23096,-1.48204 -5.02229,-2.59179 -7.83128,-3.57303c0,0 -3.37275,-1.19713 -1.53307,-3.39187c1.83968,-2.19474 5.21243,-0.99761 5.21243,-0.99761c3.42898,1.23344 6.79255,2.63867 9.58512,4.42697l0.51224,0.33333c0,0 2.71661,1.76777 0,3.53553z" fill="#dd0000" stroke-width="0.5"/><path d="M94.93825,291.74573c1.42683,2.32119 -2.14025,3.24967 -2.14025,3.24967l-5.12247,1.33333c0,0 -3.56707,0.92848 -4.9939,-1.39272c-1.42683,-2.32119 2.14025,-3.24967 2.14025,-3.24967l5.12247,-1.33333c0,0 3.56707,-0.92848 4.9939,1.39272z" fill="#dd0000" stroke-width="0.5"/><path d="M114.67841,303.00755c0,2.5 -3.84185,2.5 -3.84185,2.5h-4.09798c0,0 -3.84185,0 -3.84185,-2.5c0,-2.5 3.84185,-2.5 3.84185,-2.5h4.09798c0,0 3.84185,0 3.84185,2.5z" fill="#dd0000" stroke-width="0.5"/><path d="M145.28993,291.07822c0.76834,-0.39228 2.95666,-1.26245 5.14498,0.16155c2.71661,1.76777 0,3.53553 0,3.53553l-2.29706,0.99092c-6.52794,1.05739 -9.62715,1.50723 -13.86005,4.84177c0,0 -2.45949,1.92055 -5.41088,0.32009c-2.95139,-1.60046 -0.4919,-3.52101 -0.4919,-3.52101c5.07722,-3.93555 9.57817,-5.09985 16.91491,-6.32886z" fill="#dd0000" stroke-width="0.5"/><path d="M192.64662,292.88951c1.71812,2.23607 -1.71812,3.3541 -1.71812,3.3541l-2.66053,0.84406c-5.19895,2.25521 -9.82921,4.31276 -15.77134,5.62492c0,0 -3.6447,0.79057 -4.85961,-1.58114c-1.2149,-2.37171 2.4298,-3.16228 2.4298,-3.16228c5.29023,-1.12248 9.32819,-3.04133 13.939,-5.04175l3.48644,-1.15594c0,0 3.43626,-1.11803 5.15438,1.11803z" fill="#dd0000" stroke-width="0.5"/><path d="M238.73707,299.29305c-2.99998,1.56174 -5.39997,-0.39043 -5.39997,-0.39043l-1.76561,-1.46064c-2.67201,-1.74041 -6.32915,-5.50249 -10.46001,-6.00131c-3.90793,-0.4719 -7.94886,0.06688 -11.9235,0.06688c0,0 -3.84185,0 -3.84185,-2.5c0,-2.5 3.84185,-2.5 3.84185,-2.5c1.29151,0 13.14106,-0.01817 13.68886,0.06689c6.4548,1.0021 9.76813,4.49787 14.12785,7.33202l2.33237,1.8727c0,0 2.39999,1.95217 -0.59999,3.51391z" fill="#dd0000" stroke-width="0.5"/><path d="M308.68701,288.28745c2.13108,2.08013 -1.06555,3.46688 -1.06555,3.46688l-3.08651,1.05776c-11.65163,1.15932 -26.07552,2.98587 -35.74231,7.56312c0,0 -2.07008,0.96219 -4.04447,0.22448c-0.42625,1.21622 -2.39644,1.72904 -2.39644,1.72904l-1.95189,0.46547c-5.30549,2.11633 -8.63719,2.69046 -14.84235,2.71334c0,0 -3.84185,0 -3.84185,-2.5c0,-2.5 3.84185,-2.5 3.84185,-2.5c4.92383,0.02227 6.60902,-0.21881 10.77,-1.95333l3.17059,-0.86786c0,0 1.72693,-0.4495 3.25823,0.05892c0.39424,-0.8921 1.57027,-1.43873 1.57027,-1.43873c10.87575,-4.98104 26.05333,-7.14139 39.04577,-8.43688l-0.01303,-0.27558c0,0 3.19662,-1.38675 5.3277,0.69338z" fill="#dd0000" stroke-width="0.5"/><path d="M364.04116,298.02979c-2.08319,2.10057 -5.31121,0.74498 -5.31121,0.74498l-0.18021,-0.35457c-8.51292,-0.76264 -17.57798,-1.53996 -25.72062,-3.40473c-2.46576,-0.56469 -4.72631,-1.51945 -7.26832,-1.91591c0,0 -3.72715,-0.60634 -2.79536,-3.0317c0.93179,-2.42536 4.65894,-1.81902 4.65894,-1.81902c2.81101,0.47208 5.36244,1.45359 8.09909,2.08409c7.5805,1.7465 16.13896,2.42465 24.0731,3.13388l3.29977,1.10682c0,0 3.22803,1.35559 1.14484,3.45615z" fill="#dd0000" stroke-width="0.5"/><path d="M414.349,302.24789c-1.9061,2.17061 -5.24176,0.93026 -5.24176,0.93026l-2.66572,-1.08769c-11.54789,0.14802 -23.22472,-0.58292 -34.87121,-0.58292c0,0 -3.84185,0 -3.84185,-2.5c0,-2.5 3.84185,-2.5 3.84185,-2.5c12.36314,0 24.54617,0.62251 36.84337,0.75042l4.50574,1.57897c0,0 3.33567,1.24035 1.42957,3.41096z" fill="#dd0000" stroke-width="0.5"/><path d="M435.96397,288.22286c1.71812,2.23607 -1.71812,3.3541 -1.71812,3.3541l-0.85017,0.05758c-1.0245,0.77778 -2.04898,1.55556 -3.07348,2.33333c0,0 -2.50025,1.89814 -5.4172,0.27116c-2.91695,-1.62698 -0.4167,-3.52512 -0.4167,-3.52512c1.0245,-0.77778 2.04898,-1.55556 3.07348,-2.33333l3.24781,-1.27576c0,0 3.43626,-1.11803 5.15438,1.11803z" fill="#dd0000" stroke-width="0.5"/><path d="M464.79925,295.50755c-1.84114,0 -2.79994,-0.57416 -3.29926,-1.17217c-3.79297,-1.35011 -5.55684,-1.60083 -10.82607,-1.8352c0,0 -3.83054,-0.19174 -3.53587,-2.68438c0.29465,-2.49264 4.1252,-2.30089 4.1252,-2.30089c6.70986,0.3669 9.77882,0.88987 15.44211,2.9887l1.93576,2.50394c0,0 0,2.5 -3.84185,2.5z" fill="#dd0000" stroke-width="0.5"/></g><path d="M442.25733,148.67044v-395h39v395z" fill="#915b00" stroke="none" stroke-width="1.5"/></g></g></svg>