<svg version="1.1" xmlns="http://www.w3.org/2000/svg" xmlns:xlink="http://www.w3.org/1999/xlink" width="488.7573" height="874.82956" viewBox="0,0,488.7573,874.82956"><defs><linearGradient x1="139.2573" y1="100.67044" x2="139.2573" y2="1.67044" gradientUnits="userSpaceOnUse" id="color-1"><stop offset="0" stop-color="#fff700" stop-opacity="0"/><stop offset="1" stop-color="#fff700"/></linearGradient><linearGradient x1="350.2573" y1="42.67044" x2="350.2573" y2="-56.32956" gradientUnits="userSpaceOnUse" id="color-2"><stop offset="0" stop-color="#fff700" stop-opacity="0"/><stop offset="1" stop-color="#fff700"/></linearGradient><linearGradient x1="251.2573" y1="173.67044" x2="251.2573" y2="74.67044" gradientUnits="userSpaceOnUse" id="color-3"><stop offset="0" stop-color="#fff700" stop-opacity="0"/><stop offset="1" stop-color="#fff700"/></linearGradient></defs><g transform="translate(0.5,476.82956)"><g data-paper-data="{&quot;isPaintingLayer&quot;:true}" fill-rule="nonzero" stroke-linejoin="miter" stroke-miterlimit="10" stroke-dasharray="" stroke-dashoffset="0" style="mix-blend-mode: normal"><path d="M-0.5,398v-712h481v712z" fill="#e10000" stroke="none" stroke-width="0" stroke-linecap="butt"/><g><path d="M131.2573,-416.32956v336" fill="none" stroke="#000000" stroke-width="5" stroke-linecap="round"/><path d="M188.2573,-48.32956l89,149h-276l82,-148z" data-paper-data="{&quot;index&quot;:null}" fill="url(#color-1)" stroke="none" stroke-width="0" stroke-linecap="butt"/><path d="M80.2573,-44.32956v-53h108v53z" fill="#ff8e00" stroke="#ec6700" stroke-width="5" stroke-linecap="butt"/></g><g><path d="M342.2573,-474.32956v336" fill="none" stroke="#000000" stroke-width="5" stroke-linecap="round"/><path d="M399.2573,-106.32956l89,149h-276l82,-148z" data-paper-data="{&quot;index&quot;:null}" fill="url(#color-2)" stroke="none" stroke-width="0" stroke-linecap="butt"/><path d="M291.2573,-102.32956v-53h108v53z" fill="#ff8e00" stroke="#ec6700" stroke-width="5" stroke-linecap="butt"/></g><g><path d="M243.2573,-343.32956v336" fill="none" stroke="#000000" stroke-width="5" stroke-linecap="round"/><path d="M300.2573,24.67044l89,149h-276l82,-148z" data-paper-data="{&quot;index&quot;:null}" fill="url(#color-3)" stroke="none" stroke-width="0" stroke-linecap="butt"/><path d="M192.2573,28.67044v-53h108v53z" fill="#ff8e00" stroke="#ec6700" stroke-width="5" stroke-linecap="butt"/></g></g></g></svg>