<svg version="1.1" xmlns="http://www.w3.org/2000/svg" xmlns:xlink="http://www.w3.org/1999/xlink" width="45.63906" height="49.8043" viewBox="0,0,45.63906,49.8043"><defs><linearGradient x1="240.51767" y1="168.16849" x2="238.96999" y2="169.77265" gradientUnits="userSpaceOnUse" id="color-1"><stop offset="0" stop-color="#dadada"/><stop offset="1" stop-color="#616161"/></linearGradient><linearGradient x1="239.63116" y1="172.62306" x2="241.17885" y2="174.98827" gradientUnits="userSpaceOnUse" id="color-2"><stop offset="0" stop-color="#dadada"/><stop offset="1" stop-color="#616161"/></linearGradient><linearGradient x1="240.51767" y1="177.71262" x2="238.96999" y2="180.07785" gradientUnits="userSpaceOnUse" id="color-3"><stop offset="0" stop-color="#dadada"/><stop offset="1" stop-color="#616161"/></linearGradient><linearGradient x1="239.41076" y1="182.63254" x2="240.95844" y2="184.99776" gradientUnits="userSpaceOnUse" id="color-4"><stop offset="0" stop-color="#dadada"/><stop offset="1" stop-color="#616161"/></linearGradient><linearGradient x1="239.41076" y1="189.57837" x2="240.95844" y2="187.21316" gradientUnits="userSpaceOnUse" id="color-5"><stop offset="0" stop-color="#dadada"/><stop offset="1" stop-color="#616161"/></linearGradient><linearGradient x1="240.07194" y1="168.16849" x2="241.6196" y2="169.77265" gradientUnits="userSpaceOnUse" id="color-6"><stop offset="0" stop-color="#dadada"/><stop offset="1" stop-color="#616161"/></linearGradient><linearGradient x1="240.95844" y1="172.62306" x2="239.41076" y2="174.98827" gradientUnits="userSpaceOnUse" id="color-7"><stop offset="0" stop-color="#dadada"/><stop offset="1" stop-color="#616161"/></linearGradient><linearGradient x1="240.07194" y1="177.71262" x2="241.6196" y2="180.07785" gradientUnits="userSpaceOnUse" id="color-8"><stop offset="0" stop-color="#dadada"/><stop offset="1" stop-color="#616161"/></linearGradient><linearGradient x1="241.17885" y1="182.63254" x2="239.63116" y2="184.99776" gradientUnits="userSpaceOnUse" id="color-9"><stop offset="0" stop-color="#dadada"/><stop offset="1" stop-color="#616161"/></linearGradient><linearGradient x1="241.17885" y1="189.57837" x2="239.63116" y2="187.21316" gradientUnits="userSpaceOnUse" id="color-10"><stop offset="0" stop-color="#dadada"/><stop offset="1" stop-color="#616161"/></linearGradient><linearGradient x1="240.04307" y1="191.16074" x2="240.04307" y2="200.3125" gradientUnits="userSpaceOnUse" id="color-11"><stop offset="0" stop-color="#cccccc"/><stop offset="1" stop-color="#929292"/></linearGradient><linearGradient x1="240.04307" y1="191.16074" x2="240.04307" y2="200.3125" gradientUnits="userSpaceOnUse" id="color-12"><stop offset="0" stop-color="#bcbcbc"/><stop offset="1" stop-color="#787878"/></linearGradient><linearGradient x1="240.04307" y1="168.09312" x2="240.04307" y2="177.24489" gradientUnits="userSpaceOnUse" id="color-13"><stop offset="0" stop-color="#cccccc"/><stop offset="1" stop-color="#929292"/></linearGradient><linearGradient x1="240.04307" y1="168.09312" x2="240.04307" y2="177.24489" gradientUnits="userSpaceOnUse" id="color-14"><stop offset="0" stop-color="#bcbcbc"/><stop offset="1" stop-color="#787878"/></linearGradient></defs><g transform="translate(-217.22356,-151.7582)"><g data-paper-data="{&quot;isPaintingLayer&quot;:true}" fill-rule="nonzero" stroke-linecap="butt" stroke-linejoin="miter" stroke-miterlimit="10" stroke-dasharray="" stroke-dashoffset="0" style="mix-blend-mode: normal"><g stroke="none" stroke-width="0"><path d="M226.07267,167.89278l1.54768,-1.60416l25.79464,3.75974l-1.54768,1.60416z" fill="url(#color-1)"/><path d="M228.28151,177.76001l-1.54768,-2.36521l25.79465,-5.54348l1.54768,2.36521z" data-paper-data="{&quot;index&quot;:null}" fill="url(#color-2)"/><path d="M226.07267,177.30611l1.54768,-2.36521l25.79465,5.54347l-1.54768,2.36521z" data-paper-data="{&quot;index&quot;:null}" fill="url(#color-3)"/><path d="M228.06113,187.76949l-1.54768,-2.36521l25.79465,-5.54347l1.54768,2.36521z" data-paper-data="{&quot;index&quot;:null}" fill="url(#color-4)"/><path d="M253.85575,189.98489l-1.54768,2.36521l-25.79465,-5.54347l1.54768,-2.36521z" data-paper-data="{&quot;index&quot;:null}" fill="url(#color-5)"/><path d="M228.72229,171.65251l-1.54768,-1.60416l25.79465,-3.75974l1.54768,1.60416z" data-paper-data="{&quot;index&quot;:null}" fill="url(#color-6)"/><path d="M226.51345,172.21654l1.54768,-2.36521l25.79465,5.54348l-1.54768,2.36521z" data-paper-data="{&quot;index&quot;:null}" fill="url(#color-7)"/><path d="M228.72229,182.84958l-1.54768,-2.36521l25.79465,-5.54347l1.54768,2.36521z" data-paper-data="{&quot;index&quot;:null}" fill="url(#color-8)"/><path d="M226.73383,182.22603l1.54768,-2.36521l25.79465,5.54347l-1.54768,2.36521z" data-paper-data="{&quot;index&quot;:null}" fill="url(#color-9)"/><path d="M252.52848,184.44142l1.54768,2.36521l-25.79465,5.54347l-1.54768,-2.36521z" data-paper-data="{&quot;index&quot;:null}" fill="url(#color-10)"/></g><path d="M223.40757,200.3125v-9.15177h33.27104v9.15177z" fill="url(#color-11)" stroke="url(#color-12)" stroke-width="2.5"/><path d="M218.47356,177.24489v-23.51499c0,0 14.45919,6.82028 21.56892,6.82028c7.26655,0 21.57014,-5.46525 21.57014,-5.46525v22.15997c0,0 -14.69517,5.66528 -21.8051,5.66528c-7.26634,0 -21.33396,-5.66528 -21.33396,-5.66528z" fill="url(#color-13)" stroke="url(#color-14)" stroke-width="2.5"/></g></g></svg>