<svg version="1.1" xmlns="http://www.w3.org/2000/svg" xmlns:xlink="http://www.w3.org/1999/xlink" width="107.82225" height="103.32822" viewBox="0,0,107.82225,103.32822"><g transform="translate(-186.73299,-129.62278)"><g data-paper-data="{&quot;isPaintingLayer&quot;:true}" fill-rule="nonzero" stroke-linejoin="miter" stroke-miterlimit="10" stroke-dasharray="" stroke-dashoffset="0" style="mix-blend-mode: normal"><g data-paper-data="{&quot;index&quot;:null}" fill="#949494" stroke="#000000" stroke-width="2"><path d="M204.7492,200.30539c0,0 -6.64286,-11.93942 -3.49459,-18.64127c1.13169,-2.40908 0.89596,-2.59479 2.69679,-6.62759c0.64865,-1.4526 1.4419,-2.94082 2.25333,-4.68416c2.17592,-4.67491 4.48262,-9.71385 4.48262,-9.71385c0,0 12.8362,2.13774 17.33941,2.13774c0.4348,0 21.53684,0.47359 21.97571,0.47078c10.74117,-0.06885 7.24001,-0.23325 7.24001,-0.23325c0,0 5.00242,-3.25087 6.6278,-2.9405c3.12122,0.596 6.09658,-2.66377 7.77886,2.9894c0.7907,2.65709 0.61267,2.95203 0.96648,6.59672c0.51648,5.32044 0.7566,13.44454 -1.04569,18.83477c-2.4256,7.25441 -7.20167,11.09865 -7.20167,11.09865z" stroke-linecap="butt"/><path d="M227.98791,199.35514c0,0 9.15072,-8.9704 8.79967,-18.34394c-0.36124,-4.29476 -5.1374,-13.07136 -5.1374,-13.07136l-4.03795,-4.98805l3.32537,4.27547c0,0 4.10165,-0.47068 6.34937,-0.72861c2.54497,-0.29205 8.13973,-0.93407 8.13973,-0.93407l-0.23753,-1.66268" stroke-linecap="round"/><path d="M257.303,170.55263c0,0 3.11779,0.51281 5.78238,2.15324c3.24758,1.99934 6.16789,5.44311 6.30116,8.77418c0.13219,3.30408 -0.67646,8.08355 -3.45338,11.01242c-3.42658,3.61409 -9.1053,5.03108 -10.76089,4.83995c-4.48955,-0.51829 -8.18307,-8.6525 -8.46709,-10.60669c-0.78231,-5.3826 1.63974,-12.17764 2.58871,-13.45012c1.76938,-2.37258 8.00911,-2.72298 8.00911,-2.72298" stroke-linecap="round"/><path d="M207.185,183.61658c0,-4.91169 3.12479,-7.68761 7.2084,-9.39624c1.2606,-0.52746 4.06037,-1.52997 5.49925,-1.52997c6.09996,0 10.09486,4.7358 10.09486,11.16373c0,6.42793 -5.65758,12.58889 -11.75755,12.58889c-6.09997,0 -11.04497,-6.3985 -11.04497,-12.82642z" stroke-linecap="butt"/></g><g data-paper-data="{&quot;index&quot;:null}" stroke="#000000" stroke-width="2" stroke-linecap="round"><path d="M187.97052,155.68868c0,0 9.8184,-0.36242 15.18081,1.85015c2.30639,0.95163 4.85845,2.69326 5.58793,4.05c0.84697,1.57526 -0.34964,2.71436 -0.73406,2.79699c-2.59296,0.55736 -7.71539,-0.49528 -9.77452,-1.34734c-3.60936,-1.49353 -10.49769,-7.34981 -10.49769,-7.34981" fill="#d8d8d8"/><path d="M205.07239,158.30146l-1.66268,5.93816" fill="none"/></g><path d="M253.0168,202.73271l-1.18763,-15.20168c0,0 0.05333,-5.51103 1.7352,-6.53118c0.95481,-0.57916 4.04298,-2.93281 6.09158,-3.27646c2.5653,-0.43031 4.54981,1.89493 5.66353,2.33741c0.48628,0.1932 1.71137,4.38239 1.71137,4.38239c0,0 -0.13387,3.43598 -0.22249,5.71047c-0.13152,3.37576 -0.49009,12.57905 -0.49009,12.57905z" data-paper-data="{&quot;index&quot;:null}" fill="#949494" stroke="#000000" stroke-width="2.5" stroke-linecap="butt"/><g data-paper-data="{&quot;index&quot;:null}"><g><path d="M210.61585,202.81219l3.15488,-5.03075l4.22583,2.6501l-3.15488,5.03075z" data-paper-data="{&quot;index&quot;:null}" fill="#000000" stroke="none" stroke-width="0" stroke-linecap="butt"/><path d="M219.65055,213.02311l-2.13774,4.513l-1.42516,4.513l-3.80042,2.37526l3.32537,0.71258l1.90021,1.90021l1.42516,0.9501l1.42516,2.13774l-3.80042,1.18763l-9.9761,-0.47505l-1.42516,-0.9501l-2.85031,-2.37526l-0.23753,-9.73857l7.36331,-7.83837z" fill="#949494" stroke="#000000" stroke-width="2.5" stroke-linecap="round"/><path d="M209.19939,208.98518l-0.47505,-4.513l2.37526,-2.13774h3.56289l3.32537,3.80042l2.37526,4.98805l-0.71258,1.90021z" fill="#242424" stroke="#000000" stroke-width="2.5" stroke-linecap="round"/><path d="M217.03776,205.42228l0.23753,2.61279l-3.56289,3.08784" fill="none" stroke="#000000" stroke-width="2.5" stroke-linecap="round"/></g><g stroke="none" stroke-linecap="butt"><path d="M202.77576,224.86938l-0.54493,-5.77164l8.50086,-8.29021l7.36026,2.63241l-2.56639,7.74899l-4.99894,3.51524z" fill="#8c6200" stroke-width="NaN"/><path d="M206.34853,212.61324l4.99187,-2.07857l7.06851,2.779l-1.36687,2.82857z" fill="#8c0081" stroke-width="NaN"/><path d="M216.00923,230.99386l-11.25551,-1.28042l-1.125,-5.625l7.32322,0.03095l3.06964,1.34575l3.39558,0.69924l0.91506,1.00548l1.29651,2.41859z" fill="#8c0081" stroke-width="0"/><g fill="#ffffff" stroke-width="0.5"><path d="M212.4084,214.9385c0.00036,-0.00027 0.00073,-0.00055 0.00109,-0.00082c0.21794,-0.16552 0.38347,0.05242 0.38347,0.05242c0.79756,1.07302 0.2835,2.15041 -0.7935,2.42184c0.02689,-0.12733 -0.0948,-0.20575 -0.0948,-0.20575c-0.82534,-0.53192 -1.63802,-1.07772 -2.49132,-1.55953c-0.04523,-0.46602 0.03344,-0.88994 0.31134,-1.07663c0.39147,-0.26297 0.99789,-0.245 1.43044,-0.21421c0.55953,0.08543 0.86915,0.28755 1.25329,0.58268zM210.72509,215.18435c0.09528,0.06141 0.22231,0.03394 0.28372,-0.06134c0.06141,-0.09529 0.03394,-0.22232 -0.06134,-0.28373c-0.09529,-0.06141 -0.22231,-0.03394 -0.28372,0.06134c-0.06141,0.09528 -0.03394,0.22231 0.06134,0.28372zM212.15262,216.06366c0.09529,0.06141 0.22231,0.03393 0.28372,-0.06135c0.06142,-0.09529 0.03395,-0.22231 -0.06133,-0.28372c-0.09529,-0.06141 -0.22232,-0.03394 -0.28373,0.06134c-0.06141,0.09528 -0.03394,0.22231 0.06134,0.28372z"/><path d="M212.96131,217.90505c0.31948,0.20589 0.11359,0.52536 0.11359,0.52536l0.00687,-0.08473c-0.02501,0.20863 -0.10409,0.40667 -0.21428,0.59165l0.01884,0.00409l-0.0027,0.01242l0.10098,0.05166l-0.2151,0.42052c-0.0063,0.0127 -0.01337,0.02517 -0.02123,0.03736c-0.11371,0.17645 -0.34892,0.22731 -0.52536,0.11359c-0.09601,-0.06187 -0.15483,-0.15974 -0.17019,-0.26452c-0.00673,0.00086 -0.01049,0.00113 -0.01049,0.00113c-0.59311,0.0404 -1.17976,0.03277 -1.76704,0.03858c0.12701,0.25459 0.24934,0.51252 0.36591,0.77498c0.3212,0.72316 0.93906,1.35623 0.83864,2.14874c0.0071,-0.05421 0.02478,-0.18916 0.03228,-0.24637l0.13274,0.02669l-0.00269,-0.05634l0.4038,-0.01931c0.07786,-0.00469 0.15786,0.01447 0.22846,0.05996c0.17644,0.11372 0.22729,0.34893 0.11357,0.52537c-0.01883,0.02923 -0.041,0.05502 -0.06568,0.07717l-0.27954,0.26217l-0.04638,-0.04945c-0.2194,0.24759 -0.46443,0.34763 -0.94419,0.40127c-0.0917,0.06315 -0.2321,0.10704 -0.40626,-0.0052c-0.31948,-0.20589 -0.11359,-0.52537 -0.11359,-0.52537l0.31824,-0.21316c0.04388,-0.00219 0.08582,-0.00765 0.12604,-0.01518c-0.26303,-0.51259 -0.61191,-1.23981 -0.67655,-1.36685c-0.30074,-0.59105 -0.6004,-1.1741 -0.90573,-1.75271c-0.19135,0.01121 -0.38314,0.02707 -0.57562,0.04968c-0.37212,0.04371 -0.72962,0.1371 -1.09057,0.21867c0.10792,0.23696 0.18125,0.51175 0.20795,0.87753l0.09512,0.43995c0.02056,0.09506 0.00484,0.19798 -0.05201,0.2862c-0.11372,0.17645 -0.34893,0.22731 -0.52537,0.11359c-0.03991,-0.02573 -0.07339,-0.05766 -0.1,-0.09373l-0.46006,-0.59397l0.02389,-0.01851c-0.46434,-0.43512 -0.74871,-0.87607 -1.05904,-1.71228l-0.04349,-0.18306c0,0 -0.08031,-0.37149 0.29118,-0.45181c0.03618,-0.00782 0.06961,-0.01136 0.10046,-0.01137c0.02138,-0.02294 0.04724,-0.04532 0.07831,-0.06673c0.31293,-0.2157 0.52864,0.09722 0.52864,0.09722c0.17098,0.25018 0.33321,0.45176 0.47868,0.63999c0.48237,-0.08706 0.94746,-0.23825 1.43944,-0.29686c0.09033,-0.01077 0.1806,-0.01999 0.27081,-0.02791c-0.27886,-0.51542 -0.56455,-1.02849 -0.86194,-1.54174c-0.33417,0.09932 -0.65442,0.11091 -0.84165,-0.09998c-0.86929,-0.97916 1.27219,-1.38632 1.68709,-1.40652l0.25799,0.04873c0,0 0.3682,0.0943 0.27389,0.46249c-0.00543,0.02122 -0.01178,0.04089 -0.01891,0.05915c0.68779,0.40525 1.35282,0.84705 2.02472,1.28166c-0.06727,0.00299 -0.13597,0.00317 -0.20601,0.00039c-0.1078,-0.00428 -1.01983,-0.03422 -1.11604,-0.08208c-0.28558,-0.14205 -0.56256,-0.63055 -0.71633,-1.16862c-0.01086,0.02242 -0.02303,0.04235 -0.0362,0.06004c-0.00657,0.19631 -0.1945,0.3076 -0.1945,0.3076c-0.09663,0.05694 -0.24009,0.143 -0.40767,0.23254c0.35601,0.59985 0.70692,1.19492 1.03664,1.80269c0.70141,-0.0141 1.40144,0.00631 2.10462,-0.04617c0,0 0.04025,-0.00286 0.09545,0.00639c-0.02634,-0.22313 -0.02866,-0.44999 -0.01554,-0.67354c0,0 0.02483,-0.37926 0.40409,-0.35443c0.25666,0.01681 0.32825,0.19594 0.34772,0.30999c0.04408,0.00973 0.09129,0.02908 0.14127,0.0613z"/></g></g></g><path d="M226.52643,184.44912l-1.18763,17.10189l-11.16373,0.23753l-1.42516,-0.71258l-1.42516,-15.4392l1.66268,-6.65073l4.75052,-2.37526l5.22558,1.18763l2.37526,2.37526z" data-paper-data="{&quot;index&quot;:null}" fill="#949494" stroke="#000000" stroke-width="2.5" stroke-linecap="round"/><g data-paper-data="{&quot;index&quot;:null}"><g><path d="M266.25042,209.63982l-3.15488,-5.03075l4.22583,-2.6501l3.15488,5.03075z" fill="#000000" stroke="none" stroke-width="0" stroke-linecap="butt"/><path d="M287.803,230.3624c0,0 0.07825,1.26575 -0.9562,1.3386c-2.71067,0.1909 -15.90816,-0.15097 -15.90816,-0.15097l-9.9761,-14.4891c0,0 7.01669,-2.18114 9.74102,-3.31952c1.05692,-0.44164 8.0137,8.73896 8.80524,8.70022c0.82275,-0.04027 -1.60082,2.84679 -1.52667,3.65287c0.08371,0.91014 2.63353,-0.2451 3.17013,-0.2451c1.5119,0 4.27547,0.47505 4.27547,0.47505l2.37526,4.03795z" fill="#949494" stroke="#000000" stroke-width="2.5" stroke-linecap="butt"/><path d="M259.29985,216.11082l5.70063,-8.55094l2.9246,-0.58112l2.44228,0.83612l1.52138,2.35779l-0.23753,3.32537z" fill="#242424" stroke="#000000" stroke-width="2.5" stroke-linecap="butt"/><path d="M266.1881,214.68567l-1.90021,-0.9501l-0.71258,-2.13774" fill="none" stroke="#000000" stroke-width="2.5" stroke-linecap="round"/><path d="M276.1642,231.19374l1.90021,-5.70063" fill="none" stroke="#000000" stroke-width="2.5" stroke-linecap="round"/></g><g stroke="none" stroke-linecap="butt"><path d="M272.40076,230.86938l-10.16992,-12.77164l9.12586,-4.54021l1.36026,3.00741l5.18466,6.38923z" fill="#8c6200" stroke-width="NaN"/><path d="M264.72353,221.11324l-2.25813,-3.20357l8.94351,-3.971l1.38313,3.20357z" fill="#8c0081" stroke-width="NaN"/><path d="M272.00373,231.08844l3.75,-10.25l2.25,2l0.19822,4.28095l3.06964,-0.27925l3.39558,0.69924l0.91506,1.00548l1.2965,2.41859z" fill="#8c0081" stroke-width="0"/><g fill="#ffffff" stroke-width="0.5"><path d="M267.91905,219.11729c-0.00014,-0.00043 -0.00027,-0.00086 -0.00041,-0.0013c-0.08184,-0.26115 0.17932,-0.34299 0.17932,-0.34299c1.27986,-0.38655 2.11918,0.46231 2.00941,1.56755c-0.11067,-0.06846 -0.22571,0.01944 -0.22571,0.01944c-0.78022,0.59614 -1.56921,1.17565 -2.31177,1.81508c-0.45375,-0.11543 -0.82591,-0.33315 -0.90732,-0.65789c-0.11469,-0.45744 0.10781,-1.02187 0.28341,-1.41836c0.27006,-0.49744 0.56518,-0.7202 0.97306,-0.98153zM267.61813,220.49656c-0.06882,-0.09008 -0.19763,-0.10731 -0.28771,-0.03848c-0.09008,0.06882 -0.10731,0.19763 -0.03848,0.28771c0.06882,0.09008 0.19763,0.10731 0.28771,0.03848c0.09008,-0.06882 0.10731,-0.19763 0.03848,-0.28771zM268.89083,219.73938c0.09008,-0.06882 0.10731,-0.19763 0.03848,-0.28771c-0.06882,-0.09008 -0.19763,-0.10731 -0.28771,-0.03848c-0.09007,0.06882 -0.10731,0.19763 -0.03848,0.28771c0.06883,0.09008 0.19764,0.10731 0.28772,0.03848z"/><path d="M270.89735,219.60284c0.302,-0.23075 0.53276,0.07125 0.53276,0.07125l-0.07739,-0.03519c0.18779,0.09425 0.3473,0.23579 0.48397,0.40217l0.01024,-0.01635l0.01077,0.00675l0.08284,-0.07749l0.3227,0.34493c0.00981,0.01023 0.01915,0.02111 0.02795,0.03264c0.12744,0.16679 0.09555,0.40532 -0.07125,0.53276c-0.09076,0.06935 -0.20277,0.0915 -0.30655,0.07043c-0.00148,0.00663 -0.0025,0.01025 -0.0025,0.01025c-0.16307,0.57169 -0.36914,1.12101 -0.56277,1.67548c0.28258,-0.03317 0.5667,-0.06082 0.85314,-0.08151c0.78922,-0.05701 1.59427,-0.42367 2.3058,-0.06052c-0.04858,-0.02506 -0.16955,-0.08745 -0.22083,-0.11389l0.07011,-0.11583l-0.05392,-0.01657l0.11873,-0.38644c0.02199,-0.07484 0.06713,-0.14361 0.13386,-0.1946c0.1668,-0.12744 0.40532,-0.09555 0.53276,0.07125c0.02111,0.02763 0.03786,0.05723 0.05033,0.08796l0.15187,0.35187l-0.06224,0.02687c0.15855,0.29034 0.16959,0.55478 0.05741,1.02431c0.02832,0.10768 0.02201,0.25464 -0.14263,0.38044c-0.30201,0.23075 -0.53276,-0.07125 -0.53276,-0.07125l-0.09265,-0.37166c0.01282,-0.04202 0.02191,-0.08333 0.02845,-0.12372c-0.57141,0.07368 -1.37384,0.15536 -1.51527,0.1731c-0.658,0.08255 -1.30812,0.1668 -1.95597,0.25789c-0.05432,0.18382 -0.10442,0.36964 -0.1484,0.55838c-0.08503,0.3649 -0.11836,0.73289 -0.16399,1.10012c0.25952,-0.02119 0.54289,0.00298 0.89606,0.10187l0.44614,0.05966c0.09641,0.01289 0.1879,0.06257 0.25162,0.14596c0.12744,0.1668 0.09555,0.40532 -0.07125,0.53276c-0.03773,0.02883 -0.07913,0.04951 -0.12208,0.06231l-0.71476,0.23145l-0.00931,-0.02875c-0.56678,0.28934 -1.07802,0.40737 -1.96991,0.41584l-0.18697,-0.02115c0,0 -0.37673,-0.05039 -0.32634,-0.42711c0.00491,-0.03669 0.01291,-0.06933 0.02336,-0.09836c-0.01433,-0.02788 -0.02662,-0.0598 -0.03623,-0.09629c-0.09684,-0.36752 0.27068,-0.46437 0.27068,-0.46437c0.29334,-0.07604 0.53798,-0.16032 0.76438,-0.23337c0.08163,-0.48331 0.09705,-0.97213 0.20871,-1.45484c0.0205,-0.08863 0.04242,-0.17667 0.06555,-0.26423c-0.57944,0.08761 -1.15898,0.18245 -1.74265,0.28822c-0.01985,0.34805 -0.11751,0.65326 -0.37939,0.75791c-1.21588,0.48585 -0.87293,-1.66685 -0.75127,-2.06402l0.13331,-0.22619c0,0 0.21354,-0.31442 0.52795,-0.10088c0.01812,0.01231 0.03447,0.02495 0.04923,0.03784c0.61442,-0.50967 1.25552,-0.98553 1.89217,-1.47031c-0.01998,0.0643 -0.04311,0.12901 -0.06947,0.19395c-0.04057,0.09997 -0.37793,0.94783 -0.45557,1.02212c-0.23046,0.22051 -0.78393,0.31548 -1.34227,0.27773c0.01741,0.01782 0.03203,0.03603 0.04421,0.05441c0.18246,0.07274 0.22345,0.28727 0.22345,0.28727c0.02081,0.11021 0.05315,0.27435 0.08057,0.46236c0.68502,-0.13157 1.36381,-0.25996 2.04737,-0.36411c0.22453,-0.66466 0.48106,-1.31631 0.67007,-1.99564c0,0 0.01095,-0.03883 0.03837,-0.08763c-0.21885,-0.05087 -0.43306,-0.12561 -0.63892,-0.21373c0,0 -0.34839,-0.15193 -0.19645,-0.50032c0.10282,-0.23577 0.29561,-0.24239 0.40951,-0.22204c0.02409,-0.03816 0.0583,-0.07602 0.10556,-0.11212z"/></g></g></g><g data-paper-data="{&quot;index&quot;:null}"><g stroke="#000000" stroke-width="2.5"><path d="M261.99876,163.67246c0,0 0.37382,-1.49134 0,-2.61279c-0.33436,-1.00305 -2.13774,-3.80042 -2.13774,-3.80042c0,0 -4.82884,-3.36413 -4.50429,-6.71662c0.03684,-0.38056 1.48571,-8.6683 6.28563,-13.35727c3.43077,-3.35147 10.43238,-3.70263 11.33658,-3.33724c0.69893,0.28244 5.09711,0.72703 9.16966,2.53989c5.73937,2.55483 11.05964,6.41853 11.05964,6.41853l-2.00675,13.6172l-20.88931,-0.1146l0.71258,7.36331z" fill="#949494" stroke-linecap="butt"/><path d="M292.40213,150.13346l-13.06394,-2.61279l-3.32537,-3.32537l-3.32537,-9.9761l11.16373,3.56289l8.78847,4.98805z" fill="#000000" stroke-linecap="round"/><path d="M275.06271,145.85798h1.66268" fill="none" stroke-linecap="round"/><path d="M276.48787,148.4708l-2.37526,-0.23753" fill="none" stroke-linecap="round"/><path d="M274.82518,150.84606l-1.42516,-0.23753" fill="none" stroke-linecap="round"/><path d="M289.54813,156.42063c0,0 -12.49164,-0.39597 -18.91936,0.1673c-1.58149,0.13859 -0.21237,1.97931 -1.19817,1.99021c-8.7343,0.0966 -9.63865,-1.9509 -10.4463,-2.94232c-2.00598,-2.46241 -4.19835,-5.75255 -4.09135,-6.33654c0.13759,-0.75094 1.86893,-2.51352 1.86893,-2.51352l3.92426,1.53509l5.4631,1.90021l5.70063,1.18763l9.9761,0.23753l8.07589,4.27547" fill="#373737" stroke-linecap="round"/><path d="M289.21423,158.73432l-0.9501,2.37526h-12.35136l-2.61279,-0.47505l-0.9501,-2.37526l0.47505,-1.90021l1.18763,-1.42516l1.42516,0.47505l1.18763,1.42516l0.9501,1.18763z" fill="#000000" stroke-linecap="round"/><path d="M266.27424,159.63453l-0.23753,2.61279" fill="none" stroke-linecap="round"/><path d="M270.78723,159.87205l-8.55094,-0.71258" fill="none" stroke-linecap="round"/><path d="M265.32412,137.54459l-1.18763,2.13774l0.47505,2.13774l-3.56289,-1.90021l0.23753,-4.513l3.32537,-3.80042l1.42516,1.90021l0.23753,3.32537z" fill="#151515" stroke-linecap="round"/><path d="M266.03672,141.2282l-3.32537,0.47505l-1.66268,-3.32537l0.9501,-1.42516l2.37526,-2.13774l1.90021,-0.23753l1.18763,0.9501l1.18763,1.18763l0.47505,2.61279z" fill="none" stroke-linecap="round"/></g><path d="M287.00598,140.18524c2.56859,0.75552 3.17067,2.26139 2.7603,4.07085c-0.41037,1.80946 -2.31153,2.9206 -4.24638,2.48179c-1.93484,-0.43881 -3.17067,-2.26139 -2.7603,-4.07085c0.41037,-1.80946 1.60058,-3.26001 4.24638,-2.48179z" fill="#54ff00" stroke="none" stroke-width="0" stroke-linecap="butt"/><path d="M277.40167,142.28835c-0.99389,0.11043 -1.10432,-0.88345 -1.10432,-0.88345l-0.03459,-1.38182c0.60581,-1.51114 1.15258,-2.67069 2.36411,-3.77602c0,0 0.74741,-0.66436 1.41177,0.08305c0.66436,0.74741 -0.08305,1.41177 -0.08305,1.41177c-0.99724,0.8552 -1.35583,1.82093 -1.83589,3.02398l0.16541,0.41818c0,0 0.11043,0.99389 -0.88345,1.10432z" fill="#54ff00" stroke="none" stroke-width="0.5" stroke-linecap="butt"/></g></g></g></svg>