<svg version="1.1" xmlns="http://www.w3.org/2000/svg" xmlns:xlink="http://www.w3.org/1999/xlink" width="29.97912" height="39.66952" viewBox="0,0,29.97912,39.66952"><g transform="translate(-223.64381,-160.51528)"><g data-paper-data="{&quot;isPaintingLayer&quot;:true}" fill-rule="nonzero" stroke-width="1.5" stroke-linejoin="miter" stroke-miterlimit="10" stroke-dasharray="" stroke-dashoffset="0" style="mix-blend-mode: normal"><path d="M228.15867,185.31338l-0.15662,-18.81801c0,0 1.98084,-5.09093 9.85852,-5.2302c7.74048,-0.13683 10.6687,5.05935 10.6687,5.05935l0.15662,18.81801l-1.93223,5.5271l-2.79195,-6.12315l-2.49818,5.68629l-2.27821,-4.83381l-2.06103,4.07488l-3.43087,-4.02848l-3.57183,3.56976z" fill="#c6c6c6" stroke="#6f6f6f" stroke-linecap="butt"/><path d="M250.54542,198.95005l-7.79061,-4.72872l2.04719,-3.37276l7.79063,4.72872z" data-paper-data="{&quot;index&quot;:null}" fill="#c6c6c6" stroke="#6f6f6f" stroke-linecap="butt"/><path d="M224.65739,195.68327l8.05667,-4.25962l1.8441,3.48795l-8.05667,4.25962z" fill="#c6c6c6" stroke="#6f6f6f" stroke-linecap="butt"/><path d="M232.08737,193.8713l-0.10961,-13.16955l13.16955,-0.10961l0.10961,13.16955z" fill="#c6c6c6" stroke="#6f6f6f" stroke-linecap="butt"/><path d="M227.85645,172.94212c-0.0493,-5.92302 4.71229,-10.76454 10.63531,-10.81383c5.92302,-0.0493 10.76454,4.71229 10.81383,10.63531c0.0493,5.92302 -4.71229,10.76454 -10.63531,10.81383c-5.92302,0.0493 -10.76454,-4.71229 -10.81383,-10.63531z" fill="#c6c6c6" stroke="#6f6f6f" stroke-linecap="butt"/><path d="M232.51181,166.4154c-0.00364,-0.43732 0.34793,-0.79479 0.78525,-0.79843c0.43732,-0.00364 0.79479,0.34793 0.79843,0.78525c0.00364,0.43732 -0.34793,0.79479 -0.78525,0.79843c-0.43732,0.00364 -0.79479,-0.34793 -0.79843,-0.78525z" fill="#000000" stroke="none" stroke-linecap="butt"/><path d="M243.40171,166.15804c-0.00364,-0.43732 0.34793,-0.79479 0.78525,-0.79843c0.43732,-0.00364 0.79479,0.34793 0.79843,0.78525c0.00364,0.43732 -0.34793,0.79479 -0.78525,0.79843c-0.43732,0.00364 -0.79479,-0.34793 -0.79843,-0.78525z" fill="#000000" stroke="none" stroke-linecap="butt"/><path d="M232.39454,179.03112c-0.00364,-0.43732 0.34793,-0.79479 0.78525,-0.79843c0.43732,-0.00364 0.79479,0.34793 0.79843,0.78525c0.00364,0.43732 -0.34793,0.79479 -0.78525,0.79843c-0.43732,0.00364 -0.79479,-0.34793 -0.79843,-0.78525z" fill="#000000" stroke="none" stroke-linecap="butt"/><path d="M242.73244,179.22294c-0.00364,-0.43732 0.34793,-0.79479 0.78525,-0.79843c0.43732,-0.00364 0.79479,0.34793 0.79843,0.78525c0.00364,0.43732 -0.34793,0.79479 -0.78525,0.79843c-0.43732,0.00364 -0.79479,-0.34793 -0.79843,-0.78525z" fill="#000000" stroke="none" stroke-linecap="butt"/><path d="M246.16153,170.5808c-0.00364,-0.43732 0.34793,-0.79479 0.78525,-0.79843c0.43732,-0.00364 0.79479,0.34793 0.79843,0.78525c0.00364,0.43732 -0.34793,0.79479 -0.78525,0.79843c-0.43732,0.00364 -0.79479,-0.34793 -0.79843,-0.78525z" fill="#000000" stroke="none" stroke-linecap="butt"/><path d="M246.19483,174.58168c-0.00364,-0.43732 0.34793,-0.79479 0.78525,-0.79843c0.43732,-0.00364 0.79479,0.34793 0.79843,0.78525c0.00364,0.43732 -0.34793,0.79479 -0.78525,0.79843c-0.43732,0.00364 -0.79479,-0.34793 -0.79843,-0.78525z" fill="#000000" stroke="none" stroke-linecap="butt"/><path d="M229.63749,174.94178c-0.00364,-0.43732 0.34793,-0.79479 0.78525,-0.79843c0.43732,-0.00364 0.79479,0.34793 0.79843,0.78525c0.00364,0.43732 -0.34793,0.79479 -0.78525,0.79843c-0.43732,0.00364 -0.79479,-0.34793 -0.79843,-0.78525z" fill="#000000" stroke="none" stroke-linecap="butt"/><path d="M229.22472,170.41612c-0.00364,-0.43732 0.34793,-0.79479 0.78525,-0.79843c0.43732,-0.00364 0.79479,0.34793 0.79843,0.78525c0.00364,0.43732 -0.34793,0.79479 -0.78525,0.79843c-0.43732,0.00364 -0.79479,-0.34793 -0.79843,-0.78525z" fill="#000000" stroke="none" stroke-linecap="butt"/><path d="M233.31876,183.24687c-0.00364,-0.43732 0.34793,-0.79479 0.78525,-0.79843c0.43732,-0.00364 0.79479,0.34793 0.79843,0.78525c0.00364,0.43732 -0.34793,0.79479 -0.78525,0.79843c-0.43732,0.00364 -0.79479,-0.34793 -0.79843,-0.78525z" fill="#000000" stroke="none" stroke-linecap="butt"/><path d="M242.374,182.89365c-0.00364,-0.43732 0.34793,-0.79479 0.78525,-0.79843c0.43732,-0.00364 0.79479,0.34793 0.79843,0.78525c0.00364,0.43732 -0.34793,0.79479 -0.78525,0.79843c-0.43732,0.00364 -0.79479,-0.34793 -0.79843,-0.78525z" fill="#000000" stroke="none" stroke-linecap="butt"/><path d="M233.11632,192.30672c-0.00364,-0.43732 0.34793,-0.79479 0.78525,-0.79843c0.43732,-0.00364 0.79479,0.34793 0.79843,0.78525c0.00364,0.43732 -0.34793,0.79479 -0.78525,0.79843c-0.43732,0.00364 -0.79479,-0.34793 -0.79843,-0.78525z" fill="#000000" stroke="none" stroke-linecap="butt"/><path d="M242.5619,192.11697c-0.00364,-0.43732 0.34793,-0.79479 0.78525,-0.79843c0.43732,-0.00364 0.79479,0.34793 0.79843,0.78525c0.00364,0.43732 -0.34793,0.79479 -0.78525,0.79843c-0.43732,0.00364 -0.79479,-0.34793 -0.79843,-0.78525z" fill="#000000" stroke="none" stroke-linecap="butt"/><path d="M229.27388,175.04692l4.66437,6.57027l-2.49217,1.76926l-4.66437,-6.57027z" fill="#c6c6c6" stroke="#6f6f6f" stroke-linecap="butt"/><path d="M251.28242,177.61591l-5.40604,5.97493l-2.26635,-2.05056l5.40604,-5.97492z" fill="#c6c6c6" stroke="#6f6f6f" stroke-linecap="butt"/><path d="M241.10366,166.51675l-2.50117,2.54315l-2.54315,-2.50117" fill="none" stroke="#000000" stroke-linecap="round"/><path d="M233.58612,171.3984c-0.01062,-1.27552 1.01479,-2.31814 2.29031,-2.32876c1.27552,-0.01062 2.31814,1.01479 2.32876,2.29031c0.01062,1.27552 -1.01479,2.31814 -2.29031,2.32876c-1.27552,0.01062 -2.31814,-1.01479 -2.32876,-2.29031z" fill="#ff0000" stroke="none" stroke-linecap="butt"/><path d="M238.60001,171.22468c-0.01062,-1.27552 1.01479,-2.31814 2.29031,-2.32876c1.27552,-0.01062 2.31814,1.01479 2.32876,2.29031c0.01062,1.27552 -1.01479,2.31814 -2.29031,2.32876c-1.27552,0.01062 -2.31814,-1.01479 -2.32876,-2.29031z" fill="#ff0000" stroke="none" stroke-linecap="butt"/></g></g></svg>