<svg version="1.1" xmlns="http://www.w3.org/2000/svg" xmlns:xlink="http://www.w3.org/1999/xlink" width="487" height="530.59087" viewBox="0,0,487,530.59087"><g transform="translate(3.1521,96.40913)"><g data-paper-data="{&quot;isPaintingLayer&quot;:true}" fill-rule="nonzero" stroke-linecap="butt" stroke-linejoin="miter" stroke-miterlimit="10" stroke-dasharray="" stroke-dashoffset="0" style="mix-blend-mode: normal"><g data-paper-data="{&quot;index&quot;:null}"><g stroke="#000000" stroke-width="2"><path d="M24.20771,64.97141l17.74068,18.77258l-6.35469,9.96666l-17.74068,-18.77258z" fill="#b3b3b3"/><path d="M28.05416,89.01838l16.70592,-12.30751l28.3221,38.44374l-16.70592,12.30751z" fill="#c7c7c7"/></g><path d="M52.42149,112.97465c-1.24344,-0.60019 -1.76489,-2.09474 -1.1647,-3.33818c0.60019,-1.24344 2.09474,-1.7649 3.33818,-1.16471c1.24344,0.60019 1.7649,2.09474 1.16471,3.33818c-0.60019,1.24344 -2.09474,1.76489 -3.33819,1.1647z" fill="#ff0000" stroke="none" stroke-width="0.5"/></g><g><g stroke="#000000" stroke-width="2"><path d="M465.08219,75.93807l-17.74069,18.77258l-6.35468,-9.96666l17.74069,-18.77257z" fill="#b3b3b3"/><path d="M426.55895,128.46212l-16.70592,-12.30751l28.3221,-38.44374l16.70592,12.30751z" fill="#c7c7c7"/></g><path d="M427.17553,112.80994c-0.60019,-1.24344 -0.07873,-2.73799 1.16471,-3.33818c1.24344,-0.60019 2.73799,-0.07873 3.33818,1.16471c0.60019,1.24344 0.07873,2.73799 -1.16471,3.33818c-1.24344,0.60019 -2.73799,0.07873 -3.33818,-1.16471z" fill="#ff0000" stroke="none" stroke-width="0.5"/></g><path d="M93.84793,397.59087v-123h297v123z" fill="#a7a7a7" stroke="#9e9e9e" stroke-width="5"/><path d="M209.84792,124.59087v-218h62v218z" fill="#a7a7a7" stroke="#9e9e9e" stroke-width="5"/><path d="M0.3479,76.68174v-170.59087h481v170.59087z" fill="#a7a7a7" stroke="#9e9e9e" stroke-width="5"/><path d="M-0.6521,431.68174v-112h481v112z" fill="#a7a7a7" stroke="#9e9e9e" stroke-width="5"/><path d="M112.84793,175.59087v-57h261v57z" fill="#a7a7a7" stroke="#9e9e9e" stroke-width="5"/></g></g></svg>