<svg version="1.1" xmlns="http://www.w3.org/2000/svg" xmlns:xlink="http://www.w3.org/1999/xlink" width="117.3582" height="90.92807" viewBox="0,0,117.3582,90.92807"><g transform="translate(-189.45161,-142.3169)"><g data-paper-data="{&quot;isPaintingLayer&quot;:true}" fill-rule="nonzero" stroke-linejoin="miter" stroke-miterlimit="10" stroke-dasharray="" stroke-dashoffset="0" style="mix-blend-mode: normal"><g data-paper-data="{&quot;index&quot;:null}" fill="#949494" stroke="#000000" stroke-width="2"><path d="M202.82974,205.16811c0,0 -5.38023,-12.55908 -1.55965,-18.90176c1.37336,-2.27997 1.15797,-2.48893 3.36385,-6.31523c0.79455,-1.37822 1.73659,-2.777 2.72295,-4.42769c2.645,-4.42644 5.4575,-9.20154 5.4575,-9.20154c0,0 12.54842,3.44604 17.02777,3.909c0.4325,0.0447 21.37404,2.68518 21.81087,2.72751c10.69134,1.03576 7.22563,0.5123 7.22563,0.5123c0,0 5.31012,-2.71937 6.89498,-2.24355c3.04341,0.91372 6.33813,-2.02289 7.43032,3.77327c0.51335,2.7243 0.30594,2.99937 0.28318,6.66113c-0.03323,5.34535 -0.62958,13.45109 -2.97646,18.62747c-3.15854,6.96661 -8.30451,10.29947 -8.30451,10.29947z" stroke-linecap="butt"/><path d="M226.04301,206.61196c0,0 10.02444,-7.98213 10.6389,-17.34209c0.0822,-4.30914 -3.76637,-13.53025 -3.76637,-13.53025l-3.50376,-5.37674l2.86821,4.59468c0,0 4.12831,-0.04651 6.39063,-0.072c2.56151,-0.02887 8.19263,-0.09231 8.19263,-0.09231l-0.06534,-1.67829" stroke-linecap="round"/><path d="M258.16383,180.97581c0,0 3.04855,0.83062 5.53038,2.73629c3.02483,2.32262 5.57563,6.04836 5.36574,9.37548c-0.20819,3.30016 -1.50391,7.97118 -4.56722,10.59904c-3.77997,3.24267 -9.57428,4.06835 -11.20145,3.70803c-4.41248,-0.97709 -7.25019,-9.44792 -7.3318,-11.42095c-0.2248,-5.43451 2.88298,-11.94454 3.95774,-13.11272c2.00392,-2.17811 8.24661,-1.88517 8.24661,-1.88517" stroke-linecap="round"/><path d="M206.96833,188.81814c0.50495,-4.88567 3.89856,-7.32563 8.13619,-8.60539c1.30815,-0.39507 4.19615,-1.10444 5.6274,-0.95651c6.06764,0.62711 9.55451,5.74851 8.89368,12.14238c-0.66083,6.39387 -6.92181,11.94056 -12.98946,11.31345c-6.06765,-0.62711 -10.32865,-7.50008 -9.66782,-13.89394z" stroke-linecap="butt"/></g><g data-paper-data="{&quot;index&quot;:null}" stroke="#000000" stroke-width="2" stroke-linecap="round"><path d="M190.6889,161.66723c0,0 9.79182,-0.80783 15.24916,1.15899c2.34722,0.84593 4.97573,2.46989 5.76605,3.79212c0.91762,1.53518 -0.22604,2.72744 -0.60632,2.82744c-2.56499,0.67452 -7.72993,-0.14446 -9.82561,-0.90215c-3.67346,-1.32812 -10.82057,-6.8656 -10.82057,-6.8656" fill="#d8d8d8"/><path d="M206.5004,169.50836l1.39136,-6.00752" fill="none"/></g><path d="M273.91864,196.19646l-14.18487,5.59385c0,0 -5.28433,1.56532 -6.75288,0.25662c-0.83372,-0.74296 -3.98959,-3.00504 -4.91896,-4.86276c-1.16375,-2.32629 0.47721,-4.90548 0.57359,-6.10001c0.04209,-0.52156 3.68775,-2.92141 3.68775,-2.92141c0,0 3.32414,-0.87974 5.5246,-1.46209c3.26589,-0.86433 12.16962,-3.22072 12.16962,-3.22072z" data-paper-data="{&quot;index&quot;:null}" fill="#949494" stroke="#000000" stroke-width="2.5" stroke-linecap="butt"/><g data-paper-data="{&quot;index&quot;:null}"><g><path d="M199.83253,204.3838l1.1042,-5.83459l4.90106,0.92753l-1.1042,5.83459z" data-paper-data="{&quot;index&quot;:null}" fill="#000000" stroke="none" stroke-width="0" stroke-linecap="butt"/><path d="M211.96747,210.59924l-0.34574,4.98172l0.31782,4.722l-2.67322,3.59707l3.35634,-0.54849l2.46209,1.07688l1.67342,0.36529l2.1063,1.47123l-3.10611,2.49114l-9.46297,3.19381l-1.67342,-0.36529l-3.51998,-1.17295l-3.77079,-8.98205l3.99978,-9.983z" fill="#949494" stroke="#000000" stroke-width="2.5" stroke-linecap="round"/><path d="M200.76349,210.64841l-2.0873,-4.02939l1.43268,-2.85644l3.31779,-1.29863l4.48182,2.32692l4.02995,3.77916l0.02905,2.02922z" fill="#242424" stroke="#000000" stroke-width="2.5" stroke-linecap="round"/><path d="M206.76401,204.47362l1.17352,2.34647l-2.19231,4.17405" fill="none" stroke="#000000" stroke-width="2.5" stroke-linecap="round"/></g><g stroke="none" stroke-linecap="butt"><path d="M200.57138,227.78126l-2.61114,-5.17598l4.89437,-10.81838l7.81341,-0.23141l0.43458,8.15134l-3.37378,5.09548z" fill="#8c6200" stroke-width="NaN"/><path d="M199.43115,215.066l3.89085,-3.75506l7.59517,0.01143l-0.24186,3.13219z" fill="#8c0081" stroke-width="NaN"/><path d="M215.12679,228.66096l-10.94792,2.91017l-3.09786,-4.82799l6.83072,-2.64041l3.34898,0.13432l3.41685,-0.58652l1.2186,0.60278l2.08887,1.77966z" fill="#8c0081" stroke-width="0"/><g fill="#ffffff" stroke-width="0.5"><path d="M205.92167,215.02255c0.00024,-0.00038 0.00048,-0.00078 0.00071,-0.00116c0.14261,-0.23357 0.3762,-0.09096 0.3762,-0.09096c1.1338,0.70851 1.04779,1.89915 0.14383,2.54445c-0.02137,-0.12837 -0.16327,-0.15705 -0.16327,-0.15705c-0.96245,-0.1945 -1.91815,-0.40655 -2.88837,-0.54419c-0.21198,-0.41747 -0.29323,-0.84091 -0.1025,-1.11605c0.26869,-0.38757 0.83994,-0.59187 1.25396,-0.72086c0.55218,-0.12439 0.91417,-0.04903 1.37945,0.08578zM204.44378,215.86503c0.11111,0.02246 0.21939,-0.04942 0.24184,-0.16053c0.02245,-0.11112 -0.04942,-0.2194 -0.16054,-0.24185c-0.11112,-0.02245 -0.21939,0.04942 -0.24184,0.16053c-0.02246,0.11111 0.04942,0.21939 0.16053,0.24184zM206.09359,216.16353c0.11112,0.02245 0.21939,-0.04942 0.24184,-0.16055c0.02246,-0.11113 -0.04942,-0.21939 -0.16053,-0.24185c-0.11112,-0.02245 -0.2194,0.04942 -0.24185,0.16054c-0.02246,0.11111 0.04942,0.21939 0.16053,0.24184z"/><path d="M207.51781,217.58349c0.37255,0.07528 0.29727,0.44781 0.29727,0.44781l-0.02448,-0.08141c0.05276,0.20339 0.05129,0.41664 0.01611,0.62905l0.01903,-0.00306l0.00202,0.01255l0.11287,0.0113l-0.04703,0.46999c-0.00125,0.01413 -0.00327,0.02831 -0.00615,0.04253c-0.04157,0.20575 -0.24206,0.33885 -0.44781,0.29727c-0.11196,-0.02262 -0.20241,-0.09231 -0.2549,-0.1843c-0.00596,0.00325 -0.00935,0.00488 -0.00935,0.00488c-0.53758,0.25381 -1.08666,0.46053 -1.63142,0.67999c0.21106,0.19078 0.419,0.38638 0.62322,0.5883c0.56268,0.55634 1.3688,0.92066 1.56414,1.69525c-0.01315,-0.05307 -0.04587,-0.18518 -0.05974,-0.24119l0.13333,-0.02352l-0.02303,-0.05148l0.36899,-0.16516c0.07079,-0.03275 0.15227,-0.04407 0.23461,-0.02744c0.20575,0.04158 0.33884,0.24208 0.29725,0.44783c-0.00688,0.03408 -0.01813,0.06618 -0.03303,0.0958l-0.16476,0.34603l-0.06122,-0.02915c-0.11406,0.31053 -0.30577,0.493 -0.73298,0.71782c-0.06237,0.09222 -0.17712,0.18428 -0.38021,0.14324c-0.37255,-0.07528 -0.29727,-0.44782 -0.29727,-0.44782l0.21865,-0.31449c0.04007,-0.01803 0.07712,-0.03841 0.11183,-0.06007c-0.43177,-0.38146 -1.02172,-0.93149 -1.12821,-1.02624c-0.49549,-0.44077 -0.98705,-0.8745 -1.48227,-1.30201c-0.1741,0.08018 -0.34691,0.16486 -0.51791,0.25608c-0.33059,0.17633 -0.62945,0.39361 -0.93584,0.60112c0.18686,0.18133 0.3553,0.41048 0.51349,0.74137l0.24894,0.37502c0.05379,0.08102 0.07667,0.1826 0.05589,0.28547c-0.04159,0.20576 -0.24208,0.33886 -0.44782,0.29727c-0.04654,-0.00941 -0.08936,-0.02695 -0.12728,-0.05082l-0.64492,-0.38542l0.0155,-0.02595c-0.59099,-0.23594 -1.01652,-0.5429 -1.6103,-1.20848l-0.10722,-0.15462c0,0 -0.21019,-0.31666 0.10647,-0.52686c0.03083,-0.02046 0.06067,-0.03595 0.08941,-0.0472c0.01154,-0.02916 0.02746,-0.05943 0.0486,-0.09068c0.21278,-0.31492 0.52771,-0.10215 0.52771,-0.10215c0.25041,0.17065 0.47495,0.29924 0.67902,0.4215c0.41745,-0.25688 0.79544,-0.56719 1.23221,-0.80109c0.08019,-0.04295 0.1609,-0.08444 0.24201,-0.12469c-0.44754,-0.37831 -0.90059,-0.75197 -1.36459,-1.12151c-0.27498,0.21429 -0.56898,0.34181 -0.82019,0.21367c-1.16639,-0.59495 0.67937,-1.75465 1.05837,-1.92469l0.258,-0.04866c0,0 0.37725,-0.0464 0.42362,0.33084c0.00268,0.02174 0.00393,0.04237 0.00395,0.06197c0.78819,0.12668 1.5685,0.29569 2.35258,0.4555c-0.06154,0.02731 -0.12546,0.0525 -0.1917,0.07545c-0.10195,0.0353 -0.96215,0.33985 -1.06918,0.33036c-0.31771,-0.02819 -0.75369,-0.38212 -1.093,-0.82713c-0.00195,0.02484 -0.00602,0.04783 -0.01183,0.0691c0.06543,0.1852 -0.069,0.35733 -0.069,0.35733c-0.06923,0.08825 -0.17146,0.22067 -0.29487,0.36514c0.55016,0.42882 1.09383,0.85506 1.62239,1.30084c0.64802,-0.26878 1.30733,-0.50493 1.94301,-0.81011c0,0 0.03644,-0.01734 0.09122,-0.02883c-0.10586,-0.19818 -0.1907,-0.40859 -0.25996,-0.62154c0,0 -0.11511,-0.36222 0.24711,-0.47734c0.24513,-0.0779 0.37708,0.06282 0.43678,0.16192c0.04459,-0.007 0.09561,-0.0062 0.1539,0.00559z"/></g></g></g><path d="M223.28031,197.97779l-13.78476,10.19145l-7.42346,-8.34131l-0.38234,-1.54683l10.82437,-11.10104l6.13979,-3.04953l4.88954,2.07407l2.48644,4.74708l-0.26653,3.34853z" data-paper-data="{&quot;index&quot;:null}" fill="#949494" stroke="#000000" stroke-width="2.5" stroke-linecap="round"/><g data-paper-data="{&quot;index&quot;:null}"><g><path d="M276.0218,188.27783l-5.93742,0.09423l-0.07916,-4.98742l5.93742,-0.09423z" fill="#000000" stroke="none" stroke-width="0" stroke-linecap="butt"/><path d="M304.90972,180.56896c0,0 1.12338,0.58843 0.65009,1.51115c-1.2402,2.41787 -8.36605,13.5315 -8.36605,13.5315l-17.56105,1.03257c0,0 1.76709,-7.13223 2.20378,-10.05236c0.16941,-1.13288 11.62563,-2.331 12.00233,-3.02823c0.39155,-0.72473 1.6066,2.84353 2.33461,3.19747c0.82199,0.39964 1.1539,-2.37993 1.43174,-2.839c0.78283,-1.29345 2.62015,-3.41176 2.62015,-3.41176l4.68438,0.05869z" fill="#949494" stroke="#000000" stroke-width="2.5" stroke-linecap="butt"/><path d="M277.95898,197.57469l-4.3638,-9.30446l1.01714,-2.80293l1.97988,-1.65648l2.80486,-0.08075l2.72192,1.92501z" fill="#242424" stroke="#000000" stroke-width="2.5" stroke-linecap="butt"/><path d="M280.30633,190.94377l-1.79671,1.13372l-2.19782,-0.49725" fill="none" stroke="#000000" stroke-width="2.5" stroke-linecap="round"/><path d="M295.70155,186.37926l3.89309,4.57732" fill="none" stroke="#000000" stroke-width="2.5" stroke-linecap="round"/></g><g stroke="none" stroke-linecap="butt"><path d="M297.36852,194.00832l-16.19209,2.08765l0.84095,-10.15813l3.27719,0.39344l8.15059,-1.12736z" fill="#8c6200" stroke-width="NaN"/><path d="M285.04689,195.52479l-3.90991,0.27312l1.2335,-9.7074l3.45686,0.47544z" fill="#8c0081" stroke-width="NaN"/><path d="M297.35035,194.46141l-6.82737,-8.51541l2.87603,-0.88935l3.76505,2.047l1.35049,-2.77071l2.35637,-2.54292l1.334,-0.26224l2.74043,0.14311z" fill="#8c0081" stroke-width="0"/><g fill="#ffffff" stroke-width="0.5"><path d="M284.9939,191.75751c-0.00044,-0.00011 -0.00088,-0.00022 -0.00132,-0.00032c-0.26579,-0.06521 -0.20059,-0.33101 -0.20059,-0.33101c0.33198,-1.29509 1.49277,-1.57362 2.38149,-0.90744c-0.11588,0.05923 -0.10023,0.20316 -0.10023,0.20316c0.10603,0.97616 0.19328,1.95121 0.35584,2.91757c-0.33369,0.32843 -0.71265,0.53408 -1.03263,0.43558c-0.45073,-0.13873 -0.8184,-0.62133 -1.06668,-0.97686c-0.28574,-0.4886 -0.3235,-0.85642 -0.33589,-1.34068zM286.01807,192.72911c-0.1127,0.01223 -0.19413,0.11351 -0.18189,0.22622c0.01223,0.1127 0.11351,0.19413 0.22622,0.18189c0.1127,-0.01223 0.19413,-0.11351 0.18189,-0.22622c-0.01223,-0.1127 -0.11351,-0.19413 -0.22622,-0.18189zM286.02926,191.24825c-0.01223,-0.1127 -0.11351,-0.19413 -0.22622,-0.18189c-0.1127,0.01223 -0.19413,0.11351 -0.18189,0.22622c0.01224,0.11269 0.11351,0.19413 0.22622,0.18189c0.1127,-0.01224 0.19414,-0.11352 0.18189,-0.22622z"/><path d="M286.95138,189.46094c-0.04104,-0.37784 0.33681,-0.41889 0.33681,-0.41889l-0.07017,0.04798c0.17787,-0.11185 0.38154,-0.17504 0.59465,-0.20581l-0.00868,-0.01723l0.01135,-0.00572l-0.02341,-0.11099l0.46217,-0.09748c0.01383,-0.0031 0.02798,-0.00545 0.04239,-0.00701c0.20868,-0.02266 0.39623,0.12812 0.41889,0.33681c0.01234,0.11355 -0.02671,0.22085 -0.09847,0.29872c0.0049,0.0047 0.00747,0.00745 0.00747,0.00745c0.40466,0.43552 0.76791,0.89624 1.142,1.34898c0.11793,-0.25892 0.24139,-0.51631 0.372,-0.77208c0.35987,-0.70471 0.46302,-1.58328 1.14212,-2.00398c-0.04659,0.02859 -0.1626,0.09977 -0.21177,0.12995l-0.06279,-0.11996l-0.0421,0.03755l-0.26913,-0.30166c-0.05264,-0.05756 -0.0881,-0.13179 -0.09717,-0.21527c-0.02267,-0.20869 0.12812,-0.39623 0.33681,-0.41889c0.03457,-0.00375 0.06856,-0.00275 0.10131,0.00249l0.37967,0.05227l-0.00924,0.06716c0.33048,0.01469 0.56243,0.14217 0.90604,0.48125c0.10679,0.03153 0.22924,0.11301 0.25162,0.31901c0.04104,0.37785 -0.33681,0.41889 -0.33681,0.41889l-0.36593,-0.11317c-0.02931,-0.03272 -0.05994,-0.06189 -0.09112,-0.0884c-0.23283,0.527 -0.57843,1.25578 -0.63648,1.38597c-0.27008,0.60567 -0.53462,1.20548 -0.79213,1.8069c0.12913,0.14165 0.26216,0.28072 0.40086,0.41608c0.26815,0.26169 0.56571,0.48073 0.85625,0.70991c0.11624,-0.23299 0.28364,-0.4629 0.55111,-0.71385l0.28204,-0.35079c0.06095,-0.07581 0.15083,-0.12835 0.25515,-0.13968c0.20869,-0.02267 0.39623,0.12812 0.41889,0.33681c0.00513,0.04721 0.00139,0.09333 -0.0099,0.1367l-0.17208,0.73133l-0.02942,-0.00692c-0.04593,0.63471 -0.20967,1.13319 -0.66422,1.9006l-0.1149,0.149c0,0 -0.23817,0.29621 -0.53437,0.05804c-0.02885,-0.0232 -0.05262,-0.04694 -0.07205,-0.07091c-0.03128,-0.00218 -0.06494,-0.00819 -0.10113,-0.01886c-0.36456,-0.10744 -0.25712,-0.47201 -0.25712,-0.47201c0.08683,-0.29033 0.14139,-0.54326 0.19613,-0.77477c-0.37121,-0.32009 -0.78142,-0.58638 -1.13657,-0.93184c-0.06521,-0.06343 -0.12918,-0.12776 -0.19211,-0.19289c-0.22507,0.54109 -0.44401,1.08599 -0.65573,1.64009c0.28748,0.1972 0.49803,0.43877 0.45196,0.717c-0.2139,1.29177 -1.878,-0.11626 -2.15478,-0.42598l-0.12449,-0.23117c0,0 -0.15843,-0.34549 0.18706,-0.5039c0.01992,-0.00913 0.03919,-0.01658 0.05787,-0.02253c-0.1179,-0.78954 -0.19306,-1.5844 -0.27815,-2.38007c0.04466,0.05038 0.08805,0.10368 0.12996,0.15985c0.06452,0.08647 0.6152,0.81409 0.63856,0.91898c0.06932,0.31134 -0.136,0.83401 -0.45739,1.29214c0.02426,-0.00566 0.04741,-0.00875 0.06944,-0.00965c0.1567,-0.11844 0.36146,-0.04243 0.36146,-0.04243c0.10507,0.03926 0.26224,0.09658 0.43727,0.17047c0.24213,-0.65417 0.48375,-1.30136 0.74858,-1.94009c-0.45237,-0.53624 -0.87704,-1.09311 -1.36036,-1.60655c0,0 -0.02755,-0.02948 -0.0551,-0.0782c-0.15683,0.16089 -0.33169,0.30545 -0.51367,0.43594c0,0 -0.31037,0.21939 -0.52975,-0.09098c-0.14847,-0.21004 -0.05431,-0.3784 0.02208,-0.46531c-0.02017,-0.04037 -0.03485,-0.08924 -0.04126,-0.14837z"/></g></g></g><g data-paper-data="{&quot;index&quot;:null}"><g stroke="#000000" stroke-width="2.5"><path d="M267.09007,170.38004c0,0 1.07401,-1.10016 1.31583,-2.25727c0.21628,-1.03496 0.06706,-4.35988 0.06706,-4.35988c0,0 -2.47758,-5.33823 -0.50885,-8.0711c0.22348,-0.31023 5.64898,-6.7406 12.15719,-8.37427c4.65178,-1.16768 10.87754,2.05502 11.4747,2.82605c0.46159,0.59599 4.03742,3.19506 6.64285,6.81221c3.67179,5.0976 6.32235,11.1149 6.32235,11.1149l-8.59144,10.75371l-17.98922,-10.61904l-3.09261,6.72026z" fill="#949494" stroke-linecap="butt"/><path d="M300.17487,173.99468l-9.97053,-8.83639l-1.19821,-4.54758l2.15116,-10.29336l7.8504,8.70025l5.08062,8.73529z" fill="#000000" stroke-linecap="round"/><path d="M287.34795,161.56867l1.43645,0.83734" fill="none" stroke-linecap="round"/><path d="M287.26337,164.54369l-1.93244,-1.40142" fill="none" stroke-linecap="round"/><path d="M284.63071,165.75841l-1.11162,-0.92294" fill="none" stroke-linecap="round"/><path d="M294.54293,177.98906c0,0 -10.59251,-6.63299 -16.4293,-9.38342c-1.4361,-0.67673 -1.18027,1.60304 -2.03743,1.116c-7.59448,-4.31521 -7.34465,-6.53955 -7.54311,-7.80281c-0.49294,-3.13758 -0.73005,-7.08414 -0.34351,-7.53478c0.49704,-0.57947 2.88046,-1.2303 2.88046,-1.2303l2.61721,3.3025l3.76279,4.39291l4.32685,3.89692l8.49905,5.22926l4.82386,7.7608" fill="#373737" stroke-linecap="round"/><path d="M293.08927,179.81978l-2.01702,1.57358l-10.67073,-6.22025l-2.01803,-1.72624l0.37539,-2.53054l1.36737,-1.40241l1.74375,-0.63314l0.992,1.12814l0.30831,1.82935l0.22272,1.50451z" fill="#000000" stroke-linecap="round"/><path d="M271.29629,171.18236l1.52103,-2.13764" fill="none" stroke-linecap="round"/><path d="M269.56806,166.60074l7.02857,4.92195" fill="none" stroke-linecap="round"/><path d="M283.12118,149.48202l-2.10262,1.24876l-0.66617,2.0861l-2.12113,-3.43595l2.478,-3.7793l4.78682,-1.60862l0.27428,2.35937l-1.46948,2.99251z" fill="#151515" stroke-linecap="round"/><path d="M281.88172,153.02328l-3.11213,-1.26427l0.23824,-3.71023l1.53854,-0.75276l3.12865,-0.65065l1.76128,0.75176l0.54755,1.41892l0.42793,1.62413l-0.90541,2.49651z" fill="none" stroke-linecap="round"/></g><path d="M300.52297,162.68254c1.8386,1.94628 1.60039,3.55047 0.33459,4.90705c-1.26579,1.35659 -3.46785,1.35909 -4.91843,0.00558c-1.45058,-1.3535 -1.60039,-3.55047 -0.33459,-4.90705c1.26579,-1.35659 3.02457,-2.01036 4.91843,-0.00558z" fill="#54ff00" stroke="none" stroke-width="0" stroke-linecap="butt"/><path d="M291.16636,159.66267c-0.91426,-0.40513 -0.50915,-1.31939 -0.50915,-1.31939l0.66601,-1.21122c1.2844,-1.00043 2.34074,-1.72685 3.94407,-2.07164c0,0 0.98028,-0.19756 1.17785,0.78273c0.19756,0.98028 -0.78273,1.17785 -0.78273,1.17785c-1.29223,0.23662 -2.08838,0.89035 -3.10898,1.68795l-0.0677,0.44458c0,0 -0.40513,0.91426 -1.31939,0.50915z" fill="#54ff00" stroke="none" stroke-width="0.5" stroke-linecap="butt"/></g></g></g></svg>