<svg version="1.1" xmlns="http://www.w3.org/2000/svg" xmlns:xlink="http://www.w3.org/1999/xlink" width="135.72249" height="77.03245" viewBox="0,0,135.72249,77.03245"><g transform="translate(-174.73792,-124.27999)"><g data-paper-data="{&quot;isPaintingLayer&quot;:true}" fill-rule="nonzero" stroke-linejoin="miter" stroke-miterlimit="10" stroke-dasharray="" stroke-dashoffset="0" style="mix-blend-mode: normal"><g data-paper-data="{&quot;index&quot;:null}" fill="#949494" stroke="#000000" stroke-width="2"><path d="M204.7492,200.30539c0,0 -6.64286,-11.93942 -3.49459,-18.64127c1.13169,-2.40908 0.89596,-2.59479 2.69679,-6.62759c0.64865,-1.4526 1.4419,-2.94082 2.25333,-4.68416c2.17592,-4.67491 4.48262,-9.71385 4.48262,-9.71385c0,0 12.8362,2.13774 17.33941,2.13774c0.4348,0 21.53684,0.47359 21.97571,0.47078c10.74117,-0.06885 7.24001,-0.23325 7.24001,-0.23325c0,0 5.00242,-3.25087 6.6278,-2.9405c3.12122,0.596 6.09658,-2.66377 7.77886,2.9894c0.7907,2.65709 0.61267,2.95203 0.96648,6.59672c0.51648,5.32044 0.7566,13.44454 -1.04569,18.83477c-2.4256,7.25441 -7.20167,11.09865 -7.20167,11.09865z" stroke-linecap="butt"/><path d="M227.98791,199.35514c0,0 9.15072,-8.9704 8.79967,-18.34394c-0.36124,-4.29476 -5.1374,-13.07136 -5.1374,-13.07136l-4.03795,-4.98805l3.32537,4.27547c0,0 4.10165,-0.47068 6.34937,-0.72861c2.54497,-0.29205 8.13973,-0.93407 8.13973,-0.93407l-0.23753,-1.66268" stroke-linecap="round"/><path d="M257.303,170.55263c0,0 3.11779,0.51281 5.78238,2.15324c3.24758,1.99934 6.16789,5.44311 6.30116,8.77418c0.13219,3.30408 -0.67646,8.08355 -3.45338,11.01242c-3.42658,3.61409 -9.1053,5.03108 -10.76089,4.83995c-4.48955,-0.51829 -8.18307,-8.6525 -8.46709,-10.60669c-0.78231,-5.3826 1.63974,-12.17764 2.58871,-13.45012c1.76938,-2.37258 8.00911,-2.72298 8.00911,-2.72298" stroke-linecap="round"/><path d="M207.185,183.61658c0,-4.91169 3.12479,-7.68761 7.2084,-9.39624c1.2606,-0.52746 4.06037,-1.52997 5.49925,-1.52997c6.09996,0 10.09486,4.7358 10.09486,11.16373c0,6.42793 -5.65758,12.58889 -11.75755,12.58889c-6.09997,0 -11.04497,-6.3985 -11.04497,-12.82642z" stroke-linecap="butt"/></g><g data-paper-data="{&quot;index&quot;:null}" stroke="#000000" stroke-width="2" stroke-linecap="round"><path d="M187.97052,155.68868c0,0 9.8184,-0.36242 15.18081,1.85015c2.30639,0.95163 4.85845,2.69326 5.58793,4.05c0.84697,1.57526 -0.34964,2.71436 -0.73406,2.79699c-2.59296,0.55736 -7.71539,-0.49528 -9.77452,-1.34734c-3.60936,-1.49353 -10.49769,-7.34981 -10.49769,-7.34981" fill="#d8d8d8"/><path d="M205.07239,158.30146l-1.66268,5.93816" fill="none"/></g><g data-paper-data="{&quot;index&quot;:null}"><g><path d="M201.14244,173.05256l5.92582,-0.38265l0.32142,4.97769l-5.92582,0.38265z" data-paper-data="{&quot;index&quot;:null}" fill="#000000" stroke="none" stroke-width="0" stroke-linecap="butt"/><path d="M198.14267,186.35257l-4.91102,0.90497l-4.49432,1.48301l-4.14919,-1.69388l1.36656,3.11422l-0.43024,2.65264l0.06268,1.71168l-0.90072,2.40618l-3.18579,-2.38838l-5.44842,-8.37036l-0.06268,-1.71168l0.26001,-3.70115l7.76097,-5.88757l10.66433,1.38939z" fill="#949494" stroke="#000000" stroke-width="2.5" stroke-linecap="round"/><path d="M195.30663,175.51336l3.38312,-3.02446l3.12312,0.6767l2.08349,2.8902l-1.13829,4.91991l-2.65728,4.84369l-1.95814,0.53315z" fill="#242424" stroke="#000000" stroke-width="2.5" stroke-linecap="round"/><path d="M202.78053,179.7883l-1.98058,1.72058l-4.58833,-1.0845" fill="none" stroke="#000000" stroke-width="2.5" stroke-linecap="round"/></g><g stroke="none" stroke-linecap="butt"><path d="M178.66506,179.59124l4.36326,-3.81716l11.69608,2.04794l2.16871,7.50997l-7.7867,2.44959l-5.77481,-1.99948z" fill="#8c6200" stroke-width="NaN"/><path d="M190.69645,175.32236l4.60525,2.83388l1.87919,7.35903l-3.09383,0.54528z" fill="#8c0081" stroke-width="NaN"/><path d="M181.43554,193.90761l-5.54329,-9.87917l3.9051,-4.20196l4.25734,5.95866l0.70339,3.27704l1.41843,3.16337l-0.28054,1.33027l-1.20377,2.46605z" fill="#8c0081" stroke-width="0"/><g fill="#ffffff" stroke-width="0.5"><path d="M192.35388,181.59785c0.00043,0.00014 0.00087,0.00027 0.0013,0.00041c0.26171,0.08 0.18172,0.34172 0.18172,0.34172c-0.40404,1.27445 -1.57862,1.48748 -2.4286,0.77255c0.11901,-0.05264 0.11146,-0.19722 0.11146,-0.19722c-0.05115,-0.98056 -0.08364,-1.95898 -0.19178,-2.93292c0.35158,-0.3092 0.74147,-0.49329 1.05543,-0.37703c0.44224,0.16378 0.78228,0.66622 1.01025,1.0351c0.25789,0.50385 0.275,0.8732 0.26023,1.3574zM191.17009,180.37612c0.0059,0.1132 0.10247,0.20018 0.21567,0.19429c0.11321,-0.00591 0.20019,-0.10248 0.19429,-0.21567c-0.00591,-0.11321 -0.10247,-0.20018 -0.21567,-0.19429c-0.1132,0.0059 -0.20018,0.10247 -0.19429,0.21567zM191.29158,182.04833c0.00591,0.11321 0.10248,0.20017 0.21568,0.19428c0.11322,-0.00589 0.20019,-0.10247 0.19428,-0.21566c-0.00591,-0.11321 -0.10248,-0.20019 -0.21567,-0.19429c-0.1132,0.0059 -0.20018,0.10247 -0.19429,0.21567z"/><path d="M190.27076,183.78113c0.01981,0.37956 -0.35975,0.39936 -0.35975,0.39936l0.07275,-0.04398c-0.18386,0.10171 -0.39076,0.15337 -0.60525,0.17216l0.0077,0.01768l-0.01165,0.00507l0.01714,0.11212l-0.46691,0.07142c-0.01398,0.00232 -0.02824,0.00387 -0.04273,0.00463c-0.20963,0.01094 -0.38843,-0.15011 -0.39936,-0.35975c-0.00595,-0.11407 0.03903,-0.21901 0.11505,-0.29274c-0.00463,-0.00495 -0.00705,-0.00785 -0.00705,-0.00785c-0.37961,-0.4575 -0.71648,-0.93786 -1.06462,-1.41086c-0.13225,0.25191 -0.26995,0.50197 -0.41468,0.75002c-0.3988,0.68344 -0.55102,1.55485 -1.25263,1.93684c0.04813,-0.02594 0.16793,-0.09051 0.21873,-0.11788l0.05598,0.12329l0.04413,-0.03512l0.2518,0.31627c0.04934,0.06042 0.08057,0.13652 0.08496,0.22039c0.01093,0.20962 -0.15013,0.38842 -0.35977,0.39935c-0.03472,0.00181 -0.06861,-0.00109 -0.10101,-0.00815l-0.37614,-0.07345l0.01299,-0.06654c-0.32914,-0.03319 -0.55358,-0.17346 -0.87765,-0.53127c-0.10485,-0.03746 -0.22255,-0.12568 -0.23336,-0.3326c-0.01981,-0.37956 0.35975,-0.39936 0.35975,-0.39936l0.35902,0.1335c0.02744,0.03431 0.05639,0.06515 0.08602,0.09337c0.26199,-0.51312 0.64789,-1.22139 0.71315,-1.34812c0.30359,-0.58959 0.60132,-1.17363 0.89214,-1.75967c-0.12099,-0.14866 -0.24601,-0.29497 -0.3769,-0.43789c-0.25306,-0.27631 -0.53788,-0.51169 -0.81512,-0.75679c-0.12912,0.22611 -0.30914,0.44629 -0.59024,0.68185l-0.30126,0.33444c-0.06508,0.07227 -0.15777,0.1197 -0.26258,0.12517c-0.20963,0.01093 -0.38844,-0.15013 -0.39936,-0.35975c-0.00247,-0.04743 0.00386,-0.09325 0.01756,-0.13593l0.2128,-0.72054l0.02899,0.00856c0.08143,-0.63111 0.27283,-1.11965 0.76969,-1.86039l0.12307,-0.14233c0,0 0.25438,-0.28238 0.53678,-0.02801c0.0275,0.02478 0.04992,0.04982 0.06797,0.07484c0.03111,0.00393 0.06438,0.01182 0.09992,0.0245c0.35797,0.12772 0.23027,0.48568 0.23027,0.48568c-0.10295,0.285 -0.17161,0.53448 -0.23924,0.76255c0.3527,0.34039 0.74732,0.62925 1.08256,0.99407c0.06156,0.06698 0.12183,0.13481 0.181,0.20336c0.25504,-0.52761 0.50417,-1.05939 0.74661,-1.60077c-0.27598,-0.213 -0.47266,-0.46601 -0.41107,-0.74121c0.28595,-1.27775 1.86853,0.2213 2.12753,0.54606l0.11134,0.23778c0,0 0.13882,0.35383 -0.21501,0.49263c-0.02039,0.00801 -0.04006,0.01435 -0.05904,0.01925c0.07346,0.79491 0.10398,1.59274 0.14433,2.39193c-0.04176,-0.05282 -0.08208,-0.10845 -0.12079,-0.16688c-0.05956,-0.08995 -0.56862,-0.84729 -0.58605,-0.95332c-0.05177,-0.31472 0.18253,-0.82507 0.52908,-1.26447c-0.02454,0.0043 -0.04782,0.00608 -0.06987,0.00575c-0.16309,0.10947 -0.36326,0.0221 -0.36326,0.0221c-0.10269,-0.04509 -0.2564,-0.11113 -0.42703,-0.19471c-0.27841,0.63957 -0.55592,1.27221 -0.85613,1.89509c0.4216,0.56073 0.81441,1.14053 1.26818,1.68025c0,0 0.02585,0.03097 0.05063,0.08117c0.16559,-0.15185 0.34827,-0.28639 0.53728,-0.40648c0,0 0.32217,-0.20165 0.52382,0.12054c0.13645,0.21803 0.03301,0.38086 -0.04812,0.46335c0.01788,0.04145 0.0298,0.09106 0.03289,0.15044z"/></g></g></g><path d="M215.69167,192.32442l-15.4596,-7.40851l3.89465,-10.46503l1.18777,-1.0621l14.87721,4.36679l5.56939,3.99734l0.45672,5.29157l-3.03037,4.41973l-3.0836,1.33234z" data-paper-data="{&quot;index&quot;:null}" fill="#949494" stroke="#000000" stroke-width="2.5" stroke-linecap="round"/><g><g stroke="#000000" stroke-width="2.5"><path d="M263.15632,158.32968c0,0 0.37382,-1.49134 0,-2.61279c-0.33436,-1.00305 -2.13774,-3.80042 -2.13774,-3.80042c0,0 -4.82884,-3.36413 -4.50429,-6.71662c0.03684,-0.38056 1.48571,-8.6683 6.28563,-13.35727c3.43077,-3.35147 10.43238,-3.70263 11.33658,-3.33724c0.69893,0.28244 5.09711,0.72703 9.16966,2.53989c5.73937,2.55483 11.05964,6.41853 11.05964,6.41853l-2.00675,13.6172l-20.88931,-0.1146l0.71258,7.36331z" fill="#949494" stroke-linecap="butt"/><path d="M293.55969,144.79068l-13.06394,-2.61279l-3.32537,-3.32537l-3.32537,-9.9761l11.16373,3.56289l8.78847,4.98805z" fill="#000000" stroke-linecap="round"/><path d="M276.22027,140.5152h1.66268" fill="none" stroke-linecap="round"/><path d="M277.64543,143.12802l-2.37526,-0.23753" fill="none" stroke-linecap="round"/><path d="M275.98274,145.50328l-1.42516,-0.23753" fill="none" stroke-linecap="round"/><path d="M290.70569,151.07785c0,0 -12.49164,-0.39597 -18.91936,0.1673c-1.58149,0.13859 -0.21237,1.97931 -1.19817,1.99021c-8.7343,0.0966 -9.63865,-1.9509 -10.4463,-2.94232c-2.00598,-2.46241 -4.19835,-5.75255 -4.09135,-6.33654c0.13759,-0.75094 1.86893,-2.51352 1.86893,-2.51352l3.92426,1.53509l5.4631,1.90021l5.70063,1.18763l9.9761,0.23753l8.07589,4.27547" fill="#373737" stroke-linecap="round"/><path d="M287.38827,157.63449l-1.55522,2.03121l-11.89413,-3.32954l-2.38801,-1.16179l-0.27463,-2.54345l0.9697,-1.70181l1.52784,-1.05225l1.24434,0.84164l0.75949,1.69255l0.59478,1.39978z" fill="#000000" stroke-linecap="round"/><path d="M267.4318,154.29175l-0.23753,2.61279" fill="none" stroke-linecap="round"/><path d="M271.94479,154.52927l-8.55094,-0.71258" fill="none" stroke-linecap="round"/><path d="M266.48168,132.20181l-1.18763,2.13774l0.47505,2.13774l-3.56289,-1.90021l0.23753,-4.513l3.32537,-3.80042l1.42516,1.90021l0.23753,3.32537z" fill="#151515" stroke-linecap="round"/><path d="M267.19428,135.88542l-3.32537,0.47505l-1.66268,-3.32537l0.9501,-1.42516l2.37526,-2.13774l1.90021,-0.23753l1.18763,0.9501l1.18763,1.18763l0.47505,2.61279z" fill="none" stroke-linecap="round"/></g><path d="M288.99415,136.00341l-8.50608,-3.99452" fill="none" stroke="#54ff00" stroke-width="1.5" stroke-linecap="round"/><path d="M282.86438,137.12391c-0.15836,-0.17393 -0.30928,-0.4711 -0.08496,-0.87594c0.37611,-0.67878 1.05489,-0.30267 1.05489,-0.30267c0.90987,0.50441 1.78809,1.06393 2.68416,1.59246c0.28701,0.16929 2.14788,1.07068 2.24647,1.43501c0.84969,3.1399 -9.24828,3.9186 -6.25006,-1.68955z" data-paper-data="{&quot;index&quot;:null}" fill="#54ff00" stroke="none" stroke-width="0.5" stroke-linecap="butt"/></g><g data-paper-data="{&quot;index&quot;:null}"><g><path d="M279.2937,186.03171l-5.92802,-0.34693l0.29142,-4.97953l5.92802,0.34693z" fill="#000000" stroke="none" stroke-width="0" stroke-linecap="butt"/><path d="M308.67432,180.48931c0,0 1.07659,0.67022 0.53609,1.55525c-1.41633,2.31909 -9.34779,12.87289 -9.34779,12.87289l-17.58924,-0.27434c0,0 2.29184,-6.98131 2.94418,-9.86096c0.25308,-1.11717 11.76663,-1.46126 12.19406,-2.1286c0.44428,-0.69365 1.39101,2.95498 2.09073,3.362c0.79004,0.45957 1.32744,-2.28767 1.6386,-2.72485c0.87672,-1.23175 2.86627,-3.20777 2.86627,-3.20777z" fill="#949494" stroke="#000000" stroke-width="2.5" stroke-linecap="butt"/><path d="M280.53517,195.44675l-3.66081,-9.60282l1.22247,-2.71966l2.09741,-1.50489l2.80311,0.12776l2.57145,2.12182z" fill="#242424" stroke="#000000" stroke-width="2.5" stroke-linecap="butt"/><path d="M283.36843,189.00845l-1.87594,0.99717l-2.15484,-0.65909" fill="none" stroke="#000000" stroke-width="2.5" stroke-linecap="round"/><path d="M302.60252,190.45356l-3.54243,-4.85378" fill="none" stroke="#000000" stroke-width="2.5" stroke-linecap="round"/></g><g stroke="none" stroke-linecap="butt"><path d="M300.15594,193.33156l-16.30241,0.87948l1.59295,-10.06764l3.23893,0.63572l8.2118,-0.51899z" fill="#8c6200" stroke-width="NaN"/><path d="M287.75572,193.92885l-3.9194,-0.01797l1.95095,-9.589l3.41201,0.73084z" fill="#8c0081" stroke-width="NaN"/><path d="M300.10418,193.78205l-6.17616,-8.99888l2.93413,-0.67333l3.60265,2.32093l1.55251,-2.66278l2.53869,-2.36092l1.3498,-0.16245l2.72224,0.34622z" fill="#8c0081" stroke-width="0"/><g fill="#ffffff" stroke-width="0.5"><path d="M287.98263,190.16805c-0.00043,-0.00013 -0.00086,-0.00028 -0.00129,-0.00042c-0.26022,-0.08476 -0.17545,-0.34499 -0.17545,-0.34499c0.42723,-1.26686 1.60552,-1.45842 2.4423,-0.72809c-0.11995,0.05046 -0.11505,0.19516 -0.11505,0.19516c0.03324,0.98134 0.04786,1.96017 0.1382,2.93593c-0.35716,0.30274 -0.75034,0.47969 -1.06212,0.3577c-0.43919,-0.17182 -0.77,-0.6804 -0.9912,-1.05337c-0.24867,-0.50847 -0.25901,-0.87808 -0.23541,-1.36192zM288.93183,191.21301c-0.11329,0.00383 -0.20202,0.09879 -0.19819,0.21209c0.00383,0.11329 0.09879,0.20202 0.21209,0.19819c0.11329,-0.00383 0.20202,-0.09879 0.19819,-0.21209c-0.00383,-0.11329 -0.09879,-0.20202 -0.21209,-0.19819zM289.05296,189.73707c-0.00383,-0.11329 -0.09879,-0.20202 -0.21209,-0.19819c-0.11329,0.00383 -0.20202,0.09879 -0.19819,0.21209c0.00384,0.11329 0.09879,0.20202 0.21209,0.19819c0.1133,-0.00384 0.20203,-0.09879 0.19819,-0.21209z"/><path d="M290.10526,188.02318c-0.01287,-0.37985 0.36698,-0.39273 0.36698,-0.39273l-0.07355,0.04265c0.18568,-0.09834 0.39349,-0.14621 0.60829,-0.16108l-0.00739,-0.01782l0.01175,-0.00486l-0.01509,-0.11242l0.46814,-0.06288c0.01402,-0.00206 0.02831,-0.00336 0.0428,-0.00384c0.20979,-0.0071 0.38563,0.15719 0.39273,0.36698c0.00387,0.11415 -0.04304,0.21825 -0.12038,0.29059c0.00455,0.00505 0.0069,0.00798 0.0069,0.00798c0.3712,0.46437 0.69923,0.95079 1.03868,1.43006c0.13684,-0.24945 0.27906,-0.49696 0.42831,-0.74232c0.41121,-0.67604 0.57932,-1.54454 1.28778,-1.91364c-0.04859,0.02505 -0.16957,0.08742 -0.22084,0.11387l-0.05371,-0.12428l-0.04477,0.03432l-0.24599,-0.32082c-0.04822,-0.06131 -0.07807,-0.13797 -0.08092,-0.2219c-0.0071,-0.20979 0.15719,-0.38563 0.36698,-0.39273c0.03475,-0.00117 0.06858,0.00234 0.10085,0.01l0.37474,0.08032l-0.0142,0.06629c0.32848,0.03919 0.55032,0.18354 0.8678,0.5472c0.10415,0.03937 0.22022,0.12972 0.22724,0.33681c0.01287,0.37986 -0.36698,0.39273 -0.36698,0.39273l-0.35652,-0.14004c-0.0268,-0.03481 -0.05518,-0.06617 -0.0843,-0.09492c-0.27132,0.50826 -0.67009,1.20936 -0.73765,1.33487c-0.31431,0.58394 -0.62265,1.16245 -0.92411,1.74308c0.11826,0.15085 0.24059,0.29942 0.36886,0.44469c0.24798,0.28087 0.52845,0.52141 0.80117,0.77154c0.13323,-0.22372 0.31724,-0.44057 0.6026,-0.67095l0.30731,-0.32888c0.0664,-0.07107 0.15994,-0.1168 0.26482,-0.12036c0.20979,-0.0071 0.38563,0.15719 0.39273,0.36698c0.00161,0.04745 -0.00555,0.09318 -0.02003,0.13559l-0.22591,0.71653l-0.02882,-0.00908c-0.09294,0.62954 -0.29323,1.11449 -0.80352,1.84603l-0.12565,0.14006c0,0 -0.25951,0.27771 -0.5372,0.0182c-0.02705,-0.02528 -0.049,-0.05072 -0.06659,-0.07607c-0.03103,-0.00449 -0.06416,-0.01299 -0.09946,-0.02632c-0.35558,-0.13422 -0.22136,-0.4898 -0.22136,-0.4898c0.10815,-0.28308 0.18135,-0.53126 0.25312,-0.75807c-0.34642,-0.34676 -0.73572,-0.64278 -1.06424,-1.01367c-0.06032,-0.0681 -0.11934,-0.13701 -0.17726,-0.20662c-0.26463,0.52287 -0.52343,1.05002 -0.77571,1.58688c0.27205,0.218 0.46407,0.47455 0.39747,0.74858c-0.30924,1.27231 -1.86418,-0.25539 -2.11721,-0.58482l-0.10698,-0.23977c0,0 -0.13233,-0.35629 0.22396,-0.48862c0.02054,-0.00763 0.04031,-0.01361 0.05938,-0.01817c-0.05894,-0.79611 -0.07487,-1.59436 -0.10064,-2.39416c0.0408,0.05357 0.08011,0.10993 0.11773,0.16907c0.05792,0.09102 0.55305,0.85753 0.56855,0.96386c0.04601,0.31563 -0.19756,0.82161 -0.55209,1.2546c0.02461,-0.00385 0.04792,-0.0052 0.06997,-0.00447c0.16506,-0.10647 0.36361,-0.01546 0.36361,-0.01546c0.10185,0.04695 0.25433,0.11579 0.42341,0.20248c0.29004,-0.63439 0.57906,-1.26185 0.89058,-1.87914c-0.4113,-0.56835 -0.79344,-1.15522 -1.2373,-1.70314c0,0 -0.02528,-0.03144 -0.04915,-0.08208c-0.16835,0.1488 -0.35345,0.27997 -0.54462,0.39659c0,0 -0.3258,0.19573 -0.52152,-0.13008c-0.13246,-0.22049 -0.02606,-0.38139 0.05657,-0.46239c-0.01712,-0.04175 -0.02812,-0.09158 -0.03013,-0.15102z"/></g></g></g><path d="M272.35215,193.72504l-15.17764,-1.46317c0,0 -5.41851,-1.00701 -6.13195,-2.84014c-0.40504,-1.04069 -2.18826,-4.48982 -2.17192,-6.56698c0.02049,-2.60105 2.65429,-4.15286 3.28298,-5.17312c0.2745,-0.44547 4.61256,-0.9265 4.61256,-0.9265c0,0 3.36087,0.72694 5.58564,1.20815c3.30197,0.71419 12.30407,2.66131 12.30407,2.66131z" data-paper-data="{&quot;index&quot;:null}" fill="#949494" stroke="#000000" stroke-width="2.5" stroke-linecap="butt"/></g></g></svg>