<svg version="1.1" xmlns="http://www.w3.org/2000/svg" xmlns:xlink="http://www.w3.org/1999/xlink" width="31.13476" height="91.30305" viewBox="0,0,31.13476,91.30305"><defs><linearGradient x1="240.03055" y1="127.82982" x2="239.23235" y2="132.29993" gradientUnits="userSpaceOnUse" id="color-1"><stop offset="0" stop-color="#dadada"/><stop offset="1" stop-color="#616161"/></linearGradient><linearGradient x1="239.57334" y1="140.2428" x2="240.37154" y2="146.83365" gradientUnits="userSpaceOnUse" id="color-2"><stop offset="0" stop-color="#dadada"/><stop offset="1" stop-color="#616161"/></linearGradient><linearGradient x1="240.03055" y1="154.42527" x2="239.23235" y2="161.01613" gradientUnits="userSpaceOnUse" id="color-3"><stop offset="0" stop-color="#dadada"/><stop offset="1" stop-color="#616161"/></linearGradient><linearGradient x1="239.45968" y1="168.13501" x2="240.25788" y2="174.72586" gradientUnits="userSpaceOnUse" id="color-4"><stop offset="0" stop-color="#dadada"/><stop offset="1" stop-color="#616161"/></linearGradient><linearGradient x1="239.45968" y1="187.49008" x2="240.25788" y2="180.89923" gradientUnits="userSpaceOnUse" id="color-5"><stop offset="0" stop-color="#dadada"/><stop offset="1" stop-color="#616161"/></linearGradient><linearGradient x1="239.80067" y1="127.82982" x2="240.59887" y2="132.29992" gradientUnits="userSpaceOnUse" id="color-6"><stop offset="0" stop-color="#dadada"/><stop offset="1" stop-color="#616161"/></linearGradient><linearGradient x1="240.25788" y1="140.2428" x2="239.45968" y2="146.83365" gradientUnits="userSpaceOnUse" id="color-7"><stop offset="0" stop-color="#dadada"/><stop offset="1" stop-color="#616161"/></linearGradient><linearGradient x1="239.80067" y1="154.42527" x2="240.59887" y2="161.01613" gradientUnits="userSpaceOnUse" id="color-8"><stop offset="0" stop-color="#dadada"/><stop offset="1" stop-color="#616161"/></linearGradient><linearGradient x1="240.37154" y1="168.13501" x2="239.57334" y2="174.72586" gradientUnits="userSpaceOnUse" id="color-9"><stop offset="0" stop-color="#dadada"/><stop offset="1" stop-color="#616161"/></linearGradient><linearGradient x1="240.37154" y1="187.49008" x2="239.57334" y2="180.89923" gradientUnits="userSpaceOnUse" id="color-10"><stop offset="0" stop-color="#dadada"/><stop offset="1" stop-color="#616161"/></linearGradient><linearGradient x1="240.29436" y1="188.66104" x2="240.29436" y2="200.3125" gradientUnits="userSpaceOnUse" id="color-11"><stop offset="0" stop-color="#cccccc"/><stop offset="1" stop-color="#929292"/></linearGradient><linearGradient x1="240.29436" y1="188.66104" x2="240.29436" y2="200.3125" gradientUnits="userSpaceOnUse" id="color-12"><stop offset="0" stop-color="#bcbcbc"/><stop offset="1" stop-color="#787878"/></linearGradient><linearGradient x1="240.13841" y1="118.12244" x2="240.13841" y2="129.7739" gradientUnits="userSpaceOnUse" id="color-13"><stop offset="0" stop-color="#cccccc"/><stop offset="1" stop-color="#929292"/></linearGradient><linearGradient x1="240.13841" y1="118.12244" x2="240.13841" y2="129.7739" gradientUnits="userSpaceOnUse" id="color-14"><stop offset="0" stop-color="#bcbcbc"/><stop offset="1" stop-color="#787878"/></linearGradient></defs><g transform="translate(-224.57103,-110.25945)"><g data-paper-data="{&quot;isPaintingLayer&quot;:true}" fill-rule="nonzero" stroke-linecap="butt" stroke-linejoin="miter" stroke-miterlimit="10" stroke-dasharray="" stroke-dashoffset="0" style="mix-blend-mode: normal"><g stroke="none" stroke-width="0"><path d="M232.58069,127.06152l0.7982,-4.47011l13.30333,10.47681l-0.7982,4.47011z" fill="url(#color-1)"/><path d="M233.71987,154.5573l-0.7982,-6.59085l13.30333,-15.44731l0.7982,6.59086z" data-paper-data="{&quot;index&quot;:null}" fill="url(#color-2)"/><path d="M232.58069,153.29248l0.7982,-6.59085l13.30333,15.4473l-0.7982,6.59086z" data-paper-data="{&quot;index&quot;:null}" fill="url(#color-3)"/><path d="M233.60621,182.44951l-0.7982,-6.59086l13.30333,-15.4473l0.7982,6.59085z" data-paper-data="{&quot;index&quot;:null}" fill="url(#color-4)"/><path d="M246.90954,188.62289l-0.7982,6.59085l-13.30333,-15.4473l0.7982,-6.59086z" data-paper-data="{&quot;index&quot;:null}" fill="url(#color-5)"/><path d="M233.9472,137.53833l-0.7982,-4.47011l13.30333,-10.47681l0.7982,4.47011z" data-paper-data="{&quot;index&quot;:null}" fill="url(#color-6)"/><path d="M232.80801,139.11l0.7982,-6.59086l13.30333,15.44731l-0.7982,6.59085z" data-paper-data="{&quot;index&quot;:null}" fill="url(#color-7)"/><path d="M233.9472,168.73979l-0.7982,-6.59086l13.30333,-15.4473l0.7982,6.59085z" data-paper-data="{&quot;index&quot;:null}" fill="url(#color-8)"/><path d="M232.92168,167.0022l0.7982,-6.59085l13.30333,15.4473l-0.7982,6.59086z" data-paper-data="{&quot;index&quot;:null}" fill="url(#color-9)"/><path d="M246.225,173.17557l0.7982,6.59086l-13.30333,15.4473l-0.7982,-6.59085z" data-paper-data="{&quot;index&quot;:null}" fill="url(#color-10)"/></g><path d="M229.25208,200.3125v-11.65146h22.08458v11.65146z" fill="url(#color-11)" stroke="url(#color-12)" stroke-width="2.5"/><path d="M225.82103,129.7739v-11.65146c0,0 9.61381,-6.61299 14.33648,-6.61299c4.82026,0 14.29828,6.61299 14.29828,6.61299v11.65146c0,0 -9.11439,-7.2428 -13.83041,-7.2428c-4.82635,0 -14.80435,7.2428 -14.80435,7.2428z" fill="url(#color-13)" stroke="url(#color-14)" stroke-width="2.5"/></g></g></svg>