<svg version="1.1" xmlns="http://www.w3.org/2000/svg" xmlns:xlink="http://www.w3.org/1999/xlink" width="172.61659" height="225.69465" viewBox="0,0,172.61659,225.69465"><g transform="translate(-183.25069,-55.56888)"><g data-paper-data="{&quot;isPaintingLayer&quot;:true}" fill-rule="nonzero" stroke-linejoin="miter" stroke-miterlimit="10" stroke-dasharray="" stroke-dashoffset="0" style="mix-blend-mode: normal"><path d="M221.56162,110.67632c0,0 -45.02996,-49.43186 -36.1516,-53.74566c6.11783,-2.97252 10.33558,13.34618 20.20056,13.44907c9.86498,0.10289 5.89147,-11.6922 12.93802,-13.10346c7.04656,-1.41127 13.30854,5.6687 22.49254,6.00753c9.18399,0.33883 10.00829,-5.73021 16.78544,-4.55841c6.77715,1.1718 9.2088,10.42012 17.0945,10.4164c7.8857,-0.00372 16.4116,-17.12648 21.79833,-10.43475c5.91413,7.3469 -30.65778,48.96929 -30.65778,48.96929z" fill="#000000" stroke="#000000" stroke-width="2" stroke-linecap="butt"/><path d="M325.63951,131.74334v-41.32404h3.31613v41.32404z" fill="#ffffff" stroke="none" stroke-width="0" stroke-linecap="butt"/><path d="M325.25688,104.57661v-14.4124h30.6104v14.4124z" fill="#ffffff" stroke="none" stroke-width="0" stroke-linecap="butt"/><g fill="#5d5d5d" stroke="none" stroke-linecap="butt"><g><g stroke-width="0"><path d="M264.66913,277.04639v-11.95736h3.98579v11.95736z"/><path d="M257.14043,274.16776h9.96447v4.20722z"/><path d="M276.41454,278.16303h-9.96447v-4.20722z" data-paper-data="{&quot;index&quot;:null}"/></g><g stroke-width="0"><path d="M223.94536,279.91717v-11.95736h3.98579v11.95736z"/><path d="M216.41665,277.03854h9.96446v4.20722z"/><path d="M235.69076,281.0338h-9.96447v-4.20722z" data-paper-data="{&quot;index&quot;:null}"/></g><g stroke-width="0"><path d="M248.45911,279.93493v-11.95736h3.98579v11.95736z"/><path d="M240.9304,277.05631h9.96447v4.20722z"/><path d="M260.20451,281.05157h-9.96446v-4.20722z" data-paper-data="{&quot;index&quot;:null}"/></g><g stroke-width="0"><path d="M203.58348,278.23865v-11.95736h3.98579v11.95736z"/><path d="M196.05477,275.36003h9.96447v4.20722z"/><path d="M215.32888,279.35528h-9.96447v-4.20722z" data-paper-data="{&quot;index&quot;:null}"/></g><g><path d="M188.58142,265.03573l-0.41519,-13.28596c0,0 28.10534,-3.32149 42.34898,-3.32149c13.69028,0 41.51861,3.32149 41.51861,3.32149l-0.41519,13.28596c0,0 -15.31586,9.38571 -41.94119,7.2762c-28.05681,-2.22293 -41.09603,-7.2762 -41.09603,-7.2762z" stroke-width="0"/><path d="M188.58142,264.62055v-12.87077c0,0 16.22593,-13.29127 41.51861,-12.0404c25.18518,1.24556 41.51861,12.0404 41.51861,12.0404v12.87077c0,0 -28.53401,-7.88854 -41.9338,-7.88854c-14.22942,0 -41.10343,7.88854 -41.10343,7.88854z" stroke-width="NaN"/></g></g><g stroke-width="0"><path d="M210.58628,186.15037v-7.05816h17.43782v7.05816z"/><path d="M236.74301,183.24407c0,6.19113 -3.90359,11.21003 -8.71891,11.21003c-4.81532,0 -8.71891,-5.0189 -8.71891,-11.21003c0,-6.19113 3.90359,-11.21003 8.71891,-11.21003c4.81532,0 8.71891,5.0189 8.71891,11.21003z"/></g><path d="M200.62181,252.58015v-96.32318h16.60744v96.32318z" stroke-width="0"/></g><g fill="#5d5d5d" stroke="#5d5d5d" stroke-width="2" stroke-linecap="butt"><path d="M240.68846,240.99181v-10.79162h6.99997v10.79162z" data-paper-data="{&quot;index&quot;:null}"/><path d="M226.17673,253.24177l1.05357,-11.58925c0,0 6.02669,-3.1607 9.8333,-3.1607c4.50404,0 12.29162,3.1607 12.29162,3.1607v11.58925z" data-paper-data="{&quot;index&quot;:null}"/></g><g fill="#5d5d5d" stroke="#5d5d5d" stroke-width="2" stroke-linecap="butt"><path d="M268.23654,241.1995v-10.79162h6.99997v10.79162z" data-paper-data="{&quot;index&quot;:null}"/><path d="M253.72481,253.44946l1.05357,-11.58925c0,0 6.02669,-3.1607 9.8333,-3.1607c4.50404,0 12.29162,3.1607 12.29162,3.1607v11.58925z" data-paper-data="{&quot;index&quot;:null}"/></g><path d="M248.53093,198.58787l1.86635,34.8348l-10.74328,1.02026l-2.13458,-31.73185z" data-paper-data="{&quot;index&quot;:null}" fill="#5d5d5d" stroke="#5d5d5d" stroke-width="2" stroke-linecap="round"/><path d="M270.33038,197.29293l6.33002,35.66374l-12.88163,-1.43428l-0.75624,-25.42197z" data-paper-data="{&quot;index&quot;:null}" fill="#5d5d5d" stroke="#5d5d5d" stroke-width="2" stroke-linecap="round"/><path d="M269.49241,202.27266c0,0 -8.19237,1.84866 -13.08914,2.02555c-6.20127,0.22401 -21.13787,-0.78917 -21.13787,-0.78917c0,0 -3.76492,-35.47535 -4.17189,-46.74173c-0.23971,-6.63607 1.95367,-14.66622 1.95367,-14.66622l37.02247,0.52593c0,0 0.99425,8.54755 0.94244,13.9009c-0.10282,10.62508 -1.51968,45.74476 -1.51968,45.74476z" data-paper-data="{&quot;index&quot;:null}" fill="#5d5d5d" stroke="#5d5d5d" stroke-width="2" stroke-linecap="butt"/><path d="M271.488,109.83787c5.66397,14.088 1.57644,28.57876 -12.51155,34.24274c-14.088,5.66396 -35.80249,0.28929 -41.46647,-13.7987c-4.54438,-11.30321 -2.28421,-22.0612 6.82332,-29.93212c0.8654,-0.74789 4.30858,-2.46232 5.27632,-3.10605c1.54146,-1.02537 3.53316,-4.13599 5.24391,-4.82379c1.01534,-0.40821 2.61342,1.71556 3.72822,1.64426c1.96177,-0.12547 3.49535,-2.20515 5.3645,-2.2028c3.04425,0.00383 6.48325,1.53295 9.34285,2.38733c0.83678,0.25001 3.45343,-4.39001 4.25483,-4.09117c7.08127,2.64065 10.91897,12.156 13.94407,19.68032z" data-paper-data="{&quot;index&quot;:null}" fill="#5d5d5d" stroke="#5d5d5d" stroke-width="2" stroke-linecap="butt"/><path d="M331.63299,131.69078c0,4.42976 -2.08933,8.0208 -4.66665,8.0208c-2.57732,0 -4.66665,-3.59103 -4.66665,-8.0208c0,-4.42976 2.08933,-8.0208 4.66665,-8.0208c2.57732,0 4.66665,3.59103 4.66665,8.0208z" data-paper-data="{&quot;index&quot;:null}" fill="#5d5d5d" stroke="#5d5d5d" stroke-width="2" stroke-linecap="butt"/><path d="M207.48446,131.3372c0,4.26868 -2.48108,7.72913 -5.54164,7.72913c-3.06056,0 -5.54164,-3.46045 -5.54164,-7.72913c0,-4.26868 2.48108,-7.72913 5.54164,-7.72913c3.06056,0 5.54164,3.46045 5.54164,7.72913z" data-paper-data="{&quot;index&quot;:null}" fill="#5d5d5d" stroke="#5d5d5d" stroke-width="2" stroke-linecap="butt"/><path d="M235.56934,110.97049c3.03496,-0.12589 5.62207,2.8288 5.77849,6.59951c0.15642,3.7707 -2.17709,6.92952 -5.21205,7.05541c-3.03496,0.12589 -5.62207,-2.8288 -5.77849,-6.59951c-0.15642,-3.7707 2.17709,-6.92952 5.21205,-7.05541z" fill="#ffffff" stroke="none" stroke-width="0" stroke-linecap="butt"/><path d="M254.24065,111.4516c3.03495,-0.12589 5.62208,2.82882 5.7785,6.59951c0.15642,3.77071 -2.17711,6.92952 -5.21206,7.05541c-3.03495,0.12589 -5.62207,-2.82881 -5.77849,-6.59951c-0.15642,-3.77071 2.1771,-6.92952 5.21205,-7.05542z" fill="#ffffff" stroke="none" stroke-width="0" stroke-linecap="butt"/><path d="M236.94047,110.07438l8.09724,-8.09725l8.09725,8.09725" data-paper-data="{&quot;index&quot;:null}" fill="none" stroke="#000000" stroke-width="2" stroke-linecap="round"/><g stroke="#000000" stroke-width="2" stroke-linecap="round"><path d="M234.15305,143.18996c0,0 -4.53937,-12.81041 10.36136,-12.81041c14.04178,0 12.05685,12.81041 12.05685,12.81041z" fill="#000000"/><path d="M233.58788,139.2338h22.6066" fill="none"/></g><path d="M235.59392,117.45848v1.78561" fill="none" stroke="#000000" stroke-width="2" stroke-linecap="round"/><path d="M253.60334,117.35675v1.78561" fill="none" stroke="#000000" stroke-width="2" stroke-linecap="round"/></g></g></svg>