<svg version="1.1" xmlns="http://www.w3.org/2000/svg" xmlns:xlink="http://www.w3.org/1999/xlink" width="44.17154" height="56.46387" viewBox="0,0,44.17154,56.46387"><g transform="translate(-217.91423,-151.76807)"><g data-paper-data="{&quot;isPaintingLayer&quot;:true}" fill-rule="nonzero" stroke-linecap="butt" stroke-linejoin="miter" stroke-miterlimit="10" stroke-dasharray="" stroke-dashoffset="0" style="mix-blend-mode: normal"><g><path d="M218.84007,199.28237l12.60874,-44.56881l28.36197,8.02374l-12.60874,44.56881z" fill="#200099" stroke="#15005f" stroke-width="1.5"/><path d="M239.79442,204.53723l12.40301,-43.84157l7.58397,2.14554l-12.40301,43.84158z" fill="#999999" stroke="#464646" stroke-width="1.5"/><path d="M237.28033,155.91451l0.91112,-3.22059l6.64896,1.88102l-0.91112,3.22059z" fill="#ffa700" stroke="#b67600" stroke-width="1.5"/><path d="M255.91545,176.10973l2.43945,-8.62287l2.80503,0.79356l-2.43946,8.62286z" fill="#a7a7a7" stroke="#656565" stroke-width="1.5"/><path d="M226.91401,193.08572l6.5248,-23.06358l9.24621,2.6158l-6.5248,23.06358z" fill="#676767" stroke="#363636" stroke-width="1.5"/><path d="M240.64932,183.96508l2.20643,-1.75079l1.33562,2.71546z" fill="#ffffff" stroke="none" stroke-width="0"/><path d="M240.46953,187.54218l1.07767,-3.8093l1.55835,0.44087l-1.07767,3.8093z" fill="#ffffff" stroke="none" stroke-width="0"/><path d="M236.46383,175.09496c0.25025,-0.88456 1.17019,-1.39877 2.05474,-1.14853c0.88456,0.25025 1.39878,1.17019 1.14853,2.05474c-0.25025,0.88456 -1.17019,1.39877 -2.05475,1.14852c-0.88456,-0.25025 -1.39877,-1.17019 -1.14853,-2.05474z" fill="#ffffff" stroke="none" stroke-width="0"/><path d="M233.09021,188.90644c0.26001,-0.91909 1.21586,-1.45337 2.13495,-1.19335c0.91909,0.26001 1.45337,1.21586 1.19336,2.13495c-0.26001,0.91909 -1.21587,1.45337 -2.13495,1.19336c-0.91909,-0.26001 -1.45337,-1.21587 -1.19335,-2.13495z" fill="#ffffff" stroke="none" stroke-width="0"/><text transform="translate(225.34775,195.71355) rotate(15.79545) scale(0.07217,0.05936) skewX(-0.0012)" font-size="40" xml:space="preserve" fill="#ffffff" fill-rule="nonzero" stroke="#ffffff" stroke-width="2" stroke-linecap="butt" stroke-linejoin="miter" stroke-miterlimit="10" stroke-dasharray="" stroke-dashoffset="0" font-family="Sans Serif" font-weight="normal" text-anchor="start" style="mix-blend-mode: normal"><tspan x="0" dy="0">walkman</tspan></text><text transform="translate(233.44665,167.08592) rotate(15.7958) scale(0.09996,0.09996)" font-size="40" xml:space="preserve" fill="#ffffff" fill-rule="nonzero" stroke="#ffffff" stroke-width="2" stroke-linecap="butt" stroke-linejoin="miter" stroke-miterlimit="10" stroke-dasharray="" stroke-dashoffset="0" font-family="Sans Serif" font-weight="normal" text-anchor="start" style="mix-blend-mode: normal"><tspan x="0" dy="0">SONY</tspan></text></g></g></g></svg>