<svg version="1.1" xmlns="http://www.w3.org/2000/svg" xmlns:xlink="http://www.w3.org/1999/xlink" width="489.48949" height="1895.36036" viewBox="0,0,489.48949,1895.36036"><defs><linearGradient x1="236.24625" y1="-928.7988" x2="236.24625" y2="479.54955" gradientUnits="userSpaceOnUse" id="color-1"><stop offset="0" stop-color="#a6a6a6"/><stop offset="1" stop-color="#464646"/></linearGradient><linearGradient x1="193.24624" y1="-582" x2="193.24624" y2="69" gradientUnits="userSpaceOnUse" id="color-2"><stop offset="0" stop-color="#7a7a7a"/><stop offset="1" stop-color="#454545"/></linearGradient><linearGradient x1="191.6967" y1="236.57593" x2="191.6967" y2="86.42578" gradientUnits="userSpaceOnUse" id="color-3"><stop offset="0" stop-color="#000000" stop-opacity="0"/><stop offset="1" stop-color="#000000"/></linearGradient><linearGradient x1="193.74174" y1="964.06156" x2="193.74174" y2="313.06156" gradientUnits="userSpaceOnUse" id="color-4"><stop offset="0" stop-color="#7a7a7a"/><stop offset="1" stop-color="#454545"/></linearGradient><linearGradient x1="191.35736" y1="184.51887" x2="191.35736" y2="334.66902" gradientUnits="userSpaceOnUse" id="color-5"><stop offset="0" stop-color="#000000" stop-opacity="0"/><stop offset="1" stop-color="#000000"/></linearGradient><linearGradient x1="193.1982" y1="288.99099" x2="193.1982" y2="385.08709" gradientUnits="userSpaceOnUse" id="color-6"><stop offset="0" stop-color="#767676"/><stop offset="1" stop-color="#b1b1b1"/></linearGradient><linearGradient x1="193.1982" y1="385.08709" x2="193.1982" y2="288.99099" gradientUnits="userSpaceOnUse" id="color-7"><stop offset="0" stop-color="#7a7a7a"/><stop offset="1" stop-color="#454545"/></linearGradient><linearGradient x1="192.7027" y1="-3.02553" x2="192.7027" y2="93.07057" gradientUnits="userSpaceOnUse" id="color-8"><stop offset="0" stop-color="#b1b1b1"/><stop offset="1" stop-color="#717171"/></linearGradient><linearGradient x1="192.7027" y1="-3.02553" x2="192.7027" y2="93.07057" gradientUnits="userSpaceOnUse" id="color-9"><stop offset="0" stop-color="#7a7a7a"/><stop offset="1" stop-color="#454545"/></linearGradient></defs><g transform="translate(8.4985,928.7988)"><g data-paper-data="{&quot;isPaintingLayer&quot;:true}" fill-rule="nonzero" stroke-linecap="butt" stroke-linejoin="miter" stroke-miterlimit="10" stroke-dasharray="" stroke-dashoffset="0" style="mix-blend-mode: normal"><path d="M-8.4985,479.54955v-1408.34835h489.48949v1408.34835z" fill="url(#color-1)" stroke="none" stroke-width="0"/><g><path d="M59.92115,147.77185l12.60874,-44.56881l28.36197,8.02374l-12.60874,44.56881z" fill="#200099" stroke="#15005f" stroke-width="1.5"/><path d="M80.8755,153.02671l12.40301,-43.84157l7.58397,2.14554l-12.40301,43.84158z" fill="#999999" stroke="#464646" stroke-width="1.5"/><path d="M78.36141,104.40399l0.91112,-3.22059l6.64896,1.88102l-0.91112,3.22059z" fill="#ffa700" stroke="#b67600" stroke-width="1.5"/><path d="M96.99653,124.59921l2.43945,-8.62287l2.80503,0.79356l-2.43946,8.62286z" fill="#a7a7a7" stroke="#656565" stroke-width="1.5"/><path d="M67.99509,141.5752l6.5248,-23.06358l9.24621,2.6158l-6.5248,23.06358z" fill="#676767" stroke="#363636" stroke-width="1.5"/><path d="M81.7304,132.45456l2.20643,-1.75079l1.33562,2.71546z" fill="#ffffff" stroke="none" stroke-width="0"/><path d="M81.55061,136.03166l1.07767,-3.8093l1.55835,0.44087l-1.07767,3.8093z" fill="#ffffff" stroke="none" stroke-width="0"/><path d="M77.54491,123.58444c0.25025,-0.88456 1.17019,-1.39877 2.05474,-1.14853c0.88456,0.25025 1.39878,1.17019 1.14853,2.05474c-0.25025,0.88456 -1.17019,1.39877 -2.05475,1.14852c-0.88456,-0.25025 -1.39877,-1.17019 -1.14853,-2.05474z" fill="#ffffff" stroke="none" stroke-width="0"/><path d="M74.17129,137.39593c0.26002,-0.91908 1.21587,-1.45338 2.13495,-1.19335c0.91908,0.26002 1.45338,1.21587 1.19336,2.13495c-0.26002,0.91908 -1.21587,1.45338 -2.13496,1.19336c-0.91908,-0.26002 -1.45338,-1.21587 -1.19335,-2.13496z" fill="#ffffff" stroke="none" stroke-width="0"/><text transform="translate(66.42883,144.20303) rotate(15.79545) scale(0.07217,0.05936) skewX(-0.0012)" font-size="40" xml:space="preserve" fill="#ffffff" fill-rule="nonzero" stroke="#ffffff" stroke-width="2" stroke-linecap="butt" stroke-linejoin="miter" stroke-miterlimit="10" stroke-dasharray="" stroke-dashoffset="0" font-family="Sans Serif" font-weight="normal" text-anchor="start" style="mix-blend-mode: normal"><tspan x="0" dy="0">walkman</tspan></text><text transform="translate(74.52773,115.5754) rotate(15.7958) scale(0.09996,0.09996)" font-size="40" xml:space="preserve" fill="#ffffff" fill-rule="nonzero" stroke="#ffffff" stroke-width="2" stroke-linecap="butt" stroke-linejoin="miter" stroke-miterlimit="10" stroke-dasharray="" stroke-dashoffset="0" font-family="Sans Serif" font-weight="normal" text-anchor="start" style="mix-blend-mode: normal"><tspan x="0" dy="0">SONY</tspan></text></g><g><path d="M251.10734,146.76585l12.60874,-44.56881l28.36197,8.02374l-12.60874,44.56881z" fill="#200099" stroke="#15005f" stroke-width="1.5"/><path d="M272.06169,152.02071l12.40301,-43.84157l7.58397,2.14554l-12.40301,43.84158z" fill="#999999" stroke="#464646" stroke-width="1.5"/><path d="M269.5476,103.39799l0.91112,-3.22059l6.64896,1.88102l-0.91112,3.22059z" fill="#ffa700" stroke="#b67600" stroke-width="1.5"/><path d="M288.18272,123.59321l2.43945,-8.62287l2.80503,0.79356l-2.43946,8.62286z" fill="#a7a7a7" stroke="#656565" stroke-width="1.5"/><path d="M259.18128,140.5692l6.5248,-23.06358l9.24621,2.6158l-6.5248,23.06358z" fill="#676767" stroke="#363636" stroke-width="1.5"/><path d="M272.91659,131.44856l2.20643,-1.75079l1.33562,2.71546z" fill="#ffffff" stroke="none" stroke-width="0"/><path d="M272.7368,135.02566l1.07767,-3.8093l1.55835,0.44087l-1.07767,3.8093z" fill="#ffffff" stroke="none" stroke-width="0"/><path d="M268.7311,122.57844c0.25025,-0.88456 1.17019,-1.39877 2.05474,-1.14853c0.88456,0.25025 1.39878,1.17019 1.14853,2.05474c-0.25025,0.88456 -1.17019,1.39877 -2.05475,1.14852c-0.88456,-0.25025 -1.39877,-1.17019 -1.14853,-2.05474z" fill="#ffffff" stroke="none" stroke-width="0"/><path d="M265.35747,136.38993c0.26002,-0.91908 1.21587,-1.45338 2.13495,-1.19335c0.91908,0.26002 1.45338,1.21587 1.19336,2.13495c-0.26002,0.91908 -1.21587,1.45338 -2.13496,1.19336c-0.91908,-0.26002 -1.45338,-1.21587 -1.19335,-2.13496z" fill="#ffffff" stroke="none" stroke-width="0"/><text transform="translate(257.61502,143.19703) rotate(15.79545) scale(0.07217,0.05936) skewX(-0.0012)" font-size="40" xml:space="preserve" fill="#ffffff" fill-rule="nonzero" stroke="#ffffff" stroke-width="2" stroke-linecap="butt" stroke-linejoin="miter" stroke-miterlimit="10" stroke-dasharray="" stroke-dashoffset="0" font-family="Sans Serif" font-weight="normal" text-anchor="start" style="mix-blend-mode: normal"><tspan x="0" dy="0">walkman</tspan></text><text transform="translate(265.71392,114.5694) rotate(15.7958) scale(0.09996,0.09996)" font-size="40" xml:space="preserve" fill="#ffffff" fill-rule="nonzero" stroke="#ffffff" stroke-width="2" stroke-linecap="butt" stroke-linejoin="miter" stroke-miterlimit="10" stroke-dasharray="" stroke-dashoffset="0" font-family="Sans Serif" font-weight="normal" text-anchor="start" style="mix-blend-mode: normal"><tspan x="0" dy="0">SONY</tspan></text></g><g><path d="M113.46469,168.28237l12.60874,-44.56881l28.36197,8.02374l-12.60874,44.56881z" fill="#200099" stroke="#15005f" stroke-width="1.5"/><path d="M134.41904,173.53723l12.40301,-43.84157l7.58397,2.14554l-12.40301,43.84158z" fill="#999999" stroke="#464646" stroke-width="1.5"/><path d="M131.90495,124.91451l0.91112,-3.22059l6.64896,1.88102l-0.91112,3.22059z" fill="#ffa700" stroke="#b67600" stroke-width="1.5"/><path d="M150.54007,145.10973l2.43945,-8.62287l2.80503,0.79356l-2.43946,8.62286z" fill="#a7a7a7" stroke="#656565" stroke-width="1.5"/><path d="M121.53863,162.08572l6.5248,-23.06358l9.24621,2.6158l-6.5248,23.06358z" fill="#676767" stroke="#363636" stroke-width="1.5"/><path d="M135.27394,152.96508l2.20643,-1.75079l1.33562,2.71546z" fill="#ffffff" stroke="none" stroke-width="0"/><path d="M135.09415,156.54218l1.07767,-3.8093l1.55835,0.44087l-1.07767,3.8093z" fill="#ffffff" stroke="none" stroke-width="0"/><path d="M131.08845,144.09496c0.25025,-0.88456 1.17019,-1.39877 2.05474,-1.14853c0.88456,0.25025 1.39878,1.17019 1.14853,2.05474c-0.25025,0.88456 -1.17019,1.39877 -2.05475,1.14852c-0.88456,-0.25025 -1.39877,-1.17019 -1.14853,-2.05474z" fill="#ffffff" stroke="none" stroke-width="0"/><path d="M127.71483,157.90645c0.26002,-0.91908 1.21587,-1.45338 2.13495,-1.19335c0.91908,0.26002 1.45338,1.21587 1.19336,2.13495c-0.26002,0.91908 -1.21587,1.45338 -2.13496,1.19336c-0.91908,-0.26002 -1.45338,-1.21587 -1.19335,-2.13496z" fill="#ffffff" stroke="none" stroke-width="0"/><text transform="translate(119.97237,164.71355) rotate(15.79545) scale(0.07217,0.05936) skewX(-0.0012)" font-size="40" xml:space="preserve" fill="#ffffff" fill-rule="nonzero" stroke="#ffffff" stroke-width="2" stroke-linecap="butt" stroke-linejoin="miter" stroke-miterlimit="10" stroke-dasharray="" stroke-dashoffset="0" font-family="Sans Serif" font-weight="normal" text-anchor="start" style="mix-blend-mode: normal"><tspan x="0" dy="0">walkman</tspan></text><text transform="translate(128.07127,136.08592) rotate(15.7958) scale(0.09996,0.09996)" font-size="40" xml:space="preserve" fill="#ffffff" fill-rule="nonzero" stroke="#ffffff" stroke-width="2" stroke-linecap="butt" stroke-linejoin="miter" stroke-miterlimit="10" stroke-dasharray="" stroke-dashoffset="0" font-family="Sans Serif" font-weight="normal" text-anchor="start" style="mix-blend-mode: normal"><tspan x="0" dy="0">SONY</tspan></text></g><g><path d="M169.51574,101.21029l12.60874,-44.56881l28.36197,8.02374l-12.60874,44.56881z" fill="#200099" stroke="#15005f" stroke-width="1.5"/><path d="M190.47009,106.46515l12.40301,-43.84157l7.58397,2.14554l-12.40301,43.84158z" fill="#999999" stroke="#464646" stroke-width="1.5"/><path d="M187.956,57.84243l0.91112,-3.22059l6.64896,1.88102l-0.91112,3.22059z" fill="#ffa700" stroke="#b67600" stroke-width="1.5"/><path d="M206.59112,78.03765l2.43945,-8.62287l2.80503,0.79356l-2.43946,8.62286z" fill="#a7a7a7" stroke="#656565" stroke-width="1.5"/><path d="M177.58968,95.01364l6.5248,-23.06358l9.24621,2.6158l-6.5248,23.06358z" fill="#676767" stroke="#363636" stroke-width="1.5"/><path d="M191.32499,85.893l2.20643,-1.75079l1.33562,2.71546z" fill="#ffffff" stroke="none" stroke-width="0"/><path d="M191.1452,89.4701l1.07767,-3.8093l1.55835,0.44087l-1.07767,3.8093z" fill="#ffffff" stroke="none" stroke-width="0"/><path d="M187.1395,77.02288c0.25025,-0.88456 1.17019,-1.39877 2.05474,-1.14853c0.88456,0.25025 1.39878,1.17019 1.14853,2.05474c-0.25025,0.88456 -1.17019,1.39877 -2.05475,1.14852c-0.88456,-0.25025 -1.39877,-1.17019 -1.14853,-2.05474z" fill="#ffffff" stroke="none" stroke-width="0"/><path d="M183.76588,90.83437c0.26001,-0.91908 1.21586,-1.45338 2.13495,-1.19335c0.91908,0.26002 1.45338,1.21587 1.19336,2.13495c-0.26002,0.91908 -1.21587,1.45338 -2.13496,1.19336c-0.91908,-0.26002 -1.45338,-1.21587 -1.19335,-2.13496z" fill="#ffffff" stroke="none" stroke-width="0"/><text transform="translate(176.02342,97.64147) rotate(15.79545) scale(0.07217,0.05936) skewX(-0.0012)" font-size="40" xml:space="preserve" fill="#ffffff" fill-rule="nonzero" stroke="#ffffff" stroke-width="2" stroke-linecap="butt" stroke-linejoin="miter" stroke-miterlimit="10" stroke-dasharray="" stroke-dashoffset="0" font-family="Sans Serif" font-weight="normal" text-anchor="start" style="mix-blend-mode: normal"><tspan x="0" dy="0">walkman</tspan></text><text transform="translate(184.12232,69.01384) rotate(15.7958) scale(0.09996,0.09996)" font-size="40" xml:space="preserve" fill="#ffffff" fill-rule="nonzero" stroke="#ffffff" stroke-width="2" stroke-linecap="butt" stroke-linejoin="miter" stroke-miterlimit="10" stroke-dasharray="" stroke-dashoffset="0" font-family="Sans Serif" font-weight="normal" text-anchor="start" style="mix-blend-mode: normal"><tspan x="0" dy="0">SONY</tspan></text></g><path d="M145.74624,69v-651h95v651z" fill="#b1b1b1" stroke="url(#color-2)" stroke-width="5"/><g><path d="M130.98722,155.77486l12.60874,-44.56881l28.36197,8.02374l-12.60874,44.56881z" fill="#200099" stroke="#15005f" stroke-width="1.5"/><path d="M151.94157,161.02972l12.40301,-43.84157l7.58397,2.14554l-12.40301,43.84158z" fill="#999999" stroke="#464646" stroke-width="1.5"/><path d="M149.42748,112.407l0.91112,-3.22059l6.64896,1.88102l-0.91112,3.22059z" fill="#ffa700" stroke="#b67600" stroke-width="1.5"/><path d="M168.0626,132.60222l2.43945,-8.62287l2.80503,0.79356l-2.43946,8.62286z" fill="#a7a7a7" stroke="#656565" stroke-width="1.5"/><path d="M139.06116,149.57821l6.5248,-23.06358l9.24621,2.6158l-6.5248,23.06358z" fill="#676767" stroke="#363636" stroke-width="1.5"/><path d="M152.79647,140.45757l2.20643,-1.75079l1.33562,2.71546z" fill="#ffffff" stroke="none" stroke-width="0"/><path d="M152.61668,144.03467l1.07767,-3.8093l1.55835,0.44087l-1.07767,3.8093z" fill="#ffffff" stroke="none" stroke-width="0"/><path d="M148.61098,131.58745c0.25025,-0.88456 1.17019,-1.39877 2.05474,-1.14853c0.88456,0.25025 1.39878,1.17019 1.14853,2.05474c-0.25025,0.88456 -1.17019,1.39877 -2.05475,1.14852c-0.88456,-0.25025 -1.39877,-1.17019 -1.14853,-2.05474z" fill="#ffffff" stroke="none" stroke-width="0"/><path d="M145.23735,145.39894c0.26001,-0.91908 1.21587,-1.45338 2.13495,-1.19335c0.91908,0.26002 1.45337,1.21586 1.19336,2.13495c-0.26002,0.91908 -1.21587,1.45338 -2.13496,1.19336c-0.91908,-0.26002 -1.45338,-1.21587 -1.19335,-2.13495z" fill="#ffffff" stroke="none" stroke-width="0"/><text transform="translate(137.4949,152.20604) rotate(15.79545) scale(0.07217,0.05936) skewX(-0.0012)" font-size="40" xml:space="preserve" fill="#ffffff" fill-rule="nonzero" stroke="#ffffff" stroke-width="2" stroke-linecap="butt" stroke-linejoin="miter" stroke-miterlimit="10" stroke-dasharray="" stroke-dashoffset="0" font-family="Sans Serif" font-weight="normal" text-anchor="start" style="mix-blend-mode: normal"><tspan x="0" dy="0">walkman</tspan></text><text transform="translate(145.5938,123.57841) rotate(15.7958) scale(0.09996,0.09996)" font-size="40" xml:space="preserve" fill="#ffffff" fill-rule="nonzero" stroke="#ffffff" stroke-width="2" stroke-linecap="butt" stroke-linejoin="miter" stroke-miterlimit="10" stroke-dasharray="" stroke-dashoffset="0" font-family="Sans Serif" font-weight="normal" text-anchor="start" style="mix-blend-mode: normal"><tspan x="0" dy="0">SONY</tspan></text></g><g><path d="M184.53076,176.28537l12.60874,-44.56881l28.36197,8.02374l-12.60874,44.56881z" fill="#200099" stroke="#15005f" stroke-width="1.5"/><path d="M205.48511,181.54023l12.40301,-43.84157l7.58397,2.14554l-12.40301,43.84158z" fill="#999999" stroke="#464646" stroke-width="1.5"/><path d="M202.97102,132.91751l0.91112,-3.22059l6.64896,1.88102l-0.91112,3.22059z" fill="#ffa700" stroke="#b67600" stroke-width="1.5"/><path d="M221.60614,153.11273l2.43945,-8.62287l2.80503,0.79356l-2.43946,8.62286z" fill="#a7a7a7" stroke="#656565" stroke-width="1.5"/><path d="M192.6047,170.08872l6.5248,-23.06358l9.24621,2.6158l-6.5248,23.06358z" fill="#676767" stroke="#363636" stroke-width="1.5"/><path d="M206.34001,160.96808l2.20643,-1.75079l1.33562,2.71546z" fill="#ffffff" stroke="none" stroke-width="0"/><path d="M206.16022,164.54518l1.07767,-3.8093l1.55835,0.44087l-1.07767,3.8093z" fill="#ffffff" stroke="none" stroke-width="0"/><path d="M202.15452,152.09796c0.25025,-0.88456 1.17019,-1.39877 2.05474,-1.14853c0.88456,0.25025 1.39878,1.17019 1.14853,2.05474c-0.25025,0.88456 -1.17019,1.39877 -2.05475,1.14852c-0.88456,-0.25025 -1.39877,-1.17019 -1.14853,-2.05474z" fill="#ffffff" stroke="none" stroke-width="0"/><path d="M198.78089,165.90945c0.26001,-0.91908 1.21586,-1.45338 2.13495,-1.19335c0.91908,0.26002 1.45338,1.21587 1.19336,2.13495c-0.26002,0.91908 -1.21587,1.45338 -2.13496,1.19336c-0.91908,-0.26002 -1.45338,-1.21587 -1.19335,-2.13496z" fill="#ffffff" stroke="none" stroke-width="0"/><text transform="translate(191.03844,172.71655) rotate(15.79545) scale(0.07217,0.05936) skewX(-0.0012)" font-size="40" xml:space="preserve" fill="#ffffff" fill-rule="nonzero" stroke="#ffffff" stroke-width="2" stroke-linecap="butt" stroke-linejoin="miter" stroke-miterlimit="10" stroke-dasharray="" stroke-dashoffset="0" font-family="Sans Serif" font-weight="normal" text-anchor="start" style="mix-blend-mode: normal"><tspan x="0" dy="0">walkman</tspan></text><text transform="translate(199.13734,144.08892) rotate(15.7958) scale(0.09996,0.09996)" font-size="40" xml:space="preserve" fill="#ffffff" fill-rule="nonzero" stroke="#ffffff" stroke-width="2" stroke-linecap="butt" stroke-linejoin="miter" stroke-miterlimit="10" stroke-dasharray="" stroke-dashoffset="0" font-family="Sans Serif" font-weight="normal" text-anchor="start" style="mix-blend-mode: normal"><tspan x="0" dy="0">SONY</tspan></text></g><g><path d="M63.91514,177.29138l12.60874,-44.56881l28.36197,8.02374l-12.60874,44.56881z" fill="#200099" stroke="#15005f" stroke-width="1.5"/><path d="M84.86949,182.54624l12.40301,-43.84157l7.58397,2.14554l-12.40301,43.84158z" fill="#999999" stroke="#464646" stroke-width="1.5"/><path d="M82.3554,133.92352l0.91112,-3.22059l6.64896,1.88102l-0.91112,3.22059z" fill="#ffa700" stroke="#b67600" stroke-width="1.5"/><path d="M100.99052,154.11874l2.43945,-8.62287l2.80503,0.79356l-2.43946,8.62286z" fill="#a7a7a7" stroke="#656565" stroke-width="1.5"/><path d="M71.98908,171.09473l6.5248,-23.06358l9.24621,2.6158l-6.5248,23.06358z" fill="#676767" stroke="#363636" stroke-width="1.5"/><path d="M85.72439,161.97409l2.20643,-1.75079l1.33562,2.71546z" fill="#ffffff" stroke="none" stroke-width="0"/><path d="M85.5446,165.55119l1.07767,-3.8093l1.55835,0.44087l-1.07767,3.8093z" fill="#ffffff" stroke="none" stroke-width="0"/><path d="M81.5389,153.10397c0.25025,-0.88456 1.17019,-1.39877 2.05474,-1.14853c0.88456,0.25025 1.39878,1.17019 1.14853,2.05474c-0.25025,0.88456 -1.17019,1.39877 -2.05475,1.14852c-0.88456,-0.25025 -1.39877,-1.17019 -1.14853,-2.05474z" fill="#ffffff" stroke="none" stroke-width="0"/><path d="M78.16528,166.91546c0.26002,-0.91908 1.21587,-1.45338 2.13495,-1.19335c0.91908,0.26002 1.45338,1.21587 1.19336,2.13495c-0.26002,0.91908 -1.21587,1.45338 -2.13496,1.19336c-0.91908,-0.26001 -1.45338,-1.21587 -1.19335,-2.13495z" fill="#ffffff" stroke="none" stroke-width="0"/><text transform="translate(70.42282,173.72256) rotate(15.79545) scale(0.07217,0.05936) skewX(-0.0012)" font-size="40" xml:space="preserve" fill="#ffffff" fill-rule="nonzero" stroke="#ffffff" stroke-width="2" stroke-linecap="butt" stroke-linejoin="miter" stroke-miterlimit="10" stroke-dasharray="" stroke-dashoffset="0" font-family="Sans Serif" font-weight="normal" text-anchor="start" style="mix-blend-mode: normal"><tspan x="0" dy="0">walkman</tspan></text><text transform="translate(78.52172,145.09493) rotate(15.7958) scale(0.09996,0.09996)" font-size="40" xml:space="preserve" fill="#ffffff" fill-rule="nonzero" stroke="#ffffff" stroke-width="2" stroke-linecap="butt" stroke-linejoin="miter" stroke-miterlimit="10" stroke-dasharray="" stroke-dashoffset="0" font-family="Sans Serif" font-weight="normal" text-anchor="start" style="mix-blend-mode: normal"><tspan x="0" dy="0">SONY</tspan></text></g><g><path d="M255.10133,176.28537l12.60874,-44.56881l28.36197,8.02374l-12.60874,44.56881z" fill="#200099" stroke="#15005f" stroke-width="1.5"/><path d="M276.05568,181.54023l12.40301,-43.84157l7.58397,2.14554l-12.40301,43.84158z" fill="#999999" stroke="#464646" stroke-width="1.5"/><path d="M273.54159,132.91751l0.91112,-3.22059l6.64896,1.88102l-0.91112,3.22059z" fill="#ffa700" stroke="#b67600" stroke-width="1.5"/><path d="M292.17671,153.11273l2.43945,-8.62287l2.80503,0.79356l-2.43946,8.62286z" fill="#a7a7a7" stroke="#656565" stroke-width="1.5"/><path d="M263.17527,170.08872l6.5248,-23.06358l9.24621,2.6158l-6.5248,23.06358z" fill="#676767" stroke="#363636" stroke-width="1.5"/><path d="M276.91058,160.96808l2.20643,-1.75079l1.33562,2.71546z" fill="#ffffff" stroke="none" stroke-width="0"/><path d="M276.73079,164.54518l1.07767,-3.8093l1.55835,0.44087l-1.07767,3.8093z" fill="#ffffff" stroke="none" stroke-width="0"/><path d="M272.72509,152.09796c0.25025,-0.88456 1.17019,-1.39877 2.05474,-1.14853c0.88456,0.25025 1.39878,1.17019 1.14853,2.05474c-0.25025,0.88456 -1.17019,1.39877 -2.05475,1.14852c-0.88456,-0.25025 -1.39877,-1.17019 -1.14853,-2.05474z" fill="#ffffff" stroke="none" stroke-width="0"/><path d="M269.35146,165.90945c0.26002,-0.91908 1.21587,-1.45338 2.13495,-1.19335c0.91908,0.26002 1.45337,1.21587 1.19336,2.13495c-0.26002,0.91908 -1.21587,1.45338 -2.13495,1.19336c-0.91908,-0.26001 -1.45338,-1.21587 -1.19335,-2.13495z" fill="#ffffff" stroke="none" stroke-width="0"/><text transform="translate(261.60901,172.71655) rotate(15.79545) scale(0.07217,0.05936) skewX(-0.0012)" font-size="40" xml:space="preserve" fill="#ffffff" fill-rule="nonzero" stroke="#ffffff" stroke-width="2" stroke-linecap="butt" stroke-linejoin="miter" stroke-miterlimit="10" stroke-dasharray="" stroke-dashoffset="0" font-family="Sans Serif" font-weight="normal" text-anchor="start" style="mix-blend-mode: normal"><tspan x="0" dy="0">walkman</tspan></text><text transform="translate(269.70791,144.08892) rotate(15.7958) scale(0.09996,0.09996)" font-size="40" xml:space="preserve" fill="#ffffff" fill-rule="nonzero" stroke="#ffffff" stroke-width="2" stroke-linecap="butt" stroke-linejoin="miter" stroke-miterlimit="10" stroke-dasharray="" stroke-dashoffset="0" font-family="Sans Serif" font-weight="normal" text-anchor="start" style="mix-blend-mode: normal"><tspan x="0" dy="0">SONY</tspan></text></g><g><path d="M117.45868,197.80189l12.60874,-44.56881l28.36197,8.02374l-12.60874,44.56881z" fill="#200099" stroke="#15005f" stroke-width="1.5"/><path d="M138.41303,203.05675l12.40301,-43.84157l7.58397,2.14554l-12.40301,43.84158z" fill="#999999" stroke="#464646" stroke-width="1.5"/><path d="M135.89894,154.43403l0.91112,-3.22059l6.64896,1.88102l-0.91112,3.22059z" fill="#ffa700" stroke="#b67600" stroke-width="1.5"/><path d="M154.53406,174.62925l2.43945,-8.62287l2.80503,0.79356l-2.43946,8.62286z" fill="#a7a7a7" stroke="#656565" stroke-width="1.5"/><path d="M125.53262,191.60524l6.5248,-23.06358l9.24621,2.6158l-6.5248,23.06358z" fill="#676767" stroke="#363636" stroke-width="1.5"/><path d="M139.26793,182.4846l2.20643,-1.75079l1.33562,2.71546z" fill="#ffffff" stroke="none" stroke-width="0"/><path d="M139.08814,186.0617l1.07767,-3.8093l1.55835,0.44087l-1.07767,3.8093z" fill="#ffffff" stroke="none" stroke-width="0"/><path d="M135.08244,173.61448c0.25025,-0.88456 1.17019,-1.39877 2.05474,-1.14853c0.88456,0.25025 1.39878,1.17019 1.14853,2.05474c-0.25025,0.88456 -1.17019,1.39877 -2.05475,1.14852c-0.88456,-0.25025 -1.39877,-1.17019 -1.14853,-2.05474z" fill="#ffffff" stroke="none" stroke-width="0"/><path d="M131.70882,187.42597c0.26002,-0.91908 1.21587,-1.45338 2.13495,-1.19335c0.91908,0.26002 1.45337,1.21587 1.19336,2.13495c-0.26002,0.91908 -1.21587,1.45337 -2.13495,1.19336c-0.91908,-0.26002 -1.45338,-1.21587 -1.19335,-2.13496z" fill="#ffffff" stroke="none" stroke-width="0"/><text transform="translate(123.96636,194.23307) rotate(15.79545) scale(0.07217,0.05936) skewX(-0.0012)" font-size="40" xml:space="preserve" fill="#ffffff" fill-rule="nonzero" stroke="#ffffff" stroke-width="2" stroke-linecap="butt" stroke-linejoin="miter" stroke-miterlimit="10" stroke-dasharray="" stroke-dashoffset="0" font-family="Sans Serif" font-weight="normal" text-anchor="start" style="mix-blend-mode: normal"><tspan x="0" dy="0">walkman</tspan></text><text transform="translate(132.06526,165.60544) rotate(15.7958) scale(0.09996,0.09996)" font-size="40" xml:space="preserve" fill="#ffffff" fill-rule="nonzero" stroke="#ffffff" stroke-width="2" stroke-linecap="butt" stroke-linejoin="miter" stroke-miterlimit="10" stroke-dasharray="" stroke-dashoffset="0" font-family="Sans Serif" font-weight="normal" text-anchor="start" style="mix-blend-mode: normal"><tspan x="0" dy="0">SONY</tspan></text></g><g><path d="M113.96019,227.33642l12.60874,-44.56881l28.36197,8.02374l-12.60874,44.56881z" fill="#200099" stroke="#15005f" stroke-width="1.5"/><path d="M134.91454,232.59128l12.40301,-43.84157l7.58397,2.14554l-12.40301,43.84158z" fill="#999999" stroke="#464646" stroke-width="1.5"/><path d="M132.40045,183.96856l0.91112,-3.22059l6.64896,1.88102l-0.91112,3.22059z" fill="#ffa700" stroke="#b67600" stroke-width="1.5"/><path d="M151.03557,204.16378l2.43945,-8.62287l2.80503,0.79356l-2.43946,8.62286z" fill="#a7a7a7" stroke="#656565" stroke-width="1.5"/><path d="M122.03413,221.13977l6.5248,-23.06358l9.24621,2.6158l-6.5248,23.06358z" fill="#676767" stroke="#363636" stroke-width="1.5"/><path d="M135.76944,212.01913l2.20643,-1.75079l1.33562,2.71546z" fill="#ffffff" stroke="none" stroke-width="0"/><path d="M135.58965,215.59623l1.07767,-3.8093l1.55835,0.44087l-1.07767,3.8093z" fill="#ffffff" stroke="none" stroke-width="0"/><path d="M131.58395,203.14901c0.25025,-0.88456 1.17019,-1.39877 2.05474,-1.14853c0.88456,0.25025 1.39878,1.17019 1.14853,2.05474c-0.25025,0.88456 -1.17019,1.39877 -2.05475,1.14852c-0.88456,-0.25025 -1.39877,-1.17019 -1.14853,-2.05474z" fill="#ffffff" stroke="none" stroke-width="0"/><path d="M128.21033,216.9605c0.26002,-0.91908 1.21587,-1.45338 2.13495,-1.19335c0.91908,0.26002 1.45337,1.21586 1.19336,2.13495c-0.26001,0.91908 -1.21587,1.45338 -2.13495,1.19336c-0.91908,-0.26002 -1.45338,-1.21587 -1.19335,-2.13495z" fill="#ffffff" stroke="none" stroke-width="0"/><text transform="translate(120.46787,223.7676) rotate(15.79545) scale(0.07217,0.05936) skewX(-0.0012)" font-size="40" xml:space="preserve" fill="#ffffff" fill-rule="nonzero" stroke="#ffffff" stroke-width="2" stroke-linecap="butt" stroke-linejoin="miter" stroke-miterlimit="10" stroke-dasharray="" stroke-dashoffset="0" font-family="Sans Serif" font-weight="normal" text-anchor="start" style="mix-blend-mode: normal"><tspan x="0" dy="0">walkman</tspan></text><text transform="translate(128.56677,195.13997) rotate(15.7958) scale(0.09996,0.09996)" font-size="40" xml:space="preserve" fill="#ffffff" fill-rule="nonzero" stroke="#ffffff" stroke-width="2" stroke-linecap="butt" stroke-linejoin="miter" stroke-miterlimit="10" stroke-dasharray="" stroke-dashoffset="0" font-family="Sans Serif" font-weight="normal" text-anchor="start" style="mix-blend-mode: normal"><tspan x="0" dy="0">SONY</tspan></text></g><g><path d="M167.50373,247.84693l12.60874,-44.56881l28.36197,8.02374l-12.60874,44.56881z" fill="#200099" stroke="#15005f" stroke-width="1.5"/><path d="M188.45808,253.10179l12.40301,-43.84157l7.58397,2.14554l-12.40301,43.84158z" fill="#999999" stroke="#464646" stroke-width="1.5"/><path d="M185.94399,204.47907l0.91112,-3.22059l6.64896,1.88102l-0.91112,3.22059z" fill="#ffa700" stroke="#b67600" stroke-width="1.5"/><path d="M204.57911,224.67429l2.43945,-8.62287l2.80503,0.79356l-2.43946,8.62286z" fill="#a7a7a7" stroke="#656565" stroke-width="1.5"/><path d="M175.57767,241.65028l6.5248,-23.06358l9.24621,2.6158l-6.5248,23.06358z" fill="#676767" stroke="#363636" stroke-width="1.5"/><path d="M189.31298,232.52964l2.20643,-1.75079l1.33562,2.71546z" fill="#ffffff" stroke="none" stroke-width="0"/><path d="M189.13319,236.10674l1.07767,-3.8093l1.55835,0.44087l-1.07767,3.8093z" fill="#ffffff" stroke="none" stroke-width="0"/><path d="M185.12749,223.65952c0.25025,-0.88456 1.17019,-1.39877 2.05474,-1.14853c0.88456,0.25025 1.39878,1.17019 1.14853,2.05474c-0.25025,0.88456 -1.17019,1.39877 -2.05475,1.14852c-0.88456,-0.25025 -1.39877,-1.17019 -1.14853,-2.05474z" fill="#ffffff" stroke="none" stroke-width="0"/><path d="M181.75387,237.47101c0.26002,-0.91908 1.21587,-1.45338 2.13495,-1.19335c0.91908,0.26002 1.45337,1.21587 1.19336,2.13495c-0.26002,0.91908 -1.21587,1.45338 -2.13495,1.19336c-0.91908,-0.26002 -1.45338,-1.21587 -1.19335,-2.13496z" fill="#ffffff" stroke="none" stroke-width="0"/><text transform="translate(174.01141,244.27811) rotate(15.79545) scale(0.07217,0.05936) skewX(-0.0012)" font-size="40" xml:space="preserve" fill="#ffffff" fill-rule="nonzero" stroke="#ffffff" stroke-width="2" stroke-linecap="butt" stroke-linejoin="miter" stroke-miterlimit="10" stroke-dasharray="" stroke-dashoffset="0" font-family="Sans Serif" font-weight="normal" text-anchor="start" style="mix-blend-mode: normal"><tspan x="0" dy="0">walkman</tspan></text><text transform="translate(182.11031,215.65048) rotate(15.7958) scale(0.09996,0.09996)" font-size="40" xml:space="preserve" fill="#ffffff" fill-rule="nonzero" stroke="#ffffff" stroke-width="2" stroke-linecap="butt" stroke-linejoin="miter" stroke-miterlimit="10" stroke-dasharray="" stroke-dashoffset="0" font-family="Sans Serif" font-weight="normal" text-anchor="start" style="mix-blend-mode: normal"><tspan x="0" dy="0">SONY</tspan></text></g><g><path d="M58.90013,278.88297l12.60874,-44.56881l28.36197,8.02374l-12.60874,44.56881z" fill="#200099" stroke="#15005f" stroke-width="1.5"/><path d="M79.85448,284.13783l12.40301,-43.84157l7.58397,2.14554l-12.40301,43.84158z" fill="#999999" stroke="#464646" stroke-width="1.5"/><path d="M77.34039,235.51511l0.91112,-3.22059l6.64896,1.88102l-0.91112,3.22059z" fill="#ffa700" stroke="#b67600" stroke-width="1.5"/><path d="M95.97551,255.71033l2.43945,-8.62287l2.80503,0.79356l-2.43946,8.62286z" fill="#a7a7a7" stroke="#656565" stroke-width="1.5"/><path d="M66.97407,272.68632l6.5248,-23.06358l9.24621,2.6158l-6.5248,23.06358z" fill="#676767" stroke="#363636" stroke-width="1.5"/><path d="M80.70938,263.56568l2.20643,-1.75079l1.33562,2.71546z" fill="#ffffff" stroke="none" stroke-width="0"/><path d="M80.52959,267.14278l1.07767,-3.8093l1.55835,0.44087l-1.07767,3.8093z" fill="#ffffff" stroke="none" stroke-width="0"/><path d="M76.52389,254.69556c0.25025,-0.88456 1.17019,-1.39877 2.05474,-1.14853c0.88456,0.25025 1.39878,1.17019 1.14853,2.05474c-0.25025,0.88456 -1.17019,1.39877 -2.05475,1.14852c-0.88456,-0.25025 -1.39877,-1.17019 -1.14853,-2.05474z" fill="#ffffff" stroke="none" stroke-width="0"/><path d="M73.15026,268.50705c0.26002,-0.91908 1.21586,-1.45338 2.13495,-1.19335c0.91908,0.26002 1.45338,1.21587 1.19336,2.13495c-0.26002,0.91908 -1.21587,1.45338 -2.13495,1.19336c-0.91908,-0.26001 -1.45338,-1.21587 -1.19335,-2.13495z" fill="#ffffff" stroke="none" stroke-width="0"/><text transform="translate(65.40781,275.31415) rotate(15.79545) scale(0.07217,0.05936) skewX(-0.0012)" font-size="40" xml:space="preserve" fill="#ffffff" fill-rule="nonzero" stroke="#ffffff" stroke-width="2" stroke-linecap="butt" stroke-linejoin="miter" stroke-miterlimit="10" stroke-dasharray="" stroke-dashoffset="0" font-family="Sans Serif" font-weight="normal" text-anchor="start" style="mix-blend-mode: normal"><tspan x="0" dy="0">walkman</tspan></text><text transform="translate(73.50671,246.68652) rotate(15.7958) scale(0.09996,0.09996)" font-size="40" xml:space="preserve" fill="#ffffff" fill-rule="nonzero" stroke="#ffffff" stroke-width="2" stroke-linecap="butt" stroke-linejoin="miter" stroke-miterlimit="10" stroke-dasharray="" stroke-dashoffset="0" font-family="Sans Serif" font-weight="normal" text-anchor="start" style="mix-blend-mode: normal"><tspan x="0" dy="0">SONY</tspan></text></g><g><path d="M250.08631,277.87696l12.60874,-44.56881l28.36197,8.02374l-12.60874,44.56881z" fill="#200099" stroke="#15005f" stroke-width="1.5"/><path d="M271.04066,283.13182l12.40301,-43.84157l7.58397,2.14554l-12.40301,43.84158z" fill="#999999" stroke="#464646" stroke-width="1.5"/><path d="M268.52657,234.5091l0.91112,-3.22059l6.64896,1.88102l-0.91112,3.22059z" fill="#ffa700" stroke="#b67600" stroke-width="1.5"/><path d="M287.16169,254.70432l2.43945,-8.62287l2.80503,0.79356l-2.43946,8.62286z" fill="#a7a7a7" stroke="#656565" stroke-width="1.5"/><path d="M258.16025,271.68031l6.5248,-23.06358l9.24621,2.6158l-6.5248,23.06358z" fill="#676767" stroke="#363636" stroke-width="1.5"/><path d="M271.89556,262.55967l2.20643,-1.75079l1.33562,2.71546z" fill="#ffffff" stroke="none" stroke-width="0"/><path d="M271.71577,266.13677l1.07767,-3.8093l1.55835,0.44087l-1.07767,3.8093z" fill="#ffffff" stroke="none" stroke-width="0"/><path d="M267.71007,253.68955c0.25025,-0.88456 1.17019,-1.39877 2.05474,-1.14853c0.88456,0.25025 1.39878,1.17019 1.14853,2.05474c-0.25025,0.88456 -1.17019,1.39877 -2.05475,1.14852c-0.88456,-0.25025 -1.39877,-1.17019 -1.14853,-2.05474z" fill="#ffffff" stroke="none" stroke-width="0"/><path d="M264.33645,267.50104c0.26002,-0.91908 1.21587,-1.45338 2.13495,-1.19335c0.91908,0.26002 1.45338,1.21587 1.19336,2.13495c-0.26002,0.91908 -1.21587,1.45338 -2.13496,1.19336c-0.91908,-0.26001 -1.45338,-1.21587 -1.19335,-2.13495z" fill="#ffffff" stroke="none" stroke-width="0"/><text transform="translate(256.59399,274.30814) rotate(15.79545) scale(0.07217,0.05936) skewX(-0.0012)" font-size="40" xml:space="preserve" fill="#ffffff" fill-rule="nonzero" stroke="#ffffff" stroke-width="2" stroke-linecap="butt" stroke-linejoin="miter" stroke-miterlimit="10" stroke-dasharray="" stroke-dashoffset="0" font-family="Sans Serif" font-weight="normal" text-anchor="start" style="mix-blend-mode: normal"><tspan x="0" dy="0">walkman</tspan></text><text transform="translate(264.69289,245.68051) rotate(15.7958) scale(0.09996,0.09996)" font-size="40" xml:space="preserve" fill="#ffffff" fill-rule="nonzero" stroke="#ffffff" stroke-width="2" stroke-linecap="butt" stroke-linejoin="miter" stroke-miterlimit="10" stroke-dasharray="" stroke-dashoffset="0" font-family="Sans Serif" font-weight="normal" text-anchor="start" style="mix-blend-mode: normal"><tspan x="0" dy="0">SONY</tspan></text></g><g><path d="M112.44367,299.39348l12.60874,-44.56881l28.36197,8.02374l-12.60874,44.56881z" fill="#200099" stroke="#15005f" stroke-width="1.5"/><path d="M133.39802,304.64834l12.40301,-43.84157l7.58397,2.14554l-12.40301,43.84158z" fill="#999999" stroke="#464646" stroke-width="1.5"/><path d="M130.88393,256.02562l0.91112,-3.22059l6.64896,1.88102l-0.91112,3.22059z" fill="#ffa700" stroke="#b67600" stroke-width="1.5"/><path d="M149.51905,276.22084l2.43945,-8.62287l2.80503,0.79356l-2.43946,8.62286z" fill="#a7a7a7" stroke="#656565" stroke-width="1.5"/><path d="M120.51761,293.19683l6.5248,-23.06358l9.24621,2.6158l-6.5248,23.06358z" fill="#676767" stroke="#363636" stroke-width="1.5"/><path d="M134.25292,284.07619l2.20643,-1.75079l1.33562,2.71546z" fill="#ffffff" stroke="none" stroke-width="0"/><path d="M134.07313,287.65329l1.07767,-3.8093l1.55835,0.44087l-1.07767,3.8093z" fill="#ffffff" stroke="none" stroke-width="0"/><path d="M130.06743,275.20607c0.25025,-0.88456 1.17019,-1.39877 2.05474,-1.14853c0.88456,0.25025 1.39878,1.17019 1.14853,2.05474c-0.25025,0.88456 -1.17019,1.39877 -2.05475,1.14852c-0.88456,-0.25025 -1.39877,-1.17019 -1.14853,-2.05474z" fill="#ffffff" stroke="none" stroke-width="0"/><path d="M126.6938,289.01756c0.26002,-0.91908 1.21587,-1.45338 2.13495,-1.19335c0.91908,0.26001 1.45338,1.21587 1.19336,2.13495c-0.26002,0.91908 -1.21587,1.45337 -2.13496,1.19336c-0.91908,-0.26002 -1.45338,-1.21587 -1.19335,-2.13495z" fill="#ffffff" stroke="none" stroke-width="0"/><text transform="translate(118.95135,295.82466) rotate(15.79545) scale(0.07217,0.05936) skewX(-0.0012)" font-size="40" xml:space="preserve" fill="#ffffff" fill-rule="nonzero" stroke="#ffffff" stroke-width="2" stroke-linecap="butt" stroke-linejoin="miter" stroke-miterlimit="10" stroke-dasharray="" stroke-dashoffset="0" font-family="Sans Serif" font-weight="normal" text-anchor="start" style="mix-blend-mode: normal"><tspan x="0" dy="0">walkman</tspan></text><text transform="translate(127.05025,267.19703) rotate(15.7958) scale(0.09996,0.09996)" font-size="40" xml:space="preserve" fill="#ffffff" fill-rule="nonzero" stroke="#ffffff" stroke-width="2" stroke-linecap="butt" stroke-linejoin="miter" stroke-miterlimit="10" stroke-dasharray="" stroke-dashoffset="0" font-family="Sans Serif" font-weight="normal" text-anchor="start" style="mix-blend-mode: normal"><tspan x="0" dy="0">SONY</tspan></text></g><g><path d="M89.42566,324.42351l12.60874,-44.56881l28.36197,8.02374l-12.60874,44.56881z" fill="#200099" stroke="#15005f" stroke-width="1.5"/><path d="M110.38001,329.67837l12.40301,-43.84157l7.58397,2.14554l-12.40301,43.84158z" fill="#999999" stroke="#464646" stroke-width="1.5"/><path d="M107.86592,281.05565l0.91112,-3.22059l6.64896,1.88102l-0.91112,3.22059z" fill="#ffa700" stroke="#b67600" stroke-width="1.5"/><path d="M126.50104,301.25087l2.43945,-8.62287l2.80503,0.79356l-2.43946,8.62286z" fill="#a7a7a7" stroke="#656565" stroke-width="1.5"/><path d="M97.4996,318.22686l6.5248,-23.06358l9.24621,2.6158l-6.5248,23.06358z" fill="#676767" stroke="#363636" stroke-width="1.5"/><path d="M111.23491,309.10622l2.20643,-1.75079l1.33562,2.71546z" fill="#ffffff" stroke="none" stroke-width="0"/><path d="M111.05512,312.68332l1.07767,-3.8093l1.55835,0.44087l-1.07767,3.8093z" fill="#ffffff" stroke="none" stroke-width="0"/><path d="M107.04942,300.2361c0.25025,-0.88456 1.17019,-1.39877 2.05474,-1.14853c0.88456,0.25025 1.39878,1.17019 1.14853,2.05474c-0.25025,0.88456 -1.17019,1.39877 -2.05475,1.14852c-0.88456,-0.25025 -1.39877,-1.17019 -1.14853,-2.05474z" fill="#ffffff" stroke="none" stroke-width="0"/><path d="M103.67579,314.04759c0.26001,-0.91908 1.21586,-1.45338 2.13495,-1.19335c0.91908,0.26002 1.45338,1.21587 1.19336,2.13495c-0.26001,0.91908 -1.21587,1.45337 -2.13496,1.19336c-0.91908,-0.26002 -1.45338,-1.21587 -1.19335,-2.13495z" fill="#ffffff" stroke="none" stroke-width="0"/><text transform="translate(95.93334,320.85469) rotate(15.79545) scale(0.07217,0.05936) skewX(-0.0012)" font-size="40" xml:space="preserve" fill="#ffffff" fill-rule="nonzero" stroke="#ffffff" stroke-width="2" stroke-linecap="butt" stroke-linejoin="miter" stroke-miterlimit="10" stroke-dasharray="" stroke-dashoffset="0" font-family="Sans Serif" font-weight="normal" text-anchor="start" style="mix-blend-mode: normal"><tspan x="0" dy="0">walkman</tspan></text><text transform="translate(104.03224,292.22706) rotate(15.7958) scale(0.09996,0.09996)" font-size="40" xml:space="preserve" fill="#ffffff" fill-rule="nonzero" stroke="#ffffff" stroke-width="2" stroke-linecap="butt" stroke-linejoin="miter" stroke-miterlimit="10" stroke-dasharray="" stroke-dashoffset="0" font-family="Sans Serif" font-weight="normal" text-anchor="start" style="mix-blend-mode: normal"><tspan x="0" dy="0">SONY</tspan></text></g><g><path d="M291.12235,308.40249l12.60874,-44.56881l28.36197,8.02374l-12.60874,44.56881z" fill="#200099" stroke="#15005f" stroke-width="1.5"/><path d="M312.0767,313.65735l12.40301,-43.84157l7.58397,2.14554l-12.40301,43.84158z" fill="#999999" stroke="#464646" stroke-width="1.5"/><path d="M309.56261,265.03463l0.91112,-3.22059l6.64896,1.88102l-0.91112,3.22059z" fill="#ffa700" stroke="#b67600" stroke-width="1.5"/><path d="M328.19773,285.22985l2.43945,-8.62287l2.80503,0.79356l-2.43946,8.62286z" fill="#a7a7a7" stroke="#656565" stroke-width="1.5"/><path d="M299.19629,302.20584l6.5248,-23.06358l9.24621,2.6158l-6.5248,23.06358z" fill="#676767" stroke="#363636" stroke-width="1.5"/><path d="M312.9316,293.0852l2.20643,-1.75079l1.33562,2.71546z" fill="#ffffff" stroke="none" stroke-width="0"/><path d="M312.75181,296.6623l1.07767,-3.8093l1.55835,0.44087l-1.07767,3.8093z" fill="#ffffff" stroke="none" stroke-width="0"/><path d="M308.74611,284.21508c0.25025,-0.88456 1.17019,-1.39877 2.05474,-1.14853c0.88456,0.25025 1.39878,1.17019 1.14853,2.05474c-0.25025,0.88456 -1.17019,1.39877 -2.05475,1.14852c-0.88456,-0.25025 -1.39877,-1.17019 -1.14853,-2.05474z" fill="#ffffff" stroke="none" stroke-width="0"/><path d="M305.37249,298.02657c0.26002,-0.91908 1.21587,-1.45338 2.13495,-1.19335c0.91908,0.26002 1.45337,1.21587 1.19336,2.13495c-0.26002,0.91908 -1.21587,1.45337 -2.13495,1.19336c-0.91908,-0.26002 -1.45338,-1.21587 -1.19335,-2.13495z" fill="#ffffff" stroke="none" stroke-width="0"/><text transform="translate(297.63003,304.83367) rotate(15.79545) scale(0.07217,0.05936) skewX(-0.0012)" font-size="40" xml:space="preserve" fill="#ffffff" fill-rule="nonzero" stroke="#ffffff" stroke-width="2" stroke-linecap="butt" stroke-linejoin="miter" stroke-miterlimit="10" stroke-dasharray="" stroke-dashoffset="0" font-family="Sans Serif" font-weight="normal" text-anchor="start" style="mix-blend-mode: normal"><tspan x="0" dy="0">walkman</tspan></text><text transform="translate(305.72893,276.20604) rotate(15.7958) scale(0.09996,0.09996)" font-size="40" xml:space="preserve" fill="#ffffff" fill-rule="nonzero" stroke="#ffffff" stroke-width="2" stroke-linecap="butt" stroke-linejoin="miter" stroke-miterlimit="10" stroke-dasharray="" stroke-dashoffset="0" font-family="Sans Serif" font-weight="normal" text-anchor="start" style="mix-blend-mode: normal"><tspan x="0" dy="0">SONY</tspan></text></g><g><path d="M142.9692,344.93402l12.60874,-44.56881l28.36197,8.02374l-12.60874,44.56881z" fill="#200099" stroke="#15005f" stroke-width="1.5"/><path d="M163.92355,350.18888l12.40301,-43.84157l7.58397,2.14554l-12.40301,43.84158z" fill="#999999" stroke="#464646" stroke-width="1.5"/><path d="M161.40946,301.56616l0.91112,-3.22059l6.64896,1.88102l-0.91112,3.22059z" fill="#ffa700" stroke="#b67600" stroke-width="1.5"/><path d="M180.04458,321.76138l2.43945,-8.62287l2.80503,0.79356l-2.43946,8.62286z" fill="#a7a7a7" stroke="#656565" stroke-width="1.5"/><path d="M151.04314,338.73737l6.5248,-23.06358l9.24621,2.6158l-6.5248,23.06358z" fill="#676767" stroke="#363636" stroke-width="1.5"/><path d="M164.77845,329.61673l2.20643,-1.75079l1.33562,2.71546z" fill="#ffffff" stroke="none" stroke-width="0"/><path d="M164.59866,333.19383l1.07767,-3.8093l1.55835,0.44087l-1.07767,3.8093z" fill="#ffffff" stroke="none" stroke-width="0"/><path d="M160.59296,320.74661c0.25025,-0.88456 1.17019,-1.39877 2.05474,-1.14853c0.88456,0.25025 1.39878,1.17019 1.14853,2.05474c-0.25025,0.88456 -1.17019,1.39877 -2.05475,1.14852c-0.88456,-0.25025 -1.39877,-1.17019 -1.14853,-2.05474z" fill="#ffffff" stroke="none" stroke-width="0"/><path d="M157.21933,334.5581c0.26002,-0.91908 1.21587,-1.45338 2.13495,-1.19335c0.91908,0.26002 1.45338,1.21587 1.19336,2.13495c-0.26002,0.91908 -1.21587,1.45337 -2.13496,1.19336c-0.91908,-0.26002 -1.45338,-1.21587 -1.19335,-2.13495z" fill="#ffffff" stroke="none" stroke-width="0"/><text transform="translate(149.47688,341.3652) rotate(15.79545) scale(0.07217,0.05936) skewX(-0.0012)" font-size="40" xml:space="preserve" fill="#ffffff" fill-rule="nonzero" stroke="#ffffff" stroke-width="2" stroke-linecap="butt" stroke-linejoin="miter" stroke-miterlimit="10" stroke-dasharray="" stroke-dashoffset="0" font-family="Sans Serif" font-weight="normal" text-anchor="start" style="mix-blend-mode: normal"><tspan x="0" dy="0">walkman</tspan></text><text transform="translate(157.57578,312.73757) rotate(15.7958) scale(0.09996,0.09996)" font-size="40" xml:space="preserve" fill="#ffffff" fill-rule="nonzero" stroke="#ffffff" stroke-width="2" stroke-linecap="butt" stroke-linejoin="miter" stroke-miterlimit="10" stroke-dasharray="" stroke-dashoffset="0" font-family="Sans Serif" font-weight="normal" text-anchor="start" style="mix-blend-mode: normal"><tspan x="0" dy="0">SONY</tspan></text></g><g><path d="M59.89112,347.44152l12.60874,-44.56881l28.36197,8.02374l-12.60874,44.56881z" fill="#200099" stroke="#15005f" stroke-width="1.5"/><path d="M80.84547,352.69638l12.40301,-43.84157l7.58397,2.14554l-12.40301,43.84158z" fill="#999999" stroke="#464646" stroke-width="1.5"/><path d="M78.33138,304.07366l0.91112,-3.22059l6.64896,1.88102l-0.91112,3.22059z" fill="#ffa700" stroke="#b67600" stroke-width="1.5"/><path d="M96.9665,324.26888l2.43945,-8.62287l2.80503,0.79356l-2.43946,8.62286z" fill="#a7a7a7" stroke="#656565" stroke-width="1.5"/><path d="M67.96506,341.24487l6.5248,-23.06358l9.24621,2.6158l-6.5248,23.06358z" fill="#676767" stroke="#363636" stroke-width="1.5"/><path d="M81.70037,332.12423l2.20643,-1.75079l1.33562,2.71546z" fill="#ffffff" stroke="none" stroke-width="0"/><path d="M81.52058,335.70133l1.07767,-3.8093l1.55835,0.44087l-1.07767,3.8093z" fill="#ffffff" stroke="none" stroke-width="0"/><path d="M77.51488,323.25411c0.25025,-0.88456 1.17019,-1.39877 2.05474,-1.14853c0.88456,0.25025 1.39878,1.17019 1.14853,2.05474c-0.25025,0.88456 -1.17019,1.39877 -2.05475,1.14852c-0.88456,-0.25025 -1.39877,-1.17019 -1.14853,-2.05474z" fill="#ffffff" stroke="none" stroke-width="0"/><path d="M74.14126,337.0656c0.26001,-0.91908 1.21586,-1.45338 2.13495,-1.19336c0.91908,0.26002 1.45337,1.21587 1.19336,2.13495c-0.26001,0.91908 -1.21587,1.45338 -2.13495,1.19336c-0.91908,-0.26002 -1.45338,-1.21587 -1.19335,-2.13495z" fill="#ffffff" stroke="none" stroke-width="0"/><text transform="translate(66.3988,343.8727) rotate(15.79545) scale(0.07217,0.05936) skewX(-0.0012)" font-size="40" xml:space="preserve" fill="#ffffff" fill-rule="nonzero" stroke="#ffffff" stroke-width="2" stroke-linecap="butt" stroke-linejoin="miter" stroke-miterlimit="10" stroke-dasharray="" stroke-dashoffset="0" font-family="Sans Serif" font-weight="normal" text-anchor="start" style="mix-blend-mode: normal"><tspan x="0" dy="0">walkman</tspan></text><text transform="translate(74.4977,315.24507) rotate(15.7958) scale(0.09996,0.09996)" font-size="40" xml:space="preserve" fill="#ffffff" fill-rule="nonzero" stroke="#ffffff" stroke-width="2" stroke-linecap="butt" stroke-linejoin="miter" stroke-miterlimit="10" stroke-dasharray="" stroke-dashoffset="0" font-family="Sans Serif" font-weight="normal" text-anchor="start" style="mix-blend-mode: normal"><tspan x="0" dy="0">SONY</tspan></text></g><g><path d="M251.07731,346.43552l12.60874,-44.56881l28.36197,8.02374l-12.60874,44.56881z" fill="#200099" stroke="#15005f" stroke-width="1.5"/><path d="M272.03166,351.69038l12.40301,-43.84157l7.58397,2.14554l-12.40301,43.84158z" fill="#999999" stroke="#464646" stroke-width="1.5"/><path d="M269.51757,303.06766l0.91112,-3.22059l6.64896,1.88102l-0.91112,3.22059z" fill="#ffa700" stroke="#b67600" stroke-width="1.5"/><path d="M288.15269,323.26288l2.43945,-8.62287l2.80503,0.79356l-2.43946,8.62286z" fill="#a7a7a7" stroke="#656565" stroke-width="1.5"/><path d="M259.15125,340.23887l6.5248,-23.06358l9.24621,2.6158l-6.5248,23.06358z" fill="#676767" stroke="#363636" stroke-width="1.5"/><path d="M272.88656,331.11823l2.20643,-1.75079l1.33562,2.71546z" fill="#ffffff" stroke="none" stroke-width="0"/><path d="M272.70677,334.69533l1.07767,-3.8093l1.55835,0.44087l-1.07767,3.8093z" fill="#ffffff" stroke="none" stroke-width="0"/><path d="M268.70107,322.24811c0.25025,-0.88456 1.17019,-1.39877 2.05474,-1.14853c0.88456,0.25025 1.39878,1.17019 1.14853,2.05474c-0.25025,0.88456 -1.17019,1.39877 -2.05475,1.14852c-0.88456,-0.25025 -1.39877,-1.17019 -1.14853,-2.05474z" fill="#ffffff" stroke="none" stroke-width="0"/><path d="M265.32744,336.0596c0.26002,-0.91908 1.21587,-1.45338 2.13495,-1.19335c0.91908,0.26002 1.45338,1.21587 1.19336,2.13495c-0.26002,0.91908 -1.21587,1.45337 -2.13495,1.19336c-0.91908,-0.26002 -1.45338,-1.21587 -1.19336,-2.13495z" fill="#ffffff" stroke="none" stroke-width="0"/><text transform="translate(257.58499,342.8667) rotate(15.79545) scale(0.07217,0.05936) skewX(-0.0012)" font-size="40" xml:space="preserve" fill="#ffffff" fill-rule="nonzero" stroke="#ffffff" stroke-width="2" stroke-linecap="butt" stroke-linejoin="miter" stroke-miterlimit="10" stroke-dasharray="" stroke-dashoffset="0" font-family="Sans Serif" font-weight="normal" text-anchor="start" style="mix-blend-mode: normal"><tspan x="0" dy="0">walkman</tspan></text><text transform="translate(265.68389,314.23907) rotate(15.7958) scale(0.09996,0.09996)" font-size="40" xml:space="preserve" fill="#ffffff" fill-rule="nonzero" stroke="#ffffff" stroke-width="2" stroke-linecap="butt" stroke-linejoin="miter" stroke-miterlimit="10" stroke-dasharray="" stroke-dashoffset="0" font-family="Sans Serif" font-weight="normal" text-anchor="start" style="mix-blend-mode: normal"><tspan x="0" dy="0">SONY</tspan></text></g><g><path d="M113.43466,367.95203l12.60874,-44.56881l28.36197,8.02374l-12.60874,44.56881z" fill="#200099" stroke="#15005f" stroke-width="1.5"/><path d="M134.38901,373.20689l12.40301,-43.84157l7.58397,2.14554l-12.40301,43.84158z" fill="#999999" stroke="#464646" stroke-width="1.5"/><path d="M131.87492,324.58417l0.91112,-3.22059l6.64896,1.88102l-0.91112,3.22059z" fill="#ffa700" stroke="#b67600" stroke-width="1.5"/><path d="M150.51004,344.77939l2.43945,-8.62287l2.80503,0.79356l-2.43946,8.62286z" fill="#a7a7a7" stroke="#656565" stroke-width="1.5"/><path d="M121.5086,361.75538l6.5248,-23.06358l9.24621,2.6158l-6.5248,23.06358z" fill="#676767" stroke="#363636" stroke-width="1.5"/><path d="M135.24391,352.63474l2.20643,-1.75079l1.33562,2.71546z" fill="#ffffff" stroke="none" stroke-width="0"/><path d="M135.06412,356.21184l1.07767,-3.8093l1.55835,0.44087l-1.07767,3.8093z" fill="#ffffff" stroke="none" stroke-width="0"/><path d="M131.05842,343.76462c0.25025,-0.88456 1.17019,-1.39877 2.05474,-1.14853c0.88456,0.25025 1.39878,1.17019 1.14853,2.05474c-0.25025,0.88456 -1.17019,1.39877 -2.05475,1.14852c-0.88456,-0.25025 -1.39877,-1.17019 -1.14853,-2.05474z" fill="#ffffff" stroke="none" stroke-width="0"/><path d="M127.6848,357.57611c0.26002,-0.91908 1.21586,-1.45338 2.13495,-1.19335c0.91908,0.26002 1.45338,1.21587 1.19336,2.13495c-0.26002,0.91908 -1.21587,1.45338 -2.13495,1.19336c-0.91908,-0.26002 -1.45338,-1.21587 -1.19335,-2.13496z" fill="#ffffff" stroke="none" stroke-width="0"/><text transform="translate(119.94234,364.38321) rotate(15.79545) scale(0.07217,0.05936) skewX(-0.0012)" font-size="40" xml:space="preserve" fill="#ffffff" fill-rule="nonzero" stroke="#ffffff" stroke-width="2" stroke-linecap="butt" stroke-linejoin="miter" stroke-miterlimit="10" stroke-dasharray="" stroke-dashoffset="0" font-family="Sans Serif" font-weight="normal" text-anchor="start" style="mix-blend-mode: normal"><tspan x="0" dy="0">walkman</tspan></text><text transform="translate(128.04124,335.75558) rotate(15.7958) scale(0.09996,0.09996)" font-size="40" xml:space="preserve" fill="#ffffff" fill-rule="nonzero" stroke="#ffffff" stroke-width="2" stroke-linecap="butt" stroke-linejoin="miter" stroke-miterlimit="10" stroke-dasharray="" stroke-dashoffset="0" font-family="Sans Serif" font-weight="normal" text-anchor="start" style="mix-blend-mode: normal"><tspan x="0" dy="0">SONY</tspan></text></g><g><path d="M82.90914,250.33942l12.60874,-44.56881l28.36197,8.02374l-12.60874,44.56881z" fill="#200099" stroke="#15005f" stroke-width="1.5"/><path d="M103.86349,255.59428l12.40301,-43.84157l7.58397,2.14554l-12.40301,43.84158z" fill="#999999" stroke="#464646" stroke-width="1.5"/><path d="M101.3494,206.97156l0.91112,-3.22059l6.64896,1.88102l-0.91112,3.22059z" fill="#ffa700" stroke="#b67600" stroke-width="1.5"/><path d="M119.98452,227.16678l2.43945,-8.62287l2.80503,0.79356l-2.43946,8.62286z" fill="#a7a7a7" stroke="#656565" stroke-width="1.5"/><path d="M90.98308,244.14277l6.5248,-23.06358l9.24621,2.6158l-6.5248,23.06358z" fill="#676767" stroke="#363636" stroke-width="1.5"/><path d="M104.71839,235.02213l2.20643,-1.75079l1.33562,2.71546z" fill="#ffffff" stroke="none" stroke-width="0"/><path d="M104.5386,238.59923l1.07767,-3.8093l1.55835,0.44087l-1.07767,3.8093z" fill="#ffffff" stroke="none" stroke-width="0"/><path d="M100.5329,226.15201c0.25025,-0.88456 1.17019,-1.39877 2.05474,-1.14853c0.88456,0.25025 1.39878,1.17019 1.14853,2.05474c-0.25025,0.88456 -1.17019,1.39877 -2.05475,1.14852c-0.88456,-0.25025 -1.39877,-1.17019 -1.14853,-2.05474z" fill="#ffffff" stroke="none" stroke-width="0"/><path d="M97.15927,239.9635c0.26001,-0.91908 1.21586,-1.45338 2.13495,-1.19336c0.91908,0.26002 1.45337,1.21587 1.19336,2.13495c-0.26001,0.91908 -1.21587,1.45338 -2.13495,1.19336c-0.91908,-0.26002 -1.45338,-1.21587 -1.19335,-2.13495z" fill="#ffffff" stroke="none" stroke-width="0"/><text transform="translate(89.41682,246.7706) rotate(15.79545) scale(0.07217,0.05936) skewX(-0.0012)" font-size="40" xml:space="preserve" fill="#ffffff" fill-rule="nonzero" stroke="#ffffff" stroke-width="2" stroke-linecap="butt" stroke-linejoin="miter" stroke-miterlimit="10" stroke-dasharray="" stroke-dashoffset="0" font-family="Sans Serif" font-weight="normal" text-anchor="start" style="mix-blend-mode: normal"><tspan x="0" dy="0">walkman</tspan></text><text transform="translate(97.51572,218.14297) rotate(15.7958) scale(0.09996,0.09996)" font-size="40" xml:space="preserve" fill="#ffffff" fill-rule="nonzero" stroke="#ffffff" stroke-width="2" stroke-linecap="butt" stroke-linejoin="miter" stroke-miterlimit="10" stroke-dasharray="" stroke-dashoffset="0" font-family="Sans Serif" font-weight="normal" text-anchor="start" style="mix-blend-mode: normal"><tspan x="0" dy="0">SONY</tspan></text></g><g><path d="M274.09532,249.33342l12.60874,-44.56881l28.36197,8.02374l-12.60874,44.56881z" fill="#200099" stroke="#15005f" stroke-width="1.5"/><path d="M295.04967,254.58828l12.40301,-43.84157l7.58397,2.14554l-12.40301,43.84158z" fill="#999999" stroke="#464646" stroke-width="1.5"/><path d="M292.53558,205.96556l0.91112,-3.22059l6.64896,1.88102l-0.91112,3.22059z" fill="#ffa700" stroke="#b67600" stroke-width="1.5"/><path d="M311.1707,226.16078l2.43945,-8.62287l2.80503,0.79356l-2.43946,8.62286z" fill="#a7a7a7" stroke="#656565" stroke-width="1.5"/><path d="M282.16926,243.13677l6.5248,-23.06358l9.24621,2.6158l-6.5248,23.06358z" fill="#676767" stroke="#363636" stroke-width="1.5"/><path d="M295.90457,234.01613l2.20643,-1.75079l1.33562,2.71546z" fill="#ffffff" stroke="none" stroke-width="0"/><path d="M295.72478,237.59323l1.07767,-3.8093l1.55835,0.44087l-1.07767,3.8093z" fill="#ffffff" stroke="none" stroke-width="0"/><path d="M291.71908,225.14601c0.25025,-0.88456 1.17019,-1.39877 2.05474,-1.14853c0.88456,0.25025 1.39878,1.17019 1.14853,2.05474c-0.25025,0.88456 -1.17019,1.39877 -2.05475,1.14852c-0.88456,-0.25025 -1.39877,-1.17019 -1.14853,-2.05474z" fill="#ffffff" stroke="none" stroke-width="0"/><path d="M288.34546,238.9575c0.26002,-0.91908 1.21587,-1.45338 2.13495,-1.19335c0.91908,0.26002 1.45338,1.21587 1.19336,2.13495c-0.26002,0.91908 -1.21587,1.45337 -2.13495,1.19336c-0.91908,-0.26002 -1.45338,-1.21587 -1.19336,-2.13495z" fill="#ffffff" stroke="none" stroke-width="0"/><text transform="translate(280.603,245.7646) rotate(15.79545) scale(0.07217,0.05936) skewX(-0.0012)" font-size="40" xml:space="preserve" fill="#ffffff" fill-rule="nonzero" stroke="#ffffff" stroke-width="2" stroke-linecap="butt" stroke-linejoin="miter" stroke-miterlimit="10" stroke-dasharray="" stroke-dashoffset="0" font-family="Sans Serif" font-weight="normal" text-anchor="start" style="mix-blend-mode: normal"><tspan x="0" dy="0">walkman</tspan></text><text transform="translate(288.7019,217.13697) rotate(15.7958) scale(0.09996,0.09996)" font-size="40" xml:space="preserve" fill="#ffffff" fill-rule="nonzero" stroke="#ffffff" stroke-width="2" stroke-linecap="butt" stroke-linejoin="miter" stroke-miterlimit="10" stroke-dasharray="" stroke-dashoffset="0" font-family="Sans Serif" font-weight="normal" text-anchor="start" style="mix-blend-mode: normal"><tspan x="0" dy="0">SONY</tspan></text></g><g><path d="M136.45268,270.84993l12.60874,-44.56881l28.36197,8.02374l-12.60874,44.56881z" fill="#200099" stroke="#15005f" stroke-width="1.5"/><path d="M157.40703,276.10479l12.40301,-43.84157l7.58397,2.14554l-12.40301,43.84158z" fill="#999999" stroke="#464646" stroke-width="1.5"/><path d="M154.89294,227.48207l0.91112,-3.22059l6.64896,1.88102l-0.91112,3.22059z" fill="#ffa700" stroke="#b67600" stroke-width="1.5"/><path d="M173.52806,247.67729l2.43945,-8.62287l2.80503,0.79356l-2.43946,8.62286z" fill="#a7a7a7" stroke="#656565" stroke-width="1.5"/><path d="M144.52662,264.65328l6.5248,-23.06358l9.24621,2.6158l-6.5248,23.06358z" fill="#676767" stroke="#363636" stroke-width="1.5"/><path d="M158.26193,255.53264l2.20643,-1.75079l1.33562,2.71546z" fill="#ffffff" stroke="none" stroke-width="0"/><path d="M158.08214,259.10974l1.07767,-3.8093l1.55835,0.44087l-1.07767,3.8093z" fill="#ffffff" stroke="none" stroke-width="0"/><path d="M154.07644,246.66252c0.25025,-0.88456 1.17019,-1.39877 2.05474,-1.14853c0.88456,0.25025 1.39878,1.17019 1.14853,2.05474c-0.25025,0.88456 -1.17019,1.39877 -2.05475,1.14852c-0.88456,-0.25025 -1.39877,-1.17019 -1.14853,-2.05474z" fill="#ffffff" stroke="none" stroke-width="0"/><path d="M150.70281,260.47401c0.26002,-0.91908 1.21586,-1.45338 2.13495,-1.19335c0.91908,0.26001 1.45338,1.21587 1.19336,2.13495c-0.26002,0.91908 -1.21587,1.45338 -2.13495,1.19336c-0.91908,-0.26001 -1.45338,-1.21587 -1.19335,-2.13495z" fill="#ffffff" stroke="none" stroke-width="0"/><text transform="translate(142.96036,267.28111) rotate(15.79545) scale(0.07217,0.05936) skewX(-0.0012)" font-size="40" xml:space="preserve" fill="#ffffff" fill-rule="nonzero" stroke="#ffffff" stroke-width="2" stroke-linecap="butt" stroke-linejoin="miter" stroke-miterlimit="10" stroke-dasharray="" stroke-dashoffset="0" font-family="Sans Serif" font-weight="normal" text-anchor="start" style="mix-blend-mode: normal"><tspan x="0" dy="0">walkman</tspan></text><text transform="translate(151.05926,238.65348) rotate(15.7958) scale(0.09996,0.09996)" font-size="40" xml:space="preserve" fill="#ffffff" fill-rule="nonzero" stroke="#ffffff" stroke-width="2" stroke-linecap="butt" stroke-linejoin="miter" stroke-miterlimit="10" stroke-dasharray="" stroke-dashoffset="0" font-family="Sans Serif" font-weight="normal" text-anchor="start" style="mix-blend-mode: normal"><tspan x="0" dy="0">SONY</tspan></text></g><g><path d="M110.43166,175.75984l12.60874,-44.56881l28.36197,8.02374l-12.60874,44.56881z" fill="#200099" stroke="#15005f" stroke-width="1.5"/><path d="M131.38601,181.0147l12.40301,-43.84157l7.58397,2.14554l-12.40301,43.84158z" fill="#999999" stroke="#464646" stroke-width="1.5"/><path d="M128.87192,132.39198l0.91112,-3.22059l6.64896,1.88102l-0.91112,3.22059z" fill="#ffa700" stroke="#b67600" stroke-width="1.5"/><path d="M147.50704,152.5872l2.43945,-8.62287l2.80503,0.79356l-2.43946,8.62286z" fill="#a7a7a7" stroke="#656565" stroke-width="1.5"/><path d="M118.5056,169.56319l6.5248,-23.06358l9.24621,2.6158l-6.5248,23.06358z" fill="#676767" stroke="#363636" stroke-width="1.5"/><path d="M132.24091,160.44255l2.20643,-1.75079l1.33562,2.71546z" fill="#ffffff" stroke="none" stroke-width="0"/><path d="M132.06112,164.01965l1.07767,-3.8093l1.55835,0.44087l-1.07767,3.8093z" fill="#ffffff" stroke="none" stroke-width="0"/><path d="M128.05542,151.57243c0.25025,-0.88456 1.17019,-1.39877 2.05474,-1.14853c0.88456,0.25025 1.39878,1.17019 1.14853,2.05474c-0.25025,0.88456 -1.17019,1.39877 -2.05475,1.14852c-0.88456,-0.25025 -1.39877,-1.17019 -1.14853,-2.05474z" fill="#ffffff" stroke="none" stroke-width="0"/><path d="M124.6818,165.38392c0.26002,-0.91908 1.21587,-1.45338 2.13495,-1.19335c0.91908,0.26002 1.45337,1.21586 1.19336,2.13495c-0.26001,0.91908 -1.21587,1.45338 -2.13495,1.19336c-0.91908,-0.26002 -1.45338,-1.21587 -1.19336,-2.13495z" fill="#ffffff" stroke="none" stroke-width="0"/><text transform="translate(116.93934,172.19102) rotate(15.79545) scale(0.07217,0.05936) skewX(-0.0012)" font-size="40" xml:space="preserve" fill="#ffffff" fill-rule="nonzero" stroke="#ffffff" stroke-width="2" stroke-linecap="butt" stroke-linejoin="miter" stroke-miterlimit="10" stroke-dasharray="" stroke-dashoffset="0" font-family="Sans Serif" font-weight="normal" text-anchor="start" style="mix-blend-mode: normal"><tspan x="0" dy="0">walkman</tspan></text><text transform="translate(125.03824,143.56339) rotate(15.7958) scale(0.09996,0.09996)" font-size="40" xml:space="preserve" fill="#ffffff" fill-rule="nonzero" stroke="#ffffff" stroke-width="2" stroke-linecap="butt" stroke-linejoin="miter" stroke-miterlimit="10" stroke-dasharray="" stroke-dashoffset="0" font-family="Sans Serif" font-weight="normal" text-anchor="start" style="mix-blend-mode: normal"><tspan x="0" dy="0">SONY</tspan></text></g><g><path d="M211.52776,191.27035l12.60874,-44.56881l28.36197,8.02374l-12.60874,44.56881z" fill="#200099" stroke="#15005f" stroke-width="1.5"/><path d="M232.48211,196.52521l12.40301,-43.84157l7.58397,2.14554l-12.40301,43.84158z" fill="#999999" stroke="#464646" stroke-width="1.5"/><path d="M229.96802,147.90249l0.91112,-3.22059l6.64896,1.88102l-0.91112,3.22059z" fill="#ffa700" stroke="#b67600" stroke-width="1.5"/><path d="M248.60314,168.09771l2.43945,-8.62287l2.80503,0.79356l-2.43946,8.62286z" fill="#a7a7a7" stroke="#656565" stroke-width="1.5"/><path d="M219.6017,185.0737l6.5248,-23.06358l9.24621,2.6158l-6.5248,23.06358z" fill="#676767" stroke="#363636" stroke-width="1.5"/><path d="M233.33701,175.95306l2.20643,-1.75079l1.33562,2.71546z" fill="#ffffff" stroke="none" stroke-width="0"/><path d="M233.15722,179.53016l1.07767,-3.8093l1.55835,0.44087l-1.07767,3.8093z" fill="#ffffff" stroke="none" stroke-width="0"/><path d="M229.15152,167.08294c0.25025,-0.88456 1.17019,-1.39877 2.05474,-1.14853c0.88456,0.25025 1.39878,1.17019 1.14853,2.05474c-0.25025,0.88456 -1.17019,1.39877 -2.05475,1.14852c-0.88456,-0.25025 -1.39877,-1.17019 -1.14853,-2.05474z" fill="#ffffff" stroke="none" stroke-width="0"/><path d="M225.77789,180.89443c0.26002,-0.91908 1.21587,-1.45338 2.13495,-1.19335c0.91908,0.26002 1.45337,1.21587 1.19336,2.13495c-0.26002,0.91908 -1.21587,1.45338 -2.13495,1.19336c-0.91908,-0.26002 -1.45338,-1.21587 -1.19335,-2.13496z" fill="#ffffff" stroke="none" stroke-width="0"/><text transform="translate(218.03544,187.70153) rotate(15.79545) scale(0.07217,0.05936) skewX(-0.0012)" font-size="40" xml:space="preserve" fill="#ffffff" fill-rule="nonzero" stroke="#ffffff" stroke-width="2" stroke-linecap="butt" stroke-linejoin="miter" stroke-miterlimit="10" stroke-dasharray="" stroke-dashoffset="0" font-family="Sans Serif" font-weight="normal" text-anchor="start" style="mix-blend-mode: normal"><tspan x="0" dy="0">walkman</tspan></text><text transform="translate(226.13434,159.0739) rotate(15.7958) scale(0.09996,0.09996)" font-size="40" xml:space="preserve" fill="#ffffff" fill-rule="nonzero" stroke="#ffffff" stroke-width="2" stroke-linecap="butt" stroke-linejoin="miter" stroke-miterlimit="10" stroke-dasharray="" stroke-dashoffset="0" font-family="Sans Serif" font-weight="normal" text-anchor="start" style="mix-blend-mode: normal"><tspan x="0" dy="0">SONY</tspan></text></g><g><path d="M163.9752,196.27035l12.60874,-44.56881l28.36197,8.02374l-12.60874,44.56881z" fill="#200099" stroke="#15005f" stroke-width="1.5"/><path d="M184.92955,201.52521l12.40301,-43.84157l7.58397,2.14554l-12.40301,43.84158z" fill="#999999" stroke="#464646" stroke-width="1.5"/><path d="M182.41546,152.90249l0.91112,-3.22059l6.64896,1.88102l-0.91112,3.22059z" fill="#ffa700" stroke="#b67600" stroke-width="1.5"/><path d="M201.05058,173.09771l2.43945,-8.62287l2.80503,0.79356l-2.43946,8.62286z" fill="#a7a7a7" stroke="#656565" stroke-width="1.5"/><path d="M172.04914,190.0737l6.5248,-23.06358l9.24621,2.6158l-6.5248,23.06358z" fill="#676767" stroke="#363636" stroke-width="1.5"/><path d="M185.78445,180.95306l2.20643,-1.75079l1.33562,2.71546z" fill="#ffffff" stroke="none" stroke-width="0"/><path d="M185.60466,184.53016l1.07767,-3.8093l1.55835,0.44087l-1.07767,3.8093z" fill="#ffffff" stroke="none" stroke-width="0"/><path d="M181.59896,172.08294c0.25025,-0.88456 1.17019,-1.39877 2.05474,-1.14853c0.88456,0.25025 1.39878,1.17019 1.14853,2.05474c-0.25025,0.88456 -1.17019,1.39877 -2.05475,1.14852c-0.88456,-0.25025 -1.39877,-1.17019 -1.14853,-2.05474z" fill="#ffffff" stroke="none" stroke-width="0"/><path d="M178.22534,185.89443c0.26002,-0.91908 1.21587,-1.45338 2.13495,-1.19335c0.91908,0.26002 1.45338,1.21587 1.19336,2.13495c-0.26002,0.91908 -1.21587,1.45338 -2.13495,1.19336c-0.91908,-0.26001 -1.45338,-1.21587 -1.19336,-2.13495z" fill="#ffffff" stroke="none" stroke-width="0"/><text transform="translate(170.48288,192.70153) rotate(15.79545) scale(0.07217,0.05936) skewX(-0.0012)" font-size="40" xml:space="preserve" fill="#ffffff" fill-rule="nonzero" stroke="#ffffff" stroke-width="2" stroke-linecap="butt" stroke-linejoin="miter" stroke-miterlimit="10" stroke-dasharray="" stroke-dashoffset="0" font-family="Sans Serif" font-weight="normal" text-anchor="start" style="mix-blend-mode: normal"><tspan x="0" dy="0">walkman</tspan></text><text transform="translate(178.58178,164.0739) rotate(15.7958) scale(0.09996,0.09996)" font-size="40" xml:space="preserve" fill="#ffffff" fill-rule="nonzero" stroke="#ffffff" stroke-width="2" stroke-linecap="butt" stroke-linejoin="miter" stroke-miterlimit="10" stroke-dasharray="" stroke-dashoffset="0" font-family="Sans Serif" font-weight="normal" text-anchor="start" style="mix-blend-mode: normal"><tspan x="0" dy="0">SONY</tspan></text></g><g><path d="M204.51574,262.33642l12.60874,-44.56881l28.36197,8.02374l-12.60874,44.56881z" fill="#200099" stroke="#15005f" stroke-width="1.5"/><path d="M225.47009,267.59128l12.40301,-43.84157l7.58397,2.14554l-12.40301,43.84158z" fill="#999999" stroke="#464646" stroke-width="1.5"/><path d="M222.956,218.96856l0.91112,-3.22059l6.64896,1.88102l-0.91112,3.22059z" fill="#ffa700" stroke="#b67600" stroke-width="1.5"/><path d="M241.59112,239.16378l2.43945,-8.62287l2.80503,0.79356l-2.43946,8.62286z" fill="#a7a7a7" stroke="#656565" stroke-width="1.5"/><path d="M212.58968,256.13977l6.5248,-23.06358l9.24621,2.6158l-6.5248,23.06358z" fill="#676767" stroke="#363636" stroke-width="1.5"/><path d="M226.32499,247.01913l2.20643,-1.75079l1.33562,2.71546z" fill="#ffffff" stroke="none" stroke-width="0"/><path d="M226.1452,250.59623l1.07767,-3.8093l1.55835,0.44087l-1.07767,3.8093z" fill="#ffffff" stroke="none" stroke-width="0"/><path d="M222.1395,238.14901c0.25025,-0.88456 1.17019,-1.39877 2.05474,-1.14853c0.88456,0.25025 1.39878,1.17019 1.14853,2.05474c-0.25025,0.88456 -1.17019,1.39877 -2.05475,1.14852c-0.88456,-0.25025 -1.39877,-1.17019 -1.14853,-2.05474z" fill="#ffffff" stroke="none" stroke-width="0"/><path d="M218.76588,251.9605c0.26002,-0.91908 1.21586,-1.45338 2.13495,-1.19335c0.91908,0.26002 1.45338,1.21587 1.19336,2.13495c-0.26002,0.91908 -1.21587,1.45337 -2.13495,1.19336c-0.91908,-0.26002 -1.45338,-1.21587 -1.19335,-2.13495z" fill="#ffffff" stroke="none" stroke-width="0"/><text transform="translate(211.02342,258.7676) rotate(15.79545) scale(0.07217,0.05936) skewX(-0.0012)" font-size="40" xml:space="preserve" fill="#ffffff" fill-rule="nonzero" stroke="#ffffff" stroke-width="2" stroke-linecap="butt" stroke-linejoin="miter" stroke-miterlimit="10" stroke-dasharray="" stroke-dashoffset="0" font-family="Sans Serif" font-weight="normal" text-anchor="start" style="mix-blend-mode: normal"><tspan x="0" dy="0">walkman</tspan></text><text transform="translate(219.12232,230.13997) rotate(15.7958) scale(0.09996,0.09996)" font-size="40" xml:space="preserve" fill="#ffffff" fill-rule="nonzero" stroke="#ffffff" stroke-width="2" stroke-linecap="butt" stroke-linejoin="miter" stroke-miterlimit="10" stroke-dasharray="" stroke-dashoffset="0" font-family="Sans Serif" font-weight="normal" text-anchor="start" style="mix-blend-mode: normal"><tspan x="0" dy="0">SONY</tspan></text></g><g><path d="M194.50073,352.922l12.60874,-44.56881l28.36197,8.02374l-12.60874,44.56881z" fill="#200099" stroke="#15005f" stroke-width="1.5"/><path d="M215.45508,358.17686l12.40301,-43.84157l7.58397,2.14554l-12.40301,43.84158z" fill="#999999" stroke="#464646" stroke-width="1.5"/><path d="M212.94099,309.55414l0.91112,-3.22059l6.64896,1.88102l-0.91112,3.22059z" fill="#ffa700" stroke="#b67600" stroke-width="1.5"/><path d="M231.57611,329.74936l2.43945,-8.62287l2.80503,0.79356l-2.43946,8.62286z" fill="#a7a7a7" stroke="#656565" stroke-width="1.5"/><path d="M202.57467,346.72535l6.5248,-23.06358l9.24621,2.6158l-6.5248,23.06358z" fill="#676767" stroke="#363636" stroke-width="1.5"/><path d="M216.30998,337.60471l2.20643,-1.75079l1.33562,2.71546z" fill="#ffffff" stroke="none" stroke-width="0"/><path d="M216.13019,341.18181l1.07767,-3.8093l1.55835,0.44087l-1.07767,3.8093z" fill="#ffffff" stroke="none" stroke-width="0"/><path d="M212.12449,328.73459c0.25025,-0.88456 1.17019,-1.39877 2.05474,-1.14853c0.88456,0.25025 1.39878,1.17019 1.14853,2.05474c-0.25025,0.88456 -1.17019,1.39877 -2.05475,1.14852c-0.88456,-0.25025 -1.39877,-1.17019 -1.14853,-2.05474z" fill="#ffffff" stroke="none" stroke-width="0"/><path d="M208.75086,342.54608c0.26002,-0.91908 1.21587,-1.45338 2.13495,-1.19336c0.91908,0.26002 1.45337,1.21587 1.19336,2.13495c-0.26002,0.91908 -1.21587,1.45337 -2.13495,1.19336c-0.91908,-0.26002 -1.45338,-1.21587 -1.19335,-2.13495z" fill="#ffffff" stroke="none" stroke-width="0"/><text transform="translate(201.00841,349.35318) rotate(15.79545) scale(0.07217,0.05936) skewX(-0.0012)" font-size="40" xml:space="preserve" fill="#ffffff" fill-rule="nonzero" stroke="#ffffff" stroke-width="2" stroke-linecap="butt" stroke-linejoin="miter" stroke-miterlimit="10" stroke-dasharray="" stroke-dashoffset="0" font-family="Sans Serif" font-weight="normal" text-anchor="start" style="mix-blend-mode: normal"><tspan x="0" dy="0">walkman</tspan></text><text transform="translate(209.10731,320.72555) rotate(15.7958) scale(0.09996,0.09996)" font-size="40" xml:space="preserve" fill="#ffffff" fill-rule="nonzero" stroke="#ffffff" stroke-width="2" stroke-linecap="butt" stroke-linejoin="miter" stroke-miterlimit="10" stroke-dasharray="" stroke-dashoffset="0" font-family="Sans Serif" font-weight="normal" text-anchor="start" style="mix-blend-mode: normal"><tspan x="0" dy="0">SONY</tspan></text></g><g><path d="M191.99322,303.86795l12.60874,-44.56881l28.36197,8.02374l-12.60874,44.56881z" fill="#200099" stroke="#15005f" stroke-width="1.5"/><path d="M212.94757,309.12281l12.40301,-43.84157l7.58397,2.14554l-12.40301,43.84158z" fill="#999999" stroke="#464646" stroke-width="1.5"/><path d="M210.43348,260.50009l0.91112,-3.22059l6.64896,1.88102l-0.91112,3.22059z" fill="#ffa700" stroke="#b67600" stroke-width="1.5"/><path d="M229.0686,280.69531l2.43945,-8.62287l2.80503,0.79356l-2.43946,8.62286z" fill="#a7a7a7" stroke="#656565" stroke-width="1.5"/><path d="M200.06716,297.6713l6.5248,-23.06358l9.24621,2.6158l-6.5248,23.06358z" fill="#676767" stroke="#363636" stroke-width="1.5"/><path d="M213.80247,288.55066l2.20643,-1.75079l1.33562,2.71546z" fill="#ffffff" stroke="none" stroke-width="0"/><path d="M213.62268,292.12776l1.07767,-3.8093l1.55835,0.44087l-1.07767,3.8093z" fill="#ffffff" stroke="none" stroke-width="0"/><path d="M209.61698,279.68054c0.25025,-0.88456 1.17019,-1.39877 2.05474,-1.14853c0.88456,0.25025 1.39878,1.17019 1.14853,2.05474c-0.25025,0.88456 -1.17019,1.39877 -2.05475,1.14852c-0.88456,-0.25025 -1.39877,-1.17019 -1.14853,-2.05474z" fill="#ffffff" stroke="none" stroke-width="0"/><path d="M206.24336,293.49203c0.26002,-0.91908 1.21587,-1.45338 2.13495,-1.19335c0.91908,0.26002 1.45337,1.21587 1.19336,2.13495c-0.26002,0.91908 -1.21587,1.45337 -2.13495,1.19336c-0.91908,-0.26002 -1.45338,-1.21587 -1.19335,-2.13495z" fill="#ffffff" stroke="none" stroke-width="0"/><text transform="translate(198.5009,300.29913) rotate(15.79545) scale(0.07217,0.05936) skewX(-0.0012)" font-size="40" xml:space="preserve" fill="#ffffff" fill-rule="nonzero" stroke="#ffffff" stroke-width="2" stroke-linecap="butt" stroke-linejoin="miter" stroke-miterlimit="10" stroke-dasharray="" stroke-dashoffset="0" font-family="Sans Serif" font-weight="normal" text-anchor="start" style="mix-blend-mode: normal"><tspan x="0" dy="0">walkman</tspan></text><text transform="translate(206.5998,271.6715) rotate(15.7958) scale(0.09996,0.09996)" font-size="40" xml:space="preserve" fill="#ffffff" fill-rule="nonzero" stroke="#ffffff" stroke-width="2" stroke-linecap="butt" stroke-linejoin="miter" stroke-miterlimit="10" stroke-dasharray="" stroke-dashoffset="0" font-family="Sans Serif" font-weight="normal" text-anchor="start" style="mix-blend-mode: normal"><tspan x="0" dy="0">SONY</tspan></text></g><g><path d="M236.03226,239.79888l12.60874,-44.56881l28.36197,8.02374l-12.60874,44.56881z" fill="#200099" stroke="#15005f" stroke-width="1.5"/><path d="M256.98661,245.05374l12.40301,-43.84157l7.58397,2.14554l-12.40301,43.84158z" fill="#999999" stroke="#464646" stroke-width="1.5"/><path d="M254.47252,196.43102l0.91112,-3.22059l6.64896,1.88102l-0.91112,3.22059z" fill="#ffa700" stroke="#b67600" stroke-width="1.5"/><path d="M273.10764,216.62624l2.43945,-8.62287l2.80503,0.79356l-2.43946,8.62286z" fill="#a7a7a7" stroke="#656565" stroke-width="1.5"/><path d="M244.1062,233.60223l6.5248,-23.06358l9.24621,2.6158l-6.5248,23.06358z" fill="#676767" stroke="#363636" stroke-width="1.5"/><path d="M257.84151,224.48159l2.20643,-1.75079l1.33562,2.71546z" fill="#ffffff" stroke="none" stroke-width="0"/><path d="M257.66172,228.05869l1.07767,-3.8093l1.55835,0.44087l-1.07767,3.8093z" fill="#ffffff" stroke="none" stroke-width="0"/><path d="M253.65602,215.61147c0.25025,-0.88456 1.17019,-1.39877 2.05474,-1.14853c0.88456,0.25025 1.39878,1.17019 1.14853,2.05474c-0.25025,0.88456 -1.17019,1.39877 -2.05475,1.14852c-0.88456,-0.25025 -1.39877,-1.17019 -1.14853,-2.05474z" fill="#ffffff" stroke="none" stroke-width="0"/><path d="M250.28239,229.42296c0.26002,-0.91908 1.21587,-1.45338 2.13495,-1.19335c0.91908,0.26002 1.45338,1.21587 1.19336,2.13495c-0.26001,0.91908 -1.21587,1.45337 -2.13495,1.19336c-0.91908,-0.26002 -1.45338,-1.21587 -1.19335,-2.13495z" fill="#ffffff" stroke="none" stroke-width="0"/><text transform="translate(242.53994,236.23006) rotate(15.79545) scale(0.07217,0.05936) skewX(-0.0012)" font-size="40" xml:space="preserve" fill="#ffffff" fill-rule="nonzero" stroke="#ffffff" stroke-width="2" stroke-linecap="butt" stroke-linejoin="miter" stroke-miterlimit="10" stroke-dasharray="" stroke-dashoffset="0" font-family="Sans Serif" font-weight="normal" text-anchor="start" style="mix-blend-mode: normal"><tspan x="0" dy="0">walkman</tspan></text><text transform="translate(250.63884,207.60243) rotate(15.7958) scale(0.09996,0.09996)" font-size="40" xml:space="preserve" fill="#ffffff" fill-rule="nonzero" stroke="#ffffff" stroke-width="2" stroke-linecap="butt" stroke-linejoin="miter" stroke-miterlimit="10" stroke-dasharray="" stroke-dashoffset="0" font-family="Sans Serif" font-weight="normal" text-anchor="start" style="mix-blend-mode: normal"><tspan x="0" dy="0">SONY</tspan></text></g><path d="M332.08708,86.42578v150.15015h-280.78078v-150.15015z" data-paper-data="{&quot;index&quot;:null}" fill="url(#color-3)" stroke="none" stroke-width="none"/><path d="M241.24174,313.06156v651h-95v-651z" data-paper-data="{&quot;index&quot;:null}" fill="#b1b1b1" stroke="url(#color-4)" stroke-width="5"/><path d="M50.96697,334.66902v-150.15015h280.78078v150.15015z" data-paper-data="{&quot;index&quot;:null}" fill="url(#color-5)" stroke="none" stroke-width="none"/><path d="M334.33934,288.99099v96.0961h-282.28228v-96.0961z" data-paper-data="{&quot;index&quot;:null}" fill="url(#color-6)" stroke="url(#color-7)" stroke-width="5"/><path d="M51.56156,93.07057v-96.0961h282.28228v96.0961z" fill="url(#color-8)" stroke="url(#color-9)" stroke-width="5"/></g></g></svg>