<svg version="1.1" xmlns="http://www.w3.org/2000/svg" xmlns:xlink="http://www.w3.org/1999/xlink" width="427.83033" height="99.78724" viewBox="0,0,427.83033,99.78724"><g transform="translate(-28.14074,-179.22871)"><g data-paper-data="{&quot;isPaintingLayer&quot;:true}" fill-rule="nonzero" stroke="none" stroke-width="0" stroke-linecap="butt" stroke-linejoin="miter" stroke-miterlimit="10" stroke-dasharray="" stroke-dashoffset="0" style="mix-blend-mode: normal"><path d="M28.52394,251.80851v-25.85106h81.14362v25.85106z" fill="#da7600"/><path d="M233.1516,244.60106v24.41489h-81.14362v-24.41489z" fill="#da7600"/><path d="M247.4867,205.07978v-25.85107h81.14362v25.85107z" fill="#da7600"/><path d="M373.84309,279.01595v-25.85107h81.14362v25.85107z" fill="#da7600"/><g><path d="M152.12723,269.11647v-25.31741h82.2165v25.31742z" fill="#d69b00"/><path d="M152.62723,251.62379v-8.02913h81.83033v8.02913l-8.36007,9.76662l-8.24175,-10.82884l-6.19458,10.51544l-10.33975,-10.77122l-8.77182,7.21041l-10.80696,-6.19403l-10.74899,6.96027l-7.13101,-5.44472l-6.5342,6.96668z" fill="#00d624"/></g><g><path d="M246.72182,205.05491v-25.31741h82.2165v25.31742z" fill="#d69b00"/><path d="M247.22182,187.56223v-8.02913h81.83033v8.02913l-8.36007,9.76662l-8.24175,-10.82884l-6.19458,10.51544l-10.33975,-10.77122l-8.77182,7.21041l-10.80696,-6.19403l-10.74899,6.96027l-7.13101,-5.44472l-6.5342,6.96668z" fill="#00d624"/></g><g><path d="M373.64074,278.58795v-25.31741h82.2165v25.31742z" fill="#d69b00"/><path d="M374.14074,261.09527v-8.02913h81.83033v8.02913l-8.36007,9.76662l-8.24176,-10.82884l-6.19457,10.51544l-10.33975,-10.77122l-8.77182,7.2104l-10.80696,-6.19403l-10.74899,6.96027l-7.13101,-5.44471l-6.5342,6.96668z" fill="#00d624"/></g><g><path d="M28.14074,251.58795v-25.31741h82.2165v25.31742z" fill="#d69b00"/><path d="M28.64074,234.09527v-8.02913h81.83033v8.02913l-8.36007,9.76662l-8.24175,-10.82884l-6.19458,10.51544l-10.33975,-10.77122l-8.77182,7.21041l-10.80696,-6.19403l-10.74899,6.96027l-7.13101,-5.44472l-6.5342,6.96668z" fill="#00d624"/></g></g></g></svg>