<svg version="1.1" xmlns="http://www.w3.org/2000/svg" xmlns:xlink="http://www.w3.org/1999/xlink" width="27.51478" height="46.80158" viewBox="0,0,27.51478,46.80158"><g transform="translate(-227.50753,-157.72199)"><g data-paper-data="{&quot;isPaintingLayer&quot;:true}" fill-rule="nonzero" stroke-linejoin="miter" stroke-miterlimit="10" stroke-dasharray="" stroke-dashoffset="0" style="mix-blend-mode: normal"><path d="M230.63448,170.39627c0,0 0.13822,0.73715 -0.59894,0.87537c-0.34221,0.06416 -0.55534,-0.06032 -0.68549,-0.21213c-0.29922,-0.09854 -0.51523,-0.3803 -0.51523,-0.71252c0,-0.06371 0.00794,-0.12556 0.02289,-0.18462l0.12275,-0.53194c-0.38787,-2.46297 -0.69602,-6.09275 0.38309,-8.01696c1.58385,-2.82423 5.80306,-3.14148 8.59626,-3.14148c1.59101,0 4.68656,-0.58907 6.15569,0.20812c1.16286,0.63101 1.95224,2.14378 2.87024,3.06968c3.03897,3.06512 5.14096,5.22744 6.64118,9.48602c0.52988,4.14913 0.64539,8.73868 0.64539,12.92368c0,1.02394 0.44635,3.41949 -0.09964,4.31105c-0.60534,0.98846 -2.69628,1.65307 -3.74657,1.7509c-0.74597,0.00046 -2.47779,0.24296 -3.03855,-0.38967c-0.47019,-0.53045 -0.12414,-2.24524 -0.17585,-2.93161c-0.17665,-2.345 -0.50103,-5.19877 -0.11855,-7.53969c0.27474,-1.68148 1.05416,-2.8713 1.05416,-4.63848c0,-3.07574 -2.30841,-7.84884 -5.82975,-8.38861c-2.01297,-0.30856 -4.08385,-0.30157 -6.13968,-0.26919c-0.09313,0.3083 -0.37938,0.5328 -0.71807,0.5328h-0.70634c-1.22193,0.17691 -2.42157,1.42954 -3.54191,2.60114l-0.01843,0.04677c0,0 -0.1276,0.25521 -0.38281,0.37209l0.25915,0.24295l-0.44626,0.47601c0.00376,0.02023 0.00751,0.04034 0.01126,0.06031z" fill="#c6c6c6" stroke="#6f6f6f" stroke-width="1.5" stroke-linecap="butt"/><path d="M241.03746,202.95853l-0.35208,-8.62439l3.73373,-0.15243l0.35209,8.6244z" data-paper-data="{&quot;index&quot;:null}" fill="#c6c6c6" stroke="#6f6f6f" stroke-width="1.5" stroke-linecap="butt"/><path d="M232.82503,203.72512l0.09328,-8.63107l3.73662,0.04039l-0.09328,8.63107z" fill="#c6c6c6" stroke="#6f6f6f" stroke-width="1.5" stroke-linecap="butt"/><path d="M232.09963,194.97364v-12.47368h12.47368v12.47368z" fill="#c6c6c6" stroke="#6f6f6f" stroke-width="1.5" stroke-linecap="butt"/><path d="M228.25753,174.86837c0,-5.61005 4.54784,-10.15789 10.15789,-10.15789c5.61005,0 10.15789,4.54784 10.15789,10.15789c0,5.61005 -4.54784,10.15789 -10.15789,10.15789c-5.61005,0 -10.15789,-4.54784 -10.15789,-10.15789z" fill="#c6c6c6" stroke="#6f6f6f" stroke-width="1.5" stroke-linecap="butt"/><path d="M238.48907,172.7682c-0.12767,1.22913 -1.22756,2.12205 -2.45669,1.99438c-1.41044,-0.1465 -2.39728,-0.94236 -2.39728,-0.94236c0,0 2.19707,-3.57753 2.85959,-3.50871c1.22913,0.12767 2.12205,1.22756 1.99438,2.45669z" data-paper-data="{&quot;index&quot;:null}" fill="#ff0000" stroke="none" stroke-width="0" stroke-linecap="butt"/><path d="M229.92557,172.42002c0.37089,-1.12654 0.79066,-2.00058 0.79066,-2.00058c0,0 3.65979,2.21715 3.2889,3.3437c-0.37089,1.12654 -1.5848,1.73913 -2.71135,1.36823c-1.12654,-0.37089 -1.73913,-1.5848 -1.36823,-2.71135z" data-paper-data="{&quot;index&quot;:null}" fill="#ff0000" stroke="none" stroke-width="0" stroke-linecap="butt"/><path d="M232.71805,168.97364c0,-0.41421 0.33579,-0.75 0.75,-0.75c0.41421,0 0.75,0.33579 0.75,0.75c0,0.41421 -0.33579,0.75 -0.75,0.75c-0.41421,0 -0.75,-0.33579 -0.75,-0.75z" fill="#000000" stroke="none" stroke-width="0.5" stroke-linecap="butt"/><path d="M243.03384,168.81574c0,-0.41421 0.33579,-0.75 0.75,-0.75c0.41421,0 0.75,0.33579 0.75,0.75c0,0.41421 -0.33579,0.75 -0.75,0.75c-0.41421,0 -0.75,-0.33579 -0.75,-0.75z" fill="#000000" stroke="none" stroke-width="0.5" stroke-linecap="butt"/><path d="M232.50753,180.921c0,-0.41421 0.33579,-0.75 0.75,-0.75c0.41421,0 0.75,0.33579 0.75,0.75c0,0.41421 -0.33579,0.75 -0.75,0.75c-0.41421,0 -0.75,-0.33579 -0.75,-0.75z" fill="#000000" stroke="none" stroke-width="0.5" stroke-linecap="butt"/><path d="M242.297,181.18416c0,-0.41421 0.33579,-0.75 0.75,-0.75c0.41421,0 0.75,0.33579 0.75,0.75c0,0.41421 -0.33579,0.75 -0.75,0.75c-0.41421,0 -0.75,-0.33579 -0.75,-0.75z" fill="#000000" stroke="none" stroke-width="0.5" stroke-linecap="butt"/><path d="M245.61279,173.02627c0,-0.41421 0.33579,-0.75 0.75,-0.75c0.41421,0 0.75,0.33579 0.75,0.75c0,0.41421 -0.33579,0.75 -0.75,0.75c-0.41421,0 -0.75,-0.33579 -0.75,-0.75z" fill="#000000" stroke="none" stroke-width="0.5" stroke-linecap="butt"/><path d="M245.61279,176.81574c0,-0.41421 0.33579,-0.75 0.75,-0.75c0.41421,0 0.75,0.33579 0.75,0.75c0,0.41421 -0.33579,0.75 -0.75,0.75c-0.41421,0 -0.75,-0.33579 -0.75,-0.75z" fill="#000000" stroke="none" stroke-width="0.5" stroke-linecap="butt"/><path d="M229.92858,177.02627c0,-0.41421 0.33579,-0.75 0.75,-0.75c0.41421,0 0.75,0.33579 0.75,0.75c0,0.41421 -0.33579,0.75 -0.75,0.75c-0.41421,0 -0.75,-0.33579 -0.75,-0.75z" fill="#000000" stroke="none" stroke-width="0.5" stroke-linecap="butt"/><path d="M227.82332,173.23679c0,-0.41421 0.33579,-0.75 0.75,-0.75c0.41421,0 0.75,0.33579 0.75,0.75c0,0.41421 -0.33579,0.75 -0.75,0.75c-0.41421,0 -0.75,-0.33579 -0.75,-0.75z" fill="#000000" stroke="none" stroke-width="0.5" stroke-linecap="butt"/><path d="M233.34963,184.921c0,-0.41421 0.33579,-0.75 0.75,-0.75c0.41421,0 0.75,0.33579 0.75,0.75c0,0.41421 -0.33579,0.75 -0.75,0.75c-0.41421,0 -0.75,-0.33579 -0.75,-0.75z" fill="#000000" stroke="none" stroke-width="0.5" stroke-linecap="butt"/><path d="M241.92858,184.65785c0,-0.41421 0.33579,-0.75 0.75,-0.75c0.41421,0 0.75,0.33579 0.75,0.75c0,0.41421 -0.33579,0.75 -0.75,0.75c-0.41421,0 -0.75,-0.33579 -0.75,-0.75z" fill="#000000" stroke="none" stroke-width="0.5" stroke-linecap="butt"/><path d="M233.08648,193.49995c0,-0.41421 0.33579,-0.75 0.75,-0.75c0.41421,0 0.75,0.33579 0.75,0.75c0,0.41421 -0.33579,0.75 -0.75,0.75c-0.41421,0 -0.75,-0.33579 -0.75,-0.75z" fill="#000000" stroke="none" stroke-width="0.5" stroke-linecap="butt"/><path d="M242.03384,193.39469c0,-0.41421 0.33579,-0.75 0.75,-0.75c0.41421,0 0.75,0.33579 0.75,0.75c0,0.41421 -0.33579,0.75 -0.75,0.75c-0.41421,0 -0.75,-0.33579 -0.75,-0.75z" fill="#000000" stroke="none" stroke-width="0.5" stroke-linecap="butt"/><path d="M230.05334,193.13017l0.668,-7.60228l2.88363,0.25337l-0.668,7.60228z" fill="#c6c6c6" stroke="#6f6f6f" stroke-width="1.5" stroke-linecap="butt"/><path d="M237.65323,192.12606l1.09603,-7.55247l2.86472,0.41574l-1.09603,7.55246z" fill="#c6c6c6" stroke="#6f6f6f" stroke-width="1.5" stroke-linecap="butt"/><path d="M231.45176,169.13736l2.38889,2.38889l2.38889,-2.38889" fill="none" stroke="#000000" stroke-width="0.5" stroke-linecap="round"/></g></g></svg>