<svg version="1.1" xmlns="http://www.w3.org/2000/svg" xmlns:xlink="http://www.w3.org/1999/xlink" width="117.77047" height="78.46642" viewBox="0,0,117.77047,78.46642"><g transform="translate(-189.56472,-152.49245)"><g data-paper-data="{&quot;isPaintingLayer&quot;:true}" fill-rule="nonzero" stroke-linejoin="miter" stroke-miterlimit="10" stroke-dasharray="" stroke-dashoffset="0" style="mix-blend-mode: normal"><g data-paper-data="{&quot;index&quot;:null}" fill="#949494" stroke="#000000" stroke-width="2"><path d="M203.77317,212.7155c0,0 -5.38023,-12.55908 -1.55965,-18.90176c1.37336,-2.27997 1.15797,-2.48893 3.36385,-6.31523c0.79455,-1.37822 1.73659,-2.777 2.72295,-4.42769c2.645,-4.42644 5.4575,-9.20154 5.4575,-9.20154c0,0 12.54842,3.44604 17.02777,3.909c0.4325,0.0447 21.37404,2.68518 21.81087,2.72751c10.69134,1.03576 7.22563,0.5123 7.22563,0.5123c0,0 5.31012,-2.71937 6.89498,-2.24355c3.04341,0.91372 6.33813,-2.02289 7.43032,3.77327c0.51335,2.7243 0.30594,2.99937 0.28318,6.66113c-0.03323,5.34535 -0.62958,13.45109 -2.97646,18.62747c-3.15854,6.96661 -8.30451,10.29947 -8.30451,10.29947z" stroke-linecap="butt"/><path d="M226.98644,214.15935c0,0 10.02444,-7.98213 10.6389,-17.34209c0.0822,-4.30914 -3.76637,-13.53025 -3.76637,-13.53025l-3.50376,-5.37674l2.86821,4.59468c0,0 4.12831,-0.04651 6.39063,-0.072c2.56151,-0.02887 8.19263,-0.09231 8.19263,-0.09231l-0.06534,-1.67829" stroke-linecap="round"/><path d="M259.10726,188.5232c0,0 3.04855,0.83062 5.53038,2.73629c3.02483,2.32262 5.57563,6.04836 5.36574,9.37548c-0.20819,3.30016 -1.50391,7.97118 -4.56722,10.59904c-3.77997,3.24267 -9.57428,4.06835 -11.20145,3.70803c-4.41248,-0.97709 -7.25019,-9.44792 -7.3318,-11.42095c-0.2248,-5.43451 2.88298,-11.94454 3.95774,-13.11272c2.00392,-2.17811 8.24661,-1.88517 8.24661,-1.88517" stroke-linecap="round"/><path d="M207.91176,196.36553c0.50495,-4.88567 3.89856,-7.32563 8.13619,-8.60539c1.30815,-0.39507 4.19615,-1.10444 5.6274,-0.95651c6.06764,0.62711 9.55451,5.74851 8.89368,12.14238c-0.66083,6.39387 -6.92181,11.94056 -12.98946,11.31345c-6.06765,-0.62711 -10.32865,-7.50008 -9.66782,-13.89394z" stroke-linecap="butt"/></g><g data-paper-data="{&quot;index&quot;:null}" stroke="#000000" stroke-width="2" stroke-linecap="round"><path d="M190.78818,174.94278c0,0 9.11299,-3.67229 14.90802,-3.41044c2.49246,0.11262 5.48406,0.88501 6.63061,1.91377c1.33121,1.19445 0.59208,2.67198 0.25849,2.88014c-2.25003,1.4041 -7.42576,2.15193 -9.65183,2.04907c-3.90201,-0.18028 -12.36875,-3.35195 -12.36875,-3.35195" fill="#d8d8d8"/><path d="M208.21281,177.74796l-0.45075,-6.15004" fill="none"/></g><path d="M276.2839,199.28731l-11.88061,9.55786c0,0 -4.58009,3.0655 -6.37129,2.25254c-1.0169,-0.46152 -4.70257,-1.68315 -6.14219,-3.18059c-1.8027,-1.87516 -1.00268,-4.82557 -1.26578,-5.99474c-0.11486,-0.51049 2.65254,-3.88563 2.65254,-3.88563c0,0 2.91232,-1.82818 4.84017,-3.03836c2.86128,-1.79614 10.66196,-6.69293 10.66196,-6.69293z" data-paper-data="{&quot;index&quot;:null}" fill="#949494" stroke="#000000" stroke-width="2.5" stroke-linecap="butt"/><g data-paper-data="{&quot;index&quot;:null}"><g><path d="M202.27249,210.46363l-2.904,-5.17962l4.35088,-2.43936l2.904,5.17962z" data-paper-data="{&quot;index&quot;:null}" fill="#000000" stroke="none" stroke-width="0" stroke-linecap="butt"/><path d="M215.56393,207.42612l2.93692,4.03877l3.27835,3.41331l0.26388,4.47386l2.21881,-2.57736l2.57836,-0.75739l1.5168,-0.79567l2.55923,-0.22661l-0.77855,3.90481l-5.197,8.52875l-1.5168,0.79567l-3.45056,1.36371l-8.66168,-4.45772l-3.35188,-10.21878z" fill="#949494" stroke="#000000" stroke-width="2.5" stroke-linecap="round"/><path d="M207.01203,214.66468l-4.18883,-1.74543l-0.73827,-3.10914l1.70715,-3.12727l4.9291,-1.09782l5.51629,0.30518l1.32645,1.53594z" fill="#242424" stroke="#000000" stroke-width="2.5" stroke-linecap="round"/><path d="M207.64051,206.07753l2.40713,1.04343l1.00315,4.60681" fill="none" stroke="#000000" stroke-width="2.5" stroke-linecap="round"/></g><g stroke="none" stroke-linecap="butt"><path d="M217.87627,227.91382l-5.32707,-2.28717l-3.20342,-11.43373l5.83722,-5.19902l5.57187,5.96552l0.69022,6.07206z" fill="#8c6200" stroke-width="NaN"/><path d="M208.83053,218.90536l0.56741,-5.37748l5.82609,-4.87272l1.82779,2.55505z" fill="#8c0081" stroke-width="NaN"/><path d="M229.59273,219.23289l-6.51693,9.26583l-5.47629,-1.70776l3.53608,-6.413l2.65202,-2.04951l2.24073,-2.64538l1.321,-0.3214l2.7441,0.02088z" fill="#8c0081" stroke-width="0"/><g fill="#ffffff" stroke-width="0.5"><path d="M213.77506,214.70055c-0.00007,-0.00044 -0.00013,-0.0009 -0.0002,-0.00134c-0.04086,-0.2706 0.22975,-0.31147 0.22975,-0.31147c1.32398,-0.18591 2.02332,0.78154 1.74552,1.8569c-0.09888,-0.08461 -0.22602,-0.01538 -0.22602,-0.01538c-0.86235,0.46956 -1.73081,0.92135 -2.56257,1.43947c-0.4307,-0.18358 -0.76511,-0.45577 -0.79582,-0.78915c-0.04325,-0.46961 0.26309,-0.99327 0.49737,-1.35819c0.34308,-0.45018 0.66885,-0.6251 1.11194,-0.82086zM213.1843,216.29584c0.09955,-0.05421 0.13631,-0.17886 0.08211,-0.27842c-0.05422,-0.09956 -0.17888,-0.13632 -0.27843,-0.0821c-0.09956,0.05422 -0.13631,0.17886 -0.08211,0.27842c0.05421,0.09955 0.17886,0.13631 0.27842,0.08211zM214.64009,215.46418c0.09956,-0.05422 0.13631,-0.17886 0.08209,-0.27843c-0.05422,-0.09958 -0.17886,-0.13632 -0.27842,-0.08212c-0.09956,0.05422 -0.13632,0.17888 -0.0821,0.27843c0.05421,0.09955 0.17886,0.13631 0.27842,0.08211z"/><path d="M216.64382,215.63666c0.33379,-0.18177 0.51555,0.15202 0.51555,0.15202l-0.07108,-0.04663c0.17114,0.12191 0.30707,0.28623 0.41664,0.47157l0.01261,-0.01457l0.00962,0.00832l0.09374,-0.06388l0.26604,0.3903c0.00812,0.01163 0.01568,0.02379 0.02262,0.03653c0.1004,0.18435 0.03234,0.41517 -0.15202,0.51555c-0.10031,0.05462 -0.2144,0.05937 -0.31373,0.02263c-0.00247,0.00632 -0.00402,0.00975 -0.00402,0.00975c-0.24873,0.53995 -0.53652,1.05123 -0.81281,1.56947c0.28432,0.01051 0.56933,0.02671 0.85556,0.05016c0.78864,0.06458 1.64036,-0.1744 2.28786,0.29347c-0.04419,-0.0322 -0.15416,-0.11238 -0.20078,-0.14638l0.08703,-0.10372l-0.05073,-0.02463l0.17653,-0.36369c0.03318,-0.07059 0.08834,-0.13163 0.16209,-0.17181c0.18435,-0.10039 0.41517,-0.03231 0.51555,0.15205c0.01663,0.03054 0.02864,0.06235 0.03627,0.09463l0.09617,0.37099l-0.06563,0.01701c0.11219,0.31121 0.0826,0.57421 -0.1002,1.02103c0.01149,0.11074 -0.01726,0.25501 -0.19922,0.3541c-0.33379,0.18177 -0.51556,-0.15202 -0.51556,-0.15202l-0.03461,-0.38147c0.01911,-0.03957 0.0344,-0.07899 0.04707,-0.1179c-0.57595,-0.01474 -1.38142,-0.05696 -1.52391,-0.0611c-0.66289,-0.01923 -1.31824,-0.03558 -1.97239,-0.04482c-0.08185,0.17332 -0.15982,0.34927 -0.2322,0.52905c-0.13994,0.34756 -0.22925,0.7061 -0.33061,1.062c0.2597,0.01882 0.53602,0.08612 0.86988,0.23795l0.43175,0.12732c0.09329,0.0275 0.1761,0.09062 0.22629,0.18278c0.10038,0.18436 0.03233,0.41519 -0.15202,0.51556c-0.04171,0.0227 -0.08578,0.03679 -0.13017,0.04287l-0.74179,0.11922l-0.0048,-0.02984c-0.6044,0.19908 -1.12769,0.23741 -2.01036,0.10913l-0.18151,-0.04955c0,0 -0.36455,-0.10751 -0.25705,-0.47206c0.01047,-0.0355 0.02338,-0.06653 0.03816,-0.09362c-0.0099,-0.02975 -0.01715,-0.06318 -0.02104,-0.10071c-0.03939,-0.37802 0.33863,-0.41742 0.33863,-0.41742c0.30152,-0.03021 0.55619,-0.076 0.7911,-0.11349c0.15471,-0.4651 0.24486,-0.94577 0.42914,-1.40568c0.03383,-0.08444 0.06899,-0.1681 0.10526,-0.25107c-0.58601,-0.00219 -1.17325,0.00273 -1.76623,0.01784c-0.07294,0.34091 -0.21621,0.62755 -0.49103,0.69084c-1.27596,0.29385 -0.60726,-1.7809 -0.42618,-2.15475l0.16639,-0.2031c0,0 0.25919,-0.27801 0.53717,-0.01881c0.01603,0.01493 0.03024,0.02994 0.04285,0.04495c0.68526,-0.40953 1.39169,-0.78155 2.0951,-1.16306c-0.0296,0.06048 -0.06237,0.12086 -0.09838,0.18101c-0.05541,0.09258 -0.51869,0.87874 -0.60679,0.94027c-0.26152,0.1826 -0.823,0.19165 -1.36896,0.06881c0.01447,0.02028 0.02614,0.04051 0.03535,0.06054c0.16915,0.09983 0.17679,0.3181 0.17679,0.3181c0.00368,0.11211 0.01048,0.27925 0.00877,0.46926c0.69709,-0.02506 1.38755,-0.04794 2.07898,-0.04613c0.32371,-0.6224 0.67704,-1.22706 0.9679,-1.86942c0,0 0.01677,-0.0367 0.05135,-0.08071c-0.20847,-0.08379 -0.4087,-0.19046 -0.59863,-0.30909c0,0 -0.32099,-0.20351 -0.11747,-0.52451c0.13774,-0.21722 0.32926,-0.19422 0.43869,-0.15666c0.02966,-0.03402 0.06926,-0.0662 0.12149,-0.09462z"/></g></g></g><path d="M218.63936,204.55904l-16.67263,3.98858l-3.56995,-10.5802l0.25307,-1.57316l14.30377,-5.98351l6.84342,-0.40541l3.68894,3.82114l0.43185,5.34141l-1.55489,2.97759z" data-paper-data="{&quot;index&quot;:null}" fill="#949494" stroke="#000000" stroke-width="2.5" stroke-linecap="round"/><g><g stroke="#000000" stroke-width="2.5"><path d="M268.45761,177.88185c0,0 1.20394,-0.95622 1.58947,-2.0737c0.34483,-0.9995 0.61529,-4.31677 0.61529,-4.31677c0,0 -1.78598,-5.60762 0.51107,-8.07096c0.26075,-0.27963 6.45248,-5.97598 13.11455,-6.7775c4.76176,-0.57288 10.53238,3.40779 11.02774,4.24785c0.3829,0.64935 3.60316,3.67782 5.73259,7.59414c3.00097,5.51921 4.87308,11.82228 4.87308,11.82228l-9.87664,9.58682l-16.50958,-12.79883l-3.91387,6.27756z" fill="#949494" stroke-linecap="butt"/><path d="M300.82433,185.632l-8.77903,-10.02106l-0.61629,-4.66223l3.42964,-9.94074l6.6929,9.61916l3.94073,9.30529z" fill="#000000" stroke-linecap="round"/><path d="M289.66346,171.69033l1.31962,1.01148" fill="none" stroke-linecap="round"/><path d="M289.20507,174.63104l-1.74068,-1.6335" fill="none" stroke-linecap="round"/><path d="M285.45385,174.44922l0.98661,1.05551" fill="none" stroke-linecap="round"/><path d="M294.73443,188.88575c0,0 -9.6734,-7.91348 -15.11757,-11.37669c-1.3395,-0.85209 -1.37265,1.44173 -2.16169,0.85068c-6.99095,-5.23679 -6.46313,-7.41199 -6.50101,-8.69018c-0.0941,-3.17468 0.1674,-7.11968 0.6076,-7.51809c0.56603,-0.51231 3.01241,-0.85796 3.01241,-0.85796l2.18072,3.60566l3.17994,4.83158l3.80195,4.41053l7.77326,6.25742l3.80867,8.30624" fill="#373737" stroke-linecap="round"/><path d="M293.0619,190.51892l-2.19905,1.30719l-9.80295,-7.51387l-1.78471,-1.9665l0.69091,-2.46317l1.53302,-1.21915l1.80958,-0.40862l0.84212,1.24402l0.0756,1.8536l0.03158,1.52058z" fill="#000000" stroke-linecap="round"/><path d="M272.5294,179.20722l1.778,-1.92921" fill="none" stroke-linecap="round"/><path d="M271.39158,174.44451l6.35316,5.76747" fill="none" stroke-linecap="round"/><path d="M286.99157,159.1678l-2.24307,0.97418l-0.92344,1.98566l-1.67179,-3.67561l2.93397,-3.43735l4.95122,-0.99332l-0.02487,2.37513l-1.83444,2.78375z" fill="#151515" stroke-linecap="round"/><path d="M285.31626,162.5249l-2.92826,-1.64593l0.70334,-3.65074l1.62106,-0.55312l3.18566,-0.2517l1.65265,0.96745l0.3646,1.47656l0.2201,1.66508l-1.21244,2.36269z" fill="none" stroke-linecap="round"/></g><g fill="#00ff59" stroke="none" stroke-width="0.5" stroke-linecap="butt"><path d="M294.71364,177.19267c-0.2302,-0.55234 0.32214,-0.78255 0.32214,-0.78255l0.43402,-0.17043c1.34403,-0.29181 2.65472,-0.61868 4.01288,-0.72664c-0.99687,-1.5359 -2.20251,-2.93887 -3.14025,-4.51011c0,0 -0.306,-0.51424 0.20823,-0.82023c0.51424,-0.306 0.82023,0.20823 0.82023,0.20823c1.05451,1.77779 2.45658,3.33906 3.51769,5.11697l0.09176,0.1542c0.07508,0.07757 0.13317,0.18772 0.14575,0.34411c0.01836,0.11126 0.01276,0.24752 -0.06767,0.37609c-0.07171,0.13363 -0.18723,0.2061 -0.29294,0.24537c-0.14097,0.06621 -0.26465,0.07083 -0.36878,0.0448c-1.59812,-0.0103 -3.1183,0.39504 -4.67153,0.73646l-0.22897,0.10588c0,0 -0.55234,0.2302 -0.78254,-0.32214z"/><path d="M302.31843,172.63194c-0.53983,0.25819 -0.79802,-0.28165 -0.79802,-0.28165l-0.07469,-0.29592c-1.81962,-1.44761 -3.18319,-4.14028 -5.24356,-5.14483c0,0 -0.53425,-0.26955 -0.26469,-0.8038c0.26956,-0.53424 0.8038,-0.26469 0.8038,-0.26469c2.19716,1.13685 3.50526,3.73096 5.44939,5.27665l0.40941,0.71622c0,0 0.25819,0.53983 -0.28165,0.79802z"/></g></g><g data-paper-data="{&quot;index&quot;:null}"><g><path d="M275.85571,186.65066l-4.27229,4.12424l-3.46436,-3.58871l4.27229,-4.12424z" fill="#000000" stroke="none" stroke-width="0" stroke-linecap="butt"/><path d="M291.68988,161.28893c0,0 1.22242,-0.33751 1.50698,0.6597c0.74564,2.61309 3.13187,15.59755 3.13187,15.59755l-12.1212,12.74885c0,0 -3.58083,-6.4163 -5.25641,-8.84742c-0.65005,-0.94316 6.89915,-9.64316 6.69806,-10.40971c-0.20902,-0.79678 3.11566,0.97954 3.88914,0.74081c0.87334,-0.26955 -0.78276,-2.52643 -0.89338,-3.0515c-0.31169,-1.47942 -0.41658,-4.28156 -0.41658,-4.28156l3.46153,-3.15669z" fill="#949494" stroke="#000000" stroke-width="2.5" stroke-linecap="butt"/><path d="M283.62061,192.11788l-9.54249,-3.81532l-1.17156,-2.74198l0.31467,-2.56219l1.9935,-1.97477l3.30291,-0.45313z" fill="#242424" stroke="#000000" stroke-width="2.5" stroke-linecap="butt"/><path d="M280.80601,185.6714l-0.53794,2.05526l-1.94491,1.13798" fill="none" stroke="#000000" stroke-width="2.5" stroke-linecap="round"/><path d="M294.90281,172.50632l-5.96992,-0.68416" fill="none" stroke="#000000" stroke-width="2.5" stroke-linecap="round"/></g><g stroke="none" stroke-linecap="butt"><path d="M295.36128,176.25579l-10.40067,12.58444l-6.32405,-7.99382l2.66237,-1.95104l5.18312,-6.39049z" fill="#8c6200" stroke-width="NaN"/><path d="M287.39744,185.77941l-2.66922,2.87006l-5.72947,-7.93273l2.84961,-2.01387z" fill="#8c0081" stroke-width="NaN"/><path d="M295.65749,176.59913l-10.80292,-1.55632l1.49318,-2.61398l4.14812,-1.07652l-0.90608,-2.94613l-0.01581,-3.4668l0.79523,-1.1027l2.09934,-1.76726z" fill="#8c0081" stroke-width="0"/><g fill="#ffffff" stroke-width="0.5"><path d="M284.78558,183.06401c-0.0004,0.00022 -0.00079,0.00044 -0.00118,0.00067c-0.23867,0.13391 -0.3726,-0.10476 -0.3726,-0.10476c-0.64211,-1.17268 0.01548,-2.16896 1.11962,-2.28941c-0.04418,0.12241 0.06556,0.21685 0.06556,0.21685c0.74419,0.64056 1.4739,1.29314 2.25268,1.88793c-0.0194,0.4678 -0.15572,0.87685 -0.45671,1.02346c-0.42397,0.20653 -1.02214,0.10517 -1.44632,0.01508c-0.54243,-0.1617 -0.82124,-0.40456 -1.16105,-0.7498zM286.19726,183.07412c-0.07396,0.08591 -0.06426,0.2155 0.02166,0.28947c0.08591,0.07396 0.2155,0.06426 0.28947,-0.02166c0.07396,-0.08591 0.06426,-0.2155 -0.02166,-0.28947c-0.08591,-0.07396 -0.2155,-0.06426 -0.28947,0.02166zM285.19396,181.98487c-0.08591,-0.07396 -0.2155,-0.06426 -0.28947,0.02166c-0.07396,0.08591 -0.06426,0.2155 0.02166,0.28947c0.08591,0.07395 0.2155,0.06426 0.28947,-0.02166c0.07396,-0.08592 0.06426,-0.21552 -0.02166,-0.28947z"/><path d="M284.64669,180.0496c-0.28805,-0.24794 -0.04011,-0.536 -0.04011,-0.536l-0.01848,0.08297c0.05352,-0.20318 0.15912,-0.38845 0.29375,-0.55648l-0.01811,-0.00666l0.00438,-0.01193l-0.09291,-0.06508l0.27098,-0.38687c0.00798,-0.01171 0.01671,-0.02309 0.02617,-0.03407c0.13694,-0.15908 0.37691,-0.17706 0.536,-0.04011c0.08657,0.07451 0.13134,0.17955 0.13211,0.28544c0.00679,0.00009 0.01054,0.00034 0.01054,0.00034c0.59303,0.04171 1.17303,0.1301 1.7555,0.20527c-0.09071,-0.26966 -0.17634,-0.54199 -0.25565,-0.81801c-0.21849,-0.76052 -0.74324,-1.47267 -0.53458,-2.24379c-0.0145,0.0527 -0.05062,0.18393 -0.06592,0.23956l-0.1278,-0.04473l-0.0051,0.05618l-0.40261,-0.03651c-0.07776,-0.00609 -0.15436,-0.03608 -0.21801,-0.09086c-0.1591,-0.13694 -0.17706,-0.37691 -0.04011,-0.536c0.02269,-0.02635 0.0482,-0.04884 0.0757,-0.06738l0.31301,-0.22115l0.03912,0.05536c0.25141,-0.215 0.5079,-0.28031 0.99047,-0.26735c0.09953,-0.04991 0.24462,-0.07404 0.40167,0.06114c0.28806,0.24795 0.04011,0.536 0.04011,0.536l-0.34457,0.16728c-0.04376,-0.00388 -0.08605,-0.00426 -0.12693,-0.00233c0.1899,0.54395 0.43525,1.3123 0.48177,1.44704c0.21642,0.62685 0.43289,1.24563 0.65559,1.86079c0.19107,0.01526 0.38322,0.02597 0.57698,0.0301c0.3746,0.00798 0.74154,-0.03527 1.11029,-0.06633c-0.07424,-0.24957 -0.109,-0.53183 -0.08505,-0.89781l-0.0336,-0.44886c-0.00726,-0.097 0.0225,-0.19677 0.09095,-0.2763c0.13694,-0.1591 0.37691,-0.17706 0.536,-0.04011c0.03599,0.03098 0.06476,0.06722 0.08614,0.10661l0.37383,0.65169l-0.02621,0.01504c0.39998,0.49496 0.62086,0.97088 0.81302,1.84187l0.01785,0.18731c0,0 0.02836,0.37903 -0.35066,0.40738c-0.03692,0.00276 -0.07049,0.00166 -0.10106,-0.00258c-0.02434,0.01977 -0.05303,0.03837 -0.08675,0.0553c-0.33966,0.17053 -0.51019,-0.16913 -0.51019,-0.16913c-0.13488,-0.27136 -0.26779,-0.49337 -0.38594,-0.69985c-0.48976,0.01975 -0.97126,0.10544 -1.46661,0.0957c-0.09095,-0.00179 -0.18162,-0.00508 -0.27206,-0.00967c0.20519,0.54894 0.41746,1.09647 0.64128,1.64579c0.34467,-0.05232 0.66345,-0.01969 0.81984,0.21499c0.72608,1.0896 -1.45109,1.19781 -1.86479,1.16064l-0.24882,-0.08381c0,0 -0.3517,-0.14413 -0.20755,-0.49581c0.00831,-0.02027 0.0173,-0.03888 0.02688,-0.05598c-0.62539,-0.49615 -1.2232,-1.02537 -1.82881,-1.5484c0.06703,0.00629 0.13513,0.01559 0.2041,0.02799c0.10619,0.01909 1.00538,0.17441 1.09409,0.23506c0.26328,0.18005 0.47032,0.70205 0.54849,1.25618c0.01385,-0.0207 0.02865,-0.03877 0.04413,-0.05448c0.03355,-0.19354 0.23503,-0.27788 0.23503,-0.27788c0.10356,-0.04309 0.25751,-0.10858 0.43581,-0.17416c-0.26997,-0.64318 -0.53554,-1.28092 -0.77838,-1.92833c-0.69667,-0.08269 -1.38721,-0.19936 -2.09091,-0.24425c0,0 -0.04026,-0.00271 -0.09366,-0.01948c-0.00466,0.22463 -0.03363,0.44965 -0.07742,0.66926c0,0 -0.07684,0.37223 -0.44907,0.29538c-0.2519,-0.052 -0.29813,-0.23929 -0.30169,-0.35494c-0.04231,-0.01571 -0.08641,-0.04138 -0.13148,-0.08019z"/></g></g></g></g></g></svg>