<svg version="1.1" xmlns="http://www.w3.org/2000/svg" xmlns:xlink="http://www.w3.org/1999/xlink" width="99.77728" height="38.55925" viewBox="0,0,99.77728,38.55925"><g transform="translate(-208.39812,-192.70254)"><g data-paper-data="{&quot;isPaintingLayer&quot;:true}" fill-rule="nonzero" stroke-width="1.5" stroke-linejoin="miter" stroke-miterlimit="10" stroke-dasharray="" stroke-dashoffset="0" style="mix-blend-mode: normal"><path d="M241.75584,203.95888l2.29882,22.90972l-25.12562,2.90967c0,0 -5.21361,-6.67684 -0.90917,-10.79554c2.28972,-2.19092 15.57486,-1.97965 15.43039,-3.36208c-0.08585,-0.82156 -13.55539,2.59706 -14.60209,1.67863c-4.4129,-3.87212 -2.5177,-12.38774 -2.5177,-12.38774z" data-paper-data="{&quot;index&quot;:null}" fill="#920000" stroke="#920000" stroke-linecap="butt"/><path d="M241.62295,202.11388c0,0 2.67074,0.78585 5.12863,0.64808c5.33801,-0.2992 25.65234,-2.37343 25.65234,-2.37343c0,0 2.46623,5.93217 2.80267,9.15173c0.41865,4.00624 -0.48305,13.0457 -0.48305,13.0457c0,0 -18.64391,1.59676 -24.25398,2.35304c-3.44249,0.46407 -6.20717,1.75331 -6.20717,1.75331z" data-paper-data="{&quot;index&quot;:null}" fill="#fa0000" stroke="#7e0000" stroke-linecap="butt"/><path d="M287.25412,193.78225c8.9229,-0.93244 16.91225,5.5451 17.84469,14.46802c0.93244,8.92291 -5.5451,16.91225 -14.46802,17.84469c-8.92291,0.93244 -16.91225,-5.5451 -17.84469,-14.46802c-0.93244,-8.92291 5.5451,-16.91225 14.46802,-17.84469z" data-paper-data="{&quot;index&quot;:null}" fill="#b2936b" stroke="#856e50" stroke-linecap="butt"/><path d="M280.17649,197.2677c0,0 2.28652,6.65419 2.44728,9.16611c0.13333,2.08319 -5.54952,8.73634 -5.54952,8.73634" data-paper-data="{&quot;index&quot;:null}" fill="none" stroke="#000000" stroke-linecap="round"/><path d="M294.1607,193.45254c0,0 11.96834,1.14176 12.84398,8.89669c2.83044,25.06719 -9.54752,21.94734 -9.54752,21.94734c0,0 -3.6397,-2.17817 -4.09932,-5.36568c-0.22879,-1.58672 2.97314,-3.44334 2.55369,-5.36661c-0.24401,-1.11887 -2.89422,-2.67779 -2.99679,-3.79203c-0.30287,-3.29034 2.83367,-6.07219 2.45698,-8.37982c-0.12865,-0.78811 -3.00911,-1.46398 -3.06727,-2.00817c-0.2892,-2.70599 1.85626,-5.93173 1.85626,-5.93173z" data-paper-data="{&quot;index&quot;:null}" fill="#000000" stroke="#000000" stroke-linecap="butt"/><path d="M246.51248,202.98206c0,0 -2.58355,3.0692 -2.83728,2.78462c-0.2256,-0.25303 -2.08507,-0.28189 -2.08507,-0.28189c0,0 0.32742,-2.31461 -0.10099,-2.23098c-0.57289,0.11183 0.44376,-1.28444 0.44376,-1.28444c0,0 -1.08575,-2.53583 -1.09453,-3.64277c-0.01173,-1.47961 1.0304,-4.4459 1.0304,-4.4459c0,0 11.16772,0.32057 16.6222,1.58149c3.34538,0.77335 12.99519,5.26518 12.99519,5.26518z" data-paper-data="{&quot;index&quot;:null}" fill="#fa0000" stroke="#7e0000" stroke-linecap="round"/><path d="M272.88344,222.35958c0,0 -10.61155,0.83098 -14.01604,0.38479c-5.55087,-0.72754 -16.12466,-4.33522 -16.12466,-4.33522c0,0 0.06176,-3.14341 0.59054,-4.52537c0.39557,-1.03388 2.30006,-3.02943 2.30006,-3.02943c0,0 -0.46376,-1.66375 0.03377,-1.35851c0.37206,0.22825 0.87532,-2.05458 0.87532,-2.05458c0,0 1.75199,0.62366 2.05188,0.46557c0.33727,-0.1778 1.68345,3.60142 1.68345,3.60142z" data-paper-data="{&quot;index&quot;:null}" fill="#fa0000" stroke="#7e0000" stroke-linecap="round"/><path d="M217.31446,210.80892c-0.0507,4.02897 -3.04874,3.82475 -4.89506,4.01769c-2.21517,0.23148 -2.72869,-1.36478 -3.27128,-6.55697c-0.54258,-5.1922 -0.61286,-8.57154 1.6023,-8.80303c1.06008,-0.11078 1.29182,0.27462 2.03112,1.95195c0.42871,0.97268 1.35461,1.44315 1.8412,2.77905c0.4277,1.17424 2.29514,2.65515 2.42749,3.92167c0.09035,0.86456 0.27434,1.88475 0.26421,2.68965z" data-paper-data="{&quot;index&quot;:null}" fill="#935300" stroke="#603600" stroke-linecap="butt"/><path d="M219.07962,226.47253c-0.0507,4.02898 -3.04874,3.82476 -4.89506,4.0177c-2.21517,0.23148 -2.72869,-1.36478 -3.27128,-6.55697c-0.54258,-5.1922 -0.61286,-8.57154 1.6023,-8.80303c1.06008,-0.11078 1.29183,0.27462 2.03113,1.95195c0.42872,0.97267 1.35461,1.44313 1.8412,2.77904c0.42771,1.17425 2.29515,2.65516 2.4275,3.92168c0.09035,0.86456 0.27433,1.88473 0.26421,2.68964z" data-paper-data="{&quot;index&quot;:null}" fill="#935300" stroke="#603600" stroke-linecap="butt"/><path d="M240.64313,206.55599c-0.99901,0.1044 -1.93359,-1.00445 -2.08744,-2.47668c-0.15385,-1.47223 0.53129,-2.75033 1.5303,-2.85473c0.99901,-0.1044 1.93359,1.00445 2.08744,2.47668c0.15385,1.47222 -0.53129,2.75033 -1.5303,2.85473z" data-paper-data="{&quot;index&quot;:null}" fill="#b2936b" stroke="#856e50" stroke-linecap="butt"/><path d="M248.37717,210.18784c-0.99902,0.1044 -1.9336,-1.00445 -2.08745,-2.47668c-0.15385,-1.47223 0.53129,-2.75033 1.53031,-2.85473c0.99901,-0.1044 1.93359,1.00445 2.08744,2.47668c0.15385,1.47223 -0.53128,2.75033 -1.5303,2.85473z" data-paper-data="{&quot;index&quot;:null}" fill="#b2936b" stroke="#856e50" stroke-linecap="butt"/><path d="M292.03368,196.45656l-4.875,4.875l-4.75,-4.75" fill="none" stroke="#000000" stroke-linecap="round"/><path d="M284.65869,213.95657l4.75,-4.75l4.875,4.875" data-paper-data="{&quot;index&quot;:null}" fill="none" stroke="#000000" stroke-linecap="round"/></g></g></svg>