<svg version="1.1" xmlns="http://www.w3.org/2000/svg" xmlns:xlink="http://www.w3.org/1999/xlink" width="107.82225" height="105.28066" viewBox="0,0,107.82225,105.28066"><g transform="translate(-186.38598,-127.72829)"><g data-paper-data="{&quot;isPaintingLayer&quot;:true}" fill-rule="nonzero" stroke-linejoin="miter" stroke-miterlimit="10" stroke-dasharray="" stroke-dashoffset="0" style="mix-blend-mode: normal"><g data-paper-data="{&quot;index&quot;:null}" fill="#949494" stroke="#000000" stroke-width="2"><path d="M216.57297,199.59283c0,0 -4.77607,-3.84424 -7.20167,-11.09865c-1.80229,-5.39023 -1.56217,-13.51433 -1.04569,-18.83477c0.35381,-3.64469 0.17578,-3.93963 0.96648,-6.59672c1.68228,-5.65317 4.65764,-2.3934 7.77886,-2.9894c1.62538,-0.31037 6.6278,2.9405 6.6278,2.9405c0,0 -3.50116,0.1644 7.24001,0.23325c0.43887,0.00281 21.54091,-0.47078 21.97571,-0.47078c4.50321,0 17.33941,-2.13774 17.33941,-2.13774c0,0 2.3067,5.03894 4.48262,9.71385c0.81143,1.74334 1.60468,3.23156 2.25333,4.68416c1.80083,4.0328 1.5651,4.21851 2.69679,6.62759c3.14827,6.70185 -3.49459,18.64127 -3.49459,18.64127z" stroke-linecap="butt"/><path d="M235.75206,163.9019l-0.23753,1.66268c0,0 5.59476,0.64202 8.13973,0.93407c2.24772,0.25793 6.34937,0.72861 6.34937,0.72861l3.32537,-4.27547l-4.03795,4.98805c0,0 -4.77616,8.7766 -5.1374,13.07136c-0.35105,9.37354 8.79967,18.34394 8.79967,18.34394" stroke-linecap="round"/><path d="M223.63823,170.55263c0,0 6.23973,0.3504 8.00911,2.72298c0.94897,1.27248 3.37102,8.06752 2.58871,13.45012c-0.28402,1.95419 -3.97754,10.0884 -8.46709,10.60669c-1.65559,0.19113 -7.33431,-1.22586 -10.76089,-4.83995c-2.77692,-2.92887 -3.58557,-7.70834 -3.45338,-11.01242c0.13327,-3.33107 3.05358,-6.77484 6.30116,-8.77418c2.66459,-1.64043 5.78238,-2.15324 5.78238,-2.15324" stroke-linecap="round"/><path d="M273.75624,183.61657c0,6.42792 -4.945,12.82642 -11.04497,12.82642c-6.09997,0 -11.75755,-6.16096 -11.75755,-12.58889c0,-6.42793 3.9949,-11.16373 10.09486,-11.16373c1.43888,0 4.23865,1.00251 5.49925,1.52997c4.08361,1.70863 7.2084,4.48455 7.2084,9.39624z" stroke-linecap="butt"/></g><g data-paper-data="{&quot;index&quot;:null}" stroke="#000000" stroke-width="2" stroke-linecap="round"><path d="M293.20824,155.68867c0,0 -6.88833,5.85628 -10.49769,7.34981c-2.05913,0.85206 -7.18156,1.9047 -9.77452,1.34734c-0.38442,-0.08263 -1.58103,-1.22173 -0.73406,-2.79699c0.72948,-1.35674 3.28154,-3.09837 5.58793,-4.05c5.36241,-2.21257 15.18081,-1.85015 15.18081,-1.85015" fill="#d8d8d8"/><path d="M277.53152,164.23962l-1.66268,-5.93816" fill="none"/></g><path d="M214.62296,202.73271c0,0 -0.35857,-9.20329 -0.49009,-12.57905c-0.08862,-2.27449 -0.22249,-5.71047 -0.22249,-5.71047c0,0 1.22509,-4.18919 1.71137,-4.38239c1.11372,-0.44248 3.09823,-2.76772 5.66353,-2.33741c2.0486,0.34365 5.13677,2.6973 6.09158,3.27646c1.68187,1.02015 1.7352,6.53118 1.7352,6.53118l-1.18763,15.20168z" data-paper-data="{&quot;index&quot;:null}" fill="#949494" stroke="#000000" stroke-width="2.5" stroke-linecap="butt"/><g data-paper-data="{&quot;index&quot;:null}"><g><path d="M266.09955,205.46229l-3.15488,-5.03075l4.22583,-2.6501l3.15488,5.03075z" data-paper-data="{&quot;index&quot;:null}" fill="#000000" stroke="none" stroke-width="0" stroke-linecap="butt"/><path d="M271.50431,209.93528l7.36331,7.83837l-0.23753,9.73857l-2.85031,2.37526l-1.42516,0.9501l-9.9761,0.47505l-3.80042,-1.18763l1.42516,-2.13774l1.42516,-0.9501l1.90021,-1.90021l3.32537,-0.71258l-3.80042,-2.37526l-1.42516,-4.513l-2.13774,-4.513z" fill="#949494" stroke="#000000" stroke-width="2.5" stroke-linecap="round"/><path d="M261.29069,213.02312l-0.71258,-1.90021l2.37526,-4.98805l3.32537,-3.80042h3.56289l2.37526,2.13774l-0.47505,4.513z" fill="#242424" stroke="#000000" stroke-width="2.5" stroke-linecap="round"/><path d="M267.22883,211.12291l-3.56289,-3.08784l0.23753,-2.61279" fill="none" stroke="#000000" stroke-width="2.5" stroke-linecap="round"/></g><g stroke="none" stroke-linecap="butt"><path d="M270.41461,224.70417l-4.99894,-3.51524l-2.56639,-7.74899l7.36026,-2.63241l8.50086,8.29021l-0.54493,5.77164z" fill="#8c6200" stroke-width="NaN"/><path d="M263.89919,216.14224l-1.36687,-2.82857l7.06851,-2.779l4.99187,2.07857z" fill="#8c0081" stroke-width="NaN"/><path d="M261.3125,229.58845l1.29651,-2.41859l0.91506,-1.00548l3.39558,-0.69924l3.06964,-1.34575l7.32322,-0.03095l-1.125,5.625l-11.25551,1.28042z" fill="#8c0081" stroke-width="0"/><g fill="#ffffff" stroke-width="0.5"><path d="M268.53282,214.9385c0.38414,-0.29513 0.69376,-0.49725 1.25329,-0.58268c0.43255,-0.03079 1.03897,-0.04876 1.43044,0.21421c0.2779,0.18669 0.35657,0.61061 0.31134,1.07663c-0.8533,0.48181 -1.66598,1.02761 -2.49132,1.55953c0,0 -0.12169,0.07842 -0.0948,0.20575c-1.077,-0.27143 -1.59106,-1.34882 -0.7935,-2.42184c0,0 0.16553,-0.21794 0.38347,-0.05242c0.00036,0.00027 0.00073,0.00055 0.00109,0.00082zM270.21614,215.18434c0.09528,-0.06141 0.12275,-0.18844 0.06134,-0.28372c-0.06141,-0.09528 -0.18843,-0.12275 -0.28372,-0.06134c-0.09528,0.06141 -0.12275,0.18844 -0.06134,0.28373c0.06141,0.09528 0.18844,0.12275 0.28372,0.06134zM268.78861,216.06365c0.09528,-0.06141 0.12275,-0.18844 0.06134,-0.28372c-0.06141,-0.09528 -0.18844,-0.12275 -0.28373,-0.06134c-0.09528,0.06141 -0.12275,0.18843 -0.06133,0.28372c0.06141,0.09528 0.18843,0.12276 0.28372,0.06135z"/><path d="M267.97995,217.90506c0.04998,-0.03222 0.09719,-0.05157 0.14127,-0.0613c0.01947,-0.11405 0.09106,-0.29318 0.34772,-0.30999c0.37926,-0.02483 0.40409,0.35443 0.40409,0.35443c0.01312,0.22355 0.0108,0.45041 -0.01554,0.67354c0.0552,-0.00925 0.09545,-0.00639 0.09545,-0.00639c0.70318,0.05248 1.40321,0.03207 2.10462,0.04617c0.32972,-0.60777 0.68063,-1.20284 1.03664,-1.80269c-0.16758,-0.08954 -0.31104,-0.1756 -0.40767,-0.23254c0,0 -0.18793,-0.11129 -0.1945,-0.3076c-0.01317,-0.01769 -0.02534,-0.03762 -0.0362,-0.06004c-0.15377,0.53807 -0.43075,1.02657 -0.71633,1.16862c-0.09621,0.04786 -1.00824,0.0778 -1.11604,0.08208c-0.07004,0.00278 -0.13874,0.0026 -0.20601,-0.00039c0.6719,-0.43461 1.33693,-0.87641 2.02472,-1.28166c-0.00713,-0.01826 -0.01348,-0.03793 -0.01891,-0.05915c-0.09431,-0.36819 0.27389,-0.46249 0.27389,-0.46249l0.25799,-0.04873c0.4149,0.0202 2.55638,0.42736 1.68709,1.40652c-0.18723,0.21089 -0.50748,0.1993 -0.84165,0.09998c-0.29739,0.51325 -0.58308,1.02632 -0.86194,1.54174c0.09021,0.00792 0.18048,0.01714 0.27081,0.02791c0.49198,0.05861 0.95707,0.2098 1.43944,0.29686c0.14547,-0.18823 0.3077,-0.38981 0.47868,-0.63999c0,0 0.21571,-0.31292 0.52864,-0.09722c0.03107,0.02141 0.05693,0.04379 0.07831,0.06673c0.03085,0.00001 0.06428,0.00355 0.10046,0.01137c0.37149,0.08032 0.29118,0.45181 0.29118,0.45181l-0.04349,0.18306c-0.31033,0.83621 -0.5947,1.27716 -1.05904,1.71228l0.02389,0.01851l-0.46006,0.59397c-0.02661,0.03607 -0.06009,0.068 -0.1,0.09373c-0.17644,0.11372 -0.41165,0.06286 -0.52537,-0.11359c-0.05685,-0.08822 -0.07257,-0.19114 -0.05201,-0.2862l0.09512,-0.43995c0.0267,-0.36578 0.10003,-0.64057 0.20795,-0.87753c-0.36095,-0.08157 -0.71845,-0.17496 -1.09057,-0.21867c-0.19248,-0.02261 -0.38427,-0.03847 -0.57562,-0.04968c-0.30533,0.57861 -0.60499,1.16166 -0.90573,1.75271c-0.06464,0.12704 -0.41352,0.85426 -0.67655,1.36685c0.04022,0.00753 0.08216,0.01299 0.12604,0.01518l0.31824,0.21316c0,0 0.20589,0.31948 -0.11359,0.52537c-0.17416,0.11224 -0.31456,0.06835 -0.40626,0.0052c-0.47976,-0.05364 -0.72479,-0.15368 -0.94419,-0.40127l-0.04638,0.04945l-0.27954,-0.26217c-0.02468,-0.02215 -0.04685,-0.04794 -0.06568,-0.07717c-0.11372,-0.17644 -0.06287,-0.41165 0.11357,-0.52537c0.0706,-0.04549 0.1506,-0.06465 0.22846,-0.05996l0.4038,0.01931l-0.00269,0.05634l0.13274,-0.02669c0.0075,0.05721 0.02518,0.19216 0.03228,0.24637c-0.10042,-0.79251 0.51744,-1.42558 0.83864,-2.14874c0.11657,-0.26246 0.2389,-0.52039 0.36591,-0.77498c-0.58728,-0.00581 -1.17393,0.00182 -1.76704,-0.03858c0,0 -0.00376,-0.00027 -0.01049,-0.00113c-0.01536,0.10478 -0.07418,0.20265 -0.17019,0.26452c-0.17644,0.11372 -0.41165,0.06286 -0.52536,-0.11359c-0.00786,-0.01219 -0.01493,-0.02466 -0.02123,-0.03736l-0.2151,-0.42052l0.10098,-0.05166l-0.0027,-0.01242l0.01884,-0.00409c-0.11019,-0.18498 -0.18927,-0.38302 -0.21428,-0.59165l0.00687,0.08473c0,0 -0.20589,-0.31947 0.11359,-0.52536z"/></g></g></g><path d="M255.60244,180.17366l2.37526,-2.37526l5.22558,-1.18763l4.75052,2.37526l1.66268,6.65073l-1.42516,15.4392l-1.42516,0.71258l-11.16373,-0.23753l-1.18763,-17.10189z" data-paper-data="{&quot;index&quot;:null}" fill="#949494" stroke="#000000" stroke-width="2.5" stroke-linecap="round"/><g data-paper-data="{&quot;index&quot;:null}"><g><path d="M210.46498,206.98972l3.15488,-5.03075l4.22583,2.6501l-3.15488,5.03075z" fill="#000000" stroke="none" stroke-width="0" stroke-linecap="butt"/><path d="M193.13824,230.3624l2.37526,-4.03795c0,0 2.76357,-0.47505 4.27547,-0.47505c0.5366,0 3.08642,1.15524 3.17013,0.2451c0.07415,-0.80608 -2.34942,-3.69314 -1.52667,-3.65287c0.79154,0.03874 7.74832,-9.14186 8.80524,-8.70022c2.72433,1.13838 9.74102,3.31952 9.74102,3.31952l-9.9761,14.4891c0,0 -13.19749,0.34187 -15.90816,0.15097c-1.03445,-0.07285 -0.9562,-1.3386 -0.9562,-1.3386z" fill="#949494" stroke="#000000" stroke-width="2.5" stroke-linecap="butt"/><path d="M209.29002,213.49804l-0.23753,-3.32537l1.52138,-2.35779l2.44228,-0.83612l2.9246,0.58112l5.70063,8.55094z" fill="#242424" stroke="#000000" stroke-width="2.5" stroke-linecap="butt"/><path d="M217.36592,211.59783l-0.71258,2.13774l-1.90021,0.9501" fill="none" stroke="#000000" stroke-width="2.5" stroke-linecap="round"/><path d="M202.87682,225.49311l1.90021,5.70063" fill="none" stroke="#000000" stroke-width="2.5" stroke-linecap="round"/></g><g stroke="none" stroke-linecap="butt"><path d="M203.03961,222.95417l5.18466,-6.38923l1.36026,-3.00741l9.12586,4.54021l-10.16992,12.77164z" fill="#8c6200" stroke-width="NaN"/><path d="M208.14919,217.14224l1.38313,-3.20357l8.94351,3.971l-2.25813,3.20357z" fill="#8c0081" stroke-width="NaN"/><path d="M194.0625,230.96345l1.2965,-2.41859l0.91506,-1.00548l3.39558,-0.69924l3.06964,0.27925l0.19822,-4.28095l2.25,-2l3.75,10.25z" fill="#8c0081" stroke-width="0"/><g fill="#ffffff" stroke-width="0.5"><path d="M213.02219,219.11729c0.40788,0.26133 0.703,0.48409 0.97306,0.98153c0.1756,0.39649 0.3981,0.96092 0.28341,1.41836c-0.08141,0.32474 -0.45357,0.54246 -0.90732,0.65789c-0.74256,-0.63943 -1.53155,-1.21894 -2.31177,-1.81508c0,0 -0.11504,-0.0879 -0.22571,-0.01944c-0.10977,-1.10524 0.72955,-1.9541 2.00941,-1.56755c0,0 0.26116,0.08184 0.17932,0.34299c-0.00014,0.00044 -0.00027,0.00087 -0.00041,0.0013zM213.36158,220.78427c0.09008,0.06883 0.21889,0.0516 0.28771,-0.03848c0.06883,-0.09008 0.0516,-0.21889 -0.03848,-0.28771c-0.09008,-0.06883 -0.21889,-0.0516 -0.28771,0.03848c-0.06883,0.09008 -0.0516,0.21889 0.03848,0.28771zM212.05039,219.73938c0.09008,0.06883 0.21889,0.0516 0.28772,-0.03848c0.06883,-0.09008 0.05159,-0.21889 -0.03848,-0.28771c-0.09008,-0.06883 -0.21889,-0.0516 -0.28771,0.03848c-0.06883,0.09008 -0.0516,0.21889 0.03848,0.28771z"/><path d="M210.04388,219.60287c0.04726,0.0361 0.08147,0.07396 0.10556,0.11212c0.1139,-0.02035 0.30669,-0.01373 0.40951,0.22204c0.15194,0.34839 -0.19645,0.50032 -0.19645,0.50032c-0.20586,0.08812 -0.42007,0.16286 -0.63892,0.21373c0.02742,0.0488 0.03837,0.08763 0.03837,0.08763c0.18901,0.67933 0.44554,1.33098 0.67007,1.99564c0.68356,0.10415 1.36235,0.23254 2.04737,0.36411c0.02742,-0.18801 0.05976,-0.35215 0.08057,-0.46236c0,0 0.04099,-0.21453 0.22345,-0.28727c0.01218,-0.01838 0.0268,-0.03659 0.04421,-0.05441c-0.55834,0.03775 -1.11181,-0.05722 -1.34227,-0.27773c-0.07764,-0.07429 -0.415,-0.92215 -0.45557,-1.02212c-0.02636,-0.06494 -0.04949,-0.12965 -0.06947,-0.19395c0.63665,0.48478 1.27775,0.96064 1.89217,1.47031c0.01476,-0.01289 0.03111,-0.02553 0.04923,-0.03784c0.31441,-0.21354 0.52795,0.10088 0.52795,0.10088l0.13331,0.22619c0.12166,0.39717 0.46461,2.54987 -0.75127,2.06402c-0.26188,-0.10465 -0.35954,-0.40986 -0.37939,-0.75791c-0.58367,-0.10577 -1.16321,-0.20061 -1.74265,-0.28822c0.02313,0.08756 0.04505,0.1756 0.06555,0.26423c0.11166,0.48271 0.12708,0.97153 0.20871,1.45484c0.2264,0.07305 0.47104,0.15733 0.76438,0.23337c0,0 0.36752,0.09685 0.27068,0.46437c-0.00961,0.03649 -0.0219,0.06841 -0.03623,0.09629c0.01045,0.02903 0.01845,0.06167 0.02336,0.09836c0.05039,0.37672 -0.32634,0.42711 -0.32634,0.42711l-0.18697,0.02115c-0.89189,-0.00847 -1.40313,-0.1265 -1.96991,-0.41584l-0.00931,0.02875l-0.71476,-0.23145c-0.04295,-0.0128 -0.08435,-0.03348 -0.12208,-0.06231c-0.1668,-0.12744 -0.19869,-0.36596 -0.07125,-0.53276c0.06372,-0.08339 0.15521,-0.13307 0.25162,-0.14596l0.44614,-0.05966c0.35317,-0.09889 0.63654,-0.12306 0.89606,-0.10187c-0.04563,-0.36723 -0.07896,-0.73522 -0.16399,-1.10012c-0.04398,-0.18874 -0.09408,-0.37456 -0.1484,-0.55838c-0.64785,-0.09109 -1.29797,-0.17534 -1.95597,-0.25789c-0.14143,-0.01774 -0.94386,-0.09942 -1.51527,-0.1731c0.00654,0.04039 0.01563,0.0817 0.02845,0.12372l-0.09265,0.37166c0,0 -0.23075,0.302 -0.53276,0.07125c-0.16464,-0.1258 -0.17095,-0.27276 -0.14263,-0.38044c-0.11218,-0.46953 -0.10114,-0.73397 0.05741,-1.02431l-0.06224,-0.02687l0.15187,-0.35187c0.01247,-0.03073 0.02922,-0.06033 0.05033,-0.08796c0.12744,-0.1668 0.36596,-0.19869 0.53276,-0.07125c0.06673,0.05099 0.11187,0.11976 0.13386,0.1946l0.11873,0.38644l-0.05392,0.01657l0.07011,0.11583c-0.05128,0.02644 -0.17225,0.08883 -0.22083,0.11389c0.71153,-0.36315 1.51658,0.00351 2.3058,0.06052c0.28644,0.02069 0.57056,0.04834 0.85314,0.08151c-0.19363,-0.55447 -0.3997,-1.10379 -0.56277,-1.67548c0,0 -0.00102,-0.00362 -0.0025,-0.01025c-0.10378,0.02107 -0.21579,-0.00108 -0.30655,-0.07043c-0.1668,-0.12744 -0.19869,-0.36597 -0.07125,-0.53276c0.0088,-0.01153 0.01814,-0.02241 0.02795,-0.03264l0.3227,-0.34493l0.08284,0.07749l0.01077,-0.00675l0.01024,0.01635c0.13667,-0.16638 0.29618,-0.30792 0.48397,-0.40217l-0.07739,0.03519c0,0 0.23076,-0.302 0.53276,-0.07125z"/></g></g></g><g data-paper-data="{&quot;index&quot;:null}"><g stroke="#000000" stroke-width="2.5"><path d="M209.91647,161.77797l0.71258,-7.36331l-20.88931,0.1146l-2.00675,-13.6172c0,0 5.32027,-3.8637 11.05964,-6.41853c4.07255,-1.81286 8.47073,-2.25745 9.16966,-2.53989c0.9042,-0.36539 7.90581,-0.01423 11.33658,3.33724c4.79992,4.68897 6.24879,12.97671 6.28563,13.35727c0.32455,3.35249 -4.50429,6.71662 -4.50429,6.71662c0,0 -1.80338,2.79737 -2.13774,3.80042c-0.37382,1.12145 0,2.61279 0,2.61279z" fill="#949494" stroke-linecap="butt"/><path d="M188.30158,140.87566l8.78847,-4.98805l11.16373,-3.56289l-3.32537,9.9761l-3.32537,3.32537l-13.06394,2.61279z" fill="#000000" stroke-linecap="round"/><path d="M205.87852,143.9635h-1.66268" fill="none" stroke-linecap="round"/><path d="M206.82862,146.33879l-2.37526,0.23753" fill="none" stroke-linecap="round"/><path d="M207.54121,148.71405l-1.42516,0.23753" fill="none" stroke-linecap="round"/><path d="M191.03937,154.02721l8.07589,-4.27547l9.9761,-0.23753l5.70063,-1.18763l5.4631,-1.90021l3.92426,-1.53509c0,0 1.73134,1.76258 1.86893,2.51352c0.107,0.58399 -2.08537,3.87413 -4.09135,6.33654c-0.80765,0.99142 -1.712,3.03892 -10.4463,2.94232c-0.9858,-0.0109 0.38332,-1.85162 -1.19817,-1.99021c-6.42772,-0.56327 -18.91936,-0.1673 -18.91936,-0.1673" fill="#373737" stroke-linecap="round"/><path d="M203.36578,156.12726l0.9501,-1.18763l1.18763,-1.42516l1.42516,-0.47505l1.18763,1.42516l0.47505,1.90021l-0.9501,2.37526l-2.61279,0.47505h-12.35136l-0.9501,-2.37526z" fill="#000000" stroke-linecap="round"/><path d="M214.90452,160.35284l-0.23753,-2.61279" fill="none" stroke-linecap="round"/><path d="M218.70494,157.26499l-8.55094,0.71258" fill="none" stroke-linecap="round"/><path d="M214.66699,134.93754l0.23753,-3.32537l1.42516,-1.90021l3.32537,3.80042l0.23753,4.513l-3.56289,1.90021l0.47505,-2.13774l-1.18763,-2.13774z" fill="#151515" stroke-linecap="round"/><path d="M211.81668,137.43349l0.47505,-2.61279l1.18763,-1.18763l1.18763,-0.9501l1.90021,0.23753l2.37526,2.13774l0.9501,1.42516l-1.66268,3.32537l-3.32537,-0.47505z" fill="none" stroke-linecap="round"/></g><path d="M198.18163,140.77255c0.41037,1.80946 -0.82546,3.63204 -2.7603,4.07085c-1.93485,0.43881 -3.83601,-0.67233 -4.24638,-2.48179c-0.41037,-1.80946 0.19171,-3.31533 2.7603,-4.07085c2.6458,-0.77822 3.83601,0.67233 4.24638,2.48179z" fill="#54ff00" stroke="none" stroke-width="0" stroke-linecap="butt"/><path d="M203.53957,140.39388c-0.99388,-0.11043 -0.88345,-1.10432 -0.88345,-1.10432l0.16541,-0.41818c-0.48006,-1.20305 -0.83865,-2.16878 -1.83589,-3.02398c0,0 -0.74741,-0.66436 -0.08305,-1.41177c0.66436,-0.74741 1.41177,-0.08305 1.41177,-0.08305c1.21153,1.10533 1.7583,2.26488 2.36411,3.77602l-0.03459,1.38182c0,0 -0.11043,0.99388 -1.10432,0.88345z" fill="#54ff00" stroke="none" stroke-width="0.5" stroke-linecap="butt"/></g></g></g></svg>