<svg version="1.1" xmlns="http://www.w3.org/2000/svg" xmlns:xlink="http://www.w3.org/1999/xlink" width="134.69992" height="90.03853" viewBox="0,0,134.69992,90.03853"><g transform="translate(-172.32878,-126.76378)"><g data-paper-data="{&quot;isPaintingLayer&quot;:true}" fill-rule="nonzero" stroke-linejoin="miter" stroke-miterlimit="10" stroke-dasharray="" stroke-dashoffset="0" style="mix-blend-mode: normal"><g data-paper-data="{&quot;index&quot;:null}" fill="#949494" stroke="#000000" stroke-width="2"><path d="M204.7492,200.30539c0,0 -6.64286,-11.93942 -3.49459,-18.64127c1.13169,-2.40908 0.89596,-2.59479 2.69679,-6.62759c0.64865,-1.4526 1.4419,-2.94082 2.25333,-4.68416c2.17592,-4.67491 4.48262,-9.71385 4.48262,-9.71385c0,0 12.8362,2.13774 17.33941,2.13774c0.4348,0 21.53684,0.47359 21.97571,0.47078c10.74117,-0.06885 7.24001,-0.23325 7.24001,-0.23325c0,0 5.00242,-3.25087 6.6278,-2.9405c3.12122,0.596 6.09658,-2.66377 7.77886,2.9894c0.7907,2.65709 0.61267,2.95203 0.96648,6.59672c0.51648,5.32044 0.7566,13.44454 -1.04569,18.83477c-2.4256,7.25441 -7.20167,11.09865 -7.20167,11.09865z" stroke-linecap="butt"/><path d="M227.98791,199.35514c0,0 9.15072,-8.9704 8.79967,-18.34394c-0.36124,-4.29476 -5.1374,-13.07136 -5.1374,-13.07136l-4.03795,-4.98805l3.32537,4.27547c0,0 4.10165,-0.47068 6.34937,-0.72861c2.54497,-0.29205 8.13973,-0.93407 8.13973,-0.93407l-0.23753,-1.66268" stroke-linecap="round"/><path d="M257.303,170.55263c0,0 3.11779,0.51281 5.78238,2.15324c3.24758,1.99934 6.16789,5.44311 6.30116,8.77418c0.13219,3.30408 -0.67646,8.08355 -3.45338,11.01242c-3.42658,3.61409 -9.1053,5.03108 -10.76089,4.83995c-4.48955,-0.51829 -8.18307,-8.6525 -8.46709,-10.60669c-0.78231,-5.3826 1.63974,-12.17764 2.58871,-13.45012c1.76938,-2.37258 8.00911,-2.72298 8.00911,-2.72298" stroke-linecap="round"/><path d="M207.185,183.61658c0,-4.91169 3.12479,-7.68761 7.2084,-9.39624c1.2606,-0.52746 4.06037,-1.52997 5.49925,-1.52997c6.09996,0 10.09486,4.7358 10.09486,11.16373c0,6.42793 -5.65758,12.58889 -11.75755,12.58889c-6.09997,0 -11.04497,-6.3985 -11.04497,-12.82642z" stroke-linecap="butt"/></g><g data-paper-data="{&quot;index&quot;:null}" stroke="#000000" stroke-width="2" stroke-linecap="round"><path d="M193.88321,146.74886c0,0 8.85246,4.26219 12.56221,8.72186c1.59558,1.91811 3.0397,4.64956 3.05159,6.18993c0.0138,1.78847 -1.57614,2.23736 -1.95468,2.13101c-2.55334,-0.71733 -6.59225,-4.03916 -8.01563,-5.75381c-2.49498,-3.00552 -5.85355,-11.39987 -5.85355,-11.39987" fill="#d8d8d8"/><path d="M203.54636,161.51743l4.24208,-4.4756" fill="none"/></g><path d="M265.95826,201.30964l-11.06028,-10.49627c0,0 -3.65024,-4.12917 -3.08403,-6.01298c0.32143,-1.06947 1.03939,-4.88536 2.33096,-6.51223c1.61733,-2.0372 4.64822,-1.63877 5.77173,-2.05579c0.49056,-0.18208 4.20536,2.1093 4.20536,2.1093c0,0 2.20109,2.64179 3.65813,4.39056c2.16252,2.59549 8.05816,9.67154 8.05816,9.67154z" data-paper-data="{&quot;index&quot;:null}" fill="#949494" stroke="#000000" stroke-width="2.5" stroke-linecap="butt"/><g data-paper-data="{&quot;index&quot;:null}"><g><path d="M199.01289,191.33189l5.9336,-0.23264l0.19542,4.98422l-5.9336,0.23264z" data-paper-data="{&quot;index&quot;:null}" fill="#000000" stroke="none" stroke-width="0" stroke-linecap="butt"/><path d="M195.6777,204.55177l-4.93234,0.78047l-4.53039,1.36887l-4.10502,-1.79828l1.28735,3.14779l-0.4972,2.64091l0.01937,1.71272l-0.96129,2.38263l-3.12437,-2.46819l-5.23498,-8.50548l-0.01937,-1.71272l0.35353,-3.69339l7.9074,-5.68939l10.62578,1.65866z" fill="#949494" stroke="#000000" stroke-width="2.5" stroke-linecap="round"/><path d="M193.11671,193.6443l3.45854,-2.93792l3.105,0.75547l2.00973,2.94197l-1.26235,4.88955l-2.77894,4.77493l-1.971,0.48346z" fill="#242424" stroke="#000000" stroke-width="2.5" stroke-linecap="round"/><path d="M200.48009,198.10691l-2.02346,1.66994l-4.55944,-1.2002" fill="none" stroke="#000000" stroke-width="2.5" stroke-linecap="round"/></g><g stroke="none" stroke-linecap="butt"><path d="M176.37733,197.29999l4.45841,-3.70559l11.64054,2.3431l1.97807,7.56242l-7.84617,2.25186l-5.72239,-2.1449z" fill="#8c6200" stroke-width="NaN"/><path d="M188.51283,193.33676l4.5321,2.94945l1.69246,7.4042l-3.10664,0.46686z" fill="#8c0081" stroke-width="NaN"/><path d="M178.78483,211.68185l-5.29165,-10.01621l4.01012,-4.10185l4.10527,6.06443l0.62028,3.29378l1.33797,3.19824l-0.31409,1.32275l-1.26577,2.43482z" fill="#8c0081" stroke-width="0"/><g fill="#ffffff" stroke-width="0.5"><path d="M190.01101,199.65216c0.00043,0.00014 0.00087,0.00029 0.00129,0.00044c0.25961,0.08659 0.17302,0.34621 0.17302,0.34621c-0.43614,1.26383 -1.61573,1.44708 -2.44737,0.71088c0.12031,-0.04962 0.11642,-0.19434 0.11642,-0.19434c-0.02633,-0.98155 -0.03406,-1.96047 -0.11754,-2.93683c0.35929,-0.30022 0.75371,-0.47438 1.06462,-0.35022c0.43796,0.17491 0.76518,0.68579 0.98375,1.06032c0.24507,0.51021 0.25283,0.87988 0.22581,1.36355zM188.8585,198.40089c0.00304,0.11331 0.09737,0.20271 0.21069,0.19967c0.11332,-0.00304 0.20272,-0.09738 0.19968,-0.21069c-0.00304,-0.11332 -0.09737,-0.20271 -0.21069,-0.19967c-0.11331,0.00304 -0.20271,0.09737 -0.19967,0.21069zM188.93766,200.07563c0.00304,0.11332 0.09738,0.20271 0.2107,0.19967c0.11333,-0.00303 0.20272,-0.09737 0.19968,-0.21068c-0.00304,-0.11332 -0.09738,-0.20272 -0.21069,-0.19968c-0.11331,0.00304 -0.20271,0.09737 -0.19967,0.21069z"/><path d="M187.87334,201.78207c0.0102,0.37994 -0.36973,0.39014 -0.36973,0.39014l0.07384,-0.04212c-0.18638,0.09703 -0.39451,0.14344 -0.60941,0.1568l0.00725,0.01786l-0.01178,0.00478l0.0143,0.11252l-0.46857,0.05959c-0.01404,0.00196 -0.02833,0.00316 -0.04282,0.00354c-0.20984,0.00564 -0.38451,-0.15989 -0.39014,-0.36973c-0.00307,-0.11418 0.04457,-0.21795 0.12242,-0.28974c-0.00451,-0.00507 -0.00685,-0.00802 -0.00685,-0.00802c-0.36792,-0.46696 -0.69253,-0.95567 -1.0286,-1.43733c-0.13858,0.24848 -0.28255,0.49498 -0.43352,0.73929c-0.41595,0.67314 -0.59018,1.54042 -1.30122,1.90453c0.04877,-0.02472 0.17017,-0.08624 0.22164,-0.11232l0.05284,0.12466l0.045,-0.034l0.24372,0.32254c0.04779,0.06165 0.0771,0.13851 0.07936,0.22247c0.00562,0.20984 -0.15991,0.3845 -0.36975,0.39012c-0.03476,0.00094 -0.06856,-0.00282 -0.10077,-0.0107l-0.37416,-0.08294l0.01467,-0.06619c-0.3282,-0.04151 -0.54902,-0.1874 -0.86393,-0.5533c-0.10387,-0.0401 -0.21931,-0.13127 -0.22487,-0.33839c-0.0102,-0.37994 0.36974,-0.39014 0.36974,-0.39014l0.35552,0.14254c0.02656,0.035 0.05473,0.06655 0.08363,0.09551c0.27489,-0.50633 0.67858,-1.20461 0.74702,-1.32965c0.31841,-0.58172 0.63081,-1.15804 0.93636,-1.73654c-0.11719,-0.15168 -0.23847,-0.3011 -0.36571,-0.44728c-0.246,-0.28261 -0.52477,-0.52513 -0.79572,-0.77717c-0.13479,0.22277 -0.32033,0.43833 -0.6073,0.6667l-0.30962,0.32671c-0.0669,0.0706 -0.16075,0.11567 -0.26566,0.11849c-0.20985,0.00563 -0.38452,-0.1599 -0.39014,-0.36974c-0.00127,-0.04747 0.00621,-0.09312 0.02099,-0.13544l0.23095,-0.71493l0.02876,0.00929c0.09737,-0.62886 0.30107,-1.1124 0.8165,-1.84033l0.12663,-0.13917c0,0 0.26145,-0.27586 0.53732,-0.01442c0.02687,0.02546 0.04865,0.05107 0.06606,0.07654c0.031,0.00471 0.06407,0.01344 0.09927,0.02702c0.35462,0.13672 0.21791,0.49135 0.21791,0.49135c-0.11013,0.2823 -0.18508,0.52997 -0.25845,0.75626c0.34398,0.3492 0.73117,0.64795 1.05707,1.02113c0.05985,0.06851 0.11838,0.13785 0.1758,0.20787c0.2683,-0.521 0.5308,-1.04631 0.78686,-1.58138c-0.27051,-0.21991 -0.46072,-0.47781 -0.3922,-0.75137c0.31817,-1.27011 1.86233,0.26849 2.11304,0.59969l0.10529,0.24052c0,0 0.12983,0.35722 -0.2274,0.48704c-0.02058,0.00749 -0.04041,0.01334 -0.05951,0.01775c0.05334,0.79652 0.06366,1.59486 0.08379,2.39481c-0.04041,-0.05386 -0.07931,-0.11049 -0.11653,-0.16989c-0.05727,-0.09143 -0.547,-0.8614 -0.56175,-0.96784c-0.04379,-0.31594 0.20334,-0.8202 0.5609,-1.25068c-0.02464,0.00368 -0.04796,0.00487 -0.07,0.00398c-0.1658,0.10531 -0.36371,0.01291 -0.36371,0.01291c-0.10152,-0.04767 -0.25351,-0.11759 -0.42197,-0.20545c-0.2945,0.63233 -0.58792,1.25774 -0.90379,1.87283c0.40729,0.57122 0.7853,1.16076 1.22528,1.71179c0,0 0.02507,0.03162 0.04856,0.08242c0.16939,-0.14761 0.3554,-0.27749 0.54739,-0.39276c0,0 0.32717,-0.19343 0.5206,0.13374c0.13089,0.22141 0.02336,0.38157 -0.05983,0.46198c0.01683,0.04189 0.02748,0.09178 0.02907,0.15123z"/></g></g></g><path d="M223.39549,189.6161l-12.26136,11.98099l-8.49453,-7.24764l-0.5903,-1.48l9.20439,-12.47715l5.66502,-3.8606l5.12725,1.38584l3.11232,4.36241l0.19394,3.35352z" data-paper-data="{&quot;index&quot;:null}" fill="#949494" stroke="#000000" stroke-width="2.5" stroke-linecap="round"/><g data-paper-data="{&quot;index&quot;:null}"><g><path d="M276.96382,198.36387l-5.23103,-2.81037l2.3607,-4.39405l5.23103,2.81037z" fill="#000000" stroke="none" stroke-width="0" stroke-linecap="butt"/><path d="M305.9472,205.70573c0,0 0.69437,1.06118 -0.1685,1.63639c-2.26104,1.50729 -13.89847,7.74112 -13.89847,7.74112l-15.83903,-7.65387c0,0 5.01795,-5.36763 6.82199,-7.70501c0.69989,-0.9068 11.28824,3.62826 11.9569,3.20291c0.69502,-0.44214 0.01769,3.26596 0.48102,3.92973c0.52313,0.74946 2.16718,-1.51622 2.63347,-1.78176c1.3138,-0.74818 3.95035,-1.70295 3.95035,-1.70295l4.06226,2.33345z" fill="#949494" stroke="#000000" stroke-width="2.5" stroke-linecap="butt"/><path d="M274.1262,207.42655l0.72218,-10.25154l2.25382,-1.95224l2.53604,-0.48202l2.48881,1.29598l1.43918,3.00721z" fill="#242424" stroke="#000000" stroke-width="2.5" stroke-linecap="butt"/><path d="M279.40666,202.77942l-2.12139,0.11473l-1.67709,-1.50501" fill="none" stroke="#000000" stroke-width="2.5" stroke-linecap="round"/><path d="M296.24479,212.18772l-1.16978,-5.89403" fill="none" stroke="#000000" stroke-width="2.5" stroke-linecap="round"/></g><g stroke="none" stroke-linecap="butt"><path d="M292.81395,213.76823l-15.15756,-6.06554l5.68336,-8.46134l2.67028,1.94022l7.6671,2.9864z" fill="#8c6200" stroke-width="NaN"/><path d="M281.31473,209.08956l-3.54757,-1.66636l5.80658,-7.87647l2.78722,2.09936z" fill="#8c0081" stroke-width="NaN"/><path d="M292.57735,214.15506l-1.81366,-10.7627l2.94491,0.62451l2.29072,3.62194l2.52924,-1.7617l3.2967,-1.07271l1.29274,0.42091l2.32349,1.4601z" fill="#8c0081" stroke-width="0"/><g fill="#ffffff" stroke-width="0.5"><path d="M283.10383,205.77379c-0.00033,-0.00031 -0.00066,-0.00061 -0.001,-0.00093c-0.20035,-0.18644 -0.0139,-0.38679 -0.0139,-0.38679c0.92087,-0.96925 2.07029,-0.64696 2.52184,0.36778c-0.13005,-0.00472 -0.18651,0.12859 -0.18651,0.12859c-0.38298,0.90413 -0.78182,1.79814 -1.11065,2.72126c-0.45142,0.12424 -0.88256,0.11921 -1.114,-0.12269c-0.32603,-0.34075 -0.412,-0.94133 -0.45561,-1.37276c-0.01149,-0.56591 0.13473,-0.90552 0.35984,-1.33445zM283.52488,207.12126c-0.10438,-0.04422 -0.22484,0.00455 -0.26905,0.10894c-0.04422,0.10438 0.00455,0.22484 0.10894,0.26905c0.10438,0.04422 0.22484,-0.00455 0.26905,-0.10894c0.04422,-0.10438 -0.00455,-0.22484 -0.10894,-0.26905zM284.25613,205.83348c0.04422,-0.10438 -0.00455,-0.22484 -0.10894,-0.26905c-0.10438,-0.04422 -0.22484,0.00455 -0.26905,0.10894c-0.04421,0.10437 0.00455,0.22484 0.10894,0.26905c0.10439,0.04422 0.22485,-0.00456 0.26906,-0.10894z"/><path d="M285.93217,204.72189c0.14825,-0.34996 0.49821,-0.20172 0.49821,-0.20172l-0.08467,0.00772c0.20983,-0.01103 0.41848,0.03303 0.61957,0.10998l0.00081,-0.01927l0.0127,0.00054l0.03364,-0.10833l0.4511,0.14004c0.01359,0.00404 0.02709,0.00887 0.04044,0.01453c0.19328,0.08187 0.28361,0.30492 0.20172,0.49821c-0.04455,0.10517 -0.13092,0.17986 -0.23153,0.2129c0.002,0.0065 0.0029,0.01015 0.0029,0.01015c0.1412,0.57748 0.23397,1.1568 0.3401,1.73444c0.22914,-0.16867 0.46235,-0.33329 0.70102,-0.49301c0.6576,-0.44009 1.17572,-1.1571 1.97373,-1.19364c-0.05462,0.00226 -0.19061,0.00792 -0.24825,0.01031l0.00361,-0.13535l-0.05505,0.01228l-0.08806,-0.39456c-0.01792,-0.07591 -0.01273,-0.15802 0.02002,-0.23535c0.08188,-0.19329 0.30492,-0.28361 0.49821,-0.20172c0.03202,0.01357 0.06122,0.031 0.08726,0.05153l0.30609,0.23061l-0.04079,0.05415c0.28145,0.17384 0.42191,0.39817 0.55678,0.86169c0.0779,0.07956 0.14514,0.21038 0.06432,0.40118c-0.14825,0.34997 -0.49821,0.20172 -0.49821,0.20172l-0.26443,-0.27711c-0.00966,-0.04286 -0.0222,-0.08326 -0.0365,-0.12158c-0.46008,0.34679 -1.11694,0.81486 -1.23107,0.90027c-0.53093,0.39735 -1.05418,0.79228 -1.57207,1.19203c0.04376,0.18662 0.09218,0.37289 0.14737,0.55866c0.10669,0.35916 0.25983,0.69543 0.4019,1.03713c0.21503,-0.14683 0.47323,-0.26606 0.82906,-0.3549l0.41721,-0.16894c0.09016,-0.03651 0.19424,-0.03861 0.29088,0.00232c0.19329,0.08188 0.28361,0.30492 0.20172,0.49821c-0.01852,0.04373 -0.04426,0.08218 -0.07525,0.11456l-0.50657,0.55483l-0.02231,-0.02037c-0.34933,0.5319 -0.73518,0.88746 -1.50602,1.33618l-0.17294,0.07415c0,0 -0.3523,0.14264 -0.49494,-0.20965c-0.01389,-0.03431 -0.02309,-0.06663 -0.02837,-0.09703c-0.02625,-0.01714 -0.05272,-0.03879 -0.07913,-0.06574c-0.26602,-0.27144 0.00541,-0.53747 0.00541,-0.53747c0.21728,-0.21124 0.38815,-0.40553 0.54874,-0.58105c-0.16823,-0.46038 -0.39674,-0.89278 -0.53858,-1.36749c-0.02605,-0.08717 -0.05056,-0.17452 -0.0738,-0.26205c-0.46016,0.36287 -0.91684,0.73208 -1.37169,1.11283c0.15499,0.31227 0.22116,0.62581 0.04537,0.84635c-0.81614,1.02388 -1.58341,-1.01647 -1.67423,-1.42181l0.00391,-0.26252c0,0 0.02996,-0.37889 0.40885,-0.34893c0.02184,0.00173 0.0423,0.00462 0.06151,0.00852c0.2817,-0.74695 0.60331,-1.47771 0.91665,-2.21402c0.01446,0.06577 0.02638,0.13343 0.03561,0.20291c0.01422,0.10695 0.14063,1.01066 0.10993,1.11364c-0.09114,0.30566 -0.52509,0.66208 -1.02896,0.90558c0.02395,0.00687 0.04566,0.01546 0.06535,0.0254c0.19455,-0.02708 0.33633,0.13905 0.33633,0.13905c0.07262,0.08548 0.18195,0.2121 0.29882,0.36191c0.53015,-0.45332 1.05647,-0.90079 1.59893,-1.32956c-0.1338,-0.68868 -0.23336,-1.38189 -0.40529,-2.06575c0,0 -0.0097,-0.03916 -0.01002,-0.09514c-0.21535,0.0641 -0.43847,0.10515 -0.66098,0.13045c0,0 -0.37793,0.04038 -0.4183,-0.33755c-0.02733,-0.25576 0.13693,-0.35691 0.24597,-0.3956c0.00204,-0.04508 0.01304,-0.09491 0.03625,-0.14967z"/></g></g></g><g data-paper-data="{&quot;index&quot;:null}"><g stroke="#000000" stroke-width="2.5"><path d="M263.74484,159.5526c0,0 0.66971,-1.38395 0.53211,-2.55804c-0.12307,-1.05013 -1.31897,-4.15614 -1.31897,-4.15614c0,0 -4.04252,-4.27704 -3.04203,-7.49317c0.11357,-0.36508 3.21991,-8.18407 8.87416,-11.79725c4.04141,-2.58255 10.9678,-1.50045 11.77864,-0.95857c0.62676,0.41886 4.84222,1.74984 8.46023,4.3541c5.09879,3.67013 9.52071,8.53635 9.52071,8.53635l-4.73788,12.92314l-20.42819,-4.36638l-0.80191,7.35412z" fill="#949494" stroke-linecap="butt"/><path d="M296.26831,152.48908l-12.25806,-5.21855l-2.57845,-3.9329l-1.22401,-10.44426l10.20418,5.76176l7.58846,6.67331z" fill="#000000" stroke-linecap="round"/><path d="M281.79082,145.11058l-1.62783,-0.33861" fill="none" stroke-linecap="round"/><path d="M281.02618,147.62027l-2.2771,-0.71628" fill="none" stroke-linecap="round"/><path d="M277.56768,149.08435l1.34692,0.52279" fill="none" stroke-linecap="round"/><path d="M292.19372,158.06327c0,0 -12.14922,-2.93164 -18.55694,-3.6892c-1.57657,-0.18639 -0.61101,1.89458 -1.57837,1.70449c-8.57092,-1.68419 -9.03935,-3.87296 -9.62816,-5.00808c-1.46246,-2.81933 -2.93884,-6.48701 -2.71515,-7.03697c0.28764,-0.70718 2.34165,-2.08023 2.34165,-2.08023l3.52939,2.30211l4.96163,2.97296l5.3393,2.32369l9.71866,2.26422l7.03593,5.83055" fill="#373737" stroke-linecap="round"/><path d="M291.39563,160.26046l-1.41392,2.13199l-12.09251,-2.5154l-2.46129,-0.9972l-0.44646,-2.51897l0.85208,-1.76364l1.45298,-1.15343l1.29855,0.75533l0.8725,1.63716l0.68832,1.35623z" fill="#000000" stroke-linecap="round"/><path d="M268.75306,156.47l-0.76465,2.50966" fill="none" stroke-linecap="round"/><path d="M273.1231,157.62164l-8.22662,-2.43908" fill="none" stroke-linecap="round"/><path d="M272.32154,134.6495l-1.5981,1.85107l0.02974,2.18968l-3.10124,-2.58598l1.15164,-4.37005l4.02965,-3.04356l1.0083,2.15063l-0.44467,3.30405z" fill="#151515" stroke-linecap="round"/><path d="M272.26903,138.40104l-3.35242,-0.21213l-0.95061,-3.59429l1.22042,-1.2018l2.76084,-1.60921l1.90876,0.15444l0.96925,1.17206l0.92088,1.4046l-0.06701,2.65477z" fill="none" stroke-linecap="round"/></g><path d="M293.01124,141.6504c2.3609,1.26279 2.64368,2.85971 1.87341,4.54768c-0.77027,1.68797 -2.85788,2.38864 -4.66281,1.565c-1.80493,-0.82365 -2.64368,-2.85971 -1.87341,-4.54768c0.77027,-1.68797 2.23095,-2.86573 4.66281,-1.565z" fill="#54ff00" stroke="none" stroke-width="0" stroke-linecap="butt"/><path d="M283.17991,141.75348c-0.99555,-0.09429 -0.90125,-1.08983 -0.90125,-1.08983l0.24755,-1.35991c0.90086,-1.3561 1.67232,-2.37999 3.08356,-3.21543c0,0 0.86705,-0.49822 1.36527,0.36883c0.49822,0.86705 -0.36883,1.36527 -0.36883,1.36527c-1.1505,0.63418 -1.69826,1.50665 -2.41326,2.58672l0.07678,0.4431c0,0 -0.09429,0.99555 -1.08983,0.90125z" fill="#54ff00" stroke="none" stroke-width="0.5" stroke-linecap="butt"/></g></g></g></svg>