<svg version="1.1" xmlns="http://www.w3.org/2000/svg" xmlns:xlink="http://www.w3.org/1999/xlink" width="313.18125" height="92" viewBox="0,0,313.18125,92"><g transform="translate(-84.16667,-180.34087)"><g data-paper-data="{&quot;isPaintingLayer&quot;:true}" fill-rule="nonzero" stroke="none" stroke-linecap="butt" stroke-linejoin="miter" stroke-miterlimit="10" stroke-dasharray="" stroke-dashoffset="0" style="mix-blend-mode: normal"><path d="M84.34792,272.34087v-87h313v87z" fill="#af0000" stroke-width="none"/><path d="M84.16667,205.34087v-25h313v25z" fill="#cb0000" stroke-width="0"/><path d="M98.33333,185.00754c2,1.5 0.5,3.5 0.5,3.5l-1.23223,1.6011c-0.93047,0.84076 -2.17062,1.43265 -2.7914,2.52227c-0.33862,0.59435 0.12687,1.36219 0.1903,2.04329c0,0 0,2.5 -2.5,2.5c-2.5,0 -2.5,-2.5 -2.5,-2.5c0.06343,-1.3189 -0.40196,-2.77656 0.1903,-3.95671c0.84833,-1.69039 2.58351,-2.76293 3.87527,-4.14439l0.76777,-1.06557c0,0 1.5,-2 3.5,-0.5z" fill="#dd0000" stroke-width="0.5"/><path d="M120.26777,198.10864c-1.76777,1.76777 -3.53553,0 -3.53553,0l-0.33333,-0.33333c-1.45175,-1.48204 -3.26814,-2.59179 -5.09603,-3.57303c0,0 -2.19474,-1.19713 -0.99761,-3.39187c1.19713,-2.19474 3.39187,-0.99761 3.39187,-0.99761c2.23133,1.23344 4.4201,2.63867 6.2373,4.42697l0.33333,0.33333c0,0 1.76777,1.76777 0,3.53553z" fill="#dd0000" stroke-width="0.5"/><path d="M146.48786,189.74573c0.92848,2.32119 -1.39272,3.24967 -1.39272,3.24967l-3.33333,1.33333c0,0 -2.32119,0.92848 -3.24967,-1.39272c-0.92848,-2.32119 1.39272,-3.24967 1.39272,-3.24967l3.33333,-1.33333c0,0 2.32119,-0.92848 3.24967,1.39272z" fill="#dd0000" stroke-width="0.5"/><path d="M159.33333,201.00754c0,2.5 -2.5,2.5 -2.5,2.5h-2.66667c0,0 -2.5,0 -2.5,-2.5c0,-2.5 2.5,-2.5 2.5,-2.5h2.66667c0,0 2.5,0 2.5,2.5z" fill="#dd0000" stroke-width="0.5"/><path d="M179.25312,189.07822c0.49998,-0.39228 1.92398,-1.26245 3.34798,0.16155c1.76777,1.76777 0,3.53553 0,3.53553l-1.49476,0.99092c-4.24791,1.05739 -6.26465,1.50723 -9.01912,4.84177c0,0 -1.60046,1.92055 -3.52101,0.32009c-1.92055,-1.60046 -0.32009,-3.52101 -0.32009,-3.52101c3.30389,-3.93555 6.23278,-5.09985 11.007,-6.32886z" fill="#dd0000" stroke-width="0.5"/><path d="M210.0694,190.8895c1.11803,2.23607 -1.11803,3.3541 -1.11803,3.3541l-1.73128,0.84406c-3.3831,2.25521 -6.39614,4.31276 -10.26285,5.62492c0,0 -2.37171,0.79057 -3.16228,-1.58114c-0.79057,-2.37171 1.58114,-3.16228 1.58114,-3.16228c3.4425,-1.12248 6.07011,-3.04133 9.07049,-5.04175l2.26872,-1.15594c0,0 2.23607,-1.11803 3.3541,1.11803z" fill="#dd0000" stroke-width="0.5"/><path d="M240.06174,197.29304c-1.95217,1.56174 -3.51391,-0.39043 -3.51391,-0.39043l-1.14893,-1.46064c-1.73875,-1.74041 -4.11855,-5.50249 -6.80662,-6.00131c-2.543,-0.4719 -5.17254,0.06688 -7.75895,0.06688c0,0 -2.5,0 -2.5,-2.5c0,-2.5 2.5,-2.5 2.5,-2.5c0.84042,0 8.55125,-0.01817 8.90772,0.06688c4.20032,1.0021 6.35639,4.49787 9.19338,7.33202l1.51774,1.8727c0,0 1.56174,1.95217 -0.39043,3.51391z" fill="#dd0000" stroke-width="0.5"/><path d="M285.58013,186.28745c1.38675,2.08013 -0.69338,3.46688 -0.69338,3.46688l-2.00848,1.05776c-7.58204,1.15932 -16.96806,2.98587 -23.25851,7.56312c0,0 -1.34706,0.96219 -2.63185,0.22448c-0.27737,1.21622 -1.55943,1.72904 -1.55943,1.72904l-1.27015,0.46547c-3.45243,2.11633 -5.62046,2.69046 -9.65833,2.71334c0,0 -2.5,0 -2.5,-2.5c0,-2.5 2.5,-2.5 2.5,-2.5c3.20407,0.02227 4.30067,-0.21881 7.00834,-1.95333l2.06319,-0.86786c0,0 1.12376,-0.4495 2.12022,0.05892c0.25654,-0.8921 1.02182,-1.43873 1.02182,-1.43873c7.07715,-4.98104 16.95362,-7.14139 25.40816,-8.43688l-0.00848,-0.27558c0,0 2.08013,-1.38675 3.46688,0.69338z" fill="#dd0000" stroke-width="0.5"/><path d="M321.60057,196.02979c-1.35559,2.10057 -3.45615,0.74498 -3.45615,0.74498l-0.11727,-0.35457c-5.53959,-0.76264 -11.43848,-1.53996 -16.73712,-3.40473c-1.60454,-0.56469 -3.07554,-1.51945 -4.7297,-1.91591c0,0 -2.42536,-0.60634 -1.81902,-3.0317c0.60634,-2.42536 3.0317,-1.81902 3.0317,-1.81902c1.8292,0.47208 3.48949,1.45359 5.2703,2.08409c4.93284,1.7465 10.50207,2.42465 15.66503,3.13388l2.14725,1.10682c0,0 2.10057,1.35559 0.74498,3.45615z" fill="#dd0000" stroke-width="0.5"/><path d="M354.33727,200.24788c-1.24035,2.17061 -3.41096,0.93026 -3.41096,0.93026l-1.73466,-1.08769c-7.51453,0.14802 -15.11297,-0.58292 -22.69166,-0.58292c0,0 -2.5,0 -2.5,-2.5c0,-2.5 2.5,-2.5 2.5,-2.5c8.04504,0 15.97287,0.62251 23.975,0.75042l2.93201,1.57897c0,0 2.17061,1.24035 0.93026,3.41096z" fill="#dd0000" stroke-width="0.5"/><path d="M368.40273,186.22284c1.11803,2.23607 -1.11803,3.3541 -1.11803,3.3541l-0.55323,0.05758c-0.66667,0.77778 -1.33333,1.55556 -2,2.33333c0,0 -1.62698,1.89814 -3.52512,0.27116c-1.89814,-1.62698 -0.27116,-3.52512 -0.27116,-3.52512c0.66667,-0.77778 1.33333,-1.55556 2,-2.33333l2.11344,-1.27576c0,0 2.23607,-1.11803 3.3541,1.11803z" fill="#dd0000" stroke-width="0.5"/><path d="M387.16667,193.50754c-1.19808,0 -1.822,-0.57416 -2.14692,-1.17217c-2.46819,-1.35011 -3.61599,-1.60083 -7.04482,-1.8352c0,0 -2.49264,-0.19174 -2.30089,-2.68438c0.19174,-2.49264 2.68438,-2.30089 2.68438,-2.30089c4.36629,0.3669 6.36335,0.88987 10.04861,2.9887l1.25965,2.50394c0,0 0,2.5 -2.5,2.5z" fill="#dd0000" stroke-width="0.5"/></g></g></svg>