<svg version="1.1" xmlns="http://www.w3.org/2000/svg" xmlns:xlink="http://www.w3.org/1999/xlink" width="487" height="861.5" viewBox="0,0,487,861.5"><defs><linearGradient x1="236.5" y1="-295.125" x2="236.5" y2="566.375" gradientUnits="userSpaceOnUse" id="color-1"><stop offset="0" stop-color="#00c1ff"/><stop offset="1" stop-color="#2900ff"/></linearGradient><linearGradient x1="233.5" y1="151.125" x2="233.5" y2="454.125" gradientUnits="userSpaceOnUse" id="color-2"><stop offset="0" stop-color="#ffc700"/><stop offset="1" stop-color="#9e7c00"/></linearGradient><linearGradient x1="119.28571" y1="147.125" x2="119.28571" y2="394.125" gradientUnits="userSpaceOnUse" id="color-3"><stop offset="0" stop-color="#00b0ea"/><stop offset="1" stop-color="#00e4ff"/></linearGradient></defs><g transform="translate(9,295.125)"><g data-paper-data="{&quot;isPaintingLayer&quot;:true}" fill-rule="nonzero" stroke-linecap="butt" stroke-linejoin="miter" stroke-miterlimit="10" stroke-dasharray="" stroke-dashoffset="0" style="mix-blend-mode: normal"><path d="M-5,566.375v-861.5h483v861.5z" fill="url(#color-1)" stroke="none" stroke-width="0"/><path d="M252,276.125v-190h37v190z" fill="#904c07" stroke="#5b3005" stroke-width="2.5"/><path d="M375,84.125c0,45.28735 -46.11467,82 -103,82c-56.88533,0 -103,-36.71265 -103,-82c0,-45.28735 46.11467,-82 103,-82c56.88533,0 103,36.71265 103,82z" fill="#0dff2c" stroke="#089b1b" stroke-width="2.5"/><path d="M-9,454.125v-303h485v303z" fill="url(#color-2)" stroke="none" stroke-width="0"/><path d="M122.73214,418.125c0,0 -9.442,-89.88146 -29.23762,-128.86014c-21.67757,-42.68432 -84.49452,-125.13986 -84.49452,-125.13986l6.89286,-15c0,0 69.21698,-3.01354 83.49555,19.79434c29.4585,47.05555 102.61159,250.20566 102.61159,250.20566z" fill="url(#color-3)" stroke="none" stroke-width="0"/><path d="M172,177.125l6.73634,-57.70743l38.24569,-43.50215l19.58978,-35.9959l44.13477,19.12764l5.68375,63.58415l65.53781,54.4937z" fill="#737373" stroke="#535353" stroke-width="2.5"/><path d="M291,330.125l6.73635,-57.70743l38.24569,-43.50215l19.58978,-35.9959l44.13477,19.12763l5.68375,63.58414l65.53781,54.4937z" fill="#737373" stroke="#535353" stroke-width="2.5"/><path d="M313,293.125v-190h37v190z" fill="#904c07" stroke="#5b3005" stroke-width="2.5"/><path d="M436,101.125c0,45.28735 -46.11467,82 -103,82c-56.88533,0 -103,-36.71265 -103,-82c0,-45.28735 46.11467,-82 103,-82c56.88533,0 103,36.71265 103,82z" fill="#0dff2c" stroke="#089b1b" stroke-width="2.5"/><path d="M192,392.125v-190h37v190z" fill="#904c07" stroke="#5b3005" stroke-width="2.5"/><path d="M315,200.125c0,45.28735 -46.11467,82 -103,82c-56.88533,0 -103,-36.71265 -103,-82c0,-45.28735 46.11467,-82 103,-82c56.88533,0 103,36.71265 103,82z" fill="#0dff2c" stroke="#089b1b" stroke-width="2.5"/><path d="M377,393.125v-190h37v190z" fill="#904c07" stroke="#5b3005" stroke-width="2.5"/><path d="M465,199.125c0,45.28735 -36.93651,82 -82.5,82c-45.56349,0 -82.5,-36.71265 -82.5,-82c0,-45.28735 36.93651,-82 82.5,-82c45.56349,0 82.5,36.71265 82.5,82z" fill="#0dff2c" stroke="#089b1b" stroke-width="2.5"/><path d="M271,417.125v-190h37v190z" fill="#904c07" stroke="#5b3005" stroke-width="2.5"/><path d="M394,225.125c0,45.28735 -46.11467,82 -103,82c-56.88533,0 -103,-36.71265 -103,-82c0,-45.28735 46.11467,-82 103,-82c56.88533,0 103,36.71265 103,82z" fill="#0dff2c" stroke="#089b1b" stroke-width="2.5"/><path d="M59,392.125v-190h37v190z" fill="#904c07" stroke="#5b3005" stroke-width="2.5"/><path d="M169,179.125c0,45.28735 -38.27965,82 -85.5,82c-47.22035,0 -85.5,-36.71265 -85.5,-82c0,-45.28735 38.27965,-82 85.5,-82c47.22035,0 85.5,36.71265 85.5,82z" fill="#0dff2c" stroke="#089b1b" stroke-width="2.5"/></g></g></svg>