<svg version="1.1" xmlns="http://www.w3.org/2000/svg" xmlns:xlink="http://www.w3.org/1999/xlink" width="63.54167" height="99.70772" viewBox="0,0,63.54167,99.70772"><g transform="translate(-237.51314,-80.66729)"><g data-paper-data="{&quot;isPaintingLayer&quot;:true}" fill-rule="nonzero" stroke-linejoin="miter" stroke-miterlimit="10" stroke-dasharray="" stroke-dashoffset="0" style="mix-blend-mode: normal"><path d="M240.01314,177.87501v-86.41667" fill="none" stroke="#4c007b" stroke-width="5" stroke-linecap="round"/><path d="M258.83713,81.41728c12.02528,0.05876 13.80814,27.05409 27.96768,27.05409c9.28937,0 13.5,-17.5 13.5,-17.5v36.33333c0,0 0.47152,11.00058 -13.30163,9.73121c-13.02027,-1.19998 -8.5914,-18.39788 -28.19837,-18.39788c-5.789,0 -18.33333,8.66667 -18.33333,8.66667v-36.33333c0,0 2.63844,-9.63093 18.36565,-9.55409z" data-paper-data="{&quot;index&quot;:null}" fill="#9e00ff" stroke="#4c007b" stroke-width="1.5" stroke-linecap="butt"/><g stroke-width="1.5"><path d="M276.54505,116.39447c0,0 -0.13203,0.75222 -0.45934,0.79075c-0.22046,0.02595 -0.70264,-0.42075 -1.21717,-0.43429c-0.20177,-0.00531 -0.39521,0.56007 -0.61389,0.56592c-0.16595,0.00444 -0.43164,-0.53396 -0.55,-0.39358c-0.18766,0.22254 -0.44882,0.74002 -0.77371,0.79402c-0.31007,0.05154 -0.68809,-0.36843 -0.70977,0.15044c-0.03221,0.77047 -0.89778,-0.85854 -0.89778,-0.85854l-1.37521,-11.68158c0,0 -3.61533,-0.94309 -5.67488,-1.75508c-0.88413,-0.34857 -1.62086,-0.78295 -1.43252,-0.92721c0.48737,-0.37331 3.84746,-1.91529 6.9054,-2.11132c2.71017,-0.17373 5.18483,0.97697 5.18483,0.97697l1.61406,14.88351z" data-paper-data="{&quot;index&quot;:null}" fill="#000000" stroke="#000000" stroke-linecap="butt"/><path d="M272.80668,106.33503c1.12036,2.78669 0.31182,5.65304 -2.47486,6.77341c-2.78669,1.12037 -7.08194,0.05722 -8.20231,-2.72946c-0.89891,-2.23584 -0.45184,-4.36383 1.34969,-5.92075c0.17118,-0.14794 0.85226,-0.48706 1.04369,-0.6144c0.30491,-0.20283 0.69888,-0.81812 1.03728,-0.95417c0.20084,-0.08075 0.51695,0.33935 0.73746,0.32524c0.38805,-0.02482 0.69141,-0.43619 1.06113,-0.43572c0.60217,0.00076 1.28243,0.30322 1.84807,0.47222c0.16552,0.04945 0.68311,-0.86837 0.84163,-0.80926c1.40071,0.52233 2.15984,2.40453 2.75822,3.89288z" data-paper-data="{&quot;index&quot;:null}" fill="#ffd499" stroke="#dfba86" stroke-linecap="butt"/><path d="M264.77465,106.55907c0.60033,-0.02491 1.11208,0.55956 1.14302,1.30542c0.03094,0.74586 -0.43064,1.3707 -1.03098,1.39561c-0.60033,0.0249 -1.11208,-0.55955 -1.14302,-1.30542c-0.03094,-0.74586 0.43064,-1.37071 1.03098,-1.39561z" fill="#ffffff" stroke="none" stroke-linecap="butt"/><path d="M267.95289,106.65424c0.60033,-0.02491 1.11208,0.55956 1.14302,1.30542c0.03094,0.74587 -0.43064,1.3707 -1.03097,1.3956c-0.60033,0.02491 -1.11208,-0.55956 -1.14302,-1.30542c-0.03094,-0.74587 0.43065,-1.3707 1.03098,-1.3956z" fill="#ffffff" stroke="none" stroke-linecap="butt"/><path d="M264.19144,108.66222l-0.02869,-0.69173" fill="none" stroke="#000000" stroke-linecap="round"/><path d="M267.60219,108.35328l-0.0246,-0.59291" fill="none" stroke="#000000" stroke-linecap="round"/><path d="M265.50363,112.45673c0,0 0.82758,-1.97097 2.67943,-1.12991c0.52735,0.2395 1.22032,2.32584 1.22032,2.32584" fill="none" stroke="#000000" stroke-linecap="round"/><path d="M267.88869,105.27464l-1.60168,1.60169l-1.60168,-1.60169" fill="none" stroke="#000000" stroke-linecap="round"/></g></g></g></svg>