<svg version="1.1" xmlns="http://www.w3.org/2000/svg" xmlns:xlink="http://www.w3.org/1999/xlink" width="555.26423" height="861.5" viewBox="0,0,555.26423,861.5"><defs><linearGradient x1="236.5" y1="-295.125" x2="236.5" y2="566.375" gradientUnits="userSpaceOnUse" id="color-1"><stop offset="0" stop-color="#00c1ff"/><stop offset="1" stop-color="#2900ff"/></linearGradient><linearGradient x1="233.5" y1="151.125" x2="233.5" y2="216.88776" gradientUnits="userSpaceOnUse" id="color-2"><stop offset="0" stop-color="#ffc700"/><stop offset="1" stop-color="#9e7c00"/></linearGradient></defs><g transform="translate(44.84158,295.125)"><g data-paper-data="{&quot;isPaintingLayer&quot;:true}" fill-rule="nonzero" stroke-linecap="butt" stroke-linejoin="miter" stroke-miterlimit="10" stroke-dasharray="" stroke-dashoffset="0" style="mix-blend-mode: normal"><path d="M-5,566.375v-861.5h483v861.5z" fill="url(#color-1)" stroke="none" stroke-width="0"/><path d="M-9,216.88776v-65.76276h485v65.76276z" fill="url(#color-2)" stroke="none" stroke-width="0"/><path d="M172,177.125l6.73634,-57.70743l38.24569,-43.50215l19.58978,-35.9959l44.13477,19.12764l5.68375,63.58415l65.53781,54.4937z" fill="#737373" stroke="#535353" stroke-width="2.5"/><path d="M327.03604,158.95383l6.73635,-57.70743l38.24569,-43.50215l19.58978,-35.9959l44.13477,19.12763l5.68375,63.58414l65.53781,54.4937z" fill="#737373" stroke="#535353" stroke-width="2.5"/><g stroke="none" stroke-width="2.5"><path d="M100.90905,176.26312v-136.63664l18.01802,-19.51952l18.01802,19.51952v136.63664z" fill="#5b3005"/><path d="M105.41355,87.67453v-24.02402h102.1021v24.02402z" fill="#5b3005"/><path d="M111.91505,124.20606v-24.02402h102.1021v24.02402z" fill="#5b3005"/><path d="M107.90605,169.7466v-24.02402h102.1021v24.02402z" fill="#5b3005"/></g><g fill="#5b3005" stroke="none" stroke-width="2.5"><path d="M8.31146,175.25711v-136.63664l18.01801,-19.51952l18.01802,19.51952v136.63664z"/><path d="M12.81596,86.66852v-24.02402h102.10211v24.02403z"/><path d="M19.31746,123.20005v-24.02402h102.10211v24.02402z"/><path d="M15.30845,168.74059v-24.02402h102.10211v24.02402z"/></g><g fill="#5b3005" stroke="none" stroke-width="2.5"><path d="M195.99914,182.76462v-136.63664l18.01802,-19.51952l18.01802,19.51952v136.63664z"/><path d="M200.50365,94.17603v-24.02402h102.1021v24.02402z"/><path d="M207.00515,130.70756v-24.02402h102.10211v24.02402z"/><path d="M202.99614,176.2481v-24.02402h102.10211v24.02402z"/></g><g fill="#5b3005" stroke="none" stroke-width="2.5"><path d="M297.09524,181.75861v-136.63664l18.01802,-19.51952l18.01802,19.51952v136.63664z"/><path d="M301.59974,93.17002v-24.02402h102.1021v24.02402z"/><path d="M308.10124,129.70155v-24.02402h102.10211v24.02402z"/><path d="M304.09223,175.24209v-24.02402h102.1021v24.02402z"/></g><g fill="#5b3005" stroke="none" stroke-width="2.5"><path d="M371.1643,182.25411v-136.63664l18.01802,-19.51952l18.01801,19.51952v136.63664z"/><path d="M375.66881,93.66552v-24.02402h102.1021v24.02402z"/><path d="M382.17031,130.19705v-24.02402h102.10211v24.02402z"/><path d="M378.1613,175.73759v-24.02402h102.10211v24.02402z"/></g><g fill="#5b3005" stroke="none" stroke-width="2.5"><path d="M-0.80954,88.155v-24.02402h45.63751v24.02402z"/><path d="M-3.71557,124.68653v-24.02402h45.63751v24.02402z"/><path d="M-1.92363,170.22708v-24.02402h45.63751v24.02402z"/></g><g stroke-width="2.5"><path d="M349.75076,200.89377v-190h37v190z" fill="#904c07" stroke="#5b3005"/><path d="M450.74175,-34.62876c0,45.28735 -38.27965,82 -85.5,82c-47.22035,0 -85.5,-36.71265 -85.5,-82c0,-45.28735 38.27965,-82 85.5,-82c47.22035,0 85.5,36.71265 85.5,82z" fill="#0dff2c" stroke="#089b1b"/></g><path d="M-7.19906,445.95911v-265.19149h490.99099v265.19149z" fill="#07c700" stroke="none" stroke-width="2.5"/><g stroke-width="2.5"><path d="M171.08709,223.4313v-190h37v190z" fill="#904c07" stroke="#5b3005"/><path d="M272.07808,-12.09122c0,45.28735 -38.27965,82 -85.5,82c-47.22035,0 -85.5,-36.71265 -85.5,-82c0,-45.28735 38.27965,-82 85.5,-82c47.22035,0 85.5,36.71265 85.5,82z" fill="#0dff2c" stroke="#089b1b"/></g><g stroke-width="2.5"><path d="M121.50752,220.39827v-190h37v190z" fill="#904c07" stroke="#5b3005"/><path d="M222.49851,-15.12425c0,45.28735 -38.27965,82 -85.5,82c-47.22035,0 -85.5,-36.71265 -85.5,-82c0,-45.28735 38.27965,-82 85.5,-82c47.22035,0 85.5,36.71265 85.5,82z" fill="#0dff2c" stroke="#089b1b"/></g><g stroke-width="2.5"><path d="M239.64565,216.91479v-190h37v190z" fill="#904c07" stroke="#5b3005"/><path d="M340.63664,-18.60774c0,45.28735 -38.27965,82 -85.5,82c-47.22035,0 -85.5,-36.71265 -85.5,-82c0,-45.28735 38.27965,-82 85.5,-82c47.22035,0 85.5,36.71265 85.5,82z" fill="#0dff2c" stroke="#089b1b"/></g><g stroke-width="2.5"><path d="M378.77478,220.90879v-190h37v190z" fill="#904c07" stroke="#5b3005"/><path d="M479.76577,-14.61374c0,45.28735 -38.27965,82 -85.5,82c-47.22035,0 -85.5,-36.71265 -85.5,-82c0,-45.28735 38.27965,-82 85.5,-82c47.22035,0 85.5,36.71265 85.5,82z" fill="#0dff2c" stroke="#089b1b"/></g><g stroke-width="2.5"><path d="M83.00901,214.93281v-190h37v190z" fill="#904c07" stroke="#5b3005"/><path d="M184,-20.58972c0,45.28735 -38.27965,82 -85.5,82c-47.22035,0 -85.5,-36.71265 -85.5,-82c0,-45.28735 38.27965,-82 85.5,-82c47.22035,0 85.5,36.71265 85.5,82z" fill="#0dff2c" stroke="#089b1b"/></g><g stroke-width="2.5"><path d="M206.62763,185.39827v-190h37v190z" fill="#904c07" stroke="#5b3005"/><path d="M307.61862,-50.12425c0,45.28735 -38.27965,82 -85.5,82c-47.22035,0 -85.5,-36.71265 -85.5,-82c0,-45.28735 38.27965,-82 85.5,-82c47.22035,0 85.5,36.71265 85.5,82z" fill="#0dff2c" stroke="#089b1b"/></g><g stroke-width="2.5"><path d="M285.6967,202.90578v-190h37v190z" fill="#904c07" stroke="#5b3005"/><path d="M386.68769,-32.61675c0,45.28735 -38.27965,82 -85.5,82c-47.22035,0 -85.5,-36.71265 -85.5,-82c0,-45.28735 38.27965,-82 85.5,-82c47.22035,0 85.5,36.71265 85.5,82z" fill="#0dff2c" stroke="#089b1b"/></g><g stroke-width="2.5"><path d="M26.41743,206.38927v-190h37v190z" fill="#904c07" stroke="#5b3005"/><path d="M127.40842,-29.13326c0,45.28735 -38.27965,82 -85.5,82c-47.22035,0 -85.5,-36.71265 -85.5,-82c0,-45.28735 38.27965,-82 85.5,-82c47.22035,0 85.5,36.71265 85.5,82z" fill="#0dff2c" stroke="#089b1b"/></g><g stroke-width="2.5"><path d="M49.46547,303.01088v-190h37v190z" fill="#904c07" stroke="#5b3005"/><path d="M150.45646,67.48836c0,45.28735 -38.27965,82 -85.5,82c-47.22035,0 -85.5,-36.71265 -85.5,-82c0,-45.28735 38.27965,-82 85.5,-82c47.22035,0 85.5,36.71265 85.5,82z" fill="#0dff2c" stroke="#089b1b"/></g><g stroke-width="2.5"><path d="M266.17719,348.55143v-190h37v190z" fill="#904c07" stroke="#5b3005"/><path d="M367.16818,113.0289c0,45.28735 -38.27965,82 -85.5,82c-47.22035,0 -85.5,-36.71265 -85.5,-82c0,-45.28735 38.27965,-82 85.5,-82c47.22035,0 85.5,36.71265 85.5,82z" fill="#0dff2c" stroke="#089b1b"/></g><g stroke-width="2.5"><path d="M133.03905,361.05893v-190h37v190z" fill="#904c07" stroke="#5b3005"/><path d="M234.03004,125.53641c0,45.28735 -38.27965,82 -85.5,82c-47.22035,0 -85.5,-36.71265 -85.5,-82c0,-45.28735 38.27965,-82 85.5,-82c47.22035,0 85.5,36.71265 85.5,82z" fill="#0dff2c" stroke="#089b1b"/></g><g stroke-width="2.5"><path d="M391.7928,324.01689v-190h37v190z" fill="#904c07" stroke="#5b3005"/><path d="M492.78379,88.49437c0,45.28735 -38.27965,82 -85.5,82c-47.22035,0 -85.5,-36.71265 -85.5,-82c0,-45.28735 38.27965,-82 85.5,-82c47.22035,0 85.5,36.71265 85.5,82z" fill="#0dff2c" stroke="#089b1b"/></g></g></g></svg>