<svg version="1.1" xmlns="http://www.w3.org/2000/svg" xmlns:xlink="http://www.w3.org/1999/xlink" width="105.92073" height="105.54325" viewBox="0,0,105.92073,105.54325"><g transform="translate(-188.81366,-118.74152)"><g data-paper-data="{&quot;isPaintingLayer&quot;:true}" fill-rule="nonzero" stroke-linejoin="miter" stroke-miterlimit="10" stroke-dasharray="" stroke-dashoffset="0" style="mix-blend-mode: normal"><g data-paper-data="{&quot;index&quot;:null}" fill="#949494" stroke="#000000" stroke-width="2"><path d="M226.229,223.13085c0,0 -12.55915,-5.38008 -14.16904,-12.60744c-0.5787,-2.59797 -0.87879,-2.60066 -1.92159,-6.8924c-0.37562,-1.54587 -0.65864,-3.20837 -1.08337,-5.08381c-1.13895,-5.02914 -2.39716,-10.42623 -2.39716,-10.42623c0,0 11.46144,-6.16224 15.02353,-8.91733c0.34393,-0.26601 17.32562,-12.80169 17.67105,-13.07241c8.45426,-6.62594 5.58423,-4.61395 5.58423,-4.61395c0,0 1.96807,-5.63197 3.44364,-6.38088c2.83356,-1.43813 3.19276,-5.83697 7.98209,-2.39447c2.25107,1.61803 2.29069,1.96025 4.80038,4.62677c3.6636,3.89254 8.82388,10.17187 10.69601,15.53826c2.51959,7.2223 1.09359,13.18515 1.09359,13.18515z" stroke-linecap="butt"/><path d="M244.02969,208.16168c0,0 1.7502,-12.69411 -4.26224,-19.89391c-2.91329,-3.17619 -12.06082,-7.19651 -12.06082,-7.19651l-6.24577,-1.47517l5.24615,1.34747c0,0 2.95648,-2.88171 4.57665,-4.46089c1.83442,-1.78803 5.86714,-5.71877 5.86714,-5.71877l-1.20511,-1.16988" stroke-linecap="round"/><path d="M249.59678,167.44355c0,0 2.77994,-1.50184 5.89128,-1.83445c3.79207,-0.40538 8.20898,0.53202 10.35235,3.0854c2.126,2.53269 4.41045,6.80803 4.00577,10.82373c-0.49935,4.95517 -4.12436,9.55029 -5.55088,10.412c-3.86837,2.33675 -11.76652,-1.83779 -13.18675,-3.20981c-3.91191,-3.77907 -6.15326,-10.63584 -6.18112,-12.22296c-0.05195,-2.95925 4.66937,-7.0539 4.66937,-7.0539" stroke-linecap="round"/><path d="M217.94548,208.4396c-3.00499,-3.8852 -2.23156,-7.99274 -0.04672,-11.84264c0.67445,-1.18846 2.27575,-3.69437 3.41393,-4.57467c4.82513,-3.73198 10.88252,-2.43 14.81514,2.65456c3.93262,5.08456 3.22672,13.41927 -1.59843,17.15125c-4.82514,3.73198 -12.65131,1.69607 -16.58393,-3.38849z" stroke-linecap="butt"/></g><g data-paper-data="{&quot;index&quot;:null}" stroke="#000000" stroke-width="2" stroke-linecap="round"><path d="M189.94832,203.32747c0,0 5.26717,-8.29393 10.12968,-11.4573c2.09138,-1.36057 4.97283,-2.47571 6.50404,-2.30757c1.77783,0.19522 2.03791,1.82672 1.88807,2.19025c-1.01071,2.45205 -4.78162,6.07524 -6.65081,7.28857c-3.27641,2.12679 -12.00564,4.48172 -12.00564,4.48172" fill="#d8d8d8"/><path d="M205.74463,195.45578l-3.94939,-4.73588" fill="none"/></g><path d="M273.96045,166.75233l-10.89321,10.66956c0,0 -4.25972,3.49701 -6.1216,2.86237c-1.05702,-0.36029 -4.84414,-1.21712 -6.42276,-2.56724c-1.97678,-1.69065 -1.46792,-4.70497 -1.84362,-5.84295c-0.16404,-0.49688 2.26148,-4.12551 2.26148,-4.12551c0,0 2.72041,-2.10315 4.52123,-3.49534c2.67274,-2.06629 9.9594,-7.69955 9.9594,-7.69955z" data-paper-data="{&quot;index&quot;:null}" fill="#949494" stroke="#000000" stroke-width="2.5" stroke-linecap="butt"/><g data-paper-data="{&quot;index&quot;:null}"><g><path d="M252.34679,206.95564l-5.7943,1.29915l-1.09128,-4.86722l5.7943,-1.29915z" data-paper-data="{&quot;index&quot;:null}" fill="#000000" stroke="none" stroke-width="0" stroke-linecap="butt"/><path d="M253.24263,193.35101l4.71065,-1.65738l4.20916,-2.16362l4.36207,1.02831l-1.83405,-2.86393l0.01267,-2.68727l-0.328,-1.68112l0.51574,-2.51694l3.51834,1.86412l6.68336,7.42166l0.328,1.68112l0.3185,3.69658l-6.75142,7.02243l-10.75067,0.28525z" fill="#949494" stroke="#000000" stroke-width="2.5" stroke-linecap="round"/><path d="M257.72914,203.61759l-2.87185,3.51359l-3.19035,-0.18299l-2.50744,-2.53119l0.35966,-5.03705l1.87204,-5.19788l1.85146,-0.83106z" fill="#242424" stroke="#000000" stroke-width="2.5" stroke-linecap="round"/><path d="M249.68156,200.55642l1.68904,-2.00755l4.70114,0.35807" fill="none" stroke="#000000" stroke-width="2.5" stroke-linecap="round"/></g><g stroke="none" stroke-linecap="butt"><path d="M273.53451,197.00238l-3.71685,4.44903l-11.87224,-0.2049l-3.30975,-7.08156l7.31127,-3.63023l6.01543,1.0775z" fill="#8c6200" stroke-width="NaN"/><path d="M262.31296,203.08963l-4.98979,-2.08355l-3.00029,-6.97746l2.97146,-1.01959z" fill="#8c0081" stroke-width="NaN"/><path d="M268.57226,183.2907l7.0116,8.89738l-3.20445,4.75792l-5.13184,-5.22443l-1.20424,-3.12787l-1.89294,-2.90443l0.07034,-1.35771l0.8058,-2.6232z" fill="#8c0081" stroke-width="0"/><g fill="#ffffff" stroke-width="0.5"><path d="M259.70017,197.14806c-0.00045,-0.00007 -0.0009,-0.00013 -0.00135,-0.0002c-0.27097,-0.03835 -0.23264,-0.30932 -0.23264,-0.30932c0.20101,-1.32177 1.3282,-1.7148 2.279,-1.14068c-0.10939,0.07051 -0.07946,0.21215 -0.07946,0.21215c0.20295,0.96069 0.38714,1.92216 0.64537,2.86746c-0.29924,0.3601 -0.65577,0.60255 -0.98398,0.53651c-0.46232,-0.09305 -0.87633,-0.53651 -1.15888,-0.86548c-0.33309,-0.45763 -0.40739,-0.81984 -0.46807,-1.30045zM261.05948,198.17092c-0.02343,-0.11091 -0.13234,-0.18182 -0.24325,-0.15839c-0.11091,0.02343 -0.18183,0.13235 -0.1584,0.24325c0.02343,0.11091 0.13234,0.18182 0.24325,0.15839c0.11091,-0.02343 0.18182,-0.13234 0.15839,-0.24325zM260.67953,196.53793c-0.02343,-0.11091 -0.13235,-0.18181 -0.24325,-0.15839c-0.11092,0.02343 -0.18183,0.13233 -0.15841,0.24324c0.02343,0.11091 0.13235,0.18183 0.24325,0.1584c0.11091,-0.02343 0.18182,-0.13234 0.15839,-0.24325z"/><path d="M261.41858,194.66751c-0.07857,-0.37187 0.29329,-0.45043 0.29329,-0.45043l-0.06503,0.05475c0.16582,-0.12906 0.36217,-0.21225 0.57113,-0.26415l-0.01035,-0.01626l0.01072,-0.00683l-0.03436,-0.1081l0.45013,-0.14313c0.01345,-0.00447 0.0273,-0.00821 0.04148,-0.01121c0.20538,-0.0434 0.40704,0.08791 0.45043,0.29329c0.02361,0.11175 -0.00452,0.22242 -0.06815,0.30707c0.00535,0.00417 0.00818,0.00666 0.00818,0.00666c0.44611,0.39293 0.85356,0.81508 1.27099,1.22821c0.09149,-0.2694 0.18863,-0.53783 0.29306,-0.80536c0.28771,-0.73713 0.30263,-1.62161 0.93632,-2.10801c-0.04351,0.03311 -0.15182,0.11552 -0.19774,0.15045l-0.07446,-0.11308l-0.03813,0.04156l-0.2979,-0.27328c-0.05813,-0.05201 -0.10082,-0.12234 -0.11818,-0.2045c-0.04338,-0.20538 0.08793,-0.40703 0.29331,-0.45042c0.03402,-0.00719 0.06794,-0.00959 0.10105,-0.00765l0.38299,0.01409l-0.00249,0.06775c0.3303,-0.01838 0.57382,0.08529 0.94956,0.38838c0.1094,0.02071 0.23938,0.08956 0.28222,0.29228c0.07857,0.37187 -0.2933,0.45044 -0.2933,0.45044l-0.37541,-0.07607c-0.03243,-0.02963 -0.06583,-0.05558 -0.09949,-0.07886c-0.17905,0.54761 -0.45016,1.30726 -0.49492,1.44259c-0.20825,0.62962 -0.41158,1.25283 -0.60775,1.87696c0.14263,0.12805 0.28887,0.25314 0.44039,0.37397c0.29294,0.23361 0.61089,0.42186 0.92285,0.62088c0.09239,-0.24343 0.236,-0.48892 0.47707,-0.76531l0.24562,-0.3772c0.05307,-0.08151 0.13724,-0.14277 0.23993,-0.16447c0.20539,-0.04339 0.40705,0.08792 0.45044,0.2933c0.00981,0.04646 0.01068,0.09272 0.00379,0.137l-0.0982,0.74486l-0.02996,-0.00394c0.01767,0.6361 -0.09547,1.14846 -0.47114,1.95742l-0.09944,0.15972c0,0 -0.2074,0.3185 -0.5259,0.1111c-0.03102,-0.0202 -0.05706,-0.04146 -0.07878,-0.06337c-0.03134,0.00096 -0.06544,-0.00166 -0.10252,-0.00868c-0.37347,-0.07051 -0.30297,-0.44398 -0.30297,-0.44398c0.05741,-0.29754 0.08644,-0.55466 0.11779,-0.79048c-0.40132,-0.28142 -0.83605,-0.50543 -1.22392,-0.8137c-0.07122,-0.05659 -0.14131,-0.11423 -0.21042,-0.17275c-0.16992,0.56085 -0.33336,1.1249 -0.4887,1.69737c0.30574,0.1675 0.53935,0.38687 0.52129,0.6683c-0.08385,1.30667 -1.88021,0.07184 -2.18655,-0.2087l-0.14694,-0.21757c0,0 -0.19213,-0.32794 0.13581,-0.52006c0.01889,-0.01108 0.03734,-0.02041 0.05533,-0.02819c-0.19614,-0.77383 -0.3503,-1.55722 -0.5144,-2.34041c0.04947,0.04569 0.09794,0.09437 0.14526,0.14608c0.07283,0.0796 0.69342,0.74861 0.72712,0.85064c0.10007,0.30285 -0.05205,0.84342 -0.3261,1.33134c0.02357,-0.00806 0.04629,-0.01345 0.06813,-0.01654c0.14409,-0.13349 0.35541,-0.0783 0.35541,-0.0783c0.10846,0.02858 0.27056,0.06993 0.4521,0.12597c0.1756,-0.67507 0.3514,-1.34316 0.55114,-2.00513c-0.50364,-0.48838 -0.9818,-1.00007 -1.51396,-1.46269c0,0 -0.03036,-0.02658 -0.06264,-0.0723c-0.13998,0.17575 -0.29952,0.33705 -0.46757,0.48505c0,0 -0.28692,0.24927 -0.53619,-0.03764c-0.16869,-0.19416 -0.09181,-0.3711 -0.02449,-0.46519c-0.02411,-0.03816 -0.04359,-0.08532 -0.05588,-0.14351z"/></g></g></g><path d="M228.10984,193.671l17.13137,0.63347l0.59875,11.1502l-0.66608,1.44748l-15.38499,1.92413l-6.70106,-1.44655l-2.52778,-4.67115l1.01787,-5.26129l2.29714,-2.4509z" data-paper-data="{&quot;index&quot;:null}" fill="#949494" stroke="#000000" stroke-width="2.5" stroke-linecap="round"/><g data-paper-data="{&quot;index&quot;:null}"><g><path d="M273.16211,155.82512l-4.15836,4.23909l-3.56083,-3.49302l4.15835,-4.23908z" fill="#000000" stroke="none" stroke-width="0" stroke-linecap="butt"/><path d="M288.29958,130.04148c0,0 1.21278,-0.37069 1.52438,0.6184c0.81653,2.5918 3.55558,15.50646 3.55558,15.50646l-11.76942,13.07429c0,0 -3.75429,-6.31638 -5.49546,-8.70096c-0.6755,-0.92511 6.63391,-9.82752 6.41202,-10.58831c-0.23064,-0.79078 3.14119,0.89431 3.90788,0.6346c0.86566,-0.29324 -0.85129,-2.50417 -0.97618,-3.02603c-0.35188,-1.47039 -0.53305,-4.26863 -0.53305,-4.26863l3.37426,-3.24981z" fill="#949494" stroke="#000000" stroke-width="2.5" stroke-linecap="butt"/><path d="M281.07306,161.07879l-9.64288,-3.55398l-1.24582,-2.70904l0.24476,-2.56982l1.93896,-2.02834l3.28934,-0.54293z" fill="#242424" stroke="#000000" stroke-width="2.5" stroke-linecap="butt"/><path d="M278.0839,154.71138l-0.48177,2.06915l-1.91319,1.19054" fill="none" stroke="#000000" stroke-width="2.5" stroke-linecap="round"/><path d="M285.83052,140.64591l5.98633,0.52129" fill="none" stroke="#000000" stroke-width="2.5" stroke-linecap="round"/></g><g stroke="none" stroke-linecap="butt"><path d="M292.3773,144.90278l-10.05403,12.86307l-6.53945,-7.8186l2.60824,-2.02283l5.00712,-6.5293z" fill="#8c6200" stroke-width="NaN"/><path d="M284.67582,154.6398l-2.59005,2.9417l-5.94343,-7.77372l2.7937,-2.09074z" fill="#8c0081" stroke-width="NaN"/><path d="M292.68275,145.23792l-10.8413,-1.26148l1.42143,-2.65368l4.11726,-1.1891l-0.986,-2.92036l-0.11024,-3.46507l0.76491,-1.12394l2.05043,-1.8238z" fill="#8c0081" stroke-width="0"/><g fill="#ffffff" stroke-width="0.5"><path d="M281.99097,151.99656c-0.00039,0.00023 -0.00077,0.00046 -0.00117,0.00071c-0.23494,0.14038 -0.37531,-0.09457 -0.37531,-0.09457c-0.67381,-1.15474 -0.0436,-2.16858 1.05685,-2.31906c-0.04082,0.12356 0.07143,0.21499 0.07143,0.21499c0.76135,0.62005 1.50858,1.25251 2.30327,1.82586c-0.00666,0.46816 -0.13179,0.88077 -0.42867,1.03552c-0.41819,0.218 -1.0189,0.13298 -1.44536,0.05448c-0.54663,-0.14687 -0.83197,-0.38205 -1.18105,-0.7179zM283.4024,151.96821c-0.07159,0.08789 -0.05837,0.21717 0.02953,0.28876c0.08789,0.07159 0.21717,0.05837 0.28876,-0.02953c0.07159,-0.08789 0.05837,-0.21717 -0.02953,-0.28876c-0.08789,-0.07159 -0.21717,-0.05837 -0.28876,0.02953zM282.36981,150.90667c-0.08789,-0.07159 -0.21717,-0.05837 -0.28876,0.02954c-0.07159,0.08789 -0.05837,0.21717 0.02953,0.28876c0.08789,0.07158 0.21717,0.05837 0.28876,-0.02954c0.07159,-0.0879 0.05837,-0.21718 -0.02953,-0.28877z"/><path d="M281.77003,148.98704c-0.2947,-0.24 -0.0547,-0.53471 -0.0547,-0.53471l-0.01622,0.08345c0.04796,-0.20457 0.14849,-0.39264 0.27849,-0.56428l-0.01828,-0.00615l0.00405,-0.01204l-0.09465,-0.06253l0.26035,-0.39411c0.00766,-0.01192 0.01608,-0.02354 0.02524,-0.03478c0.13256,-0.16276 0.37195,-0.18726 0.53471,-0.05471c0.08857,0.07213 0.13619,0.1759 0.13985,0.28174c0.00679,-0.0001 0.01055,0.00005 0.01055,0.00005c0.59394,0.02554 1.17615,0.09811 1.76045,0.15738c-0.09803,-0.26709 -0.19104,-0.53699 -0.27783,-0.81075c-0.23912,-0.75428 -0.78308,-1.45189 -0.5955,-2.22841c-0.01306,0.05308 -0.04558,0.18526 -0.05937,0.24128l-0.12897,-0.04123l-0.00357,0.0563l-0.40346,-0.02553c-0.0779,-0.00397 -0.15529,-0.03187 -0.22041,-0.08489c-0.16277,-0.13257 -0.18726,-0.37195 -0.05471,-0.53471c0.02196,-0.02696 0.04685,-0.05013 0.07383,-0.06942l0.30686,-0.22959l0.04061,0.05427c0.24547,-0.22177 0.50008,-0.29404 0.98282,-0.29422c0.09813,-0.0526 0.24253,-0.08067 0.40319,0.05017c0.2947,0.24002 0.0547,0.53471 0.0547,0.53471l-0.33989,0.17661c-0.04384,-0.00269 -0.08614,-0.00192 -0.12695,0.00112c0.20464,0.53857 0.47084,1.29996 0.52101,1.43338c0.23342,0.62071 0.46666,1.23337 0.70603,1.84223c0.19141,0.01005 0.38379,0.01553 0.57759,0.01437c0.37466,-0.00223 0.74031,-0.05546 1.10808,-0.09656c-0.08101,-0.24745 -0.12345,-0.52868 -0.10947,-0.89517l-0.04582,-0.44777c-0.0099,-0.09676 0.01712,-0.19731 0.08339,-0.27869c0.13257,-0.16276 0.37196,-0.18726 0.53472,-0.05471c0.03681,0.02998 0.06656,0.06544 0.089,0.10423l0.39144,0.64127l-0.02579,0.01574c0.4133,0.48388 0.64708,0.9536 0.86289,1.81903l0.02295,0.18676c0,0 0.03867,0.37812 -0.33944,0.41679c-0.03683,0.00376 -0.07043,0.00359 -0.10109,0.00017c-0.02379,0.02042 -0.05196,0.0398 -0.08521,0.05764c-0.33489,0.17972 -0.51462,-0.15517 -0.51462,-0.15517c-0.14222,-0.26759 -0.28112,-0.4859 -0.40486,-0.68908c-0.48904,0.0331 -0.96803,0.13186 -1.46347,0.13562c-0.09097,0.00069 -0.18169,-0.00013 -0.27223,-0.00226c0.22006,0.54314 0.44718,1.08469 0.68588,1.62772c0.34311,-0.0617 0.66267,-0.03775 0.82539,0.19258c0.75549,1.06942 -1.41791,1.23689 -1.8325,1.211l-0.251,-0.077c0,0 -0.35548,-0.1345 -0.22099,-0.48998c0.00775,-0.02049 0.01624,-0.03932 0.02535,-0.05668c-0.63867,-0.47893 -1.25067,-0.99168 -1.8703,-1.49802c0.06719,0.00447 0.1355,0.0119 0.20479,0.02243c0.10666,0.01619 1.00976,0.14696 1.10008,0.20518c0.26809,0.17281 0.48926,0.68897 0.5825,1.24077c0.01328,-0.02108 0.02758,-0.03953 0.04263,-0.05566c0.02828,-0.19438 0.22737,-0.28417 0.22737,-0.28417c0.10233,-0.04589 0.25445,-0.11554 0.43092,-0.18597c-0.28738,-0.63559 -0.57023,-1.26586 -0.83061,-1.9064c-0.69867,-0.06367 -1.39213,-0.1615 -2.09679,-0.18721c0,0 -0.04032,-0.00161 -0.09415,-0.01693c0.00146,0.22468 -0.02137,0.45041 -0.05916,0.67112c0,0 -0.06668,0.37418 -0.44086,0.3075c-0.25323,-0.04513 -0.30453,-0.23109 -0.31125,-0.34659c-0.04272,-0.01455 -0.0875,-0.039 -0.13361,-0.07656z"/></g></g></g><g><g stroke="#000000" stroke-width="2.5"><path d="M247.55307,154.12898c0,0 -0.46452,-1.46563 -1.37129,-2.22401c-0.81104,-0.67831 -3.81425,-2.11296 -3.81425,-2.11296c0,0 -5.87594,-0.32919 -7.35919,-3.35318c-0.16837,-0.34327 -3.28481,-8.15824 -1.66005,-14.66867c1.16131,-4.65338 6.93679,-8.62699 7.89822,-8.79054c0.74316,-0.12641 4.72025,-2.05631 9.13827,-2.65062c6.22623,-0.83756 12.78267,-0.34105 12.78267,-0.34105l5.43866,12.6442l-17.84118,10.86595l4.47109,5.89368z" fill="#949494" stroke-linecap="butt"/><path d="M266.32672,126.64772l-12.49134,4.63243l-4.57585,-1.08529l-8.0664,-6.7464l11.37253,-2.8264l10.09868,-0.36669z" fill="#000000" stroke-linecap="round"/><path d="M249.32343,132.10879l1.41528,-0.87263" fill="none" stroke-linecap="round"/><path d="M251.90782,133.58486l-2.14649,1.04444" fill="none" stroke-linecap="round"/><path d="M250.40139,137.02511l1.33777,-0.54579" fill="none" stroke-linecap="round"/><path d="M267.19713,133.49726c0,0 -10.84073,6.21903 -16.01639,10.072c-1.27343,0.948 0.85805,1.79625 0.02466,2.32292c-7.38396,4.66631 -9.22835,3.39812 -10.43616,2.9781c-2.99986,-1.0432 -6.5928,-2.69313 -6.80823,-3.24639c-0.27702,-0.71142 0.27165,-3.12041 0.27165,-3.12041l4.14601,-0.75293l5.6475,-1.24978l5.4757,-1.98099l8.61634,-5.03364l9.11815,-0.59924" fill="#373737" stroke-linecap="round"/><path d="M268.0523,138.91835l0.05602,2.55762l-11.36476,4.83718l-2.59013,0.58616l-1.80444,-1.81345l-0.30708,-1.93447l0.53462,-1.77644l1.49737,-0.12104l1.65091,0.84621l1.33933,0.72067z" fill="#000000" stroke-linecap="round"/><path d="M250.24222,150.79662l-1.16911,-2.34868" fill="none" stroke-linecap="round"/><path d="M253.03925,146.28154l-7.65257,3.88131" fill="none" stroke-linecap="round"/><path d="M236.67073,130.14361l0.11105,2.44296l1.52633,1.57033l-4.03005,0.25247l-2.1664,-3.96614l0.83597,-4.9802l2.2104,0.86948l1.94746,2.70589z" fill="#151515" stroke-linecap="round"/><path d="M239.21062,132.9051l-2.58124,2.14965l-3.16056,-1.95793l0.06075,-1.71175l0.89985,-3.06627l1.4928,-1.19949l1.50956,0.18542l1.63423,0.3876l1.77566,1.97468z" fill="none" stroke-linecap="round"/></g><g fill="#ff0000" stroke="none" stroke-width="0.5" stroke-linecap="butt"><path d="M256.73935,129.28863c-0.59812,0.0183 -0.61642,-0.57982 -0.61642,-0.57982l-0.00461,-0.46625c0.20621,-1.35979 0.36779,-2.70093 0.75081,-4.00843c-1.79029,0.38422 -3.53075,1.01086 -5.33298,1.32724c0,0 -0.58952,0.1027 -0.69221,-0.48682c-0.1027,-0.58951 0.48682,-0.6922 0.48682,-0.6922c2.03684,-0.35189 3.9952,-1.10568 6.0345,-1.46368l0.17677,-0.0308c0.09923,-0.04251 0.22285,-0.05754 0.37345,-0.01358c0.1105,0.02249 0.23581,0.07627 0.3273,0.19723c0.0993,0.11462 0.12586,0.24837 0.12489,0.36113c0.01164,0.15531 -0.02811,0.27252 -0.08954,0.36054c-0.57903,1.48956 -0.74193,3.0544 -0.97632,4.62735l0.01735,0.25167c0,0 0.01829,0.59811 -0.57982,0.61641z"/><path d="M255.18748,120.55795c0.0489,0.59639 -0.5475,0.6453 -0.5475,0.6453l-0.30311,-0.03564c-2.00093,1.18443 -5.00271,1.49913 -6.67545,3.06636c0,0 -0.44222,0.40314 -0.84536,-0.03907c-0.40313,-0.44221 0.03907,-0.84536 0.03907,-0.84536c1.84508,-1.64791 4.73502,-1.94589 6.87196,-3.21171l0.81509,-0.12736c0,0 0.59639,-0.0489 0.6453,0.5475z"/></g></g></g></g></svg>