<svg version="1.1" xmlns="http://www.w3.org/2000/svg" xmlns:xlink="http://www.w3.org/1999/xlink" width="134.97563" height="261.12651" viewBox="0,0,134.97563,261.12651"><defs><radialGradient cx="211.70304" cy="97.91801" r="14.75678" gradientUnits="userSpaceOnUse" id="color-1"><stop offset="0" stop-color="#b8ffff" stop-opacity="0"/><stop offset="1" stop-color="#b8ffff"/></radialGradient><radialGradient cx="224.87873" cy="96.23152" r="14.75678" gradientUnits="userSpaceOnUse" id="color-2"><stop offset="0" stop-color="#b8ffff" stop-opacity="0"/><stop offset="1" stop-color="#b8ffff"/></radialGradient></defs><g transform="translate(-182.51219,-49.43675)"><g data-paper-data="{&quot;isPaintingLayer&quot;:true}" fill-rule="nonzero" stroke-linejoin="miter" stroke-miterlimit="10" stroke-dasharray="" stroke-dashoffset="0" style="mix-blend-mode: normal"><path d="M206.32131,290.24498l4.42703,-66.30308l60.13388,0.2474l34.40451,40.05568c0,0 -32.42552,31.73037 -41.95577,19.43121c-5.06955,-6.54245 -20.91454,-34.99433 -24.54474,-34.99433c-2.15737,0 3.06652,35.91621 0.3967,38.3858c-11.25602,10.4118 -32.86161,3.17733 -32.86161,3.17733z" fill="#85785e" stroke="#584f3e" stroke-width="2" stroke-linecap="butt"/><path d="M205.91973,223.78627c0,0 2.76627,-6.72417 3.07559,-13.14613c0.67177,-13.94714 0.79807,-67.27832 0.79807,-67.27832c0,0 16.07875,-4.79595 24.53315,-4.79595c10.52016,0 33.75614,4.79595 33.75614,4.79595c0,0 -0.91312,48.86252 -0.47148,63.64043c0.271,9.06814 2.86946,16.59957 2.86946,16.59957z" fill="#3400b6" stroke="#220075" stroke-width="2" stroke-linecap="butt"/><path d="M196.66408,102.99395c0,-23.43109 18.99465,-42.42575 42.42575,-42.42575c23.43109,0 42.42575,18.99465 42.42575,42.42575c0,23.43109 -18.99465,42.42575 -42.42575,42.42575c-23.43109,0 -42.42575,-18.99465 -42.42575,-42.42575z" fill="#b2936b" stroke="#856e50" stroke-width="2" stroke-linecap="butt"/><path d="M234.15443,103.55721c0,7.24763 -3.68095,13.123 -8.22163,13.123c-4.54068,0 -8.22164,-5.87536 -8.22164,-13.123c0,-7.24763 3.68095,-13.123 8.22164,-13.123c4.54068,0 8.22163,5.87536 8.22163,13.123z" fill="#ffffff" stroke="#bababa" stroke-width="2" stroke-linecap="butt"/><path d="M218.65981,103.55721c0,7.24763 -3.68095,13.12299 -8.22164,13.12299c-4.54068,0 -8.22163,-5.87536 -8.22163,-13.12299c0,-7.24763 3.68095,-13.123 8.22163,-13.123c4.54068,0 8.22164,5.87536 8.22164,13.123z" fill="#ffffff" stroke="#bababa" stroke-width="2" stroke-linecap="butt"/><path d="M212.23007,94.22881v18.55138" fill="none" stroke="#000000" stroke-width="2" stroke-linecap="round"/><path d="M221.71657,113.20182v-19.50003" fill="none" stroke="#000000" stroke-width="2" stroke-linecap="round"/><path d="M228.88414,85.26934l-12.12164,11.59461l-11.17299,-10.11893" fill="none" stroke="#000000" stroke-width="2" stroke-linecap="round"/><path d="M204.21924,123.63697c0,0 6.75966,-5.12544 12.2071,-5.34459c6.56856,-0.26425 24.47404,3.86891 24.47404,3.86891" fill="none" stroke="#000000" stroke-width="2" stroke-linecap="round"/><path d="M198.68237,89.98492l4.42703,-20.65949l74.66931,0.14757l1.91838,20.36436c0,0 -6.64595,6.87381 -15.05054,7.1287c-4.18376,0.12688 -8.13731,-6.71443 -13.24702,-6.27432c-2.97258,0.25603 -7.74141,5.26683 -10.66357,5.23889c-8.62913,-0.08253 -15.00382,-6.98687 -21.10032,-6.71381c-2.0821,0.09326 -4.6196,5.75379 -6.04898,5.75639c-7.10754,0.01295 -14.90429,-4.98828 -14.90429,-4.98828z" fill="#000000" stroke="#000000" stroke-width="2" stroke-linecap="butt"/><path d="M218.23818,103.3991c0,8.14995 -4.93153,14.75678 -11.01488,14.75678c-6.08335,0 -11.01488,-6.60684 -11.01488,-14.75678c0,-8.14995 4.93153,-14.75678 11.01488,-14.75678c6.08335,0 11.01488,6.60684 11.01488,14.75678z" fill="url(#color-1)" stroke="#000000" stroke-width="2" stroke-linecap="butt"/><path d="M240.26795,103.18829c0,8.14995 -4.93153,14.75678 -11.01488,14.75678c-6.08335,0 -11.01489,-6.60684 -11.01489,-14.75678c0,-8.14995 4.93154,-14.75678 11.01489,-14.75678c6.08335,0 11.01488,6.60684 11.01488,14.75678z" fill="url(#color-2)" stroke="#000000" stroke-width="2" stroke-linecap="butt"/><path d="M196.02615,84.82005c0,0 -2.15863,-3.30182 -0.52476,-7.16336c1.55106,-3.66583 6.8844,-7.83607 7.40056,-10.16479c1.05524,-4.76086 4.63449,-11.30001 4.63449,-11.30001c0,0 36.34304,-5.75514 46.48386,-5.75514c12.30932,0 22.13517,5.75514 22.13517,5.75514c0,0 4.1319,22.91882 4.1319,28.18545c0,3.18706 -4.1319,0.4427 -4.1319,0.4427z" fill="#3400b6" stroke="#220075" stroke-width="2" stroke-linecap="butt"/><text transform="translate(204.99743,74.1894) scale(0.36892,0.36892)" font-size="40" xml:space="preserve" fill="#ff9c00" fill-rule="nonzero" stroke="none" stroke-width="1" stroke-linecap="butt" stroke-linejoin="miter" stroke-miterlimit="10" stroke-dasharray="" stroke-dashoffset="0" font-family="Sans Serif" font-weight="normal" text-anchor="start" style="mix-blend-mode: normal"><tspan x="0" dy="0">clerk</tspan></text><path d="M208.50217,212.32093c0,0 7.27119,7.54412 6.46309,8.12595c-0.71852,0.51733 -1.29822,5.33962 -1.29822,5.33962c0,0 -5.92349,-1.47878 -5.82255,-0.34325c0.13498,1.5185 -3.21598,-1.50134 -3.21598,-1.50134c0,0 -6.88175,2.13199 -9.7595,1.85431c-3.84661,-0.37116 -11.26891,-3.88337 -11.26891,-3.88337c0,0 3.86416,-28.92205 8.6201,-42.74824c2.91694,-8.47997 17.20426,-32.32688 17.20426,-32.32688z" fill="#3400b6" stroke="#220075" stroke-width="2" stroke-linecap="round"/><path d="M267.78344,147.39111c0,0 14.28732,23.84691 17.20426,32.32688c4.75594,13.82619 8.6201,42.74824 8.6201,42.74824c0,0 -7.4223,3.51221 -11.26891,3.88337c-2.87775,0.27768 -9.7595,-1.85431 -9.7595,-1.85431c0,0 -3.35096,3.01984 -3.21598,1.50134c0.10094,-1.13553 -5.82255,0.34325 -5.82255,0.34325c0,0 -0.57971,-4.82229 -1.29822,-5.33962c-0.8081,-0.58183 6.46309,-8.12595 6.46309,-8.12595z" data-paper-data="{&quot;index&quot;:null}" fill="#3400b6" stroke="#220075" stroke-width="2" stroke-linecap="round"/><path d="M209.24,198.302l16.048,25.27099h-10.69867l0.73784,-3.13582l-6.64055,-7.56285z" fill="#220075" stroke="#220075" stroke-width="2" stroke-linecap="round"/><path d="M268.45159,213.4277l-6.64055,7.56285l0.73784,3.13582h-10.69867l16.048,-25.27099z" data-paper-data="{&quot;index&quot;:null}" fill="#220075" stroke="#220075" stroke-width="2" stroke-linecap="round"/><path d="M231.01487,303.09573c0,5.8169 -4.28581,6.71753 -17.92025,6.71753c-13.63444,0 -22.43165,-0.73477 -22.43165,-6.55167c0,-2.78373 1.06403,-3.28109 5.6217,-4.74618c2.64297,-0.8496 4.11636,-3.12698 7.71857,-4.02831c3.16627,-0.79225 7.51998,-5.2411 10.84581,-5.2411c2.27028,0 4.97026,-0.20099 7.05828,0.04381c10.45183,1.22537 9.10754,8.9576 9.10754,13.80592z" fill="#935300" stroke="#603600" stroke-width="1.5" stroke-linecap="butt"/><path d="M285.49346,274.95648c2.08803,-0.2448 4.788,-0.04381 7.05828,-0.04381c3.32583,0 7.67954,4.44885 10.84581,5.2411c3.60222,0.90133 5.0756,3.17871 7.71857,4.02831c4.55767,1.4651 5.6217,1.96246 5.6217,4.74619c0,5.8169 -8.79721,6.55167 -22.43165,6.55167c-13.63445,0 -17.92025,-0.90063 -17.92025,-6.71753c0,-4.84832 -1.34429,-12.58055 9.10754,-13.80592z" data-paper-data="{&quot;index&quot;:null}" fill="#935300" stroke="#603600" stroke-width="1.5" stroke-linecap="butt"/><path d="M217.19248,227.53722c0,2.62335 -3.13401,4.75 -7,4.75c-3.86599,0 -7,-2.12665 -7,-4.75c0,-2.62335 3.13401,-4.75 7,-4.75c3.86599,0 7,2.12665 7,4.75z" fill="#b2936b" stroke="#856e50" stroke-width="2" stroke-linecap="butt"/><path d="M268.69248,228.03723c0,2.62336 -3.13401,4.75 -7,4.75c-3.86599,0 -7,-2.12664 -7,-4.75c0,-2.62336 3.13401,-4.75 7,-4.75c3.86599,0 7,2.12664 7,4.75z" fill="#b2936b" stroke="#856e50" stroke-width="2" stroke-linecap="butt"/></g></g></svg>