<svg version="1.1" xmlns="http://www.w3.org/2000/svg" xmlns:xlink="http://www.w3.org/1999/xlink" width="131.48773" height="98.35852" viewBox="0,0,131.48773,98.35852"><g transform="translate(-174.4836,-134.40192)"><g data-paper-data="{&quot;isPaintingLayer&quot;:true}" fill-rule="nonzero" stroke-linejoin="miter" stroke-miterlimit="10" stroke-dasharray="" stroke-dashoffset="0" style="mix-blend-mode: normal"><path d="M235.14542,181.40763l-2.158,17.00671l-11.15918,-0.39754l-1.38235,-0.79245l-0.54509,-15.49525l2.0381,-6.54545l4.87788,-2.10134l5.1496,1.4828l2.23638,2.50646z" data-paper-data="{&quot;index&quot;:null}" fill="#949494" stroke="#000000" stroke-width="2.5" stroke-linecap="round"/><g data-paper-data="{&quot;index&quot;:null}" fill="#949494" stroke="#000000" stroke-width="2"><path d="M207.69551,188.13929c0,0 -2.6705,-13.39947 2.37762,-18.81638c1.81462,-1.94719 1.64703,-2.19613 4.59558,-5.48437c1.06205,-1.18441 2.27267,-2.35849 3.57867,-3.76988c3.50214,-3.78476 7.24018,-7.87607 7.24018,-7.87607c0,0 11.56621,5.96329 15.85338,7.34135c0.41394,0.13306 20.3587,7.04153 20.77737,7.17316c10.24694,3.22144 6.96405,1.99351 6.96405,1.99351c0,0 5.75726,-1.56408 7.20968,-0.77121c2.7891,1.52256 6.61926,-0.67031 6.49086,5.22646c-0.06035,2.77159 -0.3201,2.9979 -1.0986,6.57601c-1.13645,5.22325 -3.39397,13.03108 -6.7593,17.61119c-4.52921,6.16411 -10.25256,8.36236 -10.25256,8.36236z" stroke-linecap="butt"/><path d="M230.11016,194.34609c0,0 11.45682,-5.73977 13.99109,-14.77105c0.97036,-4.19927 -0.89087,-14.01641 -0.89087,-14.01641l-2.3178,-5.98444l1.85747,5.08798c0,0 4.04891,0.80708 6.26773,1.24937c2.51225,0.50077 8.03507,1.60164 8.03507,1.60164l0.28268,-1.6556" stroke-linecap="round"/><path d="M266.83296,175.8963c0,0 2.81129,1.44231 4.84604,3.81945c2.47995,2.89724 4.2063,7.06947 3.31381,10.28151c-0.88526,3.18602 -3.11772,7.48874 -6.6577,9.42731c-4.36817,2.39211 -10.20808,2.00333 -11.72576,1.31473c-4.11556,-1.86731 -5.14267,-10.74157 -4.81505,-12.68892c0.90239,-5.36377 5.28765,-11.09164 6.5805,-12.01267c2.41055,-1.7173 8.45816,-0.14142 8.45816,-0.14142" stroke-linecap="round"/><path d="M215.12153,172.99651c1.50307,-4.67606 5.32743,-6.36256 9.738,-6.73956c1.36154,-0.11639 4.33378,-0.21402 5.70363,0.2263c5.80732,1.8667 8.16133,7.59781 6.19426,13.71737c-1.96706,6.11955 -9.23859,10.25363 -15.04592,8.38693c-5.80733,-1.8667 -8.55704,-9.4715 -6.58998,-15.59104z" stroke-linecap="butt"/></g><g data-paper-data="{&quot;index&quot;:null}" stroke="#000000" stroke-width="2" stroke-linecap="round"><path d="M208.8273,137.5019c0,0 8.93985,4.07571 12.74225,8.45665c1.63543,1.88425 3.13647,4.58484 3.18065,6.12461c0.05129,1.78779 -1.5289,2.2699 -1.90959,2.17151c-2.56781,-0.66366 -6.67546,-3.90011 -8.13446,-5.58454c-2.55743,-2.95257 -6.0912,-11.27468 -6.0912,-11.27468" fill="#d8d8d8"/><path d="M218.79785,152.06471l4.14735,-4.56353" fill="none"/></g><path d="M263.47486,208.02251l-6.0796,-13.98357c0,0 -1.74659,-5.22721 -0.48929,-6.74001c0.71378,-0.85885 2.8657,-4.09082 4.69027,-5.08369c2.28477,-1.24327 4.91903,0.30778 6.11616,0.36293c0.5227,0.02408 3.04682,3.58483 3.04682,3.58483c0,0 0.99383,3.29184 1.6517,5.47091c0.97642,3.23414 3.6384,12.05134 3.6384,12.05134z" data-paper-data="{&quot;index&quot;:null}" fill="#949494" stroke="#000000" stroke-width="2.5" stroke-linecap="butt"/><g data-paper-data="{&quot;index&quot;:null}"><g><path d="M204.0749,182.74643l5.43472,2.39279l-2.00995,4.56518l-5.43472,-2.39279z" data-paper-data="{&quot;index&quot;:null}" fill="#000000" stroke="none" stroke-width="0" stroke-linecap="butt"/><path d="M195.28056,193.16508l-4.77508,-1.46139l-4.67186,-0.75633l-2.90077,-3.41622l-0.22332,3.39352l-1.60488,2.15545l-0.73362,1.54777l-1.90872,1.71983l-1.72567,-3.58827l-0.9752,-9.93968l0.73362,-1.54777l1.93728,-3.16435l9.60143,-1.64585l8.82241,6.15009z" fill="#949494" stroke="#000000" stroke-width="2.5" stroke-linecap="round"/><path d="M197.76183,182.2392l4.39657,-1.12383l2.45929,2.04051l0.51616,3.52531l-3.27859,3.84085l-4.59132,3.07282l-1.98339,-0.42977z" fill="#242424" stroke="#000000" stroke-width="2.5" stroke-linecap="round"/><path d="M202.42268,189.47872l-2.55081,0.61354l-3.57142,-3.07797" fill="none" stroke="#000000" stroke-width="2.5" stroke-linecap="round"/></g><g stroke="none" stroke-linecap="butt"><path d="M181.11461,178.18448l5.63181,-1.37532l9.43428,7.21018l-1.53835,7.66398l-8.03904,-1.41671l-4.20235,-4.43695z" fill="#8c6200" stroke-width="NaN"/><path d="M193.75903,179.94401l2.77981,4.63808l-1.72567,7.39654l-2.99674,-0.94268z" fill="#8c0081" stroke-width="NaN"/><path d="M176.97186,192.16559l-0.36367,-11.32226l5.40268,-1.92802l1.03029,7.25045l-0.88685,3.23222l-0.19995,3.46106l-0.8623,1.05107l-2.20524,1.63321z" fill="#8c0081" stroke-width="0"/><g fill="#ffffff" stroke-width="0.5"><path d="M192.3362,186.27681c0.00032,0.00032 0.00065,0.00065 0.00097,0.00096c0.19534,0.19166 0.00369,0.38702 0.00369,0.38702c-0.94616,0.9446 -2.08666,0.59204 -2.51124,-0.43428c0.12988,0.00816 0.18985,-0.12361 0.18985,-0.12361c0.40674,-0.89369 0.82905,-1.77687 1.18216,-2.69098c0.45455,-0.11227 0.8854,-0.09583 1.11038,0.15209c0.31691,0.34925 0.38698,0.95187 0.41918,1.38432c-0.00347,0.566 -0.15861,0.90164 -0.39496,1.32448zM191.84907,184.64688c-0.04695,0.10317 -0.00138,0.22487 0.1018,0.27185c0.10318,0.04695 0.22488,0.00137 0.27186,-0.1018c0.04695,-0.10318 0.00138,-0.22487 -0.1018,-0.27185c-0.10317,-0.04695 -0.22487,-0.00138 -0.27185,0.1018zM191.18585,186.18673c-0.04695,0.10318 -0.00137,0.22487 0.10181,0.27184c0.10317,0.04696 0.22489,0.00138 0.27184,-0.10179c0.04695,-0.10318 0.00137,-0.22488 -0.1018,-0.27186c-0.10317,-0.04695 -0.22487,-0.00138 -0.27185,0.1018z"/><path d="M189.48105,187.25365c-0.15743,0.34593 -0.50337,0.1885 -0.50337,0.1885l0.08484,-0.00548c-0.21006,0.00547 -0.41746,-0.04407 -0.61645,-0.1263l-0.00133,0.01924l-0.01269,-0.00088l-0.03648,0.10741l-0.44725,-0.15191c-0.01348,-0.00439 -0.02684,-0.00959 -0.04004,-0.01559c-0.19107,-0.08694 -0.27547,-0.31232 -0.1885,-0.50337c0.04731,-0.10396 0.13563,-0.17633 0.23707,-0.20672c-0.00183,-0.00654 -0.00264,-0.01021 -0.00264,-0.01021c-0.1259,-0.581 -0.20333,-1.16257 -0.29417,-1.74281c-0.2335,0.16256 -0.47099,0.32096 -0.7138,0.47432c-0.669,0.42257 -1.20588,1.12563 -2.00458,1.14108c0.05467,-0.00083 0.19075,-0.00288 0.24845,-0.00375l-0.00717,0.13521l0.05535,-0.01082l0.0776,0.39673c0.01592,0.07636 0.00856,0.15828 -0.02623,0.23474c-0.08697,0.19105 -0.31232,0.27545 -0.50337,0.18848c-0.03165,-0.0144 -0.06038,-0.0326 -0.08588,-0.05381l-0.29991,-0.23861l0.04221,-0.05305c-0.27676,-0.18122 -0.41125,-0.40917 -0.53382,-0.87609c-0.07577,-0.08159 -0.13953,-0.21415 -0.05371,-0.40272c0.15743,-0.34593 0.50338,-0.1885 0.50338,-0.1885l0.25701,0.284c0.00852,0.04309 0.02,0.0838 0.03328,0.12251c0.46908,-0.33451 1.13809,-0.78507 1.25442,-0.86743c0.54125,-0.38319 1.07473,-0.76415 1.60301,-1.15009c-0.03882,-0.1877 -0.08229,-0.37517 -0.13255,-0.56235c-0.09716,-0.36187 -0.24136,-0.70206 -0.37435,-1.04738c-0.21883,0.14111 -0.48009,0.25348 -0.83815,0.33288l-0.42153,0.15785c-0.09107,0.03412 -0.1952,0.03347 -0.29072,-0.01c-0.19106,-0.08696 -0.27546,-0.31233 -0.1885,-0.50338c0.01968,-0.04322 0.04642,-0.08097 0.07825,-0.11252l0.52105,-0.54126l0.02178,0.02096c0.36326,-0.52248 0.75836,-0.86773 1.54079,-1.29592l0.17483,-0.06956c0,0 0.35593,-0.13328 0.48923,0.22266c0.01297,0.03467 0.02133,0.06723 0.02581,0.09775c0.0258,0.01783 0.05168,0.04017 0.07737,0.06781c0.25877,0.27838 -0.01961,0.53715 -0.01961,0.53715c-0.22278,0.20543 -0.39872,0.39514 -0.56389,0.56635c0.15602,0.46466 0.373,0.90295 0.50226,1.38125c0.02375,0.08782 0.04594,0.1758 0.06685,0.26391c0.46958,-0.35059 0.93585,-0.70759 1.4006,-1.0762c-0.14668,-0.31625 -0.20455,-0.63145 -0.02301,-0.84725c0.8429,-1.00197 1.55599,1.05794 1.63609,1.46553l-0.01084,0.26233c0,0 -0.03997,0.37798 -0.41793,0.33799c-0.02178,-0.0023 -0.04217,-0.00573 -0.06126,-0.01014c-0.30133,0.73924 -0.64213,1.46127 -0.97481,2.18904c-0.01271,-0.06613 -0.02284,-0.13408 -0.03023,-0.20377c-0.01139,-0.10728 -0.11389,-1.01403 -0.08047,-1.11616c0.09918,-0.30314 0.5424,-0.64798 1.05252,-0.87807c-0.02376,-0.0075 -0.04524,-0.01666 -0.06465,-0.02711c-0.19519,0.02194 -0.33253,-0.14789 -0.33253,-0.14789c-0.07033,-0.08736 -0.17627,-0.21684 -0.28914,-0.36968c-0.54195,0.43915 -1.07989,0.87258 -1.6335,1.28686c0.11556,0.69197 0.19677,1.38756 0.35057,2.07573c0,0 0.00866,0.03941 0.00751,0.09537c0.21696,-0.05839 0.44109,-0.09354 0.66419,-0.11295c0,0 0.37885,-0.03037 0.40923,0.34848c0.02055,0.25639 -0.14632,0.35317 -0.25634,0.38896c-0.00324,0.04502 -0.01556,0.09455 -0.04018,0.14865z"/></g></g></g><path d="M226.93572,185.46077l-14.00337,9.88891l-7.2401,-8.50096l-0.34858,-1.55479l11.0635,-10.86273l6.20474,-2.91514l4.84322,2.18003l2.38249,4.80009l-0.33938,3.34194z" data-paper-data="{&quot;index&quot;:null}" fill="#949494" stroke="#000000" stroke-width="2.5" stroke-linecap="round"/><g data-paper-data="{&quot;index&quot;:null}"><g><path d="M276.60685,210.0535l-3.57974,-4.73784l3.97979,-3.00698l3.57974,4.73784z" fill="#000000" stroke="none" stroke-width="0" stroke-linecap="butt"/><path d="M299.87721,228.82661c0,0 0.18785,1.25417 -0.83637,1.41656c-2.68386,0.42552 -15.86119,1.23077 -15.86119,1.23077l-11.19639,-13.56825c0,0 6.80082,-2.78211 9.41603,-4.15271c1.01459,-0.53173 8.74217,8.0102 9.52735,7.90289c0.81615,-0.11155 -1.34761,2.97502 -1.20375,3.77163c0.16242,0.89943 2.60231,-0.47282 3.13688,-0.51941c1.50619,-0.13127 4.30057,0.10206 4.30057,0.10206l2.71687,3.81648z" fill="#949494" stroke="#000000" stroke-width="2.5" stroke-linecap="butt"/><path d="M270.24434,217.10353l4.9367,-9.01359l2.8631,-0.83284l2.50565,0.62092l1.72034,2.2168l0.05208,3.33343z" fill="#242424" stroke="#000000" stroke-width="2.5" stroke-linecap="butt"/><path d="M276.98286,215.08571l-1.97552,-0.78153l-0.89549,-2.0678" fill="none" stroke="#000000" stroke-width="2.5" stroke-linecap="round"/><path d="M288.35453,230.6653l1.3981,-5.84409" fill="none" stroke="#000000" stroke-width="2.5" stroke-linecap="round"/></g><g stroke="none" stroke-linecap="butt"><path d="M284.57714,230.66892l-11.24037,-11.84044l8.69722,-5.31538l1.61623,2.87796l5.7198,5.91497z" fill="#8c6200" stroke-width="NaN"/><path d="M276.08186,221.61616l-2.52774,-2.99542l8.56498,-4.73249l1.65604,3.07139z" fill="#8c0081" stroke-width="NaN"/><path d="M284.20063,230.92162l2.84592,-10.53688l2.41514,1.7971l0.56915,4.24757l3.0338,-0.54471l3.44347,0.40179l0.9989,0.92224l1.50159,2.2969z" fill="#8c0081" stroke-width="0"/><g fill="#ffffff" stroke-width="0.5"><path d="M279.09202,219.35031c-0.00018,-0.00041 -0.00035,-0.00084 -0.00052,-0.00126c-0.1042,-0.25306 0.14887,-0.35727 0.14887,-0.35727c1.24146,-0.49621 2.15132,0.27658 2.13792,1.38717c-0.1162,-0.05859 -0.22317,0.03896 -0.22317,0.03896c-0.72552,0.66163 -1.46121,1.30746 -2.14546,2.00893c-0.46206,-0.0756 -0.85171,-0.26019 -0.96101,-0.57663c-0.15397,-0.44575 0.01869,-1.02737 0.1592,-1.43761c0.22585,-0.51901 0.50052,-0.76656 0.88417,-1.06231zM278.91199,220.7505c-0.07638,-0.08376 -0.2062,-0.08975 -0.28996,-0.01336c-0.08376,0.07638 -0.08975,0.2062 -0.01336,0.28996c0.07638,0.08376 0.2062,0.08975 0.28996,0.01336c0.08376,-0.07638 0.08975,-0.2062 0.01336,-0.28996zM280.11415,219.88567c0.08376,-0.07638 0.08975,-0.2062 0.01336,-0.28996c-0.07638,-0.08376 -0.2062,-0.08975 -0.28996,-0.01336c-0.08375,0.07637 -0.08975,0.2062 -0.01336,0.28996c0.07639,0.08377 0.20621,0.08974 0.28997,0.01336z"/><path d="M282.10123,219.57545c0.28083,-0.2561 0.53694,0.02472 0.53694,0.02472l-0.08015,-0.02834c0.19526,0.07759 0.36646,0.20475 0.51706,0.35863l0.00878,-0.01717l0.01131,0.00579l0.0758,-0.08439l0.35143,0.31561c0.01066,0.00934 0.02091,0.01937 0.03067,0.03009c0.14144,0.1551 0.13038,0.39549 -0.02472,0.53694c-0.08439,0.07697 -0.19406,0.10876 -0.29928,0.09678c-0.0009,0.00674 -0.0016,0.01043 -0.0016,0.01043c-0.11282,0.58369 -0.27042,1.14883 -0.41518,1.71802c0.27863,-0.05757 0.55928,-0.1098 0.84285,-0.15527c0.78129,-0.12532 1.55147,-0.56048 2.29184,-0.26049c-0.05057,-0.02075 -0.1765,-0.0724 -0.22989,-0.09429l0.05978,-0.12148l-0.05515,-0.01182l0.08473,-0.39529c0.01541,-0.07647 0.05441,-0.14889 0.11646,-0.20549c0.15511,-0.14144 0.39549,-0.13038 0.53694,0.02472c0.02343,0.0257 0.04269,0.05372 0.05778,0.08326l0.18185,0.33735l-0.05967,0.03218c0.18316,0.27547 0.21712,0.53796 0.14613,1.01546c0.03757,0.10482 0.04403,0.25177 -0.10906,0.39139c-0.28084,0.2561 -0.53694,-0.02472 -0.53694,-0.02472l-0.12456,-0.36222c0.00912,-0.04297 0.0146,-0.08492 0.0176,-0.12572c-0.56286,0.12301 -1.35516,0.27405 -1.49452,0.304c-0.64835,0.13937 -1.28869,0.27974 -1.92619,0.42673c-0.03815,0.18784 -0.07193,0.37731 -0.09936,0.56916c-0.05303,0.37091 -0.05428,0.7404 -0.06785,1.1102c0.2567,-0.04365 0.5411,-0.04416 0.90152,0.02369l0.44963,0.0207c0.09717,0.00447 0.19262,0.04602 0.26334,0.12356c0.14144,0.15511 0.13038,0.39549 -0.02472,0.53694c-0.03508,0.03199 -0.07453,0.0562 -0.11621,0.07267l-0.69197,0.29263l-0.01177,-0.02783c-0.53952,0.33746 -1.03858,0.49942 -1.92637,0.5853l-0.1881,-0.00483c0,0 -0.37968,-0.01749 -0.36219,-0.39716c0.0017,-0.03697 0.00684,-0.07019 0.01474,-0.10002c-0.0167,-0.02653 -0.03171,-0.05726 -0.04446,-0.09278c-0.12839,-0.35773 0.22934,-0.48611 0.22934,-0.48611c0.28563,-0.10122 0.52203,-0.20642 0.74123,-0.29885c0.03936,-0.48857 0.01228,-0.97689 0.08161,-1.46747c0.01273,-0.09008 0.02693,-0.17969 0.04236,-0.26892c-0.56965,0.13759 -1.13876,0.28238 -1.71104,0.43843c0.01045,0.34846 -0.06035,0.661 -0.31215,0.78799c-1.1691,0.58958 -1.01435,-1.58477 -0.92763,-1.991l0.11317,-0.23691c0,0 0.18544,-0.33177 0.5172,-0.14633c0.01913,0.01069 0.0365,0.02187 0.05233,0.03342c0.56785,-0.56109 1.16521,-1.09081 1.75737,-1.62904c-0.01432,0.06579 -0.03175,0.13227 -0.05237,0.19925c-0.03174,0.10312 -0.29421,0.97706 -0.36511,1.05781c-0.21045,0.23969 -0.75358,0.38235 -1.31309,0.39322c0.01889,0.01625 0.03504,0.03312 0.04877,0.05037c0.18809,0.05662 0.24754,0.26678 0.24754,0.26678c0.0303,0.10798 0.07677,0.2687 0.12041,0.45361c0.67101,-0.19054 1.33609,-0.37739 2.00803,-0.54049c0.16598,-0.68164 0.36496,-1.35311 0.49428,-2.04628c0,0 0.00754,-0.03964 0.03061,-0.09063c-0.22245,-0.03168 -0.44233,-0.08753 -0.65506,-0.15745c0,0 -0.36026,-0.1211 -0.23915,-0.48137c0.08196,-0.24381 0.27345,-0.26714 0.38869,-0.25676c0.02068,-0.04011 0.05148,-0.0808 0.09543,-0.12086z"/></g></g></g><g data-paper-data="{&quot;index&quot;:null}"><g stroke="#000000" stroke-width="2.5"><path d="M273.1236,168.41149c0,0 0.39426,-1.48607 0.03588,-2.61254c-0.32055,-1.00755 -2.08535,-3.82942 -2.08535,-3.82942c0,0 -4.78219,-3.43012 -4.41163,-6.77784c0.04206,-0.38002 1.6046,-8.64708 6.46846,-13.2697c3.47647,-3.30404 10.48224,-3.55902 11.38134,-3.18125c0.69499,0.29201 5.08665,0.79696 9.13392,2.66557c5.70375,2.6334 10.97046,6.5698 10.97046,6.5698l-2.19355,13.58836l-20.88577,-0.40144l0.6114,7.3724z" fill="#949494" stroke-linecap="butt"/><path d="M303.71002,155.29127l-13.02683,-2.79194l-3.27939,-3.37072l-3.18806,-10.02082l11.11375,3.71586l8.71914,5.10826z" fill="#000000" stroke-linecap="round"/><path d="M288.09347,150.80092l-1.66252,-0.02283" fill="none" stroke-linecap="round"/><path d="M285.44831,153.14011l2.37177,0.27013" fill="none" stroke-linecap="round"/><path d="M284.70318,155.50536l1.42176,0.25708" fill="none" stroke-linecap="round"/><path d="M300.76996,161.53866c0,0 -12.48502,-0.56747 -18.91987,-0.09252c-1.58324,0.11686 -0.23953,1.97621 -1.22539,1.97357c-8.7348,-0.02335 -9.61095,-2.08308 -10.40491,-3.08549c-1.97198,-2.48972 -4.11896,-5.80966 -4.00395,-6.39213c0.14789,-0.74898 1.90327,-2.48762 1.90327,-2.48762l3.90281,1.58883l5.43649,1.97505l5.68378,1.2658l9.9719,0.3745l8.01642,4.38597" fill="#373737" stroke-linecap="round"/><path d="M300.40431,163.84754l-0.98263,2.36199l-12.3502,-0.16961l-2.60602,-0.51088l-0.91739,-2.38808l0.5011,-1.89351l1.20709,-1.40872l1.4185,0.49458l1.16795,1.44133l0.9337,1.20056z" fill="#000000" stroke-linecap="round"/><path d="M277.18074,167.04194l0.27339,-2.60928" fill="none" stroke-linecap="round"/><path d="M281.96343,164.73213l-8.54035,-0.82994" fill="none" stroke-linecap="round"/><path d="M276.80743,142.33175l-1.21687,2.12123l0.44565,2.14406l-3.53646,-1.94896l0.29948,-4.50931l3.37724,-3.7544l1.39893,1.9196l0.19184,3.32832z" fill="#151515" stroke-linecap="round"/><path d="M277.46939,146.0248l-3.33158,0.42934l-1.61686,-3.34789l0.96958,-1.41198l2.40439,-2.10492l1.90329,-0.21141l1.17447,0.96632l1.17121,1.20383l0.43913,2.61907z" fill="none" stroke-linecap="round"/></g><path d="M298.45099,145.26989c2.55797,0.79072 3.13932,2.30472 2.70414,4.10837c-0.43518,1.80365 -2.35142,2.88858 -4.28006,2.42324c-1.92863,-0.46534 -3.13932,-2.30472 -2.70414,-4.10837c0.43518,-1.80365 1.6452,-3.23772 4.28006,-2.42324z" fill="#54ff00" stroke="none" stroke-width="0" stroke-linecap="butt"/><path d="M288.81871,147.24091c-0.99531,0.09677 -1.09208,-0.89853 -1.09208,-0.89853l-0.01561,-1.38216c0.6265,-1.50268 1.18915,-2.65461 2.41574,-3.7432c0,0 0.75646,-0.65403 1.4105,0.10243c0.65403,0.75646 -0.10243,1.4105 -0.10243,1.4105c-1.00889,0.84143 -1.38071,1.80214 -1.87724,2.99848l0.15965,0.42041c0,0 0.09677,0.99531 -0.89853,1.09208z" fill="#54ff00" stroke="none" stroke-width="0.5" stroke-linecap="butt"/></g><g data-paper-data="{&quot;index&quot;:null}"><g><path d="M218.16269,201.0194l2.55945,-5.35825l4.50093,2.14995l-2.55945,5.35825z" data-paper-data="{&quot;index&quot;:null}" fill="#000000" stroke="none" stroke-width="0" stroke-linecap="butt"/><path d="M228.30483,210.13123l-1.60813,4.72768l-0.90022,4.64627l-3.50415,2.7939l3.38501,0.32799l2.10486,1.67067l1.52438,0.78105l1.66007,1.96092l-3.63985,1.61405l-9.96504,0.66783l-1.52438,-0.78105l-3.10302,-2.03406l-1.34861,-9.64767l6.41955,-8.62831z" fill="#949494" stroke="#000000" stroke-width="2.5" stroke-linecap="round"/><path d="M217.46077,207.3138l-0.98755,-4.42917l2.11547,-2.39511l3.53956,-0.40707l3.73779,3.39561l2.92959,4.68402l-0.49081,1.96918z" fill="#242424" stroke="#000000" stroke-width="2.5" stroke-linecap="round"/><path d="M224.84075,202.87869l0.53449,2.56854l-3.18678,3.47468" fill="none" stroke="#000000" stroke-width="2.5" stroke-linecap="round"/></g><g stroke="none" stroke-linecap="butt"><path d="M212.89398,223.82789l-1.20077,-5.67159l7.49803,-9.20716l7.61282,1.77426l-1.66426,7.99147l-4.56459,4.06336z" fill="#8c6200" stroke-width="NaN"/><path d="M215.04309,211.24382l4.72171,-2.63528l7.33973,1.95323l-1.03476,2.96621z" fill="#8c0081" stroke-width="NaN"/><path d="M226.74052,228.40034l-11.3281,0.01391l-1.76029,-5.45963l7.27881,-0.80593l3.2033,0.98623l3.45323,0.30672l1.02395,0.89435l1.56435,2.25462z" fill="#8c0081" stroke-width="0"/><g fill="#ffffff" stroke-width="0.5"><path d="M221.32894,212.8615c0.00033,-0.00031 0.00067,-0.00063 0.00099,-0.00094c0.1976,-0.18933 0.38695,0.00826 0.38695,0.00826c0.91494,0.97487 0.52732,2.10394 -0.51161,2.49664c0.01216,-0.12957 -0.11769,-0.19357 -0.11769,-0.19357c-0.8807,-0.43414 -1.75042,-0.88352 -2.65319,-1.26469c-0.09818,-0.4578 -0.06846,-0.88794 0.1863,-1.10516c0.35887,-0.30598 0.96337,-0.35741 1.3966,-0.37623c0.56563,0.02095 0.89631,0.18637 1.31165,0.43567zM219.68474,213.29807c0.10167,0.05012 0.22473,0.00832 0.27486,-0.09335c0.05012,-0.10168 0.00832,-0.22474 -0.09336,-0.27487c-0.10168,-0.05012 -0.22472,-0.00832 -0.27486,0.09336c-0.05012,0.10167 -0.00832,0.22473 0.09335,0.27486zM221.20339,214.00852c0.10168,0.05012 0.22472,0.00832 0.27485,-0.09336c0.05013,-0.10168 0.00833,-0.22474 -0.09334,-0.27486c-0.10168,-0.05012 -0.22474,-0.00832 -0.27487,0.09335c-0.05012,0.10167 -0.00832,0.22473 0.09335,0.27486z"/><path d="M222.21716,215.74546c0.34091,0.16804 0.17287,0.50895 0.17287,0.50895l-0.00286,-0.08496c-0.00101,0.21012 -0.05695,0.4159 -0.14528,0.61226l0.01919,0.00191l-0.00127,0.01265l0.10623,0.03978l-0.16565,0.44234c-0.00481,0.01333 -0.01041,0.02653 -0.01682,0.03954c-0.0928,0.18829 -0.32067,0.26569 -0.50894,0.17286c-0.10245,-0.0505 -0.17207,-0.14101 -0.1993,-0.24334c-0.00659,0.00163 -0.01029,0.00232 -0.01029,0.00232c-0.58461,0.1079 -1.16829,0.16734 -1.75107,0.24021c0.15527,0.23841 0.30627,0.48067 0.45206,0.72811c0.40171,0.68173 1.08786,1.24006 1.07864,2.03886c0.00085,-0.05467 0.00301,-0.19075 0.00392,-0.24844l0.13493,0.01134l-0.00911,-0.05566l0.39894,-0.06532c0.07681,-0.01355 0.15848,-0.00366 0.23381,0.03347c0.18827,0.09282 0.26567,0.32068 0.17285,0.50895c-0.01537,0.03119 -0.03444,0.05935 -0.05644,0.08417l-0.24776,0.2924l-0.05173,-0.04383c-0.18968,0.27104 -0.42167,0.39842 -0.89216,0.50651c-0.08389,0.07321 -0.21835,0.13286 -0.40419,0.04126c-0.34091,-0.16804 -0.17287,-0.50895 -0.17287,-0.50895l0.29181,-0.24812c0.04334,-0.00719 0.08438,-0.0174 0.12348,-0.02948c-0.31987,-0.47918 -0.74955,-1.16179 -0.82828,-1.2806c-0.3663,-0.55282 -0.73061,-1.09782 -1.10005,-1.63776c-0.18881,0.033 -0.37754,0.07067 -0.56617,0.11513c-0.36469,0.08594 -0.70918,0.21956 -1.05844,0.34183c0.13429,0.22308 0.23854,0.48769 0.30685,0.84803l0.14476,0.42621c0.03129,0.09208 0.02743,0.19613 -0.01897,0.29027c-0.09281,0.18829 -0.32068,0.26569 -0.50895,0.17287c-0.04259,-0.021 -0.07949,-0.0489 -0.11005,-0.08169l-0.52491,-0.53752l0.02162,-0.02112c-0.51101,-0.37922 -0.8439,-0.78479 -1.24773,-1.58008l-0.06413,-0.1769c0,0 -0.12222,-0.35988 0.23766,-0.48212c0.03505,-0.0119 0.06785,-0.01923 0.0985,-0.02278c0.01861,-0.02524 0.04175,-0.05042 0.07017,-0.07524c0.28624,-0.25004 0.53629,0.03619 0.53629,0.03619c0.19845,0.22901 0.38264,0.41073 0.54866,0.58111c0.46926,-0.1416 0.91404,-0.34494 1.3961,-0.45938c0.08851,-0.02102 0.17714,-0.04049 0.26585,-0.05866c-0.33592,-0.48018 -0.67836,-0.95726 -1.03244,-1.43317c-0.32063,0.13684 -0.63747,0.18495 -0.84756,-0.00316c-0.97546,-0.87344 1.10548,-1.52259 1.51535,-1.59007l0.26187,0.01894c0,0 0.37655,0.05162 0.32493,0.42817c-0.00296,0.0217 -0.00703,0.04197 -0.01202,0.06092c0.72958,0.32401 1.44074,0.68694 2.1579,1.04194c-0.06649,0.01066 -0.13471,0.01868 -0.20461,0.02392c-0.10758,0.00807 -1.01706,0.08252 -1.11811,0.04597c-0.29994,-0.1085 -0.63092,-0.56216 -0.84515,-1.07913c-0.00822,0.02352 -0.01805,0.0447 -0.0291,0.06378c0.0159,0.19578 -0.15809,0.3278 -0.15809,0.3278c-0.08949,0.06761 -0.22218,0.1695 -0.37843,0.27759c0.42221,0.55525 0.83881,1.10632 1.2358,1.67245c0.6952,-0.09414 1.39298,-0.15384 2.08557,-0.28632c0,0 0.03966,-0.00745 0.09556,-0.00456c-0.05166,-0.21866 -0.07988,-0.44378 -0.09239,-0.66735c0,0 -0.01866,-0.37961 0.36095,-0.39827c0.2569,-0.01262 0.34848,0.15716 0.38085,0.26823c0.0449,0.00463 0.09402,0.01846 0.14735,0.04476z"/></g></g></g></g></g></svg>