<svg version="1.1" xmlns="http://www.w3.org/2000/svg" xmlns:xlink="http://www.w3.org/1999/xlink" width="479.4036" height="441.5461" viewBox="0,0,479.4036,441.5461"><g transform="translate(0.7018,73.5656)"><g data-paper-data="{&quot;isPaintingLayer&quot;:true}" fill-rule="nonzero" stroke="none" stroke-width="0" stroke-linecap="butt" stroke-linejoin="miter" stroke-miterlimit="10" stroke-dasharray="" stroke-dashoffset="0" style="mix-blend-mode: normal"><path d="M-0.7018,367.98048v-125.56208h238.97378v125.5621z" data-paper-data="{&quot;index&quot;:null}" fill="#d69b00"/><path d="M-0.7018,247.09662v-20.66222h239.4036v20.66222l-24.45829,25.13352l-24.11214,-27.86705l-18.12291,27.06054l-30.25008,-27.71874l-25.66291,18.55532l-31.61697,-15.93977l-31.44733,17.91163l-20.86256,-14.01149l-19.11651,17.92812z" data-paper-data="{&quot;index&quot;:null}" fill="#00ff2a"/><path d="M239.2982,364.66796v-422.24956h238.97378v422.24963z" data-paper-data="{&quot;index&quot;:null}" fill="#d69b00"/><path d="M239.2982,-52.90338v-20.66222h239.4036v20.66222l-24.45829,25.13352l-24.11214,-27.86705l-18.12291,27.06054l-30.25007,-27.71874l-25.66291,18.55532l-31.61698,-15.93977l-31.44733,17.91163l-20.86256,-14.01149l-19.11651,17.92812z" data-paper-data="{&quot;index&quot;:null}" fill="#00ff2a"/></g></g></svg>