<svg version="1.1" xmlns="http://www.w3.org/2000/svg" xmlns:xlink="http://www.w3.org/1999/xlink" width="519" height="238.20389" viewBox="0,0,519,238.20389"><g transform="translate(4.63176,-147.54481)"><g data-paper-data="{&quot;isPaintingLayer&quot;:true}" fill-rule="nonzero" stroke="none" stroke-width="0" stroke-linecap="butt" stroke-linejoin="miter" stroke-miterlimit="10" stroke-dasharray="" stroke-dashoffset="0" style="mix-blend-mode: normal"><path d="M-0.31883,350.86798v-75.56741l239.88777,-114.17553l5.08892,189.74295z" fill="#d69b00"/><path d="M-0.71819,294.29162l-0.45642,-19.84163l240.29227,-126.87857l-0.07712,29.58362l-11.90385,20.40595l-23.65068,-12.55465l-5.23366,33.68263l-44.37537,-7.60678l-17.07494,30.38881l-40.00855,3.4614l-23.28344,33.01219l-28.108,-0.77538l-10.71151,26.23267z" fill="#00d624"/><path d="M233.31415,350.84139l5.25565,-189.74296l247.74762,114.17553v75.56741z" data-paper-data="{&quot;index&quot;:null}" fill="#d69b00"/><path d="M449.97626,303.37526l-11.10837,-26.23266l-29.14939,0.77538l-24.14608,-33.01219l-41.49085,-3.4614l-17.70756,-30.3888l-46.01946,7.60677l-5.42756,-33.68263l-24.52693,12.55465l-13.37369,-20.40595l0.94882,-29.58362l249.19501,126.87857l-0.47334,19.84163z" data-paper-data="{&quot;index&quot;:null}" fill="#00d624"/><path d="M-4.63176,385.7487v-40h519v40z" fill="#d69b00"/></g></g></svg>