<svg version="1.1" xmlns="http://www.w3.org/2000/svg" xmlns:xlink="http://www.w3.org/1999/xlink" width="487.00601" height="102.5" viewBox="0,0,487.00601,102.5"><g transform="translate(4.83933,-283.34089)"><g data-paper-data="{&quot;isPaintingLayer&quot;:true}" fill-rule="nonzero" stroke="none" stroke-linecap="butt" stroke-linejoin="miter" stroke-miterlimit="10" stroke-dasharray="" stroke-dashoffset="0" style="mix-blend-mode: normal"><path d="M-0.65207,385.84089v-87h482v87z" fill="#af0000" stroke-width="NaN"/><g><path d="M-4.83933,308.34089v-25h487.00601v25z" fill="#cb0000" stroke-width="0"/><path d="M17.203,288.00755c3.11186,1.5 0.77796,3.5 0.77796,3.5l-1.91726,1.6011c-1.44774,0.84076 -3.37733,1.43265 -4.34322,2.52227c-0.52687,0.59435 0.1974,1.36219 0.29609,2.04329c0,0 0,2.5 -3.88982,2.5c-3.88982,0 -3.88982,-2.5 -3.88982,-2.5c0.0987,-1.3189 -0.62542,-2.77656 0.29609,-3.95671c1.31994,-1.69039 4.01976,-2.76293 6.02965,-4.14439l1.19459,-1.06557c0,0 2.33389,-2 5.44575,-0.5z" fill="#dd0000" stroke-width="0.5"/><path d="M51.33144,301.10864c-2.75053,1.76777 -5.50103,0 -5.50103,0l-0.51864,-0.33333c-2.25882,-1.48204 -5.085,-2.59179 -7.92907,-3.57303c0,0 -3.41486,-1.19713 -1.55221,-3.39187c1.86265,-2.19474 5.27752,-0.99761 5.27752,-0.99761c3.4718,1.23344 6.87737,2.63867 9.7048,4.42697l0.51864,0.33333c0,0 2.75053,1.76777 0,3.53553z" fill="#dd0000" stroke-width="0.5"/><path d="M92.12806,292.74573c1.44465,2.32119 -2.16697,3.24967 -2.16697,3.24967l-5.18643,1.33333c0,0 -3.61161,0.92848 -5.05626,-1.39272c-1.44465,-2.32119 2.16697,-3.24967 2.16697,-3.24967l5.18643,-1.33333c0,0 3.61161,-0.92848 5.05626,1.39272z" fill="#dd0000" stroke-width="0.5"/><path d="M112.11471,304.00755c0,2.5 -3.88982,2.5 -3.88982,2.5h-4.14915c0,0 -3.88982,0 -3.88982,-2.5c0,-2.5 3.88982,-2.5 3.88982,-2.5h4.14915c0,0 3.88982,0 3.88982,2.5z" fill="#dd0000" stroke-width="0.5"/><path d="M143.10849,292.07822c0.77793,-0.39228 2.99358,-1.26245 5.20922,0.16155c2.75053,1.76777 0,3.53553 0,3.53553l-2.32574,0.99092c-6.60945,1.05739 -9.74736,1.50723 -14.03311,4.84177c0,0 -2.4902,1.92055 -5.47844,0.32009c-2.98824,-1.60046 -0.49804,-3.52101 -0.49804,-3.52101c5.14062,-3.93555 9.69777,-5.09985 17.12612,-6.32886z" fill="#dd0000" stroke-width="0.5"/><path d="M191.05647,293.88951c1.73957,2.23607 -1.73957,3.3541 -1.73957,3.3541l-2.69375,0.84406c-5.26387,2.25521 -9.95194,4.31276 -15.96827,5.62492c0,0 -3.69021,0.79057 -4.92029,-1.58114c-1.23007,-2.37171 2.46014,-3.16228 2.46014,-3.16228c5.35629,-1.12248 9.44467,-3.04133 14.11305,-5.04175l3.52997,-1.15594c0,0 3.47917,-1.11803 5.21874,1.11803z" fill="#dd0000" stroke-width="0.5"/><path d="M237.72244,300.29305c-3.03744,1.56174 -5.4674,-0.39043 -5.4674,-0.39043l-1.78766,-1.46064c-2.70537,-1.74041 -6.40818,-5.50249 -10.59062,-6.00131c-3.95673,-0.4719 -8.04811,0.06688 -12.07238,0.06688c0,0 -3.88982,0 -3.88982,-2.5c0,-2.5 3.88982,-2.5 3.88982,-2.5c1.30764,0 13.30515,-0.01817 13.85979,0.06688c6.5354,1.0021 9.8901,4.49787 14.30426,7.33202l2.36149,1.8727c0,0 2.42996,1.95217 -0.60748,3.51391z" fill="#dd0000" stroke-width="0.5"/><path d="M308.54582,289.28745c2.15769,2.08013 -1.07885,3.46688 -1.07885,3.46688l-3.12505,1.05776c-11.79712,1.15932 -26.40111,2.98587 -36.18861,7.56312c0,0 -2.09593,0.96219 -4.09497,0.22448c-0.43157,1.21622 -2.42636,1.72904 -2.42636,1.72904l-1.97626,0.46547c-5.37174,2.11633 -8.74504,2.69046 -15.02768,2.71334c0,0 -3.88982,0 -3.88982,-2.5c0,-2.5 3.88982,-2.5 3.88982,-2.5c4.98531,0.02227 6.69154,-0.21881 10.90448,-1.95333l3.21018,-0.86786c0,0 1.74849,-0.4495 3.29891,0.05892c0.39916,-0.8921 1.58988,-1.43873 1.58988,-1.43873c11.01155,-4.98104 26.37864,-7.14139 39.53331,-8.43688l-0.01319,-0.27558c0,0 3.23653,-1.38675 5.39422,0.69338z" fill="#dd0000" stroke-width="0.5"/><path d="M364.59112,299.02979c-2.1092,2.10057 -5.37753,0.74498 -5.37753,0.74498l-0.18246,-0.35457c-8.61922,-0.76264 -17.79747,-1.53996 -26.04178,-3.40473c-2.49655,-0.56469 -4.78533,-1.51945 -7.35908,-1.91591c0,0 -3.77369,-0.60634 -2.83026,-3.0317c0.94342,-2.42536 4.71711,-1.81902 4.71711,-1.81902c2.84611,0.47208 5.4294,1.45359 8.20022,2.08409c7.67515,1.7465 16.34048,2.42465 24.37369,3.13388l3.34097,1.10682c0,0 3.26834,1.35559 1.15914,3.45615z" fill="#dd0000" stroke-width="0.5"/><path d="M415.52713,303.24789c-1.9299,2.17061 -5.30721,0.93026 -5.30721,0.93026l-2.69901,-1.08769c-11.69208,0.14802 -23.51472,-0.58292 -35.30663,-0.58292c0,0 -3.88982,0 -3.88982,-2.5c0,-2.5 3.88982,-2.5 3.88982,-2.5c12.51751,0 24.85267,0.62251 37.30341,0.75042l4.562,1.57897c0,0 3.37732,1.24035 1.44742,3.41096z" fill="#dd0000" stroke-width="0.5"/><path d="M437.412,289.22286c1.73957,2.23607 -1.73957,3.3541 -1.73957,3.3541l-0.86079,0.05758c-1.03729,0.77778 -2.07456,1.55556 -3.11186,2.33333c0,0 -2.53147,1.89814 -5.48484,0.27116c-2.95337,-1.62698 -0.4219,-3.52512 -0.4219,-3.52512c1.03729,-0.77778 2.07456,-1.55556 3.11186,-2.33333l3.28836,-1.27576c0,0 3.47917,-1.11803 5.21874,1.11803z" fill="#dd0000" stroke-width="0.5"/><path d="M466.60734,296.50755c-1.86413,0 -2.8349,-0.57416 -3.34046,-1.17217c-3.84033,-1.35011 -5.62623,-1.60083 -10.96125,-1.8352c0,0 -3.87837,-0.19174 -3.58002,-2.68438c0.29833,-2.49264 4.17671,-2.30089 4.17671,-2.30089c6.79364,0.3669 9.90092,0.88987 15.63493,2.9887l1.95993,2.50394c0,0 0,2.5 -3.88982,2.5z" fill="#dd0000" stroke-width="0.5"/></g></g></g></svg>