<svg version="1.1" xmlns="http://www.w3.org/2000/svg" xmlns:xlink="http://www.w3.org/1999/xlink" width="482.14234" height="285.04099" viewBox="0,0,482.14234,285.04099"><g transform="translate(0.94504,-85.12253)"><g data-paper-data="{&quot;isPaintingLayer&quot;:true}" fill-rule="nonzero" stroke="none" stroke-width="0" stroke-linecap="butt" stroke-linejoin="miter" stroke-miterlimit="10" stroke-dasharray="" stroke-dashoffset="0" style="mix-blend-mode: normal"><path d="M-0.92442,370.1635v-198.6068h481.25614v198.60683z" data-paper-data="{&quot;index&quot;:null}" fill="#4c4c4c"/><path d="M-0.94503,187.78951v-22.66697h482.14234v22.66697l-49.25729,27.57209l-48.56019,-30.57084l-36.49828,29.68608l-60.92155,-30.40814l-51.68331,20.35565l-63.67442,-17.48632l-63.33277,19.6495l-42.01576,-15.37095l-38.49933,19.66759z" data-paper-data="{&quot;index&quot;:null}" fill="#787878"/><path d="M98.06801,290.1635v-198.60681h304.58147v198.60683z" data-paper-data="{&quot;index&quot;:null}" fill="#4c4c4c"/><path d="M98.05496,107.78951v-22.66697h305.14234v22.66697l-31.17438,27.57209l-30.73319,-30.57084l-23.09934,29.68608l-38.55655,-30.40814l-32.70978,20.35565l-40.29881,-17.48632l-40.08258,19.6495l-26.59129,-15.37095l-24.36578,19.66759z" data-paper-data="{&quot;index&quot;:null}" fill="#787878"/></g></g></svg>