<svg version="1.1" xmlns="http://www.w3.org/2000/svg" xmlns:xlink="http://www.w3.org/1999/xlink" width="482.14234" height="409.09056" viewBox="0,0,482.14234,409.09056"><g transform="translate(0.94501,27.43125)"><g data-paper-data="{&quot;isPaintingLayer&quot;:true}" fill-rule="nonzero" stroke-linecap="butt" stroke-linejoin="miter" stroke-miterlimit="10" stroke-dasharray="" stroke-dashoffset="0" style="mix-blend-mode: normal"><path d="M-0.9244,381.65927v-296.8912h481.25614v296.89124z" data-paper-data="{&quot;index&quot;:null}" fill="#c0b000" stroke="none" stroke-width="0"/><path d="M27.19368,69.64555l8.94437,-16.32308l18.34257,-7.25494l18.05159,8.23212l5.52644,19.05481l-9.00517,17.15694l-18.28176,6.42109l-17.09614,-9.83902z" fill="#a7a7a7" stroke="#515151" stroke-width="5"/><path d="M221.18181,49.39623l14.84301,-11.23076l19.70512,0.89018l13.09936,14.90082l-2.75878,19.6473l-15.23985,11.96664l-19.30827,-1.62606l-11.56979,-15.97573z" fill="#a7a7a7" stroke="#515151" stroke-width="5"/><path d="M183.18181,28.39623l14.84301,-11.23076l19.70512,0.89018l13.09937,14.90082l-2.75879,19.6473l-15.23985,11.96664l-19.30827,-1.62606l-11.56979,-15.97573z" fill="#a7a7a7" stroke="#515151" stroke-width="5"/><path d="M181.18181,50.39623l14.84301,-11.23076l19.70512,0.89018l13.09937,14.90082l-2.75879,19.6473l-15.23985,11.96664l-19.30827,-1.62606l-11.56979,-15.97573z" fill="#a7a7a7" stroke="#515151" stroke-width="5"/><path d="M147.18181,23.39623l14.84301,-11.23076l19.70512,0.89018l13.09937,14.90082l-2.75879,19.6473l-15.23985,11.96664l-19.30827,-1.62606l-11.56979,-15.97573z" fill="#a7a7a7" stroke="#515151" stroke-width="5"/><path d="M141.18181,50.39623l14.84301,-11.23076l19.70512,0.89018l13.09937,14.90082l-2.75879,19.6473l-15.23985,11.96664l-19.30827,-1.62606l-11.56979,-15.97573z" fill="#a7a7a7" stroke="#515151" stroke-width="5"/><path d="M118.18181,8.39623l14.84301,-11.23076l19.70512,0.89018l13.09937,14.90082l-2.75879,19.6473l-15.23985,11.96664l-19.30827,-1.62606l-11.5698,-15.97573z" fill="#a7a7a7" stroke="#515151" stroke-width="5"/><path d="M120.18181,38.39623l14.84301,-11.23076l19.70512,0.89018l13.09937,14.90082l-2.75879,19.6473l-15.23985,11.96664l-19.30827,-1.62606l-11.5698,-15.97573z" fill="#a7a7a7" stroke="#515151" stroke-width="5"/><path d="M121.1898,48.34743l18.2954,-3.42392l17.23551,9.59276l5.07021,19.18126l-11.23906,16.34965l-18.979,3.90527l-16.55191,-10.0741l-3.22166,-19.46035z" fill="#a7a7a7" stroke="#515151" stroke-width="5"/><path d="M87.1898,-9.65257l18.2954,-3.42392l17.23551,9.59276l5.07021,19.18126l-11.23906,16.34965l-18.979,3.90527l-16.55191,-10.0741l-3.22166,-19.46035z" fill="#a7a7a7" stroke="#515151" stroke-width="5"/><path d="M84.1898,52.34743l18.2954,-3.42392l17.23552,9.59276l5.07021,19.18126l-11.23906,16.34965l-18.979,3.90526l-16.55191,-10.07411l-3.22166,-19.46034z" fill="#a7a7a7" stroke="#515151" stroke-width="5"/><path d="M55.1898,45.34743l18.2954,-3.42392l17.23552,9.59276l5.07021,19.18126l-11.23906,16.34965l-18.979,3.90527l-16.55191,-10.0741l-3.22166,-19.46035z" fill="#a7a7a7" stroke="#515151" stroke-width="5"/><path d="M90.18979,17.34743l18.2954,-3.42392l17.23552,9.59276l5.07021,19.18126l-11.23906,16.34965l-18.979,3.90527l-16.55191,-10.0741l-3.22166,-19.46034z" fill="#a7a7a7" stroke="#515151" stroke-width="5"/><path d="M51.1898,5.34743l18.2954,-3.42392l17.23551,9.59276l5.07021,19.18126l-11.23906,16.34965l-18.979,3.90526l-16.55191,-10.0741l-3.22166,-19.46034z" fill="#a7a7a7" stroke="#515151" stroke-width="5"/><path d="M248.87101,57.91207l-15.40258,12.32252l-19.04516,-3.56863l-11.50759,-15.58938l2.5669,-19.67329l16.59111,-10.87946l19.23196,4.38356l11.32079,14.77445z" data-paper-data="{&quot;index&quot;:null}" fill="#a7a7a7" stroke="#515151" stroke-width="5"/><path d="M291.08804,47.77687l-15.40258,12.32252l-19.04516,-3.56863l-11.50759,-15.58938l2.5669,-19.67329l16.59111,-10.87946l19.23196,4.38356l11.32079,14.77445z" data-paper-data="{&quot;index&quot;:null}" fill="#a7a7a7" stroke="#515151" stroke-width="5"/><path d="M287.16387,69.51625l-15.40258,12.32252l-19.04516,-3.56863l-11.50759,-15.58938l2.5669,-19.67329l16.59111,-10.87946l19.23196,4.38356l11.32079,14.77445z" data-paper-data="{&quot;index&quot;:null}" fill="#a7a7a7" stroke="#515151" stroke-width="5"/><path d="M327.12104,52.53321l-15.40258,12.32252l-19.04516,-3.56863l-11.50759,-15.58938l2.5669,-19.67329l16.59111,-10.87946l19.23196,4.38356l11.32079,14.77445z" data-paper-data="{&quot;index&quot;:null}" fill="#a7a7a7" stroke="#515151" stroke-width="5"/><path d="M325.72272,80.15647l-15.40258,12.32252l-19.04516,-3.56863l-11.50759,-15.58938l2.5669,-19.67329l16.59111,-10.87946l19.23196,4.38356l11.32079,14.77445z" data-paper-data="{&quot;index&quot;:null}" fill="#a7a7a7" stroke="#515151" stroke-width="5"/><path d="M359.0663,45.78779l-15.40258,12.32252l-19.04516,-3.56863l-11.50759,-15.58938l2.5669,-19.67329l16.59111,-10.87946l19.23196,4.38356l11.32079,14.77445z" data-paper-data="{&quot;index&quot;:null}" fill="#a7a7a7" stroke="#515151" stroke-width="5"/><path d="M349.1582,74.17493l-15.40258,12.32252l-19.04516,-3.56863l-11.50759,-15.58938l2.5669,-19.67329l16.59111,-10.87946l19.23196,4.38356l11.32079,14.77445z" data-paper-data="{&quot;index&quot;:null}" fill="#a7a7a7" stroke="#515151" stroke-width="5"/><path d="M354.0722,83.25872l-8.28215,17.90224l-18.63534,5.30825l-17.25639,-8.81308l-6.48503,-18.75025l9.98986,-17.14149l19.16627,-4.66241l16.72546,8.16724z" data-paper-data="{&quot;index&quot;:null}" fill="#a7a7a7" stroke="#515151" stroke-width="5"/><path d="M402.27555,36.39256l-8.28215,17.90224l-18.63534,5.30825l-17.25639,-8.81308l-6.48503,-18.75025l9.98986,-17.14149l19.16627,-4.66241l16.72546,8.16724z" data-paper-data="{&quot;index&quot;:null}" fill="#a7a7a7" stroke="#515151" stroke-width="5"/><path d="M392.20149,61.62177l-8.28215,17.90224l-18.63534,5.30825l-17.25639,-8.81308l-6.48503,-18.75025l9.98986,-17.14149l19.16627,-4.66241l16.72546,8.16724z" data-paper-data="{&quot;index&quot;:null}" fill="#a7a7a7" stroke="#515151" stroke-width="5"/><path d="M432.98844,60.42833l-8.28215,17.90224l-18.63534,5.30825l-17.25639,-8.81308l-6.48503,-18.75025l9.98986,-17.14149l19.16627,-4.66241l16.72546,8.16724z" data-paper-data="{&quot;index&quot;:null}" fill="#a7a7a7" stroke="#515151" stroke-width="5"/><path d="M-0.94501,112.02373v-29.90117h482.14234v29.90117l-49.25729,36.37177l-48.56019,-40.32758l-36.49828,39.16044l-60.92155,-40.11295l-51.68331,26.85219l-63.67442,-23.06711l-63.33277,25.92067l-42.01576,-20.27661l-38.49933,25.94454z" data-paper-data="{&quot;index&quot;:null}" fill="#e1d900" stroke="none" stroke-width="0"/><path d="M170.17802,-1.7915l16.20741,-12.26312l21.51646,0.97201l14.30349,16.27054l-3.01238,21.45333l-16.64073,13.06664l-21.08313,-1.77553l-12.63331,-17.44426z" fill="#a7a7a7" stroke="#515151" stroke-width="5"/><path d="M130.86881,-7.25111l16.20741,-12.26312l21.51646,0.97201l14.30349,16.27054l-3.01238,21.45333l-16.64073,13.06664l-21.08313,-1.77553l-12.63331,-17.44426z" fill="#a7a7a7" stroke="#515151" stroke-width="5"/><path d="M103.20306,-12.62995l16.20741,-12.26312l21.51646,0.97201l14.30349,16.27054l-3.01238,21.45333l-16.64073,13.06664l-21.08313,-1.77553l-12.63332,-17.44426z" fill="#a7a7a7" stroke="#515151" stroke-width="5"/><path d="M101.38691,9.12772l16.20741,-12.26312l21.51646,0.97201l14.30349,16.27054l-3.01238,21.45333l-16.64073,13.06664l-21.08313,-1.77553l-12.63332,-17.44426z" fill="#a7a7a7" stroke="#515151" stroke-width="5"/><path d="M41.3622,11.66216l19.97716,-3.73865l18.81984,10.47455l5.53628,20.94445l-12.27218,17.85255l-20.72359,4.26425l-18.0734,-11.00013l-3.5178,-21.24919z" fill="#a7a7a7" stroke="#515151" stroke-width="5"/><path d="M68.63795,-13.85593l19.97716,-3.73865l18.81985,10.47455l5.53628,20.94445l-12.27218,17.85255l-20.72359,4.26425l-18.0734,-11.00013l-3.5178,-21.24918z" fill="#a7a7a7" stroke="#515151" stroke-width="5"/><path d="M18.05299,36.041l19.97716,-3.73865l18.81984,10.47455l5.53628,20.94445l-12.27218,17.85255l-20.72359,4.26424l-18.0734,-11.00013l-3.5178,-21.24918z" fill="#a7a7a7" stroke="#515151" stroke-width="5"/><path d="M241.90552,30.4375l-16.81842,13.45523l-20.79584,-3.89667l-12.56539,-17.02239l2.80286,-21.4817l18.1162,-11.87953l20.99981,4.78651l12.36142,16.13255z" data-paper-data="{&quot;index&quot;:null}" fill="#a7a7a7" stroke="#515151" stroke-width="5"/><path d="M288.00324,19.37065l-16.81842,13.45523l-20.79584,-3.89667l-12.56539,-17.02239l2.80286,-21.4817l18.1162,-11.87953l20.99981,4.78651l12.36142,16.13255z" data-paper-data="{&quot;index&quot;:null}" fill="#a7a7a7" stroke="#515151" stroke-width="5"/><path d="M283.71835,43.10837l-16.81842,13.45523l-20.79584,-3.89667l-12.56539,-17.02239l2.80286,-21.4817l18.1162,-11.87953l20.99981,4.78651l12.36142,16.13255z" data-paper-data="{&quot;index&quot;:null}" fill="#a7a7a7" stroke="#515151" stroke-width="5"/><path d="M327.34848,24.56421l-16.81842,13.45523l-20.79584,-3.89667l-12.56539,-17.02239l2.80286,-21.4817l18.1162,-11.87953l20.99981,4.78651l12.36142,16.13255z" data-paper-data="{&quot;index&quot;:null}" fill="#a7a7a7" stroke="#515151" stroke-width="5"/><path d="M355.23022,39.19873l-16.81842,13.45523l-20.79584,-3.89667l-12.56539,-17.02239l2.80286,-21.4817l18.1162,-11.87953l20.99981,4.78651l12.36142,16.13255z" data-paper-data="{&quot;index&quot;:null}" fill="#a7a7a7" stroke="#515151" stroke-width="5"/><path d="M442.41136,40.93987l-9.04346,19.54786l-20.34834,5.7962l-18.84264,-9.6232l-7.08115,-20.47382l10.90815,-18.71718l20.92808,-5.09099l18.2629,8.91799z" data-paper-data="{&quot;index&quot;:null}" fill="#a7a7a7" stroke="#515151" stroke-width="5"/><path d="M398.41127,34.48821l-9.04346,19.54786l-20.34834,5.7962l-18.84264,-9.6232l-7.08115,-20.47382l10.90815,-18.71718l20.92808,-5.09099l18.2629,8.91799z" data-paper-data="{&quot;index&quot;:null}" fill="#a7a7a7" stroke="#515151" stroke-width="5"/><path d="M455.94745,55.18506l-9.04346,19.54786l-20.34834,5.7962l-18.84264,-9.6232l-7.08115,-20.47382l10.90815,-18.71718l20.92808,-5.09099l18.2629,8.91799z" data-paper-data="{&quot;index&quot;:null}" fill="#a7a7a7" stroke="#515151" stroke-width="5"/></g></g></svg>