<svg version="1.1" xmlns="http://www.w3.org/2000/svg" xmlns:xlink="http://www.w3.org/1999/xlink" width="833.13061" height="864.32509" viewBox="0,0,833.13061,864.32509"><g transform="translate(155.31906,265.97613)"><g data-paper-data="{&quot;isPaintingLayer&quot;:true}" fill-rule="nonzero" stroke="none" stroke-width="0" stroke-linecap="butt" stroke-linejoin="miter" stroke-miterlimit="10" stroke-dasharray="" stroke-dashoffset="0" style="mix-blend-mode: normal"><path d="M-56,401v-442h592v442z" fill="#4400e4"/><path d="M-155.31906,218.23039l460.91965,-484.20651l22.90165,21.80025l-460.91964,484.20653z" fill="#8f5fff"/><path d="M-114.28302,269.77693l460.91965,-484.20651l22.90166,21.80025l-460.91964,484.20652z" fill="#8f5fff"/><path d="M-68.74248,315.31747l460.91965,-484.20651l22.90166,21.80025l-460.91964,484.20653z" fill="#8f5fff"/><path d="M-45.72446,366.86402l460.91965,-484.20651l22.90166,21.80025l-460.91964,484.20652z" fill="#8f5fff"/><path d="M-9.19293,409.40156l460.91965,-484.20651l22.90165,21.80025l-460.91964,484.20653z" fill="#8f5fff"/><path d="M42.35361,444.43159l460.91965,-484.20651l22.90165,21.80025l-460.91964,484.20653z" fill="#8f5fff"/><path d="M93.90016,489.97213l460.91965,-484.20651l22.90166,21.80025l-460.91964,484.20653z" fill="#8f5fff"/><path d="M140.9422,531.00816l460.91965,-484.20651l22.90166,21.80025l-460.91964,484.20652z" fill="#8f5fff"/><path d="M193.99025,576.5487l460.91965,-484.20652l22.90166,21.80025l-460.91964,484.20653z" fill="#8f5fff"/></g></g></svg>