<svg version="1.1" xmlns="http://www.w3.org/2000/svg" xmlns:xlink="http://www.w3.org/1999/xlink" width="148.28733" height="77.07348" viewBox="0,0,148.28733,77.07348"><g transform="translate(-170.11653,-124.28)"><g data-paper-data="{&quot;isPaintingLayer&quot;:true}" fill-rule="nonzero" stroke-linejoin="miter" stroke-miterlimit="10" stroke-dasharray="" stroke-dashoffset="0" style="mix-blend-mode: normal"><g data-paper-data="{&quot;index&quot;:null}" fill="#949494" stroke="#000000" stroke-width="2"><path d="M204.7492,200.30539c0,0 -6.64286,-11.93942 -3.49459,-18.64127c1.13169,-2.40908 0.89596,-2.59479 2.69679,-6.62759c0.64865,-1.4526 1.4419,-2.94082 2.25333,-4.68416c2.17592,-4.67491 4.48262,-9.71385 4.48262,-9.71385c0,0 12.8362,2.13774 17.33941,2.13774c0.4348,0 21.53684,0.47359 21.97571,0.47078c10.74117,-0.06885 7.24001,-0.23325 7.24001,-0.23325c0,0 5.00242,-3.25087 6.6278,-2.9405c3.12122,0.596 6.09658,-2.66377 7.77886,2.9894c0.7907,2.65709 0.61267,2.95203 0.96648,6.59672c0.51648,5.32044 0.7566,13.44454 -1.04569,18.83477c-2.4256,7.25441 -7.20167,11.09865 -7.20167,11.09865z" stroke-linecap="butt"/><path d="M227.98791,199.35514c0,0 9.15072,-8.9704 8.79967,-18.34394c-0.36124,-4.29476 -5.1374,-13.07136 -5.1374,-13.07136l-4.03795,-4.98805l3.32537,4.27547c0,0 4.10165,-0.47068 6.34937,-0.72861c2.54497,-0.29205 8.13973,-0.93407 8.13973,-0.93407l-0.23753,-1.66268" stroke-linecap="round"/><path d="M257.303,170.55263c0,0 3.11779,0.51281 5.78238,2.15324c3.24758,1.99934 6.16789,5.44311 6.30116,8.77418c0.13219,3.30408 -0.67646,8.08355 -3.45338,11.01242c-3.42658,3.61409 -9.1053,5.03108 -10.76089,4.83995c-4.48955,-0.51829 -8.18307,-8.6525 -8.46709,-10.60669c-0.78231,-5.3826 1.63974,-12.17764 2.58871,-13.45012c1.76938,-2.37258 8.00911,-2.72298 8.00911,-2.72298" stroke-linecap="round"/><path d="M207.185,183.61658c0,-4.91169 3.12479,-7.68761 7.2084,-9.39624c1.2606,-0.52746 4.06037,-1.52997 5.49925,-1.52997c6.09996,0 10.09486,4.7358 10.09486,11.16373c0,6.42793 -5.65758,12.58889 -11.75755,12.58889c-6.09997,0 -11.04497,-6.3985 -11.04497,-12.82642z" stroke-linecap="butt"/></g><g data-paper-data="{&quot;index&quot;:null}" stroke="#000000" stroke-width="2" stroke-linecap="round"><path d="M187.97052,155.68868c0,0 9.8184,-0.36242 15.18081,1.85015c2.30639,0.95163 4.85845,2.69326 5.58793,4.05c0.84697,1.57526 -0.34964,2.71436 -0.73406,2.79699c-2.59296,0.55736 -7.71539,-0.49528 -9.77452,-1.34734c-3.60936,-1.49353 -10.49769,-7.34981 -10.49769,-7.34981" fill="#d8d8d8"/><path d="M205.07239,158.30146l-1.66268,5.93816" fill="none"/></g><g data-paper-data="{&quot;index&quot;:null}"><g><path d="M199.5744,175.90408l5.63176,2.69713l-1.58156,6.77673l-5.63176,-2.69713z" data-paper-data="{&quot;index&quot;:null}" fill="#000000" stroke="none" stroke-width="0" stroke-linecap="butt"/><path d="M191.77554,191.92426l-4.88926,-1.45546l-4.72161,-0.46334l-3.20267,-4.49084l0.08974,4.87006l-1.39984,3.28605l-0.58816,2.30444l-1.74246,2.70469l-2.04837,-4.89108l-1.88523,-14.04982l0.58816,-2.30444l1.63804,-4.76896l9.40936,-3.61269l9.35064,7.61035z" fill="#949494" stroke="#000000" stroke-width="2.5" stroke-linecap="round"/><path d="M193.24143,176.0123l4.27457,-2.18234l2.63654,2.58665l0.83819,4.96061l-2.91144,5.91068l-4.28925,4.98809l-2.01451,-0.35174z" fill="#242424" stroke="#000000" stroke-width="2.5" stroke-linecap="round"/><path d="M198.54836,185.72493l-2.48358,1.21124l-3.83937,-3.91999" fill="none" stroke="#000000" stroke-width="2.5" stroke-linecap="round"/></g><g stroke="none" stroke-linecap="butt"><path d="M176.29184,172.42177l5.48145,-2.70379l10.05742,9.04189l-0.82697,11.13483l-8.13526,-0.96171l-4.59262,-5.77536z" fill="#8c6200" stroke-width="NaN"/><path d="M189.0445,173.26573l3.19461,6.24968l-1.03808,10.77803l-3.07074,-0.94985z" fill="#8c0081" stroke-width="NaN"/><path d="M173.45253,192.91073l-1.40347,-16.10256l5.20246,-3.46201l1.69276,10.20655l-0.58582,4.72739l0.11922,4.96331l-0.76198,1.61289l-2.04569,2.62021z" fill="#8c0081" stroke-width="0"/><g fill="#ffffff" stroke-width="0.5"><path d="M188.21014,182.48652c0.00035,0.00042 0.0007,0.00083 0.00105,0.00125c0.21214,0.24766 0.03926,0.55157 0.03926,0.55157c-0.85528,1.47206 -2.02336,1.11942 -2.54054,-0.28861c0.13008,-0.00547 0.17767,-0.20134 0.17767,-0.20134c0.32282,-1.32838 0.66211,-2.64382 0.92966,-3.99423c0.44229,-0.22002 0.87283,-0.25335 1.11966,0.07065c0.34768,0.45642 0.47288,1.3068 0.54472,1.91941c0.0486,0.80782 -0.07501,1.30702 -0.27148,1.94132zM187.57518,180.2257c-0.03727,0.15335 0.01931,0.32096 0.12637,0.37436c0.10706,0.05339 0.22407,-0.02767 0.26133,-0.18102c0.03727,-0.15337 -0.01931,-0.32096 -0.12637,-0.37436c-0.10705,-0.05339 -0.22405,0.02766 -0.26133,0.18102zM187.05639,182.50958c-0.03727,0.15337 0.01932,0.32095 0.12637,0.37435c0.10706,0.05341 0.22406,-0.02766 0.26133,-0.18101c0.03727,-0.15337 -0.01931,-0.32098 -0.12637,-0.37436c-0.10705,-0.05339 -0.22405,0.02766 -0.26133,0.18102z"/><path d="M185.45694,184.25608c-0.12495,0.5142 -0.4839,0.3352 -0.4839,0.3352l0.08397,-0.01899c-0.20866,0.03549 -0.41975,-0.00788 -0.62546,-0.09895l0.00045,0.02761l-0.01271,0.00043l-0.02645,0.158l-0.45932,-0.15776c-0.01382,-0.00449 -0.02761,-0.01014 -0.04131,-0.01697c-0.19824,-0.09885 -0.30302,-0.40919 -0.234,-0.69318c0.03755,-0.15453 0.11883,-0.26941 0.21706,-0.3261c-0.00242,-0.00908 -0.00357,-0.01422 -0.00357,-0.01422c-0.1788,-0.81217 -0.30939,-1.63154 -0.4532,-2.44725c-0.21757,0.26264 -0.43948,0.51988 -0.66714,0.77064c-0.6273,0.69091 -1.09724,1.76451 -1.89114,1.89179c0.05436,-0.00838 0.18968,-0.02925 0.24704,-0.03808l0.00529,0.19381l0.05413,-0.02272l0.11377,0.55571c0.02288,0.10683 0.02307,0.22466 -0.00453,0.33829c-0.06901,0.28398 -0.28566,0.43405 -0.48391,0.33518c-0.03283,-0.01637 -0.06312,-0.03855 -0.09045,-0.06544l-0.32058,-0.30084l0.03715,-0.08124c-0.29226,-0.22203 -0.44713,-0.52948 -0.61214,-1.17936c-0.08295,-0.10639 -0.15864,-0.28707 -0.09052,-0.56739c0.12495,-0.5142 0.4839,-0.3352 0.4839,-0.3352l0.28205,0.37125c0.01246,0.06036 0.02763,0.11692 0.04441,0.17037c0.43632,-0.53897 1.06105,-1.26979 1.16932,-1.40261c0.50371,-0.6179 0.9999,-1.23163 1.49043,-1.85173c-0.05592,-0.26263 -0.11645,-0.52433 -0.1837,-0.78469c-0.13002,-0.50338 -0.3049,-0.96965 -0.46909,-1.4447c-0.20492,0.23011 -0.45475,0.42481 -0.80398,0.58526l-0.40522,0.28071c-0.08755,0.06067 -0.19128,0.07345 -0.2904,0.02403c-0.19825,-0.09887 -0.30302,-0.40921 -0.234,-0.69318c0.01562,-0.06425 0.03878,-0.12161 0.06757,-0.17081l0.46907,-0.84072l0.02361,0.02703c0.31367,-0.79313 0.67534,-1.33767 1.41508,-2.05156l0.16769,-0.12224c0,0 0.34216,-0.23701 0.50763,0.25314c0.01611,0.04774 0.02742,0.09308 0.03469,0.13604c0.02732,0.02204 0.05516,0.0505 0.08328,0.08654c0.28326,0.363 0.02987,0.76879 0.02987,0.76879c-0.20293,0.32237 -0.36069,0.61618 -0.50941,0.88214c0.1981,0.64227 0.45446,1.23885 0.62716,1.90409c0.03172,0.12214 0.06192,0.24471 0.09084,0.36764c0.43535,-0.56196 0.86681,-1.13262 1.29569,-1.71966c-0.17515,-0.43179 -0.26175,-0.87378 -0.10083,-1.20552c0.74717,-1.5403 1.64671,1.30407 1.76394,1.87493l0.01333,0.37562c0,0 -0.00503,0.54442 -0.38508,0.5372c-0.0219,-0.00041 -0.04252,-0.00262 -0.06194,-0.00639c-0.23207,1.09418 -0.50501,2.169 -0.76936,3.25095c-0.01873,-0.09265 -0.03507,-0.18825 -0.04885,-0.28669c-0.0212,-0.15153 -0.20667,-1.43144 -0.18278,-1.58152c0.07088,-0.44548 0.48051,-0.99575 0.9673,-1.39119c-0.02435,-0.00756 -0.04658,-0.0178 -0.06687,-0.03016c-0.19235,0.05701 -0.34472,-0.16713 -0.34472,-0.16713c-0.07807,-0.11534 -0.19547,-0.28608 -0.32192,-0.48922c-0.49926,0.69783 -0.99507,1.38695 -1.50821,2.05084c0.17872,0.97181 0.32356,1.95335 0.54,2.9147c0,0 0.01225,0.05507 0.01625,0.13505c0.21067,-0.11187 0.43062,-0.19155 0.65098,-0.24863c0,0 0.37446,-0.09325 0.43955,0.44318c0.04404,0.36301 -0.11321,0.52306 -0.21949,0.5886c0.00091,0.06465 -0.00678,0.1369 -0.02634,0.21735z"/></g></g></g><path d="M218.7066,197.37546l-16.50155,-6.19393l2.04117,-14.63611l0.98791,-1.66672l15.40585,2.33207l6.17269,3.97615l1.35794,6.84565l-2.22703,6.49828l-2.80925,2.45537z" data-paper-data="{&quot;index&quot;:null}" fill="#949494" stroke="#000000" stroke-width="2.5" stroke-linecap="round"/><g><g stroke="#000000" stroke-width="2.5"><path d="M263.15632,158.32968c0,0 0.37382,-1.49134 0,-2.61279c-0.33436,-1.00305 -2.13774,-3.80042 -2.13774,-3.80042c0,0 -4.82884,-3.36413 -4.50429,-6.71662c0.03684,-0.38056 1.48571,-8.6683 6.28563,-13.35727c3.43077,-3.35147 10.43238,-3.70263 11.33658,-3.33724c0.69893,0.28244 5.09711,0.72703 9.16966,2.53989c5.73937,2.55483 11.05964,6.41853 11.05964,6.41853l-2.00675,13.6172l-20.88931,-0.1146l0.71258,7.36331z" fill="#949494" stroke-linecap="butt"/><path d="M293.55969,144.79068l-13.06394,-2.61279l-3.32537,-3.32537l-3.32537,-9.9761l11.16373,3.56289l8.78847,4.98805z" fill="#000000" stroke-linecap="round"/><path d="M276.22027,140.5152h1.66268" fill="none" stroke-linecap="round"/><path d="M277.64543,143.12802l-2.37526,-0.23753" fill="none" stroke-linecap="round"/><path d="M274.55758,145.26575l1.42516,0.23753" fill="none" stroke-linecap="round"/><path d="M290.70569,151.07785c0,0 -12.49164,-0.39597 -18.91936,0.1673c-1.58149,0.13859 -0.21237,1.97931 -1.19817,1.99021c-8.7343,0.0966 -9.63865,-1.9509 -10.4463,-2.94232c-2.00598,-2.46241 -4.19835,-5.75255 -4.09135,-6.33654c0.13759,-0.75094 1.86893,-2.51352 1.86893,-2.51352l3.92426,1.53509l5.4631,1.90021l5.70063,1.18763l9.9761,0.23753l8.07589,4.27547" fill="#373737" stroke-linecap="round"/><path d="M287.38827,157.63449l-1.55522,2.03121l-11.89413,-3.32954l-2.38801,-1.16179l-0.27463,-2.54345l0.9697,-1.70181l1.52784,-1.05225l1.24434,0.84164l0.75949,1.69255l0.59478,1.39978z" fill="#000000" stroke-linecap="round"/><path d="M267.4318,154.29175l-0.23753,2.61279" fill="none" stroke-linecap="round"/><path d="M263.39385,153.81669l8.55094,0.71258" fill="none" stroke-linecap="round"/><path d="M266.48168,132.20181l-1.18763,2.13774l0.47505,2.13774l-3.56289,-1.90021l0.23753,-4.513l3.32537,-3.80042l1.42516,1.90021l0.23753,3.32537z" fill="#151515" stroke-linecap="round"/><path d="M267.19428,135.88542l-3.32537,0.47505l-1.66268,-3.32537l0.9501,-1.42516l2.37526,-2.13774l1.90021,-0.23753l1.18763,0.9501l1.18763,1.18763l0.47505,2.61279z" fill="none" stroke-linecap="round"/></g><path d="M288.99415,136.00341l-8.50608,-3.99452" fill="none" stroke="#54ff00" stroke-width="1.5" stroke-linecap="round"/><path d="M282.86438,137.12391c-0.15836,-0.17393 -0.30928,-0.4711 -0.08496,-0.87594c0.37611,-0.67878 1.05489,-0.30267 1.05489,-0.30267c0.90987,0.50441 1.78809,1.06393 2.68416,1.59246c0.28701,0.16929 2.14788,1.07068 2.24647,1.43501c0.84969,3.1399 -9.24828,3.9186 -6.25006,-1.68955z" data-paper-data="{&quot;index&quot;:null}" fill="#54ff00" stroke="none" stroke-width="0.5" stroke-linecap="butt"/></g><g data-paper-data="{&quot;index&quot;:null}"><g><path d="M281.06041,176.19901l-5.51842,3.95782l-1.90748,-6.64806l5.51842,-3.95782z" fill="#000000" stroke="none" stroke-width="0" stroke-linecap="butt"/><path d="M305.24441,147.20386c0,0 1.26698,0.06549 1.16353,1.61029c-0.27109,4.04796 -2.85011,23.57399 -2.85011,23.57399l-16.04466,12.71859c0,0 -0.96921,-10.72031 -1.63427,-14.92446c-0.25801,-1.63101 10.01615,-10.6327 10.11214,-11.8123c0.09978,-1.22611 2.54792,2.78276 3.35892,2.78841c0.91569,0.00639 0.2043,-3.94131 0.29539,-4.73723c0.25666,-2.24252 1.19633,-6.27342 1.19633,-6.27342z" fill="#949494" stroke="#000000" stroke-width="2.5" stroke-linecap="butt"/><path d="M286.28985,187.4366l-7.50176,-9.68199l-0.0791,-4.42124l1.24276,-3.50256l2.5936,-1.91836l3.25338,0.82932z" fill="#242424" stroke="#000000" stroke-width="2.5" stroke-linecap="butt"/><path d="M286.04762,177.01524l-1.26363,2.68219l-2.23835,0.75028" fill="none" stroke="#000000" stroke-width="2.5" stroke-linecap="round"/><path d="M298.76826,160.95008l5.32376,3.6362" fill="none" stroke="#000000" stroke-width="2.5" stroke-linecap="round"/></g><g stroke="none" stroke-linecap="butt"><path d="M303.13187,170.12183l-14.37646,13.25244l-2.94777,-14.18712l3.20969,-1.5862l7.20853,-6.77361z" fill="#8c6200" stroke-width="NaN"/><path d="M292.16535,180.10955l-3.55641,2.88982l-2.41493,-13.835l3.40786,-1.59197z" fill="#8c0081" stroke-width="NaN"/><path d="M303.28144,170.74215l-9.51578,-7.03246l2.36291,-3.0504l4.27383,0.32006l0.24451,-4.59308l1.26901,-4.93617l1.15125,-1.21303l2.61565,-1.57609z" fill="#8c0081" stroke-width="0"/><g fill="#ffffff" stroke-width="0.5"><path d="M290.73089,175.08352c-0.00045,0.00015 -0.0009,0.00028 -0.00135,0.00042c-0.27256,0.08393 -0.30928,-0.31518 -0.30928,-0.31518c-0.1656,-1.95379 0.81767,-3.07694 1.89373,-2.75559c-0.0866,0.15433 -0.01906,0.33757 -0.01906,0.33757c0.45801,1.24277 0.89806,2.49615 1.40534,3.68928c-0.19136,0.65646 -0.47018,1.17723 -0.80566,1.25141c-0.47256,0.10449 -0.99384,-0.3065 -1.35674,-0.62381c-0.44686,-0.47191 -0.6174,-0.9416 -0.807,-1.58407zM292.04593,175.7277c-0.1009,0.08915 -0.13983,0.27774 -0.08696,0.42123c0.05287,0.14348 0.17753,0.18751 0.27844,0.09835c0.1009,-0.08915 0.13983,-0.27774 0.08696,-0.42123c-0.05287,-0.14348 -0.17753,-0.18751 -0.27844,-0.09835zM291.51201,173.73137c-0.05287,-0.14348 -0.17753,-0.18751 -0.27844,-0.09835c-0.1009,0.08915 -0.13983,0.27774 -0.08696,0.42123c0.05288,0.14347 0.17753,0.18751 0.27844,0.09835c0.1009,-0.08917 0.13984,-0.27775 0.08696,-0.42123z"/><path d="M291.71741,170.73563c-0.17729,-0.48103 0.16101,-0.77999 0.16101,-0.77999l-0.04799,0.10975c0.12523,-0.26502 0.2925,-0.4813 0.4805,-0.66016l-0.01446,-0.01753l0.00852,-0.01501l-0.06268,-0.13399l0.39643,-0.42916c0.01179,-0.01308 0.02416,-0.02538 0.03708,-0.03677c0.18684,-0.1651 0.41768,-0.08358 0.51559,0.1821c0.05328,0.14456 0.0562,0.31388 0.01772,0.4648c0.00632,0.00315 0.00973,0.00518 0.00973,0.00518c0.53857,0.32388 1.04767,0.70833 1.56399,1.07506c0.01512,-0.42389 0.03596,-0.84928 0.0641,-1.2771c0.07751,-1.17879 -0.14899,-2.42547 0.33149,-3.42874c-0.03307,0.06847 -0.1154,0.23894 -0.15029,0.31121l-0.10282,-0.1206l-0.02557,0.0776l-0.36261,-0.23153c-0.0704,-0.04335 -0.13085,-0.12017 -0.17002,-0.22646c-0.09791,-0.26568 -0.02583,-0.6149 0.16101,-0.77999c0.03095,-0.02735 0.06312,-0.04795 0.09567,-0.06204l0.3743,-0.17478l0.01605,0.09618c0.31449,-0.19352 0.57829,-0.17197 1.02431,0.06178c0.11146,-0.02656 0.25595,0.00387 0.3526,0.26613c0.17729,0.48106 -0.16101,0.77999 -0.16101,0.77999l-0.38385,0.08411c-0.03945,-0.02504 -0.07882,-0.04446 -0.11771,-0.05994c-0.02402,0.85811 -0.07934,2.06002 -0.08579,2.27234c-0.02994,0.98782 -0.05685,1.96418 -0.07661,2.93816c0.17285,0.10694 0.34839,0.20791 0.52787,0.30021c0.34699,0.17846 0.70581,0.28069 1.0618,0.40105c0.02307,-0.38797 0.09511,-0.80481 0.25301,-1.31445l0.13483,-0.65317c0.02913,-0.14114 0.09387,-0.26973 0.18728,-0.35228c0.18684,-0.1651 0.41768,-0.08358 0.51559,0.1821c0.02215,0.06009 0.0356,0.12447 0.04099,0.19001l0.10791,1.09336l-0.03005,0.00969c0.19037,0.88218 0.22048,1.65739 0.07747,2.98151l-0.05269,0.27428c0,0 -0.11386,0.55156 -0.47844,0.42278c-0.03551,-0.01254 -0.06648,-0.0291 -0.09346,-0.04875c-0.03005,0.01726 -0.06375,0.03091 -0.10152,0.03993c-0.38046,0.09092 -0.414,-0.4681 -0.414,-0.4681c-0.02552,-0.446 -0.06746,-0.82095 -0.10139,-1.16724c-0.46485,-0.19041 -0.9464,-0.2834 -1.40555,-0.51826c-0.0843,-0.04312 -0.16779,-0.08826 -0.25058,-0.13512c-0.01159,0.87201 -0.01604,1.74522 -0.01036,2.62612c0.34137,0.07937 0.62709,0.26801 0.68629,0.67144c0.27482,1.87313 -1.79916,1.05566 -2.1719,0.81824l-0.20141,-0.23018c0,0 -0.27517,-0.36183 -0.01029,-0.79755c0.01527,-0.02511 0.03056,-0.04755 0.04584,-0.06759c-0.40051,-0.98444 -0.763,-2.0036 -1.13509,-3.01745c0.0603,0.03886 0.12046,0.08245 0.18031,0.13086c0.09213,0.07452 0.87465,0.69652 0.93504,0.82234c0.17929,0.37347 0.1794,1.20801 0.04722,2.03076c0.0206,-0.02326 0.04112,-0.04233 0.0614,-0.05777c0.10302,-0.26019 0.32247,-0.29022 0.32247,-0.29022c0.11269,-0.01505 0.28076,-0.03948 0.47164,-0.05318c-0.01403,-1.03493 -0.02596,-2.06016 -0.01309,-3.08897c-0.62021,-0.42838 -1.22211,-0.90235 -1.86288,-1.28014c0,0 -0.0366,-0.02181 -0.08029,-0.06948c-0.08754,0.31732 -0.19793,0.62431 -0.32016,0.91701c0,0 -0.20963,0.49495 -0.5289,0.21961c-0.21607,-0.18633 -0.1899,-0.47324 -0.15041,-0.63925c-0.0337,-0.0412 -0.06539,-0.09738 -0.09313,-0.17266z"/></g></g></g><path d="M276.896,189.49965l-15.26191,2.62646c0,0 -5.55244,0.43731 -6.64788,-1.26073c-0.62191,-0.96399 -3.11723,-4.0388 -3.5462,-6.1877c-0.53714,-2.6909 1.72439,-5.01087 2.12497,-6.23554c0.1749,-0.53472 4.34438,-2.21377 4.34438,-2.21377c0,0 3.46586,-0.16559 5.76014,-0.27521c3.40513,-0.1627 12.68846,-0.60625 12.68846,-0.60625z" data-paper-data="{&quot;index&quot;:null}" fill="#949494" stroke="#000000" stroke-width="2.5" stroke-linecap="butt"/><path d="M286.46942,125.13401c0.24905,-0.00101 0.51943,0.03246 0.80478,0.09353c0.60338,0.09002 1.17154,0.28785 1.68426,0.57325c1.85587,0.81066 3.82241,2.12858 4.64358,2.59729c10.81326,6.17199 15.2533,12.27028 20.6123,23.09567c1.28226,2.59021 3.88131,5.77356 4.15099,8.58089c0.5542,5.76898 -4.98296,8.30012 -9.375,4.03344c-1.28529,-1.2486 -1.47708,-3.26591 -2.26531,-4.87515c-2.27325,-4.64104 -4.27919,-9.2541 -7.43505,-13.20274c-1.19766,-1.49852 -2.247,-3.10979 -3.36408,-4.6693c-1.63922,-2.28846 -4.83322,-2.88782 -7.27418,-4.28989c-2.2468,-1.29055 -6.40137,-1.77315 -6.43258,-4.36403c-0.43784,-0.74316 -0.689,-1.60946 -0.689,-2.53442c0,-2.53129 1.881,-4.62324 4.32148,-4.95435c0.19503,-0.05393 0.40041,-0.08332 0.61782,-0.0842z" fill="#ffffff" stroke="none" stroke-width="0.5" stroke-linecap="butt"/><path d="M272.81255,136.26777c0.24905,-0.00101 0.51943,0.03247 0.80478,0.09354c0.60338,0.09002 1.17154,0.28785 1.68426,0.57325c1.85588,0.81067 3.82241,2.12858 4.64358,2.59729c10.81326,6.17199 15.2533,12.27029 20.6123,23.09568c1.28226,2.59021 3.88131,5.77355 4.151,8.58089c0.55419,5.76898 -4.98296,8.30013 -9.375,4.03344c-1.28529,-1.2486 -1.47708,-3.26591 -2.26531,-4.87516c-2.27326,-4.64104 -4.27919,-9.25409 -7.43506,-13.20273c-1.19765,-1.49851 -2.24701,-3.1098 -3.36408,-4.66931c-1.63922,-2.28846 -4.83322,-2.88781 -7.27418,-4.28989c-2.2468,-1.29055 -6.40137,-1.77315 -6.43258,-4.36404c-0.43784,-0.74316 -0.689,-1.60946 -0.689,-2.53442c0,-2.53129 1.881,-4.62324 4.32148,-4.95435c0.19503,-0.05394 0.40042,-0.08332 0.61782,-0.0842z" fill="#ffffff" stroke="none" stroke-width="0.5" stroke-linecap="butt"/></g></g></svg>