<svg version="1.1" xmlns="http://www.w3.org/2000/svg" xmlns:xlink="http://www.w3.org/1999/xlink" width="43.40098" height="6.17756" viewBox="0,0,43.40098,6.17756"><g transform="translate(-216.56799,-198.65726)"><g data-paper-data="{&quot;isPaintingLayer&quot;:true}" fill="#ffffff" fill-rule="nonzero" stroke="#b1b1b1" stroke-width="1" stroke-linecap="butt" stroke-linejoin="miter" stroke-miterlimit="10" stroke-dasharray="" stroke-dashoffset="0" style="mix-blend-mode: normal"><path d="M238.03368,203.16107c0,0 1.68388,-2.02693 2.85269,-2.31446c1.86376,-0.4585 7.25356,-0.17175 7.25356,-0.17175l-5.05312,0.80634l7.19687,1.67987l-7.19687,0.73915z"/><path d="M238.90869,203.76744c0,0 1.37461,-1.54695 2.32873,-1.7664c1.52145,-0.34993 5.92127,-0.13108 5.92127,-0.13108l-4.125,0.6154l5.875,1.28208l-5.875,0.56411z"/><path d="M226.53369,202.16621c0,0 1.01227,-1.91631 1.71489,-2.18815c1.1204,-0.43348 4.36045,-0.16237 4.36045,-0.16237l-3.03767,0.76233l4.32637,1.58819l-4.32637,0.69881z"/><path d="M249.90869,202.89611c0,0 1.37461,-0.86101 2.32873,-0.98315c1.52145,-0.19476 5.92127,-0.07295 5.92127,-0.07295l-4.125,0.34252l5.875,0.71359l-5.875,0.31398z"/><path d="M237.28371,203.72768l-5.875,-0.67957l5.875,-1.54446l-4.125,-0.74134c0,0 4.39983,-0.26363 5.92127,0.1579c0.95413,0.26436 2.32873,2.1279 2.32873,2.1279z" data-paper-data="{&quot;index&quot;:null}"/><path d="M252.5337,203.21009l-5.875,-0.66032l5.875,-1.50073l-4.125,-0.72035c0,0 4.39982,-0.25617 5.92127,0.15343c0.95412,0.25687 2.32873,2.06765 2.32873,2.06765z" data-paper-data="{&quot;index&quot;:null}"/><path d="M253.4087,203.38262l-5.875,-0.54487l5.875,-1.23835l-4.125,-0.59441c0,0 4.39982,-0.21139 5.92127,0.12661c0.95412,0.21196 2.32873,1.70615 2.32873,1.70615z" data-paper-data="{&quot;index&quot;:null}"/><path d="M224.4087,203.29635l-5.875,-0.94894l5.875,-2.15668l-4.125,-1.03521c0,0 4.39982,-0.36815 5.92127,0.22049c0.95412,0.36915 2.32873,2.9714 2.32873,2.9714z" data-paper-data="{&quot;index&quot;:null}"/></g></g></svg>