<svg version="1.1" xmlns="http://www.w3.org/2000/svg" xmlns:xlink="http://www.w3.org/1999/xlink" width="105.98762" height="110.92094" viewBox="0,0,105.98762,110.92094"><g transform="translate(-186.73299,-125.86348)"><g data-paper-data="{&quot;isPaintingLayer&quot;:true}" fill-rule="nonzero" stroke-linejoin="miter" stroke-miterlimit="10" stroke-dasharray="" stroke-dashoffset="0" style="mix-blend-mode: normal"><g data-paper-data="{&quot;index&quot;:null}" fill="#949494" stroke="#000000" stroke-width="2"><path d="M204.7492,200.30539c0,0 -6.64286,-11.93942 -3.49459,-18.64127c1.13169,-2.40908 0.89596,-2.59479 2.69679,-6.62759c0.64865,-1.4526 1.4419,-2.94082 2.25333,-4.68416c2.17592,-4.67491 4.48262,-9.71385 4.48262,-9.71385c0,0 12.8362,2.13774 17.33941,2.13774c0.4348,0 21.53684,0.47359 21.97571,0.47078c10.74117,-0.06885 7.24001,-0.23325 7.24001,-0.23325c0,0 5.00242,-3.25087 6.6278,-2.9405c3.12122,0.596 6.09658,-2.66377 7.77886,2.9894c0.7907,2.65709 0.61267,2.95203 0.96648,6.59672c0.51648,5.32044 0.7566,13.44454 -1.04569,18.83477c-2.4256,7.25441 -7.20167,11.09865 -7.20167,11.09865z" stroke-linecap="butt"/><path d="M227.98791,199.35514c0,0 9.15072,-8.9704 8.79967,-18.34394c-0.36124,-4.29476 -5.1374,-13.07136 -5.1374,-13.07136l-4.03795,-4.98805l3.32537,4.27547c0,0 4.10165,-0.47068 6.34937,-0.72861c2.54497,-0.29205 8.13973,-0.93407 8.13973,-0.93407l-0.23753,-1.66268" stroke-linecap="round"/><path d="M257.303,170.55263c0,0 3.11779,0.51281 5.78238,2.15324c3.24758,1.99934 6.16789,5.44311 6.30116,8.77418c0.13219,3.30408 -0.67646,8.08355 -3.45338,11.01242c-3.42658,3.61409 -9.1053,5.03108 -10.76089,4.83995c-4.48955,-0.51829 -8.18307,-8.6525 -8.46709,-10.60669c-0.78231,-5.3826 1.63974,-12.17764 2.58871,-13.45012c1.76938,-2.37258 8.00911,-2.72298 8.00911,-2.72298" stroke-linecap="round"/><path d="M207.185,183.61658c0,-4.91169 3.12479,-7.68761 7.2084,-9.39624c1.2606,-0.52746 4.06037,-1.52997 5.49925,-1.52997c6.09996,0 10.09486,4.7358 10.09486,11.16373c0,6.42793 -5.65758,12.58889 -11.75755,12.58889c-6.09997,0 -11.04497,-6.3985 -11.04497,-12.82642z" stroke-linecap="butt"/></g><g data-paper-data="{&quot;index&quot;:null}" stroke="#000000" stroke-width="2" stroke-linecap="round"><path d="M187.97052,155.68868c0,0 9.8184,-0.36242 15.18081,1.85015c2.30639,0.95163 4.85845,2.69326 5.58793,4.05c0.84697,1.57526 -0.34964,2.71436 -0.73406,2.79699c-2.59296,0.55736 -7.71539,-0.49528 -9.77452,-1.34734c-3.60936,-1.49353 -10.49769,-7.34981 -10.49769,-7.34981" fill="#d8d8d8"/><path d="M205.07239,158.30146l-1.66268,5.93816" fill="none"/></g><path d="M255.10551,203.0592l-3.62736,-14.81026c0,0 -0.83749,-5.44728 0.65751,-6.72568c0.84873,-0.72578 3.5162,-3.54732 5.4824,-4.21733c2.46212,-0.839 4.79613,1.13518 5.9667,1.39196c0.5111,0.11212 2.39673,4.04844 2.39673,4.04844c0,0 0.42286,3.41248 0.70277,5.67143c0.41545,3.35268 1.54808,12.49304 1.54808,12.49304z" data-paper-data="{&quot;index&quot;:null}" fill="#949494" stroke="#000000" stroke-width="2.5" stroke-linecap="butt"/><g data-paper-data="{&quot;index&quot;:null}"><g><path d="M220.9035,208.12359l-1.66905,-5.69877l4.78696,-1.402l1.66905,5.69877z" data-paper-data="{&quot;index&quot;:null}" fill="#000000" stroke="none" stroke-width="0" stroke-linecap="butt"/><path d="M234.53758,208.14275l1.95686,4.59432l2.42981,4.06131l-0.74568,4.41916l2.74008,-2.01441l2.68253,-0.16016l1.65656,-0.43542l2.5449,0.35282l-1.63402,3.63093l-6.97653,7.14676l-1.65656,0.43542l-3.66845,0.55554l-7.44203,-6.28588l-0.97598,-10.71008z" fill="#949494" stroke="#000000" stroke-width="2.5" stroke-linecap="round"/><path d="M224.58074,213.28015l-3.69099,-2.63998l-0.02254,-3.1955l2.36471,-2.66502l5.04975,0.03501l5.3075,1.53392l0.9484,1.79419z" fill="#242424" stroke="#000000" stroke-width="2.5" stroke-linecap="round"/><path d="M227.1181,205.05238l2.112,1.55645l-0.05503,4.71444" fill="none" stroke="#000000" stroke-width="2.5" stroke-linecap="round"/></g><g stroke="none" stroke-linecap="butt"><path d="M232.19862,228.62742l-4.67883,-3.42307l-0.55894,-11.86085l6.85407,-3.75827l4.09287,7.0627l-0.68845,6.07226z" fill="#8c6200" stroke-width="NaN"/><path d="M225.40237,217.82054l1.75838,-5.11344l6.77008,-3.44276l1.20855,2.89975z" fill="#8c0081" stroke-width="NaN"/><path d="M245.56282,222.79373l-8.4281,7.56923l-4.95413,-2.89185l4.88362,-5.45718l3.04395,-1.40289l2.7767,-2.07578l1.35942,-0.01712l2.66959,0.63546z" fill="#8c0081" stroke-width="0"/><g fill="#ffffff" stroke-width="0.5"><path d="M231.16362,214.83109c0.00003,-0.00045 0.00007,-0.00091 0.00011,-0.00136c0.02084,-0.27288 0.29372,-0.25204 0.29372,-0.25204c1.33196,0.1156 1.79665,1.21518 1.28487,2.20093c-0.0774,-0.10463 -0.21682,-0.06565 -0.21682,-0.06565c-0.94566,0.26431 -1.8933,0.50994 -2.82002,0.82842c-0.3786,-0.27547 -0.64348,-0.61567 -0.59868,-0.94745c0.06312,-0.46735 0.47905,-0.90902 0.78916,-1.21213c0.43527,-0.36182 0.79195,-0.45927 1.26766,-0.55072zM230.2303,216.25337c0.10917,-0.03051 0.17293,-0.14376 0.14242,-0.25293c-0.03051,-0.10918 -0.14377,-0.17294 -0.25294,-0.14243c-0.10918,0.03051 -0.17293,0.14376 -0.14242,0.25293c0.03051,0.10917 0.14376,0.17293 0.25293,0.14242zM231.83547,215.76919c0.10918,-0.03051 0.17293,-0.14377 0.14242,-0.25294c-0.03051,-0.10919 -0.14376,-0.17294 -0.25293,-0.14243c-0.10918,0.03051 -0.17294,0.14377 -0.14243,0.25294c0.03051,0.10917 0.14376,0.17293 0.25293,0.14242z"/><path d="M233.74956,216.38643c0.36605,-0.10232 0.46836,0.26372 0.46836,0.26372l-0.05882,-0.06138c0.13945,0.15718 0.2351,0.34777 0.30033,0.55296l0.01556,-0.01138l0.0075,0.01026l0.10566,-0.04124l0.17178,0.44c0.00532,0.01314 0.00996,0.02671 0.01385,0.04067c0.05652,0.20216 -0.06155,0.41185 -0.26372,0.46836c-0.11,0.03075 -0.22225,0.00979 -0.31082,-0.04826c-0.00382,0.00561 -0.00611,0.0086 -0.00611,0.0086c-0.36343,0.47046 -0.7585,0.9042 -1.14394,1.34735c0.27473,0.07397 0.54884,0.15365 0.82254,0.24066c0.7541,0.23971 1.63771,0.19773 2.16385,0.79884c-0.03584,-0.04129 -0.12504,-0.14408 -0.16286,-0.18766l0.10806,-0.08158l-0.04393,-0.03538l0.25356,-0.31486c0.04817,-0.06135 0.11559,-0.10848 0.19648,-0.13109c0.20217,-0.0565 0.41185,0.06157 0.46835,0.26374c0.00937,0.03349 0.01394,0.06719 0.01413,0.10035l0.01057,0.3831l-0.06777,0.00187c0.03957,0.32844 -0.04822,0.57811 -0.32652,0.97257c-0.01363,0.1105 -0.07398,0.24465 -0.27352,0.30043c-0.36605,0.10232 -0.46836,-0.26373 -0.46836,-0.26373l0.05178,-0.37951c0.02749,-0.03428 0.05124,-0.06927 0.0723,-0.10435c-0.55799,-0.14346 -1.3335,-0.36516 -1.47143,-0.40113c-0.6417,-0.16734 -1.2767,-0.33016 -1.91215,-0.4858c-0.11862,0.15057 -0.23405,0.30455 -0.34488,0.46353c-0.21428,0.30736 -0.3817,0.63675 -0.56026,0.96087c0.24887,0.07655 0.50309,0.20408 0.7944,0.42688l0.39221,0.22084c0.08475,0.04772 0.1513,0.12778 0.17955,0.22886c0.05651,0.20218 -0.06156,0.41187 -0.26373,0.46836c-0.04574,0.01278 -0.09183,0.01663 -0.13648,0.01259l-0.74964,-0.0501l0.00201,-0.03016c-0.63366,0.05853 -1.15222,-0.02143 -1.98367,-0.3443l-0.16579,-0.08897c0,0 -0.33117,-0.18649 -0.14469,-0.51767c0.01816,-0.03226 0.0377,-0.05961 0.05817,-0.08269c-0.00297,-0.03121 -0.00255,-0.06541 0.00206,-0.10286c0.04635,-0.37723 0.42358,-0.33089 0.42358,-0.33089c0.30061,0.03815 0.55907,0.0506 0.79641,0.06672c0.25503,-0.41859 0.45062,-0.86683 0.73332,-1.27372c0.05189,-0.07472 0.10491,-0.14836 0.15886,-0.22109c-0.57062,-0.1335 -1.144,-0.26033 -1.72529,-0.37854c-0.1475,0.31588 -0.35138,0.56311 -0.63339,0.5632c-1.30936,0.00035 -0.1926,-1.8717 0.06766,-2.19545l0.20768,-0.16064c0,0 0.31491,-0.21283 0.52773,0.10209c0.01227,0.01814 0.02277,0.03595 0.03169,0.0534c0.75962,-0.2455 1.53147,-0.44971 2.30249,-0.66383c-0.04241,0.0523 -0.08788,0.10381 -0.13644,0.15436c-0.07475,0.07779 -0.70246,0.74011 -0.80212,0.78031c-0.2958,0.11933 -0.84503,0.00229 -1.34956,-0.23981c0.00956,0.023 0.01639,0.04533 0.02089,0.06693c0.14248,0.1352 0.101,0.34964 0.101,0.34964c-0.02154,0.11007 -0.05239,0.2745 -0.09663,0.45927c0.68498,0.13183 1.36298,0.2643 2.03643,0.42106c0.45498,-0.53401 0.93486,-1.04408 1.36231,-1.60488c0,0 0.02457,-0.03201 0.06813,-0.06715c-0.18438,-0.12839 -0.35561,-0.27722 -0.51412,-0.4354c0,0 -0.26721,-0.27029 0.00308,-0.5375c0.18292,-0.18082 0.36443,-0.11548 0.46266,-0.05435c0.03654,-0.02651 0.08234,-0.04898 0.13962,-0.06498z"/></g></g></g><path d="M226.63197,181.36607l5.69012,16.1712l-10.15465,4.64417l-1.59088,-0.08915l-7.42958,-13.60887l-1.11041,-6.76489l3.41947,-4.06405l5.26819,-0.98149l3.12232,1.23888z" data-paper-data="{&quot;index&quot;:null}" fill="#949494" stroke="#000000" stroke-width="2.5" stroke-linecap="round"/><g data-paper-data="{&quot;index&quot;:null}"><g><path d="M261.20469,205.54154l1.77033,-5.66813l4.76122,1.48707l-1.77033,5.66813z" fill="#000000" stroke="none" stroke-width="0" stroke-linecap="butt"/><path d="M259.47684,235.39039c0,0 -0.91071,0.88254 -1.63872,0.14403c-1.9077,-1.93516 -10.22998,-12.1836 -10.22998,-12.1836l4.52017,-17.00073c0,0 6.21979,3.91223 8.85617,5.24165c1.02281,0.51576 -1.42788,11.77072 -0.88374,12.34687c0.5656,0.59885 -3.20367,0.63504 -3.76783,1.21555c-0.637,0.65543 1.89872,1.84131 2.24766,2.24896c0.98315,1.14859 2.41933,3.55699 2.41933,3.55699l-1.52305,4.43026z" fill="#949494" stroke="#000000" stroke-width="2.5" stroke-linecap="butt"/><path d="M251.7689,204.46912l10.20312,-1.22969l2.34327,1.84393l0.95295,2.39911l-0.8019,2.68901l-2.68074,1.98195z" fill="#242424" stroke="#000000" stroke-width="2.5" stroke-linecap="butt"/><path d="M257.33083,208.77539l-0.51386,-2.06141l1.16066,-1.93146" fill="none" stroke="#000000" stroke-width="2.5" stroke-linecap="round"/><path d="M251.27685,227.089l5.56642,-2.26338" fill="none" stroke="#000000" stroke-width="2.5" stroke-linecap="round"/></g><g stroke="none" stroke-linecap="butt"><path d="M249.07601,224.01899l3.08938,-16.03116l9.38351,3.98054l-1.40018,2.98903l-1.48245,8.09353z" fill="#8c6200" stroke-width="NaN"/><path d="M251.49544,211.84244l0.96535,-3.7987l8.8325,4.21214l-1.53433,3.13396z" fill="#8c0081" stroke-width="NaN"/><path d="M248.65141,223.85982l10.22546,-3.81644l-0.05628,3.00987l-3.12334,2.93438l2.20825,2.15041l1.67684,3.03432l-0.16882,1.34901l-0.99432,2.5577z" fill="#8c0081" stroke-width="0"/><g fill="#ffffff" stroke-width="0.5"><path d="M255.08973,212.97215c0.00024,-0.00038 0.00047,-0.00076 0.00072,-0.00115c0.14517,-0.23199 0.37717,-0.0868 0.37717,-0.0868c1.12592,0.72095 1.02684,1.91056 0.1158,2.54588c-0.01996,-0.12859 -0.16154,-0.15884 -0.16154,-0.15884c-0.96025,-0.20508 -1.91355,-0.42764 -2.8822,-0.57595c-0.20737,-0.41978 -0.28398,-0.84408 -0.09021,-1.1171c0.27294,-0.38459 0.84643,-0.58259 1.26182,-0.70702c0.55352,-0.11831 0.91466,-0.03896 1.37842,0.10097zM253.84621,213.64045c0.02368,-0.11086 -0.04699,-0.21993 -0.15786,-0.2436c-0.11086,-0.02368 -0.21993,0.04699 -0.2436,0.15786c-0.02368,0.11086 0.04699,0.21993 0.15786,0.2436c0.11086,0.02368 0.21993,-0.04699 0.2436,-0.15786zM255.24904,214.11495c0.11086,0.02368 0.21993,-0.04699 0.2436,-0.15786c0.02368,-0.11086 -0.04699,-0.21993 -0.15786,-0.2436c-0.11085,-0.02368 -0.21993,0.04699 -0.2436,0.15786c-0.02368,0.11087 0.047,0.21993 0.15786,0.24361z"/><path d="M256.65756,215.55051c0.37168,0.07939 0.29231,0.45107 0.29231,0.45107l-0.02359,-0.08168c0.05051,0.20396 0.04671,0.41718 0.00918,0.6292l0.01908,-0.00285l0.00187,0.01258l0.11274,0.01255l-0.05221,0.46945c-0.00139,0.0141 -0.00358,0.02828 -0.00662,0.04247c-0.04384,0.20528 -0.24579,0.33616 -0.45107,0.29231c-0.11171,-0.02386 -0.20137,-0.09454 -0.25285,-0.18709c-0.006,0.0032 -0.00941,0.00477 -0.00941,0.00477c-0.54035,0.24786 -1.09167,0.44852 -1.63882,0.66198c0.20896,0.19311 0.41473,0.39098 0.6167,0.59512c0.55652,0.56249 1.35857,0.93566 1.54538,1.71236c-0.01255,-0.05321 -0.04382,-0.18567 -0.05707,-0.24182l0.13358,-0.02205l-0.02247,-0.05173l0.37079,-0.1611c0.07116,-0.03195 0.15276,-0.04239 0.23489,-0.02485c0.20529,0.04385 0.33616,0.24579 0.29231,0.45107c-0.00727,0.03401 -0.01886,0.06597 -0.03409,0.09543l-0.16856,0.34418l-0.06089,-0.02982c-0.11747,0.30925 -0.31119,0.4896 -0.74084,0.7097c-0.06339,0.09154 -0.17913,0.18231 -0.38177,0.13903c-0.37169,-0.07939 -0.29231,-0.45107 -0.29231,-0.45107l0.22211,-0.31206c0.04026,-0.01758 0.07756,-0.03755 0.11249,-0.05884c-0.42755,-0.3862 -1.0114,-0.94268 -1.11685,-1.03859c-0.49059,-0.4462 -0.97735,-0.88532 -1.46784,-1.31826c-0.17498,0.07827 -0.34872,0.16103 -0.52071,0.25037c-0.3325,0.17269 -0.63373,0.38666 -0.9424,0.5908c0.18486,0.18338 0.35076,0.41436 0.5053,0.74698l0.24479,0.37773c0.0529,0.08163 0.07465,0.18343 0.05273,0.28607c-0.04385,0.20529 -0.24579,0.33616 -0.45107,0.29231c-0.04644,-0.00992 -0.08908,-0.02792 -0.12673,-0.05223l-0.64062,-0.3925l0.01579,-0.02577c-0.58838,-0.24243 -1.01048,-0.55407 -1.5969,-1.22613l-0.10552,-0.15579c0,0 -0.20669,-0.31896 0.11226,-0.52565c0.03107,-0.02013 0.06106,-0.03528 0.08991,-0.04621c0.01187,-0.02902 0.02812,-0.0591 0.04959,-0.09013c0.21623,-0.31255 0.52879,-0.09634 0.52879,-0.09634c0.24852,0.1734 0.47162,0.30445 0.67435,0.42894c0.42026,-0.25227 0.80163,-0.55843 1.24095,-0.78749c0.08067,-0.04206 0.1618,-0.08265 0.24336,-0.12203c-0.44335,-0.38322 -0.89227,-0.76184 -1.35216,-1.13647c-0.27733,0.21125 -0.57269,0.33552 -0.82249,0.20462c-1.15976,-0.60777 0.69866,-1.74707 1.07951,-1.91292l0.25852,-0.04581c0,0 0.37772,-0.04223 0.41995,0.33548c0.00243,0.02177 0.00346,0.04241 0.00327,0.06201c0.78675,0.13535 1.56514,0.31295 2.34742,0.48138c-0.06184,0.02664 -0.12604,0.05114 -0.19252,0.07334c-0.10233,0.03418 -0.96582,0.32924 -1.07276,0.31857c-0.31738,-0.03169 -0.74944,-0.3904 -1.08384,-0.83912c-0.00221,0.02482 -0.00654,0.04776 -0.01258,0.06897c0.06338,0.18591 -0.07294,0.35656 -0.07294,0.35656c-0.0702,0.08748 -0.17386,0.21878 -0.29886,0.36187c0.5454,0.43485 1.08433,0.86704 1.60796,1.31862c0.65095,-0.26164 1.31282,-0.49049 1.95182,-0.78866c0,0 0.03662,-0.01693 0.09153,-0.02783c-0.10367,-0.19934 -0.18619,-0.41068 -0.2531,-0.62437c0,0 -0.11112,-0.36347 0.25235,-0.47459c0.24597,-0.0752 0.37637,0.06695 0.43498,0.16671c0.04466,-0.00652 0.09566,-0.00515 0.15382,0.00729z"/></g></g></g><g><g stroke="#000000" stroke-width="2.5"><path d="M261.86728,160.01884c0,0 0.26067,-1.51522 -0.1964,-2.6054c-0.40881,-0.97508 -2.41736,-3.62898 -2.41736,-3.62898c0,0 -5.06805,-2.99164 -4.99642,-6.35904c0.00813,-0.38225 0.82994,-8.75545 5.26381,-13.79196c3.16915,-3.59987 10.12455,-4.47633 11.05365,-4.17994c0.71818,0.2291 5.13734,0.34183 9.33463,1.84344c5.91517,2.11619 11.51082,5.56904 11.51082,5.56904l-0.9775,13.72951l-20.83882,1.45592l1.26404,7.28892z" fill="#949494" stroke-linecap="butt"/><path d="M291.16694,144.2328l-13.22337,-1.62341l-3.56592,-3.066l-4.06584,-9.69792l11.39996,2.71366l9.13854,4.31333z" fill="#000000" stroke-linecap="round"/><path d="M275.21317,141.14779l-1.65797,0.12498" fill="none" stroke-linecap="round"/><path d="M275.17272,143.77107l-2.3864,-0.05831" fill="none" stroke-linecap="round"/><path d="M273.69327,146.26459l-1.43898,-0.12973" fill="none" stroke-linecap="round"/><path d="M288.79361,150.71672c0,0 -12.48606,0.54412 -18.85326,1.58895c-1.5666,0.25708 -0.06299,1.98967 -1.04518,2.07464c-8.70233,0.75286 -9.75803,-1.22087 -10.63792,-2.14878c-2.1854,-2.30466 -4.61888,-5.42069 -4.55607,-6.01108c0.08075,-0.75916 1.67471,-2.6469 1.67471,-2.6469l4.02854,1.23577l5.59048,1.48418l5.77377,0.75577l9.96573,-0.51302l8.37442,3.65633" fill="#373737" stroke-linecap="round"/><path d="M284.91777,159.74008l-1.94212,1.66515l-10.94689,-5.72029l-2.09568,-1.63109l0.25799,-2.54519l1.30108,-1.46413l1.71262,-0.71308l1.0431,1.08106l0.39255,1.81313l0.29204,1.49261z" fill="#000000" stroke-linecap="round"/><path d="M265.78668,158.29421l0.04046,-2.62326" fill="none" stroke-linecap="round"/><path d="M270.34522,155.56858l-8.58031,-0.06781" fill="none" stroke-linecap="round"/><path d="M263.21925,133.71494l-1.02358,2.22096l0.6344,2.09598l-3.69564,-1.62702l-0.10237,-4.51808l3.0303,-4.03963l1.56396,1.7877l0.48681,3.2981z" fill="#151515" stroke-linecap="round"/><path d="M264.20674,137.33456l-3.28026,0.72367l-1.90794,-3.19099l0.84029,-1.49254l2.20785,-2.31023l1.87698,-0.3797l1.25569,0.85814l1.27354,1.095l0.6701,2.56969z" fill="none" stroke-linecap="round"/></g><g fill="#00ff59" stroke="none" stroke-width="0.5" stroke-linecap="butt"><path d="M279.29609,142.24439c-0.45151,-0.3927 -0.05882,-0.84421 -0.05882,-0.84421l0.31322,-0.34541c1.07471,-0.85823 2.10398,-1.73308 3.27298,-2.43286c-1.57518,-0.93358 -3.27839,-1.65534 -4.81628,-2.64683c0,0 -0.50251,-0.3249 -0.17761,-0.8274c0.3249,-0.50251 0.8274,-0.17761 0.8274,-0.17761c1.73423,1.12472 3.68374,1.90111 5.42392,3.02301l0.15069,0.09742c0.10172,0.03617 0.20267,0.10907 0.28338,0.24361c0.06585,0.09154 0.12133,0.21611 0.10636,0.36704c-0.00492,0.15158 -0.07625,0.2678 -0.15353,0.34992c-0.09692,0.12191 -0.20568,0.18097 -0.31054,0.20388c-1.43652,0.70035 -2.61866,1.73853 -3.85879,2.7341l-0.15815,0.19654c0,0 -0.3927,0.45151 -0.84421,0.05881z"/><path d="M284.0851,134.78125c-0.36906,0.47103 -0.8401,0.10197 -0.8401,0.10197l-0.19832,-0.23199c-2.27317,-0.48915 -4.69054,-2.29639 -6.98271,-2.28167c0,0 -0.59838,-0.00431 -0.59407,-0.6027c0.00432,-0.59837 0.6027,-0.59407 0.6027,-0.59407c2.47348,0.04308 4.79738,1.78663 7.22566,2.30839l0.68485,0.45996c0,0 0.47103,0.36906 0.10197,0.8401z"/></g></g></g></g></svg>