<svg version="1.1" xmlns="http://www.w3.org/2000/svg" xmlns:xlink="http://www.w3.org/1999/xlink" width="118.39397" height="101.22933" viewBox="0,0,118.39397,101.22933"><g transform="translate(-180.94623,-132.0998)"><g data-paper-data="{&quot;isPaintingLayer&quot;:true}" fill-rule="nonzero" stroke-linejoin="miter" stroke-miterlimit="10" stroke-dasharray="" stroke-dashoffset="0" style="mix-blend-mode: normal"><g data-paper-data="{&quot;index&quot;:null}"><g><path d="M266.5333,208.74343l-3.15488,-5.03075l4.22583,-2.6501l3.15488,5.03075z" fill="#000000" stroke="none" stroke-width="0" stroke-linecap="butt"/><path d="M288.08588,229.46601c0,0 0.07825,1.26575 -0.9562,1.3386c-2.71067,0.1909 -15.90816,-0.15097 -15.90816,-0.15097l-9.9761,-14.4891c0,0 7.01669,-2.18114 9.74102,-3.31952c1.05692,-0.44164 8.0137,8.73896 8.80524,8.70022c0.82275,-0.04027 -1.60082,2.84679 -1.52667,3.65287c0.08371,0.91014 2.63353,-0.2451 3.17013,-0.2451c1.5119,0 4.27547,0.47505 4.27547,0.47505l2.37526,4.03795z" fill="#949494" stroke="#000000" stroke-width="2.5" stroke-linecap="butt"/><path d="M259.58273,215.21443l5.70063,-8.55094l2.9246,-0.58112l2.44228,0.83612l1.52138,2.35779l-0.23753,3.32537z" fill="#242424" stroke="#000000" stroke-width="2.5" stroke-linecap="butt"/><path d="M266.47098,213.78928l-1.90021,-0.9501l-0.71258,-2.13774" fill="none" stroke="#000000" stroke-width="2.5" stroke-linecap="round"/><path d="M276.44708,230.29735l1.90021,-5.70063" fill="none" stroke="#000000" stroke-width="2.5" stroke-linecap="round"/></g><g stroke="none" stroke-linecap="butt"><path d="M272.68364,229.97299l-10.16992,-12.77164l9.12586,-4.54021l1.36026,3.00741l5.18466,6.38923z" fill="#8c6200" stroke-width="NaN"/><path d="M265.00641,220.21685l-2.25813,-3.20357l8.94351,-3.971l1.38313,3.20357z" fill="#8c0081" stroke-width="NaN"/><path d="M272.28661,230.19205l3.75,-10.25l2.25,2l0.19822,4.28095l3.06964,-0.27925l3.39558,0.69924l0.91506,1.00548l1.2965,2.41859z" fill="#8c0081" stroke-width="0"/><g fill="#ffffff" stroke-width="0.5"><path d="M268.20193,218.2209c-0.00014,-0.00043 -0.00027,-0.00086 -0.00041,-0.0013c-0.08184,-0.26115 0.17932,-0.34299 0.17932,-0.34299c1.27986,-0.38655 2.11918,0.46231 2.00941,1.56755c-0.11067,-0.06846 -0.22571,0.01944 -0.22571,0.01944c-0.78022,0.59614 -1.56921,1.17565 -2.31177,1.81508c-0.45375,-0.11543 -0.82591,-0.33315 -0.90732,-0.65789c-0.11469,-0.45744 0.10781,-1.02187 0.28341,-1.41836c0.27006,-0.49744 0.56518,-0.7202 0.97306,-0.98153zM267.90101,219.60017c-0.06882,-0.09008 -0.19763,-0.10731 -0.28771,-0.03848c-0.09008,0.06882 -0.10731,0.19763 -0.03848,0.28771c0.06882,0.09008 0.19763,0.10731 0.28771,0.03848c0.09008,-0.06882 0.10731,-0.19763 0.03848,-0.28771zM269.17371,218.84299c0.09008,-0.06882 0.10731,-0.19763 0.03848,-0.28771c-0.06882,-0.09008 -0.19763,-0.10731 -0.28771,-0.03848c-0.09007,0.06882 -0.10731,0.19763 -0.03848,0.28771c0.06883,0.09008 0.19764,0.10731 0.28772,0.03848z"/><path d="M271.18023,218.70645c0.302,-0.23075 0.53276,0.07125 0.53276,0.07125l-0.07739,-0.03519c0.18779,0.09425 0.3473,0.23579 0.48397,0.40217l0.01024,-0.01635l0.01077,0.00675l0.08284,-0.07749l0.3227,0.34493c0.00981,0.01023 0.01915,0.02111 0.02795,0.03264c0.12744,0.16679 0.09555,0.40532 -0.07125,0.53276c-0.09076,0.06935 -0.20277,0.0915 -0.30655,0.07043c-0.00148,0.00663 -0.0025,0.01025 -0.0025,0.01025c-0.16307,0.57169 -0.36914,1.12101 -0.56277,1.67548c0.28258,-0.03317 0.5667,-0.06082 0.85314,-0.08151c0.78922,-0.05701 1.59427,-0.42367 2.3058,-0.06052c-0.04858,-0.02506 -0.16955,-0.08745 -0.22083,-0.11389l0.07011,-0.11583l-0.05392,-0.01657l0.11873,-0.38644c0.02199,-0.07484 0.06713,-0.14361 0.13386,-0.1946c0.1668,-0.12744 0.40532,-0.09555 0.53276,0.07125c0.02111,0.02763 0.03786,0.05723 0.05033,0.08796l0.15187,0.35187l-0.06224,0.02687c0.15855,0.29034 0.16959,0.55478 0.05741,1.02431c0.02832,0.10768 0.02201,0.25464 -0.14263,0.38044c-0.30201,0.23075 -0.53276,-0.07125 -0.53276,-0.07125l-0.09265,-0.37166c0.01282,-0.04202 0.02191,-0.08333 0.02845,-0.12372c-0.57141,0.07368 -1.37384,0.15536 -1.51527,0.1731c-0.658,0.08255 -1.30812,0.1668 -1.95597,0.25789c-0.05432,0.18382 -0.10442,0.36964 -0.1484,0.55838c-0.08503,0.3649 -0.11836,0.73289 -0.16399,1.10012c0.25952,-0.02119 0.54289,0.00298 0.89606,0.10187l0.44614,0.05966c0.09641,0.01289 0.1879,0.06257 0.25162,0.14596c0.12744,0.1668 0.09555,0.40532 -0.07125,0.53276c-0.03773,0.02883 -0.07913,0.04951 -0.12208,0.06231l-0.71476,0.23145l-0.00931,-0.02875c-0.56678,0.28934 -1.07802,0.40737 -1.96991,0.41584l-0.18697,-0.02115c0,0 -0.37673,-0.05039 -0.32634,-0.42711c0.00491,-0.03669 0.01291,-0.06933 0.02336,-0.09836c-0.01433,-0.02788 -0.02662,-0.0598 -0.03623,-0.09629c-0.09684,-0.36752 0.27068,-0.46437 0.27068,-0.46437c0.29334,-0.07604 0.53798,-0.16032 0.76438,-0.23337c0.08163,-0.48331 0.09705,-0.97213 0.20871,-1.45484c0.0205,-0.08863 0.04242,-0.17667 0.06555,-0.26423c-0.57944,0.08761 -1.15898,0.18245 -1.74265,0.28822c-0.01985,0.34805 -0.11751,0.65326 -0.37939,0.75791c-1.21588,0.48585 -0.87293,-1.66685 -0.75127,-2.06402l0.13331,-0.22619c0,0 0.21354,-0.31442 0.52795,-0.10088c0.01812,0.01231 0.03447,0.02495 0.04923,0.03784c0.61442,-0.50967 1.25552,-0.98553 1.89217,-1.47031c-0.01998,0.0643 -0.04311,0.12901 -0.06947,0.19395c-0.04057,0.09997 -0.37793,0.94783 -0.45557,1.02212c-0.23046,0.22051 -0.78393,0.31548 -1.34227,0.27773c0.01741,0.01782 0.03203,0.03603 0.04421,0.05441c0.18246,0.07274 0.22345,0.28727 0.22345,0.28727c0.02081,0.11021 0.05315,0.27435 0.08057,0.46236c0.68502,-0.13157 1.36381,-0.25996 2.04737,-0.36411c0.22453,-0.66466 0.48106,-1.31631 0.67007,-1.99564c0,0 0.01095,-0.03883 0.03837,-0.08763c-0.21885,-0.05087 -0.43306,-0.12561 -0.63892,-0.21373c0,0 -0.34839,-0.15193 -0.19645,-0.50032c0.10282,-0.23577 0.29561,-0.24239 0.40951,-0.22204c0.02409,-0.03816 0.0583,-0.07602 0.10556,-0.11212z"/></g></g></g><path d="M257.78299,206.33781l-8.45099,-12.69182c0,0 -2.64129,-4.83713 -1.67057,-6.54801c0.55108,-0.97129 2.09912,-4.53219 3.71994,-5.83134c2.02963,-1.62681 4.89618,-0.56477 6.08426,-0.72167c0.51875,-0.06851 3.63141,2.99115 3.63141,2.99115c0,0 1.55893,3.0649 2.59089,5.09375c1.53161,3.01118 5.70723,11.22053 5.70723,11.22053z" data-paper-data="{&quot;index&quot;:null}" fill="#949494" stroke="#000000" stroke-width="2.5" stroke-linecap="butt"/><g data-paper-data="{&quot;index&quot;:null}" fill="#949494" stroke="#000000" stroke-width="2"><path d="M220.15946,232.16578c0,0 -11.98909,-6.55279 -12.90271,-13.90068c-0.32841,-2.64131 -0.62687,-2.67259 -1.25582,-7.04418c-0.22654,-1.57463 -0.34981,-3.25656 -0.59382,-5.16393c-0.65436,-5.11481 -1.39237,-10.60727 -1.39237,-10.60727c0,0 11.99667,-5.04162 15.80516,-7.4446c0.36773,-0.23201 18.46703,-11.09183 18.83668,-11.32838c9.04737,-5.78986 5.99863,-4.06064 5.99863,-4.06064c0,0 2.49598,-5.4187 4.03622,-6.02355c2.95774,-1.16148 3.73463,-5.50605 8.17399,-1.62268c2.08657,1.82524 2.09339,2.16969 4.33748,5.0633c3.27586,4.22405 7.81407,10.9667 9.16612,16.48709c1.81966,7.42959 -0.16826,13.22934 -0.16826,13.22934z" stroke-linecap="butt"/><path d="M239.30602,218.96163c0,0 2.95228,-12.46948 -2.34646,-20.20962c-2.59725,-3.43944 -11.3199,-8.31343 -11.3199,-8.31343l-6.07671,-2.06382l5.09381,1.84142c0,0 3.21771,-2.58676 4.98104,-4.00432c1.99651,-1.60502 6.38557,-5.13344 6.38557,-5.13344l-1.08812,-1.27943" stroke-linecap="round"/><path d="M248.7292,178.9596c0,0 2.91045,-1.23 6.03932,-1.2645c3.81345,-0.04206 8.12088,1.31212 10.0111,4.05818c1.8749,2.72381 3.74139,7.19745 2.95576,11.15629c-0.96943,4.88501 -5.01595,9.11365 -6.51812,9.83544c-4.0735,1.95735 -11.53775,-2.95107 -12.82074,-4.45222c-3.53386,-4.13476 -5.11137,-11.17396 -4.98782,-12.75651c0.23038,-2.95073 5.32051,-6.57668 5.32051,-6.57668" stroke-linecap="round"/><path d="M213.3141,216.75181c-2.62095,-4.15396 -1.4595,-8.16905 1.0824,-11.79316c0.78467,-1.11876 2.61756,-3.46062 3.83446,-4.22841c5.1589,-3.25501 11.0646,-1.38156 14.49463,4.05473c3.43003,5.43628 1.93283,13.66575 -3.22608,16.92076c-5.15892,3.25503 -12.75538,0.48236 -16.18539,-4.95392z" stroke-linecap="butt"/></g><g data-paper-data="{&quot;index&quot;:null}" stroke="#000000" stroke-width="2" stroke-linecap="round"><path d="M182.16251,201.45564c0,0 8.79023,-4.38911 14.58764,-4.59139c2.49349,-0.08701 5.53726,0.44375 6.76238,1.37754c1.42244,1.08419 0.80381,2.61608 0.48793,2.85025c-2.13058,1.57948 -7.22994,2.73872 -9.45711,2.81416c-3.90392,0.13225 -12.59712,-2.35237 -12.59712,-2.35237" fill="#d8d8d8"/><path d="M198.81463,196.76445l0.94101,6.09432" fill="none"/></g><path d="M276.06118,188.21818l-12.83966,8.22464c0,0 -4.8832,2.55511 -6.5766,1.55421c-0.96137,-0.56822 -4.49426,-2.17915 -5.76446,-3.82275c-1.59057,-2.05816 -0.47787,-4.90542 -0.61368,-6.09609c-0.0593,-0.51988 3.05507,-3.5778 3.05507,-3.5778c0,0 3.09206,-1.50434 5.13888,-2.50016c3.03787,-1.47798 11.31995,-5.50739 11.31995,-5.50739z" data-paper-data="{&quot;index&quot;:null}" fill="#949494" stroke="#000000" stroke-width="2.5" stroke-linecap="butt"/><g data-paper-data="{&quot;index&quot;:null}"><g><path d="M243.59165,217.16097l-4.00431,-4.38489l3.68331,-3.36361l4.00431,4.38489z" data-paper-data="{&quot;index&quot;:null}" fill="#000000" stroke="none" stroke-width="0" stroke-linecap="butt"/><path d="M255.84612,211.18465l3.7773,3.26636l3.96778,2.57971l1.27289,4.29706l1.57559,-3.01386l2.33902,-1.3231l1.2965,-1.11932l2.44091,-0.80184l0.12848,3.97959l-3.12457,9.48606l-1.2965,1.11932l-3.05077,2.11163l-9.44766,-2.37443l-5.58475,-9.19069z" fill="#949494" stroke="#000000" stroke-width="2.5" stroke-linecap="round"/><path d="M249.16134,220.17605l-4.47575,-0.74865l-1.42499,-2.86029l0.95243,-3.43323l4.55106,-2.18842l5.44147,-0.95541l1.64057,1.19462z" fill="#242424" stroke="#000000" stroke-width="2.5" stroke-linecap="round"/><path d="M247.82346,211.67049l2.5812,0.46956l2.02303,4.25866" fill="none" stroke="#000000" stroke-width="2.5" stroke-linecap="round"/></g><g stroke="none" stroke-linecap="butt"><path d="M262.75031,230.61206l-5.70728,-1.01778l-5.71605,-10.40763l4.50416,-6.3887l6.78094,4.54445l2.051,5.75671z" fill="#8c6200" stroke-width="NaN"/><path d="M251.89528,223.89301l-0.6685,-5.36585l4.56742,-6.06838l2.36024,2.07326z" fill="#8c0081" stroke-width="NaN"/><path d="M272.18948,219.4974l-4.24265,10.50361l-5.72102,-0.41962l1.98747,-7.04845l2.11735,-2.59819l1.5815,-3.0851l1.2135,-0.61297l2.67715,-0.60279z" fill="#8c0081" stroke-width="0"/><g fill="#ffffff" stroke-width="0.5"><path d="M255.75584,218.67526c-0.00016,-0.00042 -0.00033,-0.00084 -0.0005,-0.00127c-0.10123,-0.25426 0.15302,-0.3555 0.15302,-0.3555c1.24717,-0.48169 2.14795,0.30167 2.12159,1.41202c-0.11551,-0.05995 -0.22361,0.03634 -0.22361,0.03634c-0.7332,0.65312 -1.47637,1.29032 -2.16876,1.98377c-0.46115,-0.08099 -0.84862,-0.27012 -0.95422,-0.58782c-0.14875,-0.44753 0.03068,-1.02707 0.17597,-1.43565c0.23189,-0.51633 0.50942,-0.76064 0.89651,-1.05192zM255.54275,220.36303c0.08464,-0.0754 0.09214,-0.20514 0.01674,-0.28978c-0.0754,-0.08465 -0.20515,-0.09213 -0.2898,-0.01674c-0.08465,0.0754 -0.09214,0.20514 -0.01674,0.28978c0.0754,0.08464 0.20514,0.09214 0.28978,0.01674zM256.77167,219.22251c0.08465,-0.0754 0.09212,-0.20516 0.01672,-0.2898c-0.0754,-0.08465 -0.20514,-0.09215 -0.28979,-0.01675c-0.08465,0.0754 -0.09213,0.20515 -0.01674,0.2898c0.0754,0.08464 0.20514,0.09214 0.28978,0.01674z"/><path d="M258.76223,218.93549c0.28381,-0.25282 0.53661,0.03099 0.53661,0.03099l-0.07981,-0.02927c0.19435,0.07987 0.36405,0.20901 0.51283,0.36464l0.00898,-0.01706l0.01125,0.00592l0.07677,-0.0835l0.34772,0.31969c0.01055,0.00946 0.02068,0.01961 0.03032,0.03045c0.13963,0.15674 0.12577,0.39699 -0.03099,0.53661c-0.08528,0.07598 -0.19532,0.10649 -0.30038,0.09328c-0.00097,0.00672 -0.00171,0.01042 -0.00171,0.01042c-0.11962,0.58233 -0.28379,1.14559 -0.4352,1.71305c0.27927,-0.05434 0.56053,-0.10326 0.84459,-0.14543c0.78271,-0.1162 1.55791,-0.54234 2.29473,-0.23371c-0.05034,-0.02133 -0.17565,-0.07444 -0.22877,-0.09697l0.0612,-0.12077l-0.05501,-0.01246l0.08934,-0.39427c0.01629,-0.07628 0.05615,-0.14825 0.11885,-0.20412c0.15675,-0.13962 0.397,-0.12575 0.53661,0.03101c0.02313,0.02596 0.04205,0.05422 0.05681,0.08392l0.17791,0.33946l-0.06005,0.03147c0.17993,0.27761 0.21083,0.54045 0.13427,1.0171c0.03635,0.10524 0.0411,0.25227 -0.1136,0.39008c-0.28381,0.25282 -0.53662,-0.03098 -0.53662,-0.03098l-0.12033,-0.36364c0.00963,-0.04287 0.01557,-0.08474 0.01907,-0.12551c-0.56425,0.11643 -1.35826,0.25821 -1.49796,0.28654c-0.64993,0.13179 -1.29188,0.26469 -1.93105,0.40423c-0.04035,0.18738 -0.07634,0.37643 -0.106,0.56796c-0.05735,0.37026 -0.06293,0.73972 -0.08081,1.10934c0.25719,-0.04065 0.54158,-0.03785 0.90119,0.0342l0.44936,0.02594c0.0971,0.0056 0.19206,0.04826 0.26188,0.12662c0.13963,0.15675 0.12575,0.397 -0.03098,0.53662c-0.03546,0.03158 -0.07518,0.05531 -0.11705,0.0713l-0.69534,0.28454l-0.01145,-0.02797c-0.54342,0.33112 -1.04433,0.48728 -1.93307,0.56276l-0.18803,-0.00703c0,0 -0.37944,-0.02192 -0.35753,-0.40136c0.00214,-0.03695 0.00766,-0.07012 0.0159,-0.09984c-0.01639,-0.02674 -0.03104,-0.05763 -0.04336,-0.0933c-0.1242,-0.3592 0.235,-0.48341 0.235,-0.48341c0.28678,-0.09788 0.52439,-0.20032 0.74466,-0.29018c0.04506,-0.48809 0.0237,-0.97668 0.09873,-1.46642c0.01376,-0.08992 0.02901,-0.17937 0.04551,-0.26842c-0.57121,0.13094 -1.14197,0.26907 -1.71605,0.41843c0.00638,0.34856 -0.06807,0.66026 -0.32134,0.78429c-1.17591,0.57591 -0.99579,-1.59648 -0.90433,-2.00169l0.11592,-0.23558c0,0 0.1893,-0.3296 0.51888,-0.14029c0.01899,0.0109 0.03626,0.02228 0.05195,0.03403c0.57436,-0.55443 1.17787,-1.07715 1.77627,-1.60842c-0.01511,0.06562 -0.03329,0.13187 -0.0547,0.19861c-0.03294,0.10273 -0.30559,0.97357 -0.37743,1.05348c-0.21322,0.23721 -0.75799,0.37353 -1.31758,0.37787c0.0187,0.01646 0.03465,0.0335 0.04818,0.05094c0.18741,0.05881 0.24441,0.26965 0.24441,0.26965c0.02904,0.10833 0.07361,0.26958 0.1151,0.45499c0.6732,-0.1827 1.34041,-0.36176 2.0142,-0.51702c0.17391,-0.67966 0.38072,-1.34875 0.51812,-2.04037c0,0 0.00801,-0.03956 0.03167,-0.09026c-0.22205,-0.03427 -0.44127,-0.09267 -0.65318,-0.16507c0,0 -0.35883,-0.12531 -0.23351,-0.48413c0.08481,-0.24282 0.27656,-0.26393 0.39166,-0.25219c0.02116,-0.03987 0.05243,-0.08019 0.09683,-0.11975z"/></g></g></g><path d="M222.2686,201.01313l17.12038,-2.65995l2.93586,10.88935l-0.35642,1.55625l-14.85144,4.84916l-6.94857,-0.14261l-3.48772,-4.12525l-0.09585,-5.38757l1.763,-2.85929z" data-paper-data="{&quot;index&quot;:null}" fill="#949494" stroke="#000000" stroke-width="2.5" stroke-linecap="round"/><g data-paper-data="{&quot;index&quot;:null}"><g><path d="M276.46064,178.66144l-4.84467,3.43378l-2.88438,-4.06953l4.84467,-3.43378z" fill="#000000" stroke="none" stroke-width="0" stroke-linecap="butt"/><path d="M295.9338,155.97366c0,0 1.25931,-0.14956 1.39043,0.87913c0.34358,2.69558 0.7471,15.89133 0.7471,15.89133l-13.90297,10.77794c0,0 -2.57368,-6.8824 -3.86399,-9.53814c-0.50059,-1.03031 8.27276,-8.49414 8.1894,-9.28223c-0.08664,-0.81916 2.9326,1.4376 3.73321,1.31808c0.90397,-0.13494 -0.39334,-2.6155 -0.42363,-3.15125c-0.08533,-1.50949 0.233,-4.29546 0.233,-4.29546l3.89746,-2.59937z" fill="#949494" stroke="#000000" stroke-width="2.5" stroke-linecap="butt"/><path d="M283.3136,185.23572l-8.85904,-5.20895l-0.74526,-2.88714l0.69695,-2.48558l2.26816,-1.65202l3.33348,0.04947z" fill="#242424" stroke="#000000" stroke-width="2.5" stroke-linecap="butt"/><path d="M281.50196,178.43888l-0.84135,1.9508l-2.09411,0.8321" fill="none" stroke="#000000" stroke-width="2.5" stroke-linecap="round"/><path d="M291.6219,165.97155l5.79879,1.57544" fill="none" stroke="#000000" stroke-width="2.5" stroke-linecap="round"/></g><g stroke="none" stroke-linecap="butt"><path d="M297.30925,171.32275l-12.17731,10.87452l-5.04802,-8.85507l2.92584,-1.52782l6.08643,-5.537z" fill="#8c6200" stroke-width="NaN"/><path d="M288.00194,179.53836l-3.07102,2.43533l-4.46943,-8.70513l3.1204,-1.56173z" fill="#8c0081" stroke-width="NaN"/><path d="M297.55036,171.70677l-10.44531,-3.16553l1.86982,-2.35929l4.26294,-0.43952l-0.45205,-3.04899l0.50649,-3.42963l0.95223,-0.97034l2.34156,-1.43093z" fill="#8c0081" stroke-width="0"/><g fill="#ffffff" stroke-width="0.5"><path d="M285.82883,176.46057c-0.00042,0.00016 -0.00084,0.00032 -0.00127,0.00049c-0.25612,0.09645 -0.35256,-0.15967 -0.35256,-0.15967c-0.45817,-1.256 0.34197,-2.1419 1.45165,-2.09467c-0.0621,0.11436 0.03215,0.22426 0.03215,0.22426c0.63923,0.74533 1.26234,1.50036 1.94265,2.20564c-0.08964,0.45954 -0.286,0.84339 -0.60563,0.94301c-0.45023,0.14033 -1.02633,-0.04996 -1.43209,-0.20291c-0.51189,-0.24155 -0.75095,-0.52363 -1.03489,-0.91611zM287.22288,176.68317c-0.08605,0.0738 -0.09598,0.20337 -0.02218,0.28943c0.0738,0.08605 0.20337,0.09598 0.28943,0.02218c0.08605,-0.0738 0.09598,-0.20337 0.02218,-0.28943c-0.0738,-0.08605 -0.20337,-0.09598 -0.28943,-0.02218zM286.39508,175.45523c-0.0738,-0.08605 -0.20337,-0.09598 -0.28943,-0.02218c-0.08605,0.0738 -0.09598,0.20337 -0.02218,0.28943c0.0738,0.08605 0.20337,0.09598 0.28943,0.02218c0.08605,-0.07381 0.09599,-0.20339 0.02218,-0.28944z"/><path d="M286.14551,173.45962c-0.24743,-0.2885 0.04107,-0.53593 0.04107,-0.53593l-0.03076,0.07925c0.0835,-0.19281 0.21581,-0.36005 0.37421,-0.50589l-0.0169,-0.0093l0.00613,-0.01113l-0.08204,-0.07833l0.32617,-0.34165c0.00966,-0.01037 0.02,-0.02031 0.03101,-0.02975c0.15933,-0.13665 0.39929,-0.11827 0.53593,0.04107c0.07436,0.08671 0.1028,0.19728 0.08762,0.30208c0.00671,0.00111 0.01037,0.00192 0.01037,0.00192c0.57998,0.13054 1.14005,0.30528 1.70457,0.46731c-0.04907,-0.28025 -0.09271,-0.56236 -0.12953,-0.84718c-0.10147,-0.78475 -0.51297,-1.56781 -0.19056,-2.29871c-0.02228,0.04991 -0.07774,0.17422 -0.10125,0.2269l-0.1196,-0.06346l-0.0135,0.05477l-0.39253,-0.09673c-0.07596,-0.01773 -0.14717,-0.05892 -0.20184,-0.12266c-0.13665,-0.15934 -0.11827,-0.39929 0.04107,-0.53593c0.0264,-0.02263 0.05501,-0.04103 0.08498,-0.05522l0.34274,-0.17148l0.03034,0.06063c0.28093,-0.17468 0.54432,-0.20063 1.01944,-0.11513c0.10591,-0.03435 0.25299,-0.03634 0.38788,0.12093c0.24743,0.28851 -0.04107,0.53593 -0.04107,0.53593l-0.36584,0.11347c-0.04267,-0.01042 -0.08443,-0.01717 -0.12513,-0.02143c0.10581,0.56634 0.23265,1.36288 0.25835,1.50308c0.11955,0.65229 0.24036,1.29663 0.36787,1.9383c0.18659,0.04386 0.37495,0.08339 0.56587,0.11665c0.36912,0.0643 0.7384,0.07681 1.10762,0.10164c-0.0358,-0.25791 -0.02766,-0.54219 0.05114,-0.90038l0.03438,-0.44879c0.00742,-0.09699 0.05187,-0.19113 0.13153,-0.25945c0.15934,-0.13665 0.39929,-0.11827 0.53593,0.04107c0.03091,0.03604 0.05389,0.07621 0.0691,0.11836l0.27142,0.70055l-0.02818,0.01091c0.32087,0.54955 0.46757,1.05331 0.52635,1.9433l-0.01057,0.18786c0,0 -0.02905,0.37898 -0.40801,0.34993c-0.03691,-0.00283 -0.06995,-0.00898 -0.09952,-0.01777c-0.02703,0.01588 -0.0582,0.02995 -0.0941,0.0416c-0.36146,0.11743 -0.4789,-0.24404 -0.4789,-0.24404c-0.09247,-0.28858 -0.19043,-0.52808 -0.27614,-0.74999c-0.48715,-0.05422 -0.97606,-0.04203 -1.4643,-0.12626c-0.08964,-0.01547 -0.17878,-0.03238 -0.26751,-0.05053c0.12017,0.57357 0.24757,1.14684 0.38611,1.7236c0.34861,0.00017 0.65885,0.08045 0.77811,0.33601c0.5537,1.18652 -1.61493,0.96561 -2.01833,0.86656l-0.23335,-0.12033c0,0 -0.32597,-0.19546 -0.13051,-0.52142c0.01127,-0.01878 0.02296,-0.03582 0.035,-0.05129c-0.54354,-0.58468 -1.05481,-1.1979 -1.57476,-1.80617c0.06532,0.01632 0.13124,0.03576 0.19756,0.05841c0.1021,0.03486 0.96765,0.32383 1.0462,0.39715c0.23316,0.21765 0.35922,0.76487 0.35304,1.32445c0.01681,-0.01839 0.03416,-0.03401 0.05183,-0.04721c0.06232,-0.18627 0.2742,-0.23931 0.2742,-0.23931c0.10886,-0.027 0.27091,-0.06855 0.45707,-0.10653c-0.17003,-0.6765 -0.33651,-1.34697 -0.47908,-2.02355c-0.67627,-0.18666 -1.34136,-0.406 -2.03028,-0.55638c0,0 -0.03938,-0.00874 -0.08966,-0.03336c-0.03843,0.22137 -0.10096,0.43946 -0.17734,0.64996c0,0 -0.13203,0.35641 -0.48844,0.22438c-0.2412,-0.08935 -0.25869,-0.28146 -0.2448,-0.39632c-0.03946,-0.0219 -0.07919,-0.05391 -0.1179,-0.09906z"/></g></g></g><path d="M251.64783,166.10737c0,0 0.3952,-1.48582 0.03753,-2.61252c-0.31992,-1.00775 -2.08293,-3.83073 -2.08293,-3.83073c0,0 -4.78002,-3.43314 -4.40735,-6.78062c0.0423,-0.37999 1.61006,-8.64607 6.47684,-13.26561c3.47855,-3.30185 10.48449,-3.5524 11.38334,-3.17406c0.6948,0.29245 5.08614,0.80017 9.13223,2.67134c5.70208,2.637 10.96631,6.57672 10.96631,6.57672l-2.20213,13.58697l-20.88551,-0.41463l0.60674,7.37279z" fill="#949494" stroke="#000000" stroke-width="2.5" stroke-linecap="butt"/><path d="M282.24253,153.00647l-13.02506,-2.80016l-3.27726,-3.37279l-3.18174,-10.02283l11.1114,3.72287l8.71592,5.11377z" fill="#000000" stroke="#000000" stroke-width="2.5" stroke-linecap="round"/><path d="M264.96631,148.48237l1.66251,0.02388" fill="none" stroke="#000000" stroke-width="2.5" stroke-linecap="round"/><path d="M263.98219,150.84378l2.3716,0.27162" fill="none" stroke="#000000" stroke-width="2.5" stroke-linecap="round"/><path d="M264.65716,153.46652l-1.4216,-0.25798" fill="none" stroke="#000000" stroke-width="2.5" stroke-linecap="round"/><path d="M279.29852,159.252c0,0 -12.48466,-0.57535 -18.91981,-0.10446c-1.58332,0.11586 -0.24078,1.97606 -1.22663,1.97279c-8.73479,-0.02886 -9.60963,-2.08914 -10.40296,-3.09206c-1.9704,-2.49097 -4.11529,-5.81226 -3.99991,-6.39465c0.14836,-0.74889 1.90484,-2.48642 1.90484,-2.48642l3.90181,1.5913l5.43524,1.97848l5.68298,1.26939l9.97166,0.3808l8.01365,4.39103" fill="#373737" stroke="#000000" stroke-width="2.5" stroke-linecap="round"/><path d="M277.71489,167.53053l-1.91982,1.69081l-11.02194,-5.57433l-2.11717,-1.6031l0.22414,-2.54839l1.2815,-1.48129l1.70299,-0.73577l1.05737,1.06711l0.41661,1.80776l0.31184,1.48859z" fill="#000000" stroke="#000000" stroke-width="2.5" stroke-linecap="round"/><path d="M255.70584,164.74038l0.27503,-2.60911" fill="none" stroke="#000000" stroke-width="2.5" stroke-linecap="round"/><path d="M251.95016,161.59826l8.53982,0.83533" fill="none" stroke="#000000" stroke-width="2.5" stroke-linecap="round"/><path d="M255.34813,140.02996l-1.21821,2.12046l0.4443,2.14434l-3.53523,-1.95119l0.30233,-4.50912l3.37961,-3.75226l1.39772,1.92048l0.18974,3.32844z" fill="#151515" stroke="#000000" stroke-width="2.5" stroke-linecap="round"/><path d="M256.00775,143.72343l-3.33185,0.42724l-1.61474,-3.34891l0.97047,-1.41137l2.40572,-2.1034l1.90343,-0.21021l1.17386,0.96706l1.17045,1.20457l0.43747,2.61934z" fill="none" stroke="#000000" stroke-width="2.5" stroke-linecap="round"/><path d="M276.6421,142.84444c2.61873,0.21946 3.35505,1.09011 3.1146,2.24504c-0.24045,1.15493 -2.02474,2.02229 -3.98535,1.93731c-1.9606,-0.08498 -3.35505,-1.09011 -3.1146,-2.24504c0.24045,-1.15493 1.2879,-2.16336 3.98535,-1.93731z" fill="#54ff00" stroke="none" stroke-width="0" stroke-linecap="butt"/><path d="M268.26426,144.61895c-0.98845,-0.15156 -0.8369,-1.14001 -0.8369,-1.14001l0.32557,-1.34336c0.97758,-1.30187 1.80682,-2.27957 3.2639,-3.03221c0,0 0.89435,-0.44739 1.34172,0.44696c0.44739,0.89435 -0.44696,1.34172 -0.44696,1.34172c-1.18517,0.56677 -1.78233,1.40619 -2.55845,2.44322l0.0511,0.44679c0,0 -0.15156,0.98845 -1.14001,0.8369z" fill="#54ff00" stroke="none" stroke-width="0.5" stroke-linecap="butt"/></g></g></svg>