<svg version="1.1" xmlns="http://www.w3.org/2000/svg" xmlns:xlink="http://www.w3.org/1999/xlink" width="112.26573" height="103.14583" viewBox="0,0,112.26573,103.14583"><g transform="translate(-186.73299,-122.27123)"><g data-paper-data="{&quot;isPaintingLayer&quot;:true}" fill-rule="nonzero" stroke-linejoin="miter" stroke-miterlimit="10" stroke-dasharray="" stroke-dashoffset="0" style="mix-blend-mode: normal"><g data-paper-data="{&quot;index&quot;:null}" fill="#949494" stroke="#000000" stroke-width="2"><path d="M204.7492,194.84833c0,0 -6.64286,-11.93942 -3.49459,-18.64127c1.13169,-2.40908 0.89596,-2.59479 2.69679,-6.62759c0.64865,-1.4526 1.4419,-2.94082 2.25333,-4.68416c2.17592,-4.67491 4.48262,-9.71385 4.48262,-9.71385c0,0 12.8362,2.13774 17.33941,2.13774c0.4348,0 21.53684,0.47359 21.97571,0.47078c10.74117,-0.06885 7.24001,-0.23325 7.24001,-0.23325c0,0 5.00242,-3.25087 6.6278,-2.9405c3.12122,0.596 6.09658,-2.66377 7.77886,2.9894c0.7907,2.65709 0.61267,2.95203 0.96648,6.59672c0.51648,5.32044 0.7566,13.44454 -1.04569,18.83477c-2.4256,7.25441 -7.20167,11.09865 -7.20167,11.09865z" stroke-linecap="butt"/><path d="M227.98791,193.89808c0,0 9.15072,-8.9704 8.79967,-18.34394c-0.36124,-4.29476 -5.1374,-13.07136 -5.1374,-13.07136l-4.03795,-4.98805l3.32537,4.27547c0,0 4.10165,-0.47068 6.34937,-0.72861c2.54497,-0.29205 8.13973,-0.93407 8.13973,-0.93407l-0.23753,-1.66268" stroke-linecap="round"/><path d="M257.303,165.09557c0,0 3.11779,0.51281 5.78238,2.15324c3.24758,1.99934 6.16789,5.44311 6.30116,8.77418c0.13219,3.30408 -0.67646,8.08355 -3.45338,11.01242c-3.42658,3.61409 -9.1053,5.03108 -10.76089,4.83995c-4.48955,-0.51829 -8.18307,-8.6525 -8.46709,-10.60669c-0.78231,-5.3826 1.63974,-12.17764 2.58871,-13.45012c1.76938,-2.37258 8.00911,-2.72298 8.00911,-2.72298" stroke-linecap="round"/><path d="M207.185,178.15952c0,-4.91169 3.12479,-7.68761 7.2084,-9.39624c1.2606,-0.52746 4.06037,-1.52997 5.49925,-1.52997c6.09996,0 10.09486,4.7358 10.09486,11.16373c0,6.42793 -5.65758,12.58889 -11.75755,12.58889c-6.09997,0 -11.04497,-6.3985 -11.04497,-12.82642z" stroke-linecap="butt"/></g><g data-paper-data="{&quot;index&quot;:null}" stroke="#000000" stroke-width="2" stroke-linecap="round"><path d="M187.97052,150.23162c0,0 9.8184,-0.36242 15.18081,1.85015c2.30639,0.95163 4.85845,2.69326 5.58793,4.05c0.84697,1.57526 -0.34964,2.71436 -0.73406,2.79699c-2.59296,0.55736 -7.71539,-0.49528 -9.77452,-1.34734c-3.60936,-1.49353 -10.49769,-7.34981 -10.49769,-7.34981" fill="#d8d8d8"/><path d="M205.07239,152.8444l-1.66268,5.93816" fill="none"/></g><path d="M262.34206,197.14857l-8.88744,-12.39012c0,0 -2.80798,-4.74231 -1.89737,-6.48592c0.51695,-0.98987 1.94017,-4.60248 3.51481,-5.95723c1.97181,-1.69644 4.87357,-0.73477 6.05547,-0.93291c0.51605,-0.08651 3.73328,2.863 3.73328,2.863c0,0 1.66462,3.00881 2.76654,5.00052c1.63545,2.95607 6.09415,11.01517 6.09415,11.01517z" data-paper-data="{&quot;index&quot;:null}" fill="#949494" stroke="#000000" stroke-width="2.5" stroke-linecap="butt"/><g data-paper-data="{&quot;index&quot;:null}"><g><path d="M205.75414,195.03909l4.15109,-4.24619l3.5668,3.48692l-4.15109,4.24619z" data-paper-data="{&quot;index&quot;:null}" fill="#000000" stroke="none" stroke-width="0" stroke-linecap="butt"/><path d="M212.41483,206.93546l-3.04721,3.95621l-2.35088,4.10751l-4.21809,1.51419l3.09825,1.40238l1.45343,2.26034l1.19094,1.23103l0.93878,2.39159l-3.96593,0.35364l-9.64778,-2.58237l-1.19094,-1.23103l-2.281,-2.92629l1.83561,-9.56696l8.85969,-6.09625z" fill="#949494" stroke="#000000" stroke-width="2.5" stroke-linecap="round"/><path d="M203.05931,200.77058l0.49399,-4.51097l2.77499,-1.58468l3.48165,0.75648l2.44263,4.41982l1.26203,5.37864l-1.09979,1.70559z" fill="#242424" stroke="#000000" stroke-width="2.5" stroke-linecap="round"/><path d="M211.47544,198.95318l-0.32264,2.60365l-4.13727,2.26095" fill="none" stroke="#000000" stroke-width="2.5" stroke-linecap="round"/></g><g stroke="none" stroke-linecap="butt"><path d="M193.40956,214.92873l0.69294,-5.75575l10.06724,-6.29626l6.63352,4.13514l-4.15316,7.02741l-5.63133,2.3737z" fill="#8c6200" stroke-width="NaN"/><path d="M199.50313,203.71062l5.31938,-0.97129l6.3173,4.21644l-1.93627,2.47386z" fill="#8c0081" stroke-width="NaN"/><path d="M205.04094,223.72334l-10.72702,-3.64103l0.09497,-5.73561l7.14968,1.58513l2.71392,1.96682l3.16969,1.40426l0.68071,1.17684l0.75343,2.63872z" fill="#8c0081" stroke-width="0"/><g fill="#ffffff" stroke-width="0.5"><path d="M204.93113,207.26951c0.00041,-0.00019 0.00083,-0.00038 0.00124,-0.00057c0.24811,-0.11547 0.3636,0.13264 0.3636,0.13264c0.55155,1.21789 -0.17954,2.16157 -1.28962,2.19814c0.05331,-0.11872 -0.04895,-0.22119 -0.04895,-0.22119c-0.69358,-0.69503 -1.37185,-1.40094 -2.10339,-2.05294c0.05475,-0.465 0.22163,-0.86255 0.53283,-0.98598c0.43838,-0.17386 1.02716,-0.02754 1.44331,0.09439c0.52863,0.20228 0.78828,0.46553 1.101,0.8355zM203.234,207.15235c0.08007,0.08024 0.21004,0.08037 0.29027,0.0003c0.08024,-0.08008 0.08037,-0.21004 0.0003,-0.29028c-0.08008,-0.08024 -0.21004,-0.08037 -0.29027,-0.0003c-0.08024,0.08007 -0.08037,0.21004 -0.0003,0.29027zM204.44228,208.31471c0.08008,0.08024 0.21004,0.08036 0.29028,0.00029c0.08025,-0.08008 0.08038,-0.21003 0.00031,-0.29027c-0.08008,-0.08024 -0.21004,-0.08037 -0.29028,-0.0003c-0.08024,0.08007 -0.08037,0.21004 -0.0003,0.29027z"/><path d="M204.84156,210.28582c0.26848,0.26903 -0.00055,0.5375 -0.00055,0.5375l0.0247,-0.08134c-0.06874,0.19856 -0.18806,0.3753 -0.33502,0.53266l0.01754,0.008l-0.00528,0.01156l0.08771,0.07192l-0.29948,0.36526c-0.00885,0.01107 -0.01841,0.02176 -0.02868,0.032c-0.14858,0.14828 -0.38923,0.14804 -0.5375,-0.00055c-0.08068,-0.08084 -0.11738,-0.18897 -0.11015,-0.29462c-0.00676,-0.00059 -0.01049,-0.00112 -0.01049,-0.00112c-0.58816,-0.08645 -1.15982,-0.21847 -1.73494,-0.33748c0.07006,0.27575 0.13484,0.55377 0.19302,0.835c0.16033,0.77487 0.62969,1.52469 0.36329,2.27781c0.01845,-0.05147 0.06438,-0.17959 0.08385,-0.2339l0.12405,0.05427l0.00933,-0.05563l0.39869,0.06687c0.07708,0.01195 0.15119,0.04766 0.21052,0.1071c0.14827,0.14859 0.14802,0.38923 -0.00057,0.5375c-0.02461,0.02457 -0.05175,0.04506 -0.08057,0.06147l-0.32883,0.19684l-0.03482,-0.05817c-0.26697,0.19536 -0.52765,0.24109 -1.00786,0.19165c-0.10302,0.04224 -0.24954,0.05532 -0.39589,-0.09134c-0.26848,-0.26903 0.00055,-0.53751 0.00055,-0.53751l0.35624,-0.14073c0.04334,0.00718 0.08549,0.01075 0.12639,0.01193c-0.1482,-0.55675 -0.33472,-1.34146 -0.37091,-1.47933c-0.16839,-0.64143 -0.33742,-1.27481 -0.51294,-1.90505c-0.18937,-0.02967 -0.38015,-0.0549 -0.57304,-0.07367c-0.37292,-0.0363 -0.74209,-0.02094 -1.11213,-0.01787c0.05515,0.25447 0.06846,0.53857 0.01689,0.90167l-0.00046,0.45012c-0.00009,0.09726 -0.03731,0.19449 -0.11159,0.26863c-0.14859,0.14828 -0.38924,0.14804 -0.53751,-0.00055c-0.03354,-0.03362 -0.05947,-0.07193 -0.07782,-0.11283l-0.32346,-0.67811l0.02728,-0.01302c-0.36137,-0.52379 -0.54563,-1.01506 -0.67134,-1.8981l-0.00363,-0.18812c0,0 0.0004,-0.38007 0.38047,-0.37968c0.03702,0.00004 0.07043,0.00368 0.10058,0.01022c0.02576,-0.01788 0.05579,-0.03426 0.09069,-0.04858c0.35159,-0.14434 0.49594,0.20725 0.49594,0.20725c0.11396,0.28078 0.22969,0.51221 0.33188,0.72703c0.48986,0.01734 0.97644,-0.03165 1.46965,0.01553c0.09056,0.00865 0.18073,0.01881 0.27056,0.03023c-0.16307,-0.56288 -0.33331,-1.12491 -0.51494,-1.6896c-0.34764,0.0261 -0.66305,-0.03057 -0.80123,-0.2764c-0.64157,-1.1414 1.53753,-1.0846 1.94726,-1.01624l0.24176,0.1024c0,0 0.33978,0.17033 0.16945,0.5101c-0.00981,0.01958 -0.02019,0.03746 -0.03104,0.05379c0.58606,0.54204 1.14213,1.11497 1.70643,1.68233c-0.06637,-0.01136 -0.13354,-0.02577 -0.2014,-0.04336c-0.10443,-0.02707 -0.98931,-0.24997 -1.07317,-0.31717c-0.24891,-0.19945 -0.41585,-0.73562 -0.45187,-1.29407c-0.01537,0.0196 -0.0315,0.03649 -0.04812,0.05098c-0.0481,0.19044 -0.25538,0.25929 -0.25538,0.25929c-0.10652,0.03513 -0.26498,0.08876 -0.44775,0.14068c0.22053,0.66176 0.43709,1.31777 0.63025,1.98169c0.68841,0.13515 1.36815,0.30372 2.06644,0.40174c0,0 0.03994,0.00575 0.09192,0.02651c0.02164,-0.22364 0.06754,-0.44582 0.12782,-0.66148c0,0 0.10479,-0.36534 0.47013,-0.26055c0.24724,0.07092 0.27916,0.26117 0.27397,0.37675c0.04101,0.01887 0.08303,0.0478 0.12503,0.0899z"/></g></g></g><path d="M227.0476,180.09555l-6.20584,15.98038l-10.73198,-3.0838l-1.14973,-1.10316l3.2175,-15.16732l3.56019,-5.85848l5.24122,-0.85963l4.63832,2.68387l1.56402,2.9728z" data-paper-data="{&quot;index&quot;:null}" fill="#949494" stroke="#000000" stroke-width="2.5" stroke-linecap="round"/><g data-paper-data="{&quot;index&quot;:null}"><g><path d="M272.62965,197.54913l-4.07004,-4.32395l3.63211,-3.41883l4.07004,4.32395z" fill="#000000" stroke="none" stroke-width="0" stroke-linecap="butt"/><path d="M297.7897,213.70187c0,0 0.32207,1.22659 -0.67865,1.49853c-2.62228,0.71262 -15.63581,2.93494 -15.63581,2.93494l-12.59498,-12.281c0,0 6.46095,-3.49964 8.913,-5.14442c0.95129,-0.6381 9.5554,7.0202 10.32442,6.82879c0.79935,-0.19896 -1.01875,3.10306 -0.78979,3.87949c0.25851,0.87666 2.5361,-0.75084 3.06253,-0.85483c1.48324,-0.29301 4.28648,-0.36255 4.28648,-0.36255l3.11279,3.50106z" fill="#949494" stroke="#000000" stroke-width="2.5" stroke-linecap="butt"/><path d="M267.06496,205.24448l3.93535,-9.49362l2.75653,-1.1369l2.55802,0.34695l1.94948,2.01824l0.41144,3.30836z" fill="#242424" stroke="#000000" stroke-width="2.5" stroke-linecap="butt"/><path d="M273.54641,202.51139l-2.04831,-0.56382l-1.11337,-1.95911" fill="none" stroke="#000000" stroke-width="2.5" stroke-linecap="round"/><path d="M286.53268,216.77308l0.75939,-5.96081" fill="none" stroke="#000000" stroke-width="2.5" stroke-linecap="round"/></g><g stroke="none" stroke-linecap="butt"><path d="M282.77773,217.18424l-12.45228,-10.55854l8.07293,-6.22275l1.91731,2.68677l6.32461,5.26329z" fill="#8c6200" stroke-width="NaN"/><path d="M273.35529,209.10093l-2.83618,-2.7052l8.00436,-5.62899l1.97777,2.87478z" fill="#8c0081" stroke-width="NaN"/><path d="M282.43068,217.47609l1.69243,-10.78243l2.59495,1.52603l1.02412,4.16137l2.95732,-0.86886l3.46672,0.02791l1.09258,0.80908l1.74065,2.12147z" fill="#8c0081" stroke-width="0"/><g fill="#ffffff" stroke-width="0.5"><path d="M276.10341,206.52353c-0.00022,-0.00039 -0.00043,-0.00079 -0.00065,-0.0012c-0.1309,-0.24034 0.10945,-0.37124 0.10945,-0.37124c1.18068,-0.62726 2.1686,0.04284 2.27511,1.1484c-0.12184,-0.04571 -0.21766,0.06281 -0.21766,0.06281c-0.64989,0.73605 -1.31161,1.45748 -1.91617,2.22869c-0.46752,-0.0253 -0.87482,-0.16677 -1.01762,-0.46958c-0.20117,-0.42654 -0.09228,-1.02339 0.00315,-1.44639c0.16853,-0.54035 0.41489,-0.81608 0.76439,-1.1515zM276.0755,207.93497c-0.08497,-0.07503 -0.21468,-0.06697 -0.28971,0.01801c-0.07503,0.08497 -0.06697,0.21468 0.01801,0.28971c0.08497,0.07503 0.21468,0.06697 0.28971,-0.01801c0.07503,-0.08497 0.06697,-0.21468 -0.01801,-0.28971zM277.17732,206.94549c0.07503,-0.08497 0.06697,-0.21468 -0.01801,-0.28971c-0.08497,-0.07503 -0.21468,-0.06697 -0.28971,0.01801c-0.07502,0.08497 -0.06697,0.21468 0.01801,0.28971c0.08498,0.07503 0.21469,0.06697 0.28972,-0.01801z"/><path d="M279.11934,206.42267c0.25155,-0.2849 0.53647,-0.03335 0.53647,-0.03335l-0.08274,-0.01952c0.2025,0.05607 0.38641,0.16401 0.55274,0.30075l0.00688,-0.01802l0.01187,0.00453l0.06625,-0.09208l0.38343,0.27585c0.01161,0.00813 0.02288,0.017 0.03375,0.0266c0.15735,0.13893 0.17229,0.37912 0.03335,0.53647c-0.0756,0.08562 -0.18119,0.12906 -0.28709,0.1285c-0.00017,0.00679 -0.00047,0.01054 -0.00047,0.01054c-0.04918,0.59245 -0.14489,1.1713 -0.22739,1.75278c0.27079,-0.08731 0.54417,-0.16949 0.82117,-0.24531c0.76321,-0.20888 1.48194,-0.72461 2.25035,-0.50624c-0.05252,-0.01517 -0.18328,-0.05293 -0.23872,-0.06893l0.04633,-0.12722l-0.05611,-0.00581l0.04159,-0.40212c0.00707,-0.07768 0.03803,-0.1539 0.09361,-0.21685c0.13894,-0.15735 0.37912,-0.17229 0.53647,-0.03335c0.02606,0.02301 0.04823,0.04881 0.06642,0.07654l0.21718,0.31577l-0.05585,0.03842c0.21181,0.25411 0.27389,0.51139 0.25484,0.99376c0.04865,0.10015 0.07094,0.24555 -0.0662,0.40087c-0.25156,0.28491 -0.53647,0.03335 -0.53647,0.03335l-0.16292,-0.34666c0.00443,-0.04371 0.00535,-0.086 0.00393,-0.12689c-0.5463,0.18302 -1.31768,0.41867 -1.45299,0.46348c-0.62953,0.20851 -1.25099,0.41715 -1.86891,0.63207c-0.01767,0.19086 -0.0308,0.38287 -0.03737,0.57655c-0.0127,0.37446 0.02592,0.74193 0.05233,1.11104c0.25049,-0.07108 0.53317,-0.10229 0.89881,-0.07372l0.44924,-0.02793c0.09708,-0.00604 0.19646,0.02497 0.27514,0.09443c0.15735,0.13894 0.17229,0.37912 0.03335,0.53647c-0.03143,0.0356 -0.06803,0.06391 -0.10769,0.08479l-0.65635,0.36558l-0.01471,-0.0264c-0.49996,0.3937 -0.97863,0.60857 -1.85197,0.78973l-0.18752,0.01549c0,0 -0.37935,0.02358 -0.40293,-0.35577c-0.00229,-0.03695 -0.00077,-0.07052 0.00385,-0.10102c-0.01946,-0.02457 -0.0377,-0.05351 -0.0542,-0.08744c-0.16623,-0.34178 0.17555,-0.50802 0.17555,-0.50802c0.27304,-0.13145 0.49671,-0.26154 0.70466,-0.37708c-0.01358,-0.48997 -0.09319,-0.97251 -0.0772,-1.46771c0.00293,-0.09092 0.00738,-0.18154 0.0131,-0.27192c-0.55148,0.19825 -1.10165,0.4036 -1.65375,0.62049c0.04798,0.3453 0.01132,0.66365 -0.22531,0.81707c-1.09867,0.71228 -1.17942,-1.46607 -1.13704,-1.87929l0.08695,-0.24774c0,0 0.14856,-0.34984 0.49839,-0.20129c0.02016,0.00856 0.03865,0.0178 0.05563,0.02758c0.504,-0.61908 1.04072,-1.21017 1.57135,-1.80914c-0.00714,0.06695 -0.01729,0.13492 -0.03056,0.20374c-0.02043,0.10594 -0.18707,1.0031 -0.24884,1.09103c-0.18336,0.26099 -0.70793,0.46143 -1.263,0.5326c0.02053,0.01411 0.03841,0.02914 0.05392,0.04481c0.1931,0.036 0.27489,0.23852 0.27489,0.23852c0.04177,0.10409 0.10531,0.25885 0.16865,0.43798c0.64653,-0.26183 1.28757,-0.51934 1.93799,-0.75399c0.09146,-0.69557 0.21684,-1.38458 0.27061,-2.08767c0,0 0.00322,-0.04022 0.02066,-0.0934c-0.22456,-0.00749 -0.44919,-0.0393 -0.66823,-0.08585c0,0 -0.37123,-0.08153 -0.28969,-0.45276c0.05518,-0.25123 0.24303,-0.29508 0.35871,-0.29719c0.01624,-0.04211 0.04246,-0.08588 0.08183,-0.13045z"/></g></g></g><g data-paper-data="{&quot;index&quot;:null}"><g stroke="#000000" stroke-width="2.5"><path d="M261.99876,156.32092c0,0 0.37382,-1.49134 0,-2.61279c-0.33436,-1.00305 -2.13774,-3.80042 -2.13774,-3.80042c0,0 -4.82884,-3.36413 -4.50429,-6.71662c0.03684,-0.38056 1.48571,-8.6683 6.28563,-13.35727c3.43077,-3.35147 10.43238,-3.70263 11.33658,-3.33724c0.69893,0.28244 5.09711,0.72703 9.16966,2.53989c5.73937,2.55483 11.05964,6.41853 11.05964,6.41853l-2.00675,13.6172l-20.88931,-0.1146l0.71258,7.36331z" fill="#949494" stroke-linecap="butt"/><path d="M292.40213,142.78192l-13.06394,-2.61279l-3.32537,-3.32537l-3.32537,-9.9761l11.16373,3.56289l8.78847,4.98805z" fill="#000000" stroke-linecap="round"/><path d="M276.72539,138.50644h-1.66268" fill="none" stroke-linecap="round"/><path d="M276.48787,141.11926l-2.37526,-0.23753" fill="none" stroke-linecap="round"/><path d="M274.82518,143.49452l-1.42516,-0.23753" fill="none" stroke-linecap="round"/><path d="M289.54813,149.06909c0,0 -12.49164,-0.39597 -18.91936,0.1673c-1.58149,0.13859 -0.21237,1.97931 -1.19817,1.99021c-8.7343,0.0966 -9.63865,-1.9509 -10.4463,-2.94232c-2.00598,-2.46241 -4.19835,-5.75255 -4.09135,-6.33654c0.13759,-0.75094 1.86893,-2.51352 1.86893,-2.51352l3.92426,1.53509l5.4631,1.90021l5.70063,1.18763l9.9761,0.23753l8.07589,4.27547" fill="#373737" stroke-linecap="round"/><path d="M289.21423,151.38278l-0.9501,2.37526h-12.35136l-2.61279,-0.47505l-0.9501,-2.37526l0.47505,-1.90021l1.18763,-1.42516l1.42516,0.47505l1.18763,1.42516l0.9501,1.18763z" fill="#000000" stroke-linecap="round"/><path d="M266.27424,152.28299l-0.23753,2.61279" fill="none" stroke-linecap="round"/><path d="M262.23629,151.80793l8.55094,0.71258" fill="none" stroke-linecap="round"/><path d="M265.32412,130.19305l-1.18763,2.13774l0.47505,2.13774l-3.56289,-1.90021l0.23753,-4.513l3.32537,-3.80042l1.42516,1.90021l0.23753,3.32537z" fill="#151515" stroke-linecap="round"/><path d="M266.03672,133.87666l-3.32537,0.47505l-1.66268,-3.32537l0.9501,-1.42516l2.37526,-2.13774l1.90021,-0.23753l1.18763,0.9501l1.18763,1.18763l0.47505,2.61279z" fill="none" stroke-linecap="round"/></g><path d="M287.00598,132.8337c2.56859,0.75552 3.17067,2.26139 2.7603,4.07085c-0.41037,1.80946 -2.31153,2.9206 -4.24638,2.48179c-1.93484,-0.43881 -3.17067,-2.26139 -2.7603,-4.07085c0.41037,-1.80946 1.60058,-3.26001 4.24638,-2.48179z" fill="#54ff00" stroke="none" stroke-width="0" stroke-linecap="butt"/><path d="M277.40167,134.93681c-0.99389,0.11043 -1.10432,-0.88345 -1.10432,-0.88345l-0.03459,-1.38182c0.60581,-1.51114 1.15258,-2.67069 2.36411,-3.77602c0,0 0.74741,-0.66436 1.41177,0.08305c0.66436,0.74741 -0.08305,1.41177 -0.08305,1.41177c-0.99724,0.8552 -1.35583,1.82093 -1.83589,3.02398l0.16541,0.41818c0,0 0.11043,0.99389 -0.88345,1.10432z" fill="#54ff00" stroke="none" stroke-width="0.5" stroke-linecap="butt"/></g></g></g></svg>