<svg version="1.1" xmlns="http://www.w3.org/2000/svg" xmlns:xlink="http://www.w3.org/1999/xlink" width="481.4036" height="64.58402" viewBox="0,0,481.4036,64.58402"><g transform="translate(0.7018,-294.39648)"><g data-paper-data="{&quot;isPaintingLayer&quot;:true}" fill-rule="nonzero" stroke-linejoin="miter" stroke-miterlimit="10" stroke-dasharray="" stroke-dashoffset="0" style="mix-blend-mode: normal"><path d="M172.69443,319.39648h158" fill="none" stroke="#a07400" stroke-width="50" stroke-linecap="round"/><path d="M-0.7018,358.98049v-47.56209h192.05817v47.5621z" fill="#d69b00" stroke="none" stroke-width="0" stroke-linecap="butt"/><path d="M-0.7018,315.09662v-20.66222h192.4036v20.66222l-19.65661,25.13352l-19.37841,-27.86705l-14.565,27.06054l-24.31135,-27.71874l-20.62474,18.55532l-25.40989,-15.93977l-25.27355,17.91163l-16.76679,-14.01149l-15.36354,17.92812z" fill="#00ff2a" stroke="none" stroke-width="0" stroke-linecap="butt"/><path d="M288.2982,358.98049v-47.56209h192.05817v47.5621z" fill="#d69b00" stroke="none" stroke-width="0" stroke-linecap="butt"/><path d="M288.2982,315.09662v-20.66222h192.4036v20.66222l-19.65661,25.13352l-19.37842,-27.86705l-14.565,27.06054l-24.31135,-27.71874l-20.62474,18.55532l-25.4099,-15.93977l-25.27355,17.91163l-16.76679,-14.01149l-15.36354,17.92812z" fill="#00ff2a" stroke="none" stroke-width="0" stroke-linecap="butt"/></g></g></svg>