<svg version="1.1" xmlns="http://www.w3.org/2000/svg" xmlns:xlink="http://www.w3.org/1999/xlink" width="148.10798" height="103.5407" viewBox="0,0,148.10798,103.5407"><g transform="translate(-166.55996,-125.49475)"><g data-paper-data="{&quot;isPaintingLayer&quot;:true}" fill-rule="nonzero" stroke-linejoin="miter" stroke-miterlimit="10" stroke-dasharray="" stroke-dashoffset="0" style="mix-blend-mode: normal"><path d="M267.39454,218.29722c0,-5.43249 4.4039,-9.83639 9.83639,-9.83639c5.43249,0 9.83639,4.4039 9.83639,9.83639c0,5.43249 -4.40391,9.8364 -9.83639,9.8364c-5.43249,0 -9.83639,-4.40391 -9.83639,-9.8364z" fill="#000000" stroke="none" stroke-width="NaN" stroke-linecap="butt"/><path d="M214.10685,199.9801c0,0 -7.44251,-19.81662 -6.26831,-31.91247c0.20428,-2.10431 -2.71549,-8.49378 5.51433,-9.70295c5.82595,-0.85598 7.87975,5.03638 7.87975,5.03638c0,0 -3.50116,0.1644 7.24001,0.23325c0.43887,0.00281 21.54091,-0.47078 21.97571,-0.47078c4.50321,0 17.33941,-2.13774 17.33941,-2.13774l6.77329,12.59998c0,0 0.82322,18.74664 0.67987,23.39273c-0.13446,4.35771 -1.51501,3.67416 -1.51501,3.67416z" fill="#949494" stroke="#000000" stroke-width="2" stroke-linecap="butt"/><path d="M227.10927,170.9399c0,0 6.23973,0.3504 8.00911,2.72298c0.94897,1.27248 3.37102,8.06752 2.58871,13.45012c-0.28402,1.95419 -3.97754,10.0884 -8.46709,10.60669c-1.65559,0.19113 -7.33431,-1.22586 -10.76089,-4.83995c-2.77692,-2.92887 -3.58557,-7.70834 -3.45338,-11.01242c0.13327,-3.33107 3.05358,-6.77484 6.30116,-8.77418c2.66459,-1.64043 5.78238,-2.15324 5.78238,-2.15324" fill="#949494" stroke="#000000" stroke-width="2" stroke-linecap="round"/><path d="M269.6709,181.30514c0,6.42792 -4.945,12.82642 -11.04497,12.82642c-6.09997,0 -11.75755,-6.16096 -11.75755,-12.58889c0,-6.42793 3.9949,-11.16373 10.09486,-11.16373c1.43888,0 4.23865,1.00251 5.49925,1.52997c4.08361,1.70863 7.2084,4.48455 7.2084,9.39624z" fill="#949494" stroke="#000000" stroke-width="2" stroke-linecap="butt"/><g data-paper-data="{&quot;index&quot;:null}" stroke="#000000" stroke-width="2" stroke-linecap="round"><path d="M292.57417,158.09967c0,0 -6.88833,5.85628 -10.49769,7.34981c-2.05913,0.85206 -7.18156,1.9047 -9.77452,1.34734c-0.38442,-0.08263 -1.58103,-1.22173 -0.73406,-2.79699c0.72948,-1.35674 3.28154,-3.09837 5.58793,-4.05c5.36241,-2.21257 15.18081,-1.85015 15.18081,-1.85015" fill="#949494"/><path d="M275.23476,160.71246l1.66268,5.93816" fill="none"/></g><path d="M207.72785,184.46492c0,0 7.8272,-4.85428 10.69822,-6.63482c1.9344,-1.19968 4.85663,-3.01199 4.85663,-3.01199c0,0 4.24804,-1.00217 4.65608,-0.6746c0.93452,0.75022 3.93629,1.32851 4.82819,3.77196c0.71224,1.9513 0.18947,5.79879 0.15703,6.91505c-0.05712,1.96625 -4.82379,4.73268 -4.82379,4.73268l-13.80721,6.47013z" data-paper-data="{&quot;index&quot;:null}" fill="#949494" stroke="#000000" stroke-width="2.5" stroke-linecap="butt"/><path d="M246.98682,188.50383l-0.56768,-3.31081l2.04783,-4.95213l4.68238,-2.50692l6.38998,2.48292l11.78215,10.07874l-0.24117,1.57502l-6.64029,8.97729l-14.64835,-8.90567z" data-paper-data="{&quot;index&quot;:null}" fill="#949494" stroke="#000000" stroke-width="2.5" stroke-linecap="round"/><g data-paper-data="{&quot;index&quot;:null}"><g><path d="M204.28317,185.98736l5.93561,-0.17386l0.14604,4.98591l-5.93561,0.17386z" fill="#000000" stroke="none" stroke-width="0" stroke-linecap="butt"/><path d="M175.22277,184.57619l4.67696,-0.27007c0,0 1.93107,2.03321 2.77148,3.29002c0.29828,0.44606 0.75532,3.20781 1.55842,2.77148c0.71129,-0.38643 1.76404,-4.0059 2.18791,-3.29958c0.40779,0.67952 11.9064,1.35932 12.12678,2.4834c0.56806,2.89745 2.65527,9.94265 2.65527,9.94265l-17.58976,-0.23886c0,0 -7.62022,-10.78067 -8.9683,-13.14009c-0.51446,-0.9004 0.58122,-1.53894 0.58122,-1.53894z" fill="#949494" stroke="#000000" stroke-width="2.5" stroke-linecap="butt"/><path d="M198.21986,188.6284l2.63225,-2.04591l2.80565,-0.04593l2.05262,1.56543l1.14262,2.75416l-3.93937,9.49195z" fill="#949494" stroke="#000000" stroke-width="2.5" stroke-linecap="butt"/><path d="M204.28857,194.28541l-2.17314,0.59595l-1.84605,-1.05146" fill="none" stroke="#000000" stroke-width="2.5" stroke-linecap="round"/><path d="M184.68381,189.96493l-3.68251,4.74838" fill="none" stroke="#000000" stroke-width="2.5" stroke-linecap="round"/></g><g stroke="none" stroke-linecap="butt"><path d="M186.88485,188.68894l8.19316,0.75831l3.2561,-0.54097l1.2986,10.10982l-16.26982,-1.35466z" fill="#8c6200" stroke-width="NaN"/><path d="M194.55639,189.70574l3.43187,-0.631l1.67041,9.64183l-3.91826,-0.09637z" fill="#8c0081" stroke-width="NaN"/><path d="M175.2369,185.67861l2.73119,-0.26667l1.34448,0.20175l2.46874,2.43397l1.47417,2.70693l3.66882,-2.21486l2.91324,0.75863l-6.43604,8.81489z" fill="#8c0081" stroke-width="0"/><g fill="#ffffff" stroke-width="0.5"><path d="M195.62332,194.8544c0.00949,0.48432 -0.01164,0.85347 -0.27503,1.35448c-0.23198,0.36637 -0.5775,0.86507 -1.02151,1.02401c-0.3152,0.11284 -0.70306,-0.07551 -1.05123,-0.38853c0.11878,-0.97271 0.16193,-1.9507 0.22379,-2.93065c0,0 0.00912,-0.14449 -0.1093,-0.19843c0.85774,-0.70561 2.02992,-0.47976 2.42002,0.79902c0,0 0.07714,0.26259 -0.18544,0.33972c-0.00044,0.00013 -0.00087,0.00026 -0.00131,0.00038zM194.42626,196.06314c-0.00714,0.11314 0.07878,0.21064 0.19192,0.21778c0.11314,0.00714 0.21064,-0.07878 0.21778,-0.19192c0.00714,-0.11314 -0.07878,-0.21064 -0.19192,-0.21778c-0.11314,-0.00714 -0.21064,0.07878 -0.21778,0.19192zM194.566,194.39236c-0.00714,0.11314 0.07878,0.21064 0.19192,0.21778c0.11314,0.00714 0.21063,-0.07879 0.21778,-0.19192c0.00714,-0.11314 -0.07878,-0.21064 -0.19192,-0.21778c-0.11314,-0.00714 -0.21064,0.07878 -0.21778,0.19192z"/><path d="M193.56413,192.64853c-0.00374,0.05935 -0.01619,0.10884 -0.03453,0.15007c0.08023,0.08337 0.18189,0.24731 0.04306,0.46384c-0.20515,0.31996 -0.5251,0.11481 -0.5251,0.11481c-0.18768,-0.12214 -0.36888,-0.25866 -0.53282,-0.41231c-0.02532,0.04992 -0.05152,0.08061 -0.05152,0.08061c-0.45964,0.53473 -0.85875,1.11021 -1.28645,1.66632c0.29339,0.62612 0.56398,1.26174 0.83539,1.90432c0.17153,-0.08171 0.32595,-0.14607 0.42913,-0.19003c0,0 0.20112,-0.08518 0.36301,0.02606c0.02205,-0.00009 0.04531,0.00194 0.0698,0.00651c-0.34174,-0.44315 -0.57045,-0.95602 -0.51525,-1.27017c0.0186,-0.10584 0.53587,-0.85757 0.59642,-0.94686c0.03933,-0.05801 0.08026,-0.11321 0.12261,-0.16556c-0.04909,0.7987 -0.0883,1.59614 -0.17044,2.3902c0.01892,0.0051 0.03852,0.01167 0.05882,0.01989c0.35228,0.14266 0.20961,0.49495 0.20961,0.49495l-0.11392,0.23655c-0.26253,0.32191 -1.86138,1.8036 -2.13337,0.52281c-0.05858,-0.27586 0.14085,-0.5267 0.41914,-0.73667c-0.23652,-0.54398 -0.47983,-1.07846 -0.72909,-1.60883c-0.05993,0.0679 -0.12093,0.13506 -0.18321,0.20137c-0.3392,0.36114 -0.73697,0.64568 -1.09335,0.98219c0.06512,0.22881 0.13105,0.47902 0.2309,0.76513c0,0 0.12378,0.35934 -0.23556,0.48314c-0.03567,0.0123 -0.06904,0.01982 -0.10018,0.02341c-0.01832,0.02482 -0.04101,0.04962 -0.06878,0.07409c-0.28515,0.25129 -0.53645,-0.03386 -0.53645,-0.03386l-0.12151,-0.14367c-0.48873,-0.74611 -0.6748,-1.2367 -0.74933,-1.86868l-0.02907,0.00824l-0.20491,-0.72282c-0.01323,-0.04282 -0.01906,-0.08873 -0.01606,-0.13612c0.01322,-0.2095 0.19377,-0.36859 0.40326,-0.35537c0.10474,0.00662 0.19689,0.05505 0.2612,0.12803l0.29759,0.3377c0.27852,0.23861 0.45613,0.46073 0.58277,0.68824c0.2799,-0.24206 0.56728,-0.47432 0.82334,-0.74784c0.13245,-0.14147 0.25907,-0.28641 0.38168,-0.43375c-0.2844,-0.58917 -0.57574,-1.17643 -0.87288,-1.7693c-0.06387,-0.12743 -0.44201,-0.83987 -0.69839,-1.35582c-0.02994,0.02789 -0.05923,0.05841 -0.08703,0.09242l-0.36045,0.12958c0,0 -0.37931,-0.02394 -0.35537,-0.40326c0.01306,-0.20679 0.13171,-0.29372 0.23697,-0.33004c0.32795,-0.35425 0.55391,-0.49206 0.88339,-0.52166l-0.01226,-0.06667l0.37692,-0.06935c0.03248,-0.00672 0.06639,-0.00925 0.1011,-0.00706c0.2095,0.01322 0.36859,0.19377 0.35537,0.40326c-0.00529,0.08381 -0.03737,0.15956 -0.08736,0.21945l-0.25524,0.31351l-0.04375,-0.03561l-0.05731,0.12267c-0.05048,-0.02793 -0.16959,-0.09381 -0.21743,-0.12026c0.69739,0.38961 0.8401,1.26264 1.23141,1.95039c0.14202,0.24961 0.27697,0.50116 0.40647,0.7545c0.35328,-0.46917 0.69537,-0.94582 1.07996,-1.39916c0,0 0.00244,-0.00286 0.00713,-0.00778c-0.0752,-0.07456 -0.11905,-0.17998 -0.11185,-0.29398c0.01322,-0.2095 0.19378,-0.3686 0.40326,-0.35537c0.01448,0.00091 0.02871,0.00262 0.04267,0.00509l0.46611,0.07652l-0.01837,0.11194l0.0116,0.0052l-0.0079,0.0176c0.21428,0.02113 0.4206,0.07504 0.60334,0.17876l-0.07227,-0.04477c0,0 0.37932,0.02395 0.35537,0.40326z"/></g></g></g><g><path d="M208.96755,159.54443l0.71258,-7.36331l-20.88931,0.1146l-2.00675,-13.6172c0,0 5.32027,-3.8637 11.05964,-6.41853c4.07255,-1.81286 9.16966,-2.53989 9.16966,-2.53989l12.04994,0.51201l6.83167,14.20345l-5.76368,8.69567c0,0 -1.80338,2.79737 -2.13774,3.80042c-0.37382,1.12145 0,2.61279 0,2.61279z" fill="#949494" stroke="#000000" stroke-width="2.5" stroke-linecap="butt"/><path d="M187.35266,138.64212l8.78847,-4.98805l11.16373,-3.56289l-3.32537,9.9761l-3.32537,3.32537l-13.06394,2.61279z" fill="#000000" stroke="#000000" stroke-width="2.5" stroke-linecap="round"/><path d="M203.26692,141.72996h1.66268" fill="none" stroke="#000000" stroke-width="2.5" stroke-linecap="round"/><path d="M203.50444,144.34278l2.37526,-0.23753" fill="none" stroke="#000000" stroke-width="2.5" stroke-linecap="round"/><path d="M205.16713,146.71804l1.42516,-0.23753" fill="none" stroke="#000000" stroke-width="2.5" stroke-linecap="round"/><path d="M190.09045,151.79367l8.07589,-4.27547l9.9761,-0.23753l5.70063,-1.18763l5.4631,-1.90021l3.92426,-1.53509c0,0 1.73134,1.76258 1.86893,2.51352c0.107,0.58399 -2.08537,3.87413 -4.09135,6.33654c-0.80765,0.99142 -1.712,3.03892 -10.4463,2.94232c-0.9858,-0.0109 0.38332,-1.85162 -1.19817,-1.99021c-6.42772,-0.56327 -18.91936,-0.1673 -18.91936,-0.1673" fill="#373737" stroke="#000000" stroke-width="2.5" stroke-linecap="round"/><path d="M202.41686,153.89372l0.9501,-1.18763l1.18763,-1.42516l1.42516,-0.47505l1.18763,1.42516l0.47505,1.90021l-0.9501,2.37526l-2.61279,0.47505h-12.35136l-0.9501,-2.37526z" fill="#000000" stroke="#000000" stroke-width="2.5" stroke-linecap="round"/><path d="M213.9556,158.1193l-0.23753,-2.61279" fill="none" stroke="#000000" stroke-width="2.5" stroke-linecap="round"/><path d="M209.20508,155.74403l8.55094,-0.71258" fill="none" stroke="#000000" stroke-width="2.5" stroke-linecap="round"/><path d="M213.71807,132.704l0.23753,-3.32537l1.42516,-1.90021l3.32537,3.80042l0.23753,4.513l-3.56289,1.90021l0.47505,-2.13774l-1.18763,-2.13774z" fill="#151515" stroke="#000000" stroke-width="2.5" stroke-linecap="round"/><path d="M210.86776,135.19995l0.47505,-2.61279l1.18763,-1.18763l1.18763,-0.9501l1.90021,0.23753l2.37526,2.13774l0.9501,1.42516l-1.66268,3.32537l-3.32537,-0.47505z" fill="none" stroke="#000000" stroke-width="2.5" stroke-linecap="round"/><path d="M191.59452,142.46983v-5.03759h4.90981v5.03759z" fill="#ff0000" stroke="none" stroke-width="0" stroke-linecap="butt"/><path d="M200.97164,132.96318l-9.75853,3.90053" fill="none" stroke="#ff0000" stroke-width="1.5" stroke-linecap="round"/></g><path d="M184.8826,206.83331l-18.32264,-11.80367l38.20821,7.65474l83.0438,-0.20087l26.85597,-11.38843l-19.84952,19.95383l-85.12371,1.40228z" fill="#000000" stroke="none" stroke-width="NaN" stroke-linecap="butt"/><path d="M171.61869,199.80732l11.80367,-4.49664" fill="none" stroke="#000000" stroke-width="2.5" stroke-linecap="round"/><g data-paper-data="{&quot;index&quot;:null}"><g><path d="M267.92726,202.6025l-4.9914,-3.21677l2.70208,-4.19278l4.9914,3.21677z" data-paper-data="{&quot;index&quot;:null}" fill="#000000" stroke="none" stroke-width="0" stroke-linecap="butt"/><path d="M274.7193,204.35956l9.99351,3.97342l3.91711,8.91922l-1.57315,3.36026l-0.88737,1.46504l-8.83195,4.66315l-3.94527,0.53715l0.38343,-2.54047l0.88737,-1.46504l0.91439,-2.52695l2.70882,-2.05625l-4.44919,-0.53827l-3.20543,-3.48188l-3.85068,-3.17952z" fill="#949494" stroke="#000000" stroke-width="2.5" stroke-linecap="round"/><path d="M266.78092,211.48941l-1.45154,-1.41831l0.03434,-5.52461l1.39861,-4.85234l3.22625,-1.51178l3.05791,0.9279l1.48476,4.28816z" fill="#949494" stroke="#000000" stroke-width="2.5" stroke-linecap="round"/><path d="M271.35171,207.24911l-4.53646,-1.28431l-0.89355,-2.46671" fill="none" stroke="#000000" stroke-width="2.5" stroke-linecap="round"/></g><g stroke="none" stroke-linecap="butt"><path d="M279.99919,218.19539l-6.01818,-1.06199l-5.6119,-5.92788l5.54787,-5.50674l11.2153,3.89989l1.95554,5.45753z" fill="#8c6200" stroke-width="NaN"/><path d="M270.46643,213.20701l-2.43792,-1.98133l5.22148,-5.51569l5.40218,-0.23594z" fill="#8c0081" stroke-width="NaN"/><path d="M273.82955,226.48032l0.14777,-2.7402l0.40196,-1.29875l2.77805,-2.07396l2.20859,-2.52109l6.61816,-3.13536l1.36805,5.57088l-9.64874,5.9353z" fill="#8c0081" stroke-width="0"/><g fill="#ffffff" stroke-width="0.5"><path d="M274.1515,210.15089c0.22262,-0.43024 0.41722,-0.74464 0.88764,-1.05941c0.37862,-0.21142 0.92011,-0.485 1.38618,-0.41298c0.33086,0.05113 0.58197,0.40162 0.73875,0.8428c-0.56824,0.79835 -1.07254,1.63741 -1.5942,2.46928c0,0 -0.07692,0.12265 0.00146,0.22653c-1.09041,0.2112 -2.01305,-0.54627 -1.74614,-1.85632c0,0 0.05742,-0.26758 0.325,-0.21018c0.00044,0.00009 0.00089,0.00019 0.00133,0.00028zM275.78009,209.65925c0.06022,-0.09604 0.03119,-0.22272 -0.06484,-0.28294c-0.09604,-0.06022 -0.22271,-0.0312 -0.28294,0.06484c-0.06022,0.09604 -0.03119,0.22272 0.06485,0.28295c0.09604,0.06022 0.22272,0.03119 0.28294,-0.06484zM274.86054,211.0612c0.06022,-0.09604 0.03119,-0.22272 -0.06484,-0.28294c-0.09604,-0.06022 -0.22272,-0.03119 -0.28295,0.06485c-0.06022,0.09604 -0.0312,0.22271 0.06485,0.28294c0.09604,0.06022 0.22271,0.03121 0.28294,-0.06483z"/><path d="M274.90962,213.07175c0.03159,-0.05038 0.06613,-0.08794 0.10191,-0.11545c-0.03076,-0.11154 -0.04194,-0.30412 0.18333,-0.42824c0.33289,-0.18341 0.5163,0.14948 0.5163,0.14948c0.10674,0.19686 0.20089,0.40327 0.27172,0.61649c0.04606,-0.0318 0.08372,-0.04629 0.08372,-0.04629c0.65901,-0.25085 1.28424,-0.56636 1.92536,-0.85121c0.04068,-0.69025 0.10594,-1.37799 0.17379,-2.07222c-0.18974,-0.00997 -0.35616,-0.02703 -0.46782,-0.03759c0,0 -0.2174,-0.02103 -0.30664,-0.19601c-0.01943,-0.01043 -0.03891,-0.02331 -0.05826,-0.03901c0.08907,0.55248 0.04554,1.11235 -0.15279,1.36215c-0.06681,0.08416 -0.87997,0.49826 -0.97576,0.54787c-0.06224,0.03224 -0.12453,0.06122 -0.18671,0.08706c0.42401,-0.67864 0.83874,-1.36088 1.28959,-2.01968c-0.0142,-0.01351 -0.0283,-0.02863 -0.04222,-0.04554c-0.24163,-0.29338 0.05177,-0.53501 0.05177,-0.53501l0.21294,-0.15359c0.38427,-0.15776 2.49618,-0.69772 2.12449,0.55777c-0.08006,0.27041 -0.37497,0.3958 -0.7197,0.44766c-0.05151,0.59094 -0.09251,1.17676 -0.12632,1.7618c0.08505,-0.03111 0.1707,-0.06106 0.25707,-0.08964c0.47036,-0.15568 0.95566,-0.21612 1.4294,-0.34196c0.05186,-0.23217 0.11323,-0.48354 0.1619,-0.78263c0,0 0.06255,-0.37488 0.43744,-0.31234c0.03722,0.0062 0.07013,0.0155 0.09923,0.0272c0.02794,-0.01308 0.05971,-0.02406 0.09579,-0.03233c0.37047,-0.0849 0.45538,0.28557 0.45538,0.28557l0.03829,0.18422c0.07381,0.88888 0.00341,1.40883 -0.23244,1.99986l0.02949,0.00662l-0.16456,0.73306c-0.00879,0.04395 -0.02556,0.08707 -0.05078,0.12731c-0.11152,0.17784 -0.34608,0.23159 -0.52393,0.12006c-0.08891,-0.05576 -0.14682,-0.14229 -0.16853,-0.23709l-0.10054,-0.43874c-0.13103,-0.34255 -0.18122,-0.62249 -0.18405,-0.88285c-0.36146,0.07929 -0.72481,0.14642 -1.08031,0.26473c-0.18389,0.0612 -0.36429,0.12822 -0.54231,0.19926c-0.03097,0.6535 -0.05492,1.30861 -0.07646,1.97142c-0.00463,0.14246 -0.01198,0.94901 -0.03265,1.52477c0.03961,-0.01025 0.07991,-0.0231 0.12057,-0.03973l0.37862,0.05799c0,0 0.322,0.20193 0.12006,0.52393c-0.11008,0.17553 -0.25584,0.19536 -0.36567,0.17709c-0.45719,0.155 -0.72152,0.16838 -1.02524,0.03728l-0.02102,0.06446l-0.36437,-0.11879c-0.03175,-0.00959 -0.06276,-0.02353 -0.09222,-0.04201c-0.17784,-0.11152 -0.2316,-0.34608 -0.12008,-0.52392c0.04463,-0.07115 0.10894,-0.12244 0.18143,-0.15123l0.37384,-0.15385l0.02147,0.05216l0.10887,-0.08049c0.03107,0.04862 0.10434,0.16332 0.13377,0.2094c-0.4272,-0.67502 -0.13634,-1.51044 -0.15234,-2.30156c-0.00581,-0.28712 -0.00448,-0.57259 0.0025,-0.85702c-0.53426,0.24393 -1.06224,0.49976 -1.61645,0.71484c0,0 -0.00352,0.00135 -0.00998,0.00343c0.03055,0.1014 0.01882,0.21498 -0.04187,0.31174c-0.11152,0.17784 -0.34608,0.23159 -0.52392,0.12006c-0.01229,-0.0077 -0.02398,-0.016 -0.03508,-0.02482l-0.37321,-0.28952l0.06952,-0.08963l-0.00771,-0.0101l0.01532,-0.0117c-0.17827,-0.12075 -0.33391,-0.26652 -0.44508,-0.44483l0.04217,0.07381c0,0 -0.32199,-0.20192 -0.12006,-0.52392z"/></g></g></g><path d="M206.18658,219.19906c0,-5.43249 4.4039,-9.83639 9.83639,-9.83639c5.43249,0 9.83639,4.4039 9.83639,9.83639c0,5.43249 -4.4039,9.83639 -9.83639,9.83639c-5.43249,0 -9.83639,-4.4039 -9.83639,-9.83639z" fill="#000000" stroke="none" stroke-width="NaN" stroke-linecap="butt"/><text transform="translate(237.75,174.56161) scale(0.27306,0.27306)" font-size="40" xml:space="preserve" fill="#9e00ff" fill-rule="nonzero" stroke="none" stroke-width="1" stroke-linecap="butt" stroke-linejoin="miter" stroke-miterlimit="10" stroke-dasharray="" stroke-dashoffset="0" font-family="Sans Serif" font-weight="normal" text-anchor="start" style="mix-blend-mode: normal"><tspan x="0" dy="0">M</tspan></text></g></g></svg>