<svg version="1.1" xmlns="http://www.w3.org/2000/svg" xmlns:xlink="http://www.w3.org/1999/xlink" width="116.76882" height="99.25554" viewBox="0,0,116.76882,99.25554"><g transform="translate(-172.3288,-128.76944)"><g data-paper-data="{&quot;isPaintingLayer&quot;:true}" fill-rule="nonzero" stroke-linejoin="miter" stroke-miterlimit="10" stroke-dasharray="" stroke-dashoffset="0" style="mix-blend-mode: normal"><g data-paper-data="{&quot;index&quot;:null}" fill="#949494" stroke="#000000" stroke-width="2"><path d="M204.74921,200.3054c0,0 -6.64286,-11.93942 -3.49459,-18.64127c1.13169,-2.40908 0.89596,-2.59479 2.69679,-6.62759c0.64865,-1.4526 1.4419,-2.94082 2.25333,-4.68416c2.17592,-4.67491 4.48262,-9.71385 4.48262,-9.71385c0,0 12.8362,2.13774 17.33941,2.13774c0.4348,0 21.53684,0.47359 21.97571,0.47078c10.74117,-0.06885 7.24001,-0.23325 7.24001,-0.23325c0,0 5.00242,-3.25087 6.6278,-2.9405c3.12122,0.596 6.09658,-2.66377 7.77886,2.9894c0.7907,2.65709 0.61267,2.95203 0.96648,6.59672c0.51648,5.32044 0.7566,13.44454 -1.04569,18.83477c-2.4256,7.25441 -7.20167,11.09865 -7.20167,11.09865z" stroke-linecap="butt"/><path d="M227.98792,199.35515c0,0 9.15072,-8.9704 8.79967,-18.34394c-0.36124,-4.29476 -5.1374,-13.07136 -5.1374,-13.07136l-4.03795,-4.98805l3.32537,4.27547c0,0 4.10165,-0.47068 6.34937,-0.72861c2.54497,-0.29205 8.13973,-0.93407 8.13973,-0.93407l-0.23753,-1.66268" stroke-linecap="round"/><path d="M257.30301,170.55264c0,0 3.11779,0.51281 5.78238,2.15324c3.24758,1.99934 6.16789,5.44311 6.30116,8.77418c0.13219,3.30408 -0.67646,8.08355 -3.45338,11.01242c-3.42658,3.61409 -9.1053,5.03108 -10.76089,4.83995c-4.48955,-0.51829 -8.18307,-8.6525 -8.46709,-10.60669c-0.78231,-5.3826 1.63974,-12.17764 2.58871,-13.45012c1.76938,-2.37258 8.00911,-2.72298 8.00911,-2.72298" stroke-linecap="round"/><path d="M207.18501,183.61659c0,-4.91169 3.12479,-7.68761 7.2084,-9.39624c1.2606,-0.52746 4.06037,-1.52997 5.49925,-1.52997c6.09996,0 10.09486,4.7358 10.09486,11.16373c0,6.42793 -5.65758,12.58889 -11.75755,12.58889c-6.09997,0 -11.04497,-6.3985 -11.04497,-12.82642z" stroke-linecap="butt"/></g><g data-paper-data="{&quot;index&quot;:null}" stroke="#000000" stroke-width="2" stroke-linecap="round"><path d="M187.97053,155.68869c0,0 9.8184,-0.36242 15.18081,1.85015c2.30639,0.95163 4.85845,2.69326 5.58793,4.05c0.84697,1.57526 -0.34964,2.71436 -0.73406,2.79699c-2.59296,0.55736 -7.71539,-0.49528 -9.77452,-1.34734c-3.60936,-1.49353 -10.49769,-7.34981 -10.49769,-7.34981" fill="#d8d8d8"/><path d="M203.40972,164.23962l1.66268,-5.93816" fill="none"/></g><path d="M240.31376,188.14803l10.67584,-10.88706c0,0 4.18834,-3.58219 6.06264,-2.98523c1.06407,0.33889 4.8677,1.11919 6.47322,2.4372c2.01046,1.65045 1.5625,4.67441 1.96108,5.80459c0.17403,0.49347 -2.17783,4.17028 -2.17783,4.17028c0,0 -2.67745,2.15757 -4.44983,3.5858c-2.63053,2.11976 -9.8021,7.89883 -9.8021,7.89883z" data-paper-data="{&quot;index&quot;:null}" fill="#949494" stroke="#000000" stroke-width="2.5" stroke-linecap="butt"/><g data-paper-data="{&quot;index&quot;:null}"><g><path d="M199.0129,191.3319l5.9336,-0.23264l0.19542,4.98422l-5.9336,0.23264z" data-paper-data="{&quot;index&quot;:null}" fill="#000000" stroke="none" stroke-width="0" stroke-linecap="butt"/><path d="M195.67771,204.55178l-4.93234,0.78047l-4.53039,1.36887l-4.10502,-1.79828l1.28735,3.14779l-0.4972,2.64091l0.01937,1.71272l-0.96129,2.38263l-3.12437,-2.46819l-5.23498,-8.50548l-0.01937,-1.71272l0.35353,-3.69339l7.9074,-5.68939l10.62578,1.65866z" fill="#949494" stroke="#000000" stroke-width="2.5" stroke-linecap="round"/><path d="M193.11672,193.64431l3.45854,-2.93792l3.105,0.75547l2.00973,2.94197l-1.26235,4.88955l-2.77894,4.77493l-1.971,0.48346z" fill="#242424" stroke="#000000" stroke-width="2.5" stroke-linecap="round"/><path d="M200.4801,198.10692l-2.02346,1.66994l-4.55944,-1.2002" fill="none" stroke="#000000" stroke-width="2.5" stroke-linecap="round"/></g><g stroke="none" stroke-linecap="butt"><path d="M176.37734,197.3l4.45841,-3.70559l11.64054,2.3431l1.97807,7.56242l-7.84617,2.25186l-5.72239,-2.1449z" fill="#8c6200" stroke-width="NaN"/><path d="M188.51284,193.33677l4.5321,2.94945l1.69246,7.4042l-3.10664,0.46686z" fill="#8c0081" stroke-width="NaN"/><path d="M178.78484,211.68186l-5.29165,-10.01621l4.01012,-4.10185l4.10527,6.06443l0.62028,3.29378l1.33797,3.19824l-0.31409,1.32275l-1.26577,2.43482z" fill="#8c0081" stroke-width="0"/><g fill="#ffffff" stroke-width="0.5"><path d="M190.01102,199.65217c0.00043,0.00014 0.00087,0.00029 0.00129,0.00044c0.25961,0.08659 0.17302,0.34621 0.17302,0.34621c-0.43614,1.26383 -1.61573,1.44708 -2.44737,0.71088c0.12031,-0.04962 0.11642,-0.19434 0.11642,-0.19434c-0.02633,-0.98155 -0.03406,-1.96047 -0.11754,-2.93683c0.35929,-0.30022 0.75371,-0.47438 1.06462,-0.35022c0.43796,0.17491 0.76518,0.68579 0.98375,1.06032c0.24507,0.51021 0.25283,0.87988 0.22581,1.36355zM188.85851,198.4009c0.00304,0.11331 0.09737,0.20271 0.21069,0.19967c0.11332,-0.00304 0.20272,-0.09738 0.19968,-0.21069c-0.00304,-0.11332 -0.09737,-0.20271 -0.21069,-0.19967c-0.11331,0.00304 -0.20271,0.09737 -0.19967,0.21069zM188.93767,200.07564c0.00304,0.11332 0.09738,0.20271 0.2107,0.19967c0.11333,-0.00303 0.20272,-0.09737 0.19968,-0.21068c-0.00304,-0.11332 -0.09738,-0.20272 -0.21069,-0.19968c-0.11331,0.00304 -0.20271,0.09737 -0.19967,0.21069z"/><path d="M187.87335,201.78208c0.0102,0.37994 -0.36973,0.39014 -0.36973,0.39014l0.07384,-0.04212c-0.18638,0.09703 -0.39451,0.14344 -0.60941,0.1568l0.00725,0.01786l-0.01178,0.00478l0.0143,0.11252l-0.46857,0.05959c-0.01404,0.00196 -0.02833,0.00316 -0.04282,0.00354c-0.20984,0.00564 -0.38451,-0.15989 -0.39014,-0.36973c-0.00307,-0.11418 0.04457,-0.21795 0.12242,-0.28974c-0.00451,-0.00507 -0.00685,-0.00802 -0.00685,-0.00802c-0.36792,-0.46696 -0.69253,-0.95567 -1.0286,-1.43733c-0.13858,0.24848 -0.28255,0.49498 -0.43352,0.73929c-0.41595,0.67314 -0.59018,1.54042 -1.30122,1.90453c0.04877,-0.02472 0.17017,-0.08624 0.22164,-0.11232l0.05284,0.12466l0.045,-0.034l0.24372,0.32254c0.04779,0.06165 0.0771,0.13851 0.07936,0.22247c0.00562,0.20984 -0.15991,0.3845 -0.36975,0.39012c-0.03476,0.00094 -0.06856,-0.00282 -0.10077,-0.0107l-0.37416,-0.08294l0.01467,-0.06619c-0.3282,-0.04151 -0.54902,-0.1874 -0.86393,-0.5533c-0.10387,-0.0401 -0.21931,-0.13127 -0.22487,-0.33839c-0.0102,-0.37994 0.36974,-0.39014 0.36974,-0.39014l0.35552,0.14254c0.02656,0.035 0.05473,0.06655 0.08363,0.09551c0.27489,-0.50633 0.67858,-1.20461 0.74702,-1.32965c0.31841,-0.58172 0.63081,-1.15804 0.93636,-1.73654c-0.11719,-0.15168 -0.23847,-0.3011 -0.36571,-0.44728c-0.246,-0.28261 -0.52477,-0.52513 -0.79572,-0.77717c-0.13479,0.22277 -0.32033,0.43833 -0.6073,0.6667l-0.30962,0.32671c-0.0669,0.0706 -0.16075,0.11567 -0.26566,0.11849c-0.20985,0.00563 -0.38452,-0.1599 -0.39014,-0.36974c-0.00127,-0.04747 0.00621,-0.09312 0.02099,-0.13544l0.23095,-0.71493l0.02876,0.00929c0.09737,-0.62886 0.30107,-1.1124 0.8165,-1.84033l0.12663,-0.13917c0,0 0.26145,-0.27586 0.53732,-0.01442c0.02687,0.02546 0.04865,0.05107 0.06606,0.07654c0.031,0.00471 0.06407,0.01344 0.09927,0.02702c0.35462,0.13672 0.21791,0.49135 0.21791,0.49135c-0.11013,0.2823 -0.18508,0.52997 -0.25845,0.75626c0.34398,0.3492 0.73117,0.64795 1.05707,1.02113c0.05985,0.06851 0.11838,0.13785 0.1758,0.20787c0.2683,-0.521 0.5308,-1.04631 0.78686,-1.58138c-0.27051,-0.21991 -0.46072,-0.47781 -0.3922,-0.75137c0.31817,-1.27011 1.86233,0.26849 2.11304,0.59969l0.10529,0.24052c0,0 0.12983,0.35722 -0.2274,0.48704c-0.02058,0.00749 -0.04041,0.01334 -0.05951,0.01775c0.05334,0.79652 0.06366,1.59486 0.08379,2.39481c-0.04041,-0.05386 -0.07931,-0.11049 -0.11653,-0.16989c-0.05727,-0.09143 -0.547,-0.8614 -0.56175,-0.96784c-0.04379,-0.31594 0.20334,-0.8202 0.5609,-1.25068c-0.02464,0.00368 -0.04796,0.00487 -0.07,0.00398c-0.1658,0.10531 -0.36371,0.01291 -0.36371,0.01291c-0.10152,-0.04767 -0.25351,-0.11759 -0.42197,-0.20545c-0.2945,0.63233 -0.58792,1.25774 -0.90379,1.87283c0.40729,0.57122 0.7853,1.16076 1.22528,1.71179c0,0 0.02507,0.03162 0.04856,0.08242c0.16939,-0.14761 0.3554,-0.27749 0.54739,-0.39276c0,0 0.32717,-0.19343 0.5206,0.13374c0.13089,0.22141 0.02336,0.38157 -0.05983,0.46198c0.01683,0.04189 0.02748,0.09178 0.02907,0.15123z"/></g></g></g><path d="M223.3955,189.61611l-12.26136,11.98099l-8.49453,-7.24764l-0.5903,-1.48l9.20439,-12.47715l5.66502,-3.8606l5.12725,1.38584l3.11232,4.36241l0.19394,3.35352z" data-paper-data="{&quot;index&quot;:null}" fill="#949494" stroke="#000000" stroke-width="2.5" stroke-linecap="round"/><g data-paper-data="{&quot;index&quot;:null}"><g><path d="M243.01026,199.66092l3.69689,-4.64702l3.90349,3.10538l-3.69689,4.64702z" fill="#000000" stroke="none" stroke-width="0" stroke-linecap="butt"/><path d="M230.62496,226.87385c0,0 -1.16786,0.49432 -1.58024,-0.45718c-1.0806,-2.49329 -5.14266,-15.05475 -5.14266,-15.05475l10.35185,-14.22308c0,0 4.38836,5.89352 6.36716,8.08492c0.76769,0.85017 -5.58026,10.46181 -5.28076,11.19552c0.31132,0.76264 -3.21692,-0.56413 -3.95258,-0.22639c-0.83063,0.38132 1.1061,2.40252 1.28437,2.90864c0.50229,1.42603 0.97234,4.19045 0.97234,4.19045l-3.01948,3.58185z" fill="#949494" stroke="#000000" stroke-width="2.5" stroke-linecap="butt"/><path d="M234.59767,195.25495l9.95913,2.53602l1.51973,2.56542l0.02275,2.58134l-1.71843,2.21828l-3.21541,0.88072z" fill="#242424" stroke="#000000" stroke-width="2.5" stroke-linecap="butt"/><path d="M238.2303,201.27849l0.26484,-2.10792l1.77958,-1.38231" fill="none" stroke="#000000" stroke-width="2.5" stroke-linecap="round"/><path d="M225.97416,216.17231l6.00813,-0.1016" fill="none" stroke="#000000" stroke-width="2.5" stroke-linecap="round"/></g><g stroke="none" stroke-linecap="butt"><path d="M225.0298,212.51487l8.66755,-13.83531l7.31415,7.09916l-2.38468,2.28213l-4.30387,7.01282z" fill="#8c6200" stroke-width="NaN"/><path d="M231.68125,202.03249l2.27141,-3.19417l6.71669,7.11627l-2.5621,2.36887z" fill="#8c0081" stroke-width="NaN"/><path d="M224.69128,212.21317l10.91365,0.13172l-1.1389,2.78665l-3.97194,1.60919l1.28319,2.80251l0.46856,3.43502l-0.64437,1.19713l-1.85049,2.02637z" fill="#8c0081" stroke-width="0"/><g fill="#ffffff" stroke-width="0.5"><path d="M234.62546,204.38341c0.00036,-0.00027 0.00072,-0.00054 0.00109,-0.00082c0.21913,-0.16395 0.38308,0.05519 0.38308,0.05519c0.78979,1.07874 0.26799,2.1524 -0.81094,2.41605c0.0278,-0.12713 -0.09332,-0.20643 -0.09332,-0.20643c-0.82149,-0.53785 -1.6302,-1.0895 -2.48001,-1.57745c-0.04187,-0.46633 0.03984,-0.88968 0.31909,-1.07435c0.39336,-0.26015 0.99965,-0.2378 1.43195,-0.2039c0.55891,0.08946 0.86706,0.29381 1.24905,0.5917zM233.22455,204.5578c0.0621,-0.09484 0.03556,-0.22206 -0.05929,-0.28415c-0.09484,-0.0621 -0.22206,-0.03556 -0.28415,0.05929c-0.0621,0.09484 -0.03556,0.22206 0.05929,0.28415c0.09484,0.0621 0.22206,0.03556 0.28415,-0.05929zM234.36155,205.50666c0.09484,0.0621 0.22206,0.03556 0.28415,-0.05929c0.0621,-0.09484 0.03556,-0.22206 -0.05929,-0.28415c-0.09483,-0.06209 -0.22206,-0.03556 -0.28415,0.05929c-0.0621,0.09485 -0.03555,0.22207 0.05929,0.28416z"/><path d="M235.15694,207.35385c0.31797,0.20819 0.10979,0.52617 0.10979,0.52617l0.00748,-0.08469c-0.02651,0.20844 -0.10702,0.40591 -0.21854,0.59009l0.01882,0.00423l-0.00279,0.0124l0.10061,0.05239l-0.21813,0.41896c-0.00639,0.01265 -0.01355,0.02508 -0.0215,0.03721c-0.11498,0.17561 -0.35055,0.22478 -0.52617,0.10979c-0.09556,-0.06257 -0.15367,-0.16085 -0.16827,-0.26574c-0.00675,0.00081 -0.0105,0.00105 -0.0105,0.00105c-0.59339,0.03612 -1.17997,0.02425 -1.76728,0.02583c0.12517,0.25551 0.24564,0.51431 0.36031,0.7776c0.31597,0.72545 0.92926,1.36296 0.82312,2.15473c0.0075,-0.05415 0.02615,-0.18897 0.03406,-0.24612l0.13254,0.02765l-0.00228,-0.05636l0.40394,-0.0164c0.07789,-0.00412 0.15776,0.01561 0.22802,0.06161c0.17562,0.11499 0.22478,0.35055 0.10979,0.52617c-0.01905,0.02909 -0.0414,0.05472 -0.06624,0.07669l-0.28143,0.26014l-0.04602,-0.04978c-0.22118,0.246 -0.46693,0.34427 -0.94706,0.39445c-0.09216,0.06249 -0.23286,0.10536 -0.40622,-0.00814c-0.31798,-0.2082 -0.10979,-0.52617 -0.10979,-0.52617l0.31977,-0.21086c0.04389,-0.00187 0.08588,-0.00702 0.12614,-0.01427c-0.25933,-0.51448 -0.60296,-1.24419 -0.66668,-1.3717c-0.29646,-0.5932 -0.59191,-1.17841 -0.89306,-1.7592c-0.19143,0.00983 -0.38334,0.02431 -0.57597,0.04554c-0.37242,0.04103 -0.73058,0.13185 -1.09212,0.21081c0.1062,0.23774 0.17755,0.51304 0.20161,0.87901l0.09195,0.44062c0.01987,0.09522 0.00341,0.19801 -0.05408,0.28582c-0.11499,0.17562 -0.35055,0.22478 -0.52617,0.10979c-0.03973,-0.02601 -0.07299,-0.05819 -0.09933,-0.09445l-0.45576,-0.59727l0.02402,-0.01833c-0.4612,-0.43846 -0.74237,-0.88145 -1.04667,-1.71987l-0.04217,-0.18338c0,0 -0.07763,-0.37207 0.29443,-0.4497c0.03624,-0.00756 0.06968,-0.01086 0.10053,-0.01064c0.02154,-0.02278 0.04756,-0.04497 0.07878,-0.06616c0.31447,-0.21344 0.52792,0.10103 0.52792,0.10103c0.16918,0.25142 0.32994,0.45416 0.47406,0.64343c0.48298,-0.08357 0.94916,-0.23143 1.44154,-0.28648c0.09041,-0.01011 0.18073,-0.01868 0.271,-0.02596c-0.27514,-0.51742 -0.55713,-1.03254 -0.8508,-1.54792c-0.33488,0.09691 -0.65519,0.10619 -0.8409,-0.10605c-0.8622,-0.98541 1.28217,-1.37711 1.6972,-1.39431l0.25763,0.05059c0,0 0.3675,0.09695 0.27055,0.46445c-0.00559,0.02118 -0.01208,0.0408 -0.01934,0.05901c0.68485,0.4102 1.34667,0.85679 2.01542,1.29623c-0.06729,0.00252 -0.136,0.0022 -0.20601,-0.00109c-0.10777,-0.00505 -1.01955,-0.04157 -1.11542,-0.09012c-0.28455,-0.14411 -0.558,-0.63459 -0.70789,-1.17376c-0.01102,0.02234 -0.02334,0.04218 -0.03663,0.05978c-0.00799,0.19626 -0.19672,0.3062 -0.19672,0.3062c-0.09704,0.05624 -0.24111,0.14128 -0.40933,0.2296c0.35168,0.6024 0.69828,1.19998 1.02361,1.81012c0.7015,-0.00904 1.40136,0.01643 2.1049,-0.03099c0,0 0.04026,-0.00257 0.0954,0.00708c-0.02473,-0.22332 -0.0254,-0.45019 -0.01067,-0.67364c0,0 0.02756,-0.37908 0.40664,-0.35151c0.25654,0.01865 0.32683,0.19829 0.34548,0.31248c0.044,0.01004 0.09107,0.02973 0.14082,0.06232z"/></g></g></g><g data-paper-data="{&quot;index&quot;:null}"><g stroke="#000000" stroke-width="2.5"><path d="M262.41389,162.37055c0,0 -0.13174,-1.53182 -0.8501,-2.47063c-0.64252,-0.83969 -3.25794,-2.8981 -3.25794,-2.8981c0,0 -5.66066,-1.60997 -6.44454,-4.88564c-0.08898,-0.37184 -1.41546,-8.68005 1.59768,-14.6756c2.15366,-4.28536 8.66005,-6.89547 9.63394,-6.84415c0.7528,0.03967 5.05632,-0.97093 9.49712,-0.58176c6.25833,0.54845 12.54623,2.47091 12.54623,2.47091l2.53296,13.5292l-19.79,6.68822l3.06955,6.73082z" fill="#949494" stroke-linecap="butt"/><path d="M286.75792,139.67611l-13.20323,1.77988l-4.22638,-2.06249l-6.39028,-8.35135l11.71554,-0.26322l9.93321,1.85721z" fill="#000000" stroke-linecap="round"/><path d="M268.97087,141.27485l1.57221,-0.54097" fill="none" stroke-linecap="round"/><path d="M271.1686,143.28181l-2.3233,0.54821" fill="none" stroke-linecap="round"/><path d="M270.3692,146.06881l-1.4249,0.23909" fill="none" stroke-linecap="round"/><path d="M286.10481,146.54978c0,0 -11.9408,3.68988 -17.83552,6.31384c-1.45035,0.64561 0.44318,1.94071 -0.48544,2.27176c-8.22763,2.93315 -9.74896,1.2913 -10.83523,0.6166c-2.69801,-1.67576 -5.84158,-4.07357 -5.93041,-4.6606c-0.11422,-0.75485 0.94944,-2.98484 0.94944,-2.98484l4.2102,0.17476l5.78411,0.01933l5.77687,-0.73176l9.51058,-3.02124l9.02755,1.41525" fill="#373737" stroke-linecap="round"/><path d="M286.54186,148.84621l-0.12559,2.55515l-11.67932,4.01866l-2.62519,0.4009l-1.67122,-1.93689l-0.16905,-1.95138l0.65932,-1.73403l1.50218,-0.01449l1.5867,0.96121l1.28481,0.81388z" fill="#000000" stroke-linecap="round"/><path d="M265.76845,159.70915l-0.6255,-2.54791" fill="none" stroke-linecap="round"/><path d="M261.17014,158.02583l8.31753,-2.10834" fill="none" stroke-linecap="round"/><path d="M257.0573,136.58236l-0.42747,2.40783l1.14474,1.86686l-3.98729,-0.63759l-1.24375,-4.34473l1.90792,-4.67559l1.96587,1.33313l1.30655,3.06715z" fill="#151515" stroke-linecap="round"/><path d="M258.92964,139.83369l-2.98987,1.53115l-2.65416,-2.60346l0.43471,-1.65674l1.55048,-2.79424l1.71954,-0.84286l1.43214,0.512l1.50942,0.7366l1.2993,2.31606z" fill="none" stroke-linecap="round"/></g><path d="M278.41861,132.02488c2.67465,-0.12131 3.73392,1.10673 3.93461,2.95126c0.20069,1.84453 -1.23551,3.51377 -3.20785,3.72837c-1.97234,0.21459 -3.73392,-1.10673 -3.93461,-2.95126c-0.20069,-1.84453 0.45281,-3.6034 3.20785,-3.72837z" fill="#54ff00" stroke="none" stroke-width="0" stroke-linecap="butt"/><path d="M270.02115,137.13843c-0.90388,0.4278 -1.33167,-0.47608 -1.33167,-0.47608l-0.4823,-1.29538c0.08118,-1.62603 0.22093,-2.90038 1.0069,-4.33976c0,0 0.49059,-0.87139 1.36198,-0.3808c0.87139,0.49059 0.3808,1.36198 0.3808,1.36198c-0.66473,1.13313 -0.6896,2.16299 -0.75211,3.45677l0.29247,0.34161c0,0 0.4278,0.90388 -0.47608,1.33167z" fill="#54ff00" stroke="none" stroke-width="0.5" stroke-linecap="butt"/></g></g></g></svg>