<svg version="1.1" xmlns="http://www.w3.org/2000/svg" xmlns:xlink="http://www.w3.org/1999/xlink" width="485.66828" height="86.52481" viewBox="0,0,485.66828,86.52481"><g transform="translate(-0.68117,-273.83866)"><g data-paper-data="{&quot;isPaintingLayer&quot;:true}" fill-rule="nonzero" stroke="none" stroke-width="0" stroke-linecap="butt" stroke-linejoin="miter" stroke-miterlimit="10" stroke-dasharray="" stroke-dashoffset="0" style="mix-blend-mode: normal"><path d="M0.68117,360.36346v-75.56741h479.65752v75.56742z" fill="#d69b00"/><path d="M0.68117,294.50088v-20.66222h479.66828v20.66222l-49.00456,25.13352l-48.31102,-27.86704l-36.31101,27.06054l-60.60895,-27.71875l-51.4181,18.55532l-63.34764,-15.93977l-63.00778,17.91163l-41.80013,-14.01149l-38.3018,17.92812z" fill="#00d624"/><path d="M0.68117,360.36347v-75.56741h485.65739v75.56742z" fill="#d69b00"/><path d="M0.68117,294.50089v-20.66222h485.66828v20.66222l-49.61754,25.13352l-48.91533,-27.86704l-36.76521,27.06054l-61.36709,-27.71875l-52.06127,18.55532l-64.14003,-15.93977l-63.79592,17.91163l-42.323,-14.01149l-38.7809,17.92812z" fill="#00d624"/></g></g></svg>