<svg version="1.1" xmlns="http://www.w3.org/2000/svg" xmlns:xlink="http://www.w3.org/1999/xlink" width="148.10798" height="87.60154" viewBox="0,0,148.10798,87.60154"><g transform="translate(-166.55996,-140.78145)"><g data-paper-data="{&quot;isPaintingLayer&quot;:true}" fill-rule="nonzero" stroke-linejoin="miter" stroke-miterlimit="10" stroke-dasharray="" stroke-dashoffset="0" style="mix-blend-mode: normal"><path d="M267.39454,217.64477c0,-5.43249 4.4039,-9.83639 9.83639,-9.83639c5.43249,0 9.83639,4.4039 9.83639,9.83639c0,5.43249 -4.40391,9.8364 -9.83639,9.8364c-5.43249,0 -9.83639,-4.40391 -9.83639,-9.8364z" fill="#5a5a5a" stroke="none" stroke-width="NaN" stroke-linecap="butt"/><path d="M214.10685,199.32765c0,0 -7.44251,-19.81662 -6.26831,-31.91247c0.20428,-2.10431 -2.71549,-8.49378 5.51433,-9.70295c5.82595,-0.85598 7.87975,5.03638 7.87975,5.03638c0,0 -3.50116,0.1644 7.24001,0.23325c0.43887,0.00281 21.54091,-0.47078 21.97571,-0.47078c4.50321,0 17.33941,-2.13774 17.33941,-2.13774l6.77329,12.59998c0,0 0.82322,18.74664 0.67987,23.39273c-0.13446,4.35771 -1.51501,3.67416 -1.51501,3.67416z" fill="#5a5a5a" stroke="#000000" stroke-width="2" stroke-linecap="butt"/><path d="M227.10927,170.28745c0,0 6.23973,0.3504 8.00911,2.72298c0.94897,1.27248 3.37102,8.06752 2.58871,13.45012c-0.28402,1.95419 -3.97754,10.0884 -8.46709,10.60669c-1.65559,0.19113 -7.33431,-1.22586 -10.76089,-4.83995c-2.77692,-2.92887 -3.58557,-7.70834 -3.45338,-11.01242c0.13327,-3.33107 3.05358,-6.77484 6.30116,-8.77418c2.66459,-1.64043 5.78238,-2.15324 5.78238,-2.15324" fill="#5a5a5a" stroke="#000000" stroke-width="2" stroke-linecap="round"/><path d="M269.6709,180.65269c0,6.42792 -4.945,12.82642 -11.04497,12.82642c-6.09997,0 -11.75755,-6.16096 -11.75755,-12.58889c0,-6.42793 3.9949,-11.16373 10.09486,-11.16373c1.43888,0 4.23865,1.00251 5.49925,1.52997c4.08361,1.70863 7.2084,4.48455 7.2084,9.39624z" fill="#5a5a5a" stroke="#000000" stroke-width="2" stroke-linecap="butt"/><g data-paper-data="{&quot;index&quot;:null}" stroke="#000000" stroke-width="2" stroke-linecap="round"><path d="M292.57417,157.4472c0,0 -6.88833,5.85628 -10.49769,7.34981c-2.05913,0.85206 -7.18156,1.9047 -9.77452,1.34734c-0.38442,-0.08263 -1.58103,-1.22173 -0.73406,-2.79699c0.72948,-1.35674 3.28154,-3.09837 5.58793,-4.05c5.36241,-2.21257 15.18081,-1.85015 15.18081,-1.85015" fill="#5a5a5a"/><path d="M276.89744,165.99817l-1.66268,-5.93816" fill="none"/></g><path d="M207.72785,183.81247c0,0 7.8272,-4.85428 10.69822,-6.63482c1.9344,-1.19968 4.85663,-3.01199 4.85663,-3.01199c0,0 4.24804,-1.00217 4.65608,-0.6746c0.93452,0.75022 3.93629,1.32851 4.82819,3.77196c0.71224,1.9513 0.18947,5.79879 0.15703,6.91505c-0.05712,1.96625 -4.82379,4.73268 -4.82379,4.73268l-13.80721,6.47013z" data-paper-data="{&quot;index&quot;:null}" fill="#5a5a5a" stroke="#000000" stroke-width="2.5" stroke-linecap="butt"/><path d="M246.98682,187.85138l-0.56768,-3.31081l2.04783,-4.95213l4.68238,-2.50692l6.38998,2.48292l11.78215,10.07874l-0.24117,1.57502l-6.64029,8.97729l-14.64835,-8.90567z" data-paper-data="{&quot;index&quot;:null}" fill="#5a5a5a" stroke="#000000" stroke-width="2.5" stroke-linecap="round"/><g><path d="M202.74748,181.38599l5.93561,-0.17386l0.14604,4.98591l-5.93561,0.17386z" fill="#000000" stroke="none" stroke-width="0" stroke-linecap="butt"/><path d="M173.68708,179.97482l4.67696,-0.27007c0,0 1.93107,2.03321 2.77148,3.29002c0.29828,0.44606 0.75532,3.20781 1.55842,2.77148c0.71129,-0.38643 1.76404,-4.0059 2.18791,-3.29958c0.40779,0.67952 11.9064,1.35932 12.12678,2.4834c0.56806,2.89745 2.65527,9.94265 2.65527,9.94265l-17.58976,-0.23886c0,0 -7.62022,-10.78067 -8.9683,-13.14009c-0.51446,-0.9004 0.58122,-1.53894 0.58122,-1.53894z" fill="#5a5a5a" stroke="#000000" stroke-width="2.5" stroke-linecap="butt"/><path d="M196.68417,184.02703l2.63225,-2.04591l2.80565,-0.04593l2.05262,1.56543l1.14262,2.75416l-3.93937,9.49195z" fill="#5a5a5a" stroke="#000000" stroke-width="2.5" stroke-linecap="butt"/><path d="M202.75288,189.68404l-2.17314,0.59595l-1.84605,-1.05146" fill="none" stroke="#000000" stroke-width="2.5" stroke-linecap="round"/><path d="M183.14812,185.36356l-3.68251,4.74838" fill="none" stroke="#000000" stroke-width="2.5" stroke-linecap="round"/></g><path d="M184.8826,206.18086l-18.32264,-11.80367l38.20821,7.65474l83.0438,-0.20087l26.85597,-11.38843l-19.84952,19.95383l-85.12371,1.40228z" fill="#5a5a5a" stroke="none" stroke-width="NaN" stroke-linecap="butt"/><path d="M171.61869,199.15487l11.80367,-4.49664" fill="none" stroke="#5a5a5a" stroke-width="2.5" stroke-linecap="round"/><g><path d="M270.69379,199.79812l-5.71369,1.61722l-1.35847,-4.7995l5.71369,-1.61722z" data-paper-data="{&quot;index&quot;:null}" fill="#000000" stroke="none" stroke-width="0" stroke-linecap="butt"/><path d="M276.50316,195.86489l9.58899,-4.86925l9.28105,2.95946l1.48047,3.40211l0.51223,1.63444l-2.34211,9.70891l-2.2059,3.31477l-1.65221,-1.96754l-0.51223,-1.63444l-1.29096,-2.3569l0.24872,-3.39176l-3.34585,2.98166l-4.73158,0.10215l-4.93144,0.78613z" fill="#5a5a5a" stroke="#000000" stroke-width="2.5" stroke-linecap="round"/><path d="M276.60235,206.5346l-2.0238,0.15101l-4.12162,-3.67896l-2.71518,-4.25783l0.99931,-3.41987l2.71814,-1.68033l4.19861,1.72178z" fill="#5a5a5a" stroke="#000000" stroke-width="2.5" stroke-linecap="round"/><path d="M276.44393,200.30185l-3.96321,2.5538l-2.44129,-0.96083" fill="none" stroke="#000000" stroke-width="2.5" stroke-linecap="round"/></g><path d="M206.18658,218.54661c0,-5.43249 4.4039,-9.83639 9.83639,-9.83639c5.43249,0 9.83639,4.4039 9.83639,9.83639c0,5.43249 -4.4039,9.83639 -9.83639,9.83639c-5.43249,0 -9.83639,-4.4039 -9.83639,-9.83639z" fill="#5a5a5a" stroke="none" stroke-width="NaN" stroke-linecap="butt"/><g stroke="#000000" stroke-width="2.5"><path d="M207.28629,165.62353l-5.99162,-4.33897l-10.46663,18.07834l-12.76199,-5.15623c0,0 -0.64215,-6.54378 0.05679,-12.7871c0.49595,-4.43014 2.44681,-9.19494 2.44681,-9.19494l6.53637,-10.13602l15.7081,1.29049l4.58622,9.37023c0,0 1.50107,2.97057 2.19723,3.76634c0.77835,0.88969 2.25395,1.32152 2.25395,1.32152z" fill="#5a5a5a" stroke-linecap="butt"/><path d="M178.32222,173.69776l0.1421,-10.10434l2.57288,-11.43256l6.92406,7.91441l1.18675,4.55059l-4.35359,12.59123z" fill="#000000" stroke-linecap="round"/><path d="M189.03517,161.53093l0.84095,-1.43433" fill="none" stroke-linecap="round"/><path d="M191.40927,162.64758l0.99647,-2.16918" fill="none" stroke-linecap="round"/><path d="M194.29928,162.41461l0.51591,-1.34957" fill="none" stroke-linecap="round"/><path d="M191.05226,177.98783l0.39639,-9.12921l4.84086,-8.72611l1.85877,-5.51839l1.12391,-5.6739l0.66057,-4.16172c0,0 2.3962,-0.60207 3.11359,-0.34094c0.5579,0.20307 2.28731,3.75844 3.39694,6.73437c0.44676,1.19817 1.75566,3.01391 -2.74536,10.49978c-0.50801,0.8449 -1.40344,-1.26719 -2.32289,0.02699c-3.73695,5.26004 -9.71344,16.23636 -9.71344,16.23636" fill="#5a5a5a" stroke-linecap="round"/><path d="M200.08326,166.19886l-0.37705,-1.47343l-0.4239,-1.80605l0.47795,-1.42419l1.8529,-0.09126l1.80365,0.76375l1.32571,2.18793l-1.19245,2.37284l-7.43083,9.86606l-2.46892,-0.67008z" fill="#000000" stroke-linecap="round"/><path d="M208.57977,160.59973l-2.37408,-1.1166" fill="none" stroke-linecap="round"/><path d="M207.83819,155.75948l-3.71022,7.73696" fill="none" stroke-linecap="round"/><path d="M186.53486,147.94997l-2.74853,-1.88683l-0.91841,-2.19052l4.96039,-0.94646l4.01332,2.0777l-0.16281,4.03465l-1.60388,-1.49104l-2.44482,-0.05671z" fill="#151515" stroke-linecap="round"/><path d="M187.24637,151.67123l-2.01368,-1.73132l-0.42384,-1.62521l-0.21893,-1.50507l1.16601,-1.51909l3.04552,-0.96781l1.70998,-0.09879l2.0277,3.11625l-2.09173,2.62839z" fill="none" stroke-linecap="round"/></g><path d="M224.16808,190.37621c-0.67082,-0.33541 -0.33541,-1.00623 -0.33541,-1.00623l0.43877,-0.87754c0.23083,-0.45596 0.44122,-0.92752 0.57897,-1.41966c0.01508,-0.03527 -4.60308,1.65559 -5.097,-0.446c-0.32407,-1.37889 1.8865,-3.11205 2.70864,-3.83735c0.04321,-0.03812 0.09612,-0.08714 0.15471,-0.14149c-0.82939,0.16143 -2.00726,0.15295 -2.0783,0.15876c-2.70898,0.22143 -5.4774,0.41344 -5.56033,-2.9736c0,0 0,-0.75 0.75,-0.75c0.75,0 0.75,0.75 0.75,0.75c-0.11215,3.06535 4.62401,1.062 6.45193,1.22541c0.60021,0.05366 1.45086,-0.15474 1.77265,0.35475c1.01573,1.60819 -3.05552,3.59818 -3.51908,4.76133c-0.19969,0.50107 1.08819,0.0463 1.61709,-0.0596c0.47398,-0.09491 0.88292,-0.42128 1.35865,-0.50696c0.53894,-0.09707 1.18724,-0.33793 1.64249,-0.03359c0.44216,0.29559 0.3657,0.99889 0.54855,1.49834c-0.1682,0.7195 -0.40967,1.4282 -0.73733,2.09048l-0.43877,0.87754c0,0 -0.33541,0.67082 -1.00623,0.33541z" fill="#000000" stroke="none" stroke-width="0.5" stroke-linecap="butt"/><path d="M255.21727,195.28183c-0.75,0 -0.75,-0.75 -0.75,-0.75l0.33397,0.18527c-1.26031,-0.86174 -2.42609,-2.27135 -3.41722,-3.66422l-0.02411,0.02411l-1.06066,-1.06066c-0.13572,-0.13572 -0.21967,-0.32322 -0.21967,-0.53033c0,-0.41421 0.33579,-0.75 0.75,-0.75h0.87754c0.52767,0 1.46923,-0.1296 2.34182,-0.14233c-0.57433,-0.53113 -1.06803,-1.16618 -1.49904,-1.80791l1.78983,-0.46299c0.52765,0 1.50908,-0.13217 2.40879,-0.13964c-1.01625,-0.57829 -2.11,-1.29407 -2.27822,-2.33377c-0.26152,-1.61631 1.8568,-3.55415 2.84925,-4.5466c0,0 0.53033,-0.53033 1.06066,0c0.53033,0.53033 0,1.06066 0,1.06066c-0.76176,0.76176 -2.44488,2.18259 -2.41597,3.35123c0.01188,0.48032 2.57223,1.75449 2.87971,1.95629l0.02331,0.03084l0.00645,-0.00797l0.9785,0.79177c0.17267,0.1374 0.28336,0.34937 0.28336,0.58719c0,0.41421 -0.33579,0.75 -0.75,0.75h-0.87754v-0.14004c-1.05686,0.15438 -2.09839,0.15364 -3.19458,0.14545c0.23335,0.10461 0.46326,0.21713 0.69041,0.33123l0.01903,0.01975l0.0039,-0.00648l1.10159,0.66389c0.22394,0.12974 0.37457,0.37199 0.37457,0.64942c0,0.41421 -0.33579,0.75 -0.75,0.75h-0.87754v-0.15304c-1.11571,0.17764 -2.21068,0.16682 -3.38472,0.1572c1.22594,0.85375 1.8325,2.38582 3.14259,3.22887l0.33397,1.06281c0,0 0,0.75 -0.75,0.75z" fill="#000000" stroke="none" stroke-width="0.5" stroke-linecap="butt"/><path d="M286.15043,204.93473c-0.71141,0 -0.74801,-0.6748 -0.7499,-0.74425c-0.08963,-0.13593 -0.17925,-0.27187 -0.26888,-0.4078c-1.69606,-1.6895 -2.3325,-3.26626 0.49181,-4.05954c0.3328,-0.09347 -0.71035,0.03049 -1.03274,-0.09423c-0.44238,-0.17113 -1.02029,-0.28089 -1.23743,-0.7026c-0.33368,-0.64803 -0.51314,-1.496 -0.2433,-2.17311c0.07999,-0.20073 2.14374,-0.97587 3.12887,-1.26242c-0.32718,-0.22668 -0.55424,-0.5843 -0.83815,-0.8674c-0.77037,-0.76818 -1.46242,-1.47377 -2.3329,-2.12417c0,0 -0.6,-0.45 -0.15,-1.05c0.45,-0.6 1.05,-0.15 1.05,-0.15c1.20959,0.9103 2.28012,1.98585 3.31625,3.09137c0.31914,0.34051 1.06211,0.59634 0.93222,1.04459c-0.5307,1.83146 -3.36126,1.3893 -3.85188,2.14048c-0.29933,0.45831 2.88204,0.90997 2.75175,2.29528c-0.14434,1.53467 -1.27991,1.09398 -2.11238,1.46155c-0.60267,0.26611 0.8229,1.03249 1.28788,1.4992c0.16093,0.23921 0.32187,0.47841 0.4828,0.71762l0.12596,0.63541c0,0 0,0.75 -0.75,0.75z" fill="#000000" stroke="none" stroke-width="0.5" stroke-linecap="butt"/><path d="M192.55783,194.85654c-0.10533,0.74257 -0.84789,0.63724 -0.84789,0.63724l-0.68065,-0.2485c-1.24407,-1.24407 -3.98623,-2.97861 -4.69313,-4.51223c-0.23943,-0.51944 -0.50576,-1.25461 -0.15789,-1.70862c0.2503,-0.32667 0.93579,-0.5098 1.55963,-0.53866c-0.08322,-0.09485 -0.15796,-0.1854 -0.21876,-0.26078c-0.45746,-0.56718 -1.30048,-1.06406 -1.25312,-1.79119c0.04536,-0.69639 1.98358,-1.13924 3.27804,-1.01078c-0.51273,-0.75197 -1.04386,-1.34693 -1.87436,-1.89451c0,0 -0.62404,-0.41603 -0.20801,-1.04006c0.41603,-0.62404 1.04006,-0.20801 1.04006,-0.20801c1.11558,0.75054 1.84178,1.58292 2.5333,2.72123l0.78445,0.58834c0.18613,0.13648 0.30698,0.35674 0.30698,0.60524c0,0.41421 -0.33579,0.75 -0.75,0.75h-0.87754v-0.15928c-0.4984,0.05609 -0.97474,0.06743 -1.66344,0.15366c-0.19645,0.0246 -0.60141,-0.0102 -0.8863,-0.04642c0.78667,0.29958 2.48173,1.65238 2.4222,2.15404c-0.1197,1.00864 -1.65243,1.52563 -2.57464,1.18176c0.27772,0.22425 0.59995,0.49657 0.76547,0.64789c1.19895,1.09601 2.37772,2.15778 3.5277,3.30775l-0.16936,-0.17598c0,0 0.74257,0.10533 0.63724,0.84789z" fill="#000000" stroke="none" stroke-width="0.5" stroke-linecap="butt"/><text transform="translate(236.24245,174.04279) rotate(-5.51192) scale(0.27306,0.27305)" font-size="40" xml:space="preserve" fill="#b1b1b1" fill-rule="nonzero" stroke="none" stroke-width="1" stroke-linecap="butt" stroke-linejoin="miter" stroke-miterlimit="10" stroke-dasharray="" stroke-dashoffset="0" font-family="Sans Serif" font-weight="normal" text-anchor="start" style="mix-blend-mode: normal"><tspan x="0" dy="0">M</tspan></text><path d="M243.55764,199.33041c-0.63028,0.4065 -1.03678,-0.22379 -1.03678,-0.22379l-0.65194,-1.02595c-1.09976,-0.92049 -5.74087,-4.36769 -5.07441,-6.11221c0.27303,-0.71467 2.42492,-0.49536 3.48622,-0.21065c-0.29904,-0.36055 -0.54578,-0.77208 -0.71551,-1.20765c-0.26686,-0.68483 -0.86534,-1.47112 -0.55035,-2.13519c0.14025,-0.29568 0.69358,-0.43196 1.17646,-0.41605c-0.06413,-0.08561 -0.12004,-0.16674 -0.16142,-0.23153c-0.6882,-1.0781 -3.25387,-4.06125 -2.48962,-5.57552c0.12968,-0.25695 1.62101,-0.17872 2.60051,0.03899c-0.41169,-0.47627 -0.75131,-1.01999 -1.11735,-1.53342c-0.9566,-1.34175 -1.77635,-3.55481 -2.30524,-5.11217c-0.23119,-0.68077 -0.87059,-1.43544 -0.55872,-2.08324c0.22659,-0.47067 1.8368,-0.5868 3.27635,-0.47454c-1.09364,-0.62571 -2.0953,-1.29798 -2.97817,-2.18614l-0.11866,0.15821l-0.87055,-0.65292c-0.18613,-0.13648 -0.30698,-0.35674 -0.30698,-0.60524c0,-0.41421 0.33579,-0.75 0.75,-0.75c0.10448,0 0.20397,0.02136 0.29434,0.05996l0.36479,0.14592c-0.22626,-0.33136 -0.50087,-0.80536 -0.64409,-1.04446c-0.76063,-1.26976 -1.45546,-3.31896 -3.04893,-3.60718c0,0 -0.72761,-0.1819 -0.54571,-0.90951c0.1819,-0.72761 0.90951,-0.54571 0.90951,-0.54571c2.1486,0.62335 2.89209,2.49483 3.97136,4.29065c0.2329,0.38753 1.33904,2.06658 1.17868,2.55283c-0.05181,0.15709 -0.15197,0.27969 -0.27853,0.38345c1.4129,0.61642 3.19026,2.02439 4.10575,2.50922l0.02443,0.03203l0.0078,-0.0117l0.64847,0.43232c0.20678,0.13354 0.34365,0.36603 0.34365,0.63049c0,0.41421 -0.33579,0.75 -0.75,0.75h-0.87754v-0.12751c-0.80486,0.12926 -1.55171,0.12751 -2.59692,0.12751c-0.37754,0 -0.76343,0.07899 -1.13261,0c-0.18884,-0.0404 -0.57201,-0.50465 -0.4674,-0.34232c1.32303,2.05301 2.18772,4.43385 3.69116,6.37044c0.1443,0.18588 1.45395,2.26426 1.16702,2.57053c-0.50075,0.5345 -1.43366,0.31219 -2.16126,0.39611c-0.25339,0.02923 -0.73954,-0.13067 -1.09883,-0.27709c0.88857,0.7142 1.8371,2.89332 2.2775,3.58271c0.25726,0.40289 1.23548,1.7907 0.98258,2.22165c-0.26807,0.4568 -1.00937,0.38057 -1.53879,0.39611c-0.19293,0.00566 -0.56553,-0.5053 -0.47079,-0.33713c0.33545,0.59546 2.58516,2.59848 1.75905,3.50404c-0.48471,0.53132 -1.41411,0.27553 -2.13011,0.34323c-0.22125,0.02092 -0.59405,0.00525 -0.9518,-0.03363c0.26428,0.28628 0.50862,0.66841 0.75203,0.91088c1.08231,1.07814 2.13738,2.13268 3.29963,3.12556l0.7855,1.20283c0,0 0.4065,0.63028 -0.22379,1.03678z" fill="#000000" stroke="none" stroke-width="0.5" stroke-linecap="butt"/></g></g></svg>