<svg version="1.1" xmlns="http://www.w3.org/2000/svg" xmlns:xlink="http://www.w3.org/1999/xlink" width="480" height="366.2012" viewBox="0,0,480,366.2012"><defs><radialGradient cx="292.44828" cy="140.00087" r="7.21638" gradientUnits="userSpaceOnUse" id="color-1"><stop offset="0" stop-color="#b8ffff" stop-opacity="0"/><stop offset="1" stop-color="#b8ffff"/></radialGradient><radialGradient cx="298.89148" cy="139.17614" r="7.21638" gradientUnits="userSpaceOnUse" id="color-2"><stop offset="0" stop-color="#b8ffff" stop-opacity="0"/><stop offset="1" stop-color="#b8ffff"/></radialGradient></defs><g transform="translate(0,3.1006)"><g data-paper-data="{&quot;isPaintingLayer&quot;:true}" fill-rule="nonzero" stroke-linejoin="miter" stroke-miterlimit="10" stroke-dasharray="" stroke-dashoffset="0" style="mix-blend-mode: normal"><text transform="translate(116.75945,100.11214) scale(0.86836,0.86836)" font-size="40" xml:space="preserve" fill="#000000" fill-rule="nonzero" stroke="none" stroke-width="1" stroke-linecap="butt" stroke-linejoin="miter" stroke-miterlimit="10" stroke-dasharray="" stroke-dashoffset="0" font-family="Sans Serif" font-weight="normal" text-anchor="start" style="mix-blend-mode: normal"><tspan x="0" dy="0">The Silent Cave</tspan></text><path d="M101.168,317.61097v-75.96396h254.94615v75.96397z" data-paper-data="{&quot;index&quot;:null}" fill="#4c4c4c" stroke="none" stroke-width="0" stroke-linecap="butt"/><path d="M101.15708,255.02624v-15.84019h255.41561v15.84019l-26.09412,19.268l-25.72483,-21.36359l-19.33502,20.7453l-32.27328,-21.24989l-27.37931,14.22499l-33.73162,-12.21984l-33.55063,13.73151l-22.25791,-10.74156l-20.39508,13.74416z" data-paper-data="{&quot;index&quot;:null}" fill="#787878" stroke="none" stroke-width="0" stroke-linecap="butt"/><g><g data-paper-data="{&quot;index&quot;:null}" fill="#949494" stroke="#000000" stroke-width="2"><path d="M169.6517,184.16456c0,0 -3.56048,-6.39936 -1.87305,-9.99146c0.60657,-1.29123 0.48022,-1.39077 1.44544,-3.55229c0.34767,-0.77857 0.77284,-1.57624 1.20775,-2.51064c1.16626,-2.50569 2.40262,-5.20649 2.40262,-5.20649c0,0 6.88002,1.1458 9.29368,1.1458c0.23305,0 11.54344,0.25384 11.77867,0.25233c5.75712,-0.0369 3.88054,-0.12502 3.88054,-0.12502c0,0 2.68123,-1.74242 3.55241,-1.57607c1.67293,0.31945 3.26768,-1.42774 4.16936,1.60228c0.4238,1.42416 0.32838,1.58225 0.51802,3.53575c0.27683,2.85168 0.40553,7.20608 -0.56048,10.09517c-1.30009,3.88826 -3.85999,5.94872 -3.85999,5.94872z" stroke-linecap="butt"/><path d="M182.10732,183.65524c0,0 4.90466,-4.80801 4.7165,-9.83209c-0.19362,-2.30193 -2.75357,-7.00606 -2.75357,-7.00606l-2.16428,-2.67352l1.78235,2.29159c0,0 2.19843,-0.25228 3.40317,-0.39052c1.36407,-0.15653 4.36278,-0.50065 4.36278,-0.50065l-0.12731,-0.89117" stroke-linecap="round"/><path d="M197.81979,168.2175c0,0 1.67109,0.27486 3.09927,1.15411c1.74066,1.07162 3.3059,2.91743 3.37733,4.70284c0.07085,1.77094 -0.36257,4.33267 -1.85096,5.9025c-1.8366,1.9371 -4.88031,2.69659 -5.76769,2.59414c-2.40634,-0.2778 -4.38601,-4.63762 -4.53824,-5.68504c-0.41931,-2.885 0.87888,-6.52704 1.38751,-7.20907c0.94836,-1.27167 4.29277,-1.45948 4.29277,-1.45948" stroke-linecap="round"/><path d="M170.95725,175.21959c0,-2.6326 1.67484,-4.12045 3.8636,-5.03625c0.67566,-0.28271 2.1763,-0.82004 2.94752,-0.82004c3.26949,0 5.4107,2.53832 5.4107,5.9836c0,3.44528 -3.03238,6.74747 -6.30188,6.74747c-3.2695,0 -5.91995,-3.42951 -5.91995,-6.87478z" stroke-linecap="butt"/></g><g data-paper-data="{&quot;index&quot;:null}" stroke="#000000" stroke-width="2" stroke-linecap="round"><path d="M160.65856,160.25063c0,0 5.26252,-0.19425 8.1367,0.99165c1.23619,0.51006 2.60406,1.44355 2.99505,2.17074c0.45396,0.84432 -0.1874,1.45486 -0.39345,1.49915c-1.38979,0.29874 -4.13534,-0.26546 -5.239,-0.72216c-1.93457,-0.80051 -5.62661,-3.93939 -5.62661,-3.93939" fill="#d8d8d8"/><path d="M168.93375,164.83381l0.89117,-3.18277" fill="none"/></g><path d="M188.71379,177.64838l5.7221,-5.83531c0,0 2.24489,-1.92 3.24949,-1.60004c0.57033,0.18164 2.60902,0.59987 3.46955,1.3063c1.07758,0.88462 0.83748,2.50542 1.05111,3.11118c0.09328,0.26449 -1.16729,2.23521 -1.16729,2.23521c0,0 -1.43508,1.15643 -2.38505,1.92194c-1.40993,1.13616 -5.25379,4.23366 -5.25379,4.23366z" data-paper-data="{&quot;index&quot;:null}" fill="#949494" stroke="#000000" stroke-width="2.5" stroke-linecap="butt"/><g data-paper-data="{&quot;index&quot;:null}"><g><path d="M166.57712,179.35489l3.18033,-0.12469l0.10474,2.67147l-3.18033,0.12469z" data-paper-data="{&quot;index&quot;:null}" fill="#000000" stroke="none" stroke-width="0" stroke-linecap="butt"/><path d="M164.7895,186.44056l-2.64366,0.41832l-2.42823,0.73369l-2.20023,-0.96385l0.69,1.68717l-0.26649,1.41549l0.01038,0.91799l-0.51524,1.27706l-1.67462,-1.32291l-2.80588,-4.55882l-0.01038,-0.91799l0.18949,-1.9796l4.23825,-3.04943l5.69527,0.88902z" fill="#949494" stroke="#000000" stroke-width="2.5" stroke-linecap="round"/><path d="M163.41685,180.59431l1.85373,-1.57468l1.66424,0.40492l1.07719,1.57685l-0.6766,2.62073l-1.48947,2.5593l-1.05643,0.25913z" fill="#242424" stroke="#000000" stroke-width="2.5" stroke-linecap="round"/><path d="M167.36352,182.98621l-1.08455,0.89506l-2.4438,-0.64329" fill="none" stroke="#000000" stroke-width="2.5" stroke-linecap="round"/></g><g stroke="none" stroke-linecap="butt"><path d="M154.44478,182.55371l2.38964,-1.98614l6.23917,1.25587l1.06022,4.05335l-4.20544,1.20697l-3.06712,-1.14964z" fill="#8c6200" stroke-width="NaN"/><path d="M160.94923,180.42947l2.42914,1.58086l0.90713,3.96855l-1.66512,0.25023z" fill="#8c0081" stroke-width="NaN"/><path d="M155.73516,190.26218l-2.83625,-5.36855l2.14937,-2.19853l2.20037,3.25045l0.33246,1.76542l0.71713,1.71421l-0.16835,0.70898l-0.67843,1.30503z" fill="#8c0081" stroke-width="0"/><g fill="#ffffff" stroke-width="0.5"><path d="M161.75224,183.81444c0.00023,0.00008 0.00047,0.00016 0.00069,0.00024c0.13915,0.04641 0.09274,0.18556 0.09274,0.18556c-0.23376,0.6774 -0.86601,0.77561 -1.31176,0.38102c0.06448,-0.0266 0.0624,-0.10416 0.0624,-0.10416c-0.01411,-0.5261 -0.01826,-1.05078 -0.063,-1.5741c0.19257,-0.16091 0.40398,-0.25426 0.57062,-0.18771c0.23474,0.09375 0.41013,0.36757 0.52728,0.56832c0.13135,0.27347 0.13551,0.4716 0.12103,0.73084zM161.13451,183.14378c0.00163,0.06073 0.05219,0.10865 0.11293,0.10702c0.06074,-0.00163 0.10866,-0.05219 0.10703,-0.11293c-0.00163,-0.06074 -0.05219,-0.10865 -0.11293,-0.10702c-0.06073,0.00163 -0.10865,0.05219 -0.10702,0.11293zM161.17694,184.04141c0.00163,0.06074 0.05219,0.10865 0.11293,0.10702c0.06074,-0.00162 0.10866,-0.05219 0.10703,-0.11292c-0.00163,-0.06074 -0.05219,-0.10866 -0.11293,-0.10703c-0.06073,0.00163 -0.10865,0.05219 -0.10702,0.11293z"/><path d="M160.60648,184.95604c0.00547,0.20364 -0.19817,0.20911 -0.19817,0.20911l0.03958,-0.02258c-0.0999,0.05201 -0.21145,0.07688 -0.32664,0.08404l0.00389,0.00957l-0.00631,0.00256l0.00766,0.06031l-0.25115,0.03194c-0.00753,0.00105 -0.01518,0.00169 -0.02295,0.0019c-0.11247,0.00302 -0.20609,-0.0857 -0.20911,-0.19817c-0.00165,-0.0612 0.02389,-0.11682 0.06562,-0.1553c-0.00242,-0.00272 -0.00367,-0.0043 -0.00367,-0.0043c-0.1972,-0.25028 -0.37119,-0.51223 -0.55132,-0.77039c-0.07428,0.13318 -0.15144,0.2653 -0.23236,0.39625c-0.22294,0.36079 -0.31633,0.82564 -0.69744,1.0208c0.02614,-0.01325 0.09121,-0.04622 0.1188,-0.0602l0.02832,0.06682l0.02412,-0.01822l0.13063,0.17288c0.02561,0.03304 0.04132,0.07424 0.04254,0.11924c0.00301,0.11247 -0.08571,0.20609 -0.19818,0.2091c-0.01863,0.0005 -0.03675,-0.00151 -0.05401,-0.00574l-0.20054,-0.04445l0.00786,-0.03548c-0.17591,-0.02225 -0.29427,-0.10044 -0.46305,-0.29656c-0.05567,-0.02149 -0.11755,-0.07036 -0.12053,-0.18137c-0.00547,-0.20364 0.19818,-0.20911 0.19818,-0.20911l0.19055,0.0764c0.01424,0.01876 0.02933,0.03567 0.04482,0.05119c0.14734,-0.27139 0.36371,-0.64565 0.40039,-0.71267c0.17066,-0.31179 0.33811,-0.62069 0.50188,-0.93076c-0.06281,-0.0813 -0.12782,-0.16139 -0.19602,-0.23974c-0.13185,-0.15147 -0.28127,-0.28146 -0.42649,-0.41655c-0.07225,0.1194 -0.17169,0.23494 -0.3255,0.35734l-0.16595,0.17511c-0.03586,0.03784 -0.08616,0.062 -0.14239,0.06351c-0.11248,0.00302 -0.2061,-0.0857 -0.20911,-0.19818c-0.00068,-0.02544 0.00333,-0.04991 0.01125,-0.07259l0.12379,-0.38319l0.01541,0.00498c0.05219,-0.33706 0.16137,-0.59623 0.43763,-0.98639l0.06787,-0.07459c0,0 0.14013,-0.14786 0.288,-0.00773c0.0144,0.01365 0.02608,0.02737 0.03541,0.04102c0.01662,0.00252 0.03434,0.0072 0.05321,0.01448c0.19007,0.07328 0.1168,0.26336 0.1168,0.26336c-0.05903,0.15131 -0.0992,0.28406 -0.13853,0.40534c0.18437,0.18717 0.3919,0.34729 0.56657,0.54731c0.03208,0.03672 0.06345,0.07389 0.09423,0.11142c0.14381,-0.27925 0.2845,-0.56081 0.42175,-0.8476c-0.14499,-0.11787 -0.24694,-0.2561 -0.21021,-0.40272c0.17053,-0.68076 0.99818,0.14391 1.13256,0.32143l0.05643,0.12892c0,0 0.06959,0.19146 -0.12188,0.26105c-0.01103,0.00401 -0.02166,0.00715 -0.0319,0.00951c0.02859,0.42692 0.03412,0.85482 0.04491,1.28358c-0.02166,-0.02887 -0.04251,-0.05922 -0.06246,-0.09106c-0.0307,-0.04901 -0.29318,-0.4617 -0.30109,-0.51875c-0.02347,-0.16934 0.10899,-0.43962 0.30063,-0.67035c-0.01321,0.00197 -0.02571,0.00261 -0.03752,0.00213c-0.08887,0.05644 -0.19494,0.00692 -0.19494,0.00692c-0.05441,-0.02555 -0.13588,-0.06303 -0.22617,-0.11012c-0.15785,0.33892 -0.31512,0.67413 -0.48442,1.00381c0.2183,0.30617 0.42091,0.62215 0.65673,0.9175c0,0 0.01344,0.01695 0.02603,0.04418c0.09079,-0.07912 0.19049,-0.14873 0.29339,-0.21051c0,0 0.17536,-0.10368 0.27903,0.07168c0.07016,0.11867 0.01252,0.20452 -0.03207,0.24761c0.00902,0.02245 0.01473,0.04919 0.01558,0.08106z"/></g></g></g><path d="M179.64585,178.43525l-6.57192,6.42164l-4.55295,-3.88463l-0.31639,-0.79326l4.93342,-6.68758l3.03637,-2.06923l2.74813,0.74279l1.66816,2.33819l0.10395,1.79744z" data-paper-data="{&quot;index&quot;:null}" fill="#949494" stroke="#000000" stroke-width="2.5" stroke-linecap="round"/><g data-paper-data="{&quot;index&quot;:null}"><g><path d="M190.15908,183.81913l1.98148,-2.49074l2.09222,1.66444l-1.98148,2.49074z" fill="#000000" stroke="none" stroke-width="0" stroke-linecap="butt"/><path d="M183.52073,198.40487c0,0 -0.62596,0.26495 -0.84699,-0.24504c-0.57919,-1.33637 -2.75639,-8.06913 -2.75639,-8.06913l5.54845,-7.62337c0,0 2.3521,3.15884 3.41271,4.3334c0.41147,0.45568 -2.99094,5.60738 -2.83041,6.00064c0.16686,0.40876 -1.72422,-0.30237 -2.11853,-0.12134c-0.44521,0.20438 0.59285,1.28772 0.6884,1.55899c0.26922,0.76433 0.52116,2.24602 0.52116,2.24602l-1.6184,1.91982z" fill="#949494" stroke="#000000" stroke-width="2.5" stroke-linecap="butt"/><path d="M185.65005,181.45759l5.33795,1.35927l0.81455,1.37503l0.01219,1.38356l-0.92105,1.18897l-1.72341,0.47205z" fill="#242424" stroke="#000000" stroke-width="2.5" stroke-linecap="butt"/><path d="M187.59709,184.68612l0.14195,-1.12982l0.95383,-0.7409" fill="none" stroke="#000000" stroke-width="2.5" stroke-linecap="round"/><path d="M181.02797,192.669l3.22027,-0.05446" fill="none" stroke="#000000" stroke-width="2.5" stroke-linecap="round"/></g><g stroke="none" stroke-linecap="butt"><path d="M180.52181,190.70866l4.64568,-7.41553l3.92028,3.80505l-1.27815,1.22319l-2.30681,3.75877z" fill="#8c6200" stroke-width="NaN"/><path d="M184.08689,185.09026l1.21744,-1.71203l3.60005,3.81422l-1.37325,1.26968z" fill="#8c0081" stroke-width="NaN"/><path d="M180.34037,190.54696l5.84956,0.0706l-0.61043,1.49361l-2.1289,0.8625l0.68777,1.50211l0.25114,1.84112l-0.34537,0.64164l-0.99184,1.08611z" fill="#8c0081" stroke-width="0"/><g fill="#ffffff" stroke-width="0.5"><path d="M185.66495,186.35032c0.00019,-0.00014 0.00039,-0.00029 0.00058,-0.00044c0.11745,-0.08787 0.20533,0.02958 0.20533,0.02958c0.42332,0.57819 0.14364,1.15366 -0.43465,1.29497c0.0149,-0.06814 -0.05002,-0.11064 -0.05002,-0.11064c-0.44031,-0.28828 -0.87376,-0.58396 -1.32925,-0.84549c-0.02244,-0.24995 0.02135,-0.47686 0.17103,-0.57584c0.21084,-0.13944 0.5358,-0.12746 0.7675,-0.10929c0.29957,0.04795 0.46473,0.15748 0.66947,0.31714zM184.91408,186.44379c0.03328,-0.05083 0.01906,-0.11902 -0.03178,-0.1523c-0.05083,-0.03328 -0.11902,-0.01906 -0.1523,0.03178c-0.03328,0.05083 -0.01906,0.11902 0.03178,0.1523c0.05083,0.03328 0.11902,0.01906 0.1523,-0.03178zM185.52349,186.95236c0.05083,0.03328 0.11902,0.01906 0.1523,-0.03178c0.03328,-0.05083 0.01906,-0.11902 -0.03178,-0.1523c-0.05083,-0.03328 -0.11902,-0.01906 -0.1523,0.03178c-0.03328,0.05084 -0.01905,0.11903 0.03178,0.15231z"/><path d="M185.94981,187.94243c0.17043,0.11159 0.05885,0.28202 0.05885,0.28202l0.00401,-0.04539c-0.01421,0.11172 -0.05736,0.21756 -0.11713,0.31628l0.01009,0.00227l-0.0015,0.00665l0.05393,0.02808l-0.11691,0.22456c-0.00342,0.00678 -0.00726,0.01344 -0.01152,0.01994c-0.06163,0.09412 -0.18789,0.12048 -0.28202,0.05885c-0.05122,-0.03354 -0.08236,-0.08621 -0.09019,-0.14243c-0.00362,0.00043 -0.00563,0.00056 -0.00563,0.00056c-0.31805,0.01936 -0.63245,0.013 -0.94724,0.01384c0.06709,0.13695 0.13166,0.27566 0.19312,0.41678c0.16936,0.38883 0.49807,0.73053 0.44118,1.1549c0.00402,-0.02902 0.01402,-0.10129 0.01826,-0.13192l0.07104,0.01482l-0.00122,-0.03021l0.21651,-0.00879c0.04175,-0.00221 0.08456,0.00837 0.12222,0.03302c0.09413,0.06163 0.12048,0.18789 0.05885,0.28202c-0.01021,0.01559 -0.02219,0.02933 -0.0355,0.0411l-0.15084,0.13943l-0.02467,-0.02668c-0.11855,0.13185 -0.25027,0.18452 -0.50761,0.21142c-0.0494,0.03349 -0.12481,0.05647 -0.21773,-0.00436c-0.17043,-0.11159 -0.05885,-0.28202 -0.05885,-0.28202l0.17139,-0.11302c0.02352,-0.001 0.04603,-0.00376 0.06761,-0.00765c-0.139,-0.27575 -0.32318,-0.66687 -0.35733,-0.73521c-0.1589,-0.31795 -0.31726,-0.63161 -0.47867,-0.94291c-0.1026,0.00527 -0.20546,0.01303 -0.30871,0.02441c-0.19961,0.02199 -0.39158,0.07067 -0.58536,0.11299c0.05692,0.12743 0.09516,0.27498 0.10806,0.47114l0.04928,0.23617c0.01065,0.05104 0.00183,0.10613 -0.02899,0.1532c-0.06163,0.09413 -0.18789,0.12048 -0.28202,0.05885c-0.02129,-0.01394 -0.03912,-0.03119 -0.05324,-0.05062l-0.24428,-0.32013l0.01287,-0.00982c-0.2472,-0.23501 -0.3979,-0.47244 -0.561,-0.92183l-0.0226,-0.09829c0,0 -0.04161,-0.19942 0.15781,-0.24103c0.01942,-0.00405 0.03735,-0.00582 0.05388,-0.0057c0.01155,-0.01221 0.02549,-0.0241 0.04222,-0.03546c0.16855,-0.1144 0.28296,0.05415 0.28296,0.05415c0.09068,0.13476 0.17684,0.24342 0.25409,0.34487c0.25887,-0.04479 0.50874,-0.12404 0.77265,-0.15355c0.04846,-0.00542 0.09687,-0.01001 0.14525,-0.01391c-0.14747,-0.27733 -0.29861,-0.55343 -0.45602,-0.82966c-0.17949,0.05194 -0.35117,0.05692 -0.45071,-0.05684c-0.46213,-0.52817 0.68723,-0.73811 0.90968,-0.74733l0.13809,0.02712c0,0 0.19697,0.05196 0.14501,0.24894c-0.003,0.01135 -0.00647,0.02187 -0.01037,0.03163c0.36707,0.21986 0.7218,0.45923 1.08024,0.69476c-0.03607,0.00135 -0.07289,0.00118 -0.11042,-0.00058c-0.05776,-0.00271 -0.54646,-0.02228 -0.59785,-0.0483c-0.15251,-0.07724 -0.29908,-0.34013 -0.37942,-0.62912c-0.00591,0.01197 -0.01251,0.02261 -0.01963,0.03204c-0.00428,0.10519 -0.10544,0.16412 -0.10544,0.16412c-0.05201,0.03014 -0.12923,0.07572 -0.2194,0.12306c0.1885,0.32288 0.37427,0.64317 0.54864,0.9702c0.37599,-0.00485 0.75111,0.00881 1.1282,-0.01661c0,0 0.02158,-0.00138 0.05113,0.00379c-0.01325,-0.1197 -0.01361,-0.2413 -0.00572,-0.36106c0,0 0.01477,-0.20318 0.21795,-0.1884c0.1375,0.01 0.17518,0.10628 0.18517,0.16748c0.02358,0.00538 0.04881,0.01593 0.07548,0.0334z"/></g></g></g><g data-paper-data="{&quot;index&quot;:null}"><g stroke="#000000" stroke-width="2.5"><path d="M200.55915,163.83202c0,0 -0.07061,-0.82103 -0.45564,-1.32422c-0.34438,-0.45006 -1.74621,-1.55334 -1.74621,-1.55334c0,0 -3.03403,-0.86292 -3.45418,-2.61863c-0.04769,-0.1993 -0.75867,-4.65238 0.85633,-7.86591c1.15433,-2.29689 4.64166,-3.69587 5.16366,-3.66837c0.40349,0.02126 2.71012,-0.5204 5.09032,-0.31182c3.35438,0.29396 6.7246,1.32437 6.7246,1.32437l1.35763,7.25146l-10.60716,3.58479l1.64524,3.60762z" fill="#949494" stroke-linecap="butt"/><path d="M213.60721,151.66812l-7.07674,0.95399l-2.26528,-1.10547l-3.4251,-4.47621l6.27936,-0.14108l5.32406,0.99544z" fill="#000000" stroke-linecap="round"/><path d="M204.91628,152.23507l-0.84268,0.28995" fill="none" stroke-linecap="round"/><path d="M204.00629,153.89455l1.24526,-0.29383" fill="none" stroke-linecap="round"/><path d="M204.82309,155.09451l-0.76373,0.12815" fill="none" stroke-linecap="round"/><path d="M213.25715,155.35231c0,0 -6.4001,1.97772 -9.55959,3.38413c-0.77737,0.34604 0.23754,1.04019 -0.26019,1.21763c-4.40989,1.57213 -5.2253,0.69212 -5.80753,0.33049c-1.4461,-0.89818 -3.131,-2.18338 -3.17862,-2.49802c-0.06122,-0.40459 0.50889,-1.59983 0.50889,-1.59983l2.25661,0.09367l3.1002,0.01036l3.09632,-0.39221l5.09754,-1.61934l4.83864,0.75855" fill="#373737" stroke-linecap="round"/><path d="M213.4914,156.58316l-0.06731,1.36952l-6.25995,2.15394l-1.40706,0.21488l-0.89575,-1.03815l-0.09061,-1.04591l0.35339,-0.92942l0.80515,-0.00777l0.85045,0.51519l0.68864,0.43623z" fill="#000000" stroke-linecap="round"/><path d="M202.35715,162.40554l-0.33526,-1.36564" fill="none" stroke-linecap="round"/><path d="M199.89252,161.50331l4.45808,-1.13004" fill="none" stroke-linecap="round"/><path d="M197.68809,150.00991l-0.22912,1.29056l0.61356,1.00061l-2.13713,-0.34174l-0.66663,-2.32871l1.02262,-2.50605l1.05368,0.71454l0.70029,1.64395z" fill="#151515" stroke-linecap="round"/><path d="M198.69164,151.75258l-1.60253,0.82067l-1.42259,-1.39542l0.233,-0.88799l0.83104,-1.49767l0.92165,-0.45176l0.76761,0.27442l0.80903,0.39481l0.69641,1.24138z" fill="none" stroke-linecap="round"/></g><path d="M209.13746,147.56717c1.43357,-0.06502 2.00133,0.59319 2.1089,1.58183c0.10757,0.98864 -0.66222,1.88333 -1.71936,1.99835c-1.05715,0.11502 -2.00133,-0.59319 -2.1089,-1.58183c-0.10757,-0.98864 0.2427,-1.93137 1.71936,-1.99835z" fill="#54ff00" stroke="none" stroke-width="0" stroke-linecap="butt"/><path d="M204.63654,150.30796c-0.48447,0.22929 -0.71376,-0.25517 -0.71376,-0.25517l-0.25851,-0.69431c0.04351,-0.87153 0.11842,-1.55456 0.53968,-2.32605c0,0 0.26295,-0.46705 0.73,-0.2041c0.46705,0.26295 0.2041,0.73 0.2041,0.73c-0.35629,0.60734 -0.36962,1.15933 -0.40312,1.85278l0.15676,0.1831c0,0 0.22929,0.48447 -0.25517,0.71376z" fill="#54ff00" stroke="none" stroke-width="0.5" stroke-linecap="butt"/></g></g><g><path d="M289.8165,234.05289l2.16491,-32.42363l29.40676,0.12098l0.36082,32.30265c0,0 -9.17348,5.7364 -13.83398,-0.27815c-2.47912,-3.1994 -0.44723,-20.04711 -2.22248,-20.04711c-1.055,0 1.49959,17.5638 0.19399,18.77148c-5.50444,5.09159 -16.07003,1.55378 -16.07003,1.55378z" fill="#85785e" stroke="#584f3e" stroke-width="1.5" stroke-linecap="butt"/><path d="M289.62012,201.55315c0,0 1.35277,-3.28826 1.50403,-6.42874c0.32851,-6.82045 0.39027,-32.90054 0.39027,-32.90054c0,0 7.86285,-2.34532 11.99724,-2.34532c5.14458,0 16.50748,2.34532 16.50748,2.34532c0,0 -0.44654,23.89482 -0.23056,31.12154c0.13252,4.43452 1.40323,8.11755 1.40323,8.11755z" fill="#fff400" stroke="#a59c00" stroke-width="1.5" stroke-linecap="butt"/><path d="M285.09391,142.48312c0,-11.45831 9.28879,-20.7471 20.7471,-20.7471c11.45831,0 20.7471,9.28879 20.7471,20.7471c0,11.45831 -9.28879,20.7471 -20.7471,20.7471c-11.45831,0 -20.7471,-9.28879 -20.7471,-20.7471z" fill="#b2936b" stroke="#856e50" stroke-width="1.5" stroke-linecap="butt"/><path d="M303.42749,142.75856c0,3.54425 -1.80006,6.41743 -4.02055,6.41743c-2.22049,0 -4.02056,-2.87318 -4.02056,-6.41743c0,-3.54425 1.80006,-6.41743 4.02056,-6.41743c2.22049,0 4.02055,2.87318 4.02055,6.41743z" fill="#ffffff" stroke="#bababa" stroke-width="1.5" stroke-linecap="butt"/><path d="M295.85029,142.75856c0,3.54425 -1.80006,6.41742 -4.02056,6.41742c-2.22049,0 -4.02055,-2.87318 -4.02055,-6.41742c0,-3.54425 1.80006,-6.41743 4.02055,-6.41743c2.22049,0 4.02056,2.87318 4.02056,6.41743z" fill="#ffffff" stroke="#bababa" stroke-width="1.5" stroke-linecap="butt"/><path d="M292.70601,138.19678v9.07202" fill="none" stroke="#000000" stroke-width="1.5" stroke-linecap="round"/><path d="M297.34511,147.47498v-9.53593" fill="none" stroke="#000000" stroke-width="1.5" stroke-linecap="round"/><path d="M300.85021,135.93449l-5.60173,7.46309l-5.78985,-6.74145" fill="none" stroke="#000000" stroke-width="1.5" stroke-linecap="round"/><path d="M288.78854,152.578c0,0 3.30562,-2.50645 5.96953,-2.61362c2.06489,-0.08307 7.98888,0.88521 10.90918,2.37346c0.50959,0.2597 -0.14647,2.94832 -0.14647,2.94832l-16.84434,0.11933l0.32294,-2.81558" fill="#000000" stroke="#000000" stroke-width="1.5" stroke-linecap="round"/><path d="M286.08089,136.12142l2.16491,-10.10293l36.5149,0.07216l0.93813,9.95861c0,0 -3.25001,3.36144 -7.36004,3.48609c-2.04595,0.06205 -3.97932,-3.2835 -6.47808,-3.06828c-1.45366,0.1252 -3.78572,2.57559 -5.21471,2.56193c-4.21983,-0.04036 -7.33719,-3.41673 -10.31851,-3.2832c-1.01819,0.04561 -2.25908,2.81373 -2.95808,2.815c-3.47574,0.00633 -7.28852,-2.43938 -7.28852,-2.43938z" fill="#000000" stroke="#000000" stroke-width="1.5" stroke-linecap="butt"/><path d="M295.6441,142.68124c0,3.9855 -2.41162,7.21638 -5.38651,7.21638c-2.97489,0 -5.38651,-3.23089 -5.38651,-7.21638c0,-3.9855 2.41162,-7.21638 5.38651,-7.21638c2.97489,0 5.38651,3.23089 5.38651,7.21638z" fill="url(#color-1)" stroke="#000000" stroke-width="1.5" stroke-linecap="butt"/><path d="M306.41714,142.57815c0,3.9855 -2.41162,7.21638 -5.38651,7.21638c-2.97489,0 -5.38652,-3.23089 -5.38652,-7.21638c0,-3.9855 2.41163,-7.21638 5.38652,-7.21638c2.97489,0 5.38651,3.23089 5.38651,7.21638z" fill="url(#color-2)" stroke="#000000" stroke-width="1.5" stroke-linecap="butt"/><path d="M284.78195,133.59569c0,0 -1.05562,-1.61466 -0.25662,-3.50304c0.7585,-1.79267 3.36662,-3.83201 3.61903,-4.9708c0.51604,-2.32816 2.26637,-5.52595 2.26637,-5.52595c0,0 17.77253,-2.81439 22.73161,-2.81439c6.01952,0 10.82457,2.81439 10.82457,2.81439c0,0 2.02059,11.2078 2.02059,13.78329c0,1.55854 -2.02059,0.21649 -2.02059,0.21649z" fill="#fff400" stroke="#a59c00" stroke-width="1.5" stroke-linecap="butt"/><text transform="translate(288.73322,128.83293) scale(0.18041,0.18041)" font-size="40" xml:space="preserve" fill="#ff9c00" fill-rule="nonzero" stroke="none" stroke-width="3" stroke-linecap="butt" stroke-linejoin="miter" stroke-miterlimit="10" stroke-dasharray="" stroke-dashoffset="0" font-family="Sans Serif" font-weight="normal" text-anchor="start" style="mix-blend-mode: normal"><tspan x="0" dy="0">miner</tspan></text><path d="M319.8728,164.19428c0,0 6.98681,11.66165 8.41325,15.80854c2.32576,6.7613 4.21541,20.90481 4.21541,20.90481c0,0 -3.62966,1.71755 -5.51074,1.89905c-1.40728,0.13579 -4.77261,-0.9068 -4.77261,-0.9068c0,0 -1.63869,1.47677 -1.57268,0.73419c0.04936,-0.5553 -2.84735,0.16786 -2.84735,0.16786c0,0 -0.28349,-2.3582 -0.63486,-2.61119c-0.39518,-0.28453 3.16059,-3.97376 3.16059,-3.97376z" data-paper-data="{&quot;index&quot;:null}" fill="#fff400" stroke="#a59c00" stroke-width="1.5" stroke-linecap="round"/><path d="M291.2438,189.09079l7.84782,12.35806h-5.23188l0.36082,-1.53348l-3.24737,-3.6984z" fill="#a59c00" stroke="#a59c00" stroke-width="1.5" stroke-linecap="round"/><path d="M320.19954,196.48759l-3.24737,3.6984l0.36082,1.53348h-5.23188l7.84782,-12.35806z" data-paper-data="{&quot;index&quot;:null}" fill="#a59c00" stroke="#a59c00" stroke-width="1.5" stroke-linecap="round"/><path d="M301.89218,240.33718c0,2.84459 -2.09585,3.28502 -8.76339,3.28502c-6.66753,0 -10.96956,-0.35932 -10.96956,-3.20391c0,-1.3613 0.52033,-1.60452 2.74913,-2.32098c1.29247,-0.41547 2.01299,-1.52916 3.77455,-1.96993c1.54837,-0.38743 3.67743,-2.56301 5.30383,-2.56301c1.11022,0 2.43056,-0.09829 3.45165,0.02142c5.11117,0.59923 4.45378,4.38046 4.45378,6.75139z" fill="#935300" stroke="#603600" stroke-width="1.5" stroke-linecap="butt"/><path d="M313.86274,233.42279c1.02109,-0.11971 2.34143,-0.02142 3.45165,-0.02142c1.6264,0 3.75546,2.17558 5.30383,2.56301c1.76156,0.44077 2.48208,1.55446 3.77455,1.96993c2.2288,0.71647 2.74913,0.95969 2.74913,2.32099c0,2.84459 -4.30202,3.20391 -10.96956,3.20391c-6.66754,0 -8.76339,-0.44043 -8.76339,-3.28502c0,-2.37093 -0.65739,-6.15216 4.45378,-6.75139z" data-paper-data="{&quot;index&quot;:null}" fill="#935300" stroke="#603600" stroke-width="1.5" stroke-linecap="butt"/><path d="M320.31734,203.63196c0,1.28288 -1.5326,2.32285 -3.42315,2.32285c-1.89055,0 -3.42315,-1.03997 -3.42315,-2.32285c0,-1.28288 1.5326,-2.32285 3.42315,-2.32285c1.89055,0 3.42315,1.03997 3.42315,2.32285z" fill="#b2936b" stroke="#856e50" stroke-width="1.5" stroke-linecap="butt"/><path d="M290.92203,194.99442c0,0 3.55577,3.68924 3.16059,3.97376c-0.35137,0.25299 -0.63486,2.61119 -0.63486,2.61119c0,0 -2.89671,-0.72316 -2.84735,-0.16786c0.06601,0.74258 -1.57268,-0.73419 -1.57268,-0.73419c0,0 -3.36532,1.04259 -4.77261,0.9068c-1.88107,-0.18151 -5.51074,-1.89905 -5.51074,-1.89905c0,0 1.88966,-14.1435 4.21541,-20.90481c1.42645,-4.14689 8.41325,-15.80854 8.41325,-15.80854z" data-paper-data="{&quot;index&quot;:null}" fill="#fff400" stroke="#a59c00" stroke-width="1.5" stroke-linecap="round"/><path d="M295.37725,203.87647c0,1.28288 -1.5326,2.32285 -3.42315,2.32285c-1.89055,0 -3.42315,-1.03997 -3.42315,-2.32285c0,-1.28288 1.5326,-2.32285 3.42315,-2.32285c1.89055,0 3.42315,1.03997 3.42315,2.32285z" fill="#b2936b" stroke="#856e50" stroke-width="1.5" stroke-linecap="butt"/></g><path d="M0,363.1006v-366.2012h480v366.2012z" fill="none" stroke="none" stroke-width="0" stroke-linecap="butt"/></g></g></svg>