<svg version="1.1" xmlns="http://www.w3.org/2000/svg" xmlns:xlink="http://www.w3.org/1999/xlink" width="101.08223" height="118.43598" viewBox="0,0,101.08223,118.43598"><g transform="translate(-188.48976,-122.58212)"><g data-paper-data="{&quot;isPaintingLayer&quot;:true}" fill-rule="nonzero" stroke-linejoin="miter" stroke-miterlimit="10" stroke-dasharray="" stroke-dashoffset="0" style="mix-blend-mode: normal"><path d="M189.79204,179.45928c0,0 1.17114,-28.50387 4.12282,-30.93489c3.78813,-3.1199 20.53529,-4.89038 20.53529,-4.89038l13.83234,10.58809l-13.23776,25.30032z" data-paper-data="{&quot;index&quot;:null}" fill="#373737" stroke="#000000" stroke-width="2.5" stroke-linecap="butt"/><path d="M267.83047,160.07208l-27.79678,-6.53328l1.03724,-17.38866c0,0 12.29248,-11.51073 17.13014,-12.33581c3.76949,-0.64289 26.09769,17.11362 26.09769,17.11362z" data-paper-data="{&quot;index&quot;:null}" fill="#373737" stroke="#000000" stroke-width="2.5" stroke-linecap="butt"/><path d="M213.33904,189.123l1.7704,-4.49232l31.21684,33.8297l-4.62256,-1.77577c0,0 -14.61649,-7.31543 -19.53839,-12.09798c-4.49402,-4.36678 -8.82629,-15.46363 -8.82629,-15.46363z" fill="#373737" stroke="#000000" stroke-width="2.5" stroke-linecap="butt"/><path d="M248.65148,234.05611l-17.69725,-18.68925c0,0 0.21934,-5.45683 4.06489,-5.43526c8.04586,0.04513 39.61941,3.07063 39.61941,3.07063l3.86278,11.96073c0,0 -4.93381,12.89931 -9.7131,14.80514c-5.47156,2.18189 -20.13674,-5.712 -20.13674,-5.712z" fill="#373737" stroke="#000000" stroke-width="2.5" stroke-linecap="butt"/><path d="M213.56359,185.67003l12.08241,-28.445c0,0 9.70237,-3.76132 18.00721,-4.0225c7.99408,-0.25142 14.46014,2.92572 21.50916,6.45286c7.11736,3.56133 11.31801,12.00211 14.34874,15.43845c9.86099,11.18073 8.77554,40.67743 8.77554,40.67743c0,0 -17.30964,-2.87801 -22.70389,-2.34911c-7.88419,0.77303 -20.03498,6.5396 -20.03498,6.5396c0,0 -8.69006,-12.17653 -12.28297,-14.08405c0,0 -7.39203,-4.79186 -10.01376,-7.48098c-3.61854,-3.71157 -9.68747,-12.72668 -9.68747,-12.72668z" fill="#949494" stroke="#000000" stroke-width="2.5" stroke-linecap="butt"/><path d="M244.10344,205.2797c0,0 -12.50513,-5.08794 -18.38074,-13.85941c-3.45876,-5.16345 -1.31842,-14.13801 -1.84248,-17.29716c-0.75964,-4.57937 5.17725,-12.41382 12.40065,-16.00048c7.2234,-3.58667 13.10173,-3.42329 20.81166,-0.49058c7.70993,2.9327 17.12176,10.37441 21.73516,16.67455c5.25743,7.17963 8.1305,24.11049 8.1305,24.11049l-15.70498,3.30073l-0.78799,5.3415c0,0 -5.73438,0.07503 -8.16627,0.46446c-2.4517,0.39261 -2.09751,-4.43572 -2.09751,-4.43572z" fill="#000000" stroke="#000000" stroke-width="2.5" stroke-linecap="butt"/><g fill="#373737" stroke="#000000" stroke-width="2.5" stroke-linecap="butt"><path d="M230.57179,218.10134l-5.12885,-11.25914l5.32819,-3.01567c0,0 4.94841,4.00445 6.11734,6.04943c0.90954,1.59119 0.31542,5.20427 0.31542,5.20427z"/><path d="M224.57907,213.94033c-1.43569,-3.15172 -1.11491,-6.38298 0.71649,-7.21724c1.8314,-0.83426 4.47991,1.04441 5.9156,4.19613c1.43569,3.15172 1.11491,6.38298 -0.71649,7.21724c-1.8314,0.83426 -4.47991,-1.04441 -5.9156,-4.19613z"/></g><path d="M271.97674,212.45993c1.10318,-0.79496 1.89813,0.30822 1.89813,0.30822l0.01306,0.04978c4.18574,4.15555 9.51464,13.06616 4.12752,18.53305c-3.45987,3.5111 -11.41811,4.19234 -15.84663,3.45356c-2.44541,-0.96485 -6.23339,-1.98694 -7.78984,-4.26683c-0.54269,-0.79494 -0.19277,-2.85862 -1.13366,-2.6557c-2.26293,0.48803 -0.49454,3.5924 -4.41567,2.81114c-0.44208,-0.08809 -2.2066,-2.90037 -2.68953,-3.46428c-2.22522,-2.59833 -3.25115,-8.21487 -4.73718,-11.42457c0,0 -0.03597,-0.07904 1.20169,-0.64221c1.23766,-0.56317 2.18656,2.70431 2.18656,2.70431c1.31422,2.95346 1.35857,5.18774 3.38787,7.56287c0.64529,0.75526 0.49215,2.19114 1.37676,2.64309c0.68425,0.34957 0.80742,-1.35354 1.42288,-1.81354c0.63015,-0.47098 1.30633,-1.07707 2.09292,-1.09081c3.32601,-0.05809 2.5322,2.16035 3.62924,3.95385c0.94698,1.54817 4.60606,2.41948 6.19413,3.06188c3.01235,0.47327 4.70204,-0.12283 7.64599,-0.81035c1.8227,-0.42566 4.06015,-0.45687 5.52481,-1.91842c4.20368,-4.19476 -1.08572,-11.72749 -4.09283,-14.70608l-0.30446,-0.39086c0,0 -0.79496,-1.10318 0.30822,-1.89813z" fill="#000000" stroke="none" stroke-width="0.5" stroke-linecap="butt"/><path d="M249.46456,178.95252c0,0 -2.36506,4.39941 -4.58372,5.75526c-1.88627,1.15272 -7.89364,1.86979 -7.89364,1.86979" fill="none" stroke="#00ff0d" stroke-width="2.5" stroke-linecap="round"/><path d="M274.88945,170.31693c0,0 -2.28648,3.26939 -4.22072,4.54423c-2.11873,1.39644 -7.9887,3.50289 -7.9887,3.50289" fill="none" stroke="#00ff0d" stroke-width="2.5" stroke-linecap="round"/></g></g></svg>