<svg version="1.1" xmlns="http://www.w3.org/2000/svg" xmlns:xlink="http://www.w3.org/1999/xlink" width="482.4036" height="127.5461" viewBox="0,0,482.4036,127.5461"><g transform="translate(0.7018,-239.4344)"><g data-paper-data="{&quot;isPaintingLayer&quot;:true}" fill-rule="nonzero" stroke="none" stroke-width="0" stroke-linecap="butt" stroke-linejoin="miter" stroke-miterlimit="10" stroke-dasharray="" stroke-dashoffset="0" style="mix-blend-mode: normal"><path d="M-0.7018,365.98049v-54.56209h212.02226v54.5621z" fill="#d69b00"/><path d="M-0.7018,316.09662v-20.66222h212.4036v20.66222l-21.69988,25.13352l-21.39277,-27.86705l-16.079,27.06054l-26.83847,-27.71874l-22.76864,18.55532l-28.0512,-15.93977l-27.90069,17.91163l-18.50967,-14.01149l-16.96055,17.92812z" fill="#00ff2a"/><path d="M209.2982,366.98048v-81.70774h131.16769v81.70776z" fill="#d69b00"/><path d="M209.2982,290.20101v-21.76661h131.4036v21.76661l-13.42464,26.4769l-13.23465,-29.35653l-9.94728,28.50691l-16.60363,-29.2003l-14.08583,19.54709l-17.35389,-16.79174l-17.26078,18.869l-11.45102,-14.7604l-10.49265,18.88637z" fill="#00ff2a"/><path d="M341.2982,362.98048v-107.56208h140.15153v107.5621z" fill="#d69b00"/><path d="M341.2982,260.09662v-20.66222h140.4036v20.66222l-14.34411,25.13352l-14.14111,-27.86705l-10.62859,27.06054l-17.74084,-27.71874l-15.05059,18.55532l-18.54248,-15.93977l-18.44299,17.91163l-12.23531,-14.01149l-11.21131,17.92812z" fill="#00ff2a"/></g></g></svg>