<svg version="1.1" xmlns="http://www.w3.org/2000/svg" xmlns:xlink="http://www.w3.org/1999/xlink" width="103.41179" height="203.75255" viewBox="0,0,103.41179,203.75255"><g transform="translate(-188.16623,-77.51098)"><g data-paper-data="{&quot;isPaintingLayer&quot;:true}" fill-rule="nonzero" stroke-linejoin="miter" stroke-miterlimit="10" stroke-dasharray="" stroke-dashoffset="0" style="mix-blend-mode: normal"><g stroke="none" stroke-linecap="butt"><g><g fill="#949494" stroke-width="0"><path d="M264.66913,277.04639v-11.95736h3.98579v11.95736z"/><path d="M257.14043,274.16777h9.96447v4.20722z"/><path d="M276.41454,278.16303h-9.96447v-4.20722z" data-paper-data="{&quot;index&quot;:null}"/></g><g fill="#949494" stroke-width="0"><path d="M223.94536,279.91717v-11.95736h3.98579v11.95736z"/><path d="M216.41665,277.03854h9.96446v4.20722z"/><path d="M235.69076,281.0338h-9.96447v-4.20722z" data-paper-data="{&quot;index&quot;:null}"/></g><g fill="#949494" stroke-width="0"><path d="M248.45911,279.93493v-11.95736h3.98579v11.95736z"/><path d="M240.9304,277.05631h9.96447v4.20722z"/><path d="M260.20451,281.05157h-9.96446v-4.20722z" data-paper-data="{&quot;index&quot;:null}"/></g><g fill="#949494" stroke-width="0"><path d="M203.58348,278.23865v-11.95736h3.98579v11.95736z"/><path d="M196.05477,275.36003h9.96447v4.20722z"/><path d="M215.32888,279.35529h-9.96447v-4.20722z" data-paper-data="{&quot;index&quot;:null}"/></g><g><path d="M188.58142,265.03573l-0.41519,-13.28596c0,0 28.10534,-3.32149 42.34898,-3.32149c13.69028,0 41.51861,3.32149 41.51861,3.32149l-0.41519,13.28596c0,0 -15.31586,9.38571 -41.94119,7.2762c-28.05681,-2.22293 -41.09603,-7.2762 -41.09603,-7.2762z" fill="#670090" stroke-width="0"/><path d="M188.58142,264.62055v-12.87077c0,0 16.22593,-13.29127 41.51861,-12.0404c25.18518,1.24556 41.51861,12.0404 41.51861,12.0404v12.87077c0,0 -28.53401,-7.88854 -41.9338,-7.88854c-14.22942,0 -41.10343,7.88854 -41.10343,7.88854z" fill="#b800ff" stroke-width="NaN"/></g></g><g stroke-width="0"><path d="M210.58628,186.15037v-7.05816h17.43782v7.05816z" fill="#cacaca"/><path d="M236.74301,183.24407c0,6.19113 -3.90359,11.21003 -8.71891,11.21003c-4.81532,0 -8.71891,-5.0189 -8.71891,-11.21003c0,-6.19113 3.90359,-11.21003 8.71891,-11.21003c4.81532,0 8.71891,5.0189 8.71891,11.21003z" fill="#c7c7c7"/></g><path d="M200.62181,252.58015v-96.32318h16.60744v96.32318z" fill="#5d5d5d" stroke-width="0"/></g><g stroke-width="2" stroke-linecap="butt"><path d="M240.68846,240.99181v-10.79162h6.99997v10.79162z" data-paper-data="{&quot;index&quot;:null}" fill="#ffd499" stroke="#dfba86"/><path d="M226.17673,253.24177l1.05357,-11.58925c0,0 6.02669,-3.1607 9.8333,-3.1607c4.50404,0 12.29162,3.1607 12.29162,3.1607v11.58925z" data-paper-data="{&quot;index&quot;:null}" fill="#ff00bf" stroke="#d5009f"/></g><g stroke-width="2" stroke-linecap="butt"><path d="M268.23654,241.1995v-10.79162h6.99997v10.79162z" data-paper-data="{&quot;index&quot;:null}" fill="#ffd499" stroke="#dfba86"/><path d="M253.72481,253.44946l1.05357,-11.58925c0,0 6.02669,-3.1607 9.8333,-3.1607c4.50404,0 12.29162,3.1607 12.29162,3.1607v11.58925z" data-paper-data="{&quot;index&quot;:null}" fill="#ff00bf" stroke="#d5009f"/></g><path d="M248.53093,198.58787l1.86635,34.8348l-10.74329,1.02026l-2.13458,-31.73185z" data-paper-data="{&quot;index&quot;:null}" fill="#7f00ff" stroke="#6600cc" stroke-width="2" stroke-linecap="round"/><path d="M270.33038,197.29293l6.33002,35.66374l-12.88163,-1.43428l-0.75624,-25.42197z" data-paper-data="{&quot;index&quot;:null}" fill="#7f00ff" stroke="#6600cc" stroke-width="2" stroke-linecap="round"/><path d="M269.49241,202.27266c0,0 -8.19237,1.84866 -13.08914,2.02554c-6.20127,0.22401 -21.13787,-0.78917 -21.13787,-0.78917c0,0 -3.76492,-35.47535 -4.17189,-46.74173c-0.23971,-6.63606 1.95367,-14.66622 1.95367,-14.66622l37.02247,0.52593c0,0 0.99425,8.54755 0.94244,13.9009c-0.10282,10.62508 -1.51968,45.74476 -1.51968,45.74476z" data-paper-data="{&quot;index&quot;:null}" fill="#7f00ff" stroke="#6600cc" stroke-width="2" stroke-linecap="butt"/><path d="M290.38721,158.69298c0,0 -0.66749,3.80282 -2.32214,3.99761c-1.11454,0.13121 -3.55219,-2.1271 -6.15339,-2.19556c-1.02002,-0.02684 -1.99794,2.83141 -3.10349,2.86099c-0.83899,0.02245 -2.18214,-2.69938 -2.78053,-1.98973c-0.94867,1.12507 -2.26901,3.74115 -3.91148,4.01414c-1.56755,0.26056 -3.47861,-1.86259 -3.58826,0.76054c-0.16282,3.89507 -4.53872,-4.34029 -4.53872,-4.34029l-6.95232,-59.05577c0,0 -18.27717,-4.76774 -28.68912,-8.87273c-4.46969,-1.7622 -8.19421,-3.95818 -7.24205,-4.6875c2.46391,-1.88723 19.45071,-9.68268 34.91,-10.6737c13.70115,-0.87832 26.21172,4.93904 26.21172,4.93904l8.15977,75.24296z" data-paper-data="{&quot;index&quot;:null}" fill="#000000" stroke="#000000" stroke-width="2" stroke-linecap="butt"/><path d="M271.488,108.33787c5.66397,14.08799 1.57644,28.57876 -12.51155,34.24273c-14.088,5.66397 -35.80249,0.28929 -41.46647,-13.7987c-4.54438,-11.3032 -2.28421,-22.0612 6.82332,-29.93212c0.86539,-0.74789 4.30858,-2.46232 5.27632,-3.10605c1.54147,-1.02537 3.53316,-4.13599 5.24392,-4.82378c1.01535,-0.40822 2.61342,1.71556 3.72821,1.64426c1.96177,-0.12547 3.49536,-2.20516 5.3645,-2.2028c3.04426,0.00383 6.48325,1.53296 9.34285,2.38733c0.83678,0.25 3.45343,-4.39001 4.25483,-4.09117c7.08127,2.64065 10.91897,12.156 13.94406,19.68032z" data-paper-data="{&quot;index&quot;:null}" fill="#ffd499" stroke="#dfba86" stroke-width="2" stroke-linecap="butt"/><path d="M228.52067,175.95617c0,4.42976 -2.08933,8.0208 -4.66665,8.0208c-2.57732,0 -4.66665,-3.59103 -4.66665,-8.0208c0,-4.42976 2.08933,-8.0208 4.66665,-8.0208c2.57732,0 4.66665,3.59103 4.66665,8.0208z" data-paper-data="{&quot;index&quot;:null}" fill="#ffd499" stroke="#dfba86" stroke-width="2" stroke-linecap="butt"/><path d="M231.24991,189.49657c0,4.26868 -2.48108,7.72913 -5.54164,7.72913c-3.06056,0 -5.54164,-3.46045 -5.54164,-7.72913c0,-4.26868 2.48108,-7.72913 5.54164,-7.72913c3.06056,0 5.54164,3.46045 5.54164,7.72913z" data-paper-data="{&quot;index&quot;:null}" fill="#ffd499" stroke="#dfba86" stroke-width="2" stroke-linecap="butt"/><path d="M254.69725,100.57136l-8.09724,8.09724l-8.09724,-8.09724" fill="none" stroke="#000000" stroke-width="2" stroke-linecap="round"/><path d="M238.75362,119.01159c-1,0 -1,-1 -1,-1l0.05132,-0.20454c-1.01817,-3.12885 0.33969,-7.28762 -0.95247,-10.19142c-0.07065,-0.15878 -0.24846,0.25638 -0.40866,0.32376c-1.05911,0.4455 -2.21968,0.62443 -3.27007,1.09013c-3.1646,1.40306 -4.14994,5.9058 -6.11858,8.54053c0,0 -0.6,0.8 -1.4,0.2c-0.8,-0.6 -0.2,-1.4 -0.2,-1.4c2.911,-3.86515 3.52221,-8.04485 8.5557,-9.72253c0.67124,-0.22373 3.21361,-1.3014 4.04007,-0.63305c0.57943,0.46858 0.42934,1.42721 0.63668,2.14297c0.86783,2.99591 0.01494,6.10249 1.0147,9.01715l0.05132,0.837c0,0 0,1 -1,1z" fill="#000000" stroke="none" stroke-width="0.5" stroke-linecap="butt"/><path d="M265.2388,119.49986c-0.70711,0.70711 -1.41421,0 -1.41421,0l-0.99793,-1.10558c-0.02981,-1.65002 -1.05042,-2.11465 -1.11766,-3.85076c0,-2.14127 -0.0256,-4.28542 0,-6.42654c0.00673,-0.56261 0.37568,-1.52031 -0.16384,-1.67997c-0.88845,-0.26291 -1.74247,0.64184 -2.64219,0.86311c-2.22853,0.54807 -3.37151,1.25189 -4.40465,3.33002c-1.48809,2.99324 -1.22039,6.93362 -3.58068,9.39048c0,0 -0.70711,0.70711 -1.41421,0c-0.70711,-0.70711 0,-1.41421 0,-1.41421c2.43905,-2.29433 2.07593,-7.34492 4.04341,-10.26627c1.74725,-2.59435 8.55726,-5.74893 10.12587,-1.79202c0.7563,1.90781 0.03629,5.89765 0.03629,7.9954c-0.09671,1.36152 0.99364,1.67066 0.96542,3.08539l0.56438,0.45673c0,0 0.70711,0.70711 0,1.41421z" fill="#000000" stroke="none" stroke-width="0.5" stroke-linecap="butt"/><path d="M260.36554,131.29121c0,0 -0.34489,11.56656 -15.1023,11.45726c-15.24501,-0.11291 -15.1023,-11.45726 -15.1023,-11.45726z" fill="#000000" stroke="none" stroke-width="0" stroke-linecap="butt"/></g></g></svg>