<svg version="1.1" xmlns="http://www.w3.org/2000/svg" xmlns:xlink="http://www.w3.org/1999/xlink" width="482.14234" height="136.04099" viewBox="0,0,482.14234,136.04099"><g transform="translate(1.94505,-236.12253)"><g data-paper-data="{&quot;isPaintingLayer&quot;:true}" fill-rule="nonzero" stroke="none" stroke-width="0" stroke-linecap="butt" stroke-linejoin="miter" stroke-miterlimit="10" stroke-dasharray="" stroke-dashoffset="0" style="mix-blend-mode: normal"><path d="M-1.10238,365.16353v-86.60682h201.93647v86.60683z" data-paper-data="{&quot;index&quot;:null}" fill="#4c4c4c"/><path d="M-1.94505,294.7895v-22.66697h203.14234v22.66697l-20.75371,27.57209l-20.46,-30.57084l-15.37792,29.68608l-25.66824,-30.40814l-21.77588,20.35565l-26.82811,-17.48632l-26.68416,19.6495l-17.70262,-15.37095l-16.22103,19.66759z" data-paper-data="{&quot;index&quot;:null}" fill="#787878"/><path d="M199.92877,370.16351v-127.60682h209.39941v127.60683z" data-paper-data="{&quot;index&quot;:null}" fill="#4c4c4c"/><path d="M199.05496,258.7895v-22.66697h210.64985v22.66697l-21.5207,27.57209l-21.21614,-30.57084l-15.94624,29.68608l-26.61686,-30.40814l-22.58064,20.35565l-27.8196,-17.48632l-27.67033,19.6495l-18.35685,-15.37095l-16.8205,19.66759z" data-paper-data="{&quot;index&quot;:null}" fill="#787878"/><path d="M402.3791,372.16351v-94.98443h77.67848v94.98444z" data-paper-data="{&quot;index&quot;:null}" fill="#4c4c4c"/><path d="M402.05495,294.98211v-24.85958h78.14234v24.85958l-7.98329,30.23918l-7.87031,-33.528l-5.91539,32.55766l-9.87375,-33.34957l-8.37648,22.32468l-10.31992,-19.1778l-10.26454,21.55023l-6.80963,-16.85781l-6.23971,21.57007z" data-paper-data="{&quot;index&quot;:null}" fill="#787878"/></g></g></svg>