<svg version="1.1" xmlns="http://www.w3.org/2000/svg" xmlns:xlink="http://www.w3.org/1999/xlink" width="31.80718" height="47.11316" viewBox="0,0,31.80718,47.11316"><g transform="translate(-223.21513,-156.89671)"><g data-paper-data="{&quot;isPaintingLayer&quot;:true}" fill-rule="nonzero" stroke-linecap="butt" stroke-linejoin="miter" stroke-miterlimit="10" stroke-dasharray="" stroke-dashoffset="0" style="mix-blend-mode: normal"><path d="M230.63448,169.57099c0,0 0.13822,0.73715 -0.59894,0.87537c-0.34221,0.06416 -0.55534,-0.06032 -0.68549,-0.21213c-0.29922,-0.09854 -0.51523,-0.3803 -0.51523,-0.71252c0,-0.06371 0.00794,-0.12556 0.02289,-0.18462l0.12275,-0.53194c-0.38787,-2.46297 -0.69602,-6.09275 0.38309,-8.01696c1.58385,-2.82423 5.80306,-3.14148 8.59626,-3.14148c1.59101,0 4.68656,-0.58907 6.15569,0.20812c1.16286,0.63101 1.95224,2.14378 2.87024,3.06968c3.03897,3.06512 5.14096,5.22744 6.64118,9.48602c0.52988,4.14913 0.64539,8.73868 0.64539,12.92368c0,1.02394 0.44635,3.41949 -0.09964,4.31105c-0.60534,0.98846 -2.69628,1.65307 -3.74657,1.7509c-0.74597,0.00046 -2.47779,0.24296 -3.03855,-0.38967c-0.47019,-0.53045 -0.12414,-2.24524 -0.17585,-2.93161c-0.17665,-2.345 -0.50103,-5.19877 -0.11855,-7.53969c0.27474,-1.68148 1.05416,-2.8713 1.05416,-4.63848c0,-3.07574 -2.30841,-7.84884 -5.82975,-8.38861c-2.01297,-0.30856 -4.08385,-0.30157 -6.13968,-0.26919c-0.09313,0.3083 -0.37938,0.5328 -0.71807,0.5328h-0.70634c-1.22193,0.17691 -2.42157,1.42954 -3.54191,2.60114l-0.01843,0.04677c0,0 -0.1276,0.25521 -0.38281,0.37209l0.25915,0.24295l-0.44626,0.47601c0.00376,0.02023 0.00751,0.04034 0.01126,0.06031z" fill="#c6c6c6" stroke="#6f6f6f" stroke-width="1.5"/><path d="M238.48723,202.23607l1.46626,-8.50612l3.68253,0.63478l-1.46625,8.50613z" data-paper-data="{&quot;index&quot;:null}" fill="#c6c6c6" stroke="#6f6f6f" stroke-width="1.5"/><path d="M236.07754,203.0645l-2.67276,-8.20734l3.55318,-1.1571l2.67276,8.20734z" fill="#c6c6c6" stroke="#6f6f6f" stroke-width="1.5"/><path d="M232.09963,194.14836v-12.47368h12.47368v12.47368z" fill="#c6c6c6" stroke="#6f6f6f" stroke-width="1.5"/><path d="M228.25753,174.04309c0,-5.61005 4.54784,-10.15789 10.15789,-10.15789c5.61005,0 10.15789,4.54784 10.15789,10.15789c0,5.61005 -4.54784,10.15789 -10.15789,10.15789c-5.61005,0 -10.15789,-4.54784 -10.15789,-10.15789z" fill="#c6c6c6" stroke="#6f6f6f" stroke-width="1.5"/><path d="M234.33074,172.63278c0,-0.66609 3.78536,-2.48181 3.78536,-2.48181c0,0 0.68966,1.06378 0.68966,2.48181c0,1.23574 -1.00177,2.23751 -2.23751,2.23751c-1.23574,0 -2.23751,-1.00177 -2.23751,-2.23751z" fill="#920000" stroke="none" stroke-width="0"/><path d="M229.58338,172.57958c0,-1.18602 0.12539,-2.14749 0.12539,-2.14749c0,0 4.16958,0.96146 4.16958,2.14749c0,1.18602 -0.96146,2.14749 -2.14749,2.14749c-1.18602,0 -2.14749,-0.96146 -2.14749,-2.14749z" fill="#790000" stroke="none" stroke-width="0"/><path d="M232.71805,168.14836c0,-0.41421 0.33579,-0.75 0.75,-0.75c0.41421,0 0.75,0.33579 0.75,0.75c0,0.41421 -0.33579,0.75 -0.75,0.75c-0.41421,0 -0.75,-0.33579 -0.75,-0.75z" fill="#000000" stroke="none" stroke-width="0.5"/><path d="M243.03384,167.99046c0,-0.41421 0.33579,-0.75 0.75,-0.75c0.41421,0 0.75,0.33579 0.75,0.75c0,0.41421 -0.33579,0.75 -0.75,0.75c-0.41421,0 -0.75,-0.33579 -0.75,-0.75z" fill="#000000" stroke="none" stroke-width="0.5"/><path d="M232.50753,180.09572c0,-0.41421 0.33579,-0.75 0.75,-0.75c0.41421,0 0.75,0.33579 0.75,0.75c0,0.41421 -0.33579,0.75 -0.75,0.75c-0.41421,0 -0.75,-0.33579 -0.75,-0.75z" fill="#000000" stroke="none" stroke-width="0.5"/><path d="M242.297,180.35888c0,-0.41421 0.33579,-0.75 0.75,-0.75c0.41421,0 0.75,0.33579 0.75,0.75c0,0.41421 -0.33579,0.75 -0.75,0.75c-0.41421,0 -0.75,-0.33579 -0.75,-0.75z" fill="#000000" stroke="none" stroke-width="0.5"/><path d="M245.61279,172.20099c0,-0.41421 0.33579,-0.75 0.75,-0.75c0.41421,0 0.75,0.33579 0.75,0.75c0,0.41421 -0.33579,0.75 -0.75,0.75c-0.41421,0 -0.75,-0.33579 -0.75,-0.75z" fill="#000000" stroke="none" stroke-width="0.5"/><path d="M245.61279,175.99046c0,-0.41421 0.33579,-0.75 0.75,-0.75c0.41421,0 0.75,0.33579 0.75,0.75c0,0.41421 -0.33579,0.75 -0.75,0.75c-0.41421,0 -0.75,-0.33579 -0.75,-0.75z" fill="#000000" stroke="none" stroke-width="0.5"/><path d="M229.92858,176.20099c0,-0.41421 0.33579,-0.75 0.75,-0.75c0.41421,0 0.75,0.33579 0.75,0.75c0,0.41421 -0.33579,0.75 -0.75,0.75c-0.41421,0 -0.75,-0.33579 -0.75,-0.75z" fill="#000000" stroke="none" stroke-width="0.5"/><path d="M227.82332,172.41151c0,-0.41421 0.33579,-0.75 0.75,-0.75c0.41421,0 0.75,0.33579 0.75,0.75c0,0.41421 -0.33579,0.75 -0.75,0.75c-0.41421,0 -0.75,-0.33579 -0.75,-0.75z" fill="#000000" stroke="none" stroke-width="0.5"/><path d="M233.34963,184.09572c0,-0.41421 0.33579,-0.75 0.75,-0.75c0.41421,0 0.75,0.33579 0.75,0.75c0,0.41421 -0.33579,0.75 -0.75,0.75c-0.41421,0 -0.75,-0.33579 -0.75,-0.75z" fill="#000000" stroke="none" stroke-width="0.5"/><path d="M241.92858,183.83257c0,-0.41421 0.33579,-0.75 0.75,-0.75c0.41421,0 0.75,0.33579 0.75,0.75c0,0.41421 -0.33579,0.75 -0.75,0.75c-0.41421,0 -0.75,-0.33579 -0.75,-0.75z" fill="#000000" stroke="none" stroke-width="0.5"/><path d="M233.08648,192.67467c0,-0.41421 0.33579,-0.75 0.75,-0.75c0.41421,0 0.75,0.33579 0.75,0.75c0,0.41421 -0.33579,0.75 -0.75,0.75c-0.41421,0 -0.75,-0.33579 -0.75,-0.75z" fill="#000000" stroke="none" stroke-width="0.5"/><path d="M242.03384,192.56941c0,-0.41421 0.33579,-0.75 0.75,-0.75c0.41421,0 0.75,0.33579 0.75,0.75c0,0.41421 -0.33579,0.75 -0.75,0.75c-0.41421,0 -0.75,-0.33579 -0.75,-0.75z" fill="#000000" stroke="none" stroke-width="0.5"/><path d="M224.08797,182.94993l7.62897,-0.1994l0.07564,2.89375l-7.62897,0.1994z" fill="#c6c6c6" stroke="#6f6f6f" stroke-width="1.5"/><path d="M223.99121,185.08768l7.6268,-0.27012l0.10246,2.89292l-7.62679,0.27012z" fill="#c6c6c6" stroke="#6f6f6f" stroke-width="1.5"/></g></g></svg>