<svg version="1.1" xmlns="http://www.w3.org/2000/svg" xmlns:xlink="http://www.w3.org/1999/xlink" width="296.75995" height="141.78738" viewBox="0,0,296.75995,141.78738"><g transform="translate(-83.75,-133.2308)"><g data-paper-data="{&quot;isPaintingLayer&quot;:true}" fill-rule="nonzero" stroke-linejoin="miter" stroke-miterlimit="10" stroke-dasharray="" stroke-dashoffset="0" style="mix-blend-mode: normal"><g data-paper-data="{&quot;index&quot;:null}" fill="#949494" stroke="#000000" stroke-width="2"><path d="M227.93042,208.47426c0,0 -6.00931,-1.21539 -11.50096,-6.54003c-4.08045,-3.95636 -7.60554,-11.27977 -9.59517,-16.24115c-1.36296,-3.39872 -1.65674,-3.57866 -2.17738,-6.30157c-1.10769,-5.79322 3.03394,-4.26816 5.53084,-6.23353c1.30027,-1.02347 7.23751,-0.43906 7.23751,-0.43906c0,0 -3.03283,1.75701 6.53532,-3.12438c0.39094,-0.19945 18.90832,-10.32996 19.29435,-10.53003c3.99814,-2.07214 14.411,-9.87665 14.411,-9.87665c0,0 4.36664,3.41237 8.44966,6.56171c1.52261,1.17444 2.9117,2.13073 4.156,3.12194c3.45453,2.75185 3.3307,3.0252 5.44399,4.64334c5.879,4.50152 5.47507,18.15854 5.47507,18.15854z" stroke-linecap="butt"/><path d="M228.53538,167.96113l0.55419,1.5855c0,0 5.26269,-2.0044 7.65661,-2.91616c2.11431,-0.80528 5.97251,-2.27475 5.97251,-2.27475l0.98506,-5.3261l-1.28983,6.28665c0,0 -0.20196,9.98998 1.45354,13.96927c4.00153,8.48377 16.25363,12.2374 16.25363,12.2374" stroke-linecap="round"/><path d="M220.84051,179.44007c0,0 5.70114,-2.56009 8.3638,-1.26779c1.42806,0.6931 6.70518,5.61153 8.4874,10.75041c0.64705,1.8657 1.11071,10.78717 -2.63681,13.31318c-1.38196,0.93151 -7.07579,2.28649 -11.78107,0.65447c-3.81318,-1.32259 -6.73039,-5.19391 -8.13339,-8.18824c-1.41446,-3.01879 -0.40632,-7.42009 1.55703,-10.68955c1.6109,-2.68255 4.14304,-4.57248 4.14304,-4.57248" stroke-linecap="round"/><path d="M271.34876,167.97716c2.95779,5.70698 1.51165,13.66327 -3.90416,16.47015c-5.41582,2.80688 -13.2738,-0.05977 -16.23159,-5.76676c-2.95779,-5.70699 -1.59011,-11.74988 3.8257,-14.55675c1.2775,-0.6621 4.22456,-1.06033 5.58648,-1.17209c4.41182,-0.36206 8.46348,0.66465 10.72358,5.02546z" stroke-linecap="butt"/></g><g data-paper-data="{&quot;index&quot;:null}" stroke="#000000" stroke-width="2" stroke-linecap="round"><path d="M275.76815,134.2308c0,0 -3.42101,8.3691 -5.93831,11.35595c-1.43611,1.704 -5.49966,4.99565 -8.05826,5.69394c-0.37933,0.10353 -1.96588,-0.3572 -1.93876,-2.14551c0.02336,-1.54024 1.48779,-4.26086 3.09761,-6.16703c3.74287,-4.43191 12.62683,-8.62804 12.62683,-8.62804" fill="#d8d8d8"/><path d="M265.78438,149.03629l-4.20862,-4.50708" fill="none"/></g><path d="M227.64393,212.15927c0,0 -4.55322,-8.00608 -6.22333,-10.94271c-1.12528,-1.97861 -2.82519,-4.96762 -2.82519,-4.96762c0,0 -0.83995,-4.28306 -0.49711,-4.67836c0.7852,-0.90533 1.47718,-3.88294 3.95277,-4.68131c1.97696,-0.63755 5.8018,0.03111 6.91602,0.10596c1.96265,0.13183 4.54589,5.00022 4.54589,5.00022l5.94057,14.04319z" data-paper-data="{&quot;index&quot;:null}" fill="#949494" stroke="#000000" stroke-width="2.5" stroke-linecap="butt"/><g data-paper-data="{&quot;index&quot;:null}"><g><path d="M274.60306,190.89593l-5.11592,-3.01481l2.53244,-4.29737l5.11592,3.01481z" data-paper-data="{&quot;index&quot;:null}" fill="#000000" stroke="none" stroke-width="0" stroke-linecap="butt"/><path d="M281.45987,192.38026l10.14426,3.57104l4.27028,8.75562l-1.43766,3.42042l-0.82813,1.49932l-8.63862,5.01224l-3.92066,0.69432l0.28164,-2.55376l0.82813,-1.49932l0.81271,-2.56146l2.62451,-2.16282l-4.46714,-0.36011l-3.34196,-3.35105l-3.97462,-3.02316z" fill="#949494" stroke="#000000" stroke-width="2.5" stroke-linecap="round"/><path d="M273.81264,199.82154l-1.50703,-1.3592l-0.18638,-5.52157l1.20366,-4.90433l3.16329,-1.63945l3.09253,0.80501l1.65487,4.22543z" fill="#242424" stroke="#000000" stroke-width="2.5" stroke-linecap="round"/><path d="M278.2104,195.40204l-4.58415,-1.10206l-0.99138,-2.42905" fill="none" stroke="#000000" stroke-width="2.5" stroke-linecap="round"/></g><g stroke="none" stroke-linecap="butt"><path d="M287.28824,205.99414l-6.0558,-0.82074l-5.84422,-5.69897l5.32346,-5.72397l11.36214,3.44876l2.17199,5.37506z" fill="#8c6200" stroke-width="NaN"/><path d="M277.56383,201.39054l-2.51512,-1.88237l4.99698,-5.71987l5.38844,-0.45155z" fill="#8c0081" stroke-width="NaN"/><path d="M281.45448,214.51892l0.03819,-2.74391l0.34976,-1.31377l2.69299,-2.18328l2.10612,-2.6073l6.48763,-3.39723l1.5895,5.51178l-9.40394,6.316z" fill="#8c0081" stroke-width="0"/><g fill="#ffffff" stroke-width="0.5"><path d="M281.12387,198.18966c0.20525,-0.43879 0.38714,-0.76071 0.84461,-1.09403c0.36987,-0.22637 0.90001,-0.52137 1.36857,-0.46803c0.33264,0.03788 0.59755,0.37805 0.77183,0.81262c-0.53589,0.82041 -1.00628,1.67895 -1.49429,2.53099c0,0 -0.07196,0.12562 0.01051,0.2263c-1.0811,0.25459 -2.03327,-0.46542 -1.8189,-1.78509c0,0 0.04668,-0.26966 0.31634,-0.22299c0.00044,0.00007 0.0009,0.00015 0.00135,0.00023zM282.73151,197.63335c0.05634,-0.09837 0.02227,-0.22379 -0.07609,-0.28012c-0.09837,-0.05634 -0.22378,-0.02228 -0.28012,0.07609c-0.05634,0.09837 -0.02227,0.22379 0.0761,0.28013c0.09837,0.05634 0.22379,0.02227 0.28012,-0.07609zM281.8687,199.07091c0.05634,-0.09837 0.02227,-0.22379 -0.07609,-0.28012c-0.09837,-0.05634 -0.22379,-0.02227 -0.28013,0.0761c-0.05634,0.09837 -0.02228,0.22378 0.0761,0.28012c0.09837,0.05634 0.22378,0.02229 0.28013,-0.07608z"/><path d="M281.99806,201.0779c0.02955,-0.0516 0.06256,-0.09051 0.09722,-0.11943c-0.03519,-0.11022 -0.05406,-0.3022 0.16608,-0.43522c0.3253,-0.19656 0.52186,0.12874 0.52186,0.12874c0.11451,0.19244 0.21684,0.39492 0.29613,0.60515c0.04475,-0.03361 0.0818,-0.04959 0.0818,-0.04959c0.64846,-0.27697 1.26059,-0.61721 1.88982,-0.92744c0.01308,-0.69132 0.05081,-1.38112 0.09087,-2.07751c-0.18999,-0.00239 -0.35696,-0.01278 -0.46895,-0.01887c0,0 -0.21806,-0.01233 -0.31423,-0.1836c-0.01983,-0.00965 -0.03981,-0.02174 -0.05977,-0.03665c0.11107,0.54848 0.08993,1.10964 -0.09825,1.36717c-0.0634,0.08676 -0.85936,0.53301 -0.9531,0.58642c-0.06091,0.0347 -0.12198,0.06615 -0.18308,0.09445c0.39656,-0.69504 0.78371,-1.3933 1.20788,-2.06958c-0.01473,-0.01293 -0.02942,-0.02747 -0.04401,-0.04381c-0.25315,-0.2835 0.03036,-0.53665 0.03036,-0.53665l0.20663,-0.16198c0.37766,-0.17298 2.46631,-0.79688 2.14508,0.47246c-0.06919,0.27339 -0.35886,0.41046 -0.70125,0.47605c-0.02787,0.59253 -0.04543,1.17951 -0.05584,1.76544c0.08374,-0.03448 0.16812,-0.06783 0.25328,-0.09983c0.46377,-0.17435 0.94627,-0.25412 1.4146,-0.39879c0.04254,-0.23406 0.09382,-0.48768 0.1305,-0.78847c0,0 0.04753,-0.37708 0.42461,-0.32957c0.03744,0.00471 0.07069,0.01268 0.10023,0.02321c0.02739,-0.01419 0.0587,-0.02643 0.09442,-0.03613c0.36678,-0.09963 0.46642,0.26715 0.46642,0.26715l0.04562,0.18254c0.10925,0.88522 0.05968,1.40757 -0.15236,2.00755l0.02973,0.00544l-0.13515,0.73905c-0.00703,0.04427 -0.02206,0.08802 -0.04565,0.12923c-0.10432,0.18215 -0.33656,0.24523 -0.51871,0.1409c-0.09107,-0.05217 -0.15238,-0.13631 -0.17787,-0.23017l-0.11799,-0.43438c-0.14461,-0.33704 -0.20595,-0.61475 -0.21917,-0.8748c-0.358,0.09367 -0.71838,0.17526 -1.06888,0.30768c-0.1813,0.06849 -0.35887,0.14267 -0.53392,0.22076c-0.00484,0.65421 -0.0026,1.30976 0.00236,1.9729c0.00107,0.14254 0.02594,0.94873 0.02828,1.52486c0.03917,-0.01182 0.07892,-0.02627 0.11889,-0.04452l0.38063,0.04282c0,0 0.32981,0.18891 0.1409,0.51871c-0.10298,0.17979 -0.24783,0.20543 -0.3583,0.19156c-0.45063,0.17314 -0.71422,0.19707 -1.02294,0.0782l-0.01842,0.06525l-0.36882,-0.10414c-0.0321,-0.00831 -0.06365,-0.02101 -0.09382,-0.03829c-0.18215,-0.10432 -0.24524,-0.33655 -0.14091,-0.5187c0.04175,-0.07287 0.10396,-0.1267 0.17525,-0.15836l0.3674,-0.16866l0.02354,0.05126l0.10557,-0.08478c0.03298,0.04734 0.11078,0.15902 0.14203,0.20388c-0.45383,-0.65742 -0.19657,-1.50379 -0.24415,-2.29364c-0.01727,-0.28666 -0.02735,-0.57195 -0.03173,-0.85643c-0.52409,0.26508 -1.04143,0.5418 -1.58661,0.77884c0,0 -0.00346,0.00149 -0.00983,0.00382c0.03458,0.1001 0.02739,0.21406 -0.02938,0.31316c-0.10432,0.18215 -0.33656,0.24523 -0.51871,0.14089c-0.01259,-0.00721 -0.0246,-0.01502 -0.03604,-0.0234l-0.38448,-0.27438l0.06588,-0.09233l-0.00811,-0.00978l0.01484,-0.0123c-0.18295,-0.11353 -0.34429,-0.25297 -0.46249,-0.42669l0.04509,0.07207c0,0 -0.3298,-0.1889 -0.14089,-0.51871z"/></g></g></g><path d="M253.64679,173.27381l1.01589,-3.20183l4.09301,-3.45896l5.31068,-0.07708l4.53651,5.13973l5.83898,14.36337l-0.93743,1.28844l-10.02094,4.92606l-8.92381,-14.63731z" data-paper-data="{&quot;index&quot;:null}" fill="#949494" stroke="#000000" stroke-width="2.5" stroke-linecap="round"/><g data-paper-data="{&quot;index&quot;:null}"><g><path d="M225.91114,217.85211l0.48615,-5.91822l4.97131,0.40837l-0.48615,5.91822z" fill="#000000" stroke="none" stroke-width="0" stroke-linecap="butt"/><path d="M221.28258,246.57622l0.25081,-4.67803c0,0 2.23502,-1.69342 3.57735,-2.38911c0.47642,-0.24691 3.27184,-0.39453 2.92736,-1.24111c-0.30508,-0.74979 -3.7853,-2.19785 -3.0363,-2.54068c0.72059,-0.32983 2.67269,-11.6819 3.81429,-11.77613c2.9426,-0.24289 10.17596,-1.53509 10.17596,-1.53509l-2.1901,17.45451c0,0 -11.55999,6.37631 -14.05448,7.45412c-0.95195,0.41132 -1.46491,-0.74847 -1.46491,-0.74847z" fill="#949494" stroke="#000000" stroke-width="2.5" stroke-linecap="butt"/><path d="M227.86274,224.17113l-1.74105,-2.84311l0.26582,-2.79341l1.78362,-1.86615l2.86399,-0.8298l8.99595,4.96877z" fill="#242424" stroke="#000000" stroke-width="2.5" stroke-linecap="butt"/><path d="M234.1585,218.76794l0.35101,2.22587l-1.2499,1.71791" fill="none" stroke="#000000" stroke-width="2.5" stroke-linecap="round"/><path d="M227.68832,237.77188l4.31021,4.18689" fill="none" stroke="#000000" stroke-width="2.5" stroke-linecap="round"/></g><g stroke="none" stroke-linecap="butt"><path d="M226.66457,235.44279l1.66318,-8.05834l-0.17615,-3.29603l10.19149,-0.16824l-3.15246,16.01886z" fill="#8c6200" stroke-width="NaN"/><path d="M228.52673,227.93156l-0.24611,-3.48071l9.76767,-0.5897l-0.53075,3.88334z" fill="#8c0081" stroke-width="NaN"/><path d="M222.37975,246.68456l0.03818,-2.74391l0.34976,-1.31377l2.69299,-2.18328l2.85385,-1.16455l-1.79388,-3.89202l1.07735,-2.81102l8.04591,7.37484z" fill="#8c0081" stroke-width="0"/><g fill="#ffffff" stroke-width="0.5"><path d="M233.762,227.4428c0.48238,0.04434 0.84691,0.10631 1.31557,0.42369c0.33835,0.27122 0.79561,0.66996 0.90428,1.12887c0.07715,0.32578 -0.15309,0.69033 -0.50283,1.0016c-0.95351,-0.22603 -1.92067,-0.37749 -2.88769,-0.54775c0,0 -0.14258,-0.02511 -0.20934,0.0866c-0.60603,-0.93077 -0.25145,-2.07063 1.06274,-2.31636c0,0 0.26953,-0.04751 0.31703,0.22201c0.00008,0.00046 0.00016,0.0009 0.00023,0.00134zM234.83038,228.76664c0.11165,0.01966 0.21808,-0.05491 0.23773,-0.16655c0.01966,-0.11165 -0.05491,-0.21808 -0.16655,-0.23773c-0.11165,-0.01966 -0.21808,0.05491 -0.23773,0.16655c-0.01966,0.11165 0.05491,0.21808 0.16655,0.23773zM233.18545,228.44229c0.11165,0.01966 0.21808,-0.05491 0.23774,-0.16656c0.01966,-0.11165 -0.05492,-0.21808 -0.16655,-0.23773c-0.11165,-0.01966 -0.21808,0.05491 -0.23773,0.16655c-0.01966,0.11165 0.05491,0.21808 0.16655,0.23773z"/><path d="M231.34117,229.24438c0.05857,0.0103 0.10637,0.02818 0.14531,0.05097c0.09176,-0.07048 0.26597,-0.15331 0.46575,0.0087c0.29521,0.2394 0.0558,0.5346 0.0558,0.5346c-0.14222,0.17296 -0.29802,0.33789 -0.46891,0.48376c0.0468,0.03071 0.07439,0.06015 0.07439,0.06015c0.4804,0.51617 1.00802,0.97669 1.5132,1.46348c0.65482,-0.22207 1.31656,-0.42042 1.98529,-0.61882c-0.06217,-0.17954 -0.10898,-0.34015 -0.14122,-0.44758c0,0 -0.06232,-0.20933 0.0662,-0.35787c0.00236,-0.02192 0.00696,-0.04482 0.01421,-0.06865c-0.47835,0.29043 -1.01344,0.46079 -1.31952,0.37106c-0.10312,-0.03023 -0.79278,-0.62776 -0.8748,-0.69785c-0.05329,-0.04553 -0.1036,-0.09234 -0.15092,-0.14023c0.78832,0.13746 1.57648,0.26495 2.35651,0.43473c0.00717,-0.01824 0.01587,-0.03698 0.0263,-0.05625c0.18089,-0.33426 0.51516,-0.15337 0.51516,-0.15337l0.22244,0.13948c0.29077,0.29664 1.58581,2.0501 0.28274,2.17822c-0.28066,0.02759 -0.50781,-0.19845 -0.68559,-0.49833c-0.56688,0.17467 -1.12506,0.35714 -1.67982,0.54598c0.06083,0.0671 0.1208,0.13518 0.17978,0.20443c0.32125,0.37719 0.55987,0.80409 0.85474,1.19563c0.23462,-0.03932 0.4906,-0.07706 0.78603,-0.14453c0,0 0.37087,-0.08313 0.454,0.28774c0.00826,0.03682 0.01203,0.07081 0.01214,0.10216c0.02264,0.02097 0.04476,0.04626 0.066,0.07658c0.21808,0.31128 -0.09321,0.52937 -0.09321,0.52937l-0.15627,0.10481c-0.79576,0.40288 -1.30397,0.53333 -1.94032,0.53725l0.00496,0.02981l-0.7411,0.1234c-0.04402,0.0084 -0.0903,0.00909 -0.13706,0.00085c-0.20673,-0.03639 -0.3448,-0.23349 -0.30841,-0.44022c0.0182,-0.10336 0.07657,-0.18956 0.15624,-0.24537l0.36865,-0.25826c0.26806,-0.25031 0.50852,-0.40216 0.74869,-0.50276c-0.20949,-0.30505 -0.40841,-0.61643 -0.65181,-0.90127c-0.1259,-0.14733 -0.25588,-0.28926 -0.38869,-0.42747c-0.6171,0.21723 -1.23308,0.44158 -1.85526,0.67107c-0.13373,0.04933 -0.88375,0.34604 -1.42497,0.54356c0.02439,0.03285 0.05147,0.06534 0.08219,0.09675l0.08876,0.37261c0,0 -0.06591,0.37431 -0.44022,0.30841c-0.20406,-0.03593 -0.27729,-0.16351 -0.30169,-0.27214c-0.31565,-0.36525 -0.42753,-0.60511 -0.42036,-0.93584l-0.06762,0.00478l-0.02708,-0.38229c-0.00307,-0.03302 -0.00182,-0.06701 0.00421,-0.10125c0.03639,-0.20673 0.23349,-0.3448 0.44022,-0.30841c0.08271,0.01457 0.15443,0.05485 0.20839,0.11118l0.28323,0.28846l-0.04025,0.03952l0.11555,0.07058c-0.03336,0.04707 -0.11206,0.15813 -0.14366,0.20273c0.46462,-0.64983 1.3481,-0.69473 2.07504,-1.00727c0.26383,-0.11343 0.52881,-0.21962 0.79496,-0.3202c-0.42705,-0.40318 -0.86278,-0.79607 -1.27062,-1.22861c0,0 -0.00257,-0.00274 -0.00694,-0.00795c-0.08245,0.06646 -0.19208,0.09834 -0.30458,0.07853c-0.20673,-0.03639 -0.34481,-0.2335 -0.30841,-0.44022c0.00251,-0.01429 0.00579,-0.02824 0.0098,-0.04184l0.12779,-0.45473l0.10921,0.03068l0.00646,-0.01095l0.01661,0.0098c0.04478,-0.21061 0.12127,-0.40967 0.24463,-0.57976l-0.05252,0.06685c0,0 0.06591,-0.37431 0.44022,-0.30841z"/></g></g></g><g stroke="#000000" stroke-width="2.5"><path d="M204.62011,177.96357l-2.75554,-6.86535l-18.49369,9.71389l-8.04759,-11.16654c0,0 2.9457,-5.87846 6.86576,-10.7877c2.7816,-3.48351 6.48192,-5.90204 6.9725,-6.47441c0.63465,-0.74047 7.01257,-3.65047 11.60072,-2.25354c6.41919,1.9544 11.51913,8.64592 11.72696,8.96685c1.83079,2.82714 -0.90847,8.03594 -0.90847,8.03594c0,0 -0.31392,3.31344 -0.14923,4.35785c0.18414,1.16768 1.20227,2.31975 1.20227,2.31975z" fill="#949494" stroke-linecap="butt"/><path d="M175.81136,168.35163l5.50755,-8.47259l8.27219,-8.30024l1.63806,10.38737l-1.42225,4.48256l-10.39646,8.33108z" fill="#000000" stroke-linecap="round"/><path d="M192.83778,164.00517l-1.4762,0.76508" fill="none" stroke-linecap="round"/><path d="M194.7743,165.67687l-1.99956,1.30386" fill="none" stroke-linecap="round"/><path d="M195.34392,168.32451l1.15602,-0.86667" fill="none" stroke-linecap="round"/><path d="M184.29373,179.76835l5.20278,-7.51204l8.74791,-4.80136l4.51478,-3.67755l3.976,-4.20092l2.77776,-3.16865c0,0 2.3482,0.76822 2.8159,1.37163c0.36372,0.46926 -0.06881,4.39919 -0.71674,7.50847c-0.26087,1.25186 -0.12164,3.48585 -7.92077,7.41915c-0.88025,0.44394 -0.51169,-1.82033 -1.97958,-1.21566c-5.96599,2.4576 -16.8744,8.55714 -16.8744,8.55714" fill="#373737" stroke-linecap="round"/><path d="M196.20397,175.96091l0.29706,-1.49161l0.39865,-1.8118l1.04673,-1.07755l1.71021,0.71883l1.29615,1.4685l0.24943,2.54604l-2.10115,1.62404l-10.96607,5.68344l-1.93651,-1.67167z" fill="#000000" stroke-linecap="round"/><path d="M208.39295,174.40305l-1.41316,-2.21045" fill="none" stroke-linecap="round"/><path d="M203.08226,174.48012l7.264,-4.56735" fill="none" stroke-linecap="round"/><path d="M196.48729,151.94755l-1.31927,-3.0617l0.39094,-2.34287l4.70116,1.84402l2.28753,3.89754l-2.28891,3.32654l-0.5619,-2.11657l-2.0381,-1.35149z" fill="#151515" stroke-linecap="round"/><path d="M195.10517,155.47513l-0.7805,-2.53834l0.50794,-1.60091l0.61724,-1.39002l1.79639,-0.66349l3.09253,0.80501l1.49932,0.82813l0.05396,3.71748l-3.171,1.10839z" fill="none" stroke-linecap="round"/></g><path d="M184.53585,164.71381c1.19696,1.41769 0.93839,3.60451 -0.57752,4.88442c-1.51593,1.27991 -3.24544,0.08385 -3.24544,0.08385c0,0 -0.68866,-0.03171 1.24419,-1.88442c1.99096,-1.90839 1.38181,-4.50154 2.57877,-3.08385z" fill="#54ff00" stroke="none" stroke-width="0" stroke-linecap="butt"/><path d="M189.11861,161.91217c-0.93322,0.35929 -1.29251,-0.57395 -1.29251,-0.57395l-0.04557,-0.44739c-0.9798,-0.84722 -1.74255,-1.53963 -3.02146,-1.84004c0,0 -0.96929,-0.24593 -0.72336,-1.21521c0.24593,-0.96929 1.21521,-0.72336 1.21521,-0.72336c1.58426,0.42388 2.60327,1.20178 3.83648,2.26468l0.60513,1.24276c0,0 0.35929,0.93322 -0.57395,1.29251z" fill="#54ff00" stroke="none" stroke-width="0.5" stroke-linecap="butt"/><text transform="translate(84,268.76819) scale(0.5,0.5)" font-size="40" xml:space="preserve" fill="#000000" fill-rule="nonzero" stroke="none" stroke-width="1" stroke-linecap="butt" stroke-linejoin="miter" stroke-miterlimit="10" stroke-dasharray="" stroke-dashoffset="0" font-family="Sans Serif" font-weight="normal" text-anchor="start" style="mix-blend-mode: normal"><tspan x="0" dy="0">STOP IT IM THE REAL GVBVDXX</tspan></text></g></g></svg>