<svg version="1.1" xmlns="http://www.w3.org/2000/svg" xmlns:xlink="http://www.w3.org/1999/xlink" width="116.83814" height="56.62934" viewBox="0,0,116.83814,56.62934"><g transform="translate(-186.16154,-173.94535)"><g data-paper-data="{&quot;isPaintingLayer&quot;:true}" fill-rule="nonzero" stroke-linejoin="miter" stroke-miterlimit="10" stroke-dasharray="" stroke-dashoffset="0" style="mix-blend-mode: normal"><g><g stroke="#000000" stroke-width="2.5"><path d="M267.80292,189.90123c0,0 1.48027,-0.4155 2.2684,-1.29655c0.70492,-0.78803 2.23867,-3.74185 2.23867,-3.74185c0,0 0.52448,-5.86174 3.59613,-7.24358c0.34868,-0.15686 8.26299,-3.0116 14.71578,-1.17118c4.61217,1.31546 8.39146,7.21993 8.52293,8.18626c0.10162,0.74696 1.89815,4.78604 2.34517,9.22138c0.62998,6.25065 -0.08436,12.78695 -0.08436,12.78695l-12.81813,5.01504l-10.26644,-18.19276l-6.03915,4.27256z" fill="#949494" stroke-linecap="butt"/><path d="M294.64446,209.57866l-4.21434,-12.63853l1.2369,-4.53721l7.011,-7.83751l2.44653,11.46026l0.03054,10.10529z" fill="#000000" stroke-linecap="round"/><path d="M289.75203,192.40311l0.82507,1.44352" fill="none" stroke-linecap="round"/><path d="M287.21835,192.75693l0.97246,2.18005" fill="none" stroke-linecap="round"/><path d="M285.30355,194.67212l-0.50099,-1.35518" fill="none" stroke-linecap="round"/><path d="M287.76975,210.22074c0,0 -5.85497,-11.04161 -9.53363,-16.34258c-0.90511,-1.30426 -1.8238,0.79782 -2.32245,-0.05263c-4.4181,-7.5351 -3.08925,-9.33628 -2.62929,-10.52945c1.14241,-2.9635 2.91095,-6.49956 3.47107,-6.69646c0.72024,-0.25319 3.10964,0.3753 3.10964,0.3753l0.61459,4.16876l1.06122,5.68595l1.79774,5.53857l4.74423,8.77902l0.29559,9.13303" fill="#373737" stroke-linecap="round"/><path d="M285.59534,211.07896l-2.53365,0.35381l-6.12913,-10.72333l-0.88412,-2.50413l1.59071,-2.00355l1.88548,-0.53051l1.82665,0.32388l0.29478,1.47304l-0.64797,1.7383l-0.55962,1.41421z" fill="#000000" stroke-linecap="round"/><path d="M271.04397,192.69974l2.38627,-1.09033" fill="none" stroke-linecap="round"/><path d="M275.46351,195.64541l-3.62459,-7.77745" fill="none" stroke-linecap="round"/><path d="M292.13702,179.82279l-2.4453,0.02973l-1.62023,1.47325l-0.11827,-4.03621l4.03601,-2.03327l4.94964,1.00117l-0.94253,2.18025l-2.76918,1.85637z" fill="#151515" stroke-linecap="round"/><path d="M289.29257,182.2694l-2.06259,-2.65132l2.06198,-3.09368l1.70878,0.11766l3.03464,1.00136l1.14917,1.53187l-0.23553,1.50256l-0.44175,1.62043l-2.03266,1.70898z" fill="none" stroke-linecap="round"/></g><g fill="#00ff59" stroke="none" stroke-width="0.5" stroke-linecap="butt"><path d="M292.27792,199.43163c0.00161,-0.59839 0.6,-0.59679 0.6,-0.59679l0.46615,0.01091c1.35218,0.25133 2.6872,0.45743 3.98123,0.88374c-0.32445,-1.80208 -0.89285,-3.56242 -1.1491,-5.37418c0,0 -0.08303,-0.59261 0.50957,-0.67563c0.59261,-0.08303 0.67563,0.50957 0.67563,0.50957c0.28394,2.04742 0.97216,4.02977 1.26213,6.07985l0.0249,0.1777c0.03919,0.10059 0.0501,0.22464 0.00115,0.3737c-0.02615,0.10969 -0.08407,0.23315 -0.20801,0.32056c-0.11786,0.09544 -0.25242,0.11753 -0.36509,0.11281c-0.15561,0.00646 -0.27143,-0.03716 -0.35736,-0.10148c-1.46948,-0.62826 -3.02804,-0.84312 -4.59231,-1.12971l-0.25211,0.00897c0,0 -0.59839,-0.00161 -0.59678,-0.6z"/><path d="M301.05539,198.17104c-0.59769,0.02904 -0.62673,-0.56866 -0.62673,-0.56866l0.04571,-0.30176c-1.11721,-2.03922 -1.33188,-5.04982 -2.8426,-6.77376c0,0 -0.38821,-0.45538 0.06717,-0.84359c0.45538,-0.3882 0.84359,0.06717 0.84359,0.06717c1.58562,1.89888 1.78731,4.79713 2.98134,6.97499l0.10017,0.81887c0,0 0.02904,0.59769 -0.56866,0.62673z"/></g></g><g data-paper-data="{&quot;index&quot;:null}" fill="#949494" stroke="#000000" stroke-width="2"><path d="M204.14906,224.91162c0,0 -6.64286,-11.93942 -3.49459,-18.64127c1.13169,-2.40908 0.89596,-2.59479 2.69679,-6.62759c0.64865,-1.4526 1.4419,-2.94082 2.25333,-4.68416c2.17592,-4.67491 4.48262,-9.71385 4.48262,-9.71385c0,0 12.8362,2.13774 17.33941,2.13774c0.4348,0 21.53684,0.47359 21.97571,0.47078c10.74117,-0.06885 7.24001,-0.23325 7.24001,-0.23325c0,0 5.00242,-3.25087 6.6278,-2.9405c3.12122,0.596 6.09658,-2.66377 7.77886,2.9894c0.7907,2.65709 0.61267,2.95203 0.96648,6.59672c0.51648,5.32044 0.7566,13.44454 -1.04569,18.83477c-2.4256,7.25441 -7.20167,11.09865 -7.20167,11.09865z" stroke-linecap="butt"/><path d="M227.38777,223.96137c0,0 9.15072,-8.9704 8.79967,-18.34394c-0.36124,-4.29476 -5.1374,-13.07136 -5.1374,-13.07136l-4.03795,-4.98805l3.32537,4.27547c0,0 4.10165,-0.47068 6.34937,-0.72861c2.54497,-0.29205 8.13973,-0.93407 8.13973,-0.93407l-0.23753,-1.66268" stroke-linecap="round"/><path d="M256.70286,195.15886c0,0 3.11779,0.51281 5.78238,2.15324c3.24758,1.99934 6.16789,5.44311 6.30116,8.77418c0.13219,3.30408 -0.67646,8.08355 -3.45338,11.01242c-3.42658,3.61409 -9.1053,5.03108 -10.76089,4.83995c-4.48955,-0.51829 -8.18307,-8.6525 -8.46709,-10.60669c-0.78231,-5.3826 1.63974,-12.17764 2.58871,-13.45012c1.76938,-2.37258 8.00911,-2.72298 8.00911,-2.72298" stroke-linecap="round"/><path d="M206.58486,208.22281c0,-4.91169 3.12479,-7.68761 7.2084,-9.39624c1.2606,-0.52746 4.06037,-1.52997 5.49925,-1.52997c6.09996,0 10.09486,4.7358 10.09486,11.16373c0,6.42793 -5.65758,12.58889 -11.75755,12.58889c-6.09997,0 -11.04497,-6.3985 -11.04497,-12.82642z" stroke-linecap="butt"/></g><g data-paper-data="{&quot;index&quot;:null}" stroke="#000000" stroke-width="2" stroke-linecap="round"><path d="M187.39232,184.42716c0,0 9.45336,-2.677 15.18718,-1.79711c2.46613,0.37844 5.35802,1.46624 6.38801,2.61166c1.19589,1.32991 0.30303,2.71996 -0.05089,2.89126c-2.38724,1.15549 -7.61325,1.34572 -9.81558,1.00547c-3.86037,-0.5964 -11.9395,-4.65505 -11.9395,-4.65505" fill="#d8d8d8"/><path d="M204.41721,189.07909l0.20931,-6.16299" fill="none"/></g><path d="M272.64682,198.51612l-8.13658,12.89564c0,0 -3.33761,4.38573 -5.2957,4.19795c-1.11163,-0.1066 -4.99426,-0.06624 -6.84187,-1.01556c-2.3136,-1.18877 -2.51419,-4.23915 -3.1424,-5.25969c-0.27429,-0.4456 1.24826,-4.53608 1.24826,-4.53608c0,0 2.16157,-2.67423 3.59245,-4.44447c2.12368,-2.62736 7.91345,-9.7903 7.91345,-9.7903z" data-paper-data="{&quot;index&quot;:null}" fill="#949494" stroke="#000000" stroke-width="2.5" stroke-linecap="butt"/><g data-paper-data="{&quot;index&quot;:null}"><g><path d="M206.25152,219.71789l-4.858,-3.41491l2.86852,-4.08072l4.858,3.41491z" data-paper-data="{&quot;index&quot;:null}" fill="#000000" stroke="none" stroke-width="0" stroke-linecap="butt"/><path d="M216.92314,211.23231l4.39442,2.37197l4.43186,1.66037l2.17225,3.92l0.88635,-3.28333l1.99744,-1.79772l1.02369,-1.37325l2.20968,-1.31085l0.98626,3.85758l-0.99868,9.93734l-1.02369,1.37325l-2.52177,2.72154l-9.73759,-0.2746l-7.44057,-7.76507z" fill="#949494" stroke="#000000" stroke-width="2.5" stroke-linecap="round"/><path d="M212.34154,221.45681l-4.53173,0.23721l-2.00996,-2.48432l0.18725,-3.55797l3.96993,-3.12105l5.10599,-2.10983l1.86013,0.81146z" fill="#949494" stroke="#000000" stroke-width="2.5" stroke-linecap="round"/><path d="M209.1955,213.44203l2.62166,-0.09989l2.89633,3.72025" fill="none" stroke="#000000" stroke-width="2.5" stroke-linecap="round"/></g><g stroke="none" stroke-linecap="butt"><path d="M227.86619,228.70634l-5.7923,0.24085l-7.832,-8.9248l3.01559,-7.21175l7.60341,2.97008l3.24767,5.17678z" fill="#8c6200" stroke-width="NaN"/><path d="M215.81476,224.4944l-1.81335,-5.09421l3.14664,-6.9127l2.75282,1.51364z" fill="#8c0081" stroke-width="NaN"/><path d="M234.67768,215.81303l-1.87018,11.17266l-5.67635,0.82783l0.41577,-7.31147l1.50521,-2.99468l0.87672,-3.35413l1.05218,-0.86095l2.48338,-1.16761z" fill="#8c0081" stroke-width="0"/><g fill="#ffffff" stroke-width="0.5"><path d="M218.45528,218.5651c-0.00025,-0.00037 -0.00051,-0.00076 -0.00076,-0.00113c-0.15384,-0.22634 0.0725,-0.38018 0.0725,-0.38018c1.11345,-0.74007 2.16234,-0.17009 2.37679,0.91968c-0.12574,-0.03355 -0.21045,0.08386 -0.21045,0.08386c-0.57456,0.79624 -1.16231,1.57912 -1.6883,2.40591c-0.46775,0.02068 -0.88695,-0.08016 -1.05878,-0.36749c-0.24203,-0.40475 -0.19222,-1.00939 -0.13873,-1.43972c0.11472,-0.55427 0.33283,-0.85284 0.64774,-1.22093zM218.61232,220.25901c0.06633,-0.09192 0.04557,-0.22022 -0.04635,-0.28656c-0.09193,-0.06633 -0.22023,-0.04558 -0.28657,0.04635c-0.06633,0.09193 -0.04557,0.22022 0.04635,0.28656c0.09192,0.06633 0.22022,0.04557 0.28656,-0.04635zM219.56543,218.87967c0.06633,-0.09193 0.04556,-0.22022 -0.04636,-0.28655c-0.09193,-0.06634 -0.22021,-0.04558 -0.28655,0.04633c-0.06633,0.09193 -0.04558,0.22023 0.04635,0.28657c0.09192,0.06633 0.22022,0.04557 0.28656,-0.04635z"/><path d="M221.44678,218.16887c0.22239,-0.30822 0.5306,-0.08582 0.5306,-0.08582l-0.08425,-0.01131c0.20703,0.03594 0.40064,0.12532 0.57957,0.24508l0.00507,-0.0186l0.01226,0.00335l0.05689,-0.09813l0.40863,0.23691c0.01235,0.00696 0.02443,0.01468 0.03619,0.02316c0.17023,0.12283 0.20866,0.36038 0.08582,0.5306c-0.06683,0.09263 -0.16766,0.14622 -0.2731,0.15605c0.0005,0.00676 0.00057,0.01053 0.00057,0.01053c0.00917,0.59441 -0.02928,1.17986 -0.05434,1.76663c0.26092,-0.11345 0.52491,-0.22206 0.79314,-0.32467c0.73904,-0.28275 1.40371,-0.86649 2.18985,-0.72456c-0.05376,-0.00993 -0.18759,-0.03468 -0.24433,-0.04518l0.03363,-0.13115l-0.05641,-0.00028l0.00193,-0.40425c-0.00059,-0.078 0.02274,-0.15688 0.07188,-0.22499c0.12283,-0.17022 0.36039,-0.20864 0.53062,-0.0858c0.0282,0.02034 0.05278,0.04383 0.07361,0.06965l0.24712,0.29293l-0.05182,0.04372c0.23572,0.23211 0.32274,0.48206 0.35109,0.96398c0.05825,0.0949 0.09469,0.23741 -0.02654,0.40542c-0.22239,0.30822 -0.53061,0.08582 -0.53061,0.08582l-0.19614,-0.329c0.00012,-0.04394 -0.00313,-0.0861 -0.00854,-0.12666c-0.5257,0.23572 -1.27026,0.5459 -1.40052,0.60378c-0.60604,0.26926 -1.20403,0.53787 -1.79789,0.81236c0.00114,0.19167 0.00689,0.38404 0.01936,0.57744c0.02409,0.3739 0.09856,0.73582 0.16105,1.10056c0.2423,-0.09532 0.52057,-0.15411 0.88725,-0.16154l0.44434,-0.07187c0.09601,-0.01553 0.19797,0.00557 0.28307,0.06698c0.17023,0.12284 0.20866,0.36039 0.08582,0.53061c-0.02779,0.0385 -0.06144,0.07026 -0.09886,0.09494l-0.61733,0.42821l-0.01722,-0.02483c-0.45892,0.44083 -0.9142,0.70163 -1.76557,0.96759l-0.18509,0.03381c0,0 -0.3752,0.06068 -0.43588,-0.31452c-0.00591,-0.03654 -0.00769,-0.07011 -0.00607,-0.10092c-0.02179,-0.02256 -0.04277,-0.04956 -0.06252,-0.0817c-0.19895,-0.32384 0.12487,-0.5228 0.12487,-0.5228c0.25882,-0.15759 0.46865,-0.30901 0.66426,-0.44438c-0.06158,-0.48628 -0.18813,-0.95867 -0.2208,-1.45305c-0.00601,-0.09078 -0.01047,-0.1814 -0.01363,-0.2719c-0.52936,0.25139 -1.05673,0.50972 -1.58491,0.77972c0.08162,0.33893 0.07636,0.65934 -0.14407,0.83523c-1.02349,0.81663 -1.31755,-1.34329 -1.31591,-1.75868l0.06222,-0.25507c0,0 0.11352,-0.36274 0.47624,-0.2492c0.0209,0.00654 0.04022,0.01391 0.05808,0.022c0.44083,-0.66555 0.91698,-1.30644 1.3863,-1.95456c-0.00055,0.06733 -0.00398,0.13595 -0.01044,0.20574c-0.00994,0.10743 -0.08777,1.01662 -0.14062,1.11018c-0.15687,0.27772 -0.65924,0.52865 -1.20465,0.65392c0.02182,0.01202 0.04108,0.02523 0.05805,0.0393c0.19569,0.01688 0.29695,0.2104 0.29695,0.2104c0.05178,0.09949 0.13018,0.24727 0.21079,0.41933c0.61773,-0.32399 1.23042,-0.64315 1.85467,-0.94047c0.02278,-0.70119 0.07995,-1.39917 0.0645,-2.10414c0,0 -0.00074,-0.04034 0.0114,-0.09498c-0.2242,0.01458 -0.45088,0.00497 -0.67343,-0.01988c0,0 -0.37743,-0.04473 -0.3327,-0.42216c0.03027,-0.25543 0.21292,-0.3175 0.32784,-0.33094c0.01203,-0.04351 0.03383,-0.08964 0.06864,-0.13785z"/></g></g></g><path d="M224.18588,215.09119l-14.44213,9.23634l-6.84264,-8.82403l-0.27691,-1.56913l11.55001,-10.34395l6.33189,-2.62753l4.73815,2.39984l2.15987,4.9043l-0.49227,3.32286z" data-paper-data="{&quot;index&quot;:null}" fill="#949494" stroke="#000000" stroke-width="2.5" stroke-linecap="round"/><g data-paper-data="{&quot;index&quot;:null}"><g><path d="M269.33251,191.52143l-5.62702,1.89692l-1.59341,-4.7267l5.62702,-1.89692z" fill="#000000" stroke="none" stroke-width="0" stroke-linecap="butt"/><path d="M294.50351,175.38576c0,0 1.24919,0.21859 1.07919,1.24158c-0.44545,2.68063 -3.85057,15.43585 -3.85057,15.43585l-16.41358,6.32859c0,0 -0.48757,-7.33168 -0.96039,-10.24619c-0.18343,-1.1307 10.36456,-5.75887 10.51118,-6.53768c0.15239,-0.80952 2.39586,2.21962 3.19705,2.33518c0.90462,0.13049 0.37478,-2.61822 0.49971,-3.14008c0.352,-1.47035 1.45741,-4.04738 1.45741,-4.04738z" fill="#949494" stroke="#000000" stroke-width="2.5" stroke-linecap="butt"/><path d="M274.00745,199.78759l-6.98873,-7.53481l0.11576,-2.97953l1.38176,-2.1805l2.64721,-0.93063l3.17869,1.00522z" fill="#242424" stroke="#000000" stroke-width="2.5" stroke-linecap="butt"/><path d="M274.22519,192.75682l-1.3664,1.62679l-2.2449,0.19529" fill="none" stroke="#000000" stroke-width="2.5" stroke-linecap="round"/><path d="M287.50069,183.72307l5.10157,3.17522" fill="none" stroke="#000000" stroke-width="2.5" stroke-linecap="round"/></g><g stroke="none" stroke-linecap="butt"><path d="M291.4106,190.48279l-14.78844,6.91695l-2.29076,-9.93213l3.24146,-0.62269l7.42075,-3.55464z" fill="#8c6200" stroke-width="NaN"/><path d="M280.13515,195.67761l-3.64127,1.45022l-1.77964,-9.62227l3.43756,-0.59926z" fill="#8c0081" stroke-width="NaN"/><path d="M291.53121,190.9199l-9.09525,-6.03336l2.46889,-1.72253l4.20946,0.80392l0.4431,-3.0503l1.47059,-3.13947l1.19089,-0.65582l2.65398,-0.69777z" fill="#8c0081" stroke-width="0"/><g fill="#ffffff" stroke-width="0.5"><path d="M278.93803,192.1052c-0.00045,0.00004 -0.0009,0.00006 -0.00136,0.0001c-0.27303,0.01879 -0.29182,-0.25425 -0.29182,-0.25425c-0.07795,-1.33469 0.94299,-1.95331 1.99231,-1.58923c-0.09234,0.09169 -0.03364,0.22403 -0.03364,0.22403c0.39811,0.89757 0.778,1.7998 1.22697,2.67083c-0.2179,0.41441 -0.51628,0.72565 -0.85105,0.72922c-0.47157,0.00504 -0.96869,-0.34276 -1.3134,-0.60585c-0.42089,-0.37845 -0.56882,-0.71733 -0.72801,-1.17484zM280.20934,192.71898c-0.10363,0.04596 -0.15037,0.16722 -0.10441,0.27084c0.04596,0.10363 0.16722,0.15037 0.27084,0.10441c0.10363,-0.04596 0.15037,-0.16722 0.10441,-0.27084c-0.04596,-0.10363 -0.16722,-0.15037 -0.27084,-0.10441zM279.76928,191.30496c-0.04596,-0.10363 -0.16722,-0.15037 -0.27084,-0.10441c-0.10363,0.04596 -0.15037,0.16722 -0.10441,0.27084c0.04596,0.10362 0.16722,0.15037 0.27084,0.10441c0.10363,-0.04597 0.15038,-0.16722 0.10441,-0.27085z"/><path d="M280.10365,189.32179c-0.1541,-0.34742 0.19333,-0.50153 0.19333,-0.50153l-0.05224,0.06707c0.13538,-0.16069 0.31017,-0.28286 0.5038,-0.37704l-0.01352,-0.01377l0.00907,-0.0089l-0.05607,-0.0986l0.41058,-0.23353c0.01223,-0.00716 0.02499,-0.01371 0.03825,-0.01958c0.19188,-0.08511 0.41643,0.00144 0.50153,0.19333c0.04631,0.10441 0.04178,0.2185 -0.00288,0.31452c0.0061,0.00298 0.00939,0.00482 0.00939,0.00482c0.51801,0.29169 1.00426,0.61999 1.49841,0.93739c0.03353,-0.28254 0.07279,-0.56529 0.11936,-0.84867c0.1283,-0.78081 -0.04085,-1.6491 0.47798,-2.25653c-0.03568,0.04141 -0.12452,0.14453 -0.16217,0.18825l-0.09632,-0.09515l-0.02867,0.04858l-0.34818,-0.20544c-0.06766,-0.03881 -0.12403,-0.09872 -0.15809,-0.17549c-0.0851,-0.19189 0.00144,-0.41643 0.19333,-0.50153c0.03179,-0.0141 0.06447,-0.0235 0.09726,-0.02847l0.37756,-0.06577l0.01164,0.06679c0.31928,-0.0866 0.57902,-0.03577 1.00953,0.18265c0.11131,-0.00247 0.25277,0.03788 0.33678,0.22728c0.15409,0.34743 -0.19333,0.50153 -0.19333,0.50153l-0.38302,0.00357c-0.03788,-0.02225 -0.07594,-0.04071 -0.1137,-0.05647c-0.06138,0.57286 -0.16877,1.37226 -0.18444,1.51393c-0.07291,0.65914 -0.14234,1.31101 -0.20459,1.96226c0.16612,0.09562 0.33517,0.18761 0.50849,0.27432c0.33508,0.16765 0.68519,0.28574 1.03171,0.41561c0.03981,-0.25732 0.12929,-0.52728 0.30769,-0.84772l0.16189,-0.41999c0.03498,-0.09076 0.1046,-0.16817 0.20053,-0.21072c0.19189,-0.0851 0.41643,0.00144 0.50153,0.19333c0.01925,0.04341 0.02973,0.08848 0.03217,0.13323l0.05868,0.749l-0.03013,0.00236c0.14943,0.61857 0.14519,1.14324 -0.05422,2.01259l-0.0641,0.17691c0,0 -0.13672,0.35465 -0.49135,0.21793c-0.03454,-0.01332 -0.06442,-0.0287 -0.09022,-0.04562c-0.03045,0.00745 -0.06435,0.01197 -0.10208,0.01282c-0.37997,0.00861 -0.38859,-0.37136 -0.38859,-0.37136c-0.00565,-0.30298 -0.03066,-0.56052 -0.04899,-0.79771c-0.45102,-0.19191 -0.92282,-0.32071 -1.36627,-0.54169c-0.08142,-0.04057 -0.16194,-0.08239 -0.24171,-0.12527c-0.0497,0.58391 -0.0924,1.16961 -0.12542,1.76187c0.33386,0.10034 0.60795,0.26637 0.64875,0.54542c0.18942,1.29558 -1.82428,0.46086 -2.18221,0.25008l-0.18894,-0.18231c0,0 -0.25606,-0.28088 0.02481,-0.53693c0.01619,-0.01476 0.03229,-0.02771 0.04826,-0.03907c-0.35261,-0.7162 -0.66614,-1.45047 -0.98937,-2.18249c0.05788,0.0344 0.11543,0.07196 0.17245,0.11272c0.08778,0.06273 0.83379,0.58822 0.88797,0.68102c0.16079,0.27547 0.1243,0.83584 -0.04241,1.37005c0.02138,-0.01278 0.0425,-0.02276 0.06321,-0.03033c0.11322,-0.16051 0.3314,-0.15043 0.3314,-0.15043c0.11203,0.00542 0.27919,0.01218 0.46841,0.02929c0.03153,-0.69683 0.06471,-1.38686 0.12257,-2.07588c-0.59412,-0.37311 -1.16814,-0.7743 -1.78479,-1.11628c0,0 -0.03521,-0.01969 -0.07629,-0.05772c-0.10042,0.20099 -0.22298,0.39191 -0.35661,0.5716c0,0 -0.22887,0.30344 -0.53231,0.07457c-0.20535,-0.15489 -0.1669,-0.34392 -0.1206,-0.44995c-0.0315,-0.03231 -0.06036,-0.0744 -0.08446,-0.12876z"/></g></g></g></g></g></svg>