<svg version="1.1" xmlns="http://www.w3.org/2000/svg" xmlns:xlink="http://www.w3.org/1999/xlink" width="487.89666" height="178.46631" viewBox="0,0,487.89666,178.46631"><g transform="translate(-0.01629,-181.23227)"><g data-paper-data="{&quot;isPaintingLayer&quot;:true}" fill-rule="nonzero" stroke="none" stroke-width="0" stroke-linecap="butt" stroke-linejoin="miter" stroke-miterlimit="10" stroke-dasharray="" stroke-dashoffset="0" style="mix-blend-mode: normal"><path d="M0.01629,359.69857v-47.56209h486.82252v47.5621z" fill="#d69b00"/><path d="M0.01629,315.81471v-20.66222h212.83977v20.66222l-21.74443,25.13353l-21.43669,-27.86705l-16.11203,27.06054l-26.89358,-27.71875l-22.8154,18.55532l-28.1088,-15.93977l-27.95798,17.91163l-18.54768,-14.0115l-16.99538,17.92812z" fill="#00d624"/><path d="M212.56948,316.61347v-47.56209h94.18633v47.5621z" fill="#d69b00"/><path d="M212.56948,273.7296v-20.66222h94.35573v20.66222l-9.6397,25.13353l-9.50328,-27.86705l-7.14275,27.06054l-11.92241,-27.71874l-10.11448,18.55532l-12.46114,-15.93977l-12.39428,17.91163l-8.22252,-14.0115l-7.53436,17.92812z" fill="#00d624"/><path d="M306.61203,349.61877v-152.40251h181.30092v152.40253z" fill="#d69b00"/><path d="M306.61203,201.89449v-20.66222h174.627v20.66222l-17.84049,25.13352l-17.58801,-27.86704l-13.21931,27.06054l-22.06517,-27.71875l-18.71917,18.55532l-23.06221,-15.93977l-22.93847,17.91163l-15.21766,-14.01149l-13.94408,17.92812z" fill="#00d624"/></g></g></svg>