<svg version="1.1" xmlns="http://www.w3.org/2000/svg" xmlns:xlink="http://www.w3.org/1999/xlink" width="112.10369" height="261.12651" viewBox="0,0,112.10369,261.12651"><defs><radialGradient cx="213.05917" cy="97.79302" r="14.75678" gradientUnits="userSpaceOnUse" id="color-1"><stop offset="0" stop-color="#b8ffff" stop-opacity="0"/><stop offset="1" stop-color="#b8ffff"/></radialGradient><radialGradient cx="226.23486" cy="96.10653" r="14.75678" gradientUnits="userSpaceOnUse" id="color-2"><stop offset="0" stop-color="#b8ffff" stop-opacity="0"/><stop offset="1" stop-color="#b8ffff"/></radialGradient></defs><g transform="translate(-183.94815,-49.31176)"><g data-paper-data="{&quot;isPaintingLayer&quot;:true}" fill-rule="nonzero" stroke-linejoin="miter" stroke-miterlimit="10" stroke-dasharray="" stroke-dashoffset="0" style="mix-blend-mode: normal"><path d="M207.67744,290.11999l4.42703,-66.30308l60.13388,0.2474l0.73784,66.05568c0,0 -18.75885,11.73037 -28.2891,-0.56879c-5.06955,-6.54245 -0.91454,-40.99433 -4.54474,-40.99433c-2.15737,0 3.06652,35.91621 0.3967,38.3858c-11.25602,10.4118 -32.86161,3.17733 -32.86161,3.17733z" fill="#85785e" stroke="#584f3e" stroke-width="2" stroke-linecap="butt"/><path d="M207.27586,223.66128c0,0 2.76627,-6.72417 3.07559,-13.14613c0.67177,-13.94714 0.79807,-67.27832 0.79807,-67.27832c0,0 16.07875,-4.79595 24.53315,-4.79595c10.52016,0 33.75614,4.79595 33.75614,4.79595c0,0 -0.91312,48.86252 -0.47148,63.64043c0.271,9.06814 2.86946,16.59957 2.86946,16.59957z" fill="#fff400" stroke="#a59c00" stroke-width="2" stroke-linecap="butt"/><path d="M198.02021,102.86896c0,-23.43109 18.99465,-42.42575 42.42575,-42.42575c23.43109,0 42.42575,18.99465 42.42575,42.42575c0,23.43109 -18.99465,42.42575 -42.42575,42.42575c-23.43109,0 -42.42575,-18.99465 -42.42575,-42.42575z" fill="#b2936b" stroke="#856e50" stroke-width="2" stroke-linecap="butt"/><path d="M235.51056,103.43222c0,7.24763 -3.68095,13.123 -8.22163,13.123c-4.54068,0 -8.22164,-5.87536 -8.22164,-13.123c0,-7.24763 3.68095,-13.123 8.22164,-13.123c4.54068,0 8.22163,5.87536 8.22163,13.123z" fill="#ffffff" stroke="#bababa" stroke-width="2" stroke-linecap="butt"/><path d="M220.01594,103.43222c0,7.24763 -3.68095,13.12299 -8.22164,13.12299c-4.54068,0 -8.22163,-5.87536 -8.22163,-13.12299c0,-7.24763 3.68095,-13.123 8.22163,-13.123c4.54068,0 8.22164,5.87536 8.22164,13.123z" fill="#ffffff" stroke="#bababa" stroke-width="2" stroke-linecap="butt"/><path d="M213.5862,94.10382v18.55138" fill="none" stroke="#000000" stroke-width="2" stroke-linecap="round"/><path d="M223.0727,113.07683v-19.50003" fill="none" stroke="#000000" stroke-width="2" stroke-linecap="round"/><path d="M230.24027,89.47768l-11.45497,15.26128l-11.83966,-13.7856" fill="none" stroke="#000000" stroke-width="2" stroke-linecap="round"/><path d="M205.57537,123.51198c0,0 6.75966,-5.12544 12.2071,-5.34459c4.2225,-0.16987 16.33646,1.81017 22.30818,4.85348c1.04206,0.53106 -0.29951,6.02901 -0.29951,6.02901l-34.445,0.24401c0,0 0.66037,-5.75758 0.66037,-5.75758" fill="#000000" stroke="#000000" stroke-width="2" stroke-linecap="round"/><path d="M200.0385,89.85993l4.42703,-20.65949l74.66931,0.14757l1.91838,20.36436c0,0 -6.64595,6.87381 -15.05054,7.1287c-4.18376,0.12688 -8.13731,-6.71443 -13.24702,-6.27432c-2.97258,0.25603 -7.74141,5.26683 -10.66357,5.23889c-8.62913,-0.08253 -15.00382,-6.98687 -21.10032,-6.71381c-2.0821,0.09326 -4.6196,5.75379 -6.04898,5.75639c-7.10754,0.01295 -14.90429,-4.98828 -14.90429,-4.98828z" fill="#000000" stroke="#000000" stroke-width="2" stroke-linecap="butt"/><path d="M219.59431,103.2741c0,8.14995 -4.93153,14.75678 -11.01488,14.75678c-6.08335,0 -11.01488,-6.60684 -11.01488,-14.75678c0,-8.14995 4.93153,-14.75678 11.01488,-14.75678c6.08335,0 11.01488,6.60684 11.01488,14.75678z" fill="url(#color-1)" stroke="#000000" stroke-width="2" stroke-linecap="butt"/><path d="M241.62408,103.0633c0,8.14995 -4.93153,14.75678 -11.01488,14.75678c-6.08335,0 -11.01489,-6.60684 -11.01489,-14.75678c0,-8.14995 4.93154,-14.75678 11.01489,-14.75678c6.08335,0 11.01488,6.60684 11.01488,14.75678z" fill="url(#color-2)" stroke="#000000" stroke-width="2" stroke-linecap="butt"/><path d="M197.38228,84.69506c0,0 -2.15863,-3.30182 -0.52476,-7.16336c1.55106,-3.66583 6.8844,-7.83607 7.40056,-10.16479c1.05524,-4.76086 4.63449,-11.30001 4.63449,-11.30001c0,0 36.34304,-5.75514 46.48386,-5.75514c12.30932,0 22.13517,5.75514 22.13517,5.75514c0,0 4.1319,22.91882 4.1319,28.18545c0,3.18706 -4.1319,0.4427 -4.1319,0.4427z" fill="#fff400" stroke="#a59c00" stroke-width="2" stroke-linecap="butt"/><text transform="translate(205.46224,74.95569) scale(0.36892,0.36892)" font-size="40" xml:space="preserve" fill="#ff9c00" fill-rule="nonzero" stroke="none" stroke-width="1" stroke-linecap="butt" stroke-linejoin="miter" stroke-miterlimit="10" stroke-dasharray="" stroke-dashoffset="0" font-family="Sans Serif" font-weight="normal" text-anchor="start" style="mix-blend-mode: normal"><tspan x="0" dy="0">miner</tspan></text><path d="M269.13957,147.26612c0,0 14.28732,23.84691 17.20426,32.32688c4.75594,13.82619 8.6201,42.74824 8.6201,42.74824c0,0 -7.4223,3.51221 -11.26891,3.88337c-2.87775,0.27768 -9.7595,-1.85431 -9.7595,-1.85431c0,0 -3.35096,3.01984 -3.21598,1.50134c0.10094,-1.13553 -5.82255,0.34325 -5.82255,0.34325c0,0 -0.57971,-4.82229 -1.29822,-5.33962c-0.8081,-0.58183 6.46309,-8.12595 6.46309,-8.12595z" data-paper-data="{&quot;index&quot;:null}" fill="#fff400" stroke="#a59c00" stroke-width="2" stroke-linecap="round"/><path d="M210.59613,198.177l16.048,25.27099h-10.69867l0.73784,-3.13582l-6.64055,-7.56285z" fill="#a59c00" stroke="#a59c00" stroke-width="2" stroke-linecap="round"/><path d="M269.80771,213.3027l-6.64055,7.56285l0.73784,3.13582h-10.69867l16.048,-25.27099z" data-paper-data="{&quot;index&quot;:null}" fill="#a59c00" stroke="#a59c00" stroke-width="2" stroke-linecap="round"/><path d="M232.371,302.97074c0,5.8169 -4.28581,6.71753 -17.92025,6.71753c-13.63444,0 -22.43165,-0.73477 -22.43165,-6.55167c0,-2.78373 1.06403,-3.28109 5.6217,-4.74618c2.64297,-0.8496 4.11636,-3.12698 7.71857,-4.02831c3.16627,-0.79225 7.51998,-5.2411 10.84581,-5.2411c2.27028,0 4.97026,-0.20099 7.05828,0.04381c10.45183,1.22537 9.10754,8.9576 9.10754,13.80592z" fill="#935300" stroke="#603600" stroke-width="1.5" stroke-linecap="butt"/><path d="M256.84959,288.83149c2.08803,-0.2448 4.788,-0.04381 7.05828,-0.04381c3.32583,0 7.67954,4.44885 10.84581,5.2411c3.60222,0.90133 5.0756,3.17871 7.71857,4.02831c4.55767,1.4651 5.6217,1.96246 5.6217,4.74619c0,5.8169 -8.79721,6.55167 -22.43165,6.55167c-13.63445,0 -17.92025,-0.90063 -17.92025,-6.71753c0,-4.84832 -1.34429,-12.58055 9.10754,-13.80592z" data-paper-data="{&quot;index&quot;:null}" fill="#935300" stroke="#603600" stroke-width="1.5" stroke-linecap="butt"/><path d="M270.04861,227.91223c0,2.62336 -3.13401,4.75 -7,4.75c-3.86599,0 -7,-2.12664 -7,-4.75c0,-2.62336 3.13401,-4.75 7,-4.75c3.86599,0 7,2.12664 7,4.75z" fill="#b2936b" stroke="#856e50" stroke-width="2" stroke-linecap="butt"/><path d="M209.93814,210.24932c0,0 7.27119,7.54412 6.46309,8.12595c-0.71851,0.51733 -1.29822,5.33962 -1.29822,5.33962c0,0 -5.92349,-1.47878 -5.82255,-0.34325c0.13498,1.5185 -3.21598,-1.50134 -3.21598,-1.50134c0,0 -6.88175,2.13199 -9.7595,1.85431c-3.84661,-0.37116 -11.26891,-3.88337 -11.26891,-3.88337c0,0 3.86416,-28.92205 8.6201,-42.74824c2.91694,-8.47997 17.20426,-32.32688 17.20426,-32.32688z" data-paper-data="{&quot;index&quot;:null}" fill="#fff400" stroke="#a59c00" stroke-width="2" stroke-linecap="round"/><path d="M219.04861,228.41223c0,2.62336 -3.13401,4.75 -7,4.75c-3.86599,0 -7,-2.12664 -7,-4.75c0,-2.62336 3.13401,-4.75 7,-4.75c3.86599,0 7,2.12664 7,4.75z" fill="#b2936b" stroke="#856e50" stroke-width="2" stroke-linecap="butt"/></g></g></svg>