<svg version="1.1" xmlns="http://www.w3.org/2000/svg" xmlns:xlink="http://www.w3.org/1999/xlink" width="63.54361" height="99.70818" viewBox="0,0,63.54361,99.70818"><g transform="translate(-237.25985,-80.28559)"><g data-paper-data="{&quot;isPaintingLayer&quot;:true}" fill-rule="nonzero" stroke-linejoin="miter" stroke-miterlimit="10" stroke-dasharray="" stroke-dashoffset="0" style="mix-blend-mode: normal"><path d="M239.75985,91.07711v86.41667" fill="none" stroke="#4e4e4e" stroke-width="5" stroke-linecap="round"/><path d="M240.21819,127.20211v-36.33333c0,0 12.54433,8.66667 18.33333,8.66667c19.60697,0 15.1781,-17.1979 28.19837,-18.39788c13.77315,-1.26937 13.30163,9.73121 13.30163,9.73121v36.33333c0,0 -4.21063,-17.5 -13.5,-17.5c-14.15954,0 -15.9424,26.99533 -27.96768,27.05409c-15.72721,0.07684 -18.36565,-9.55409 -18.36565,-9.55409z" fill="#cacaca" stroke="#4e4e4e" stroke-width="1.5" stroke-linecap="butt"/><g stroke-width="0.5" stroke-linecap="butt"><path d="M263.90308,107.91787l0.19576,-0.8989l6.90381,5.40883l-0.92356,-0.1928c0,0 -2.97222,-0.92941 -4.04389,-1.67853c-0.97851,-0.68399 -2.13212,-2.6386 -2.13212,-2.6386z" fill="#373737" stroke="#000000"/><path d="M271.9162,115.28977l-3.89892,-2.97433c0,0 -0.12539,-1.03293 0.59848,-1.1463c1.51451,-0.23721 7.54472,-0.63241 7.54472,-0.63241l1.0917,2.13141c0,0 -0.53395,2.57655 -1.37456,3.08091c-0.96237,0.57742 -3.96141,-0.45929 -3.96141,-0.45929z" fill="#373737" stroke="#000000"/><path d="M259.733,105.44214c0,0 0.50801,-1.52316 1.03048,-2.03091c0.67053,-0.65164 2.97242,-1.5561 2.97242,-1.5561l2.33935,0.20794l-1.66354,4.7307c0,0 -1.5193,-0.381 -2.7252,-0.65301c-1.08628,-0.24502 -1.95351,-0.69861 -1.95351,-0.69861z" fill="#373737" stroke="#000000"/><path d="M275.90779,99.23318c-0.45708,1.14859 -1.00135,2.61734 -1.00135,2.61734l-4.84295,-1.30101l1.15048,-2.04749c0,0 2.04704,-1.38793 2.96358,-1.57286c0.71416,-0.1441 2.25786,0.29758 2.25786,0.29758c0,0 -0.11588,0.9718 -0.52762,2.00646z" data-paper-data="{&quot;index&quot;:null}" fill="#373737" stroke="#000000"/><path d="M263.83987,107.26164l1.40361,-5.71842c0,0 1.7098,-1.00365 3.26365,-1.30638c1.49571,-0.2914 2.80876,0.10864 4.24213,0.55671c1.44727,0.45241 2.49502,1.91153 3.16992,2.46523c2.19592,1.80155 2.89255,7.38194 2.89255,7.38194c0,0 -3.34319,-0.01265 -4.3415,0.25154c-1.45912,0.38614 -3.56814,1.84168 -3.56814,1.84168c0,0 -2.00612,-2.02458 -2.74007,-2.2736c0,0 -1.5365,-0.67544 -2.11167,-1.1011c-0.79386,-0.58751 -2.2105,-2.09759 -2.2105,-2.09759z" fill="#949494" stroke="#000000"/><path d="M270.18212,110.01688c0,0 -2.50713,-0.57498 -3.87997,-2.04514c-0.80814,-0.86543 -0.67969,-2.61858 -0.87472,-3.19669c-0.2827,-0.83801 0.59456,-2.49268 1.84349,-3.38779c1.24893,-0.89511 2.35941,-1.04389 3.89892,-0.7278c1.53951,0.31609 3.53678,1.42819 4.59678,2.47213c1.20798,1.18967 2.26532,4.28601 2.26532,4.28601l-2.85273,1.10034l0.01492,1.0286c0,0 -1.07613,0.18922 -1.52159,0.33673c-0.44909,0.1487 -0.52992,-0.77014 -0.52992,-0.77014z" fill="#000000" stroke="#000000"/><g fill="#00ff0d" stroke="none"><path d="M272.00149,102.20971c0.3787,0 1.15153,0.13726 1.6604,0.36476c0.62923,0.2813 0.96487,0.70055 0.96487,1.16882c0,0 -0.31253,0.78943 -1.1906,0.55215c-3.64421,-0.98476 -1.43467,-2.08573 -1.43467,-2.08573z"/><path d="M274.77294,102.44578c-0.13211,0.19816 -0.33027,0.06605 -0.33027,0.06605l-0.24275,-0.20832c-0.3632,-0.90739 -1.62091,-1.36633 -2.53634,-1.36324c0,0 -0.23816,0 -0.23816,-0.23816c0,-0.23816 0.23816,-0.23816 0.23816,-0.23816c1.14768,0.00333 2.48645,0.56729 2.97414,1.65193l0.06916,-0.00037c0,0 0.19816,0.13211 0.06605,0.33027z"/><path d="M270.41592,104.4191c-0.09516,0.65241 -0.67122,1.07354 -1.63821,1.24003c-0.20448,0.03521 -0.99876,1.38575 -1.74539,0.72497c-0.50221,-0.44446 1.00505,-1.27575 0.77801,-1.38567c-0.63452,-0.4054 -1.03957,1.37483 -1.55325,0.82429c0,0 -0.05203,-1.62213 2.45601,-2.11815c1.11202,-0.21992 1.75842,0.33347 1.70284,0.71454z"/></g><g fill="#373737" stroke="#000000"><path d="M268.02886,112.84138l-1.30837,-1.96081l0.90994,-0.72985c0,0 1.0529,0.60198 1.33518,0.95087c0.21964,0.27147 0.21824,0.9691 0.21824,0.9691z"/><path d="M266.77478,112.24185c-0.36625,-0.54888 -0.40459,-1.16636 -0.08565,-1.37918c0.31894,-0.21282 0.8744,0.05961 1.24065,0.60849c0.36625,0.54888 0.40459,1.16636 0.08565,1.37918c-0.31894,0.21282 -0.8744,-0.05961 -1.24065,-0.60849z"/></g><path d="M275.64332,110.51603c0.18319,-0.18319 0.36638,0 0.36638,0l0.00398,0.00896c0.91408,0.65368 2.18836,2.16671 1.34219,3.35934c-0.54345,0.76597 -2.0193,1.13711 -2.8747,1.1334c-0.48936,-0.10678 -1.23295,-0.18332 -1.59528,-0.56455c-0.12634,-0.13293 -0.12355,-0.53171 -0.2943,-0.46482c-0.41067,0.16088 0.0167,0.6907 -0.74458,0.66352c-0.08583,-0.00307 -0.50355,-0.47807 -0.61159,-0.56937c-0.49783,-0.4207 -0.86228,-1.44563 -1.23977,-2.00388c0,0 -0.00918,-0.01377 0.20638,-0.15747c0.21556,-0.14371 0.49379,0.44181 0.49379,0.44181c0.33735,0.5153 0.41392,0.93414 0.86809,1.31884c0.14442,0.12233 0.15947,0.39704 0.33963,0.45502c0.13936,0.04485 0.11051,-0.27921 0.21221,-0.38451c0.10412,-0.10782 0.21278,-0.24245 0.36029,-0.26905c0.62373,-0.11249 0.54218,0.32896 0.80327,0.63275c0.22537,0.26223 0.94012,0.31436 1.25839,0.38667c0.58096,-0.00299 0.88053,-0.16669 1.41318,-0.38589c0.32978,-0.13571 0.74961,-0.20991 0.98043,-0.5295c0.66246,-0.91725 -0.56231,-2.17235 -1.2188,-2.64068l-0.06919,-0.06421c0,0 -0.18319,-0.18319 0,-0.36638z" fill="#000000" stroke="none"/></g></g></g></svg>