<svg version="1.1" xmlns="http://www.w3.org/2000/svg" xmlns:xlink="http://www.w3.org/1999/xlink" width="51.75153" height="32.3369" viewBox="0,0,51.75153,32.3369"><g transform="translate(-217.42353,-172.61871)"><g data-paper-data="{&quot;isPaintingLayer&quot;:true}" fill-rule="nonzero" stroke-linejoin="miter" stroke-miterlimit="10" stroke-dasharray="" stroke-dashoffset="0" style="mix-blend-mode: normal"><path d="M246.53629,187.16723c0,0 3.13664,-5.38207 7.8694,-7.25065c5.18937,-2.04887 7.4965,-4.98892 7.4965,-4.98892l5.69027,27.33254c0,0 -4.17329,-3.61786 -10.46346,-4.91038c-3.96161,-0.81404 -9.87759,-4.80283 -9.87759,-4.80283z" fill="#ffffff" stroke="#9e9e9e" stroke-width="2" stroke-linecap="butt"/><path d="M218.82517,184.7999l9.22513,4.87849l17.9294,-2.13456l1.00485,4.93657l-17.51909,2.28378l-7.04292,7.70865z" fill="#ffffff" stroke="#9e9e9e" stroke-width="2" stroke-linecap="butt"/><path d="M236.6541,189.54302l13.44775,-1.75305l0.6833,3.35687l-13.44775,1.75305z" fill="#ffffff" stroke="none" stroke-width="0" stroke-linecap="butt"/><path d="M236.8512,193.80443l-4.30678,-1.66759l3.50517,-1.81906l-2.84088,-1.34387" fill="none" stroke="#9e9e9e" stroke-width="1.5" stroke-linecap="round"/><path d="M252.50295,195.21363l3.19715,-2.3477l-5.11396,-4.14893l6.42955,-2.07744l-2.88171,-2.95652l3.86886,-4.60482" fill="none" stroke="#9e9e9e" stroke-width="1.5" stroke-linecap="round"/><path d="M220.29764,186.78808l4.30864,3.57871l-0.23937,2.79615l4.67047,-1.11817l-1.9836,5.56706" fill="none" stroke="#9e9e9e" stroke-width="1.5" stroke-linecap="round"/><path d="M242.982,187.27661l3.89485,1.93488l-4.34946,1.54732l8.43543,1.81163l-2.74068,0.77663l-0.85171,-1.17756" fill="none" stroke="#9e9e9e" stroke-width="1.5" stroke-linecap="round"/><path d="M262.58427,194.04497l-4.57028,-3.50001l4.00989,-0.87167l-3.29364,-2.68923l5.11395,-2.58975" fill="none" stroke="#9e9e9e" stroke-width="1.5" stroke-linecap="round"/><path d="M262.39316,199.35959l-5.08056,-3.4421l4.15277,-1.96607" fill="none" stroke="#9e9e9e" stroke-width="1.5" stroke-linecap="round"/></g></g></svg>