<svg version="1.1" xmlns="http://www.w3.org/2000/svg" xmlns:xlink="http://www.w3.org/1999/xlink" width="108.38727" height="101.22933" viewBox="0,0,108.38727,101.22933"><g transform="translate(-180.94623,-132.0998)"><g data-paper-data="{&quot;isPaintingLayer&quot;:true}" fill-rule="nonzero" stroke-linejoin="miter" stroke-miterlimit="10" stroke-dasharray="" stroke-dashoffset="0" style="mix-blend-mode: normal"><g data-paper-data="{&quot;index&quot;:null}"><g><path d="M266.5333,208.74343l-3.15488,-5.03075l4.22583,-2.6501l3.15488,5.03075z" fill="#000000" stroke="none" stroke-width="0" stroke-linecap="butt"/><path d="M288.08588,229.46601c0,0 0.07825,1.26575 -0.9562,1.3386c-2.71067,0.1909 -15.90816,-0.15097 -15.90816,-0.15097l-9.9761,-14.4891c0,0 7.01669,-2.18114 9.74102,-3.31952c1.05692,-0.44164 8.0137,8.73896 8.80524,8.70022c0.82275,-0.04027 -1.60082,2.84679 -1.52667,3.65287c0.08371,0.91014 2.63353,-0.2451 3.17013,-0.2451c1.5119,0 4.27547,0.47505 4.27547,0.47505l2.37526,4.03795z" fill="#949494" stroke="#000000" stroke-width="2.5" stroke-linecap="butt"/><path d="M259.58273,215.21443l5.70063,-8.55094l2.9246,-0.58112l2.44228,0.83612l1.52138,2.35779l-0.23753,3.32537z" fill="#242424" stroke="#000000" stroke-width="2.5" stroke-linecap="butt"/><path d="M266.47098,213.78928l-1.90021,-0.9501l-0.71258,-2.13774" fill="none" stroke="#000000" stroke-width="2.5" stroke-linecap="round"/><path d="M276.44708,230.29735l1.90021,-5.70063" fill="none" stroke="#000000" stroke-width="2.5" stroke-linecap="round"/></g><g stroke="none" stroke-linecap="butt"><path d="M272.68364,229.97299l-10.16992,-12.77164l9.12586,-4.54021l1.36026,3.00741l5.18466,6.38923z" fill="#8c6200" stroke-width="NaN"/><path d="M265.00641,220.21685l-2.25813,-3.20357l8.94351,-3.971l1.38313,3.20357z" fill="#8c0081" stroke-width="NaN"/><path d="M272.28661,230.19205l3.75,-10.25l2.25,2l0.19822,4.28095l3.06964,-0.27925l3.39558,0.69924l0.91506,1.00548l1.2965,2.41859z" fill="#8c0081" stroke-width="0"/><g fill="#ffffff" stroke-width="0.5"><path d="M268.20193,218.2209c-0.00014,-0.00043 -0.00027,-0.00086 -0.00041,-0.0013c-0.08184,-0.26115 0.17932,-0.34299 0.17932,-0.34299c1.27986,-0.38655 2.11918,0.46231 2.00941,1.56755c-0.11067,-0.06846 -0.22571,0.01944 -0.22571,0.01944c-0.78022,0.59614 -1.56921,1.17565 -2.31177,1.81508c-0.45375,-0.11543 -0.82591,-0.33315 -0.90732,-0.65789c-0.11469,-0.45744 0.10781,-1.02187 0.28341,-1.41836c0.27006,-0.49744 0.56518,-0.7202 0.97306,-0.98153zM267.90101,219.60017c-0.06882,-0.09008 -0.19763,-0.10731 -0.28771,-0.03848c-0.09008,0.06882 -0.10731,0.19763 -0.03848,0.28771c0.06882,0.09008 0.19763,0.10731 0.28771,0.03848c0.09008,-0.06882 0.10731,-0.19763 0.03848,-0.28771zM269.17371,218.84299c0.09008,-0.06882 0.10731,-0.19763 0.03848,-0.28771c-0.06882,-0.09008 -0.19763,-0.10731 -0.28771,-0.03848c-0.09007,0.06882 -0.10731,0.19763 -0.03848,0.28771c0.06883,0.09008 0.19764,0.10731 0.28772,0.03848z"/><path d="M271.18023,218.70645c0.302,-0.23075 0.53276,0.07125 0.53276,0.07125l-0.07739,-0.03519c0.18779,0.09425 0.3473,0.23579 0.48397,0.40217l0.01024,-0.01635l0.01077,0.00675l0.08284,-0.07749l0.3227,0.34493c0.00981,0.01023 0.01915,0.02111 0.02795,0.03264c0.12744,0.16679 0.09555,0.40532 -0.07125,0.53276c-0.09076,0.06935 -0.20277,0.0915 -0.30655,0.07043c-0.00148,0.00663 -0.0025,0.01025 -0.0025,0.01025c-0.16307,0.57169 -0.36914,1.12101 -0.56277,1.67548c0.28258,-0.03317 0.5667,-0.06082 0.85314,-0.08151c0.78922,-0.05701 1.59427,-0.42367 2.3058,-0.06052c-0.04858,-0.02506 -0.16955,-0.08745 -0.22083,-0.11389l0.07011,-0.11583l-0.05392,-0.01657l0.11873,-0.38644c0.02199,-0.07484 0.06713,-0.14361 0.13386,-0.1946c0.1668,-0.12744 0.40532,-0.09555 0.53276,0.07125c0.02111,0.02763 0.03786,0.05723 0.05033,0.08796l0.15187,0.35187l-0.06224,0.02687c0.15855,0.29034 0.16959,0.55478 0.05741,1.02431c0.02832,0.10768 0.02201,0.25464 -0.14263,0.38044c-0.30201,0.23075 -0.53276,-0.07125 -0.53276,-0.07125l-0.09265,-0.37166c0.01282,-0.04202 0.02191,-0.08333 0.02845,-0.12372c-0.57141,0.07368 -1.37384,0.15536 -1.51527,0.1731c-0.658,0.08255 -1.30812,0.1668 -1.95597,0.25789c-0.05432,0.18382 -0.10442,0.36964 -0.1484,0.55838c-0.08503,0.3649 -0.11836,0.73289 -0.16399,1.10012c0.25952,-0.02119 0.54289,0.00298 0.89606,0.10187l0.44614,0.05966c0.09641,0.01289 0.1879,0.06257 0.25162,0.14596c0.12744,0.1668 0.09555,0.40532 -0.07125,0.53276c-0.03773,0.02883 -0.07913,0.04951 -0.12208,0.06231l-0.71476,0.23145l-0.00931,-0.02875c-0.56678,0.28934 -1.07802,0.40737 -1.96991,0.41584l-0.18697,-0.02115c0,0 -0.37673,-0.05039 -0.32634,-0.42711c0.00491,-0.03669 0.01291,-0.06933 0.02336,-0.09836c-0.01433,-0.02788 -0.02662,-0.0598 -0.03623,-0.09629c-0.09684,-0.36752 0.27068,-0.46437 0.27068,-0.46437c0.29334,-0.07604 0.53798,-0.16032 0.76438,-0.23337c0.08163,-0.48331 0.09705,-0.97213 0.20871,-1.45484c0.0205,-0.08863 0.04242,-0.17667 0.06555,-0.26423c-0.57944,0.08761 -1.15898,0.18245 -1.74265,0.28822c-0.01985,0.34805 -0.11751,0.65326 -0.37939,0.75791c-1.21588,0.48585 -0.87293,-1.66685 -0.75127,-2.06402l0.13331,-0.22619c0,0 0.21354,-0.31442 0.52795,-0.10088c0.01812,0.01231 0.03447,0.02495 0.04923,0.03784c0.61442,-0.50967 1.25552,-0.98553 1.89217,-1.47031c-0.01998,0.0643 -0.04311,0.12901 -0.06947,0.19395c-0.04057,0.09997 -0.37793,0.94783 -0.45557,1.02212c-0.23046,0.22051 -0.78393,0.31548 -1.34227,0.27773c0.01741,0.01782 0.03203,0.03603 0.04421,0.05441c0.18246,0.07274 0.22345,0.28727 0.22345,0.28727c0.02081,0.11021 0.05315,0.27435 0.08057,0.46236c0.68502,-0.13157 1.36381,-0.25996 2.04737,-0.36411c0.22453,-0.66466 0.48106,-1.31631 0.67007,-1.99564c0,0 0.01095,-0.03883 0.03837,-0.08763c-0.21885,-0.05087 -0.43306,-0.12561 -0.63892,-0.21373c0,0 -0.34839,-0.15193 -0.19645,-0.50032c0.10282,-0.23577 0.29561,-0.24239 0.40951,-0.22204c0.02409,-0.03816 0.0583,-0.07602 0.10556,-0.11212z"/></g></g></g><path d="M257.78299,206.33781l-8.45099,-12.69182c0,0 -2.64129,-4.83713 -1.67057,-6.54801c0.55108,-0.97129 2.09912,-4.53219 3.71994,-5.83134c2.02963,-1.62681 4.89618,-0.56477 6.08426,-0.72167c0.51875,-0.06851 3.63141,2.99115 3.63141,2.99115c0,0 1.55893,3.0649 2.59089,5.09375c1.53161,3.01118 5.70723,11.22053 5.70723,11.22053z" data-paper-data="{&quot;index&quot;:null}" fill="#949494" stroke="#000000" stroke-width="2.5" stroke-linecap="butt"/><g data-paper-data="{&quot;index&quot;:null}" fill="#949494" stroke="#000000" stroke-width="2"><path d="M220.15946,232.16578c0,0 -11.98909,-6.55279 -12.90271,-13.90068c-0.32841,-2.64131 -0.62687,-2.67259 -1.25582,-7.04418c-0.22654,-1.57463 -0.34981,-3.25656 -0.59382,-5.16393c-0.65436,-5.11481 -1.39237,-10.60727 -1.39237,-10.60727c0,0 11.99667,-5.04162 15.80516,-7.4446c0.36773,-0.23201 18.46703,-11.09183 18.83668,-11.32838c9.04737,-5.78986 5.99863,-4.06064 5.99863,-4.06064c0,0 2.49598,-5.4187 4.03622,-6.02355c2.95774,-1.16148 3.73463,-5.50605 8.17399,-1.62268c2.08657,1.82524 2.09339,2.16969 4.33748,5.0633c3.27586,4.22405 7.81407,10.9667 9.16612,16.48709c1.81966,7.42959 -0.16826,13.22934 -0.16826,13.22934z" stroke-linecap="butt"/><path d="M239.30602,218.96163c0,0 2.95228,-12.46948 -2.34646,-20.20962c-2.59725,-3.43944 -11.3199,-8.31343 -11.3199,-8.31343l-6.07671,-2.06382l5.09381,1.84142c0,0 3.21771,-2.58676 4.98104,-4.00432c1.99651,-1.60502 6.38557,-5.13344 6.38557,-5.13344l-1.08812,-1.27943" stroke-linecap="round"/><path d="M248.7292,178.9596c0,0 2.91045,-1.23 6.03932,-1.2645c3.81345,-0.04206 8.12088,1.31212 10.0111,4.05818c1.8749,2.72381 3.74139,7.19745 2.95576,11.15629c-0.96943,4.88501 -5.01595,9.11365 -6.51812,9.83544c-4.0735,1.95735 -11.53775,-2.95107 -12.82074,-4.45222c-3.53386,-4.13476 -5.11137,-11.17396 -4.98782,-12.75651c0.23038,-2.95073 5.32051,-6.57668 5.32051,-6.57668" stroke-linecap="round"/><path d="M213.3141,216.75181c-2.62095,-4.15396 -1.4595,-8.16905 1.0824,-11.79316c0.78467,-1.11876 2.61756,-3.46062 3.83446,-4.22841c5.1589,-3.25501 11.0646,-1.38156 14.49463,4.05473c3.43003,5.43628 1.93283,13.66575 -3.22608,16.92076c-5.15892,3.25503 -12.75538,0.48236 -16.18539,-4.95392z" stroke-linecap="butt"/></g><g data-paper-data="{&quot;index&quot;:null}" stroke="#000000" stroke-width="2" stroke-linecap="round"><path d="M182.16251,201.45564c0,0 8.79023,-4.38911 14.58764,-4.59139c2.49349,-0.08701 5.53726,0.44375 6.76238,1.37754c1.42244,1.08419 0.80381,2.61608 0.48793,2.85025c-2.13058,1.57948 -7.22994,2.73872 -9.45711,2.81416c-3.90392,0.13225 -12.59712,-2.35237 -12.59712,-2.35237" fill="#d8d8d8"/><path d="M198.81463,196.76445l0.94101,6.09432" fill="none"/></g><path d="M274.86103,180.15166l-8.52399,12.64291c0,0 -3.4691,4.28247 -5.4206,4.03538c-1.10789,-0.14027 -4.98996,-0.2177 -6.80791,-1.22263c-2.27648,-1.25841 -2.38445,-4.31346 -2.98141,-5.35258c-0.26065,-0.45371 1.38528,-4.49612 1.38528,-4.49612c0,0 2.2417,-2.60743 3.72561,-4.33345c2.20241,-2.56173 8.20677,-9.54576 8.20677,-9.54576z" data-paper-data="{&quot;index&quot;:null}" fill="#949494" stroke="#000000" stroke-width="2.5" stroke-linecap="butt"/><g data-paper-data="{&quot;index&quot;:null}"><g><path d="M243.59165,217.16097l-4.00431,-4.38489l3.68331,-3.36361l4.00431,4.38489z" data-paper-data="{&quot;index&quot;:null}" fill="#000000" stroke="none" stroke-width="0" stroke-linecap="butt"/><path d="M255.84612,211.18465l3.7773,3.26636l3.96778,2.57971l1.27289,4.29706l1.57559,-3.01386l2.33902,-1.3231l1.2965,-1.11932l2.44091,-0.80184l0.12848,3.97959l-3.12457,9.48606l-1.2965,1.11932l-3.05077,2.11163l-9.44766,-2.37443l-5.58475,-9.19069z" fill="#949494" stroke="#000000" stroke-width="2.5" stroke-linecap="round"/><path d="M249.16134,220.17605l-4.47575,-0.74865l-1.42499,-2.86029l0.95243,-3.43323l4.55106,-2.18842l5.44147,-0.95541l1.64057,1.19462z" fill="#242424" stroke="#000000" stroke-width="2.5" stroke-linecap="round"/><path d="M247.82346,211.67049l2.5812,0.46956l2.02303,4.25866" fill="none" stroke="#000000" stroke-width="2.5" stroke-linecap="round"/></g><g stroke="none" stroke-linecap="butt"><path d="M262.75031,230.61206l-5.70728,-1.01778l-5.71605,-10.40763l4.50416,-6.3887l6.78094,4.54445l2.051,5.75671z" fill="#8c6200" stroke-width="NaN"/><path d="M251.89528,223.89301l-0.6685,-5.36585l4.56742,-6.06838l2.36024,2.07326z" fill="#8c0081" stroke-width="NaN"/><path d="M272.18948,219.4974l-4.24265,10.50361l-5.72102,-0.41962l1.98747,-7.04845l2.11735,-2.59819l1.5815,-3.0851l1.2135,-0.61297l2.67715,-0.60279z" fill="#8c0081" stroke-width="0"/><g fill="#ffffff" stroke-width="0.5"><path d="M255.75584,218.67526c-0.00016,-0.00042 -0.00033,-0.00084 -0.0005,-0.00127c-0.10123,-0.25426 0.15302,-0.3555 0.15302,-0.3555c1.24717,-0.48169 2.14795,0.30167 2.12159,1.41202c-0.11551,-0.05995 -0.22361,0.03634 -0.22361,0.03634c-0.7332,0.65312 -1.47637,1.29032 -2.16876,1.98377c-0.46115,-0.08099 -0.84862,-0.27012 -0.95422,-0.58782c-0.14875,-0.44753 0.03068,-1.02707 0.17597,-1.43565c0.23189,-0.51633 0.50942,-0.76064 0.89651,-1.05192zM255.54275,220.36303c0.08464,-0.0754 0.09214,-0.20514 0.01674,-0.28978c-0.0754,-0.08465 -0.20515,-0.09213 -0.2898,-0.01674c-0.08465,0.0754 -0.09214,0.20514 -0.01674,0.28978c0.0754,0.08464 0.20514,0.09214 0.28978,0.01674zM256.77167,219.22251c0.08465,-0.0754 0.09212,-0.20516 0.01672,-0.2898c-0.0754,-0.08465 -0.20514,-0.09215 -0.28979,-0.01675c-0.08465,0.0754 -0.09213,0.20515 -0.01674,0.2898c0.0754,0.08464 0.20514,0.09214 0.28978,0.01674z"/><path d="M258.76223,218.93549c0.28381,-0.25282 0.53661,0.03099 0.53661,0.03099l-0.07981,-0.02927c0.19435,0.07987 0.36405,0.20901 0.51283,0.36464l0.00898,-0.01706l0.01125,0.00592l0.07677,-0.0835l0.34772,0.31969c0.01055,0.00946 0.02068,0.01961 0.03032,0.03045c0.13963,0.15674 0.12577,0.39699 -0.03099,0.53661c-0.08528,0.07598 -0.19532,0.10649 -0.30038,0.09328c-0.00097,0.00672 -0.00171,0.01042 -0.00171,0.01042c-0.11962,0.58233 -0.28379,1.14559 -0.4352,1.71305c0.27927,-0.05434 0.56053,-0.10326 0.84459,-0.14543c0.78271,-0.1162 1.55791,-0.54234 2.29473,-0.23371c-0.05034,-0.02133 -0.17565,-0.07444 -0.22877,-0.09697l0.0612,-0.12077l-0.05501,-0.01246l0.08934,-0.39427c0.01629,-0.07628 0.05615,-0.14825 0.11885,-0.20412c0.15675,-0.13962 0.397,-0.12575 0.53661,0.03101c0.02313,0.02596 0.04205,0.05422 0.05681,0.08392l0.17791,0.33946l-0.06005,0.03147c0.17993,0.27761 0.21083,0.54045 0.13427,1.0171c0.03635,0.10524 0.0411,0.25227 -0.1136,0.39008c-0.28381,0.25282 -0.53662,-0.03098 -0.53662,-0.03098l-0.12033,-0.36364c0.00963,-0.04287 0.01557,-0.08474 0.01907,-0.12551c-0.56425,0.11643 -1.35826,0.25821 -1.49796,0.28654c-0.64993,0.13179 -1.29188,0.26469 -1.93105,0.40423c-0.04035,0.18738 -0.07634,0.37643 -0.106,0.56796c-0.05735,0.37026 -0.06293,0.73972 -0.08081,1.10934c0.25719,-0.04065 0.54158,-0.03785 0.90119,0.0342l0.44936,0.02594c0.0971,0.0056 0.19206,0.04826 0.26188,0.12662c0.13963,0.15675 0.12575,0.397 -0.03098,0.53662c-0.03546,0.03158 -0.07518,0.05531 -0.11705,0.0713l-0.69534,0.28454l-0.01145,-0.02797c-0.54342,0.33112 -1.04433,0.48728 -1.93307,0.56276l-0.18803,-0.00703c0,0 -0.37944,-0.02192 -0.35753,-0.40136c0.00214,-0.03695 0.00766,-0.07012 0.0159,-0.09984c-0.01639,-0.02674 -0.03104,-0.05763 -0.04336,-0.0933c-0.1242,-0.3592 0.235,-0.48341 0.235,-0.48341c0.28678,-0.09788 0.52439,-0.20032 0.74466,-0.29018c0.04506,-0.48809 0.0237,-0.97668 0.09873,-1.46642c0.01376,-0.08992 0.02901,-0.17937 0.04551,-0.26842c-0.57121,0.13094 -1.14197,0.26907 -1.71605,0.41843c0.00638,0.34856 -0.06807,0.66026 -0.32134,0.78429c-1.17591,0.57591 -0.99579,-1.59648 -0.90433,-2.00169l0.11592,-0.23558c0,0 0.1893,-0.3296 0.51888,-0.14029c0.01899,0.0109 0.03626,0.02228 0.05195,0.03403c0.57436,-0.55443 1.17787,-1.07715 1.77627,-1.60842c-0.01511,0.06562 -0.03329,0.13187 -0.0547,0.19861c-0.03294,0.10273 -0.30559,0.97357 -0.37743,1.05348c-0.21322,0.23721 -0.75799,0.37353 -1.31758,0.37787c0.0187,0.01646 0.03465,0.0335 0.04818,0.05094c0.18741,0.05881 0.24441,0.26965 0.24441,0.26965c0.02904,0.10833 0.07361,0.26958 0.1151,0.45499c0.6732,-0.1827 1.34041,-0.36176 2.0142,-0.51702c0.17391,-0.67966 0.38072,-1.34875 0.51812,-2.04037c0,0 0.00801,-0.03956 0.03167,-0.09026c-0.22205,-0.03427 -0.44127,-0.09267 -0.65318,-0.16507c0,0 -0.35883,-0.12531 -0.23351,-0.48413c0.08481,-0.24282 0.27656,-0.26393 0.39166,-0.25219c0.02116,-0.03987 0.05243,-0.08019 0.09683,-0.11975z"/></g></g></g><path d="M222.2686,201.01313l17.12038,-2.65995l2.93586,10.88935l-0.35642,1.55625l-14.85144,4.84916l-6.94857,-0.14261l-3.48772,-4.12525l-0.09585,-5.38757l1.763,-2.85929z" data-paper-data="{&quot;index&quot;:null}" fill="#949494" stroke="#000000" stroke-width="2.5" stroke-linecap="round"/><path d="M251.64783,166.10737c0,0 0.3952,-1.48582 0.03753,-2.61252c-0.31992,-1.00775 -2.08293,-3.83073 -2.08293,-3.83073c0,0 -4.78002,-3.43314 -4.40735,-6.78062c0.0423,-0.37999 1.61006,-8.64607 6.47684,-13.26561c3.47855,-3.30185 10.48449,-3.5524 11.38334,-3.17406c0.6948,0.29245 5.08614,0.80017 9.13223,2.67134c5.70208,2.637 10.96631,6.57672 10.96631,6.57672l-2.20213,13.58697l-20.88551,-0.41463l0.60674,7.37279z" fill="#949494" stroke="#000000" stroke-width="2.5" stroke-linecap="butt"/><path d="M282.24253,153.00647l-13.02506,-2.80016l-3.27726,-3.37279l-3.18174,-10.02283l11.1114,3.72287l8.71592,5.11377z" fill="#000000" stroke="#000000" stroke-width="2.5" stroke-linecap="round"/><path d="M264.96631,148.48237l1.66251,0.02388" fill="none" stroke="#000000" stroke-width="2.5" stroke-linecap="round"/><path d="M263.98219,150.84378l2.3716,0.27162" fill="none" stroke="#000000" stroke-width="2.5" stroke-linecap="round"/><path d="M264.65716,153.46652l-1.4216,-0.25798" fill="none" stroke="#000000" stroke-width="2.5" stroke-linecap="round"/><path d="M279.29852,159.252c0,0 -12.48466,-0.57535 -18.91981,-0.10446c-1.58332,0.11586 -0.24078,1.97606 -1.22663,1.97279c-8.73479,-0.02886 -9.60963,-2.08914 -10.40296,-3.09206c-1.9704,-2.49097 -4.11529,-5.81226 -3.99991,-6.39465c0.14836,-0.74889 1.90484,-2.48642 1.90484,-2.48642l3.90181,1.5913l5.43524,1.97848l5.68298,1.26939l9.97166,0.3808l8.01365,4.39103" fill="#373737" stroke="#000000" stroke-width="2.5" stroke-linecap="round"/><path d="M277.18566,167.11683l-1.8945,1.71914l-11.10352,-5.40999l-2.14075,-1.57148l0.18626,-2.55144l1.25936,-1.50016l1.69188,-0.76098l1.0731,1.05129l0.44342,1.80137l0.33392,1.48379z" fill="#000000" stroke="#000000" stroke-width="2.5" stroke-linecap="round"/><path d="M255.98087,162.13127l-0.27503,2.60911" fill="none" stroke="#000000" stroke-width="2.5" stroke-linecap="round"/><path d="M260.48998,162.43359l-8.53982,-0.83533" fill="none" stroke="#000000" stroke-width="2.5" stroke-linecap="round"/><path d="M255.34813,140.02996l-1.21821,2.12046l0.4443,2.14434l-3.53523,-1.95119l0.30233,-4.50912l3.37961,-3.75226l1.39772,1.92048l0.18974,3.32844z" fill="#151515" stroke="#000000" stroke-width="2.5" stroke-linecap="round"/><path d="M256.00775,143.72343l-3.33185,0.42724l-1.61474,-3.34891l0.97047,-1.41137l2.40572,-2.1034l1.90343,-0.21021l1.17386,0.96706l1.17045,1.20457l0.43747,2.61934z" fill="none" stroke="#000000" stroke-width="2.5" stroke-linecap="round"/><path d="M267.93628,143.00238c-0.57303,-0.81954 0.2465,-1.39257 0.2465,-1.39257l1.19639,-0.69229c1.61667,-0.19208 2.89645,-0.26757 4.44706,0.26643c0,0 0.94121,0.33784 0.60336,1.27904c-0.33784,0.94121 -1.27904,0.60336 -1.27904,0.60336c-1.2284,-0.46572 -2.24789,-0.31788 -3.5339,-0.163l-0.28784,0.34552c0,0 -0.81954,0.57303 -1.39257,-0.2465z" fill="#54ff00" stroke="none" stroke-width="0.5" stroke-linecap="butt"/><path d="M279.50477,146.18256l-6.36811,-0.94342" fill="none" stroke="#10ff00" stroke-width="2.5" stroke-linecap="round"/><g data-paper-data="{&quot;index&quot;:null}"><g><path d="M270.09403,169.6703l-2.9946,5.12777l-4.30734,-2.51547l2.9946,-5.12777z" fill="#000000" stroke="none" stroke-width="0" stroke-linecap="butt"/><path d="M278.46196,140.96635c0,0 1.0852,-0.65619 1.62936,0.22658c1.42593,2.31321 7.24196,14.16497 7.24196,14.16497l-8.21229,15.55683c0,0 -5.18579,-5.20566 -7.45753,-7.09167c-0.88134,-0.73169 4.02741,-11.15209 3.62609,-11.83544c-0.41714,-0.7103 3.26453,0.09847 3.94436,-0.34096c0.7676,-0.49615 -1.43818,-2.21972 -1.68698,-2.69517c-0.70099,-1.33957 -1.56138,-4.00841 -1.56138,-4.00841l2.47643,-3.9767z" fill="#949494" stroke="#000000" stroke-width="2.5" stroke-linecap="butt"/><path d="M279.05007,172.82842l-10.21937,-1.0863l-1.87087,-2.32182l-0.39152,-2.55158l1.38367,-2.44114l3.05648,-1.33134z" fill="#242424" stroke="#000000" stroke-width="2.5" stroke-linecap="butt"/><path d="M274.59365,167.38604l0.03921,2.12414l-1.56369,1.62252" fill="none" stroke="#000000" stroke-width="2.5" stroke-linecap="round"/><path d="M284.59481,150.89313l-5.9319,0.95944" fill="none" stroke="#000000" stroke-width="2.5" stroke-linecap="round"/></g><g stroke="none" stroke-linecap="butt"><path d="M286.05232,154.37801l-6.60072,14.93226l-8.25387,-5.98067l2.03395,-2.59958l3.25716,-7.55605z" fill="#8c6200" stroke-width="NaN"/><path d="M280.96766,165.70359l-1.79146,3.48606l-7.665,-6.08301l2.19715,-2.7108z" fill="#8c0081" stroke-width="NaN"/><path d="M286.43048,154.62822l-10.82038,1.42978l0.72883,-2.92083l3.70111,-2.16047l-1.67064,-2.5903l-0.9548,-3.33276l0.46662,-1.27694l1.5418,-2.27008z" fill="#8c0081" stroke-width="0"/><g fill="#ffffff" stroke-width="0.5"><path d="M277.71762,163.79769c-0.00032,0.00032 -0.00064,0.00064 -0.00095,0.00097c-0.19344,0.19359 -0.38703,0.00015 -0.38703,0.00015c-0.9359,-0.95475 -0.57294,-2.09199 0.45724,-2.50716c-0.00934,0.1298 0.12187,0.19098 0.12187,0.19098c0.88995,0.41489 1.76921,0.84527 2.68002,1.20673c0.1081,0.45555 0.08775,0.88623 -0.16223,1.10894c-0.35211,0.31371 -0.95539,0.37827 -1.3881,0.40651c-0.56596,-0.00864 -0.90016,-0.16684 -1.32082,-0.40706zM279.07921,163.42482c-0.0479,0.10275 -0.00344,0.22485 0.09931,0.27277c0.10275,0.0479 0.22485,0.00344 0.27277,-0.09931c0.0479,-0.10275 0.00344,-0.22485 -0.09931,-0.27277c-0.10275,-0.0479 -0.22485,-0.00344 -0.27277,0.09931zM277.81825,162.64823c-0.10275,-0.0479 -0.22485,-0.00344 -0.27277,0.09931c-0.0479,0.10275 -0.00344,0.22485 0.09931,0.27277c0.10275,0.0479 0.22485,0.00344 0.27277,-0.09931c0.04789,-0.10276 0.00345,-0.22487 -0.09931,-0.27278z"/><path d="M276.76696,160.93373c-0.34447,-0.1606 -0.18388,-0.50507 -0.18388,-0.50507l0.00471,0.08488c-0.00356,-0.21008 0.04789,-0.41703 0.13194,-0.61526l-0.01923,-0.0015l0.00098,-0.01267l-0.10706,-0.03746l0.156,-0.44584c0.00452,-0.01343 0.00983,-0.02676 0.01596,-0.03989c0.08869,-0.19024 0.31483,-0.27258 0.50507,-0.18388c0.10353,0.04827 0.17508,0.13723 0.20453,0.23894c0.00657,-0.00176 0.01024,-0.00253 0.01024,-0.00253c0.58213,-0.12058 1.16438,-0.19269 1.74543,-0.2782c-0.16041,-0.23498 -0.31663,-0.4739 -0.46777,-0.71811c-0.41644,-0.67283 -1.11455,-1.21612 -1.1227,-2.01493c0.00031,0.05466 0.00114,0.19077 0.00147,0.24846l-0.13513,-0.00842l0.01032,0.05546l-0.39745,0.07397c-0.0765,0.01522 -0.15837,0.0071 -0.23448,-0.02837c-0.19025,-0.0887 -0.27258,-0.31483 -0.18388,-0.50507c0.0147,-0.03151 0.03316,-0.06008 0.0546,-0.08538l0.24135,-0.2977l0.05267,0.0427c0.18374,-0.27509 0.41291,-0.40748 0.88095,-0.52578c0.08228,-0.07502 0.21541,-0.13755 0.4032,-0.05002c0.34448,0.16061 0.18388,0.50507 0.18388,0.50507l-0.28635,0.2544c-0.04316,0.00813 -0.08399,0.01922 -0.12281,0.03214c0.33021,0.47212 0.77463,1.14521 0.85592,1.2623c0.37821,0.54473 0.75429,1.08169 1.13537,1.61347c0.18805,-0.0371 0.37592,-0.07887 0.56355,-0.12741c0.36274,-0.09385 0.70423,-0.23493 1.05076,-0.36476c-0.1391,-0.22012 -0.24907,-0.4824 -0.32519,-0.84116l-0.15399,-0.42294c-0.03329,-0.0914 -0.03167,-0.1955 0.01266,-0.2906c0.0887,-0.19025 0.31483,-0.27258 0.50507,-0.18388c0.04303,0.02006 0.08055,0.04716 0.1118,0.07926l0.53646,0.52598l-0.02116,0.02157c0.51915,0.36802 0.86076,0.76627 1.28178,1.55258l0.06794,0.17547c0,0 0.13002,0.35716 -0.22712,0.48718c-0.03478,0.01266 -0.06742,0.02071 -0.09798,0.0249c-0.01806,0.02562 -0.04064,0.05131 -0.06853,0.07674c-0.28072,0.2562 -0.53693,-0.02453 -0.53693,-0.02453c-0.20337,-0.22465 -0.39148,-0.40233 -0.56117,-0.56905c-0.46608,0.15176 -0.90633,0.36474 -1.38579,0.48961c-0.08803,0.02292 -0.1762,0.04432 -0.26451,0.06444c0.34628,0.47277 0.69902,0.94229 1.06333,1.41039c0.31758,-0.14379 0.63328,-0.19877 0.84742,-0.01526c0.99421,0.85203 -1.07214,1.54626 -1.48045,1.62261l-0.26221,-0.01325c0,0 -0.37759,-0.04343 -0.33416,-0.42101c0.00251,-0.02175 0.00613,-0.0421 0.0107,-0.06116c-0.73646,-0.30809 -1.45531,-0.65549 -2.18002,-0.9948c0.06623,-0.01211 0.13429,-0.02162 0.20405,-0.02838c0.10739,-0.01041 1.01502,-0.10461 1.11683,-0.07025c0.30223,0.10195 0.64298,0.5483 0.8684,1.0605c0.00771,-0.02369 0.01707,-0.04508 0.02771,-0.06439c-0.02015,-0.19538 0.15093,-0.33117 0.15093,-0.33117c0.088,-0.06954 0.21844,-0.1743 0.3723,-0.28575c-0.43418,-0.54594 -0.86265,-1.08785 -1.27186,-1.64519c-0.693,0.10922 -1.38931,0.18407 -2.07886,0.33156c0,0 -0.03948,0.0083 -0.09543,0.00664c0.0564,0.21749 0.08951,0.44194 0.10685,0.66519c0,0 0.02691,0.37913 -0.35221,0.40604c-0.25657,0.01821 -0.35182,-0.14954 -0.38659,-0.25988c-0.04498,-0.00365 -0.09438,-0.0164 -0.14828,-0.04154z"/></g></g></g></g></g></svg>