<svg version="1.1" xmlns="http://www.w3.org/2000/svg" xmlns:xlink="http://www.w3.org/1999/xlink" width="107.82225" height="109.10807" viewBox="0,0,107.82225,109.10807"><g transform="translate(-186.73297,-123.6355)"><g data-paper-data="{&quot;isPaintingLayer&quot;:true}" fill-rule="nonzero" stroke-linejoin="miter" stroke-miterlimit="10" stroke-dasharray="" stroke-dashoffset="0" style="mix-blend-mode: normal"><g data-paper-data="{&quot;index&quot;:null}" fill="#949494" stroke="#000000" stroke-width="2"><path d="M204.74918,196.2126c0,0 -6.64286,-11.93942 -3.49459,-18.64127c1.13169,-2.40908 0.89596,-2.59479 2.69679,-6.62759c0.64865,-1.4526 1.4419,-2.94082 2.25333,-4.68416c2.17592,-4.67491 4.48262,-9.71385 4.48262,-9.71385c0,0 12.8362,2.13774 17.33941,2.13774c0.4348,0 21.53684,0.47359 21.97571,0.47078c10.74117,-0.06885 7.24001,-0.23325 7.24001,-0.23325c0,0 5.00242,-3.25087 6.6278,-2.9405c3.12122,0.596 6.09658,-2.66377 7.77886,2.9894c0.7907,2.65709 0.61267,2.95203 0.96648,6.59672c0.51648,5.32044 0.7566,13.44454 -1.04569,18.83477c-2.4256,7.25441 -7.20167,11.09865 -7.20167,11.09865z" stroke-linecap="butt"/><path d="M227.98789,195.26235c0,0 9.15072,-8.9704 8.79967,-18.34394c-0.36124,-4.29476 -5.1374,-13.07136 -5.1374,-13.07136l-4.03795,-4.98805l3.32537,4.27547c0,0 4.10165,-0.47068 6.34937,-0.72861c2.54497,-0.29205 8.13973,-0.93407 8.13973,-0.93407l-0.23753,-1.66268" stroke-linecap="round"/><path d="M257.30298,166.45984c0,0 3.11779,0.51281 5.78238,2.15324c3.24758,1.99934 6.16789,5.44311 6.30116,8.77418c0.13219,3.30408 -0.67646,8.08355 -3.45338,11.01242c-3.42658,3.61409 -9.1053,5.03108 -10.76089,4.83995c-4.48955,-0.51829 -8.18307,-8.6525 -8.46709,-10.60669c-0.78231,-5.3826 1.63974,-12.17764 2.58871,-13.45012c1.76938,-2.37258 8.00911,-2.72298 8.00911,-2.72298" stroke-linecap="round"/><path d="M207.18498,179.52379c0,-4.91169 3.12479,-7.68761 7.2084,-9.39624c1.2606,-0.52746 4.06037,-1.52997 5.49925,-1.52997c6.09996,0 10.09486,4.7358 10.09486,11.16373c0,6.42793 -5.65758,12.58889 -11.75755,12.58889c-6.09997,0 -11.04497,-6.3985 -11.04497,-12.82642z" stroke-linecap="butt"/></g><g data-paper-data="{&quot;index&quot;:null}" stroke="#000000" stroke-width="2" stroke-linecap="round"><path d="M187.9705,151.59589c0,0 9.8184,-0.36242 15.18081,1.85015c2.30639,0.95163 4.85845,2.69326 5.58793,4.05c0.84697,1.57526 -0.34964,2.71436 -0.73406,2.79699c-2.59296,0.55736 -7.71539,-0.49528 -9.77452,-1.34734c-3.60936,-1.49353 -10.49769,-7.34981 -10.49769,-7.34981" fill="#d8d8d8"/><path d="M205.07237,154.20867l-1.66268,5.93816" fill="none"/></g><path d="M254.28265,197.14008l-2.26441,-15.07893c0,0 -0.33825,-5.5009 1.2669,-6.63793c0.91125,-0.64551 3.82445,-3.21258 5.84346,-3.70087c2.52826,-0.61144 4.67291,1.56697 5.81525,1.92923c0.49876,0.15817 2.01833,4.24976 2.01833,4.24976c0,0 0.11053,3.43681 0.1837,5.71184c0.10859,3.37657 0.40465,12.58209 0.40465,12.58209z" data-paper-data="{&quot;index&quot;:null}" fill="#949494" stroke="#000000" stroke-width="2.5" stroke-linecap="butt"/><g data-paper-data="{&quot;index&quot;:null}"><g><path d="M206.75848,202.3392l2.6981,-5.2898l4.44343,2.26641l-2.6981,5.2898z" data-paper-data="{&quot;index&quot;:null}" fill="#000000" stroke="none" stroke-width="0" stroke-linecap="butt"/><path d="M216.65994,211.712l-1.73068,4.68421l-1.02089,4.62126l-3.57571,2.70172l3.37531,0.41601l2.06066,1.72491l1.50353,0.82048l1.60845,2.00347l-3.68063,1.51874l-9.97906,0.40816l-1.50353,-0.82048l-3.04901,-2.11416l-1.09696,-9.67951l6.64203,-8.45824z" fill="#949494" stroke="#000000" stroke-width="2.5" stroke-linecap="round"/><path d="M205.89293,208.61318l-0.8719,-4.45339l2.17711,-2.33923l3.54895,-0.31477l3.64812,3.49178l2.80665,4.7587l-0.54192,1.95574z" fill="#242424" stroke="#000000" stroke-width="2.5" stroke-linecap="round"/><path d="M213.38587,204.37173l0.46743,2.58159l-3.27616,3.39053" fill="none" stroke="#000000" stroke-width="2.5" stroke-linecap="round"/></g><g stroke="none" stroke-linecap="butt"><path d="M200.89771,225.00278l-1.05271,-5.70093l7.73522,-9.00881l7.56404,1.97187l-1.87176,7.94542l-4.66884,3.94313z" fill="#8c6200" stroke-width="NaN"/><path d="M203.37373,212.47892l4.78872,-2.51145l7.28638,2.14366l-1.11163,2.93826z" fill="#8c0081" stroke-width="NaN"/><path d="M214.62052,229.93418l-11.32462,-0.28103l-1.61754,-5.50362l7.29732,-0.61615l3.17653,1.0693l3.44407,0.39652l1.00032,0.9207l1.50511,2.29458z" fill="#8c0081" stroke-width="0"/><g fill="#ffffff" stroke-width="0.5"><path d="M209.61534,214.25972c0.00033,-0.0003 0.00068,-0.00061 0.00101,-0.00092c0.20246,-0.18412 0.38661,0.01833 0.38661,0.01833c0.88923,0.99836 0.47237,2.11695 -0.57644,2.48247c0.01553,-0.12921 -0.1126,-0.19657 -0.1126,-0.19657c-0.8691,-0.45693 -1.72683,-0.92879 -2.61936,-1.33334c-0.08622,-0.46021 -0.04532,-0.88941 0.215,-1.09993c0.3667,-0.29653 0.97235,-0.33221 1.40593,-0.33974c0.56488,0.03567 0.89116,0.20964 1.29987,0.46968zM207.96033,214.65332c0.10033,0.05276 0.22445,0.01416 0.27719,-0.08616c0.05275,-0.10034 0.01416,-0.22445 -0.08616,-0.27719c-0.10034,-0.05275 -0.22445,-0.01416 -0.27719,0.08616c-0.05276,0.10033 -0.01416,0.22445 0.08616,0.27719zM209.45995,215.40308c0.10034,0.05275 0.22444,0.01416 0.2772,-0.08618c0.05276,-0.10035 0.01418,-0.22444 -0.08615,-0.27719c-0.10034,-0.05275 -0.22445,-0.01416 -0.27719,0.08616c-0.05276,0.10033 -0.01416,0.22445 0.08616,0.27719z"/><path d="M210.42816,217.16583c0.33642,0.17686 0.15955,0.51327 0.15955,0.51327l-0.00065,-0.085c-0.00648,0.21002 -0.06775,0.41428 -0.16118,0.60826l0.01913,0.00241l-0.0016,0.01261l0.10515,0.04253l-0.17711,0.43788c-0.00515,0.0132 -0.0111,0.02625 -0.01785,0.03909c-0.09768,0.1858 -0.32747,0.25724 -0.51327,0.15955c-0.10109,-0.05315 -0.16834,-0.14544 -0.19289,-0.24844c-0.00663,0.00145 -0.01034,0.00206 -0.01034,0.00206c-0.58722,0.09265 -1.17225,0.13687 -1.75672,0.19454c0.149,0.24238 0.29364,0.48848 0.43294,0.73962c0.38383,0.69196 1.0552,1.26796 1.02519,2.06625c0.00228,-0.05463 0.00797,-0.19062 0.01038,-0.24826l0.13459,0.01486l-0.00766,-0.05589l0.40052,-0.0549c0.07714,-0.01154 0.15852,0.00047 0.23287,0.03954c0.1858,0.09769 0.25723,0.32749 0.15953,0.51328c-0.01617,0.03078 -0.03599,0.05843 -0.05861,0.08268l-0.25529,0.28584l-0.05056,-0.04516c-0.19667,0.26601 -0.43191,0.38729 -0.90505,0.48312c-0.08576,0.07101 -0.22173,0.12713 -0.40512,0.03071c-0.33642,-0.17686 -0.15956,-0.51328 -0.15956,-0.51328l0.29816,-0.24044c0.04351,-0.00605 0.08481,-0.0152 0.12421,-0.02625c-0.30729,-0.48735 -0.71905,-1.18089 -0.79465,-1.30173c-0.35178,-0.56217 -0.70178,-1.11647 -1.05704,-1.66583c-0.18962,0.02808 -0.37925,0.06081 -0.56898,0.10034c-0.36681,0.07641 -0.71466,0.20102 -1.06698,0.31416c0.12844,0.2265 0.22575,0.49374 0.28466,0.85572l0.13361,0.42983c0.02888,0.09288 0.02231,0.19678 -0.02652,0.28967c-0.09769,0.1858 -0.32748,0.25725 -0.51328,0.15956c-0.04203,-0.02211 -0.07819,-0.05095 -0.10789,-0.08453l-0.51074,-0.551l0.02217,-0.02056c-0.50097,-0.39239 -0.82318,-0.80649 -1.20618,-1.61202l-0.05949,-0.1785c0,0 -0.11281,-0.36294 0.25013,-0.47576c0.03535,-0.01099 0.06833,-0.01747 0.09906,-0.0202c0.01927,-0.02474 0.04305,-0.04932 0.07211,-0.07338c0.29264,-0.2425 0.53516,0.05014 0.53516,0.05014c0.19241,0.2341 0.37181,0.42056 0.53334,0.5952c0.47279,-0.12934 0.9227,-0.32102 1.40759,-0.42287c0.08903,-0.01872 0.17813,-0.03586 0.26729,-0.05172c-0.32331,-0.48877 -0.65321,-0.9746 -0.99478,-1.45956c-0.32409,0.12845 -0.64206,0.16829 -0.84718,-0.02523c-0.95239,-0.89853 1.14474,-1.4933 1.55623,-1.55007l0.26129,0.02575c0,0 0.37509,0.06141 0.31368,0.43649c-0.00354,0.02161 -0.00812,0.04177 -0.01361,0.0606c0.7209,0.3429 1.42236,0.72422 2.13003,1.09777c-0.06675,0.00892 -0.13515,0.01517 -0.20517,0.01859c-0.10775,0.00526 -1.01887,0.05601 -1.11893,0.01684c-0.29701,-0.11627 -0.61607,-0.57839 -0.81677,-1.10077c-0.00884,0.02329 -0.0192,0.04421 -0.03076,0.063c0.0108,0.19612 -0.16657,0.32358 -0.16657,0.32358c-0.09122,0.06526 -0.22652,0.16365 -0.38553,0.26765c0.40761,0.56605 0.80972,1.12779 1.19184,1.70405c0.69742,-0.07601 1.39652,-0.11753 2.09231,-0.23193c0,0 0.03984,-0.00641 0.09564,-0.00207c-0.04595,-0.21993 -0.0683,-0.4457 -0.07499,-0.66953c0,0 -0.00877,-0.37997 0.3712,-0.38874c0.25714,-0.00593 0.34428,0.16618 0.37374,0.27806c0.04477,0.0058 0.0935,0.0209 0.14613,0.04858z"/></g></g></g><path d="M226.4325,182.38016l-4.36557,16.5779l-11.01113,-1.85483l-1.26672,-0.96658l1.48788,-15.43328l2.87736,-6.22234l5.11098,-1.44476l4.91121,2.14411l1.88905,2.77762z" data-paper-data="{&quot;index&quot;:null}" fill="#949494" stroke="#000000" stroke-width="2.5" stroke-linecap="round"/><g data-paper-data="{&quot;index&quot;:null}"><g><path d="M264.65696,202.809l-1.67769,-5.69624l4.78483,-1.40927l1.67769,5.69624z" fill="#000000" stroke="none" stroke-width="0" stroke-linecap="butt"/><path d="M279.80626,228.58569c0,0 -0.26678,1.23979 -1.28241,1.03032c-2.66138,-0.54886 -15.27524,-4.44515 -15.27524,-4.44515l-5.68853,-16.64623c0,0 7.34507,-0.20342 10.27569,-0.56307c1.13695,-0.13952 5.35338,10.57972 6.12593,10.75635c0.80301,0.18361 -2.31069,2.30815 -2.45718,3.10427c-0.1654,0.89889 2.60176,0.47584 3.11838,0.62087c1.45563,0.40865 3.98794,1.61299 3.98794,1.61299l1.19543,4.52966z" fill="#949494" stroke="#000000" stroke-width="2.5" stroke-linecap="butt"/><path d="M256.21607,207.16048l7.79968,-6.69186l2.97282,0.23099l2.12538,1.46512l0.82746,2.68124l-1.1275,3.1374z" fill="#242424" stroke="#000000" stroke-width="2.5" stroke-linecap="butt"/><path d="M263.23313,207.65019l-1.57268,-1.42833l-0.10825,-2.25077" fill="none" stroke="#000000" stroke-width="2.5" stroke-linecap="round"/><path d="M268.37597,226.24024l3.3703,-4.97483" fill="none" stroke="#000000" stroke-width="2.5" stroke-linecap="round"/></g><g stroke="none" stroke-linecap="butt"><path d="M264.84027,224.91075l-6.33935,-15.04509l10.01335,-1.90461l0.49676,3.26314l3.26474,7.55277z" fill="#8c6200" stroke-width="NaN"/><path d="M260.08577,213.44266l-1.3082,-3.69469l9.68395,-1.40586l0.46576,3.45818z" fill="#8c0081" stroke-width="NaN"/><path d="M264.39881,225.01434l6.38089,-8.85491l1.62568,2.53372l-0.96625,4.17519l3.03086,0.56083l3.08019,1.591l0.60923,1.21539l0.59452,2.679z" fill="#8c0081" stroke-width="0"/><g fill="#ffffff" stroke-width="0.5"><path d="M263.70184,212.38473c-0.00002,-0.00045 -0.00003,-0.0009 -0.00003,-0.00136c-0.0082,-0.27356 0.26536,-0.28175 0.26536,-0.28175c1.3367,-0.02622 1.91535,1.01789 1.51092,2.05232c-0.08805,-0.09581 -0.22256,-0.0423 -0.22256,-0.0423c-0.9123,0.36308 -1.82857,0.70776 -2.71631,1.12267c-0.40567,-0.23377 -0.70513,-0.54399 -0.69574,-0.87865c0.01322,-0.47142 0.37999,-0.95471 0.65623,-1.28897c0.39445,-0.40593 0.73882,-0.54063 1.20214,-0.68198zM263.03932,213.63133c-0.04191,-0.10532 -0.16127,-0.15673 -0.2666,-0.1148c-0.10532,0.04191 -0.15673,0.16127 -0.1148,0.2666c0.04191,0.10532 0.16127,0.15673 0.2666,0.1148c0.10532,-0.04191 0.15673,-0.16127 0.1148,-0.2666zM264.4693,213.24632c0.10532,-0.04191 0.15673,-0.16127 0.1148,-0.2666c-0.04191,-0.10532 -0.16127,-0.15673 -0.2666,-0.1148c-0.10531,0.04191 -0.15673,0.16127 -0.1148,0.2666c0.04192,0.10533 0.16128,0.15673 0.26661,0.11482z"/><path d="M266.43804,213.6572c0.35312,-0.14053 0.49367,0.2126 0.49367,0.2126l-0.06499,-0.05479c0.15533,0.1415 0.27064,0.32088 0.35726,0.51802l0.01428,-0.01297l0.00854,0.0094l0.10071,-0.05222l0.21746,0.41931c0.00668,0.01249 0.01273,0.0255 0.0181,0.03898c0.07761,0.19503 -0.01756,0.41606 -0.2126,0.49367c-0.10612,0.04223 -0.21995,0.03329 -0.31418,-0.01505c-0.00321,0.00599 -0.00518,0.00919 -0.00518,0.00919c-0.31151,0.50633 -0.6584,0.97951 -0.99469,1.461c0.28103,0.04445 0.56205,0.09462 0.84342,0.15212c0.77525,0.15843 1.64944,0.02302 2.23632,0.56496c-0.04,-0.03725 -0.1396,-0.13001 -0.18184,-0.16933l0.09881,-0.09257l-0.04743,-0.03053l0.21876,-0.33996c0.0414,-0.06612 0.10345,-0.12012 0.18147,-0.15117c0.19504,-0.07762 0.41606,0.01756 0.49367,0.2126c0.01286,0.0323 0.02098,0.06534 0.02468,0.09828l0.05111,0.37982l-0.06719,0.00905c0.07417,0.32238 0.01332,0.57996 -0.22158,1.0017c-0.00184,0.11132 -0.04764,0.25111 -0.24015,0.32772c-0.35313,0.14054 -0.49367,-0.2126 -0.49367,-0.2126l0.01125,-0.38288c0.0237,-0.037 0.04362,-0.07431 0.06083,-0.11143c-0.57006,-0.08351 -1.36469,-0.22176 -1.50566,-0.24291c-0.65582,-0.09838 -1.3045,-0.19298 -1.95287,-0.2804c-0.10198,0.1623 -0.20045,0.32766 -0.2938,0.49748c-0.18049,0.32834 -0.31204,0.67362 -0.45524,1.01484c0.25559,0.04974 0.52187,0.1496 0.83517,0.34026l0.4134,0.17803c0.08934,0.03847 0.16399,0.11103 0.2028,0.20855c0.07762,0.19504 -0.01756,0.41606 -0.2126,0.49367c-0.04412,0.01755 -0.08956,0.02629 -0.13439,0.027l-0.75071,0.02964l-0.0012,-0.0302c-0.6239,0.12538 -1.148,0.10083 -2.00898,-0.13208l-0.17429,-0.07089c0,0 -0.34908,-0.15034 -0.19874,-0.49942c0.01465,-0.034 0.03117,-0.06327 0.04907,-0.08839c-0.00626,-0.03071 -0.00946,-0.06477 -0.00886,-0.10249c0.0061,-0.38001 0.38612,-0.37391 0.38612,-0.37391c0.30297,0.00608 0.56129,-0.00894 0.799,-0.01807c0.20923,-0.44326 0.3562,-0.90972 0.59418,-1.34428c0.04369,-0.07979 0.08859,-0.15863 0.13452,-0.23667c-0.58156,-0.07227 -1.16516,-0.1376 -1.75569,-0.19352c-0.11319,0.32974 -0.28971,0.59718 -0.57012,0.62716c-1.30194,0.13913 -0.38991,-1.84075 -0.16543,-2.19026l0.18949,-0.18174c0,0 0.29058,-0.245 0.53557,0.04558c0.01411,0.01674 0.02643,0.03334 0.03716,0.04973c0.72931,-0.32462 1.47517,-0.6095 2.21916,-0.90415c-0.03661,0.0565 -0.07637,0.11255 -0.1193,0.16796c-0.06608,0.08529 -0.62004,0.8104 -0.71488,0.86094c-0.28148,0.15001 -0.84003,0.09185 -1.36738,-0.09541c0.01193,0.02186 0.02111,0.04335 0.02786,0.06434c0.15601,0.11935 0.13749,0.33698 0.13749,0.33698c-0.00976,0.11173 -0.02298,0.2785 -0.04739,0.46692c0.69509,0.05848 1.38331,0.11834 2.06958,0.20283c0.39582,-0.57923 0.81894,-1.13728 1.18453,-1.74025c0,0 0.02104,-0.03443 0.06062,-0.07399c-0.19696,-0.10813 -0.38299,-0.23799 -0.55738,-0.37847c0,0 -0.29436,-0.24044 -0.05391,-0.5348c0.16273,-0.1992 0.35013,-0.15346 0.45428,-0.10309c0.03352,-0.03023 0.07667,-0.05743 0.13194,-0.07941z"/></g></g></g><g data-paper-data="{&quot;index&quot;:null}"><g stroke="#000000" stroke-width="2.5"><path d="M261.99874,157.68519c0,0 0.37382,-1.49134 0,-2.61279c-0.33436,-1.00305 -2.13774,-3.80042 -2.13774,-3.80042c0,0 -4.82884,-3.36413 -4.50429,-6.71662c0.03684,-0.38056 1.48571,-8.6683 6.28563,-13.35727c3.43077,-3.35147 10.43238,-3.70263 11.33658,-3.33724c0.69893,0.28244 5.09711,0.72703 9.16966,2.53989c5.73937,2.55483 11.05964,6.41853 11.05964,6.41853l-2.00675,13.6172l-20.88931,-0.1146l0.71258,7.36331z" fill="#949494" stroke-linecap="butt"/><path d="M292.40211,144.14619l-13.06394,-2.61279l-3.32537,-3.32537l-3.32537,-9.9761l11.16373,3.56289l8.78847,4.98805z" fill="#000000" stroke-linecap="round"/><path d="M276.72537,139.87071h-1.66268" fill="none" stroke-linecap="round"/><path d="M274.11259,142.246l2.37526,0.23753" fill="none" stroke-linecap="round"/><path d="M273.4,144.62126l1.42516,0.23753" fill="none" stroke-linecap="round"/><path d="M289.54811,150.43336c0,0 -12.49164,-0.39597 -18.91936,0.1673c-1.58149,0.13859 -0.21237,1.97931 -1.19817,1.99021c-8.7343,0.0966 -9.63865,-1.9509 -10.4463,-2.94232c-2.00598,-2.46241 -4.19835,-5.75255 -4.09135,-6.33654c0.13759,-0.75094 1.86893,-2.51352 1.86893,-2.51352l3.92426,1.53509l5.4631,1.90021l5.70063,1.18763l9.9761,0.23753l8.07589,4.27547" fill="#373737" stroke-linecap="round"/><path d="M289.21421,152.74705l-0.9501,2.37526h-12.35136l-2.61279,-0.47505l-0.9501,-2.37526l0.47505,-1.90021l1.18763,-1.42516l1.42516,0.47505l1.18763,1.42516l0.9501,1.18763z" fill="#000000" stroke-linecap="round"/><path d="M266.27422,153.64726l-0.23753,2.61279" fill="none" stroke-linecap="round"/><path d="M270.78721,153.88478l-8.55094,-0.71258" fill="none" stroke-linecap="round"/><path d="M265.3241,131.55732l-1.18763,2.13774l0.47505,2.13774l-3.56289,-1.90021l0.23753,-4.513l3.32537,-3.80042l1.42516,1.90021l0.23753,3.32537z" fill="#151515" stroke-linecap="round"/><path d="M266.0367,135.24093l-3.32537,0.47505l-1.66268,-3.32537l0.9501,-1.42516l2.37526,-2.13774l1.90021,-0.23753l1.18763,0.9501l1.18763,1.18763l0.47505,2.61279z" fill="none" stroke-linecap="round"/></g><path d="M287.00596,134.19797c2.56859,0.75552 3.17067,2.26139 2.7603,4.07085c-0.41037,1.80946 -2.31153,2.9206 -4.24638,2.48179c-1.93484,-0.43881 -3.17067,-2.26139 -2.7603,-4.07085c0.41037,-1.80946 1.60058,-3.26001 4.24638,-2.48179z" fill="#54ff00" stroke="none" stroke-width="0" stroke-linecap="butt"/><path d="M277.40165,136.30108c-0.99389,0.11043 -1.10432,-0.88345 -1.10432,-0.88345l-0.03459,-1.38182c0.60581,-1.51114 1.15258,-2.67069 2.36411,-3.77602c0,0 0.74741,-0.66436 1.41177,0.08305c0.66436,0.74741 -0.08305,1.41177 -0.08305,1.41177c-0.99724,0.8552 -1.35583,1.82093 -1.83589,3.02398l0.16541,0.41818c0,0 0.11043,0.99389 -0.88345,1.10432z" fill="#54ff00" stroke="none" stroke-width="0.5" stroke-linecap="butt"/></g></g></g></svg>