<svg version="1.1" xmlns="http://www.w3.org/2000/svg" xmlns:xlink="http://www.w3.org/1999/xlink" width="482.81875" height="638.17045" viewBox="0,0,482.81875,638.17045"><g transform="translate(0.65207,252.32956)"><g data-paper-data="{&quot;isPaintingLayer&quot;:true}" fill-rule="nonzero" stroke="none" stroke-linecap="butt" stroke-linejoin="miter" stroke-miterlimit="10" stroke-dasharray="" stroke-dashoffset="0" style="mix-blend-mode: normal"><path d="M-0.65207,385.84089v-87h482v87z" fill="#af0000" stroke-width="NaN"/><g><path d="M-0.33483,308.34089v-25h482.5015v25z" fill="#cb0000" stroke-width="0"/><path d="M21.50362,288.00755c3.08307,1.5 0.77077,3.5 0.77077,3.5l-1.89953,1.6011c-1.43435,0.84076 -3.34609,1.43265 -4.30305,2.52227c-0.52199,0.59435 0.19558,1.36219 0.29335,2.04329c0,0 0,2.5 -3.85384,2.5c-3.85384,0 -3.85384,-2.5 -3.85384,-2.5c0.09778,-1.3189 -0.61964,-2.77656 0.29335,-3.95671c1.30773,-1.69039 3.98258,-2.76293 5.97388,-4.14439l1.18354,-1.06557c0,0 2.31231,-2 5.39538,-0.5z" fill="#dd0000" stroke-width="0.5"/><path d="M55.3164,301.10864c-2.72509,1.76777 -5.45015,0 -5.45015,0l-0.51384,-0.33333c-2.23792,-1.48204 -5.03797,-2.59179 -7.85573,-3.57303c0,0 -3.38328,-1.19713 -1.53786,-3.39187c1.84542,-2.19474 5.2287,-0.99761 5.2287,-0.99761c3.43968,1.23344 6.81375,2.63867 9.61504,4.42697l0.51384,0.33333c0,0 2.72509,1.76777 0,3.53553z" fill="#dd0000" stroke-width="0.5"/><path d="M95.73568,292.74573c1.43128,2.32119 -2.14693,3.24967 -2.14693,3.24967l-5.13846,1.33333c0,0 -3.57821,0.92848 -5.00949,-1.39272c-1.43128,-2.32119 2.14693,-3.24967 2.14693,-3.24967l5.13846,-1.33333c0,0 3.57821,-0.92848 5.00949,1.39272z" fill="#dd0000" stroke-width="0.5"/><path d="M115.53746,304.00755c0,2.5 -3.85384,2.5 -3.85384,2.5h-4.11077c0,0 -3.85384,0 -3.85384,-2.5c0,-2.5 3.85384,-2.5 3.85384,-2.5h4.11077c0,0 3.85384,0 3.85384,2.5z" fill="#dd0000" stroke-width="0.5"/><path d="M146.24457,292.07822c0.77074,-0.39228 2.96589,-1.26245 5.16104,0.16155c2.72509,1.76777 0,3.53553 0,3.53553l-2.30423,0.99092c-6.54832,1.05739 -9.6572,1.50723 -13.90332,4.84177c0,0 -2.46717,1.92055 -5.42777,0.32009c-2.9606,-1.60046 -0.49344,-3.52101 -0.49344,-3.52101c5.09307,-3.93555 9.60807,-5.09985 16.96771,-6.32886z" fill="#dd0000" stroke-width="0.5"/><path d="M193.74906,293.88951c1.72348,2.23607 -1.72348,3.3541 -1.72348,3.3541l-2.66884,0.84406c-5.21518,2.25521 -9.85989,4.31276 -15.82057,5.62492c0,0 -3.65608,0.79057 -4.87478,-1.58114c-1.21869,-2.37171 2.43738,-3.16228 2.43738,-3.16228c5.30674,-1.12248 9.35731,-3.04133 13.98251,-5.04175l3.49732,-1.15594c0,0 3.44699,-1.11803 5.17047,1.11803z" fill="#dd0000" stroke-width="0.5"/><path d="M239.9834,300.29305c-3.00934,1.56174 -5.41683,-0.39043 -5.41683,-0.39043l-1.77112,-1.46064c-2.68035,-1.74041 -6.34891,-5.50249 -10.49266,-6.00131c-3.92013,-0.4719 -7.97367,0.06688 -11.96072,0.06688c0,0 -3.85384,0 -3.85384,-2.5c0,-2.5 3.85384,-2.5 3.85384,-2.5c1.29554,0 13.18208,-0.01817 13.73159,0.06688c6.47495,1.0021 9.79862,4.49787 14.17195,7.33202l2.33965,1.8727c0,0 2.40748,1.95217 -0.60186,3.51391z" fill="#dd0000" stroke-width="0.5"/><path d="M310.15171,289.28745c2.13773,2.08013 -1.06888,3.46688 -1.06888,3.46688l-3.09614,1.05776c-11.688,1.15932 -26.15692,2.98587 -35.85388,7.56312c0,0 -2.07654,0.96219 -4.0571,0.22448c-0.42758,1.21622 -2.40392,1.72904 -2.40392,1.72904l-1.95798,0.46547c-5.32205,2.11633 -8.66415,2.69046 -14.88868,2.71334c0,0 -3.85384,0 -3.85384,-2.5c0,-2.5 3.85384,-2.5 3.85384,-2.5c4.9392,0.02227 6.62965,-0.21881 10.80362,-1.95333l3.18049,-0.86786c0,0 1.73232,-0.4495 3.2684,0.05892c0.39547,-0.8921 1.57517,-1.43873 1.57517,-1.43873c10.9097,-4.98104 26.13466,-7.14139 39.16766,-8.43688l-0.01307,-0.27558c0,0 3.2066,-1.38675 5.34433,0.69338z" fill="#dd0000" stroke-width="0.5"/><path d="M365.67862,299.02979c-2.08969,2.10057 -5.32779,0.74498 -5.32779,0.74498l-0.18077,-0.35457c-8.53949,-0.76264 -17.63285,-1.53996 -25.80091,-3.40473c-2.47346,-0.56469 -4.74106,-1.51945 -7.29101,-1.91591c0,0 -3.73878,-0.60634 -2.80409,-3.0317c0.9347,-2.42536 4.67348,-1.81902 4.67348,-1.81902c2.81978,0.47208 5.37918,1.45359 8.12437,2.08409c7.60416,1.7465 16.18934,2.42465 24.14825,3.13388l3.31007,1.10682c0,0 3.23811,1.35559 1.14841,3.45615z" fill="#dd0000" stroke-width="0.5"/><path d="M416.14351,303.24789c-1.91205,2.17061 -5.25812,0.93026 -5.25812,0.93026l-2.67404,-1.08769c-11.58394,0.14802 -23.29722,-0.58292 -34.98006,-0.58292c0,0 -3.85384,0 -3.85384,-2.5c0,-2.5 3.85384,-2.5 3.85384,-2.5c12.40173,0 24.62279,0.62251 36.95838,0.75042l4.51981,1.57897c0,0 3.34608,1.24035 1.43403,3.41096z" fill="#dd0000" stroke-width="0.5"/><path d="M437.82595,289.22286c1.72348,2.23607 -1.72348,3.3541 -1.72348,3.3541l-0.85282,0.05758c-1.0277,0.77778 -2.05538,1.55556 -3.08307,2.33333c0,0 -2.50805,1.89814 -5.43411,0.27116c-2.92606,-1.62698 -0.418,-3.52512 -0.418,-3.52512c1.0277,-0.77778 2.05538,-1.55556 3.08307,-2.33333l3.25795,-1.27576c0,0 3.44699,-1.11803 5.17047,1.11803z" fill="#dd0000" stroke-width="0.5"/><path d="M466.75125,296.50755c-1.84689,0 -2.80868,-0.57416 -3.30956,-1.17217c-3.80481,-1.35011 -5.57419,-1.60083 -10.85986,-1.8352c0,0 -3.8425,-0.19174 -3.54691,-2.68438c0.29557,-2.49264 4.13808,-2.30089 4.13808,-2.30089c6.73081,0.3669 9.80935,0.88987 15.49031,2.9887l1.9418,2.50394c0,0 0,2.5 -3.85384,2.5z" fill="#dd0000" stroke-width="0.5"/></g><path d="M0.2573,43.5263v-295.85586h39v295.85586z" fill="#915b00" stroke-width="1.5"/></g></g></svg>