<svg version="1.1" xmlns="http://www.w3.org/2000/svg" xmlns:xlink="http://www.w3.org/1999/xlink" width="43.36965" height="99.44463" viewBox="0,0,43.36965,99.44463"><g transform="translate(-218.31518,-130.27769)"><g data-paper-data="{&quot;isPaintingLayer&quot;:true}" fill-rule="nonzero" stroke-width="1.5" stroke-linejoin="miter" stroke-miterlimit="10" stroke-dasharray="" stroke-dashoffset="0" style="mix-blend-mode: normal"><path d="M252.5521,221.47986c0,0 -8.27253,2.77 -12.58233,-1.21656c-1.02224,-0.94558 0.97792,-14.69748 0.15189,-14.69748c-1.38996,0 0.20094,13.19123 -1.74013,15.69626c-3.64902,4.7092 -10.83157,0.21778 -10.83157,0.21778l0.28251,-25.29196l23.02457,-0.09473z" data-paper-data="{&quot;index&quot;:null}" fill="#920000" stroke="#920000" stroke-linecap="butt"/><path d="M227.98622,195.96296c0,0 0.99492,-2.8837 1.09868,-6.35578c0.1691,-5.65829 -0.18052,-24.36719 -0.18052,-24.36719c0,0 8.89678,-1.83632 12.92484,-1.83632c3.23709,0 9.39346,1.83632 9.39346,1.83632c0,0 0.04835,20.41989 0.30557,25.76009c0.11844,2.4589 1.17761,5.0335 1.17761,5.0335z" data-paper-data="{&quot;index&quot;:null}" fill="#fa0000" stroke="#7e0000" stroke-linecap="butt"/><path d="M240.00541,166.02793c-8.9715,0 -16.24433,-7.27283 -16.24433,-16.24433c0,-8.9715 7.27283,-16.24433 16.24433,-16.24433c8.9715,0 16.24433,7.27284 16.24433,16.24433c0,8.9715 -7.27283,16.24433 -16.24433,16.24433z" data-paper-data="{&quot;index&quot;:null}" fill="#b2936b" stroke="#856e50" stroke-linecap="butt"/><path d="M245.04308,144.97462c1.73858,0 3.14797,2.24961 3.14797,5.02465c0,2.77504 -1.40939,5.02464 -3.14797,5.02464c-1.73857,0 -3.14796,-2.24961 -3.14796,-5.02464c0,-2.77504 1.40939,-5.02465 3.14796,-5.02465z" data-paper-data="{&quot;index&quot;:null}" fill="#ffffff" stroke="#bababa" stroke-linecap="butt"/><path d="M250.9758,144.97462c1.73857,0 3.14797,2.24961 3.14797,5.02465c0,2.77504 -1.40939,5.02464 -3.14797,5.02464c-1.73858,0 -3.14797,-2.24961 -3.14797,-5.02464c0,-2.77504 1.4094,-5.02465 3.14797,-5.02465z" data-paper-data="{&quot;index&quot;:null}" fill="#ffffff" stroke="#bababa" stroke-linecap="butt"/><path d="M250.2897,153.53063v-7.1031" data-paper-data="{&quot;index&quot;:null}" fill="none" stroke="#000000" stroke-linecap="round"/><path d="M246.65743,153.69207v-7.46633" data-paper-data="{&quot;index&quot;:null}" fill="none" stroke="#000000" stroke-linecap="round"/><path d="M253.35695,155.63654c0,0 -2.5882,1.96248 -4.67396,2.04639c-2.51502,0.10118 -9.37082,-1.48136 -9.37082,-1.48136" data-paper-data="{&quot;index&quot;:null}" fill="none" stroke="#000000" stroke-linecap="round"/><path d="M255.85985,142.88015c0,0 -2.98529,2.46911 -5.70668,2.46272c-0.54729,-0.00128 -1.51888,-2.7959 -2.31609,-2.84194c-2.33428,-0.13481 -4.77507,3.27387 -8.07907,3.31462c-1.11886,0.01379 -2.94479,-2.46004 -4.08296,-2.58644c-1.95645,-0.21729 -3.47022,3.16027 -5.07213,3.09763c-3.21802,-0.12584 -5.76268,-3.51944 -5.76268,-3.51944c0,0 -4.38944,-11.98667 20.83617,-11.77689c7.80394,0.0649 10.18343,11.84975 10.18343,11.84975z" data-paper-data="{&quot;index&quot;:null}" fill="#000000" stroke="#000000" stroke-linecap="butt"/><path d="M250.98105,166.18799c0,0 5.47045,9.1307 6.58731,12.37758c1.821,5.29389 3.30054,16.36781 3.30054,16.36781c0,0 -2.84191,1.34478 -4.31473,1.4869c-1.10186,0.10632 -3.7368,-0.70999 -3.7368,-0.70999c0,0 -1.28304,1.15626 -1.23136,0.57485c0.03865,-0.43478 -2.22939,0.13143 -2.22939,0.13143c0,0 -0.22196,-1.8464 -0.49707,-2.04448c-0.30941,-0.22278 2.47465,-3.11133 2.47465,-3.11133z" data-paper-data="{&quot;index&quot;:null}" fill="#fa0000" stroke="#7e0000" stroke-linecap="round"/><path d="M228.66582,191.85552c0,0 2.78406,2.88856 2.47465,3.11133c-0.27511,0.19808 -0.49707,2.04447 -0.49707,2.04447c0,0 -2.26804,-0.5662 -2.22939,-0.13142c0.05168,0.58141 -1.23136,-0.57485 -1.23136,-0.57485c0,0 -2.63495,0.81632 -3.7368,0.70999c-1.47283,-0.14211 -4.31473,-1.4869 -4.31473,-1.4869c0,0 1.47954,-11.07391 3.30054,-16.36781c1.11687,-3.24688 6.58731,-12.37759 6.58731,-12.37759z" data-paper-data="{&quot;index&quot;:null}" fill="#fa0000" stroke="#7e0000" stroke-linecap="round"/><path d="M246.58439,221.11414c0.79948,-0.09373 1.83327,-0.01677 2.70254,-0.01677c1.27342,0 2.9404,1.70341 4.15273,2.00675c1.37924,0.34511 1.94339,1.2171 2.95536,1.54239c1.74508,0.56097 2.15248,0.7514 2.15248,1.81725c0,2.22723 -3.36835,2.50856 -8.58882,2.50856c-5.22047,0 -6.86146,-0.34484 -6.86146,-2.57207c0,-1.85637 -0.51471,-4.81695 3.48717,-5.28612z" data-paper-data="{&quot;index&quot;:null}" fill="#935300" stroke="#603600" stroke-linecap="butt"/><path d="M230.82215,220.9865c0.79949,-0.09373 1.83326,-0.01677 2.70253,-0.01677c1.27342,0 2.9404,1.70341 4.15274,2.00676c1.37925,0.34511 1.94339,1.21709 2.95535,1.54239c1.74508,0.56097 2.15248,0.75141 2.15248,1.81726c0,2.22723 -3.36835,2.50856 -8.58882,2.50856c-5.22047,0 -6.86146,-0.34484 -6.86146,-2.57207c0,-1.85637 -0.51471,-4.81695 3.48718,-5.28612z" data-paper-data="{&quot;index&quot;:null}" fill="#935300" stroke="#603600" stroke-linecap="butt"/><path d="M251.06987,195.65106c1.48024,0 2.68022,0.81427 2.68022,1.81872c0,1.00445 -1.19997,1.81872 -2.68022,1.81872c-1.48024,0 -2.68022,-0.81427 -2.68022,-1.81872c0,-1.00445 1.19998,-1.81872 2.68022,-1.81872z" data-paper-data="{&quot;index&quot;:null}" fill="#b2936b" stroke="#856e50" stroke-linecap="butt"/><path d="M231.35112,195.84251c1.48024,0 2.68022,0.81427 2.68022,1.81872c0,1.00446 -1.19997,1.81873 -2.68022,1.81873c-1.48024,0 -2.68022,-0.81427 -2.68022,-1.81873c0,-1.00446 1.19997,-1.81872 2.68022,-1.81872z" data-paper-data="{&quot;index&quot;:null}" fill="#b2936b" stroke="#856e50" stroke-linecap="butt"/></g></g></svg>