<svg version="1.1" xmlns="http://www.w3.org/2000/svg" xmlns:xlink="http://www.w3.org/1999/xlink" width="96.34409" height="174.93848" viewBox="0,0,96.34409,174.93848"><g transform="translate(-265.83776,-16.4979)"><g data-paper-data="{&quot;isPaintingLayer&quot;:true}" fill-rule="nonzero" stroke-linejoin="miter" stroke-miterlimit="10" stroke-dasharray="" stroke-dashoffset="0" style="mix-blend-mode: normal"><g stroke-width="2" stroke-linecap="butt"><path d="M306.045,177.97872v-10.79162h6.99997v10.79162z" data-paper-data="{&quot;index&quot;:null}" fill="#ffd499" stroke="#dfba86"/><path d="M291.53327,190.22868l1.05357,-11.58925c0,0 6.02669,-3.1607 9.8333,-3.1607c4.50404,0 12.29162,3.1607 12.29162,3.1607v11.58925z" data-paper-data="{&quot;index&quot;:null}" fill="#ff00bf" stroke="#d5009f"/></g><g stroke-width="2" stroke-linecap="butt"><path d="M333.59308,178.18642v-10.79162h6.99997v10.79162z" data-paper-data="{&quot;index&quot;:null}" fill="#ffd499" stroke="#dfba86"/><path d="M319.08135,190.43638l1.05357,-11.58925c0,0 6.02669,-3.1607 9.8333,-3.1607c4.50404,0 12.29162,3.1607 12.29162,3.1607v11.58925z" data-paper-data="{&quot;index&quot;:null}" fill="#ff00bf" stroke="#d5009f"/></g><path d="M313.88747,135.57479l1.86635,34.8348l-10.74329,1.02026l-2.13458,-31.73185z" data-paper-data="{&quot;index&quot;:null}" fill="#7f00ff" stroke="#6600cc" stroke-width="2" stroke-linecap="round"/><path d="M335.68692,134.27985l6.33002,35.66374l-12.88163,-1.43428l-0.75624,-25.42197z" data-paper-data="{&quot;index&quot;:null}" fill="#7f00ff" stroke="#6600cc" stroke-width="2" stroke-linecap="round"/><path d="M334.84896,139.25958c0,0 -8.19237,1.84866 -13.08914,2.02554c-6.20127,0.22401 -21.13787,-0.78917 -21.13787,-0.78917c0,0 -3.76492,-35.47535 -4.17189,-46.74173c-0.23971,-6.63607 1.95367,-14.66622 1.95367,-14.66622l37.02247,0.52593c0,0 0.99425,8.54755 0.94244,13.9009c-0.10282,10.62508 -1.51968,45.74476 -1.51968,45.74476z" data-paper-data="{&quot;index&quot;:null}" fill="#7f00ff" stroke="#6600cc" stroke-width="2" stroke-linecap="butt"/><path d="M355.74375,97.6799c0,0 -0.66749,3.80281 -2.32214,3.99761c-1.11454,0.1312 -3.55219,-2.1271 -6.15339,-2.19556c-1.02002,-0.02684 -1.99794,2.83141 -3.10349,2.86098c-0.83899,0.02245 -2.18214,-2.69937 -2.78053,-1.98973c-0.94867,1.12507 -2.26901,3.74115 -3.91148,4.01414c-1.56755,0.26055 -3.47861,-1.86259 -3.58826,0.76054c-0.16282,3.89507 -4.53872,-4.34029 -4.53872,-4.34029l-6.95232,-59.05576c0,0 -18.27717,-4.76774 -28.68912,-8.87273c-4.46969,-1.7622 -8.19421,-3.95818 -7.24205,-4.6875c2.46391,-1.88723 19.45071,-9.68268 34.91,-10.6737c13.70115,-0.87832 26.21172,4.93904 26.21172,4.93904l8.15977,75.24296z" data-paper-data="{&quot;index&quot;:null}" fill="#000000" stroke="#000000" stroke-width="2" stroke-linecap="butt"/><path d="M336.84455,46.82479c5.66397,14.088 1.57644,28.57876 -12.51155,34.24274c-14.08799,5.66397 -35.80249,0.28929 -41.46647,-13.79869c-4.54438,-11.3032 -2.28421,-22.06121 6.82332,-29.93213c0.86539,-0.74789 4.30858,-2.46232 5.27632,-3.10605c1.54147,-1.02537 3.53316,-4.13599 5.24392,-4.82379c1.01535,-0.40821 2.61342,1.71556 3.72821,1.64426c1.96177,-0.12548 3.49536,-2.20516 5.3645,-2.2028c3.04426,0.00383 6.48325,1.53295 9.34285,2.38733c0.83678,0.25001 3.45342,-4.39001 4.25483,-4.09117c7.08127,2.64064 10.91897,12.156 13.94407,19.68032z" data-paper-data="{&quot;index&quot;:null}" fill="#ffd499" stroke="#dfba86" stroke-width="2" stroke-linecap="butt"/><path d="M276.17106,115.28655c0,4.42976 -2.08933,8.0208 -4.66665,8.0208c-2.57732,0 -4.66665,-3.59103 -4.66665,-8.0208c0,-4.42976 2.08933,-8.0208 4.66665,-8.0208c2.57732,0 4.66665,3.59103 4.66665,8.0208z" data-paper-data="{&quot;index&quot;:null}" fill="#ffd499" stroke="#dfba86" stroke-width="2" stroke-linecap="butt"/><path d="M361.18185,115.54733c0,4.26868 -2.48108,7.72913 -5.54164,7.72913c-3.06056,0 -5.54164,-3.46045 -5.54164,-7.72913c0,-4.26868 2.48108,-7.72913 5.54164,-7.72913c3.06056,0 5.54164,3.46045 5.54164,7.72913z" data-paper-data="{&quot;index&quot;:null}" fill="#ffd499" stroke="#dfba86" stroke-width="2" stroke-linecap="butt"/><path d="M296.23895,47.9574c3.03496,-0.12589 5.62207,2.8288 5.77849,6.59951c0.15641,3.77069 -2.17709,6.92952 -5.21205,7.05541c-3.03496,0.1259 -5.62208,-2.8288 -5.77849,-6.5995c-0.15641,-3.77069 2.1771,-6.92952 5.21206,-7.05542z" fill="#ffffff" stroke="none" stroke-width="0" stroke-linecap="butt"/><path d="M312.30642,48.43852c3.03495,-0.12589 5.62208,2.82881 5.77849,6.59951c0.15641,3.7707 -2.17711,6.92952 -5.21206,7.05542c-3.03495,0.12589 -5.62208,-2.82881 -5.77849,-6.59951c-0.15641,-3.7707 2.17711,-6.92952 5.21206,-7.05542z" fill="#ffffff" stroke="none" stroke-width="0" stroke-linecap="butt"/><path d="M293.29054,58.58982l-0.14506,-3.49699" fill="none" stroke="#000000" stroke-width="2" stroke-linecap="round"/><path d="M310.53345,57.02798l-0.12434,-2.99742" fill="none" stroke="#000000" stroke-width="2" stroke-linecap="round"/><path d="M299.92429,77.77279c0,0 4.18378,-9.96418 13.54573,-5.71225c2.666,1.21082 6.1693,11.7582 6.1693,11.7582" fill="none" stroke="#000000" stroke-width="2" stroke-linecap="round"/><path d="M295.78739,41.46405l8.09724,8.09724l8.09724,-8.09724" fill="none" stroke="#000000" stroke-width="2" stroke-linecap="round"/></g></g></svg>