<svg version="1.1" xmlns="http://www.w3.org/2000/svg" xmlns:xlink="http://www.w3.org/1999/xlink" width="486.50467" height="179.87588" viewBox="0,0,486.50467,179.87588"><g transform="translate(3.29223,-181.23227)"><g data-paper-data="{&quot;isPaintingLayer&quot;:true}" fill-rule="nonzero" stroke="none" stroke-width="0" stroke-linecap="butt" stroke-linejoin="miter" stroke-miterlimit="10" stroke-dasharray="" stroke-dashoffset="0" style="mix-blend-mode: normal"><path d="M-3.29223,361.10813v-163.89187h231.60964v163.89189z" fill="#d69b00"/><path d="M-3.29223,201.89449v-20.66222h231.20147v20.66222l-23.62032,25.13352l-23.28605,-27.86704l-17.50201,27.06054l-29.21369,-27.71875l-24.78368,18.55532l-30.53375,-15.93977l-30.36993,17.91163l-20.14779,-14.01149l-18.46157,17.92812z" fill="#00d624"/><path d="M228.31415,360.36346v-75.56741h254.02453v75.56742z" fill="#d69b00"/><path d="M228.31415,293.50088v-20.66222h254.89829v20.66222l-26.04128,25.13352l-25.67273,-27.86704l-19.29586,27.06054l-32.20792,-27.71875l-27.32386,18.55532l-33.66327,-15.93977l-33.48267,17.91163l-22.21282,-14.01149l-20.35378,17.92812z" fill="#00d624"/></g></g></svg>