<svg version="1.1" xmlns="http://www.w3.org/2000/svg" xmlns:xlink="http://www.w3.org/1999/xlink" width="103.46635" height="107.18789" viewBox="0,0,103.46635,107.18789"><g transform="translate(-185.58427,-126.38893)"><g data-paper-data="{&quot;isPaintingLayer&quot;:true}" fill-rule="nonzero" stroke-linejoin="miter" stroke-miterlimit="10" stroke-dasharray="" stroke-dashoffset="0" style="mix-blend-mode: normal"><g data-paper-data="{&quot;index&quot;:null}" fill="#949494" stroke="#000000" stroke-width="2"><path d="M218.80023,222.48212c0,0 -11.12021,-7.93841 -11.14928,-15.34283c-0.01045,-2.66163 -0.30303,-2.72834 -0.40511,-7.14377c-0.03677,-1.59042 0.04182,-3.27502 0.02747,-5.19789c-0.0385,-5.15635 -0.11493,-10.69765 -0.11493,-10.69765c0,0 12.51314,-3.57202 16.58148,-5.50271c0.39281,-0.18641 19.66008,-8.80573 20.05536,-8.99643c9.67438,-4.66731 6.44085,-3.31477 6.44085,-3.31477c0,0 3.12558,-5.08164 4.72706,-5.49811c3.07533,-0.79973 4.36579,-5.02035 8.30932,-0.63435c1.85353,2.06149 1.81914,2.40428 3.70139,5.54531c2.74766,4.58522 6.44768,11.82183 7.13041,17.46422c0.91886,7.59379 -1.74783,13.11446 -1.74783,13.11446z" stroke-linecap="butt"/><path d="M239.38738,211.66039c0,0 4.42111,-12.02737 0.0852,-20.3452c-2.16766,-3.72514 -10.24543,-9.60648 -10.24543,-9.60648l-5.78656,-2.77514l4.83728,2.43689c0,0 3.50375,-2.18375 5.42383,-3.38044c2.17399,-1.35496 6.95321,-4.33365 6.95321,-4.33365l-0.92744,-1.40028" stroke-linecap="round"/><path d="M253.52288,173.07093c0,0 3.03657,-0.87341 6.14714,-0.53381c3.79115,0.41391 7.90591,2.27308 9.45446,5.22533c1.536,2.92833 2.85456,7.59294 1.60152,11.42954c-1.54619,4.73417 -6.069,8.44899 -7.64666,8.98612c-4.2782,1.45659 -11.10247,-4.30857 -12.19689,-5.95227c-3.01447,-4.5274 -3.73958,-11.70466 -3.42781,-13.26111c0.58131,-2.90206 6.06824,-5.89381 6.06824,-5.89381" stroke-linecap="round"/><path d="M213.84573,206.36063c-2.10581,-4.43737 -0.47292,-8.28492 2.4838,-11.57934c0.91273,-1.01698 3.01231,-3.12305 4.31224,-3.73994c5.51089,-2.61526 11.1504,-0.04955 13.90628,5.75764c2.75588,5.80719 0.28607,13.79879 -5.22483,16.41405c-5.5109,2.61527 -12.72163,-1.04524 -15.47749,-6.85242z" stroke-linecap="butt"/></g><g data-paper-data="{&quot;index&quot;:null}" stroke="#000000" stroke-width="2" stroke-linecap="round"><path d="M186.81987,178.51178c0,0 9.7848,0.88885 14.82238,3.76526c2.16668,1.23715 4.4766,3.28912 5.02765,4.72759c0.63981,1.67016 -0.69191,2.64788 -1.08372,2.68096c-2.64278,0.22316 -7.58981,-1.47221 -9.52389,-2.57915c-3.39017,-1.94031 -9.47802,-8.62486 -9.47802,-8.62486" fill="#d8d8d8"/><path d="M203.45076,183.27772l-2.40418,5.67857" fill="none"/></g><path d="M253.0168,202.73271l-1.18763,-15.20168c0,0 0.05333,-5.51103 1.7352,-6.53118c0.95481,-0.57916 4.04298,-2.93281 6.09158,-3.27646c2.5653,-0.43031 4.54981,1.89493 5.66353,2.33741c0.48628,0.1932 1.71137,4.38239 1.71137,4.38239c0,0 -0.13387,3.43598 -0.22249,5.71047c-0.13152,3.37576 -0.49009,12.57905 -0.49009,12.57905z" data-paper-data="{&quot;index&quot;:null}" fill="#949494" stroke="#000000" stroke-width="2.5" stroke-linecap="butt"/><g data-paper-data="{&quot;index&quot;:null}"><g><path d="M236.11824,222.17302l-4.78099,-3.52191l2.95841,-4.01603l4.78099,3.52191z" data-paper-data="{&quot;index&quot;:null}" fill="#000000" stroke="none" stroke-width="0" stroke-linecap="butt"/><path d="M246.9756,213.92643l4.34068,2.46893l4.39391,1.75834l2.08469,3.96725l0.95903,-3.26284l2.03686,-1.75294l1.05392,-1.3502l2.23823,-1.26147l0.90038,3.87853l-1.21903,9.91273l-1.05392,1.3502l-2.58157,2.66489l-9.7291,-0.4907l-7.26635,-7.92833z" fill="#949494" stroke="#000000" stroke-width="2.5" stroke-linecap="round"/><path d="M242.16815,224.04671l-4.53588,0.13656l-1.95431,-2.52834l0.26618,-3.55293l4.03824,-3.03215l5.15156,-1.99596l1.84166,0.85256z" fill="#242424" stroke="#000000" stroke-width="2.5" stroke-linecap="round"/><path d="M239.20081,215.96405l2.62323,-0.04167l2.81302,3.78362" fill="none" stroke="#000000" stroke-width="2.5" stroke-linecap="round"/></g><g stroke="none" stroke-linecap="butt"><path d="M257.52805,231.63908l-5.79623,0.11221l-7.63194,-9.09646l3.17494,-7.14302l7.5356,3.13814l3.13195,5.24759z" fill="#8c6200" stroke-width="NaN"/><path d="M245.57309,227.16065l-1.69982,-5.13321l3.29932,-6.84113l2.71855,1.57437z" fill="#8c0081" stroke-width="NaN"/><path d="M264.62409,218.90016l-2.11774,11.12839l-5.69332,0.70161l0.57798,-7.30045l1.57132,-2.96053l0.95097,-3.33386l1.07103,-0.83738l2.50869,-1.11219z" fill="#8c0081" stroke-width="0"/><g fill="#ffffff" stroke-width="0.5"><path d="M248.34458,221.29143c-0.00024,-0.00038 -0.00049,-0.00076 -0.00074,-0.00115c-0.14877,-0.2297 0.08092,-0.37848 0.08092,-0.37848c1.1296,-0.71516 2.16559,-0.12205 2.35579,0.97221c-0.12497,-0.03633 -0.21226,0.07916 -0.21226,0.07916c-0.5921,0.7833 -1.19708,1.55293 -1.7413,2.36785c-0.46809,0.01029 -0.88496,-0.09983 -1.05036,-0.39091c-0.23299,-0.41003 -0.16976,-1.01341 -0.10675,-1.44245c0.12699,-0.55158 0.35168,-0.84523 0.67469,-1.20626zM248.46398,222.98841c0.06835,-0.09043 0.05046,-0.21915 -0.03997,-0.2875c-0.09043,-0.06836 -0.21916,-0.05045 -0.28752,0.03997c-0.06836,0.09043 -0.05046,0.21915 0.03997,0.2875c0.09043,0.06835 0.21915,0.05046 0.2875,-0.03997zM249.44748,221.63056c0.06836,-0.09043 0.05044,-0.21916 -0.03999,-0.28751c-0.09043,-0.06836 -0.21915,-0.05047 -0.28751,0.03996c-0.06836,0.09043 -0.05045,0.21916 0.03997,0.28752c0.09043,0.06835 0.21915,0.05046 0.2875,-0.03997z"/><path d="M251.34414,220.9617c0.22919,-0.30321 0.53238,-0.07402 0.53238,-0.07402l-0.08398,-0.01318c0.20618,0.04053 0.39776,0.13418 0.57398,0.25788l0.00549,-0.01848l0.01219,0.00362l0.05906,-0.09684l0.40328,0.24592c0.01219,0.00723 0.0241,0.01521 0.03567,0.02397c0.16746,0.12657 0.20061,0.36493 0.07402,0.53238c-0.06887,0.09112 -0.17087,0.14246 -0.27649,0.14995c0.00036,0.00678 0.00035,0.01055 0.00035,0.01055c-0.00402,0.59447 -0.05546,1.17891 -0.09355,1.76499c0.26336,-0.10764 0.52972,-0.21035 0.80015,-0.30699c0.74514,-0.26628 1.4226,-0.83511 2.20539,-0.67576c-0.05353,-0.01113 -0.18678,-0.03884 -0.24327,-0.0506l0.03653,-0.13037l-0.05638,-0.00152l0.01091,-0.40412c0.00114,-0.07799 0.02623,-0.15634 0.07686,-0.22334c0.12659,-0.16745 0.36494,-0.20059 0.53239,-0.074c0.02774,0.02096 0.0518,0.045 0.07205,0.07126l0.24056,0.29835l-0.05278,0.04255c0.23051,0.23729 0.31196,0.4891 0.32961,0.97153c0.05613,0.09616 0.0894,0.23945 -0.03553,0.40473c-0.22919,0.30321 -0.53239,0.07403 -0.53239,0.07403l-0.18879,-0.33327c0.0011,-0.04392 -0.00122,-0.08615 -0.00572,-0.12682c-0.53081,0.224 -1.28206,0.51757 -1.41357,0.57254c-0.61186,0.25574 -1.21568,0.51101 -1.81548,0.77225c-0.00312,0.19165 -0.00163,0.38409 0.00654,0.57773c0.01579,0.37434 0.08221,0.73783 0.13659,1.10386c0.24436,-0.08992 0.52386,-0.14251 0.89062,-0.14181l0.44582,-0.06199c0.09633,-0.0134 0.19778,0.00997 0.28151,0.07324c0.16746,0.12658 0.2006,0.36494 0.07403,0.53239c-0.02864,0.03788 -0.06298,0.06888 -0.10094,0.09271l-0.62668,0.4144l-0.01667,-0.02521c-0.4686,0.43053 -0.92955,0.68117 -1.78662,0.92815l-0.1858,0.02969c0,0 -0.37645,0.05233 -0.42879,-0.32412c-0.00509,-0.03666 -0.00613,-0.07027 -0.00383,-0.10103c-0.02128,-0.02304 -0.04166,-0.05049 -0.06069,-0.08308c-0.19172,-0.32817 0.13644,-0.5199 0.13644,-0.5199c0.26225,-0.15181 0.47539,-0.29853 0.67396,-0.42953c-0.05078,-0.48753 -0.1668,-0.96262 -0.1885,-1.4576c-0.004,-0.09088 -0.00645,-0.18159 -0.00759,-0.27214c-0.53481,0.23958 -1.06779,0.48613 -1.60183,0.74435c0.07408,0.34066 0.06171,0.66088 -0.16259,0.83183c-1.04137,0.79371 -1.2874,-1.3722 -1.27654,-1.78746l0.06787,-0.25363c0,0 0.12155,-0.36013 0.48166,-0.23857c0.02075,0.007 0.0399,0.0148 0.05758,0.02327c0.4555,-0.65559 0.94576,-1.28575 1.42935,-1.92331c-0.00205,0.06731 -0.00699,0.13583 -0.01501,0.20546c-0.01232,0.10718 -0.11031,1.01442 -0.16523,1.10679c-0.16299,0.27417 -0.67082,0.51388 -1.21887,0.62703c0.02155,0.01251 0.04051,0.02612 0.05717,0.04059c0.19527,0.02122 0.29221,0.21694 0.29221,0.21694c0.04956,0.10061 0.12466,0.2501 0.20143,0.4239c0.62478,-0.3102 1.2444,-0.61567 1.8751,-0.89907c0.03834,-0.70051 0.111,-1.39705 0.1112,-2.10219c0,0 0.00016,-0.04036 0.0135,-0.0947c-0.22447,0.00959 -0.45087,-0.00504 -0.67282,-0.03482c0,0 -0.37635,-0.05309 -0.32325,-0.42944c0.03594,-0.25468 0.21992,-0.3127 0.3351,-0.32358c0.013,-0.04323 0.03582,-0.08886 0.07168,-0.1363z"/></g></g></g><path d="M230.91822,196.43032l11.34519,13.09464l-7.6682,8.27019l-1.50797,0.52438l-11.99539,-10.00951l-3.56899,-5.96366l1.64352,-5.14594l4.51431,-2.94212l3.35904,-0.02445z" data-paper-data="{&quot;index&quot;:null}" fill="#949494" stroke="#000000" stroke-width="2.5" stroke-linecap="round"/><g data-paper-data="{&quot;index&quot;:null}"><g><path d="M266.25042,209.63982l-3.15488,-5.03075l4.22583,-2.6501l3.15488,5.03075z" fill="#000000" stroke="none" stroke-width="0" stroke-linecap="butt"/><path d="M287.803,230.3624c0,0 0.07825,1.26575 -0.9562,1.3386c-2.71067,0.1909 -15.90816,-0.15097 -15.90816,-0.15097l-9.9761,-14.4891c0,0 7.01669,-2.18114 9.74102,-3.31952c1.05692,-0.44164 8.0137,8.73896 8.80524,8.70022c0.82275,-0.04027 -1.60082,2.84679 -1.52667,3.65287c0.08371,0.91014 2.63353,-0.2451 3.17013,-0.2451c1.5119,0 4.27547,0.47505 4.27547,0.47505l2.37526,4.03795z" fill="#949494" stroke="#000000" stroke-width="2.5" stroke-linecap="butt"/><path d="M259.29985,216.11082l5.70063,-8.55094l2.9246,-0.58112l2.44228,0.83612l1.52138,2.35779l-0.23753,3.32537z" fill="#242424" stroke="#000000" stroke-width="2.5" stroke-linecap="butt"/><path d="M266.1881,214.68567l-1.90021,-0.9501l-0.71258,-2.13774" fill="none" stroke="#000000" stroke-width="2.5" stroke-linecap="round"/><path d="M278.06441,225.49311l-1.90021,5.70063" fill="none" stroke="#000000" stroke-width="2.5" stroke-linecap="round"/></g><g stroke="none" stroke-linecap="butt"><path d="M272.40076,230.86938l-10.16992,-12.77164l9.12586,-4.54021l1.36026,3.00741l5.18466,6.38923z" fill="#8c6200" stroke-width="NaN"/><path d="M264.72353,221.11324l-2.25813,-3.20357l8.94351,-3.971l1.38313,3.20357z" fill="#8c0081" stroke-width="NaN"/><path d="M272.00373,231.08844l3.75,-10.25l2.25,2l0.19822,4.28095l3.06964,-0.27925l3.39558,0.69924l0.91506,1.00548l1.2965,2.41859z" fill="#8c0081" stroke-width="0"/><g fill="#ffffff" stroke-width="0.5"><path d="M267.91905,219.11729c-0.00014,-0.00043 -0.00027,-0.00086 -0.00041,-0.0013c-0.08184,-0.26115 0.17932,-0.34299 0.17932,-0.34299c1.27986,-0.38655 2.11918,0.46231 2.00941,1.56755c-0.11067,-0.06846 -0.22571,0.01944 -0.22571,0.01944c-0.78022,0.59614 -1.56921,1.17565 -2.31177,1.81508c-0.45375,-0.11543 -0.82591,-0.33315 -0.90732,-0.65789c-0.11469,-0.45744 0.10781,-1.02187 0.28341,-1.41836c0.27006,-0.49744 0.56518,-0.7202 0.97306,-0.98153zM267.61813,220.49656c-0.06882,-0.09008 -0.19763,-0.10731 -0.28771,-0.03848c-0.09008,0.06882 -0.10731,0.19763 -0.03848,0.28771c0.06882,0.09008 0.19763,0.10731 0.28771,0.03848c0.09008,-0.06882 0.10731,-0.19763 0.03848,-0.28771zM268.89083,219.73938c0.09008,-0.06882 0.10731,-0.19763 0.03848,-0.28771c-0.06882,-0.09008 -0.19763,-0.10731 -0.28771,-0.03848c-0.09007,0.06882 -0.10731,0.19763 -0.03848,0.28771c0.06883,0.09008 0.19764,0.10731 0.28772,0.03848z"/><path d="M270.89735,219.60284c0.302,-0.23075 0.53276,0.07125 0.53276,0.07125l-0.07739,-0.03519c0.18779,0.09425 0.3473,0.23579 0.48397,0.40217l0.01024,-0.01635l0.01077,0.00675l0.08284,-0.07749l0.3227,0.34493c0.00981,0.01023 0.01915,0.02111 0.02795,0.03264c0.12744,0.16679 0.09555,0.40532 -0.07125,0.53276c-0.09076,0.06935 -0.20277,0.0915 -0.30655,0.07043c-0.00148,0.00663 -0.0025,0.01025 -0.0025,0.01025c-0.16307,0.57169 -0.36914,1.12101 -0.56277,1.67548c0.28258,-0.03317 0.5667,-0.06082 0.85314,-0.08151c0.78922,-0.05701 1.59427,-0.42367 2.3058,-0.06052c-0.04858,-0.02506 -0.16955,-0.08745 -0.22083,-0.11389l0.07011,-0.11583l-0.05392,-0.01657l0.11873,-0.38644c0.02199,-0.07484 0.06713,-0.14361 0.13386,-0.1946c0.1668,-0.12744 0.40532,-0.09555 0.53276,0.07125c0.02111,0.02763 0.03786,0.05723 0.05033,0.08796l0.15187,0.35187l-0.06224,0.02687c0.15855,0.29034 0.16959,0.55478 0.05741,1.02431c0.02832,0.10768 0.02201,0.25464 -0.14263,0.38044c-0.30201,0.23075 -0.53276,-0.07125 -0.53276,-0.07125l-0.09265,-0.37166c0.01282,-0.04202 0.02191,-0.08333 0.02845,-0.12372c-0.57141,0.07368 -1.37384,0.15536 -1.51527,0.1731c-0.658,0.08255 -1.30812,0.1668 -1.95597,0.25789c-0.05432,0.18382 -0.10442,0.36964 -0.1484,0.55838c-0.08503,0.3649 -0.11836,0.73289 -0.16399,1.10012c0.25952,-0.02119 0.54289,0.00298 0.89606,0.10187l0.44614,0.05966c0.09641,0.01289 0.1879,0.06257 0.25162,0.14596c0.12744,0.1668 0.09555,0.40532 -0.07125,0.53276c-0.03773,0.02883 -0.07913,0.04951 -0.12208,0.06231l-0.71476,0.23145l-0.00931,-0.02875c-0.56678,0.28934 -1.07802,0.40737 -1.96991,0.41584l-0.18697,-0.02115c0,0 -0.37673,-0.05039 -0.32634,-0.42711c0.00491,-0.03669 0.01291,-0.06933 0.02336,-0.09836c-0.01433,-0.02788 -0.02662,-0.0598 -0.03623,-0.09629c-0.09684,-0.36752 0.27068,-0.46437 0.27068,-0.46437c0.29334,-0.07604 0.53798,-0.16032 0.76438,-0.23337c0.08163,-0.48331 0.09705,-0.97213 0.20871,-1.45484c0.0205,-0.08863 0.04242,-0.17667 0.06555,-0.26423c-0.57944,0.08761 -1.15898,0.18245 -1.74265,0.28822c-0.01985,0.34805 -0.11751,0.65326 -0.37939,0.75791c-1.21588,0.48585 -0.87293,-1.66685 -0.75127,-2.06402l0.13331,-0.22619c0,0 0.21354,-0.31442 0.52795,-0.10088c0.01812,0.01231 0.03447,0.02495 0.04923,0.03784c0.61442,-0.50967 1.25552,-0.98553 1.89217,-1.47031c-0.01998,0.0643 -0.04311,0.12901 -0.06947,0.19395c-0.04057,0.09997 -0.37793,0.94783 -0.45557,1.02212c-0.23046,0.22051 -0.78393,0.31548 -1.34227,0.27773c0.01741,0.01782 0.03203,0.03603 0.04421,0.05441c0.18246,0.07274 0.22345,0.28727 0.22345,0.28727c0.02081,0.11021 0.05315,0.27435 0.08057,0.46236c0.68502,-0.13157 1.36381,-0.25996 2.04737,-0.36411c0.22453,-0.66466 0.48106,-1.31631 0.67007,-1.99564c0,0 0.01095,-0.03883 0.03837,-0.08763c-0.21885,-0.05087 -0.43306,-0.12561 -0.63892,-0.21373c0,0 -0.34839,-0.15193 -0.19645,-0.50032c0.10282,-0.23577 0.29561,-0.24239 0.40951,-0.22204c0.02409,-0.03816 0.0583,-0.07602 0.10556,-0.11212z"/></g></g></g><g data-paper-data="{&quot;index&quot;:null}"><g stroke="#000000" stroke-width="2.5"><path d="M255.30196,160.43862c0,0 0.37382,-1.49134 0,-2.61279c-0.33436,-1.00305 -2.13774,-3.80042 -2.13774,-3.80042c0,0 -4.82884,-3.36413 -4.50429,-6.71662c0.03684,-0.38056 1.48571,-8.6683 6.28563,-13.35727c3.43077,-3.35147 10.43238,-3.70263 11.33658,-3.33724c0.69893,0.28244 5.09711,0.72703 9.16966,2.53989c5.73937,2.55483 11.05964,6.41853 11.05964,6.41853l-2.00675,13.6172l-20.88931,-0.1146l0.71258,7.36331z" fill="#949494" stroke-linecap="butt"/><path d="M285.70533,146.89962l-13.06394,-2.61279l-3.32537,-3.32537l-3.32537,-9.9761l11.16373,3.56289l8.78847,4.98805z" fill="#000000" stroke-linecap="round"/><path d="M268.36591,142.62414h1.66268" fill="none" stroke-linecap="round"/><path d="M267.41581,144.99943l2.37526,0.23753" fill="none" stroke-linecap="round"/><path d="M266.70322,147.37469l1.42516,0.23753" fill="none" stroke-linecap="round"/><path d="M282.85133,153.18679c0,0 -12.49164,-0.39597 -18.91936,0.1673c-1.58149,0.13859 -0.21237,1.97931 -1.19817,1.99021c-8.7343,0.0966 -9.63865,-1.9509 -10.4463,-2.94232c-2.00598,-2.46241 -4.19835,-5.75255 -4.09135,-6.33654c0.13759,-0.75094 1.86893,-2.51352 1.86893,-2.51352l3.92426,1.53509l5.4631,1.90021l5.70063,1.18763l9.9761,0.23753l8.07589,4.27547" fill="#373737" stroke-linecap="round"/><path d="M282.51743,155.50048l-0.9501,2.37526h-12.35136l-2.61279,-0.47505l-0.9501,-2.37526l0.47505,-1.90021l1.18763,-1.42516l1.42516,0.47505l1.18763,1.42516l0.9501,1.18763z" fill="#000000" stroke-linecap="round"/><path d="M259.57744,156.40069l-0.23753,2.61279" fill="none" stroke-linecap="round"/><path d="M255.53949,155.92563l8.55094,0.71258" fill="none" stroke-linecap="round"/><path d="M258.62732,134.31075l-1.18763,2.13774l0.47505,2.13774l-3.56289,-1.90021l0.23753,-4.513l3.32537,-3.80042l1.42516,1.90021l0.23753,3.32537z" fill="#151515" stroke-linecap="round"/><path d="M259.33992,137.99436l-3.32537,0.47505l-1.66268,-3.32537l0.9501,-1.42516l2.37526,-2.13774l1.90021,-0.23753l1.18763,0.9501l1.18763,1.18763l0.47505,2.61279z" fill="none" stroke-linecap="round"/></g><path d="M280.30918,136.9514c2.56859,0.75552 3.17067,2.26139 2.7603,4.07085c-0.41037,1.80946 -2.31153,2.9206 -4.24638,2.48179c-1.93484,-0.43881 -3.17067,-2.26139 -2.7603,-4.07085c0.41037,-1.80946 1.60058,-3.26001 4.24638,-2.48179z" fill="#54ff00" stroke="none" stroke-width="0" stroke-linecap="butt"/><path d="M270.70487,139.05451c-0.99389,0.11043 -1.10432,-0.88345 -1.10432,-0.88345l-0.03459,-1.38182c0.60581,-1.51114 1.15258,-2.67069 2.36411,-3.77602c0,0 0.74741,-0.66436 1.41177,0.08305c0.66436,0.74741 -0.08305,1.41177 -0.08305,1.41177c-0.99724,0.8552 -1.35583,1.82093 -1.83589,3.02398l0.16541,0.41818c0,0 0.11043,0.99389 -0.88345,1.10432z" fill="#54ff00" stroke="none" stroke-width="0.5" stroke-linecap="butt"/></g></g></g></svg>