<svg version="1.1" xmlns="http://www.w3.org/2000/svg" xmlns:xlink="http://www.w3.org/1999/xlink" width="155.15016" height="248.43156" viewBox="0,0,155.15016,248.43156"><g transform="translate(-158.9631,-117.26409)"><g data-paper-data="{&quot;isPaintingLayer&quot;:true}" fill-rule="nonzero" stroke-linecap="butt" stroke-linejoin="miter" stroke-miterlimit="10" stroke-dasharray="" stroke-dashoffset="0" style="mix-blend-mode: normal"><g><path d="M222.47206,363.19565v-111.4h25.33333v111.4z" fill="#fffe00" stroke="#abab00" stroke-width="5"/><path d="M161.4631,194.83917c0,-41.46282 33.61226,-75.07508 75.07508,-75.07508c41.46282,0 75.07508,33.61226 75.07508,75.07508c0,41.46282 -33.61226,75.07508 -75.07508,75.07508c-41.46282,0 -75.07508,-33.61226 -75.07508,-75.07508z" fill="#fffe00" stroke="#abab00" stroke-width="5"/><path d="M274.51576,223.757c0,9.32197 -20.40377,16.87892 -45.57309,16.87892c-25.16932,0 -45.57309,-7.55695 -45.57309,-16.87892c0,-9.32197 20.40377,-16.87892 45.57309,-16.87892c25.16932,0 45.57309,7.55695 45.57309,16.87892z" fill="#000000" stroke="none" stroke-width="0"/><path d="M292.132,183.37528c2.40668,0.96267 1.44401,3.36935 1.44401,3.36935l-0.90153,1.79823c-1.72715,1.04702 -2.58861,2.59399 -4.80987,2.99754c-2.97069,0.53971 -6.05454,0.11397 -8.95074,1.12605c0,0 -0.66007,0.22002 -1.41025,0.0901c-0.33588,1.01976 -1.06021,1.8352 -1.57519,2.74388c-0.23102,0.40762 -0.29106,0.91161 -0.58024,1.28026c-0.93973,1.19796 -2.53604,2.25211 -3.81482,3.02325c-0.45572,0.1473 -0.93067,0.27911 -1.41738,0.3894c0.74052,0.83699 1.46477,1.6991 2.24831,2.5482c2.02991,2.19973 5.30166,4.76195 6.0071,7.86678c0.42589,1.87446 0.30329,3.84294 0.30329,5.74937v0.80462c0,0 0,2.59208 -2.59208,2.59208c-2.59208,0 -2.59208,-2.59208 -2.59208,-2.59208v-0.80462c0,-1.39359 0.15737,-2.93339 -0.09902,-4.30844c-0.10678,-0.5727 -0.85731,-1.35239 -1.16843,-1.74805c-0.71596,-0.91053 -1.37458,-1.74834 -2.19763,-2.57076c-2.17154,-2.16987 -3.90643,-4.75795 -6.36052,-6.59852c0,0 -0.69041,-0.51781 -0.9757,-1.35423c-0.51689,-0.04089 -1.03566,-0.10349 -1.52878,-0.27921c-1.96373,-0.69977 -3.18922,-2.24497 -4.50986,-3.7404c-0.39736,-0.44996 -0.92122,-0.79787 -1.23832,-1.30758c-0.53716,-0.86343 -0.58422,-1.95115 -0.78365,-2.94829c-0.07081,-0.35407 -0.35646,-0.64762 -0.40231,-1.00578c-0.05554,-0.43382 -0.04677,-3.09548 -0.04677,-3.90983c0,0 0,-0.92037 0.54843,-1.66426c-0.04799,-0.11983 -0.09785,-0.2402 -0.14996,-0.36114c-0.15438,-0.35829 -0.36662,-0.69288 -0.55157,-1.03778c-0.02869,0.00493 -0.05699,0.0136 -0.08484,0.02672c-0.331,0.15602 -0.35027,0.67205 -0.64598,0.88759c-0.63027,0.45938 -1.45811,0.6074 -2.0695,1.09163c-0.69276,0.54869 -0.95859,1.49393 -1.54833,2.1521c-1.04769,1.16925 -2.23304,2.24226 -3.34382,3.35304l-0.40231,0.40231c0,0 -1.83287,1.83287 -3.66575,0c-1.83287,-1.83287 0,-3.66575 0,-3.66575l0.40231,-0.40231c1.02497,-1.02497 2.12097,-2.00997 3.09318,-3.08395c0.7571,-0.83636 1.2115,-1.94666 2.07248,-2.67565c0.68727,-0.58192 1.61498,-0.81043 2.35593,-1.32224c0.64057,-0.44247 1.03945,-1.25156 1.7679,-1.52629c0.33804,-0.12749 0.69332,-0.17618 1.05586,-0.19168c-0.04145,-0.77983 -0.04615,-1.57646 -0.04096,-2.44245c0.0045,-0.75075 -0.03995,-1.53766 -0.00569,-2.31297c-0.71159,-0.10118 -1.41514,-0.24306 -2.06414,-0.36222c-3.48484,-0.63985 -7.09458,-1.59257 -10.05528,-3.61867c-0.6508,-0.44537 -1.38328,-0.81859 -1.89035,-1.42255c-1.43545,-1.70975 -1.59166,-3.11887 -1.47355,-5.15757c0.04453,-0.76867 -0.12478,-1.60055 0.15864,-2.31016c-0.7621,-0.76801 -0.7621,-1.91411 -0.7621,-1.91411v-0.40231c0,-0.52537 -0.02031,-2.55212 0.06934,-3.00941c0.05769,-0.29426 0.3435,-0.51058 0.40231,-0.80462c0.0789,-0.3945 -0.09937,-0.81709 0,-1.20694c0.13498,-0.52956 0.52335,-0.96718 0.68706,-1.48858c0.88623,-2.82262 1.04342,-4.79461 3.16358,-7.13194c1.6201,-1.78605 3.59492,-2.10808 6.01719,-2.41076c5.37129,-0.67118 10.59384,0.81511 14.14518,5.124c1.11723,1.35555 2.12727,2.86299 2.70807,4.52082c0.41753,1.1918 0.31947,6.72595 0.31974,8.01667c0.00023,1.10269 0.00668,4.68922 -0.05491,4.95615c-0.51999,2.25362 -1.52635,3.83832 -2.73332,5.45894c1.37719,0.74186 2.57791,1.84729 3.691,3.03741c0.65233,-1.36019 2.33868,-1.36019 2.33868,-1.36019c0.6284,0 3.11698,-0.00115 3.21499,0.00755c3.6282,0.32175 7.0939,1.59573 10.7087,2.08616l1.32106,0.50556c0,0 2.40668,0.96267 1.44401,3.36935c-0.96267,2.40668 -3.36935,1.44401 -3.36935,1.44401l-0.6905,-0.29907c-2.58973,-0.28675 -4.99752,-1.02852 -7.52832,-1.58224c-1.27002,-0.27787 -2.46297,-0.33515 -3.69613,-0.34576c1.06471,0.88898 2.14548,1.75183 3.05251,2.85178c0.58995,0.71543 1.0358,1.70455 1.74979,2.3272c0.95492,0.83277 2.60143,1.81921 3.2491,2.94929c0.38201,0.66654 0.51525,1.32126 0.55998,1.99112c2.99106,-0.88212 6.09847,-0.82874 9.18021,-1.1719c0.97546,-0.10862 1.10809,-1.15157 2.02944,-1.42789l-0.09691,-0.21333c0,0 0.96267,-2.40668 3.36935,-1.44401zM241.9774,156.87864c0.86093,-0.71611 1.59929,-1.35356 2.76799,-1.86636c0,0 2.40668,-0.96267 3.36935,1.44401c0.96267,2.40668 -1.44401,3.36935 -1.44401,3.36935c-0.91476,0.2696 -1.65829,1.28814 -2.3959,1.85773c-0.42559,0.32865 -0.86364,0.64236 -1.31675,0.93189c-0.15039,0.09609 -0.41363,0.05867 -0.48762,0.22108c-0.06365,0.1397 0.17621,0.26409 0.19731,0.41615c0.06181,0.44542 -0.17534,0.90537 -0.08684,1.34626c0.11248,0.56031 2.12997,1.60401 2.45278,1.7551c3.74869,1.75458 7.88104,2.37764 11.97542,2.34322c0.44653,-0.83006 2.07645,-3.75321 2.25425,-4.56721c0.17692,-0.80998 -0.04322,-1.65763 -0.05491,-2.48662c-0.02422,-1.7178 0.02305,-3.43609 0.00112,-5.15392c-0.01158,-0.90727 0.20141,-1.85935 -0.08369,-2.72074c-0.33699,-1.01817 -1.01729,-1.90831 -1.71736,-2.7208c-3.18406,-3.69535 -7.70688,-4.03775 -12.17546,-2.76399c-0.83731,0.23868 -1.45743,2.06351 -1.66984,2.84283c-0.54661,2.00544 -1.04763,3.7813 -1.56828,5.68094c-0.00648,0.02363 -0.01231,0.04732 -0.01756,0.07108zM260.8245,191.35835c-0.31924,0.21282 -0.62272,0.34689 -0.90813,0.42086c0.79928,0.87292 1.82315,2.52228 2.92655,2.81571c0.91558,0.24349 1.86769,0.1384 2.77165,0.33135c0.29326,0.0626 0.51542,0.32305 0.80462,0.40231c0.71044,0.19472 2.22212,0.03296 2.94794,-0.23451c0.53895,-0.31835 1.4507,-0.92167 1.81755,-1.40218c0.15473,-0.20267 0.1029,-0.50712 0.22438,-0.7313c0.21852,-0.40327 1.04195,-1.21774 1.14504,-1.73949c0.1768,-0.89484 -0.24862,-2.03143 -0.05673,-2.97101c0.00095,-0.00465 0.00304,-0.00791 0.00608,-0.00997c-0.38379,-0.26285 -0.66709,-0.66685 -1.01834,-0.97746c-0.36221,-0.32031 -0.84802,-0.48063 -1.20694,-0.80462c-0.90993,-0.8214 -1.51858,-1.9713 -2.27333,-2.90286c-1.26663,-1.56334 -3.05526,-2.63794 -4.47635,-4.04861c-1.24787,-1.42613 -2.58236,-3.1205 -4.1525,-4.22813c-0.24686,-0.17415 -0.48964,-0.39265 -0.78602,-0.45121c-0.09776,-0.01931 -0.20021,-0.01762 -0.30493,-0.00413c0.09886,1.16794 -0.28201,2.58219 -0.13939,3.67852c0.18296,1.40645 0.66566,2.77101 1.22191,4.07567c0.67204,1.57625 0.78613,3.16643 1.77353,4.58302l0.40231,0.60347c0,0 1.43782,2.15674 -0.71891,3.59456z" fill="#000000" stroke="none" stroke-width="0.5"/></g></g></g></svg>