<svg version="1.1" xmlns="http://www.w3.org/2000/svg" xmlns:xlink="http://www.w3.org/1999/xlink" width="79.87979" height="93.89968" viewBox="0,0,79.87979,93.89968"><g transform="translate(-194.16121,-124.65298)"><g data-paper-data="{&quot;isPaintingLayer&quot;:true}" fill-rule="nonzero" stroke-width="1.5" stroke-linejoin="miter" stroke-miterlimit="10" stroke-dasharray="" stroke-dashoffset="0" style="mix-blend-mode: normal"><path d="M242.29552,168.33875c0,0 3.36225,-6.45582 6.63173,-5.40694c5.33074,1.71015 22.3137,14.69293 22.3137,14.69293c0,0 -0.3891,3.99895 -1.38924,5.46318c-2.58326,3.78195 -7.26011,-0.02375 -7.26011,-0.02375z" data-paper-data="{&quot;index&quot;:null}" fill="#fa0000" stroke="#7e0000" stroke-linecap="round"/><path d="M233.45081,159.75546c0,0 -3.88712,4.4595 -6.48925,4.42838c-4.86882,-0.05823 -20.46821,-4.75075 -20.46821,-4.75075c0,0 -5.66316,-1.71747 -5.70622,-4.61603c-0.1113,-7.49315 11.0694,-5.37389 18.38234,-3.73663c3.35065,0.75016 14.28135,8.67503 14.28135,8.67503z" data-paper-data="{&quot;index&quot;:null}" fill="#fa0000" stroke="#7e0000" stroke-linecap="round"/><path d="M219.10941,179.36537l19.3363,12.4999l-13.40535,21.449c0,0 -8.47073,-0.09257 -9.00304,-6.02625c-0.28316,-3.15638 8.17217,-13.40562 7.00178,-14.15541c-0.69554,-0.44559 -14.17953,2.46288 -15.55036,2.70766c-5.77946,1.03197 -6.25096,-7.0129 -6.25096,-7.0129z" data-paper-data="{&quot;index&quot;:null}" fill="#920000" stroke="#920000" stroke-linecap="butt"/><path d="M217.58478,178.31787c0,0 2.28067,-1.59654 3.7068,-3.60312c3.09725,-4.35786 14.15305,-21.52595 14.15305,-21.52595c0,0 6.17442,1.77469 8.90015,3.52087c3.39175,2.17286 9.89255,8.51828 9.89255,8.51828c0,0 -10.38653,15.56487 -13.29639,20.42054c-1.78557,2.97957 -2.50337,5.94442 -2.50337,5.94442z" data-paper-data="{&quot;index&quot;:null}" fill="#fa0000" stroke="#7e0000" stroke-linecap="butt"/><path d="M240.22296,137.89384c4.83949,-7.55427 14.88662,-9.75504 22.4409,-4.91555c7.55428,4.8395 9.75504,14.88662 4.91555,22.4409c-4.8395,7.55428 -14.88662,9.75504 -22.4409,4.91555c-7.55428,-4.8395 -9.75504,-14.88662 -4.91555,-22.4409z" data-paper-data="{&quot;index&quot;:null}" fill="#b2936b" stroke="#856e50" stroke-linecap="butt"/><path d="M261.68417,145.93135c1.46393,0.93783 1.43717,3.59234 -0.05977,5.92901c-1.49693,2.33666 -3.89719,3.47064 -5.36112,2.5328c-1.46394,-0.93784 -1.43719,-3.59234 0.05975,-5.92901c1.49694,-2.33667 3.89719,-3.47064 5.36113,-2.5328z" data-paper-data="{&quot;index&quot;:null}" fill="#ffffff" stroke="#bababa" stroke-linecap="butt"/><path d="M250.65956,139.16556c1.46393,0.93784 1.43718,3.59235 -0.05976,5.92902c-1.49694,2.33666 -3.89719,3.47063 -5.36113,2.53279c-1.46394,-0.93784 -1.43719,-3.59234 0.05975,-5.92901c1.49694,-2.33667 3.8972,-3.47064 5.36113,-2.5328z" data-paper-data="{&quot;index&quot;:null}" fill="#ffffff" stroke="#bababa" stroke-linecap="butt"/><path d="M246.1065,145.32004l2.55441,-3.98735" data-paper-data="{&quot;index&quot;:null}" fill="none" stroke="#000000" stroke-linecap="round"/><path d="M259.4736,149.08881l-1.38435,2.16093" data-paper-data="{&quot;index&quot;:null}" fill="none" stroke="#000000" stroke-linecap="round"/><path d="M244.141,131.01769c0,0 8.3607,-8.63964 14.96687,-4.48461c21.3539,13.4308 11.19189,21.15615 11.19189,21.15615c0,0 -3.97329,1.48485 -6.75084,-0.14508c-1.38265,-0.81138 -0.83534,-4.47196 -2.59994,-5.34436c-1.02656,-0.50753 -3.8985,0.59055 -4.83318,-0.02461c-2.76009,-1.81659 -2.97656,-6.00343 -5.01482,-7.1491c-0.69612,-0.39127 -3.02172,1.43778 -3.48325,1.14363c-2.29495,-1.46262 -3.47674,-5.15204 -3.47674,-5.15204z" data-paper-data="{&quot;index&quot;:null}" fill="#000000" stroke="#000000" stroke-linecap="butt"/><path d="M205.83098,192.9807c1.25148,3.83001 -1.6522,4.60367 -3.33762,5.3818c-2.02213,0.93358 -3.02306,-0.41174 -5.2113,-5.15146c-2.18824,-4.73972 -3.34471,-7.9158 -1.32259,-8.84938c0.96769,-0.44677 1.31135,-0.15671 2.55214,1.19253c0.71952,0.78242 1.74768,0.92911 2.63914,2.03668c0.78357,0.97353 3.02886,1.77299 3.56263,2.92914c0.36437,0.78922 0.86757,1.69555 1.11759,2.46069z" data-paper-data="{&quot;index&quot;:null}" fill="#935300" stroke="#603600" stroke-linecap="butt"/><path d="M220.91312,208.13518c3.98801,-0.57532 4.25164,2.41808 4.72884,4.21207c0.57253,2.15238 -0.92467,2.90747 -5.96971,4.24944c-5.04504,1.34197 -8.37252,1.93597 -8.94505,-0.21642c-0.27399,-1.03003 0.07077,-1.3188 1.613,-2.30951c0.89433,-0.5745 1.21536,-1.5622 2.45955,-2.25026c1.09362,-0.6048 2.2667,-2.67948 3.49733,-3.00683c0.84005,-0.22346 1.8193,-0.56357 2.61602,-0.67851z" data-paper-data="{&quot;index&quot;:null}" fill="#935300" stroke="#603600" stroke-linecap="butt"/><path d="M200.37183,156.64974c-1.89815,-0.30572 -3.07166,-2.8212 -2.62112,-5.61846c0.45054,-2.79728 2.35453,-4.81706 4.25267,-4.51134c1.89815,0.30572 3.07166,2.8212 2.62112,5.61846c-0.45054,2.79726 -2.35453,4.81706 -4.25267,4.51134z" data-paper-data="{&quot;index&quot;:null}" fill="#b2936b" stroke="#856e50" stroke-linecap="butt"/><path d="M266.40142,178.04031c0.645,-2.72273 2.66561,-4.57511 4.51318,-4.13743c1.84758,0.43768 2.82244,2.9997 2.17744,5.72241c-0.64501,2.72272 -2.66563,4.5751 -4.5132,4.13742c-1.84756,-0.43768 -2.82242,-2.9997 -2.17742,-5.72241z" data-paper-data="{&quot;index&quot;:null}" fill="#b2936b" stroke="#856e50" stroke-linecap="butt"/><path d="M241.71032,155.63382c0,0 -0.03315,-7.47582 9.9556,-0.704c8.18839,5.55126 3.12581,9.08433 3.12581,9.08433z" data-paper-data="{&quot;index&quot;:null}" fill="#000000" stroke="#000000" stroke-linecap="butt"/></g></g></svg>