<svg version="1.1" xmlns="http://www.w3.org/2000/svg" xmlns:xlink="http://www.w3.org/1999/xlink" width="481.00001" height="239.16132" viewBox="0,0,481.00001,239.16132"><g transform="translate(0.00001,-120.83868)"><g data-paper-data="{&quot;isPaintingLayer&quot;:true}" fill-rule="nonzero" stroke="none" stroke-width="0" stroke-linecap="butt" stroke-linejoin="miter" stroke-miterlimit="10" stroke-dasharray="" stroke-dashoffset="0" style="mix-blend-mode: normal"><path d="M202.68741,360v-210.57493h278.31259v210.57491z" data-paper-data="{&quot;index&quot;:null}" fill="#d69b00"/><path d="M0.00456,359.63714v-163.92099h220.68285v163.92098z" data-paper-data="{&quot;index&quot;:null}" fill="#d69b00"/><path d="M465.01039,189.00321l-22.22393,-29.296l-24.25377,22.89591l-36.55911,-29.26905l-36.75633,26.04687l-29.83443,-30.32089l-35.16725,45.29468l-21.0688,-44.21911l-28.03159,45.537l-28.43401,-41.0702v-33.76374h278.31883v33.76374z" data-paper-data="{&quot;index&quot;:null}" fill="#00d624"/><path d="M191.03699,226.55297l-16.18421,-17.92812l-17.66241,14.01149l-26.6236,-17.91163l-26.7672,15.93977l-21.72644,-18.55532l-25.60998,27.71875l-15.34301,-27.06054l-20.41355,27.86704l-20.7066,-25.13352v-20.66222h202.68117v20.66222z" data-paper-data="{&quot;index&quot;:null}" fill="#00d624"/></g></g></svg>