<svg version="1.1" xmlns="http://www.w3.org/2000/svg" xmlns:xlink="http://www.w3.org/1999/xlink" width="269.98742" height="256.31719" viewBox="0,0,269.98742,256.31719"><g transform="translate(-105.00628,-51.84141)"><g data-paper-data="{&quot;isPaintingLayer&quot;:true}" fill-rule="nonzero" stroke-linejoin="miter" stroke-miterlimit="10" stroke-dasharray="" stroke-dashoffset="0" style="mix-blend-mode: normal"><path d="M316.00222,63.61904l-51.48384,1.29006l-0.26303,-10.49671l51.48384,-1.29006z" fill="#fdfbff" stroke="#908b93" stroke-width="2.5" stroke-linecap="butt"/><path d="M336.37225,117.54304l-21.98236,-46.5728l9.49543,-4.48184l21.98236,46.5728z" fill="#fdfbff" stroke="#908b93" stroke-width="2.5" stroke-linecap="butt"/><g stroke="none" stroke-linecap="butt"><g><path d="M299.62946,285.99193c0,-10.58546 8.58121,-19.16666 19.16667,-19.16666c10.58546,0 19.16667,8.5812 19.16667,19.16666c0,10.58546 -8.58121,19.16667 -19.16667,19.16667c-10.58546,0 -19.16667,-8.58121 -19.16667,-19.16667z" fill="#000000" stroke-width="NaN"/><path d="M307.62946,285.65859c0,-6.16718 4.99949,-11.16667 11.16667,-11.16667c6.16718,0 11.16667,4.99949 11.16667,11.16667c0,6.16718 -4.99949,11.16667 -11.16667,11.16667c-6.16718,0 -11.16667,-4.99949 -11.16667,-11.16667z" fill="#817e85" stroke-width="0"/></g><g><path d="M243.62946,285.99193c0,-10.58546 8.58121,-19.16666 19.16667,-19.16666c10.58546,0 19.16667,8.5812 19.16667,19.16666c0,10.58546 -8.58121,19.16667 -19.16667,19.16667c-10.58546,0 -19.16667,-8.58121 -19.16667,-19.16667z" fill="#000000" stroke-width="NaN"/><path d="M251.62946,285.65859c0,-6.16718 4.99949,-11.16667 11.16667,-11.16667c6.16718,0 11.16667,4.99949 11.16667,11.16667c0,6.16718 -4.99949,11.16667 -11.16667,11.16667c-6.16718,0 -11.16667,-4.99949 -11.16667,-11.16667z" fill="#817e85" stroke-width="0"/></g></g><path d="M318.54482,233.81357l-10.40177,26.97459l-10.24091,-5.83424l8.51867,-21.50152z" data-paper-data="{&quot;index&quot;:null}" fill="#7f00ff" stroke="#6600cc" stroke-width="2" stroke-linecap="round"/><path d="M303.28773,233.91254l-7.54249,23.78874l-9.59484,-1.95669l6.84396,-26.70132z" data-paper-data="{&quot;index&quot;:null}" fill="#7f00ff" stroke="#6600cc" stroke-width="2" stroke-linecap="round"/><path d="M277.64512,285.46808l23,-171l66,-2l-8,173z" fill="#a68eb8" stroke="#775b8a" stroke-width="2.5" stroke-linecap="butt"/><path d="M266.67082,205.80048l6.14702,-17.25132l5.33223,1.89999l-6.14702,17.25132z" fill="#000571" stroke="#000000" stroke-width="2" stroke-linecap="butt"/><path d="M316.59526,235.51743c0,0 -7.50551,1.41105 -11.96126,1.41105c-5.64277,0 -19.18317,-1.41105 -19.18317,-1.41105c0,0 -2.25684,-32.36185 -2.25684,-42.61354c0,-6.0384 2.25684,-13.26382 2.25684,-13.26382l33.62696,1.69325c0,0 0.62294,7.80024 0.40012,12.6634c-0.44223,9.65218 -2.88265,41.52072 -2.88265,41.52072z" data-paper-data="{&quot;index&quot;:null}" fill="#7f00ff" stroke="#6600cc" stroke-width="2" stroke-linecap="butt"/><path d="M338.52781,199.21923c0,0 -1.00712,3.36338 -2.52215,3.36338c-1.02049,0 -2.98186,-2.29866 -5.32375,-2.63704c-0.91834,-0.13268 -2.10537,2.34465 -3.10695,2.25383c-0.76009,-0.06893 -1.68372,-2.66984 -2.29958,-2.09257c-0.97636,0.9152 -2.44691,3.13742 -3.95927,3.20935c-1.44336,0.06865 -2.94353,-2.05196 -3.32144,0.30535c-0.56117,3.50036 -3.6375,-4.4023 -3.6375,-4.4023v-54.07285c0,0 -15.99935,-6.24897 -24.96603,-11.06319c-3.84925,-2.06667 -6.97941,-4.44586 -6.04197,-5.00328c2.42582,-1.44242 18.59552,-6.67654 32.66228,-5.92793c12.46699,0.66347 23.14688,7.24726 23.14688,7.24726l-0.63054,68.81999z" data-paper-data="{&quot;index&quot;:null}" fill="#000000" stroke="#000000" stroke-width="2" stroke-linecap="butt"/><path d="M327.5439,158.10954c0,13.80742 -8.36406,24.6469 -22.17147,24.6469c-13.80742,0 -30.30502,-11.90037 -30.30502,-25.7078c0,-11.0781 5.55611,-19.38806 15.91008,-22.93949c0.98383,-0.33746 4.47043,-0.61598 5.50528,-0.83084c1.64836,-0.34224 4.38391,-2.2911 6.0606,-2.2911c0.99512,0 1.62303,2.33393 2.58778,2.65191c1.69772,0.55957 3.69707,-0.67485 5.27328,-0.03885c2.56717,1.03586 4.94998,3.49253 7.07284,5.18337c0.62119,0.49478 4.40282,-2.53247 4.9776,-2.00849c5.07881,4.62995 5.08903,13.95992 5.08903,21.33439z" data-paper-data="{&quot;index&quot;:null}" fill="#ffd499" stroke="#dfba86" stroke-width="2" stroke-linecap="butt"/><path d="M298.75673,266.56411l2.53135,-9.48119l6.14996,1.64196l-2.53135,9.48119z" data-paper-data="{&quot;index&quot;:null}" fill="#ffd499" stroke="#dfba86" stroke-width="2" stroke-linecap="butt"/><path d="M286.87512,262.46642l2.05245,-7.68745l3.63018,0.96921l-2.05245,7.68745z" data-paper-data="{&quot;index&quot;:null}" fill="#ffd499" stroke="#dfba86" stroke-width="2" stroke-linecap="butt"/><path d="M266.95482,269.18738l3.64408,-9.93482c0,0 6.03627,-1.36324 9.38064,-0.47034c3.95711,1.0565 10.05765,5.6601 10.05765,5.6601l-2.71845,10.18195z" data-paper-data="{&quot;index&quot;:null}" fill="#ff00bf" stroke="#d5009f" stroke-width="2" stroke-linecap="butt"/><path d="M274.80698,205.25182c0,4.02818 -1.89991,7.29367 -4.24358,7.29367c-2.34367,0 -4.24359,-3.26548 -4.24359,-7.29367c0,-4.02818 1.89992,-7.29367 4.24359,-7.29367c2.34367,0 4.24358,3.26548 4.24358,7.29367z" data-paper-data="{&quot;index&quot;:null}" fill="#ffd499" stroke="#dfba86" stroke-width="2" stroke-linecap="butt"/><path d="M283.04049,274.81698l3.64409,-9.93483c0,0 6.03626,-1.36324 9.38064,-0.47034c3.95711,1.0565 10.05765,5.6601 10.05765,5.6601l-2.71845,10.18196z" data-paper-data="{&quot;index&quot;:null}" fill="#ff00bf" stroke="#d5009f" stroke-width="2" stroke-linecap="butt"/><path d="M302.63773,207.13772l6.14702,-17.25132l5.33222,1.89999l-6.14702,17.25132z" fill="#000571" stroke="#000000" stroke-width="2" stroke-linecap="butt"/><path d="M310.89354,209.1909c0,3.8817 -2.25616,7.02843 -5.03926,7.02843c-2.7831,0 -5.03925,-3.14673 -5.03925,-7.02843c0,-3.8817 2.25616,-7.02844 5.03925,-7.02844c2.7831,0 5.03926,3.14674 5.03926,7.02844z" data-paper-data="{&quot;index&quot;:null}" fill="#ffd499" stroke="#dfba86" stroke-width="2" stroke-linecap="butt"/><path d="M295.14512,257.96808v-25.98261h46v25.98261z" fill="#3e007d" stroke="#1b0036" stroke-width="2.5" stroke-linecap="butt"/><path d="M252.97381,286.24959v-81.73796h51.83383l6.76935,50.07405l47.59424,-4.80996l-1.73119,35.37799l-41.64999,0.59667z" fill="#a68eb8" stroke="#775b8a" stroke-width="2.5" stroke-linecap="butt"/><path d="M294.25561,254.83344c0,10.07112 -4.02621,18.23538 -8.99279,18.23538c-4.72444,0 -1.35378,-2.39159 -1.72025,-11.7807c-0.01878,-0.48121 2.21985,-4.71468 2.21985,-5.20569c0,-1.95322 3.63697,-10.57931 2.69041,-12.34343c-3.93405,-7.33199 -30.42474,-2.14496 -26.42139,-2.14496c1.11282,0 1.24874,-8.14041 5.09695,-10.5193c6.07393,-3.75479 16.92595,-2.09652 21.42536,0.50101c5.37254,3.10159 5.70187,19.00481 5.70187,23.25768z" fill="#a68eb8" stroke="#775b8a" stroke-width="2.5" stroke-linecap="butt"/><path d="M288.51021,249.58765c0,7.44987 -5.20788,13.48919 -12.86469,13.48919c-7.65681,0 -13.86389,-6.03932 -13.86389,-13.48919c0,-7.44987 1.46088,-14.48839 9.11769,-14.48839c2.65675,0 5.3761,1.57381 8.67237,1.84982c4.17103,0.34927 8.81527,-0.32824 10.43923,2.7322c0.79139,1.49141 -1.50071,8.31237 -1.50071,9.90636z" fill="#a68eb8" stroke="#775b8a" stroke-width="2.5" stroke-linecap="butt"/><path d="M266.52783,254.83344c0,0 5.32318,-1.12842 8.27615,-0.85997c2.44694,0.22245 8.21063,2.35877 8.21063,2.35877" fill="none" stroke="#775b8a" stroke-width="2.5" stroke-linecap="round"/><path d="M278.26842,249.83745l0.2498,-4.996l5.4956,-4.2466" fill="none" stroke="#775b8a" stroke-width="2.5" stroke-linecap="round"/><path d="M268.27643,238.84625l2.9976,4.4964c0,0 -0.32031,1.17069 -0.54594,1.81937c-0.36802,1.05807 -1.45246,3.92603 -1.45246,3.92603" fill="none" stroke="#775b8a" stroke-width="2.5" stroke-linecap="round"/><path d="M306.39157,164.90611l0.28902,-5.65929" data-paper-data="{&quot;index&quot;:null}" fill="none" stroke="#000000" stroke-width="2" stroke-linecap="round"/><path d="M294.44119,163.62829l0.35089,-5.31764" data-paper-data="{&quot;index&quot;:null}" fill="none" stroke="#000000" stroke-width="2" stroke-linecap="round"/><path d="M290.30052,159.74537l2.92809,1.4846l-3.0811,1.51149" data-paper-data="{&quot;index&quot;:null}" fill="none" stroke="#000000" stroke-width="2" stroke-linecap="round"/><path d="M310.38638,165.11013l-2.80909,-3.8149l2.68019,-0.1969" data-paper-data="{&quot;index&quot;:null}" fill="none" stroke="#000000" stroke-width="2" stroke-linecap="round"/><path d="M284.22649,175.11375c0,0 8.94531,-6.05362 12.53915,-6.99616c2.45295,-0.64332 6.94047,1.88734 6.94047,1.88734c0,0 4.22757,1.73403 5.78984,2.73842c1.76359,1.13382 4.26117,3.72338 4.26117,3.72338" data-paper-data="{&quot;index&quot;:null}" fill="none" stroke="#000000" stroke-width="2" stroke-linecap="round"/><path d="M314.33003,149.50783l-13.24784,8.20874l-12.71538,-10.63991" data-paper-data="{&quot;index&quot;:null}" fill="none" stroke="#000000" stroke-width="2" stroke-linecap="round"/><path d="M334.62878,250.84905v-137l39,-5l-11,142z" fill="#a68eb8" stroke="#775b8a" stroke-width="2.5" stroke-linecap="butt"/><g stroke="none" stroke-linecap="butt"><path d="M328.62946,288.99193c0,-10.58546 8.58121,-19.16666 19.16667,-19.16666c10.58546,0 19.16667,8.5812 19.16667,19.16666c0,10.58546 -8.58121,19.16667 -19.16667,19.16667c-10.58546,0 -19.16667,-8.58121 -19.16667,-19.16667z" fill="#000000" stroke-width="NaN"/><path d="M336.62946,288.6586c0,-6.16718 4.99949,-11.16667 11.16667,-11.16667c6.16718,0 11.16667,4.99949 11.16667,11.16667c0,6.16718 -4.99949,11.16667 -11.16667,11.16667c-6.16718,0 -11.16667,-4.99949 -11.16667,-11.16667z" fill="#bfbfbf" stroke-width="0"/></g><g stroke="none" stroke-linecap="butt"><path d="M272.62946,288.99193c0,-10.58546 8.58121,-19.16666 19.16667,-19.16666c10.58546,0 19.16667,8.5812 19.16667,19.16666c0,10.58546 -8.58121,19.16667 -19.16667,19.16667c-10.58546,0 -19.16667,-8.58121 -19.16667,-19.16667z" fill="#000000" stroke-width="NaN"/><path d="M280.62946,288.65859c0,-6.16718 4.99949,-11.16667 11.16667,-11.16667c6.16718,0 11.16667,4.99949 11.16667,11.16667c0,6.16718 -4.99949,11.16667 -11.16667,11.16667c-6.16718,0 -11.16667,-4.99949 -11.16667,-11.16667z" fill="#bfbfbf" stroke-width="0"/></g><path d="M252.62878,205.84905c0,0 1.10366,-58.37224 14.30062,-72.81126c6.69854,-7.32899 17.62769,-15.14612 32.04915,-18.22973c17.70784,-3.78631 38.65023,-1.959 38.65023,-1.959" fill="none" stroke="#a8fff4" stroke-width="2.5" stroke-linecap="round"/><path d="M308.87878,62.96206c0,-5.10863 4.14137,-9.25 9.25,-9.25c5.10863,0 9.25,4.14137 9.25,9.25c0,5.10863 -4.14137,9.25 -9.25,9.25c-5.10863,0 -9.25,-4.14137 -9.25,-9.25z" fill="#fdfbff" stroke="#908b93" stroke-width="2.5" stroke-linecap="butt"/><path d="M228.87878,96.71206l22,-33.5l4.5,7.5l-13,24l13,31z" fill="#fdfbff" stroke="#908b93" stroke-width="2.5" stroke-linecap="butt"/><path d="M267.37879,124.71206l13,-31l-13,-24l4.5,-7.5l22,33.5z" data-paper-data="{&quot;index&quot;:null}" fill="#fdfbff" stroke="#908b93" stroke-width="2.5" stroke-linecap="butt"/><path d="M249.87878,65.96206c0,-6.76549 5.48451,-12.25 12.25,-12.25c6.76549,0 12.25,5.48451 12.25,12.25c0,6.76549 -5.48451,12.25 -12.25,12.25c-6.76549,0 -12.25,-5.48451 -12.25,-12.25z" fill="#fdfbff" stroke="#908b93" stroke-width="2.5" stroke-linecap="butt"/><path d="M228.37878,95.71206c0,-4.69442 3.80558,-8.5 8.5,-8.5c4.69442,0 8.5,3.80558 8.5,8.5c0,4.69442 -3.80558,8.5 -8.5,8.5c-4.69442,0 -8.5,-3.80558 -8.5,-8.5z" fill="#fdfbff" stroke="#908b93" stroke-width="2.5" stroke-linecap="butt"/><path d="M276.37879,93.21206c0,-4.69442 3.80558,-8.5 8.5,-8.5c4.69442,0 8.5,3.80558 8.5,8.5c0,4.69442 -3.80558,8.5 -8.5,8.5c-4.69442,0 -8.5,-3.80558 -8.5,-8.5z" fill="#fdfbff" stroke="#908b93" stroke-width="2.5" stroke-linecap="butt"/><path d="M110.87878,180.71206l9,-37.5l16.83242,-10.64263l32.16758,-1.35737l19.5,37l-16.5,18l-11.95684,11.35131l-25.43703,-4.336z" fill="#a0a0a0" stroke="#4b4b4b" stroke-width="2.5" stroke-linecap="butt"/><path d="M118.37878,270.21206l-12,-25l12,-28l17,-6.5l32.5,7.5l10.83973,20.44359l-8.83973,27.05641l-20.02189,17.74949z" fill="#a0a0a0" stroke="#4b4b4b" stroke-width="2.5" stroke-linecap="butt"/></g></g></svg>