<svg version="1.1" xmlns="http://www.w3.org/2000/svg" xmlns:xlink="http://www.w3.org/1999/xlink" width="112.73455" height="110.13305" viewBox="0,0,112.73455,110.13305"><g transform="translate(-186.84995,-104.16233)"><g data-paper-data="{&quot;isPaintingLayer&quot;:true}" fill-rule="nonzero" stroke-linejoin="miter" stroke-miterlimit="10" stroke-dasharray="" stroke-dashoffset="0" style="mix-blend-mode: normal"><g data-paper-data="{&quot;index&quot;:null}" fill="#949494" stroke="#000000" stroke-width="2"><path d="M204.86616,178.63391c0,0 -6.64286,-11.93942 -3.49459,-18.64127c1.13169,-2.40908 0.89596,-2.59479 2.69679,-6.62759c0.64865,-1.4526 1.4419,-2.94082 2.25333,-4.68416c2.17592,-4.67491 4.48262,-9.71385 4.48262,-9.71385c0,0 12.8362,2.13774 17.33941,2.13774c0.4348,0 21.53684,0.47359 21.97571,0.47078c10.74117,-0.06885 7.24001,-0.23325 7.24001,-0.23325c0,0 5.00242,-3.25087 6.6278,-2.9405c3.12122,0.596 6.09658,-2.66377 7.77886,2.9894c0.7907,2.65709 0.61267,2.95203 0.96648,6.59672c0.51648,5.32044 0.7566,13.44454 -1.04569,18.83477c-2.4256,7.25441 -7.20167,11.09865 -7.20167,11.09865z" stroke-linecap="butt"/><path d="M228.10487,177.68366c0,0 9.15072,-8.9704 8.79967,-18.34394c-0.36124,-4.29476 -5.1374,-13.07136 -5.1374,-13.07136l-4.03795,-4.98805l3.32537,4.27547c0,0 4.10165,-0.47068 6.34937,-0.72861c2.54497,-0.29205 8.13973,-0.93407 8.13973,-0.93407l-0.23753,-1.66268" stroke-linecap="round"/><path d="M257.41996,148.88115c0,0 3.11779,0.51281 5.78238,2.15324c3.24758,1.99934 6.16789,5.44311 6.30116,8.77418c0.13219,3.30408 -0.67646,8.08355 -3.45338,11.01242c-3.42658,3.61409 -9.1053,5.03108 -10.76089,4.83995c-4.48955,-0.51829 -8.18307,-8.6525 -8.46709,-10.60669c-0.78231,-5.3826 1.63974,-12.17764 2.58871,-13.45012c1.76938,-2.37258 8.00911,-2.72298 8.00911,-2.72298" stroke-linecap="round"/><path d="M207.30196,161.9451c0,-4.91169 3.12479,-7.68761 7.2084,-9.39624c1.2606,-0.52746 4.06037,-1.52997 5.49925,-1.52997c6.09996,0 10.09486,4.7358 10.09486,11.16373c0,6.42793 -5.65758,12.58889 -11.75755,12.58889c-6.09997,0 -11.04497,-6.3985 -11.04497,-12.82642z" stroke-linecap="butt"/></g><g data-paper-data="{&quot;index&quot;:null}" stroke="#000000" stroke-width="2" stroke-linecap="round"><path d="M188.08748,134.0172c0,0 9.8184,-0.36242 15.18081,1.85015c2.30639,0.95163 4.85845,2.69326 5.58793,4.05c0.84697,1.57526 -0.34964,2.71436 -0.73406,2.79699c-2.59296,0.55736 -7.71539,-0.49528 -9.77452,-1.34734c-3.60936,-1.49353 -10.49769,-7.34981 -10.49769,-7.34981" fill="#d8d8d8"/><path d="M205.18935,136.62998l-1.66268,5.93816" fill="none"/></g><path d="M259.78754,181.03944l-8.15639,-12.88313c0,0 -2.52916,-4.8967 -1.5193,-6.58475c0.5733,-0.95833 2.20297,-4.48264 3.85328,-5.7441c2.06657,-1.57963 4.90789,-0.45183 6.09928,-0.58132c0.52018,-0.05653 3.56155,3.074 3.56155,3.074c0,0 1.48793,3.1 2.47287,5.15207c1.46184,3.04566 5.44726,11.34901 5.44726,11.34901z" data-paper-data="{&quot;index&quot;:null}" fill="#949494" stroke="#000000" stroke-width="2.5" stroke-linecap="butt"/><g data-paper-data="{&quot;index&quot;:null}"><g><path d="M206.87546,184.76051l2.6981,-5.2898l4.44343,2.26641l-2.6981,5.2898z" data-paper-data="{&quot;index&quot;:null}" fill="#000000" stroke="none" stroke-width="0" stroke-linecap="butt"/><path d="M216.77692,194.13331l-1.73068,4.68421l-1.02089,4.62126l-3.57571,2.70172l3.37531,0.41601l2.06066,1.72491l1.50353,0.82048l1.60845,2.00347l-3.68063,1.51874l-9.97906,0.40816l-1.50353,-0.82048l-3.04901,-2.11416l-1.09696,-9.67951l6.64203,-8.45824z" fill="#949494" stroke="#000000" stroke-width="2.5" stroke-linecap="round"/><path d="M206.00991,191.03449l-0.8719,-4.45339l2.17711,-2.33923l3.54895,-0.31477l3.64812,3.49178l2.80665,4.7587l-0.54192,1.95574z" fill="#242424" stroke="#000000" stroke-width="2.5" stroke-linecap="round"/><path d="M213.50285,186.79304l0.46743,2.58159l-3.27616,3.39053" fill="none" stroke="#000000" stroke-width="2.5" stroke-linecap="round"/></g><g stroke="none" stroke-linecap="butt"><path d="M201.01469,207.42409l-1.05271,-5.70093l7.73522,-9.00881l7.56404,1.97187l-1.87176,7.94542l-4.66884,3.94313z" fill="#8c6200" stroke-width="NaN"/><path d="M203.49071,194.90023l4.78872,-2.51145l7.28638,2.14366l-1.11163,2.93826z" fill="#8c0081" stroke-width="NaN"/><path d="M214.7375,212.35549l-11.32462,-0.28103l-1.61754,-5.50362l7.29732,-0.61615l3.17653,1.0693l3.44407,0.39652l1.00032,0.9207l1.50511,2.29458z" fill="#8c0081" stroke-width="0"/><g fill="#ffffff" stroke-width="0.5"><path d="M209.73232,196.68103c0.00033,-0.0003 0.00068,-0.00061 0.00101,-0.00092c0.20246,-0.18412 0.38661,0.01833 0.38661,0.01833c0.88923,0.99836 0.47237,2.11695 -0.57644,2.48247c0.01553,-0.12921 -0.1126,-0.19657 -0.1126,-0.19657c-0.8691,-0.45693 -1.72683,-0.92879 -2.61936,-1.33334c-0.08622,-0.46021 -0.04532,-0.88941 0.215,-1.09993c0.3667,-0.29653 0.97235,-0.33221 1.40593,-0.33974c0.56488,0.03567 0.89116,0.20964 1.29987,0.46968zM208.07731,197.07463c0.10033,0.05276 0.22445,0.01416 0.27719,-0.08616c0.05275,-0.10034 0.01416,-0.22445 -0.08616,-0.27719c-0.10034,-0.05275 -0.22445,-0.01416 -0.27719,0.08616c-0.05276,0.10033 -0.01416,0.22445 0.08616,0.27719zM209.57693,197.82439c0.10034,0.05275 0.22444,0.01416 0.2772,-0.08618c0.05276,-0.10035 0.01418,-0.22444 -0.08615,-0.27719c-0.10034,-0.05275 -0.22445,-0.01416 -0.27719,0.08616c-0.05276,0.10033 -0.01416,0.22445 0.08616,0.27719z"/><path d="M210.54514,199.58714c0.33642,0.17686 0.15955,0.51327 0.15955,0.51327l-0.00065,-0.085c-0.00648,0.21002 -0.06775,0.41428 -0.16118,0.60826l0.01913,0.00241l-0.0016,0.01261l0.10515,0.04253l-0.17711,0.43788c-0.00515,0.0132 -0.0111,0.02625 -0.01785,0.03909c-0.09768,0.1858 -0.32747,0.25724 -0.51327,0.15955c-0.10109,-0.05315 -0.16834,-0.14544 -0.19289,-0.24844c-0.00663,0.00145 -0.01034,0.00206 -0.01034,0.00206c-0.58722,0.09265 -1.17225,0.13687 -1.75672,0.19454c0.149,0.24238 0.29364,0.48848 0.43294,0.73962c0.38383,0.69196 1.0552,1.26796 1.02519,2.06625c0.00228,-0.05463 0.00797,-0.19062 0.01038,-0.24826l0.13459,0.01486l-0.00766,-0.05589l0.40052,-0.0549c0.07714,-0.01154 0.15852,0.00047 0.23287,0.03954c0.1858,0.09769 0.25723,0.32749 0.15953,0.51328c-0.01617,0.03078 -0.03599,0.05843 -0.05861,0.08268l-0.25529,0.28584l-0.05056,-0.04516c-0.19667,0.26601 -0.43191,0.38729 -0.90505,0.48312c-0.08576,0.07101 -0.22173,0.12713 -0.40512,0.03071c-0.33642,-0.17686 -0.15956,-0.51328 -0.15956,-0.51328l0.29816,-0.24044c0.04351,-0.00605 0.08481,-0.0152 0.12421,-0.02625c-0.30729,-0.48735 -0.71905,-1.18089 -0.79465,-1.30173c-0.35178,-0.56217 -0.70178,-1.11647 -1.05704,-1.66583c-0.18962,0.02808 -0.37925,0.06081 -0.56898,0.10034c-0.36681,0.07641 -0.71466,0.20102 -1.06698,0.31416c0.12844,0.2265 0.22575,0.49374 0.28466,0.85572l0.13361,0.42983c0.02888,0.09288 0.02231,0.19678 -0.02652,0.28967c-0.09769,0.1858 -0.32748,0.25725 -0.51328,0.15956c-0.04203,-0.02211 -0.07819,-0.05095 -0.10789,-0.08453l-0.51074,-0.551l0.02217,-0.02056c-0.50097,-0.39239 -0.82318,-0.80649 -1.20618,-1.61202l-0.05949,-0.1785c0,0 -0.11281,-0.36294 0.25013,-0.47576c0.03535,-0.01099 0.06833,-0.01747 0.09906,-0.0202c0.01927,-0.02474 0.04305,-0.04932 0.07211,-0.07338c0.29264,-0.2425 0.53516,0.05014 0.53516,0.05014c0.19241,0.2341 0.37181,0.42056 0.53334,0.5952c0.47279,-0.12934 0.9227,-0.32102 1.40759,-0.42287c0.08903,-0.01872 0.17813,-0.03586 0.26729,-0.05172c-0.32331,-0.48877 -0.65321,-0.9746 -0.99478,-1.45956c-0.32409,0.12845 -0.64206,0.16829 -0.84718,-0.02523c-0.95239,-0.89853 1.14474,-1.4933 1.55623,-1.55007l0.26129,0.02575c0,0 0.37509,0.06141 0.31368,0.43649c-0.00354,0.02161 -0.00812,0.04177 -0.01361,0.0606c0.7209,0.3429 1.42236,0.72422 2.13003,1.09777c-0.06675,0.00892 -0.13515,0.01517 -0.20517,0.01859c-0.10775,0.00526 -1.01887,0.05601 -1.11893,0.01684c-0.29701,-0.11627 -0.61607,-0.57839 -0.81677,-1.10077c-0.00884,0.02329 -0.0192,0.04421 -0.03076,0.063c0.0108,0.19612 -0.16657,0.32358 -0.16657,0.32358c-0.09122,0.06526 -0.22652,0.16365 -0.38553,0.26765c0.40761,0.56605 0.80972,1.12779 1.19184,1.70405c0.69742,-0.07601 1.39652,-0.11753 2.09231,-0.23193c0,0 0.03984,-0.00641 0.09564,-0.00207c-0.04595,-0.21993 -0.0683,-0.4457 -0.07499,-0.66953c0,0 -0.00877,-0.37997 0.3712,-0.38874c0.25714,-0.00593 0.34428,0.16618 0.37374,0.27806c0.04477,0.0058 0.0935,0.0209 0.14613,0.04858z"/></g></g></g><path d="M226.54948,164.80147l-4.36557,16.5779l-11.01113,-1.85483l-1.26672,-0.96658l1.48788,-15.43328l2.87736,-6.22234l5.11098,-1.44476l4.91121,2.14411l1.88905,2.77762z" data-paper-data="{&quot;index&quot;:null}" fill="#949494" stroke="#000000" stroke-width="2.5" stroke-linecap="round"/><g data-paper-data="{&quot;index&quot;:null}"><g><path d="M271.82172,182.11794l-4.44299,-3.93975l3.30938,-3.73211l4.44299,3.93975z" fill="#000000" stroke="none" stroke-width="0" stroke-linecap="butt"/><path d="M298.3345,195.93862c0,0 0.43125,1.19259 -0.5409,1.55357c-2.54743,0.94594 -15.30787,4.33146 -15.30787,4.33146l-13.65003,-11.09653c0,0 6.11944,-4.06741 8.41337,-5.92638c0.88995,-0.72119 10.14893,6.13093 10.89758,5.87101c0.77818,-0.27015 -0.73509,3.18221 -0.43712,3.93486c0.33643,0.84981 2.45816,-0.97623 2.97307,-1.12723c1.45081,-0.42543 4.2364,-0.7472 4.2364,-0.7472l3.4155,3.20643z" fill="#949494" stroke="#000000" stroke-width="2.5" stroke-linecap="butt"/><path d="M266.97284,190.28326l3.06418,-9.80952l2.64291,-1.38059l2.57887,0.11511l2.12335,1.83443l0.70778,3.25785z" fill="#242424" stroke="#000000" stroke-width="2.5" stroke-linecap="butt"/><path d="M273.18175,186.97744l-2.09077,-0.37701l-1.28532,-1.85085" fill="none" stroke="#000000" stroke-width="2.5" stroke-linecap="round"/><path d="M287.3999,200.01136l0.21936,-6.00498" fill="none" stroke="#000000" stroke-width="2.5" stroke-linecap="round"/></g><g stroke="none" stroke-linecap="butt"><path d="M283.69725,200.75909l-13.35276,-9.39393l7.47957,-6.92465l2.15154,2.50314l6.77301,4.67218z" fill="#8c6200" stroke-width="NaN"/><path d="M273.58498,193.55741l-3.06834,-2.43873l7.46477,-6.32713l2.22869,2.68494z" fill="#8c0081" stroke-width="NaN"/><path d="M283.3779,201.08102l0.71428,-10.89105l2.72187,1.28608l1.39481,4.0522l2.86703,-1.13172l3.45513,-0.28448l1.16102,0.70737l1.92467,1.95605z" fill="#8c0081" stroke-width="0"/><g fill="#ffffff" stroke-width="0.5"><path d="M276.08976,190.74294c-0.00025,-0.00037 -0.0005,-0.00075 -0.00075,-0.00114c-0.15202,-0.22758 0.07557,-0.37959 0.07557,-0.37959c1.11938,-0.73106 2.16364,-0.15268 2.3693,0.93879c-0.12546,-0.03454 -0.21112,0.08216 -0.21112,0.08216c-0.58094,0.7916 -1.17499,1.56971 -1.70762,2.39223c-0.4679,0.01692 -0.88629,-0.08729 -1.05579,-0.376c-0.23878,-0.40669 -0.1841,-1.01092 -0.12715,-1.4408c0.11917,-0.55333 0.3397,-0.85014 0.65756,-1.21567zM276.18911,192.15116c-0.09138,-0.06707 -0.21984,-0.04736 -0.28691,0.04404c-0.06707,0.09138 -0.04736,0.21984 0.04404,0.28691c0.09138,0.06707 0.21984,0.04736 0.28691,-0.04404c0.06707,-0.09138 0.04736,-0.21984 -0.04404,-0.28691zM277.19732,191.06645c0.06707,-0.09138 0.04736,-0.21984 -0.04404,-0.28691c-0.09138,-0.06707 -0.21984,-0.04736 -0.28691,0.04404c-0.06706,0.09138 -0.04736,0.21984 0.04404,0.28691c0.09139,0.06707 0.21985,0.04736 0.28692,-0.04403z"/><path d="M279.08434,190.37082c0.22486,-0.3064 0.53128,-0.08154 0.53128,-0.08154l-0.08416,-0.01199c0.20673,0.0376 0.39961,0.12853 0.57759,0.24974l0.00523,-0.01857l0.01223,0.00344l0.05769,-0.09768l0.40672,0.24019c0.01229,0.00705 0.02432,0.01487 0.03601,0.02345c0.16922,0.12419 0.20574,0.36206 0.08154,0.53128c-0.06758,0.09208 -0.16883,0.14486 -0.27435,0.15384c0.00045,0.00678 0.00048,0.01054 0.00048,0.01054c0.00439,0.59447 -0.03879,1.17959 -0.06858,1.76613c0.26183,-0.11134 0.52669,-0.21782 0.79574,-0.31828c0.74129,-0.27678 1.41064,-0.85515 2.19559,-0.70689c-0.05367,-0.01037 -0.1873,-0.0362 -0.24396,-0.04714l0.03468,-0.13088l-0.0564,-0.00073l0.0052,-0.40423c0.00004,-0.07801 0.02401,-0.1567 0.07369,-0.2244c0.1242,-0.16923 0.36206,-0.20574 0.53128,-0.08154c0.02803,0.02057 0.05243,0.04427 0.07304,0.07024l0.24474,0.29492l-0.05217,0.0433c0.23384,0.23399 0.31884,0.48464 0.34332,0.96676c0.05747,0.09536 0.09277,0.23816 -0.02982,0.4052c-0.22487,0.30641 -0.53128,0.08154 -0.53128,0.08154l-0.19349,-0.33058c0.00047,-0.04394 -0.00242,-0.08613 -0.00752,-0.12673c-0.52759,0.23149 -1.27461,0.53566 -1.40534,0.59248c-0.60819,0.26436 -1.20832,0.52814 -1.80438,0.79784c-0.0004,0.19168 0.00381,0.38409 0.01471,0.57757c0.02109,0.37408 0.09265,0.73658 0.15219,1.10181c0.24307,-0.09336 0.52178,-0.1499 0.88851,-0.15439l0.44489,-0.06828c0.09614,-0.01476 0.19791,0.00717 0.28253,0.06927c0.16923,0.1242 0.20574,0.36206 0.08154,0.53128c-0.0281,0.03828 -0.06199,0.06978 -0.09962,0.09415l-0.62075,0.42322l-0.01703,-0.02497c-0.46247,0.43714 -0.91983,0.69425 -1.7733,0.95334l-0.18536,0.03232c0,0 -0.37568,0.05765 -0.43333,-0.31803c-0.00561,-0.03659 -0.00712,-0.07017 -0.00527,-0.10096c-0.02159,-0.02272 -0.04237,-0.0499 -0.06186,-0.0822c-0.19634,-0.32541 0.12908,-0.52176 0.12908,-0.52176c0.26009,-0.15551 0.47113,-0.30522 0.66783,-0.43902c-0.05766,-0.48676 -0.18041,-0.96017 -0.20909,-1.45479c-0.00527,-0.09081 -0.00901,-0.18147 -0.01145,-0.27199c-0.53138,0.24712 -1.06082,0.5012 -1.59113,0.76694c0.07889,0.33958 0.07105,0.65993 -0.15079,0.83404c-1.03004,0.80835 -1.30669,-1.35387 -1.30171,-1.76923l0.06428,-0.25456c0,0 0.11644,-0.3618 0.47824,-0.24536c0.02084,0.00671 0.04009,0.01425 0.05788,0.02246c0.44618,-0.66196 0.92748,-1.299 1.402,-1.94334c-0.00108,0.06732 -0.00507,0.13592 -0.01208,0.20566c-0.0108,0.10735 -0.09595,1.01587 -0.14955,1.10901c-0.1591,0.27645 -0.66349,0.52332 -1.20989,0.64421c0.02171,0.01221 0.04088,0.02556 0.05774,0.03977c0.19556,0.01846 0.29526,0.21279 0.29526,0.21279c0.05097,0.0999 0.1282,0.24831 0.20742,0.421c0.62032,-0.31901 1.23555,-0.63321 1.86219,-0.92549c0.02843,-0.70098 0.09124,-1.39848 0.08145,-2.10356c0,0 -0.00042,-0.04035 0.01216,-0.09488c-0.22432,0.01277 -0.45091,0.00132 -0.67325,-0.02531c0,0 -0.37707,-0.04776 -0.3293,-0.42483c0.03233,-0.25518 0.21547,-0.31577 0.33048,-0.3283c0.01239,-0.0434 0.03455,-0.08935 0.06975,-0.13729z"/></g></g></g><g data-paper-data="{&quot;index&quot;:null}"><g stroke="#000000" stroke-width="2.5"><path d="M262.11572,138.21202c0,0 0.37382,-1.49134 0,-2.61279c-0.33436,-1.00305 -2.13774,-3.80042 -2.13774,-3.80042c0,0 -4.82884,-3.36413 -4.50429,-6.71662c0.03684,-0.38056 1.48571,-8.6683 6.28563,-13.35727c3.43077,-3.35147 10.43238,-3.70263 11.33658,-3.33724c0.69893,0.28244 5.09711,0.72703 9.16966,2.53989c5.73937,2.55483 11.05964,6.41853 11.05964,6.41853l-2.00675,13.6172l-20.88931,-0.1146l0.71258,7.36331z" fill="#949494" stroke-linecap="butt"/><path d="M292.51909,124.67302l-13.06394,-2.61279l-3.32537,-3.32537l-3.32537,-9.9761l11.16373,3.56289l8.78847,4.98805z" fill="#000000" stroke-linecap="round"/><path d="M276.84235,120.39754h-1.66268" fill="none" stroke-linecap="round"/><path d="M274.22957,122.77283l2.37526,0.23753" fill="none" stroke-linecap="round"/><path d="M273.51698,125.14809l1.42516,0.23753" fill="none" stroke-linecap="round"/><path d="M289.66509,130.96019c0,0 -12.49164,-0.39597 -18.91936,0.1673c-1.58149,0.13859 -0.21237,1.97931 -1.19817,1.99021c-8.7343,0.0966 -9.63865,-1.9509 -10.4463,-2.94232c-2.00598,-2.46241 -4.19835,-5.75255 -4.09135,-6.33654c0.13759,-0.75094 1.86893,-2.51352 1.86893,-2.51352l3.92426,1.53509l5.4631,1.90021l5.70063,1.18763l9.9761,0.23753l8.07589,4.27547" fill="#373737" stroke-linecap="round"/><path d="M289.33119,133.27388l-0.9501,2.37526h-12.35136l-2.61279,-0.47505l-0.9501,-2.37526l0.47505,-1.90021l1.18763,-1.42516l1.42516,0.47505l1.18763,1.42516l0.9501,1.18763z" fill="#000000" stroke-linecap="round"/><path d="M266.3912,134.17409l-0.23753,2.61279" fill="none" stroke-linecap="round"/><path d="M270.90419,134.41161l-8.55094,-0.71258" fill="none" stroke-linecap="round"/><path d="M265.44108,112.08415l-1.18763,2.13774l0.47505,2.13774l-3.56289,-1.90021l0.23753,-4.513l3.32537,-3.80042l1.42516,1.90021l0.23753,3.32537z" fill="#151515" stroke-linecap="round"/><path d="M266.15368,115.76776l-3.32537,0.47505l-1.66268,-3.32537l0.9501,-1.42516l2.37526,-2.13774l1.90021,-0.23753l1.18763,0.9501l1.18763,1.18763l0.47505,2.61279z" fill="none" stroke-linecap="round"/></g><path d="M287.12294,114.7248c2.56859,0.75552 3.17067,2.26139 2.7603,4.07085c-0.41037,1.80946 -2.31153,2.9206 -4.24638,2.48179c-1.93484,-0.43881 -3.17067,-2.26139 -2.7603,-4.07085c0.41037,-1.80946 1.60058,-3.26001 4.24638,-2.48179z" fill="#54ff00" stroke="none" stroke-width="0" stroke-linecap="butt"/><path d="M277.51863,116.82791c-0.99389,0.11043 -1.10432,-0.88345 -1.10432,-0.88345l-0.03459,-1.38182c0.60581,-1.51114 1.15258,-2.67069 2.36411,-3.77602c0,0 0.74741,-0.66436 1.41177,0.08305c0.66436,0.74741 -0.08305,1.41177 -0.08305,1.41177c-0.99724,0.8552 -1.35583,1.82093 -1.83589,3.02398l0.16541,0.41818c0,0 0.11043,0.99389 -0.88345,1.10432z" fill="#54ff00" stroke="none" stroke-width="0.5" stroke-linecap="butt"/></g></g></g></svg>