<svg version="1.1" xmlns="http://www.w3.org/2000/svg" xmlns:xlink="http://www.w3.org/1999/xlink" width="74.86179" height="22.01723" viewBox="0,0,74.86179,22.01723"><defs><linearGradient x1="244.58292" y1="188.85269" x2="241.36497" y2="189.62632" gradientUnits="userSpaceOnUse" id="color-1"><stop offset="0" stop-color="#dadada"/><stop offset="1" stop-color="#616161"/></linearGradient><linearGradient x1="242.73969" y1="191.00097" x2="245.95765" y2="192.14163" gradientUnits="userSpaceOnUse" id="color-2"><stop offset="0" stop-color="#dadada"/><stop offset="1" stop-color="#616161"/></linearGradient><linearGradient x1="244.58292" y1="193.45549" x2="241.36497" y2="194.59615" gradientUnits="userSpaceOnUse" id="color-3"><stop offset="0" stop-color="#dadada"/><stop offset="1" stop-color="#616161"/></linearGradient><linearGradient x1="242.28145" y1="195.8282" x2="245.49941" y2="196.96885" gradientUnits="userSpaceOnUse" id="color-4"><stop offset="0" stop-color="#dadada"/><stop offset="1" stop-color="#616161"/></linearGradient><linearGradient x1="242.28145" y1="199.17792" x2="245.49941" y2="198.03727" gradientUnits="userSpaceOnUse" id="color-5"><stop offset="0" stop-color="#dadada"/><stop offset="1" stop-color="#616161"/></linearGradient><linearGradient x1="243.65616" y1="188.85269" x2="246.87412" y2="189.62632" gradientUnits="userSpaceOnUse" id="color-6"><stop offset="0" stop-color="#dadada"/><stop offset="1" stop-color="#616161"/></linearGradient><linearGradient x1="245.49941" y1="191.00097" x2="242.28145" y2="192.14163" gradientUnits="userSpaceOnUse" id="color-7"><stop offset="0" stop-color="#dadada"/><stop offset="1" stop-color="#616161"/></linearGradient><linearGradient x1="243.65616" y1="193.45549" x2="246.87412" y2="194.59615" gradientUnits="userSpaceOnUse" id="color-8"><stop offset="0" stop-color="#dadada"/><stop offset="1" stop-color="#616161"/></linearGradient><linearGradient x1="245.95765" y1="195.8282" x2="242.73969" y2="196.96885" gradientUnits="userSpaceOnUse" id="color-9"><stop offset="0" stop-color="#dadada"/><stop offset="1" stop-color="#616161"/></linearGradient><linearGradient x1="245.95765" y1="199.17792" x2="242.73969" y2="198.03727" gradientUnits="userSpaceOnUse" id="color-10"><stop offset="0" stop-color="#dadada"/><stop offset="1" stop-color="#616161"/></linearGradient><linearGradient x1="243.10612" y1="193.48685" x2="243.10612" y2="200.36435" gradientUnits="userSpaceOnUse" id="color-11"><stop offset="0" stop-color="#cccccc"/><stop offset="1" stop-color="#929292"/></linearGradient><linearGradient x1="243.10612" y1="193.48685" x2="243.10612" y2="200.36435" gradientUnits="userSpaceOnUse" id="color-12"><stop offset="0" stop-color="#bcbcbc"/><stop offset="1" stop-color="#787878"/></linearGradient><linearGradient x1="241.92379" y1="180.84712" x2="241.92379" y2="187.72462" gradientUnits="userSpaceOnUse" id="color-13"><stop offset="0" stop-color="#cccccc"/><stop offset="1" stop-color="#929292"/></linearGradient><linearGradient x1="241.92379" y1="180.84712" x2="241.92379" y2="187.72462" gradientUnits="userSpaceOnUse" id="color-14"><stop offset="0" stop-color="#bcbcbc"/><stop offset="1" stop-color="#787878"/></linearGradient></defs><g transform="translate(-204.4929,-179.59712)"><g data-paper-data="{&quot;isPaintingLayer&quot;:true}" fill-rule="nonzero" stroke-linecap="butt" stroke-linejoin="miter" stroke-miterlimit="10" stroke-dasharray="" stroke-dashoffset="0" style="mix-blend-mode: normal"><g stroke="none" stroke-width="0"><path d="M214.54861,188.71972l3.21796,-0.77363l53.63272,1.81319l-3.21796,0.77363z" fill="url(#color-1)"/><path d="M219.14129,193.47834l-3.21797,-1.14066l53.63274,-2.67342l3.21796,1.14066z" data-paper-data="{&quot;index&quot;:null}" fill="url(#color-2)"/><path d="M214.54861,193.25944l3.21796,-1.14066l53.63274,2.67342l-3.21797,1.14066z" data-paper-data="{&quot;index&quot;:null}" fill="url(#color-3)"/><path d="M218.68305,198.30556l-3.21797,-1.14066l53.63274,-2.67342l3.21796,1.14066z" data-paper-data="{&quot;index&quot;:null}" fill="url(#color-4)"/><path d="M272.31577,199.37398l-3.21796,1.14066l-53.63274,-2.67342l3.21797,-1.14066z" data-paper-data="{&quot;index&quot;:null}" fill="url(#color-5)"/><path d="M220.05776,190.53291l-3.21797,-0.77363l53.63274,-1.81319l3.21796,0.77363z" data-paper-data="{&quot;index&quot;:null}" fill="url(#color-6)"/><path d="M215.46509,190.80492l3.21796,-1.14066l53.63274,2.67342l-3.21797,1.14066z" data-paper-data="{&quot;index&quot;:null}" fill="url(#color-7)"/><path d="M220.05776,195.93286l-3.21797,-1.14066l53.63274,-2.67342l3.21796,1.14066z" data-paper-data="{&quot;index&quot;:null}" fill="url(#color-8)"/><path d="M215.92332,195.63214l3.21796,-1.14066l53.63274,2.67342l-3.21797,1.14066z" data-paper-data="{&quot;index&quot;:null}" fill="url(#color-9)"/><path d="M269.55604,196.70056l3.21797,1.14066l-53.63274,2.67342l-3.21796,-1.14066z" data-paper-data="{&quot;index&quot;:null}" fill="url(#color-10)"/></g><path d="M215.20159,200.36435v-6.8775h55.80908v6.8775z" fill="url(#color-11)" stroke="url(#color-12)" stroke-width="2.5"/><path d="M205.7429,187.72462v-6.8775h72.36179v6.8775z" fill="url(#color-13)" stroke="url(#color-14)" stroke-width="2.5"/></g></g></svg>