<svg version="1.1" xmlns="http://www.w3.org/2000/svg" xmlns:xlink="http://www.w3.org/1999/xlink" width="141.948" height="109.08685" viewBox="0,0,141.948,109.08685"><g transform="translate(-166.02601,-83.43574)"><g data-paper-data="{&quot;isPaintingLayer&quot;:true}" fill="#270045" fill-rule="nonzero" stroke-width="0" stroke-linecap="butt" stroke-linejoin="miter" stroke-miterlimit="10" stroke-dasharray="" stroke-dashoffset="0" style="mix-blend-mode: normal"><path d="M280.55931,145.56887c0,0 -17.53825,-22.18044 -44.87051,-19.11616c-26.11911,2.92827 -40.1579,21.19058 -40.1579,21.19058l-10.38534,-9.89067c0,0 21.27855,-26.89509 49.72398,-26.99769c37.4492,-0.13507 55.09387,24.60408 55.09387,24.60408z" stroke="#270045"/><path d="M262.40167,165.30546c0,0 -10.07413,-14.28927 -25.93853,-12.27881c-11.63168,-0.5948 -22.35184,12.95091 -22.35184,12.95091l-9.89094,-9.41982c0,0 15.4189,-18.16608 31.95784,-18.22573c21.77398,-0.07854 35.2077,17.00946 35.2077,17.00946z" stroke="#270045"/><path d="M298.56989,125.9867c0,0 -31.13806,-29.70209 -58.47032,-26.63782c-33.67281,-4.90451 -64.03121,28.48117 -64.03121,28.48117l-10.04235,-9.24458c0,0 33.0995,-38.63643 71.61915,-34.89447c42.63385,-2.22492 70.32885,32.08585 70.32885,32.08585z" stroke="#270045"/><path d="M229.60639,188.72585c-5.50439,-5.2422 -5.71693,-13.95404 -0.47472,-19.45842c5.2422,-5.50439 13.95404,-5.71693 19.45842,-0.47472c5.50439,5.2422 5.71693,13.95404 0.47472,19.45842c-5.2422,5.50439 -13.95404,5.71693 -19.45842,0.47472z" stroke="none"/></g></g></svg>