<svg version="1.1" xmlns="http://www.w3.org/2000/svg" xmlns:xlink="http://www.w3.org/1999/xlink" width="483.40361" height="131.54611" viewBox="0,0,483.40361,131.54611"><g transform="translate(1.70181,-229.43439)"><g data-paper-data="{&quot;isPaintingLayer&quot;:true}" fill-rule="nonzero" stroke="none" stroke-width="0" stroke-linecap="butt" stroke-linejoin="miter" stroke-miterlimit="10" stroke-dasharray="" stroke-dashoffset="0" style="mix-blend-mode: normal"><path d="M-1.46051,360.9805v-115.82752h134.16231v115.82749z" data-paper-data="{&quot;index&quot;:null}" fill="#866000"/><path d="M124.98023,268.00755l-10.7322,-16.14832l-11.71244,12.62051l-17.65486,-16.13347l-17.75009,14.35736l-14.40743,-16.71326l-16.98271,24.96699l-10.17439,-24.37413l-13.5368,25.10057l-13.73113,-22.63841v-18.611h134.40362v18.611z" data-paper-data="{&quot;index&quot;:null}" fill="#005f10"/><path d="M131.34791,248.68174v-18h229v18z" fill="#ff6900"/><path d="M346.54128,359.9805v-115.82752h135.16052v115.82749z" data-paper-data="{&quot;index&quot;:null}" fill="#866000"/><path d="M473.92278,267.00755l-10.81205,-16.14832l-11.79959,12.62051l-17.78621,-16.13347l-17.88215,14.35736l-14.51462,-16.71326l-17.10906,24.96699l-10.25009,-24.37413l-13.63753,25.10057l-13.8333,-22.63841v-18.611h135.40362v18.611z" data-paper-data="{&quot;index&quot;:null}" fill="#005f10"/></g></g></svg>