<svg version="1.1" xmlns="http://www.w3.org/2000/svg" xmlns:xlink="http://www.w3.org/1999/xlink" width="239.18127" height="202.27181" viewBox="0,0,239.18127,202.27181"><g transform="translate(-115.87994,-76.6477)"><g data-paper-data="{&quot;isPaintingLayer&quot;:true}" fill-rule="nonzero" stroke-width="5" stroke-linejoin="miter" stroke-miterlimit="10" stroke-dasharray="" stroke-dashoffset="0" style="mix-blend-mode: normal"><g data-paper-data="{&quot;index&quot;:null}"><g stroke="#000000"><path d="M161.79302,276.4195c0,0 2.28263,-9.10654 0,-15.95444c-2.04171,-6.12494 -13.05366,-23.20645 -13.05366,-23.20645c0,0 -29.48631,-20.54235 -27.50451,-41.01364c0.22496,-2.32382 9.07217,-52.93117 38.3819,-81.56341c20.94927,-20.46503 63.70318,-22.60932 69.22445,-20.37814c4.26789,1.72468 31.12442,4.43944 55.99261,15.50929c35.04629,15.60052 67.53339,39.19344 67.53339,39.19344l-12.2538,83.15058l-127.55624,-0.69976l4.35124,44.96254z" fill="#949494" stroke-linecap="butt"/><path d="M347.44489,193.74638l-79.77225,-15.95444l-20.30568,-20.30568l-20.30568,-60.91698l68.169,21.75604l53.66497,30.45847z" fill="#000000" stroke-linecap="round"/><path d="M241.56531,167.63906h10.15279" fill="none" stroke-linecap="round"/><path d="M250.26774,183.59373l-14.50403,-1.45041" fill="none" stroke-linecap="round"/><path d="M231.41243,196.6473l8.70243,1.45041" fill="none" stroke-linecap="round"/><path d="M330.01753,232.13771c0,0 -76.27761,-2.4179 -115.52712,1.0216c-9.65703,0.84628 -1.2968,12.08622 -7.31635,12.1528c-53.33421,0.58985 -58.85641,-11.91277 -63.78816,-17.96669c-12.24908,-15.03621 -25.63635,-35.12674 -24.98296,-38.69277c0.84016,-4.58544 11.41224,-15.3483 11.41224,-15.3483l23.96266,9.3737l33.35929,11.60325l34.8097,7.25201l60.91698,1.45041l49.31373,26.10728" fill="#373737" stroke-linecap="round"/><path d="M327.97862,246.26579l-5.8016,14.50403h-75.42101l-15.95444,-2.90078l-5.8016,-14.50403l2.90078,-11.60325l7.25201,-8.70243l8.70243,2.90078l7.25201,8.70243l5.8016,7.25201z" fill="#000000" stroke-linecap="round"/><path d="M187.90034,251.76273l-1.45041,15.95444" fill="none" stroke-linecap="round"/><path d="M163.24343,248.86186l52.21456,4.35124" fill="none" stroke-linecap="round"/><path d="M182.09865,116.8751l-7.25201,13.05366l2.90078,13.05366l-21.75604,-11.60325l1.45041,-27.55769l20.30568,-23.20645l8.70243,11.60325l1.45041,20.30568z" fill="#151515" stroke-linecap="round"/><path d="M186.44998,139.3683l-20.30568,2.90078l-10.15279,-20.30568l5.8016,-8.70243l14.50403,-13.05366l11.60325,-1.45041l7.25201,5.8016l7.25201,7.25201l2.90078,15.95444z" fill="none" stroke-linecap="round"/></g><path d="M314.49442,132.99968c15.68457,4.61341 19.36102,13.8087 16.8552,24.85778c-2.50582,11.04907 -14.11486,17.83404 -25.92962,15.15453c-11.81471,-2.67951 -19.36102,-13.8087 -16.8552,-24.85778c2.50582,-11.04907 9.77361,-19.90656 25.92962,-15.15453z" fill="#54ff00" stroke="none" stroke-linecap="butt"/><path d="M255.8477,145.84188c-6.069,0.67431 -6.74331,-5.3946 -6.74331,-5.3946l-0.21123,-8.43778c3.69924,-9.22747 7.03798,-16.30803 14.43595,-23.05746c0,0 4.56391,-4.05676 8.62067,0.50711c4.05676,4.56391 -0.50711,8.62067 -0.50711,8.62067c-6.08945,5.22212 -8.27908,11.11911 -11.21048,18.4653l1.01002,2.55354c0,0 0.67431,6.069 -5.3946,6.74331z" fill="#54ff00" stroke="none" stroke-linecap="butt"/></g></g></g></svg>