<svg version="1.1" xmlns="http://www.w3.org/2000/svg" xmlns:xlink="http://www.w3.org/1999/xlink" width="488.4036" height="390.5461" viewBox="0,0,488.4036,390.5461"><g transform="translate(7.7018,30.5656)"><g data-paper-data="{&quot;isPaintingLayer&quot;:true}" fill-rule="nonzero" stroke="none" stroke-width="0" stroke-linecap="butt" stroke-linejoin="miter" stroke-miterlimit="10" stroke-dasharray="" stroke-dashoffset="0" style="mix-blend-mode: normal"><path d="M117.2982,359.98042v-369.13435h362.75117v369.13443z" fill="#866000"/><path d="M117.2982,-2.88713v-27.67847h363.4036v27.67847l-37.12655,33.66808l-36.60112,-37.32983l-27.50974,36.24946l-45.91824,-37.13116l-38.95511,24.85613l-47.99311,-21.35242l-47.73559,23.99386l-31.66839,-18.76936l-29.01798,24.01595z" fill="#005f10"/><path d="M-7.7018,358.98049v-47.56209h133.1641v47.5621z" fill="#866000"/><path d="M-7.7018,316.09662v-20.66222h133.4036v20.66222l-13.62897,25.13352l-13.43608,-27.86705l-10.09869,27.06054l-16.85635,-27.71874l-14.30022,18.55532l-17.61802,-15.93977l-17.52349,17.91163l-11.62531,-14.01149l-10.65235,17.92812z" fill="#005f10"/></g></g></svg>