<svg version="1.1" xmlns="http://www.w3.org/2000/svg" xmlns:xlink="http://www.w3.org/1999/xlink" width="480" height="178.52781" viewBox="0,0,480,178.52781"><g transform="translate(0,-184.83869)"><g data-paper-data="{&quot;isPaintingLayer&quot;:true}" fill-rule="nonzero" stroke="none" stroke-width="0" stroke-linecap="butt" stroke-linejoin="miter" stroke-miterlimit="10" stroke-dasharray="" stroke-dashoffset="0" style="mix-blend-mode: normal"><path d="M0,363.3665v-78.19012h285.85054v78.19013z" fill="#d69b00"/><path d="M0,295.21804v-21.37934h285.85696v21.37934l-29.20413,26.00583l-28.79082,-28.83422l-21.63943,27.99973l-36.11974,-28.68078l-30.64248,19.19932l-37.75185,-16.49299l-37.5493,18.53329l-24.91067,-14.49778l-22.82585,18.55035z" fill="#00d624"/><path d="M278.68117,362.36346v-166.5674h201.31431v166.56742z" fill="#d69b00"/><path d="M278.68117,205.50092v-20.66222h201.31883v20.66222l-20.56742,25.13352l-20.27633,-27.86704l-15.23989,27.06054l-25.43784,-27.71875l-21.5804,18.55532l-26.58728,-15.93977l-26.44463,17.91163l-17.54369,-14.01149l-16.07543,17.92812z" fill="#00d624"/></g></g></svg>