<svg version="1.1" xmlns="http://www.w3.org/2000/svg" xmlns:xlink="http://www.w3.org/1999/xlink" width="598.47889" height="861.5" viewBox="0,0,598.47889,861.5"><defs><linearGradient x1="239.0015" y1="-437.21546" x2="239.0015" y2="424.28454" gradientUnits="userSpaceOnUse" id="color-1"><stop offset="0" stop-color="#00c1ff"/><stop offset="1" stop-color="#2900ff"/></linearGradient></defs><g transform="translate(36.48405,437.21547)"><g data-paper-data="{&quot;isPaintingLayer&quot;:true}" fill-rule="nonzero" stroke-linejoin="miter" stroke-miterlimit="10" stroke-dasharray="" stroke-dashoffset="0" style="mix-blend-mode: normal"><g stroke="none" stroke-width="0" stroke-linecap="butt"><path d="M-4.9985,424.28454v-861.5h488v861.5z" fill="url(#color-1)"/><g fill="#ffffff"><path d="M302.0015,-19.27471c0,12.31308 -29.77306,22.2948 -66.5,22.2948c-36.72694,0 -66.5,-9.98172 -66.5,-22.2948c0,-12.31308 29.77306,-22.2948 66.5,-22.2948c36.72694,0 66.5,9.98172 66.5,22.2948z"/><path d="M280.47549,-45.79783c0,10.40243 -19.96344,18.83526 -44.5896,18.83526c-24.62615,0 -44.5896,-8.43283 -44.5896,-18.83526c0,-10.40243 19.96344,-18.83526 44.5896,-18.83526c24.62615,0 44.5896,8.43283 44.5896,18.83526z"/><path d="M174.383,-46.95101c0,-13.58684 11.01431,-24.60116 24.60116,-24.60116c13.58684,0 24.60116,11.01431 24.60116,24.60116c0,13.58684 -11.01431,24.60116 -24.60116,24.60116c-13.58684,0 -24.60116,-11.01431 -24.60116,-24.60116z"/><path d="M216.66624,-60.02037c0,-15.70979 8.94913,-28.44509 19.98844,-28.44509c11.03931,0 19.98844,12.7353 19.98844,28.44509c0,15.70979 -8.94913,28.44509 -19.98844,28.44509c-11.03931,0 -19.98844,-12.7353 -19.98844,-28.44509z"/><path d="M247.41768,-47.7198c0,-14.01143 11.35851,-25.36994 25.36994,-25.36994c14.01143,0 25.36994,11.35851 25.36994,25.36994c0,14.01143 -11.35851,25.36994 -25.36994,25.36994c-14.01143,0 -25.36994,-11.35851 -25.36994,-25.36994z"/></g><g fill="#ffffff"><path d="M464.0015,-26.53771c0,11.10954 -26.86292,20.11561 -60,20.11561c-33.13708,0 -60,-9.00606 -60,-20.11561c0,-11.10954 26.86292,-20.11561 60,-20.11561c33.13708,0 60,9.00606 60,20.11561z"/><path d="M444.57953,-50.46835c0,9.38565 -18.01213,16.99422 -40.23121,16.99422c-22.21909,0 -40.23121,-7.60857 -40.23121,-16.99422c0,-9.38565 18.01213,-16.99422 40.23121,-16.99422c22.21909,0 40.23121,7.60857 40.23121,16.99422z"/><path d="M348.85699,-51.50881c0,-12.2588 9.93773,-22.19653 22.19653,-22.19653c12.2588,0 22.19653,9.93773 22.19653,22.19653c0,12.2588 -9.93773,22.19653 -22.19653,22.19653c-12.2588,0 -22.19653,-9.93773 -22.19653,-22.19653z"/><path d="M387.00728,-63.30072c0,-14.17424 8.0744,-25.66474 18.03468,-25.66474c9.96028,0 18.03468,11.4905 18.03468,25.66474c0,14.17424 -8.0744,25.66474 -18.03468,25.66474c-9.96028,0 -18.03468,-11.4905 -18.03468,-25.66474z"/><path d="M414.75295,-52.20245c0,-12.64189 10.24828,-22.89017 22.89017,-22.89017c12.64189,0 22.89017,10.24828 22.89017,22.89017c0,12.64189 -10.24828,22.89017 -22.89017,22.89017c-12.64189,0 -22.89017,-10.24828 -22.89017,-22.89017z"/></g><g fill="#ffffff"><path d="M313.29562,55.36674c0,7.71133 -18.64603,13.9626 -41.64706,13.9626c-23.00103,0 -41.64706,-6.25126 -41.64706,-13.9626c0,-7.71133 18.64603,-13.9626 41.64706,-13.9626c23.00103,0 41.64706,6.25126 41.64706,13.9626z"/><path d="M299.81449,38.75607c0,6.51474 -12.50253,11.79599 -27.92519,11.79599c-15.42266,0 -27.92519,-5.28124 -27.92519,-11.79599c0,-6.51474 12.50253,-11.79599 27.92519,-11.79599c15.42266,0 27.92519,5.28124 27.92519,11.79599z"/><path d="M233.37178,38.03386c0,-8.50905 6.89795,-15.40701 15.40701,-15.40701c8.50905,0 15.40701,6.89795 15.40701,15.40701c0,8.50905 -6.89795,15.40701 -15.40701,15.40701c-8.50905,0 -15.40701,-6.89795 -15.40701,-15.40701z"/><path d="M259.85257,29.84889c0,-9.83859 5.60459,-17.81435 12.51819,-17.81435c6.91361,0 12.51819,7.97575 12.51819,17.81435c0,9.83859 -5.60459,17.81435 -12.51819,17.81435c-6.91361,0 -12.51819,-7.97575 -12.51819,-17.81435z"/><path d="M279.11133,37.55239c0,-8.77496 7.11351,-15.88847 15.88847,-15.88847c8.77496,0 15.88847,7.11351 15.88847,15.88847c0,8.77496 -7.11351,15.88847 -15.88847,15.88847c-8.77496,0 -15.88847,-7.11351 -15.88847,-15.88847z"/></g><g fill="#ffffff"><path d="M153.0015,8.22529c0,12.31308 -29.77307,22.2948 -66.5,22.2948c-36.72693,0 -66.5,-9.98172 -66.5,-22.2948c0,-12.31307 29.77307,-22.29479 66.5,-22.29479c36.72693,0 66.5,9.98172 66.5,22.29479z"/><path d="M131.47549,-18.29783c0,10.40242 -19.96344,18.83526 -44.58959,18.83526c-24.62615,0 -44.5896,-8.43283 -44.5896,-18.83526c0,-10.40242 19.96344,-18.83526 44.5896,-18.83526c24.62616,0 44.58959,8.43284 44.58959,18.83526z"/><path d="M25.38301,-19.45102c0,-13.58684 11.01431,-24.60115 24.60115,-24.60115c13.58684,0 24.60116,11.01431 24.60116,24.60115c0,13.58684 -11.01431,24.60116 -24.60116,24.60116c-13.58684,0 -24.60115,-11.01431 -24.60115,-24.60116z"/><path d="M67.66624,-32.52037c0,-15.70979 8.94913,-28.44509 19.98844,-28.44509c11.03931,0 19.98844,12.7353 19.98844,28.44509c0,15.70979 -8.94913,28.44509 -19.98844,28.44509c-11.03931,0 -19.98844,-12.7353 -19.98844,-28.44509z"/><path d="M98.41769,-20.2198c0,-14.01143 11.35851,-25.36994 25.36994,-25.36994c14.01143,0 25.36995,11.35851 25.36995,25.36994c0,14.01143 -11.35852,25.36994 -25.36994,25.36994c-14.01143,0 -25.36994,-11.35851 -25.36994,-25.36994z"/></g><g fill="#ffffff"><path d="M143.44688,123.61884c0,13.09494 -31.66363,23.7105 -70.72269,23.7105c-39.05906,0 -70.72269,-10.61554 -70.72269,-23.7105c0,-13.09494 31.66363,-23.7105 70.72269,-23.7105c39.05906,0 70.72269,10.61554 70.72269,23.7105z"/><path d="M120.55399,95.41153c0,11.06297 -21.2311,20.03128 -47.42099,20.03128c-26.18989,0 -47.42099,-8.96831 -47.42099,-20.03128c0,-11.06297 21.2311,-20.03128 47.42099,-20.03128c26.18989,0 47.42099,8.96831 47.42099,20.03128z"/><path d="M7.72472,94.18512c0,-14.44959 11.71371,-26.16331 26.16331,-26.16331c14.44959,0 26.16331,11.71371 26.16331,26.16331c0,14.44959 -11.71371,26.16331 -26.16331,26.16331c-14.44959,0 -26.16331,-11.71371 -26.16331,-26.16331z"/><path d="M52.69291,80.28586c0,-16.70735 9.51739,-30.25132 21.25769,-30.25132c11.7403,0 21.25769,13.54398 21.25769,30.25132c0,16.70735 -9.51739,30.25132 -21.25769,30.25132c-11.7403,0 -21.25769,-13.54398 -21.25769,-30.25132z"/><path d="M85.39704,93.36752c0,-14.90115 12.07977,-26.98091 26.98091,-26.98091c14.90115,0 26.98091,12.07977 26.98091,26.98091c0,14.90115 -12.07977,26.98091 -26.98091,26.98091c-14.90115,0 -26.98091,-12.07977 -26.98091,-26.98091z"/></g><g fill="#ffffff"><path d="M332.0015,158.33512c0,15.46078 -37.38423,27.99422 -83.5,27.99422c-46.11577,0 -83.5,-12.53343 -83.5,-27.99422c0,-15.46078 37.38423,-27.99422 83.5,-27.99422c46.11577,0 83.5,12.53343 83.5,27.99422z"/><path d="M304.9726,125.03165c0,13.06169 -25.06688,23.65028 -55.98843,23.65028c-30.92156,0 -55.98843,-10.58859 -55.98843,-23.65028c0,-13.06169 25.06688,-23.65028 55.98843,-23.65028c30.92156,0 55.98843,10.58859 55.98843,23.65028z"/><path d="M171.75872,123.58367c0,-17.06017 13.83,-30.89018 30.89018,-30.89018c17.06017,0 30.89018,13.83 30.89018,30.89018c0,17.06017 -13.83,30.89018 -30.89018,30.89018c-17.06017,0 -30.89018,-13.83 -30.89018,-30.89018z"/><path d="M224.85122,107.17327c0,-19.72582 11.23688,-35.71676 25.09827,-35.71676c13.86139,0 25.09827,15.99094 25.09827,35.71676c0,19.72582 -11.23688,35.71676 -25.09827,35.71676c-13.86139,0 -25.09827,-15.99094 -25.09827,-35.71676z"/><path d="M263.46393,122.61836c0,-17.5933 14.26219,-31.85549 31.85549,-31.85549c17.5933,0 31.85549,14.26219 31.85549,31.85549c0,17.5933 -14.26219,31.85549 -31.85549,31.85549c-17.5933,0 -31.85549,-14.26219 -31.85549,-31.85549z"/></g><g fill="#ffffff"><path d="M459.0015,107.01005c0,11.20702 -22.16191,20.29211 -49.5,20.29211c-27.33809,0 -49.5,-9.08508 -49.5,-20.29211c0,-11.20702 22.16191,-20.29211 49.5,-20.29211c27.33809,0 49.5,9.08508 49.5,20.29211z"/><path d="M442.97838,82.86944c0,9.468 -14.86,17.14333 -33.19075,17.14333c-18.33074,0 -33.19075,-7.67533 -33.19075,-17.14333c0,-9.468 14.86,-17.14333 33.19075,-17.14333c18.33074,0 33.19075,7.67533 33.19075,17.14333z"/><path d="M364.00728,81.81984c0,-12.36637 8.19862,-22.3913 18.31214,-22.3913c10.11351,0 18.31214,10.02492 18.31214,22.3913c0,12.36637 -8.19862,22.3913 -18.31214,22.3913c-10.11351,0 -18.31214,-10.02492 -18.31214,-22.3913z"/><path d="M395.48127,69.92447c0,-14.29862 6.66138,-25.88993 14.87861,-25.88993c8.21723,0 14.87861,11.59132 14.87861,25.88993c0,14.29862 -6.66138,25.88993 -14.87861,25.88993c-8.21723,0 -14.87861,-11.59132 -14.87861,-25.88993z"/><path d="M418.37144,81.12012c0,-12.75282 8.45483,-23.09102 18.88439,-23.09102c10.42956,0 18.88439,10.3382 18.88439,23.09102c0,12.75282 -8.45483,23.09102 -18.88439,23.09102c-10.42956,0 -18.88439,-10.3382 -18.88439,-23.09102z"/></g></g><g stroke-width="1.5"><g data-paper-data="{&quot;index&quot;:null}" fill="#949494" stroke="#000000"><path d="M54.69415,239.66954c0,0 -5.38666,-12.44811 -1.61693,-18.75849c1.35508,-2.26836 1.14051,-2.47502 3.31643,-6.28147c0.78376,-1.37107 1.71387,-2.76309 2.68704,-4.40534c2.60967,-4.40382 5.38436,-9.15437 5.38436,-9.15437c0,0 12.46957,3.37539 16.91799,3.81871c0.42951,0.04281 21.22818,2.58802 21.66198,2.62845c10.61726,0.9894 7.17488,0.48233 7.17488,0.48233c0,0 5.26158,-2.71885 6.83664,-2.25225c3.02457,0.89602 6.28464,-2.03118 7.38992,3.71881c0.51951,2.7026 0.3146,2.97642 0.30531,6.6116c-0.01358,5.30655 -0.57615,13.35545 -2.88716,18.50266c-3.11025,6.92736 -8.20665,10.25464 -8.20665,10.25464z" stroke-linecap="butt"/><path d="M77.74367,241.01859c0,0 9.92248,-7.96041 10.49847,-17.25446c0.06595,-4.27807 -3.78808,-13.41807 -3.78808,-13.41807l-3.49778,-5.32487l2.86401,4.55082c0,0 4.09808,-0.06117 6.34385,-0.09468c2.54276,-0.03796 8.13265,-0.12139 8.13265,-0.12139l-0.07096,-1.66584" stroke-linecap="round"/><path d="M109.53754,215.45244c0,0 3.02937,0.8135 5.50005,2.69629c3.01124,2.29472 5.557,5.98408 5.36072,9.28775c-0.19469,3.27689 -1.46402,7.9186 -4.49548,10.53847c-3.74067,3.23279 -9.4898,4.0735 -11.10643,3.72171c-4.38391,-0.95396 -7.23171,-9.35281 -7.3199,-11.31118c-0.2429,-5.39412 2.81862,-11.86805 3.88131,-13.03163c1.98142,-2.16953 8.17973,-1.90139 8.17973,-1.90139" stroke-linecap="round"/><path d="M58.74325,223.42358c0.48353,-4.85193 3.84357,-7.28645 8.0457,-8.57228c1.29719,-0.39694 4.16159,-1.11164 5.58296,-0.96998c6.02574,0.60051 9.50582,5.67197 8.87302,12.02168c-0.6328,6.34972 -6.82805,11.87876 -12.8538,11.27825c-6.02575,-0.60051 -10.28069,-7.40797 -9.64789,-13.75768z" stroke-linecap="butt"/></g><g data-paper-data="{&quot;index&quot;:null}" stroke="#000000" stroke-linecap="round"><path d="M42.51192,193.94391c0,0 9.73462,0.60856 14.81396,3.32211c2.18465,1.16711 4.5342,3.13878 5.12124,4.55082c0.68158,1.63948 -0.6126,2.64691 -1.00048,2.69069c-2.61628,0.29532 -7.57276,-1.2488 -9.52295,-2.2932c-3.41841,-1.83068 -9.64641,-8.29383 -9.64641,-8.29383" fill="#d8d8d8"/><path d="M56.92146,203.91072l2.22703,-5.70223" fill="none"/></g><path d="M120.59147,241.78678l-13.62578,-6.59316c0,0 -4.69745,-2.805 -4.72986,-4.75749c-0.01841,-1.10845 -0.48981,-4.93413 0.24132,-6.86228c0.91553,-2.41447 3.90238,-2.95142 4.83931,-3.68458c0.40908,-0.32011 4.61351,0.72717 4.61351,0.72717c0,0 2.87836,1.8351 4.78372,3.04985c2.82792,1.80293 10.53761,6.71823 10.53761,6.71823z" data-paper-data="{&quot;index&quot;:null}" fill="#949494" stroke="#000000" stroke-linecap="butt"/><g data-paper-data="{&quot;index&quot;:null}"><g><path d="M48.87381,231.15792l5.53335,-2.03288l1.70761,4.64802l-5.53335,2.03288z" data-paper-data="{&quot;index&quot;:null}" fill="#000000" stroke="none" stroke-linecap="butt"/><path d="M49.76326,244.66357l-4.42024,2.24436l-3.86079,2.67729l-4.42681,-0.44415l2.17781,2.57979l0.33737,2.64634l0.54166,1.61179l-0.1799,2.5442l-3.70526,-1.37654l-7.54363,-6.43398l-0.54166,-1.61179l-0.79467,-3.59654l5.73024,-7.79006l10.54318,-1.68029z" fill="#949494" stroke="#000000" stroke-linecap="round"/><path d="M44.01133,235.14375l2.36893,-3.83178l3.16361,-0.23525l2.79722,2.16465l0.30178,5.00406l-1.16569,5.35922l-1.71394,1.05892z" fill="#242424" stroke="#000000" stroke-linecap="round"/><path d="M52.32988,237.10876l-1.40093,2.19561l-4.67325,0.25961" fill="none" stroke="#000000" stroke-linecap="round"/></g><g stroke="none" stroke-linecap="butt"><path d="M29.3176,243.71173l3.07876,-4.8624l11.71078,-1.3439l4.17921,6.53847l-6.72281,4.52451l-6.06037,-0.27732z" fill="#8c6200"/><path d="M39.56887,236.26009l5.18197,1.40095l3.8611,6.4763l-2.79163,1.39026z" fill="#8c0081"/><path d="M35.98626,256.56012l-8.05878,-7.8436l2.53427,-5.09968l5.73065,4.47355l1.59236,2.92153l2.24104,2.61197l0.10753,1.34535l-0.45153,2.68653z" fill="#8c0081"/><g fill="#ffffff"><path d="M42.91376,241.76735c0.00045,0 0.00091,0.00001 0.00135,0.00002c0.27166,0.00246 0.26922,0.27413 0.26922,0.27413c-0.02576,1.32699 -1.08391,1.86053 -2.09438,1.41929c0.09847,-0.08364 0.05058,-0.21913 0.05058,-0.21913c-0.32479,-0.91904 -0.63123,-1.8413 -1.00843,-2.73801c0.24763,-0.39335 0.56694,-0.67838 0.89854,-0.65612c0.46711,0.03138 0.9323,0.41393 1.25319,0.7009c0.38738,0.40702 0.50767,0.75381 0.62995,1.21891zM41.44282,240.93766c0.0375,0.1061 0.15392,0.16172 0.26001,0.12422c0.1061,-0.03751 0.16172,-0.15392 0.12422,-0.26002c-0.03751,-0.1061 -0.15392,-0.16172 -0.26001,-0.12422c-0.1061,0.0375 -0.16172,0.15392 -0.12422,0.26001zM42.02933,242.49531c0.03751,0.1061 0.15393,0.16171 0.26003,0.12421c0.10611,-0.0375 0.16172,-0.1539 0.12423,-0.26001c-0.03751,-0.1061 -0.15392,-0.16172 -0.26002,-0.12422c-0.1061,0.0375 -0.16172,0.15392 -0.12422,0.26001z"/><path d="M41.5455,244.43231c0.12574,0.35575 -0.23001,0.48147 -0.23001,0.48147l0.05686,-0.06236c-0.14638,0.14859 -0.32879,0.25604 -0.52769,0.33431l0.0123,0.01466l-0.00967,0.00811l0.0479,0.10191l-0.42436,0.19947c-0.01265,0.00615 -0.02579,0.01163 -0.03937,0.01643c-0.19648,0.06944 -0.41204,-0.03353 -0.48147,-0.23001c-0.03778,-0.1069 -0.02451,-0.21948 0.02709,-0.31107c-0.00581,-0.00341 -0.00893,-0.00548 -0.00893,-0.00548c-0.4902,-0.32862 -0.94614,-0.69104 -1.41074,-1.04328c-0.05497,0.27705 -0.11563,0.55386 -0.18357,0.83074c-0.18719,0.7629 -0.08673,1.63531 -0.64707,2.1965c0.03851,-0.03826 0.13438,-0.13346 0.17502,-0.17381l0.088,0.10162l0.03212,-0.04587l0.32875,0.23018c0.06397,0.04363 0.11514,0.10727 0.14294,0.18588c0.06943,0.19648 -0.03355,0.41204 -0.23003,0.48147c-0.03254,0.01152 -0.06563,0.01828 -0.09845,0.02069l-0.37875,0.03599l-0.00636,-0.06699c-0.32268,0.06109 -0.57582,-0.00925 -0.98508,-0.25861c-0.11037,-0.00613 -0.24725,-0.05697 -0.3158,-0.25091c-0.12574,-0.35575 0.23001,-0.48148 0.23001,-0.48148l0.37936,0.02599c0.03577,0.02494 0.07202,0.04613 0.10817,0.06466c0.10492,-0.56224 0.27283,-1.34514 0.29928,-1.48415c0.12299,-0.64675 0.24196,-1.28656 0.35377,-1.92633c-0.15705,-0.10745 -0.31725,-0.21153 -0.4821,-0.31071c-0.31871,-0.19178 -0.65612,-0.33565 -0.98906,-0.4909c-0.05923,0.25161 -0.16861,0.51189 -0.36989,0.81529l-0.19263,0.4032c-0.04162,0.08713 -0.11649,0.15837 -0.21471,0.1931c-0.19649,0.06944 -0.41205,-0.03353 -0.48148,-0.23001c-0.0157,-0.04446 -0.02258,-0.08985 -0.02156,-0.13435l-0.00032,-0.74584l0.03001,-0.00003c-0.1002,-0.62372 -0.05556,-1.14268 0.20884,-1.98774l0.07707,-0.17014c0,0 0.16265,-0.34045 0.50311,-0.17781c0.03316,0.01585 0.06155,0.03337 0.08577,0.0521c0.03071,-0.00502 0.06462,-0.00688 0.10202,-0.00481c0.37672,0.02077 0.35596,0.39751 0.35596,0.39751c-0.01777,0.3003 -0.01287,0.55712 -0.01302,0.79327c0.43161,0.22471 0.8886,0.38858 1.31047,0.64147c0.07747,0.04642 0.15393,0.09403 0.22957,0.14263c0.09422,-0.57409 0.18164,-1.15047 0.25998,-1.7341c-0.3227,-0.12505 -0.58116,-0.31052 -0.60003,-0.58984c-0.08758,-1.29688 1.84107,-0.31548 2.17907,-0.07926l0.17294,0.19501c0,0 0.23178,0.29774 -0.06596,0.52951c-0.01715,0.01336 -0.03409,0.02494 -0.0508,0.03495c0.29378,0.73603 0.54748,1.48693 0.81093,2.23636c-0.05463,-0.03853 -0.10867,-0.08012 -0.16197,-0.12486c-0.08203,-0.06885 -0.77988,-0.64646 -0.82634,-0.7425c-0.1379,-0.28503 -0.05857,-0.83683 0.14762,-1.35269c-0.02215,0.011 -0.04381,0.01925 -0.0649,0.02514c-0.12442,0.15014 -0.33959,0.12332 -0.33959,0.12332c-0.11046,-0.014 -0.27538,-0.0336 -0.46134,-0.06512c-0.08494,0.68724 -0.17098,1.36762 -0.28136,2.0451c0.55924,0.41507 1.09644,0.8564 1.68039,1.24242c0,0 0.03334,0.02221 0.07106,0.06301c0.11489,-0.19118 0.2509,-0.3707 0.39701,-0.53824c0,0 0.24991,-0.28267 0.53259,-0.03275c0.19129,0.16913 0.13866,0.35327 0.08465,0.45463c0.02869,0.03442 0.05401,0.07828 0.07366,0.13396z"/></g></g></g><path d="M75.15424,231.05098l-14.46264,8.96979l-6.67095,-8.85305l-0.2533,-1.56138l11.60705,-10.10899l6.32134,-2.52114l4.67026,2.44728l2.07656,4.89784l-0.53431,3.29161z" data-paper-data="{&quot;index&quot;:null}" fill="#949494" stroke="#000000" stroke-linecap="round"/><g data-paper-data="{&quot;index&quot;:null}"><g><path d="M129.63196,236.80701l-5.2153,-2.74797l2.30829,-4.38084l5.2153,2.74797z" fill="#000000" stroke="none" stroke-linecap="butt"/><path d="M158.46233,243.86325c0,0 0.69779,1.04787 -0.15417,1.62578c-2.23244,1.51438 -13.73498,7.7958 -13.73498,7.7958l-15.78456,-7.47118c0,0 4.93834,-5.36857 6.71048,-7.70332c0.68751,-0.90577 11.23482,3.51141 11.89517,3.0838c0.68641,-0.44447 0.04371,3.24196 0.50895,3.89717c0.52531,0.7398 2.13921,-1.52248 2.59996,-1.78982c1.29822,-0.75323 3.90787,-1.72212 3.90787,-1.72212l4.05125,2.28389z" fill="#949494" stroke="#000000" stroke-linecap="butt"/><path d="M126.8876,245.82618l0.63486,-10.18243l2.22174,-1.95603l2.51365,-0.4988l2.481,1.2666l1.45273,2.97371z" fill="#242424" stroke="#000000" stroke-linecap="butt"/><path d="M132.09228,241.17074l-2.10497,0.13087l-1.67689,-1.48059" fill="none" stroke="#000000" stroke-linecap="round"/><path d="M147.6743,244.53393l1.2084,5.84161" fill="none" stroke="#000000" stroke-linecap="round"/></g><g stroke="none" stroke-linecap="butt"><path d="M145.48957,251.97196l-15.09536,-5.8999l5.57411,-8.44501l2.66629,1.90468l7.63499,2.9032z" fill="#8c6200"/><path d="M134.03691,247.41951l-3.535,-1.62579l5.70113,-7.8654l2.78367,2.06171z" fill="#8c0081"/><path d="M145.25779,252.35785l-1.88655,-10.66955l2.9284,0.59639l2.30297,3.57714l2.49666,-1.76908l3.26402,-1.09126l1.28667,0.40749l2.31819,1.43084z" fill="#8c0081"/><g fill="#ffffff"><path d="M135.78642,244.11366c-0.00033,-0.00029 -0.00065,-0.00061 -0.001,-0.00092c-0.20038,-0.18348 -0.01689,-0.38385 -0.01689,-0.38385c0.90639,-0.96954 2.04998,-0.65881 2.50636,0.34491c-0.12913,-0.00365 -0.18412,0.12914 -0.18412,0.12914c-0.37294,0.90059 -0.76171,1.79127 -1.08077,2.71026c-0.44713,0.12694 -0.87516,0.1254 -1.10685,-0.11288c-0.32638,-0.33565 -0.41653,-0.93115 -0.46327,-1.35909c-0.01593,-0.56167 0.1265,-0.89998 0.34653,-1.32757zM136.21519,245.4479c-0.10397,-0.04306 -0.22315,0.00632 -0.26621,0.1103c-0.04306,0.10397 0.00632,0.22315 0.1103,0.26621c0.10397,0.04306 0.22315,-0.00632 0.26621,-0.1103c0.04306,-0.10397 -0.00632,-0.22315 -0.1103,-0.26621zM136.93077,244.16368c0.04306,-0.10397 -0.00632,-0.22315 -0.1103,-0.26621c-0.10397,-0.04306 -0.22315,0.00632 -0.26621,0.1103c-0.04305,0.10397 0.00632,0.22315 0.1103,0.26621c0.10398,0.04305 0.22316,-0.00632 0.26622,-0.1103z"/><path d="M138.58567,243.04679c0.14435,-0.34859 0.49296,-0.20424 0.49296,-0.20424l-0.08397,0.00834c0.20821,-0.01263 0.41568,0.02943 0.61593,0.10421l0.00065,-0.01914l0.0126,0.00043l0.03252,-0.10782l0.44893,0.1354c0.01352,0.00389 0.02696,0.00859 0.04027,0.0141c0.19252,0.07973 0.28398,0.30044 0.20424,0.49296c-0.04338,0.10476 -0.12852,0.17959 -0.22814,0.2132c0.00204,0.00643 0.00296,0.01006 0.00296,0.01006c0.1448,0.57213 0.24152,1.14648 0.35149,1.71905c0.22612,-0.16926 0.45631,-0.33455 0.69196,-0.49503c0.64928,-0.44214 1.15787,-1.15805 1.94975,-1.20071c-0.0542,0.00269 -0.18915,0.00938 -0.24636,0.01223l0.00249,-0.13438l-0.05455,0.01263l-0.09057,-0.39097c-0.01841,-0.07522 -0.0139,-0.15676 0.01799,-0.23378c0.07974,-0.19253 0.30044,-0.28398 0.49296,-0.20424c0.03189,0.01321 0.06102,0.03028 0.08704,0.05045l0.3057,0.22648l-0.04005,0.05408c0.28078,0.17031 0.422,0.39188 0.55961,0.85093c0.07796,0.07836 0.14576,0.20769 0.06706,0.39773c-0.14436,0.3486 -0.49296,0.20424 -0.49296,0.20424l-0.26472,-0.27298c-0.00994,-0.04247 -0.0227,-0.08247 -0.03721,-0.12041c-0.45395,0.34794 -1.10227,0.81785 -1.21487,0.90354c-0.52388,0.3987 -1.04013,0.79492 -1.55105,1.19589c0.04493,0.18491 0.0945,0.36942 0.15075,0.55339c0.10878,0.35568 0.26349,0.68827 0.40727,1.02633c0.21229,-0.14748 0.46764,-0.2679 0.82016,-0.35895l0.4128,-0.17103c0.0892,-0.03697 0.19251,-0.03988 0.28878,-0.00002c0.19253,0.07974 0.28398,0.30044 0.20424,0.49296c-0.01803,0.04356 -0.04328,0.08193 -0.07379,0.11433l-0.49842,0.55483l-0.02233,-0.02004c-0.34252,0.53082 -0.72271,0.88687 -1.48432,1.33848l-0.17108,0.07499c0,0 -0.34858,0.14442 -0.493,-0.20417c-0.01407,-0.03395 -0.02345,-0.06597 -0.02895,-0.09609c-0.02619,-0.01679 -0.05265,-0.03808 -0.07907,-0.06463c-0.26624,-0.26733 0.00107,-0.53358 0.00107,-0.53358c0.214,-0.21144 0.38207,-0.40568 0.54008,-0.5812c-0.17069,-0.45567 -0.40098,-0.88309 -0.54559,-1.35321c-0.02656,-0.0863 -0.05159,-0.17283 -0.07536,-0.25953c-0.4539,0.36391 -0.90428,0.73406 -1.35276,1.11567c0.15636,0.30875 0.22455,0.61947 0.05183,0.83981c-0.80198,1.02293 -1.57998,-0.99637 -1.67338,-1.39802l0.00179,-0.26064c0,0 0.02672,-0.37637 0.40307,-0.34965c0.02168,0.00154 0.04203,0.00426 0.06112,0.00797c0.27366,-0.74374 0.58708,-1.47174 0.89224,-2.20519c0.01488,0.06516 0.02725,0.13225 0.03698,0.20115c0.01497,0.10605 0.1477,1.00215 0.11804,1.10462c-0.08804,0.30416 -0.51597,0.66145 -1.01419,0.9072c0.02383,0.00664 0.04546,0.01497 0.06507,0.02469c0.19292,-0.02844 0.33499,0.13535 0.33499,0.13535c0.07277,0.08427 0.18232,0.2091 0.29954,0.35687c0.52265,-0.45425 1.04154,-0.90267 1.57661,-1.33264c-0.13833,-0.68258 -0.24271,-1.36993 -0.41886,-2.04741c0,0 -0.00994,-0.03881 -0.01071,-0.09435c-0.21326,0.06536 -0.43443,0.10789 -0.65509,0.13479c0,0 -0.37484,0.04312 -0.41794,-0.33174c-0.02918,-0.25368 0.13308,-0.35539 0.24101,-0.39467c0.00168,-0.04478 0.01218,-0.09432 0.03479,-0.14886z"/></g></g></g><g data-paper-data="{&quot;index&quot;:null}"><g stroke="#000000"><path d="M115.03998,207.24683c0,0 0.51609,-1.4364 0.25722,-2.581c-0.23155,-1.02376 -1.7376,-3.96463 -1.7376,-3.96463c0,0 -4.43891,-3.79858 -3.78826,-7.07832c0.07385,-0.37231 2.32098,-8.41657 7.52411,-12.57596c3.71896,-2.97295 10.66995,-2.63056 11.52718,-2.18061c0.66262,0.34781 4.96352,1.21997 8.80805,3.4117c5.41802,3.08876 10.29321,7.4292 10.29321,7.4292l-3.32288,13.25397l-20.62386,-2.16965l-0.02097,7.34387z" fill="#949494" stroke-linecap="butt"/><path d="M146.40629,196.86562l-12.64777,-3.86708l-2.95754,-3.61227l-2.30281,-10.18209l10.67715,4.61855l8.19049,5.79255z" fill="#000000" stroke-linecap="round"/><path d="M131.34118,191.09886l-1.64245,-0.16368" fill="none" stroke-linecap="round"/><path d="M128.52636,193.18803l2.32298,0.46848" fill="none" stroke-linecap="round"/><path d="M127.5886,195.46424l1.38444,0.37494" fill="none" stroke-linecap="round"/><path d="M142.96807,202.79533c0,0 -12.30067,-1.62089 -18.70564,-1.69725c-1.57589,-0.01878 -0.40464,1.93432 -1.37951,1.84804c-8.63754,-0.76442 -9.32932,-2.87604 -10.02954,-3.9349c-1.73916,-2.62993 -3.58096,-6.09587 -3.41777,-6.66221c0.20985,-0.72826 2.09363,-2.29895 2.09363,-2.29895l3.72539,1.90273l5.20956,2.41491l5.51435,1.73438l9.83134,1.21673l7.55673,5.01848" fill="#373737" stroke-linecap="round"/><path d="M142.41045,205.048l-1.17237,2.25283l-12.20108,-1.21593l-2.53423,-0.72649l-0.70471,-2.43989l0.65634,-1.83032l1.31348,-1.2909l1.36105,0.60957l1.03288,1.52473l0.82162,1.26671z" fill="#000000" stroke-linecap="round"/><path d="M119.16911,206.23655l0.49185,-2.55762" fill="none" stroke-linecap="round"/><path d="M124.09565,204.35784l-8.37675,-1.54571" fill="none" stroke-linecap="round"/><path d="M120.89705,181.76422l-1.38363,1.99481l0.25882,2.15849l-3.33247,-2.22784l0.67892,-4.43471l3.65905,-3.42681l1.22075,2.01739l-0.09273,3.30829z" fill="#151515" stroke-linecap="round"/><path d="M121.23834,185.47317l-3.33168,0.1419l-1.31508,-3.44859l1.07884,-1.31429l2.55681,-1.8779l1.90047,-0.04758l1.07964,1.05545l1.05627,1.2901l0.21205,2.62776z" fill="none" stroke-linecap="round"/></g><path d="M142.05514,186.50722c2.46296,0.99919 2.90947,2.54602 2.32596,4.29306c-0.58351,1.74704 -2.57092,2.6575 -4.43904,2.03356c-1.8681,-0.62394 -2.90947,-2.54602 -2.32596,-4.29306c0.58351,-1.74704 1.90203,-3.06277 4.43904,-2.03356z" fill="#54ff00" stroke="none" stroke-linecap="butt"/><path d="M132.36065,187.63924c-0.99267,0.01124 -1.00391,-0.98142 -1.00391,-0.98142l0.10186,-1.36841c0.7472,-1.43312 1.40147,-2.52473 2.70708,-3.49734c0,0 0.80372,-0.5827 1.38641,0.22102c0.5827,0.80372 -0.22102,1.38641 -0.22102,1.38641c-1.0693,0.74662 -1.51859,1.6653 -2.11124,2.80646l0.12223,0.42938c0,0 0.01124,0.99267 -0.98142,1.00391z" fill="#54ff00" stroke="none" stroke-linecap="butt"/></g></g><g stroke-width="3" stroke-linecap="butt"><path d="M347.4502,201.57615c0,0 0.28815,1.53675 -1.24862,1.8249c-0.71341,0.13376 -1.15773,-0.12575 -1.42906,-0.44223c-0.62379,-0.20543 -1.07411,-0.79282 -1.07411,-1.48541c0,-0.13282 0.01655,-0.26176 0.04772,-0.38488l0.2559,-1.10895c-0.8086,-5.13461 -1.45101,-12.7017 0.79864,-16.71315c3.30189,-5.88774 12.09778,-6.54912 17.92083,-6.54912c3.31682,0 9.77018,-1.22805 12.83291,0.43387c2.42424,1.31548 4.06988,4.46919 5.98366,6.39943c6.33541,6.38993 10.71748,10.89777 13.84502,19.77573c1.10465,8.64979 1.34546,18.21773 1.34546,26.9423c0,2.13463 0.93052,7.12869 -0.20772,8.98735c-1.26197,2.06067 -5.621,3.44619 -7.81056,3.65014c-1.55514,0.00096 -5.16551,0.5065 -6.33454,-0.81235c-0.98022,-1.10584 -0.2588,-4.6807 -0.3666,-6.1116c-0.36827,-4.88868 -1.04451,-10.838 -0.24714,-15.71817c0.57276,-3.50542 2.19763,-5.98587 2.19763,-9.66995c0,-6.41207 -4.8124,-16.36266 -12.15342,-17.48793c-4.19649,-0.64326 -8.5137,-0.62869 -12.79954,-0.56119c-0.19415,0.64272 -0.7909,1.11074 -1.49698,1.11074h-1.47252c-2.54739,0.36881 -5.0483,2.9802 -7.3839,5.42266l-0.03842,0.0975c0,0 -0.26601,0.53204 -0.79805,0.7757l0.54026,0.50648l-0.93033,0.99235c0.00784,0.04217 0.01566,0.0841 0.02347,0.12573z" fill="#c6c6c6" stroke="#6f6f6f"/><path d="M382.91808,266.91407l-11.63082,-13.73041l5.94426,-5.0353l11.63084,13.73041z" data-paper-data="{&quot;index&quot;:null}" fill="#c6c6c6" stroke="#6f6f6f"/><path d="M336.86261,259.2693l13.87494,-11.45802l4.96047,6.00684l-13.87494,11.45802z" fill="#c6c6c6" stroke="#6f6f6f"/><path d="M350.50463,252.81317v-26.00417h26.00417v26.00417z" fill="#c6c6c6" stroke="#6f6f6f"/><path d="M342.49491,210.89924c0,-11.6954 9.48099,-21.17639 21.17639,-21.17639c11.6954,0 21.17639,9.48099 21.17639,21.17639c0,11.6954 -9.48099,21.17639 -21.17639,21.17639c-11.6954,0 -21.17639,-9.48099 -21.17639,-21.17639z" fill="#c6c6c6" stroke="#6f6f6f"/><path d="M355.15588,207.95913c0,-1.38861 7.89143,-5.17389 7.89143,-5.17389c0,0 1.43775,2.21769 1.43775,5.17389c0,2.57618 -2.08841,4.66459 -4.66459,4.66459c-2.57618,0 -4.66459,-2.08841 -4.66459,-4.66459z" fill="#ff0000" stroke="none"/><path d="M345.25894,207.84822c0,-2.47252 0.2614,-4.47692 0.2614,-4.47692c0,0 8.69242,2.00438 8.69242,4.47692c0,2.47252 -2.00438,4.47692 -4.47692,4.47692c-2.47252,0 -4.47692,-2.00438 -4.47692,-4.47692z" fill="#ff0000" stroke="none"/><path d="M351.79386,198.61036c0,-0.86351 0.70003,-1.56354 1.56354,-1.56354c0.86351,0 1.56354,0.70003 1.56354,1.56354c0,0.86351 -0.70003,1.56354 -1.56354,1.56354c-0.86351,0 -1.56354,-0.70003 -1.56354,-1.56354z" fill="#000000" stroke="none"/><path d="M373.29943,198.28118c0,-0.86351 0.70003,-1.56354 1.56354,-1.56354c0.86351,0 1.56354,0.70003 1.56354,1.56354c0,0.86351 -0.70003,1.56354 -1.56354,1.56354c-0.86351,0 -1.56354,-0.70003 -1.56354,-1.56354z" fill="#000000" stroke="none"/><path d="M351.35499,223.5173c0,-0.86351 0.70003,-1.56354 1.56354,-1.56354c0.86351,0 1.56354,0.70003 1.56354,1.56354c0,0.86351 -0.70003,1.56354 -1.56354,1.56354c-0.86351,0 -1.56354,-0.70003 -1.56354,-1.56354z" fill="#000000" stroke="none"/><path d="M371.76333,224.06591c0,-0.86351 0.70003,-1.56354 1.56354,-1.56354c0.86351,0 1.56354,0.70003 1.56354,1.56354c0,0.86351 -0.70003,1.56354 -1.56354,1.56354c-0.86351,0 -1.56354,-0.70003 -1.56354,-1.56354z" fill="#000000" stroke="none"/><path d="M378.67583,207.05897c0,-0.86351 0.70003,-1.56354 1.56354,-1.56354c0.86351,0 1.56354,0.70003 1.56354,1.56354c0,0.86351 -0.70003,1.56354 -1.56354,1.56354c-0.86351,0 -1.56354,-0.70003 -1.56354,-1.56354z" fill="#000000" stroke="none"/><path d="M378.67583,214.95897c0,-0.86351 0.70003,-1.56354 1.56354,-1.56354c0.86351,0 1.56354,0.70003 1.56354,1.56354c0,0.86351 -0.70003,1.56354 -1.56354,1.56354c-0.86351,0 -1.56354,-0.70003 -1.56354,-1.56354z" fill="#000000" stroke="none"/><path d="M345.97859,215.39786c0,-0.86351 0.70003,-1.56354 1.56354,-1.56354c0.86351,0 1.56354,0.70003 1.56354,1.56354c0,0.86351 -0.70003,1.56354 -1.56354,1.56354c-0.86351,0 -1.56354,-0.70003 -1.56354,-1.56354z" fill="#000000" stroke="none"/><path d="M341.5897,207.49784c0,-0.86351 0.70003,-1.56354 1.56354,-1.56354c0.86351,0 1.56354,0.70003 1.56354,1.56354c0,0.86351 -0.70003,1.56354 -1.56354,1.56354c-0.86351,0 -1.56354,-0.70003 -1.56354,-1.56354z" fill="#000000" stroke="none"/><path d="M353.11053,231.85619c0,-0.86351 0.70003,-1.56354 1.56354,-1.56354c0.86351,0 1.56354,0.70003 1.56354,1.56354c0,0.86351 -0.70003,1.56354 -1.56354,1.56354c-0.86351,0 -1.56354,-0.70003 -1.56354,-1.56354z" fill="#000000" stroke="none"/><path d="M370.99527,231.3076c0,-0.86351 0.70003,-1.56354 1.56354,-1.56354c0.86351,0 1.56354,0.70003 1.56354,1.56354c0,0.86351 -0.70003,1.56354 -1.56354,1.56354c-0.86351,0 -1.56354,-0.70003 -1.56354,-1.56354z" fill="#000000" stroke="none"/><path d="M352.56194,249.74093c0,-0.86351 0.70003,-1.56354 1.56354,-1.56354c0.86351,0 1.56354,0.70003 1.56354,1.56354c0,0.86351 -0.70003,1.56354 -1.56354,1.56354c-0.86351,0 -1.56354,-0.70003 -1.56354,-1.56354z" fill="#000000" stroke="none"/><path d="M371.21471,249.52149c0,-0.86351 0.70003,-1.56354 1.56354,-1.56354c0.86351,0 1.56354,0.70003 1.56354,1.56354c0,0.86351 -0.70003,1.56354 -1.56354,1.56354c-0.86351,0 -1.56354,-0.70003 -1.56354,-1.56354z" fill="#000000" stroke="none"/><path d="M333.80253,229.46754l15.90429,-0.41569l0.15769,6.03267l-15.90429,0.41569z" fill="#c6c6c6" stroke="#6f6f6f"/><path d="M333.60081,233.92415l15.89977,-0.56313l0.2136,6.03094l-15.89975,0.56313z" fill="#c6c6c6" stroke="#6f6f6f"/></g><g stroke="none" stroke-width="0" stroke-linecap="butt"><path d="M-36.48405,363.24454v-69.91289h597.4044v69.91289z" fill="#d69b00"/><path d="M-36.48405,300.20832v-30.37199h598.47889v30.37199l-61.14265,36.94448l-60.27732,-40.96256l-45.305,39.77706l-75.6214,-40.74458l-64.15406,27.27499l-79.03845,-23.43032l-78.61435,26.32881l-52.15377,-20.59589l-47.78887,26.35305z" fill="#00d624"/></g></g></g></svg>