<svg version="1.1" xmlns="http://www.w3.org/2000/svg" xmlns:xlink="http://www.w3.org/1999/xlink" width="480.13933" height="438.72913" viewBox="0,0,480.13933,438.72913"><g transform="translate(0.94204,73.5656)"><g data-paper-data="{&quot;isPaintingLayer&quot;:true}" fill-rule="nonzero" stroke="none" stroke-width="0" stroke-linecap="butt" stroke-linejoin="miter" stroke-miterlimit="10" stroke-dasharray="" stroke-dashoffset="0" style="mix-blend-mode: normal"><path d="M-0.94204,364.66796v-422.24956h152.04305v422.24963z" data-paper-data="{&quot;index&quot;:null}" fill="#d69b00"/><path d="M-0.94204,-52.90338v-20.66222h152.31651v20.66222l-15.56117,25.13352l-15.34094,-27.86705l-11.5304,27.06054l-19.2461,-27.71874l-16.32759,18.55532l-20.11577,-15.93977l-20.00784,17.91163l-13.27345,-14.01149l-12.16256,17.92812z" data-paper-data="{&quot;index&quot;:null}" fill="#00ff2a"/><path d="M151.20511,365.16351v-86.60682h327.40332v86.60683z" data-paper-data="{&quot;index&quot;:null}" fill="#d69b00"/><path d="M151.20511,294.78949v-22.66697h327.99219v22.66697l-33.50879,27.57209l-33.03457,-30.57084l-24.82908,29.68608l-41.44376,-30.40814l-35.15918,20.35565l-43.31648,-17.48632l-43.08406,19.6495l-28.58252,-15.37095l-26.19036,19.66759z" data-paper-data="{&quot;index&quot;:null}" fill="#00ff2a"/></g></g></svg>