<svg version="1.1" xmlns="http://www.w3.org/2000/svg" xmlns:xlink="http://www.w3.org/1999/xlink" width="121.17758" height="269.22588" viewBox="0,0,121.17758,269.22588"><defs><radialGradient cx="240.38932" cy="83.87198" r="14.75678" gradientUnits="userSpaceOnUse" id="color-1"><stop offset="0" stop-color="#b8ffff" stop-opacity="0"/><stop offset="1" stop-color="#b8ffff"/></radialGradient><radialGradient cx="251.98073" cy="85.33883" r="14.75678" gradientUnits="userSpaceOnUse" id="color-2"><stop offset="0" stop-color="#b8ffff" stop-opacity="0"/><stop offset="1" stop-color="#b8ffff"/></radialGradient></defs><g transform="translate(-189.60183,-40.8579)"><g data-paper-data="{&quot;isPaintingLayer&quot;:true}" fill-rule="nonzero" stroke-linejoin="miter" stroke-miterlimit="10" stroke-dasharray="" stroke-dashoffset="0" style="mix-blend-mode: normal"><path d="M214.82918,269.61978l2.42703,-64.55308l59.38388,15.7474l0.73784,66.05568c0,0 -18.75885,11.73037 -28.2891,-0.56879c-5.06955,-6.54245 -0.91454,-40.99433 -4.54474,-40.99433c-2.15737,0 -20.18348,34.66621 -22.8533,37.1358c-11.25602,10.4118 -8.61161,-18.57267 -8.61161,-18.57267z" fill="#85785e" stroke="#584f3e" stroke-width="2" stroke-linecap="butt"/><path d="M213.24,206.96441c0,0 3.82231,-6.1852 5.17122,-12.47151c2.92954,-13.65254 11.72158,-66.25416 11.72158,-66.25416c0,0 16.64443,-2.11906 24.98643,-0.74504c10.3803,1.70974 32.52792,10.21826 32.52792,10.21826c0,0 -8.84215,48.0645 -10.8081,62.71771c-1.20636,8.99162 0.13354,16.84523 0.13354,16.84523z" fill="#3400b6" stroke="#220075" stroke-width="2" stroke-linecap="butt"/><path d="M223.73865,86.27377c3.80804,-23.11958 25.63718,-38.77468 48.75677,-34.96664c23.11958,3.80804 38.77468,25.63718 34.96664,48.75677c-3.80804,23.11958 -25.63718,38.77468 -48.75677,34.96664c-23.11958,-3.80804 -38.77468,-25.63718 -34.96664,-48.75677z" fill="#b2936b" stroke="#856e50" stroke-width="2" stroke-linecap="butt"/><path d="M260.63903,92.9225c-1.17789,7.15127 -5.76477,12.3503 -10.24508,11.61235c-4.48031,-0.73795 -7.15747,-7.13343 -5.97958,-14.28472c1.17789,-7.15127 5.76477,-12.3503 10.24509,-11.61234c4.48031,0.73795 7.15746,7.13343 5.97957,14.28472z" fill="#ffffff" stroke="#bababa" stroke-width="2" stroke-linecap="butt"/><path d="M245.35041,90.40431c-1.17789,7.15127 -5.76477,12.35029 -10.24509,11.61234c-4.48031,-0.73795 -7.15746,-7.13343 -5.97957,-14.28471c1.17789,-7.15127 5.76477,-12.3503 10.24508,-11.61235c4.48031,0.73795 7.15747,7.13343 5.97958,14.28472z" fill="#ffffff" stroke="#bababa" stroke-width="2" stroke-linecap="butt"/><path d="M227.84435,73.76571l7.72577,-19.66534l73.65261,12.28092l-1.41675,20.4054c0,0 -7.67473,5.70232 -16.00901,4.5879c-4.14876,-0.55475 -6.93789,-7.94764 -12.0512,-8.34382c-2.97467,-0.23048 -8.49446,3.93867 -11.37323,3.43619c-8.50099,-1.48384 -13.66884,-9.33241 -19.72866,-10.05379c-2.06958,-0.24636 -5.49329,4.92651 -6.90409,4.69678c-7.01515,-1.14234 -13.89544,-7.34422 -13.89544,-7.34422z" fill="#000000" stroke="#000000" stroke-width="2" stroke-linecap="butt"/><path d="M245.94679,90.3423c-1.32454,8.0416 -7.26425,13.75912 -13.26672,12.77044c-6.00247,-0.98867 -9.79469,-8.30915 -8.47016,-16.35074c1.32454,-8.0416 7.26425,-13.75912 13.26672,-12.77044c6.00247,0.98867 9.79469,8.30915 8.47016,16.35074z" fill="url(#color-1)" stroke="#000000" stroke-width="2" stroke-linecap="butt"/><path d="M266.03473,94.70418c-1.32454,8.0416 -7.26425,13.75912 -13.26672,12.77044c-6.00247,-0.98867 -9.7947,-8.30915 -8.47017,-16.35074c1.32454,-8.0416 7.26426,-13.75911 13.26673,-12.77044c6.00247,0.98867 9.79469,8.30915 8.47016,16.35074z" fill="url(#color-2)" stroke="#000000" stroke-width="2" stroke-linecap="butt"/><path d="M226.06284,68.23782c0,0 -1.59332,-3.60874 0.64641,-7.15341c2.12621,-3.36501 8.0664,-6.61303 8.95416,-8.82691c1.81495,-4.52607 6.40936,-10.39658 6.40936,-10.39658c0,0 36.79519,0.22787 46.80119,1.87596c12.14567,2.00052 20.90556,9.27605 20.90556,9.27605c0,0 0.35218,23.28564 -0.50375,28.48225c-0.51796,3.14469 -4.14891,-0.2347 -4.14891,-0.2347z" fill="#3400b6" stroke="#220075" stroke-width="2" stroke-linecap="butt"/><text transform="translate(236.64255,59.20652) rotate(9.35324) scale(0.36892,0.36892)" font-size="40" xml:space="preserve" fill="#ff9c00" fill-rule="nonzero" stroke="none" stroke-width="1" stroke-linecap="butt" stroke-linejoin="miter" stroke-miterlimit="10" stroke-dasharray="" stroke-dashoffset="0" font-family="Sans Serif" font-weight="normal" text-anchor="start" style="mix-blend-mode: normal"><tspan x="0" dy="0">clerk</tspan></text><path d="M217.65146,196.0712c0,0 5.94845,8.62554 5.05653,9.0683c-0.79304,0.39368 -2.14876,5.05764 -2.14876,5.05764c0,0 -5.60441,-2.42181 -5.68935,-1.28497c-0.1136,1.52025 -2.92923,-2.00404 -2.92923,-2.00404c0,0 -7.13675,0.98522 -9.93111,0.24354c-3.73515,-0.99138 -10.48796,-5.66317 -10.48796,-5.66317c0,0 8.51322,-27.90953 15.45297,-40.77896c4.25633,-7.89317 22.22932,-29.10105 22.22932,-29.10105z" fill="#3400b6" stroke="#220075" stroke-width="2" stroke-linecap="round"/><path d="M286.69704,141.63905c0,0 10.22176,25.85185 11.72175,34.69315c2.44567,14.41531 1.55802,43.58085 1.55802,43.58085c0,0 -7.89443,2.25924 -11.75022,2.00031c-2.88462,-0.19371 -9.32839,-3.41578 -9.32839,-3.41578c0,0 -3.7972,2.43509 -3.41722,0.95872c0.28415,-1.10403 -5.80093,-0.6076 -5.80093,-0.6076c0,0 0.21172,-4.85239 -0.41316,-5.47962c-0.7028,-0.70543 7.6978,-6.96753 7.6978,-6.96753z" data-paper-data="{&quot;index&quot;:null}" fill="#3400b6" stroke="#220075" stroke-width="2" stroke-linecap="round"/><path d="M220.65785,182.35856l11.72759,27.54315l-10.55643,-1.73876l1.23767,-2.97422l-5.32315,-8.54153z" fill="#220075" stroke="#220075" stroke-width="2" stroke-linecap="round"/><path d="M276.62399,206.90628l-7.78138,6.38308l0.21839,3.21404l-10.55643,-1.73876l19.9417,-22.32688z" data-paper-data="{&quot;index&quot;:null}" fill="#220075" stroke="#220075" stroke-width="2" stroke-linecap="round"/><path d="M220.25808,283.70603c-4.1289,4.09738 -7.78707,1.68966 -17.39106,-7.98822c-9.60399,-9.67788 -15.27913,-16.4398 -11.15023,-20.53718c1.97592,-1.96084 3.07845,-1.55591 7.32877,0.64717c2.46474,1.27756 5.1191,0.71922 8.29624,2.64122c2.79264,1.6894 9.01721,1.64598 11.35989,4.00669c1.59917,1.61147 3.64368,3.38637 4.9407,5.04091c6.4924,8.28197 0.05707,12.7743 -3.38432,16.18941z" fill="#935300" stroke="#603600" stroke-width="1.5" stroke-linecap="butt"/><path d="M268.88155,278.45312c1.88172,0.9375 4.03177,2.58296 5.93211,3.82509c2.78389,1.81964 3.99409,7.92558 6.21096,10.32108c2.5221,2.72532 2.50939,5.43773 4.25685,7.59492c3.01341,3.71998 3.63194,4.71845 2.10889,7.04857c-3.18257,4.86904 -10.94829,0.67091 -22.36102,-6.78883c-11.41273,-7.45975 -14.50741,-10.55849 -11.32484,-15.42753c2.65264,-4.05829 5.75789,-11.26606 15.17704,-6.5733z" data-paper-data="{&quot;index&quot;:null}" fill="#935300" stroke="#603600" stroke-width="1.5" stroke-linecap="butt"/><path d="M218.45035,209.16202c0,2.62335 -3.13401,4.75 -7,4.75c-3.86599,0 -7,-2.12665 -7,-4.75c0,-2.62335 3.13401,-4.75 7,-4.75c3.86599,0 7,2.12665 7,4.75z" fill="#b2936b" stroke="#856e50" stroke-width="2" stroke-linecap="butt"/><path d="M286.95035,216.16203c0,2.62336 -3.13401,4.75 -7,4.75c-3.86599,0 -7,-2.12664 -7,-4.75c0,-2.62336 3.13401,-4.75 7,-4.75c3.86599,0 7,2.12664 7,4.75z" fill="#b2936b" stroke="#856e50" stroke-width="2" stroke-linecap="butt"/><path d="M264.98003,89.60295l-33.06041,-8.48582" fill="none" stroke="#000000" stroke-width="2" stroke-linecap="round"/><path d="M284.90267,116.321c-0.48245,2.92906 -2.6406,5.01249 -4.82037,4.65346c-2.17977,-0.35903 -3.55572,-3.02456 -3.07327,-5.95362c0.48245,-2.92906 6.09117,-5.96435 8.27094,-5.60532c2.17977,0.35903 0.10515,3.97642 -0.3773,6.90549z" fill="#00ffff" stroke="#00cbcb" stroke-width="2" stroke-linecap="butt"/><path d="M223.75884,112.20414c0,0 11.89695,-5.32981 16.23971,-4.70343c3.84651,0.5548 12.44731,4.36112 12.44731,4.36112c0,0 4.12378,0.20145 5.54567,1.05327c1.79557,1.07567 4.3707,4.88732 4.3707,4.88732l-4.832,9.33886c0,0 -21.1079,-9.03112 -26.43201,-12.39498c-2.70166,-1.70695 -7.33938,-2.54216 -7.33938,-2.54216z" fill="#000000" stroke="#000000" stroke-width="2" stroke-linecap="round"/><path d="M236.17112,90.6853c-0.08976,0.54494 -0.6595,0.90485 -1.27256,0.80387c-0.61306,-0.10098 -1.03728,-0.6246 -0.94752,-1.16954c0.08976,-0.54494 0.6595,-0.90485 1.27256,-0.80387c0.61306,0.10098 1.03728,0.6246 0.94752,1.16954z" fill="none" stroke="#000000" stroke-width="2" stroke-linecap="butt"/><path d="M250.84981,93.86314c-0.08976,0.54494 -0.6595,0.90485 -1.27256,0.80387c-0.61306,-0.10098 -1.03728,-0.6246 -0.94752,-1.16954c0.08976,-0.54494 0.6595,-0.90485 1.27256,-0.80387c0.61306,0.10098 1.03728,0.6246 0.94752,1.16954z" fill="none" stroke="#000000" stroke-width="2" stroke-linecap="butt"/></g></g></svg>