<svg version="1.1" xmlns="http://www.w3.org/2000/svg" xmlns:xlink="http://www.w3.org/1999/xlink" width="120.12925" height="71.17577" viewBox="0,0,120.12925,71.17577"><g transform="translate(-187.49281,-162.47176)"><g data-paper-data="{&quot;isPaintingLayer&quot;:true}" fill-rule="nonzero" stroke-linejoin="miter" stroke-miterlimit="10" stroke-dasharray="" stroke-dashoffset="0" style="mix-blend-mode: normal"><g data-paper-data="{&quot;index&quot;:null}" fill="#949494" stroke="#000000" stroke-width="2"><path d="M206.06541,223.56564c0,0 -6.87229,-11.80885 -3.85408,-18.57027c1.08494,-2.43049 0.84566,-2.61161 2.56824,-6.67845c0.62047,-1.46486 1.38481,-2.96813 2.16241,-4.72682c2.0852,-4.71607 4.29411,-9.79864 4.29411,-9.79864c0,0 12.87511,1.88935 17.37748,1.80235c0.43472,-0.0084 21.54197,0.05741 21.9807,0.04613c10.73784,-0.27636 7.23415,-0.37308 7.23415,-0.37308c0,0 4.93868,-3.34691 6.56975,-3.068c3.13215,0.53559 6.04398,-2.78105 7.83517,2.83856c0.84189,2.64132 0.66959,2.93964 1.09375,6.57682c0.61917,5.30947 1.0162,13.42742 -0.68161,18.85146c-2.28499,7.29992 -6.9859,11.23571 -6.9859,11.23571z" stroke-linecap="butt"/><path d="M229.28142,222.1666c0,0 8.97571,-9.14552 8.44363,-18.51052c-0.44414,-4.28698 -5.38897,-12.96966 -5.38897,-12.96966l-4.13357,-4.9091l3.40735,4.21042c0,0 4.0918,-0.54983 6.33411,-0.85114c2.53885,-0.34117 8.12017,-1.09115 8.12017,-1.09115l-0.26961,-1.65778" stroke-linecap="round"/><path d="M258.03459,192.80311c0,0 3.12711,0.45248 5.8229,2.04112c3.2856,1.93623 6.2719,5.32293 6.4695,8.6508c0.196,3.30091 -0.52016,8.09511 -3.23998,11.07708c-3.35612,3.67962 -9.0064,5.20605 -10.66538,5.04695c-4.49873,-0.43145 -8.34871,-8.49279 -8.67043,-10.44113c-0.88615,-5.36649 1.40417,-12.20704 2.32838,-13.49762c1.72321,-2.40632 7.95501,-2.8772 7.95501,-2.8772" stroke-linecap="round"/><path d="M208.17833,206.83289c-0.09489,-4.91078 2.97568,-7.74654 7.02552,-9.53375c1.25018,-0.55172 4.03006,-1.60813 5.46866,-1.63593c6.09882,-0.11785 10.18447,4.53988 10.30865,10.96661c0.12418,6.42673 -5.41331,12.69585 -11.51214,12.8137c-6.09883,0.11785 -11.16653,-6.18392 -11.29071,-12.61064z" stroke-linecap="butt"/></g><g data-paper-data="{&quot;index&quot;:null}" stroke="#000000" stroke-width="2" stroke-linecap="round"><path d="M188.71874,183.55812c0,0 9.22575,-3.37904 15.00944,-2.93202c2.48759,0.19226 5.45296,1.0599 6.56602,2.1248c1.29234,1.23639 0.50635,2.68954 0.16628,2.88693c-2.29378,1.33144 -7.49076,1.91339 -9.71242,1.73942c-3.89426,-0.30497 -12.25525,-3.74571 -12.25525,-3.74571" fill="#d8d8d8"/><path d="M205.79089,180.7577l0.25389,6.1613" fill="none"/></g><path d="M277.09341,202.6382l-12.78143,8.31485c0,0 -4.86511,2.58944 -6.56549,1.6005c-0.96534,-0.56143 -4.5095,-2.14745 -5.79126,-3.78206c-1.60502,-2.04691 -0.51239,-4.90194 -0.65661,-6.09163c-0.06295,-0.51945 3.02979,-3.59923 3.02979,-3.59923c0,0 3.08138,-1.52609 5.12114,-2.53629c3.02737,-1.49934 11.28089,-5.58697 11.28089,-5.58697z" data-paper-data="{&quot;index&quot;:null}" fill="#949494" stroke="#000000" stroke-width="2.5" stroke-linecap="butt"/><g data-paper-data="{&quot;index&quot;:null}"><g><path d="M204.5143,217.58046l-3.98186,-4.40528l3.70043,-3.34476l3.98186,4.40528z" data-paper-data="{&quot;index&quot;:null}" fill="#000000" stroke="none" stroke-width="0" stroke-linecap="butt"/><path d="M216.79914,211.66679l3.76058,3.28561l3.95457,2.59994l1.25093,4.30351l1.59096,-3.00578l2.34575,-1.31113l1.3022,-1.11268l2.44498,-0.78935l0.10815,3.9802l-3.17297,9.46999l-1.3022,1.11268l-3.0615,2.09602l-9.4354,-2.42263l-5.53775,-9.2191z" fill="#949494" stroke="#000000" stroke-width="2.5" stroke-linecap="round"/><path d="M210.06852,220.62393l-4.47187,-0.7715l-1.41037,-2.86752l0.96995,-3.42832l4.56216,-2.16515l5.4463,-0.92761l1.63445,1.20297z" fill="#949494" stroke="#000000" stroke-width="2.5" stroke-linecap="round"/><path d="M208.7741,212.11167l2.57875,0.48275l2.00127,4.26895" fill="none" stroke="#000000" stroke-width="2.5" stroke-linecap="round"/></g><g stroke="none" stroke-linecap="butt"><path d="M223.60404,231.12922l-5.702,-1.0469l-5.66284,-10.43668l4.53673,-6.36561l6.75765,4.57901l2.02158,5.76711z" fill="#8c6200" stroke-width="NaN"/><path d="M212.78345,224.35481l-0.6411,-5.36919l4.59835,-6.04499l2.34962,2.08528z" fill="#8c0081" stroke-width="NaN"/><path d="M233.09984,220.06288l-4.29622,10.48181l-5.71881,-0.44882l2.02344,-7.03819l2.13059,-2.58733l1.59723,-3.07697l1.21662,-0.60677l2.6802,-0.58911z" fill="#8c0081" stroke-width="0"/><g fill="#ffffff" stroke-width="0.5"><path d="M216.6706,219.15684c-0.00017,-0.00041 -0.00033,-0.00085 -0.00049,-0.00126c-0.09994,-0.25477 0.15483,-0.35472 0.15483,-0.35472c1.24962,-0.47532 2.14637,0.31264 2.11434,1.42284c-0.1152,-0.06054 -0.22379,0.0352 -0.22379,0.0352c-0.73652,0.64936 -1.48295,1.28275 -2.17886,1.97266c-0.46072,-0.08334 -0.84723,-0.27446 -0.95121,-0.59269c-0.14647,-0.44828 0.03591,-1.02689 0.18329,-1.43473c0.23453,-0.51513 0.51331,-0.75804 0.90186,-1.04732zM216.44891,220.84349c0.08502,-0.07497 0.09318,-0.20467 0.01822,-0.2897c-0.07498,-0.08503 -0.20469,-0.09319 -0.28971,-0.01821c-0.08503,0.07498 -0.09318,0.20467 -0.01822,0.2897c0.07497,0.08502 0.20467,0.09318 0.2897,0.01822zM217.68363,219.70927c0.08503,-0.07498 0.09318,-0.20467 0.0182,-0.28971c-0.07498,-0.08505 -0.20467,-0.09319 -0.28971,-0.01823c-0.08503,0.07498 -0.09319,0.20469 -0.01821,0.28971c0.07497,0.08502 0.20467,0.09318 0.2897,0.01822z"/><path d="M219.67562,219.43242c0.28508,-0.25136 0.53644,0.03372 0.53644,0.03372l-0.07966,-0.02968c0.19394,0.08086 0.36297,0.21088 0.51097,0.36726l0.00906,-0.01701l0.01123,0.00598l0.07721,-0.0831l0.34608,0.32146c0.0105,0.00954 0.02057,0.01971 0.03017,0.03059c0.13884,0.15745 0.12374,0.39762 -0.03372,0.53644c-0.08567,0.07553 -0.19586,0.10551 -0.30087,0.09174c-0.001,0.00671 -0.00175,0.0104 -0.00175,0.0104c-0.12259,0.58171 -0.28964,1.14414 -0.44393,1.7108c0.27955,-0.0529 0.56104,-0.10041 0.84533,-0.14111c0.78329,-0.11219 1.56066,-0.53437 2.2959,-0.22199c-0.05024,-0.02158 -0.17527,-0.07533 -0.22828,-0.09813l0.06182,-0.12046l-0.05493,-0.01275l0.09135,-0.39381c0.01667,-0.0762 0.0569,-0.14796 0.11988,-0.20352c0.15745,-0.13883 0.39762,-0.12371 0.53644,0.03375c0.023,0.02608 0.04177,0.05443 0.05638,0.08421l0.17616,0.34036l-0.06021,0.03116c0.17851,0.27852 0.20807,0.54152 0.12907,1.01778c0.0358,0.10542 0.03981,0.25247 -0.1156,0.3895c-0.28508,0.25136 -0.53645,-0.03372 -0.53645,-0.03372l-0.11847,-0.36426c0.00984,-0.04283 0.016,-0.08466 0.01971,-0.12541c-0.56484,0.11355 -1.35957,0.25128 -1.49942,0.27889c-0.6506,0.12848 -1.29322,0.25809 -1.93308,0.39437c-0.04131,0.18717 -0.07826,0.37604 -0.1089,0.56741c-0.05925,0.36996 -0.0667,0.73938 -0.08648,1.1089c0.25739,-0.03933 0.54176,-0.03508 0.901,0.03881l0.44924,0.02825c0.09707,0.00609 0.19183,0.04924 0.26123,0.12796c0.13882,0.15746 0.12374,0.39764 -0.03372,0.53645c-0.03563,0.0314 -0.07547,0.05492 -0.1174,0.07071l-0.69678,0.28099l-0.01131,-0.02803c-0.54509,0.32834 -1.0468,0.48194 -1.93591,0.5529l-0.18798,-0.008c0,0 -0.37932,-0.02386 -0.35547,-0.40318c0.00232,-0.03694 0.00802,-0.07006 0.01641,-0.09976c-0.01626,-0.02681 -0.03075,-0.05779 -0.04288,-0.09352c-0.12236,-0.35983 0.23746,-0.4822 0.23746,-0.4822c0.28728,-0.09642 0.52542,-0.19763 0.74614,-0.28636c0.04755,-0.48784 0.02869,-0.97653 0.10622,-1.46588c0.01423,-0.08984 0.02993,-0.17922 0.04687,-0.26818c-0.57186,0.12802 -1.14334,0.26324 -1.71815,0.40967c0.0046,0.3486 -0.07143,0.6599 -0.32533,0.78264c-1.17883,0.5699 -0.98763,-1.60155 -0.89411,-2.00628l0.11713,-0.23498c0,0 0.19097,-0.32863 0.51958,-0.13765c0.01895,0.011 0.03613,0.02248 0.05176,0.03431c0.57719,-0.5515 1.18335,-1.07112 1.78446,-1.59933c-0.01543,0.06554 -0.03397,0.13169 -0.05572,0.19834c-0.03346,0.10257 -0.31057,0.97199 -0.3828,1.05155c-0.21443,0.23612 -0.75988,0.36965 -1.31949,0.37114c0.01861,0.01656 0.03448,0.03369 0.04791,0.05118c0.1871,0.05977 0.24302,0.27089 0.24302,0.27089c0.02849,0.10849 0.07224,0.26995 0.11277,0.45559c0.67411,-0.17926 1.34225,-0.35492 2.01681,-0.50672c0.17739,-0.67875 0.3876,-1.34678 0.52853,-2.0377c0,0 0.0082,-0.03951 0.03214,-0.0901c-0.22187,-0.0354 -0.44079,-0.09493 -0.65233,-0.16841c0,0 -0.35817,-0.12714 -0.23103,-0.48532c0.08606,-0.24239 0.2779,-0.2625 0.39294,-0.25018c0.02136,-0.03976 0.05283,-0.07993 0.09744,-0.11924z"/></g></g></g><path d="M224.93418,212.96796l-14.23663,9.55007l-7.03403,-8.67223l-0.31117,-1.56271l11.32096,-10.59416l6.27289,-2.76542l4.78953,2.29561l2.26664,4.85587l-0.41946,3.33283z" data-paper-data="{&quot;index&quot;:null}" fill="#949494" stroke="#000000" stroke-width="2.5" stroke-linecap="round"/><g><g stroke="#000000" stroke-width="2.5"><path d="M270.41454,182.19239c0,0 1.39074,-0.65548 2.02166,-1.65515c0.56431,-0.89413 1.58638,-4.06159 1.58638,-4.06159c0,0 -0.45596,-5.86747 2.34364,-7.74009c0.3178,-0.21257 7.64834,-4.34163 14.31712,-3.59804c4.76656,0.5315 9.47366,5.72658 9.76374,6.65768c0.22422,0.71972 2.66638,4.40449 3.84355,8.70406c1.65896,6.05932 2.0397,12.6235 2.0397,12.6235l-11.80765,7.07351l-13.14432,-16.23586l-5.24601,5.21589z" fill="#949494" stroke-linecap="butt"/><path d="M300.15042,197.14052l-6.2541,-11.76347l0.46647,-4.67959l5.61253,-8.89271l4.31521,10.89505l1.70779,9.95998z" fill="#000000" stroke-linecap="round"/><path d="M292.47441,181.01557l1.05327,1.28651" fill="none" stroke-linecap="round"/><path d="M290.03464,181.78512l1.32089,1.98835" fill="none" stroke-linecap="round"/><path d="M287.74535,182.73842l0.71902,1.2532" fill="none" stroke-linecap="round"/><path d="M293.47772,198.91503c0,0 -7.60684,-9.91634 -12.11451,-14.53302c-1.10908,-1.13589 -1.66604,1.08953 -2.29896,0.33367c-5.60776,-6.69704 -4.59639,-8.69384 -4.3409,-9.94681c0.63456,-3.11204 1.79149,-6.89263 2.31115,-7.17979c0.66821,-0.36926 3.12879,-0.14617 3.12879,-0.14617l1.29816,4.00888l1.99048,5.43086l2.6923,5.16324l6.13588,7.86955l1.80775,8.95721" fill="#373737" stroke-linecap="round"/><path d="M291.47597,200.12233l-2.43975,0.76953l-7.82436,-9.55696l-1.28758,-2.32259l1.23601,-2.23983l1.77124,-0.83617l1.85507,0.01613l0.53524,1.40366l-0.35039,1.82175l-0.31707,1.48749z" fill="#000000" stroke-linecap="round"/><path d="M276.24736,182.94262l-2.17214,1.47137" fill="none" stroke-linecap="round"/><path d="M278.92246,186.58505l-4.8655,-7.06777" fill="none" stroke-linecap="round"/><path d="M292.73772,168.21387l-2.40643,0.43528l-1.35315,1.72179l-0.78672,-3.96056l3.64243,-2.67511l5.04716,0.16554l-0.56749,2.30647l-2.42255,2.29034z" fill="#151515" stroke-linecap="round"/><path d="M290.33893,171.09877l-2.47414,-2.27209l1.51975,-3.39307l1.7046,-0.16766l3.15878,0.48365l1.38754,1.31982l0.01719,1.52081l-0.1666,1.67128l-1.72073,2.02272z" fill="none" stroke-linecap="round"/></g><g fill="#00ff59" stroke="none" stroke-width="0.5" stroke-linecap="butt"><path d="M296.13212,187.52719c-0.09776,-0.59035 0.4926,-0.68812 0.4926,-0.68812l0.4615,-0.06664c1.37515,0.02336 2.72585,0.00495 4.0727,0.21052c-0.61912,-1.7232 -1.47189,-3.36475 -2.02537,-5.10883c0,0 -0.18026,-0.5706 0.39033,-0.75085c0.5706,-0.18026 0.75085,0.39033 0.75085,0.39033c0.61991,1.97186 1.62769,3.81245 2.25399,5.78594l0.05406,0.1711c0.05535,0.09269 0.0867,0.2132 0.06318,0.36833c-0.00758,0.11251 -0.0442,0.24388 -0.1519,0.35064c-0.10037,0.11368 -0.22941,0.15781 -0.3413,0.17186c-0.15238,0.03221 -0.27384,0.00842 -0.36925,-0.04074c-1.5534,-0.37558 -3.12599,-0.3287 -4.71614,-0.35161l-0.24712,0.0507c0,0 -0.59035,0.09776 -0.68811,-0.4926z"/><path d="M304.5785,184.82687c-0.58458,0.12787 -0.71244,-0.45672 -0.71244,-0.45672l-0.00502,-0.30516c-1.44026,-1.82545 -2.15176,-4.75863 -3.92773,-6.20783c0,0 -0.45843,-0.38461 -0.07381,-0.84303c0.38461,-0.45842 0.84303,-0.07381 0.84303,-0.07381c1.87887,1.60928 2.55892,4.43383 4.09795,6.38323l0.23473,0.79088c0,0 0.12787,0.58458 -0.45672,0.71244z"/></g></g><g data-paper-data="{&quot;index&quot;:null}"><g><path d="M276.50828,192.57382l-4.58675,3.77143l-3.16799,-3.85285l4.58675,-3.77143z" fill="#000000" stroke="none" stroke-width="0" stroke-linecap="butt"/><path d="M294.30921,168.55164c0,0 1.24539,-0.23923 1.44974,0.77745c0.53547,2.66411 1.88154,15.79721 1.88154,15.79721l-13.09667,11.74453c0,0 -3.05923,-6.68075 -4.53617,-9.23742c-0.57298,-0.99186 7.64418,-9.06396 7.50469,-9.84407c-0.14499,-0.81088 3.02789,1.22421 3.81791,1.04775c0.89201,-0.19925 -0.57937,-2.58068 -0.64788,-3.11288c-0.19305,-1.49952 -0.07477,-4.30113 -0.07477,-4.30113l3.70161,-2.87141z" fill="#949494" stroke="#000000" stroke-width="2.5" stroke-linecap="butt"/><path d="M283.81381,198.64124l-9.20885,-4.56211l-0.94979,-2.82646l0.51744,-2.52905l2.14423,-1.80998l3.32849,-0.18903z" fill="#242424" stroke="#000000" stroke-width="2.5" stroke-linecap="butt"/><path d="M281.52078,191.99134l-0.69968,2.00597l-2.02925,0.97971" fill="none" stroke="#000000" stroke-width="2.5" stroke-linecap="round"/><path d="M290.72329,178.83226l5.8966,1.15675" fill="none" stroke="#000000" stroke-width="2.5" stroke-linecap="round"/></g><g stroke="none" stroke-linecap="butt"><path d="M296.77874,183.76307l-11.36852,11.71746l-5.66831,-8.47143l2.8091,-1.73314l5.67491,-5.95806z" fill="#8c6200" stroke-width="NaN"/><path d="M288.08274,192.62319l-2.88901,2.6487l-5.08047,-8.36325l3.00074,-1.78088z" fill="#8c0081" stroke-width="NaN"/><path d="M297.0467,184.12888l-10.64494,-2.4105l1.69633,-2.48696l4.2206,-0.74323l-0.66891,-3.00886l0.25994,-3.45708l0.8804,-1.03596l2.23323,-1.59471z" fill="#8c0081" stroke-width="0"/><g fill="#ffffff" stroke-width="0.5"><path d="M285.6951,189.70869c-0.00042,0.00019 -0.00082,0.00037 -0.00123,0.00057c-0.24857,0.1145 -0.36309,-0.13406 -0.36309,-0.13406c-0.54682,-1.22003 0.18792,-2.16086 1.29814,-2.19312c-0.05378,0.11851 0.04811,0.22138 0.04811,0.22138c0.6909,0.69771 1.36639,1.40625 2.09541,2.0611c-0.05654,0.46478 -0.22496,0.86169 -0.53665,0.98389c-0.43905,0.17216 -1.02727,0.02356 -1.44294,-0.09998c-0.52785,-0.20433 -0.78647,-0.46859 -1.09774,-0.83975zM287.10151,189.83103c-0.08056,0.07975 -0.0812,0.20971 -0.00143,0.29028c0.07975,0.08056 0.20971,0.0812 0.29028,0.00143c0.08056,-0.07975 0.0812,-0.20971 0.00143,-0.29028c-0.07975,-0.08056 -0.20971,-0.0812 -0.29028,-0.00143zM286.18801,188.66544c-0.07975,-0.08056 -0.20971,-0.0812 -0.29028,-0.00143c-0.08056,0.07975 -0.0812,0.20971 -0.00143,0.29028c0.07976,0.08054 0.20971,0.0812 0.29028,0.00143c0.08056,-0.07976 0.08119,-0.20973 0.00143,-0.29028z"/><path d="M285.79637,186.69278c-0.26742,-0.27006 0.00264,-0.5375 0.00264,-0.5375l-0.02502,0.08123c0.06951,-0.19828 0.18951,-0.37457 0.33707,-0.53136l-0.01752,-0.00808l0.00532,-0.01154l-0.08744,-0.07226l0.30089,-0.3641c0.00889,-0.01103 0.01849,-0.02169 0.0288,-0.03188c0.14916,-0.14768 0.3898,-0.14653 0.5375,0.00264c0.08037,0.08116 0.11664,0.18943 0.10899,0.29504c0.00676,0.00063 0.01048,0.00118 0.01048,0.00118c0.58784,0.08873 1.15897,0.22297 1.73362,0.34423c-0.06898,-0.27602 -0.13267,-0.55429 -0.18978,-0.83575c-0.15732,-0.77548 -0.62377,-1.52712 -0.35444,-2.27919c-0.01864,0.05138 -0.06509,0.17933 -0.08476,0.23356l-0.12384,-0.05475l-0.00956,0.0556l-0.39843,-0.06842c-0.07703,-0.01226 -0.151,-0.04824 -0.2101,-0.10791c-0.1477,-0.14916 -0.14653,-0.3898 0.00264,-0.5375c0.02471,-0.02447 0.05193,-0.04485 0.08082,-0.06115l0.32961,-0.19556l0.03459,0.05829c0.26771,-0.19432 0.52859,-0.23903 1.00859,-0.18773c0.10318,-0.04184 0.24973,-0.05435 0.39554,0.09289c0.26742,0.27007 -0.00264,0.5375 -0.00264,0.5375l-0.35678,0.13935c-0.04332,-0.00735 -0.08544,-0.01109 -0.12634,-0.01242c0.14604,0.55733 0.32951,1.34276 0.36516,1.48077c0.16588,0.64207 0.33246,1.27611 0.50554,1.90703c0.18925,0.03041 0.37994,0.05636 0.57276,0.07589c0.37278,0.03774 0.742,0.02381 1.11205,0.02217c-0.05416,-0.25468 -0.06636,-0.53881 -0.01338,-0.90173l0.0022,-0.45011c0.00048,-0.09727 0.03808,-0.19436 0.11263,-0.26819c0.14916,-0.1477 0.3898,-0.14653 0.5375,0.00264c0.03341,0.03374 0.05921,0.07216 0.07739,0.11313l0.32082,0.67936l-0.02733,0.0129c0.35935,0.5252 0.54169,1.01718 0.66397,1.90069l0.0029,0.18813c0,0 -0.00187,0.38009 -0.38194,0.3782c-0.03702,-0.00018 -0.0704,-0.00395 -0.10053,-0.01061c-0.02583,0.01777 -0.05591,0.03403 -0.09087,0.04822c-0.35215,0.14298 -0.49512,-0.20917 -0.49512,-0.20917c-0.11287,-0.28123 -0.22771,-0.51311 -0.32906,-0.72833c-0.48978,-0.01926 -0.97657,0.02786 -1.46958,-0.02124c-0.09051,-0.00901 -0.18064,-0.01951 -0.27043,-0.03128c0.16089,0.56352 0.32894,1.1262 0.50836,1.69158c0.34774,-0.02474 0.66291,0.03313 0.80014,0.2795c0.63713,1.14389 -1.54175,1.07862 -1.95119,1.00866l-0.24136,-0.10333c0,0 -0.33913,-0.17164 -0.16747,-0.51074c0.0099,-0.01954 0.02034,-0.03738 0.03124,-0.05367c-0.58395,-0.54431 -1.13778,-1.11939 -1.69988,-1.68893c0.06632,0.0116 0.13346,0.02629 0.20123,0.04413c0.10434,0.02747 0.98832,0.25381 1.07194,0.32132c0.24813,0.20042 0.413,0.73723 0.44685,1.29582c0.01545,-0.01953 0.03164,-0.03636 0.04832,-0.0508c0.04883,-0.19026 0.25638,-0.25831 0.25638,-0.25831c0.10666,-0.03472 0.26533,-0.08775 0.44828,-0.13895c-0.21796,-0.66261 -0.43197,-1.31946 -0.62256,-1.98412c-0.68789,-0.13783 -1.36696,-0.30905 -2.06486,-0.40976c0,0 -0.03992,-0.00591 -0.09181,-0.02686c-0.02251,0.22355 -0.06928,0.44555 -0.1304,0.66099c0,0 -0.1062,0.36494 -0.47114,0.25873c-0.24697,-0.07187 -0.27816,-0.26224 -0.27251,-0.37781c-0.04092,-0.01902 -0.08284,-0.04812 -0.12469,-0.09039z"/></g></g></g></g></g></svg>