<svg version="1.1" xmlns="http://www.w3.org/2000/svg" xmlns:xlink="http://www.w3.org/1999/xlink" width="141.41951" height="194.11403" viewBox="0,0,141.41951,194.11403"><g transform="translate(-180.38209,-82.94299)"><g data-paper-data="{&quot;isPaintingLayer&quot;:true}" fill-rule="nonzero" stroke-linejoin="miter" stroke-miterlimit="10" stroke-dasharray="" stroke-dashoffset="0" style="mix-blend-mode: normal"><path d="M214.57348,274.89658l-10.75,-18.5h23.25z" fill="#9e9e9e" stroke="#000000" stroke-width="1.5" stroke-linecap="butt"/><path d="M241.82348,274.64658l-10.75,-18.5h23.25z" fill="#9e9e9e" stroke="#000000" stroke-width="1.5" stroke-linecap="butt"/><path d="M266.82348,275.14658l-10.75,-18.5h23.25z" fill="#9e9e9e" stroke="#000000" stroke-width="1.5" stroke-linecap="butt"/><path d="M277.82348,275.64658l-10.75,-18.5h23.25z" fill="#9e9e9e" stroke="#000000" stroke-width="1.5" stroke-linecap="butt"/><path d="M187.32348,256.14658v-16h102.75v16z" fill="#989898" stroke="#000000" stroke-width="2" stroke-linecap="butt"/><path d="M187.32348,246.39658v-16h102.75v16z" fill="#d4d4d4" stroke="#000000" stroke-width="2" stroke-linecap="butt"/><path d="M202.57348,274.39658l-10.75,-18.5h23.25z" fill="#9e9e9e" stroke="#000000" stroke-width="1.5" stroke-linecap="butt"/><path d="M227.07348,275.14658l-10.75,-18.5h23.25z" fill="#9e9e9e" stroke="#000000" stroke-width="1.5" stroke-linecap="butt"/><path d="M255.32348,274.89658l-10.75,-18.5h23.25z" fill="#9e9e9e" stroke="#000000" stroke-width="1.5" stroke-linecap="butt"/><path d="M201.32348,246.64658v-87.75h12.75v87.75z" fill="#9e9e9e" stroke="#000000" stroke-width="1.5" stroke-linecap="butt"/><path d="M223.17606,127.09656c0,-17.25902 13.9912,-31.25022 31.25022,-31.25022c17.25902,0 31.25022,13.9912 31.25022,31.25022c0,17.25902 -13.9912,31.25022 -31.25022,31.25022c-17.25902,0 -31.25022,-13.9912 -31.25022,-31.25022z" fill="#ffd499" stroke="#dfba86" stroke-width="2" stroke-linecap="butt"/><path d="M227.17836,111.64442l-8.66499,-21.02062l20.37877,7.06036l12.0347,-12.51609l0.64185,5.6162l1.44416,-0.80231l13.96026,-3.20925l-0.48139,5.77666l6.8999,0.16046l-1.60463,3.69064l19.25553,4.65342l-7.70221,4.17203l-6.8999,2.08602l-10.59054,-1.44416l-8.1836,3.85111l-11.39285,-1.2837l-9.30684,4.01157z" fill="#000000" stroke="#121212" stroke-width="2" stroke-linecap="round"/><path d="M235.51086,205.03372c0,0 -1.79596,-8.80309 -1.44472,-16.36419c0.43195,-9.29845 3.84472,-35.30018 3.84472,-35.30018h30.4181c0,0 2.19452,20.98577 2.39342,29.54874c0.20108,8.65745 -1.19341,22.11563 -1.19341,22.11563z" fill="#090051" stroke="#040022" stroke-width="2" stroke-linecap="butt"/><path d="M313.36348,161.72312c0,-2.05398 1.66508,-3.71906 3.71906,-3.71906c2.05398,0 3.71906,1.66508 3.71906,3.71906c0,2.05398 -1.66508,3.71906 -3.71906,3.71906c-2.05398,0 -3.71906,-1.66508 -3.71906,-3.71906z" fill="#ffd499" stroke="#dfba86" stroke-width="2" stroke-linecap="butt"/><path d="M181.38209,160.40095c0,-2.74725 2.22709,-4.97434 4.97434,-4.97434c2.74725,0 4.97434,2.22709 4.97434,4.97434c0,2.74725 -2.22709,4.97434 -4.97434,4.97434c-2.74725,0 -4.97434,-2.22709 -4.97434,-4.97434z" fill="#ffd499" stroke="#dfba86" stroke-width="2" stroke-linecap="butt"/><path d="M234.84848,222.09658v-16.8h10.8v16.8z" fill="#090051" stroke="#040022" stroke-width="2" stroke-linecap="butt"/><path d="M252.04848,222.09658v-17.4h17.4v17.4z" fill="#090051" stroke="#040022" stroke-width="2" stroke-linecap="butt"/><path d="M223.64848,229.69658v-8.8h23.4v8.8z" fill="#8a7e00" stroke="#040022" stroke-width="2" stroke-linecap="butt"/><path d="M250.04848,229.09658v-7h19.4v7z" fill="#8a7e00" stroke="#040022" stroke-width="2" stroke-linecap="butt"/><path d="M233.32348,123.77158l10,6.25l-12.25,5" fill="none" stroke="#000000" stroke-width="2" stroke-linecap="round"/><path d="M259.32348,134.27158l-8.5,-4.5l14,-6.5" fill="none" stroke="#000000" stroke-width="2" stroke-linecap="round"/><path d="M259.57348,140.52158c0,0 -21.51914,11.0965 -25.98677,11.016c-4.7634,-0.08582 -1.76323,-11.516 -1.76323,-11.516" fill="none" stroke="#000000" stroke-width="2" stroke-linecap="round"/></g></g></svg>