<svg version="1.1" xmlns="http://www.w3.org/2000/svg" xmlns:xlink="http://www.w3.org/1999/xlink" width="482.14234" height="192.12719" viewBox="0,0,482.14234,192.12719"><g transform="translate(0.94502,-222.12254)"><g data-paper-data="{&quot;isPaintingLayer&quot;:true}" fill-rule="nonzero" stroke="none" stroke-width="0" stroke-linecap="butt" stroke-linejoin="miter" stroke-miterlimit="10" stroke-dasharray="" stroke-dashoffset="0" style="mix-blend-mode: normal"><path d="" data-paper-data="{&quot;index&quot;:null}" fill="#c0b000"/><path d="M480.33173,226.76805v143.39548h-57.53242c-1.42457,-25.96739 -0.69591,-52.3294 -7.08995,-77.46058c-0.78511,-3.08579 -2.25064,-6.07691 -3.87076,-8.7481c-11.34824,-18.71054 -22.52522,-37.52485 -33.91859,-56.20794c-0.18174,-0.29801 -0.40337,-0.62887 -0.65292,-0.97886z" data-paper-data="{&quot;index&quot;:null}" fill="#c0b000"/><path d="M-0.92441,370.16351v-143.39546h118.29625c-13.81196,45.39944 -33.0233,96.75858 -42.73581,143.39546z" data-paper-data="{&quot;index&quot;:null}" fill="#c0b000"/><path d="" data-paper-data="{&quot;index&quot;:null}" fill="#e1d900"/><path d="M481.19732,222.12255v29.90117l-49.25729,36.37177l-34.89429,-28.97852c-6.35277,-10.57032 -12.70489,-21.14103 -19.12573,-31.67007c-1.00198,-1.64307 -3.21681,-4.28459 -4.63654,-5.62436z" data-paper-data="{&quot;index&quot;:null}" fill="#e1d900"/><path d="M-0.94502,252.02374v-29.90117h117.57542c-0.51829,4.06532 -1.04773,8.1292 -1.58509,12.19207c-4.0543,12.99286 -8.47361,26.41386 -12.92269,40.02267l-36.86886,-17.79274l-38.49933,25.94454z" data-paper-data="{&quot;index&quot;:null}" fill="#e1d900"/><path d="M90.34662,414.24973l7.83371,-131.12189l7.50368,-25.05051l-7.83371,155.12189z" fill="#000000"/><path d="M391.18033,413.19923l5.16629,-154.12189l16.50367,21.05051l-14.16628,131.12189z" data-paper-data="{&quot;index&quot;:null}" fill="#000000"/></g></g></svg>