<svg version="1.1" xmlns="http://www.w3.org/2000/svg" xmlns:xlink="http://www.w3.org/1999/xlink" width="480" height="366.2012" viewBox="0,0,480,366.2012"><g transform="translate(0,3.1006)"><g data-paper-data="{&quot;isPaintingLayer&quot;:true}" fill-rule="nonzero" stroke-linejoin="miter" stroke-miterlimit="10" stroke-dasharray="" stroke-dashoffset="0" style="mix-blend-mode: normal"><text transform="translate(69.50716,85.59864) scale(0.86836,0.86836)" font-size="40" xml:space="preserve" fill="#000000" fill-rule="nonzero" stroke="none" stroke-width="1" stroke-linecap="butt" stroke-linejoin="miter" stroke-miterlimit="10" stroke-dasharray="" stroke-dashoffset="0" font-family="Sans Serif" font-weight="normal" text-anchor="start" style="mix-blend-mode: normal"><tspan x="0" dy="0">The Jungley Jungle</tspan></text><path d="M70.12402,358.51817v-34.23709h85.07862v34.23709z" fill="#866000" stroke="none" stroke-width="0" stroke-linecap="butt"/><path d="M70.12402,327.6486v-14.87349h85.23163v14.87349l-8.70755,18.09211l-8.58431,-20.05981l-6.45205,19.47925l-10.76953,-19.95306l-9.13642,13.35687l-11.25616,-11.47407l-11.19578,12.8935l-7.42742,-10.08602l-6.80579,12.90537z" fill="#005f10" stroke="none" stroke-width="0" stroke-linecap="butt"/><path d="M155.06513,359.23797v-198.36053h261.12275v198.36058z" fill="#866000" stroke="none" stroke-width="0" stroke-linecap="butt"/><path d="M155.06513,164.24495v-14.87349h261.5924v14.87349l-26.72517,18.09211l-26.34694,-20.05981l-19.80261,19.47925l-33.05379,-19.95306l-28.04144,13.35687l-34.54735,-11.47407l-34.36199,12.8935l-22.79617,-10.08602l-20.8883,12.90537z" fill="#005f10" stroke="none" stroke-width="0" stroke-linecap="butt"/><text transform="translate(129.84388,266.21598) scale(0.36077,0.36077)" font-size="40" xml:space="preserve" data-paper-data="{&quot;index&quot;:null}" fill="#000000" fill-rule="nonzero" stroke="none" stroke-width="1" stroke-linecap="butt" stroke-linejoin="miter" stroke-miterlimit="10" stroke-dasharray="" stroke-dashoffset="0" font-family="Sans Serif" font-weight="normal" text-anchor="start" style="mix-blend-mode: normal"><tspan x="0" dy="0">Z</tspan></text><g stroke-width="0.5"><g data-paper-data="{&quot;index&quot;:null}" fill="#949494" stroke="#000000"><path d="M91.56531,313.10285c0,0 -5.65682,-3.09181 -6.08789,-6.55877c-0.15495,-1.24625 -0.29578,-1.26101 -0.59253,-3.32366c-0.10689,-0.74296 -0.16505,-1.53654 -0.28018,-2.4365c-0.30875,-2.41332 -0.65696,-5.00483 -0.65696,-5.00483c0,0 5.6604,-2.37879 7.45736,-3.51259c0.17351,-0.10947 8.71331,-5.23346 8.88772,-5.34508c4.26883,-2.73183 2.83034,-1.91593 2.83034,-1.91593c0,0 1.17768,-2.55671 1.90441,-2.84209c1.39555,-0.54802 1.76211,-2.59792 3.85674,-0.76563c0.98451,0.8612 0.98773,1.02373 2.04656,2.38902c1.54565,1.99304 3.68692,5.17442 4.32486,7.77911c0.85857,3.50551 -0.07939,6.24201 -0.07939,6.24201z" stroke-linecap="butt"/><path d="M100.59924,306.87271c0,0 1.39298,-5.88348 -1.10713,-9.53552c-1.22546,-1.62283 -5.34107,-3.92253 -5.34107,-3.92253l-2.86718,-0.97377l2.40342,0.86884c0,0 1.51821,-1.22051 2.35021,-1.88936c0.94201,-0.7573 3.01291,-2.42211 3.01291,-2.42211l-0.51341,-0.60367" stroke-linecap="round"/><path d="M105.04538,287.99852c0,0 1.37324,-0.58035 2.84954,-0.59663c1.7993,-0.01985 3.83168,0.6191 4.72354,1.91477c0.88464,1.28518 1.7653,3.39598 1.39462,5.26388c-0.45741,2.3049 -2.36668,4.3001 -3.07545,4.64066c-1.922,0.92354 -5.44386,-1.3924 -6.04922,-2.10069c-1.66738,-1.95091 -2.4117,-5.27222 -2.35341,-6.01891c0.1087,-1.39224 2.51038,-3.10308 2.51038,-3.10308" stroke-linecap="round"/><path d="M88.33546,305.83007c-1.23664,-1.95997 -0.68864,-3.85441 0.51071,-5.56437c0.37023,-0.52787 1.23504,-1.63283 1.80922,-1.99509c2.43413,-1.53581 5.22062,-0.65186 6.83901,1.91315c1.61839,2.565 0.91197,6.44792 -1.52216,7.98373c-2.43414,1.53582 -6.01838,0.22759 -7.63676,-2.33741z" stroke-linecap="butt"/></g><g data-paper-data="{&quot;index&quot;:null}" stroke="#000000" stroke-linecap="round"><path d="M73.63718,298.61285c0,0 4.1475,-2.07092 6.88289,-2.16636c1.1765,-0.04105 2.61265,0.20937 3.1907,0.64997c0.67115,0.51155 0.37926,1.23435 0.23022,1.34484c-1.00527,0.74525 -3.41131,1.29221 -4.46215,1.32781c-1.84199,0.0624 -5.94371,-1.10992 -5.94371,-1.10992" fill="#949494"/><path d="M81.49416,296.39941l0.444,2.87549" fill="none"/></g><path d="M109.07248,300.78296l-3.98744,-5.98839c0,0 -1.24624,-2.28231 -0.78823,-3.08955c0.26002,-0.45828 0.99043,-2.13843 1.75518,-2.7514c0.95764,-0.76758 2.31017,-0.26648 2.87074,-0.34051c0.24476,-0.03233 1.71341,1.41132 1.71341,1.41132c0,0 0.73555,1.44611 1.22246,2.40339c0.72266,1.42077 2.69285,5.29419 2.69285,5.29419z" data-paper-data="{&quot;index&quot;:null}" fill="#949494" stroke="#000000" stroke-linecap="butt"/><g data-paper-data="{&quot;index&quot;:null}"><g><path d="M102.62133,306.02311l-1.88936,-2.06893l1.7379,-1.58705l1.88936,2.06893z" data-paper-data="{&quot;index&quot;:null}" fill="#000000" stroke="none" stroke-linecap="butt"/><path d="M108.40336,303.20331l1.78225,1.54117l1.87212,1.21719l0.60059,2.02748l0.74341,-1.42203l1.10362,-0.62428l0.61173,-0.52813l1.1517,-0.37833l0.06062,1.87769l-1.47427,4.47581l-0.61173,0.52813l-1.43945,0.99633l-4.45769,-1.12033l-2.63506,-4.33645z" fill="#949494" stroke="#000000" stroke-linecap="round"/><path d="M105.24928,307.4457l-2.1118,-0.35324l-0.67235,-1.34957l0.44939,-1.6199l2.14733,-1.03256l2.56745,-0.45079l0.77407,0.56366z" fill="#949494" stroke="#000000" stroke-linecap="round"/><path d="M104.61803,303.43255l1.21789,0.22155l0.95453,2.00937" fill="none" stroke="#000000" stroke-linecap="round"/></g><g stroke="none" stroke-linecap="butt"><path d="M111.66097,312.36974l-2.69287,-0.48022l-2.69701,-4.91064l2.1252,-3.01438l3.19945,2.14421l0.96772,2.71619z" fill="#8c6200"/><path d="M106.53923,309.19951l-0.31542,-2.53177l2.15505,-2.86325l1.11363,0.97823z" fill="#8c0081"/><path d="M116.11466,307.1255l-2.00181,4.95592l-2.69935,-0.19799l0.93775,-3.32567l0.99903,-1.22591l0.7462,-1.45564l0.57257,-0.28922l1.26316,-0.28441z" fill="#8c0081"/><g fill="#ffffff"><path d="M108.36076,306.73762c-0.00008,-0.0002 -0.00016,-0.0004 -0.00024,-0.0006c-0.04776,-0.11997 0.0722,-0.16774 0.0722,-0.16774c0.58845,-0.22728 1.01347,0.14234 1.00103,0.66623c-0.0545,-0.02829 -0.10551,0.01715 -0.10551,0.01715c-0.34595,0.30816 -0.6966,0.60881 -1.02329,0.936c-0.21758,-0.03821 -0.4004,-0.12745 -0.45023,-0.27735c-0.07018,-0.21116 0.01448,-0.4846 0.08303,-0.67738c0.10941,-0.24362 0.24036,-0.35889 0.423,-0.49633zM108.26022,307.53396c0.03994,-0.03558 0.04347,-0.09679 0.0079,-0.13673c-0.03558,-0.03994 -0.0968,-0.04347 -0.13674,-0.0079c-0.03994,0.03558 -0.04347,0.09679 -0.0079,0.13673c0.03558,0.03994 0.09679,0.04347 0.13673,0.0079zM108.84006,306.99582c0.03994,-0.03558 0.04347,-0.0968 0.00789,-0.13674c-0.03558,-0.03994 -0.09679,-0.04348 -0.13673,-0.0079c-0.03994,0.03558 -0.04347,0.0968 -0.0079,0.13674c0.03558,0.03994 0.09679,0.04347 0.13673,0.0079z"/><path d="M109.77927,306.86037c0.13391,-0.11929 0.25319,0.01462 0.25319,0.01462l-0.03766,-0.01381c0.0917,0.03769 0.17177,0.09862 0.24197,0.17205l0.00424,-0.00805l0.00531,0.00279l0.03622,-0.0394l0.16406,0.15084c0.00498,0.00446 0.00976,0.00925 0.01431,0.01437c0.06588,0.07395 0.05934,0.18731 -0.01462,0.25319c-0.04024,0.03585 -0.09216,0.05025 -0.14173,0.04401c-0.00046,0.00317 -0.00081,0.00492 -0.00081,0.00492c-0.05644,0.27476 -0.1339,0.54052 -0.20534,0.80827c0.13177,-0.02564 0.26448,-0.04872 0.3985,-0.06862c0.36931,-0.05483 0.73507,-0.25589 1.08272,-0.11027c-0.02375,-0.01006 -0.08288,-0.03512 -0.10794,-0.04575l0.02888,-0.05698l-0.02596,-0.00588l0.04215,-0.18603c0.00769,-0.03599 0.02649,-0.06995 0.05608,-0.09631c0.07396,-0.06588 0.18732,-0.05933 0.25319,0.01463c0.01091,0.01225 0.01984,0.02558 0.0268,0.0396l0.08394,0.16017l-0.02833,0.01485c0.0849,0.13098 0.09948,0.255 0.06335,0.4799c0.01715,0.04966 0.01939,0.11903 -0.0536,0.18405c-0.13391,0.11929 -0.25319,-0.01462 -0.25319,-0.01462l-0.05678,-0.17158c0.00454,-0.02023 0.00735,-0.03998 0.009,-0.05922c-0.26623,0.05494 -0.64087,0.12183 -0.70678,0.1352c-0.30666,0.06218 -0.60955,0.12489 -0.91113,0.19073c-0.01904,0.08841 -0.03602,0.17761 -0.05001,0.26798c-0.02706,0.1747 -0.02969,0.34902 -0.03813,0.52342c0.12135,-0.01918 0.25553,-0.01786 0.42521,0.01614l0.21202,0.01224c0.04581,0.00264 0.09062,0.02277 0.12356,0.05974c0.06588,0.07396 0.05933,0.18732 -0.01462,0.25319c-0.01673,0.0149 -0.03547,0.0261 -0.05523,0.03364l-0.32808,0.13425l-0.0054,-0.0132c-0.2564,0.15623 -0.49275,0.22991 -0.91208,0.26553l-0.08872,-0.00332c0,0 -0.17903,-0.01034 -0.16869,-0.18937c0.00101,-0.01743 0.00361,-0.03308 0.0075,-0.04711c-0.00773,-0.01262 -0.01465,-0.02719 -0.02046,-0.04402c-0.0586,-0.16948 0.11088,-0.22809 0.11088,-0.22809c0.13531,-0.04618 0.24742,-0.09452 0.35135,-0.13692c0.02126,-0.2303 0.01118,-0.46083 0.04658,-0.6919c0.00649,-0.04243 0.01369,-0.08463 0.02147,-0.12665c-0.26951,0.06178 -0.53882,0.12696 -0.80968,0.19743c0.00301,0.16446 -0.03212,0.31153 -0.15162,0.37005c-0.55483,0.27173 -0.46984,-0.75327 -0.42669,-0.94446l0.05469,-0.11115c0,0 0.08932,-0.15552 0.24482,-0.06619c0.00896,0.00514 0.01711,0.01051 0.02451,0.01606c0.271,-0.2616 0.55576,-0.50823 0.8381,-0.7589c-0.00713,0.03096 -0.01571,0.06222 -0.02581,0.09371c-0.01554,0.04847 -0.14419,0.45936 -0.17808,0.49706c-0.1006,0.11192 -0.35764,0.17624 -0.62167,0.17829c0.00882,0.00777 0.01635,0.01581 0.02273,0.02404c0.08843,0.02775 0.11532,0.12723 0.11532,0.12723c0.0137,0.05111 0.03473,0.1272 0.05431,0.21468c0.31764,-0.0862 0.63245,-0.17069 0.95036,-0.24395c0.08206,-0.32068 0.17964,-0.63638 0.24446,-0.96271c0,0 0.00378,-0.01867 0.01494,-0.04259c-0.10477,-0.01617 -0.2082,-0.04372 -0.30819,-0.07789c0,0 -0.16931,-0.05913 -0.11018,-0.22843c0.04002,-0.11457 0.13049,-0.12453 0.1848,-0.11899c0.00998,-0.01881 0.02474,-0.03784 0.04569,-0.0565z"/></g></g></g><path d="M92.56046,298.40405l8.07792,-1.25505l1.38523,5.13793l-0.16817,0.73429l-7.00736,2.28798l-3.27855,-0.06729l-1.64561,-1.94642l-0.04522,-2.54202l0.83184,-1.3491z" data-paper-data="{&quot;index&quot;:null}" fill="#949494" stroke="#000000" stroke-linecap="round"/><g data-paper-data="{&quot;index&quot;:null}"><g><path d="M113.31243,302.47441l-1.48857,-2.37366l1.99388,-1.2504l1.48857,2.37366z" fill="#000000" stroke="none" stroke-linecap="butt"/><path d="M123.48159,312.25194c0,0 0.03692,0.59722 -0.45116,0.63159c-1.27898,0.09007 -7.50596,-0.07123 -7.50596,-0.07123l-4.70703,-6.8364c0,0 3.31069,-1.02913 4.59611,-1.56625c0.49869,-0.20838 3.78111,4.12331 4.15458,4.10503c0.3882,-0.019 -0.75532,1.3432 -0.72033,1.72354c0.0395,0.42943 1.24258,-0.11565 1.49576,-0.11565c0.71336,0 2.0173,0.22414 2.0173,0.22414l1.12072,1.90523z" fill="#949494" stroke="#000000" stroke-linecap="butt"/><path d="M110.03294,305.52761l2.68973,-4.03459l1.37992,-0.27419l1.15234,0.39451l0.71783,1.11248l-0.11207,1.56901z" fill="#949494" stroke="#000000" stroke-linecap="butt"/><path d="M113.28302,304.85519l-0.89658,-0.44829l-0.33622,-1.00865" fill="none" stroke="#000000" stroke-linecap="round"/><path d="M118.88663,309.95448l-0.89658,2.68973" fill="none" stroke="#000000" stroke-linecap="round"/></g><g stroke="none" stroke-linecap="butt"><path d="M116.21435,312.49118l-4.79848,-6.02605l4.30586,-2.14221l0.64181,1.41899l2.44628,3.01463z" fill="#8c6200"/><path d="M112.59199,307.88793l-1.06545,-1.51154l4.21982,-1.87364l0.6526,1.51154z" fill="#8c0081"/><path d="M116.02702,312.59452l1.76936,-4.83626l1.06162,0.94366l0.09353,2.01988l1.44835,-0.13176l1.60214,0.32992l0.43175,0.47442l0.61173,1.14116z" fill="#8c0081"/><g fill="#ffffff"><path d="M114.09974,306.94615c-0.00007,-0.0002 -0.00013,-0.00041 -0.00019,-0.00061c-0.03861,-0.12322 0.08461,-0.16183 0.08461,-0.16183c0.60388,-0.18239 0.99989,0.21813 0.9481,0.73962c-0.05222,-0.0323 -0.1065,0.00917 -0.1065,0.00917c-0.36813,0.28128 -0.7404,0.55471 -1.09076,0.85641c-0.21409,-0.05446 -0.38969,-0.15719 -0.4281,-0.31041c-0.05411,-0.21583 0.05087,-0.48215 0.13372,-0.66923c0.12742,-0.23471 0.26667,-0.33981 0.45912,-0.46312zM113.95776,307.59695c-0.03247,-0.0425 -0.09325,-0.05063 -0.13575,-0.01816c-0.0425,0.03247 -0.05063,0.09325 -0.01816,0.13575c0.03247,0.0425 0.09325,0.05063 0.13575,0.01816c0.0425,-0.03247 0.05063,-0.09325 0.01816,-0.13575zM114.55825,307.2397c0.0425,-0.03247 0.05063,-0.09325 0.01816,-0.13575c-0.03247,-0.0425 -0.09325,-0.05063 -0.13575,-0.01816c-0.0425,0.03247 -0.05063,0.09325 -0.01816,0.13575c0.03248,0.0425 0.09325,0.05063 0.13576,0.01816z"/><path d="M115.50499,307.17526c0.14249,-0.10887 0.25137,0.03362 0.25137,0.03362l-0.03651,-0.0166c0.08861,0.04447 0.16387,0.11125 0.22835,0.18976l0.00483,-0.00771l0.00508,0.00318l0.03909,-0.03656l0.15226,0.16275c0.00463,0.00483 0.00904,0.00996 0.01319,0.0154c0.06013,0.0787 0.04508,0.19124 -0.03362,0.25137c-0.04282,0.03272 -0.09567,0.04317 -0.14464,0.03323c-0.0007,0.00313 -0.00118,0.00484 -0.00118,0.00484c-0.07694,0.26974 -0.17417,0.52893 -0.26553,0.79054c0.13333,-0.01565 0.26739,-0.0287 0.40254,-0.03846c0.37238,-0.0269 0.75223,-0.1999 1.08795,-0.02856c-0.02292,-0.01182 -0.08,-0.04126 -0.10419,-0.05374l0.03308,-0.05465l-0.02544,-0.00782l0.05602,-0.18233c0.01038,-0.03531 0.03167,-0.06776 0.06316,-0.09182c0.0787,-0.06013 0.19124,-0.04508 0.25137,0.03362c0.00996,0.01304 0.01786,0.027 0.02375,0.0415l0.07166,0.16602l-0.02937,0.01268c0.07481,0.13699 0.08002,0.26176 0.02709,0.4833c0.01336,0.05081 0.01038,0.12015 -0.0673,0.1795c-0.1425,0.10887 -0.25137,-0.03362 -0.25137,-0.03362l-0.04372,-0.17536c0.00605,-0.01983 0.01034,-0.03932 0.01342,-0.05837c-0.26961,0.03476 -0.64822,0.0733 -0.71495,0.08167c-0.31046,0.03895 -0.61721,0.0787 -0.92289,0.12168c-0.02563,0.08673 -0.04927,0.17441 -0.07002,0.26346c-0.04012,0.17217 -0.05585,0.3458 -0.07738,0.51907c0.12245,-0.01 0.25615,0.00141 0.42279,0.04807l0.2105,0.02815c0.04549,0.00608 0.08866,0.02952 0.11872,0.06887c0.06013,0.0787 0.04508,0.19124 -0.03362,0.25137c-0.0178,0.0136 -0.03734,0.02336 -0.0576,0.0294l-0.33725,0.10921l-0.00439,-0.01357c-0.26742,0.13652 -0.50864,0.19221 -0.92946,0.19621l-0.08822,-0.00998c0,0 -0.17775,-0.02378 -0.15398,-0.20152c0.00232,-0.01731 0.00609,-0.03271 0.01102,-0.04641c-0.00676,-0.01315 -0.01256,-0.02822 -0.01709,-0.04543c-0.04569,-0.17341 0.12772,-0.2191 0.12772,-0.2191c0.13841,-0.03588 0.25384,-0.07564 0.36066,-0.11011c0.03852,-0.22804 0.04579,-0.45868 0.09848,-0.68644c0.00967,-0.04182 0.02002,-0.08336 0.03093,-0.12467c-0.2734,0.04134 -0.54684,0.08609 -0.82224,0.13599c-0.00937,0.16422 -0.05544,0.30823 -0.17901,0.35761c-0.57369,0.22924 -0.41188,-0.78647 -0.35447,-0.97387l0.0629,-0.10672c0,0 0.10075,-0.14835 0.2491,-0.0476c0.00855,0.00581 0.01626,0.01177 0.02323,0.01785c0.2899,-0.24048 0.59239,-0.465 0.89278,-0.69374c-0.00943,0.03034 -0.02034,0.06087 -0.03278,0.09151c-0.01914,0.04717 -0.17832,0.44722 -0.21495,0.48227c-0.10874,0.10404 -0.36988,0.14885 -0.63332,0.13104c0.00821,0.00841 0.01511,0.017 0.02086,0.02567c0.08609,0.03432 0.10543,0.13554 0.10543,0.13554c0.00982,0.052 0.02508,0.12945 0.03802,0.21816c0.32321,-0.06208 0.64349,-0.12266 0.96601,-0.1718c0.10594,-0.31361 0.22698,-0.62108 0.31616,-0.9416c0,0 0.00517,-0.01832 0.0181,-0.04135c-0.10326,-0.024 -0.20433,-0.05927 -0.30146,-0.10084c0,0 -0.16438,-0.07169 -0.09269,-0.23607c0.04851,-0.11124 0.13948,-0.11437 0.19322,-0.10477c0.01137,-0.01801 0.02751,-0.03587 0.04981,-0.0529z"/></g></g></g><g><g stroke="#000000"><path d="M109.02314,281.44977c0,0 0.65303,-0.3159 0.94593,-0.79056c0.26197,-0.42455 0.72908,-1.92386 0.72908,-1.92386c0,0 -0.24313,-2.76613 1.0688,-3.66301c0.14892,-0.10181 3.5878,-2.08492 6.73774,-1.76592c2.25143,0.228 4.49707,2.65662 4.63837,3.09453c0.10922,0.3385 1.27904,2.06534 1.85496,4.08829c0.81164,2.85091 1.0226,5.94612 1.0226,5.94612l-5.53716,3.39369l-6.27908,-7.59744l-2.4502,2.48593z" fill="#949494" stroke-linecap="butt"/><path d="M123.12408,288.36042l-3.00688,-5.52023l0.19774,-2.21008l2.60557,-4.22243l2.08795,5.11975l0.85329,4.69103z" fill="#000000" stroke-linecap="round"/><path d="M119.42551,280.78923l0.50308,0.60196" fill="none" stroke-linecap="round"/><path d="M118.27809,281.16396l0.6327,0.93181" fill="none" stroke-linecap="round"/><path d="M117.54775,282.2125l-0.34522,-0.58783" fill="none" stroke-linecap="round"/><path d="M119.98432,289.22952c0,0 -3.63629,-4.64228 -5.78508,-6.79895c-0.52869,-0.53063 -0.78085,0.52201 -1.08307,0.16841c-2.67775,-3.13294 -2.21011,-4.07987 -2.09554,-4.67225c0.28454,-1.47131 0.81234,-3.26055 1.05614,-3.39851c0.3135,-0.1774 1.47548,-0.0839 1.47548,-0.0839l0.63162,1.88522l0.96504,2.55281l1.2949,2.4232l2.93252,3.68362l0.89567,4.21744" fill="#373737" stroke-linecap="round"/><path d="M119.04565,289.80868l-1.14742,0.37471l-3.7372,-4.47168l-0.61857,-1.08967l0.57246,-1.06267l0.83169,-0.40297l0.87531,-0.00125l0.25923,0.6597l-0.15662,0.86119l-0.14249,0.70332z" fill="#000000" stroke-linecap="round"/><path d="M110.76087,282.48045l1.01781,-0.70457" fill="none" stroke-linecap="round"/><path d="M113.05821,283.48164l-2.32931,-3.31139" fill="none" stroke-linecap="round"/><path d="M119.48864,274.74805l-1.13329,0.21686l-0.63021,0.81881l-0.39009,-1.86486l1.70575,-1.27952l2.38207,0.05401l-0.25673,1.09092l-1.13205,1.09217z" fill="#151515" stroke-linecap="round"/><path d="M118.37064,276.12059l-1.17816,-1.06018l0.70083,-1.60813l0.80344,-0.08724l1.49264,0.21312l0.66094,0.61608l0.01537,0.71745l-0.07062,0.78932l-0.8022,0.96255z" fill="none" stroke-linecap="round"/></g><path d="M121.42557,280.55593c-0.34071,-0.32641 -0.0143,-0.66712 -0.0143,-0.66712l0.4898,-0.43063c0.73039,-0.23791 1.31564,-0.3908 2.08239,-0.28662c0,0 0.46667,0.06957 0.3971,0.53624c-0.06957,0.46667 -0.53624,0.3971 -0.53624,0.3971c-0.61136,-0.10228 -1.06949,0.0601 -1.65029,0.25031l-0.10135,0.18642c0,0 -0.32641,0.34071 -0.66712,0.0143z" fill="#54ff00" stroke="none" stroke-linecap="butt"/><path d="M122.61794,281.66265l1.65538,2.1795" fill="none" stroke="#54ff00" stroke-linecap="round"/></g></g><path d="M0,363.1006v-366.2012h480v366.2012z" fill="none" stroke="none" stroke-width="0" stroke-linecap="butt"/></g></g></svg>