<svg version="1.1" xmlns="http://www.w3.org/2000/svg" xmlns:xlink="http://www.w3.org/1999/xlink" width="479.64169" height="86.5514" viewBox="0,0,479.64169,86.5514"><g transform="translate(-0.68117,-273.81207)"><g data-paper-data="{&quot;isPaintingLayer&quot;:true}" fill-rule="nonzero" stroke="none" stroke-width="0" stroke-linecap="butt" stroke-linejoin="miter" stroke-miterlimit="10" stroke-dasharray="" stroke-dashoffset="0" style="mix-blend-mode: normal"><path d="M0.68117,360.36346v-75.56741h143.60123v75.56742z" fill="#d69b00"/><path d="M0.68117,294.50088v-20.66222h143.60445v20.66222l-14.67112,25.13352l-14.46349,-27.86704l-10.87089,27.06054l-18.14528,-27.71875l-15.3937,18.55532l-18.9652,-15.93977l-18.86345,17.91163l-12.51424,-14.01149l-11.4669,17.92812z" fill="#00d624"/><path d="M336.7184,360.33687v-75.56741h143.60123v75.56742z" fill="#d69b00"/><path d="M336.7184,294.47429v-20.66222h143.60445v20.66222l-14.67112,25.13352l-14.46349,-27.86704l-10.87089,27.06054l-18.14528,-27.71875l-15.39369,18.55532l-18.96519,-15.93977l-18.86345,17.91163l-12.51424,-14.01149l-11.4669,17.92812z" fill="#00d624"/></g></g></svg>