<svg version="1.1" xmlns="http://www.w3.org/2000/svg" xmlns:xlink="http://www.w3.org/1999/xlink" width="50.94073" height="4.34181" viewBox="0,0,50.94073,4.34181"><g transform="translate(-212.62704,-200.74077)"><g data-paper-data="{&quot;isPaintingLayer&quot;:true}" fill="#ffffff" fill-rule="nonzero" stroke="#b1b1b1" stroke-width="1" stroke-linecap="butt" stroke-linejoin="miter" stroke-miterlimit="10" stroke-dasharray="" stroke-dashoffset="0" style="mix-blend-mode: normal"><path d="M238.42039,203.82596c0,0 1.93316,-1.30846 3.27499,-1.49407c2.13966,-0.29598 8.32735,-0.11087 8.32735,-0.11087l-5.80117,0.52052l8.26227,1.08442l-8.26227,0.47715z"/><path d="M239.42493,204.2174c0,0 1.5781,-0.99862 2.67347,-1.14028c1.74668,-0.22589 6.79783,-0.08462 6.79783,-0.08462l-4.73565,0.39726l6.74471,0.82763l-6.74471,0.36416z"/><path d="M225.21798,203.18374c0,0 1.16212,-1.23705 1.96876,-1.41254c1.28626,-0.27983 5.00595,-0.10482 5.00595,-0.10482l-3.48736,0.49211l4.96683,1.02524l-4.96683,0.45111z"/><path d="M252.05333,203.65492c0,0 1.5781,-0.55582 2.67347,-0.63466c1.74668,-0.12573 6.79783,-0.04709 6.79783,-0.04709l-4.73565,0.22111l6.74471,0.46065l-6.74471,0.20269z"/><path d="M237.5594,204.19173l-6.74471,-0.43869l6.74471,-0.99701l-4.73565,-0.47856c0,0 5.05116,-0.17018 6.79783,0.10193c1.09538,0.17065 2.67347,1.37364 2.67347,1.37364z" data-paper-data="{&quot;index&quot;:null}"/><path d="M255.06694,203.85761l-6.74471,-0.42626l6.74471,-0.96878l-4.73565,-0.46501c0,0 5.05115,-0.16537 6.79783,0.09905c1.09536,0.16582 2.67347,1.33475 2.67347,1.33475z" data-paper-data="{&quot;index&quot;:null}"/><path d="M256.07147,203.96898l-6.74471,-0.35173l6.74471,-0.7994l-4.73565,-0.38371c0,0 5.05115,-0.13646 6.79783,0.08173c1.09536,0.13683 2.67347,1.10139 2.67347,1.10139z" data-paper-data="{&quot;index&quot;:null}"/><path d="M222.77842,203.91329l-6.74471,-0.61258l6.74471,-1.39222l-4.73565,-0.66827c0,0 5.05115,-0.23766 6.79783,0.14233c1.09536,0.2383 2.67347,1.91816 2.67347,1.91816z" data-paper-data="{&quot;index&quot;:null}"/></g></g></svg>