<svg version="1.1" xmlns="http://www.w3.org/2000/svg" xmlns:xlink="http://www.w3.org/1999/xlink" width="480" height="366.2012" viewBox="0,0,480,366.2012"><g transform="translate(0,3.1006)"><g data-paper-data="{&quot;isPaintingLayer&quot;:true}" fill-rule="nonzero" stroke-linejoin="miter" stroke-miterlimit="10" stroke-dasharray="" stroke-dashoffset="0" style="mix-blend-mode: normal"><text transform="translate(120.26643,100.11214) scale(0.86836,0.86836)" font-size="40" xml:space="preserve" fill="#000000" fill-rule="nonzero" stroke="none" stroke-width="1" stroke-linecap="butt" stroke-linejoin="miter" stroke-miterlimit="10" stroke-dasharray="" stroke-dashoffset="0" font-family="Sans Serif" font-weight="normal" text-anchor="start" style="mix-blend-mode: normal"><tspan x="0" dy="0">Hotel Madnes</tspan></text><path d="M100.43178,311.35802v-49.22125h272.69706v49.22125z" fill="#af0000" stroke="none" stroke-width="NaN" stroke-linecap="butt"/><g stroke="none" stroke-linecap="butt"><path d="M101.46076,267.5115v-14.14404h272.1313v14.14404z" fill="#cb0000" stroke-width="0"/><path d="M113.77766,256.00769c1.73886,0.84864 0.43471,1.98017 0.43471,1.98017l-1.07134,0.90584c-0.80898,0.47567 -1.8872,0.81054 -2.42692,1.427c-0.29441,0.33626 0.11031,0.77067 0.16545,1.15601c0,0 0,1.4144 -2.17357,1.4144c-2.17357,0 -2.17357,-1.4144 -2.17357,-1.4144c0.05515,-0.74618 -0.34948,-1.57087 0.16545,-2.23855c0.73756,-0.95636 2.24618,-1.56316 3.36927,-2.34474l0.66752,-0.60286c0,0 1.30414,-1.13152 3.043,-0.28288z" fill="#dd0000" stroke-width="0.5"/><path d="M132.8481,263.41979c-1.53695,1.00014 -3.07389,0 -3.07389,0l-0.28981,-0.18859c-1.26219,-0.83848 -2.84142,-1.46634 -4.43064,-2.02148c0,0 -1.90817,-0.67729 -0.86735,-1.91899c1.04082,-1.2417 2.94899,-0.56441 2.94899,-0.56441c1.93998,0.69783 3.84296,1.49286 5.42289,2.50461l0.28981,0.18859c0,0 1.53695,1.00014 0,2.00027z" fill="#dd0000" stroke-width="0.5"/><path d="M155.64461,258.68837c0.80725,1.31324 -1.21087,1.83854 -1.21087,1.83854l-2.8981,0.75435c0,0 -2.01811,0.5253 -2.82536,-0.78795c-0.80725,-1.31324 1.21087,-1.83854 1.21087,-1.83854l2.8981,-0.75435c0,0 2.01811,-0.5253 2.82536,0.78795z" fill="#dd0000" stroke-width="0.5"/><path d="M166.81284,265.05987c0,1.4144 -2.17357,1.4144 -2.17357,1.4144h-2.31848c0,0 -2.17357,0 -2.17357,-1.4144c0,-1.4144 2.17357,-1.4144 2.17357,-1.4144h2.31848c0,0 2.17357,0 2.17357,1.4144z" fill="#dd0000" stroke-width="0.5"/><path d="M184.13168,258.31072c0.4347,-0.22194 1.67276,-0.71425 2.91083,0.0914c1.53695,1.00014 0,2.00027 0,2.00027l-1.29959,0.56062c-3.69326,0.59823 -5.44667,0.85273 -7.84148,2.73929c0,0 -1.39148,1.08657 -3.06127,0.18109c-1.66978,-0.90548 -0.2783,-1.99205 -0.2783,-1.99205c2.8725,-2.22658 5.41896,-2.8853 9.56981,-3.58063z" fill="#dd0000" stroke-width="0.5"/><path d="M210.92425,259.33547c0.97205,1.26508 -0.97205,1.89762 -0.97205,1.89762l-1.50523,0.47754c-2.94137,1.27591 -5.56099,2.43999 -8.92282,3.18236c0,0 -2.06203,0.44727 -2.74938,-0.89455c-0.68734,-1.34182 1.37469,-1.7891 1.37469,-1.7891c2.99301,-0.63506 5.27753,-1.72067 7.88615,-2.85243l1.97249,-0.65399c0,0 1.9441,-0.63254 2.91615,0.63254z" fill="#dd0000" stroke-width="0.5"/><path d="M237.00046,262.95835c-1.69727,0.88357 -3.0551,-0.22089 -3.0551,-0.22089l-0.99891,-0.82637c-1.51172,-0.98466 -3.58079,-3.1131 -5.91787,-3.39531c-2.21096,-0.26698 -4.49716,0.03784 -6.74586,0.03784c0,0 -2.17357,0 -2.17357,-1.4144c0,-1.4144 2.17357,-1.4144 2.17357,-1.4144c0.73069,0 7.43471,-0.01028 7.74463,0.03784c3.65188,0.56695 5.52643,2.54472 7.99299,4.14817l1.31957,1.0595c0,0 1.35782,1.10446 -0.33945,1.98804z" fill="#dd0000" stroke-width="0.5"/><path d="M276.57547,256.73181c1.20568,1.17686 -0.60285,1.96143 -0.60285,1.96143l-1.74623,0.59844c-6.59204,0.6559 -14.75253,1.68929 -20.22162,4.27892c0,0 -1.17117,0.54437 -2.28821,0.127c-0.24116,0.68809 -1.35581,0.97822 -1.35581,0.97822l-1.1043,0.26335c-3.00164,1.19734 -4.88659,1.52216 -8.39723,1.5351c0,0 -2.17357,0 -2.17357,-1.4144c0,-1.4144 2.17357,-1.4144 2.17357,-1.4144c2.78571,0.0126 3.73913,-0.12379 6.09325,-1.10512l1.7938,-0.491c0,0 0.97703,-0.25431 1.84338,0.03333c0.22305,-0.50472 0.8884,-0.81398 0.8884,-0.81398c6.15308,-2.81808 14.73997,-4.04032 22.09059,-4.77326l-0.00737,-0.15591c0,0 1.80852,-0.78457 3.01421,0.39229z" fill="#dd0000" stroke-width="0.5"/><path d="M307.89269,262.24365c-1.17859,1.18842 -3.00488,0.42148 -3.00488,0.42148l-0.10196,-0.2006c-4.81628,-0.43147 -9.94494,-0.87125 -14.55174,-1.92627c-1.39503,-0.31948 -2.67396,-0.85965 -4.11214,-1.08395c0,0 -2.10868,-0.34304 -1.58151,-1.71522c0.52717,-1.37218 2.63585,-1.02913 2.63585,-1.02913c1.59036,0.26708 3.03386,0.82239 4.58215,1.1791c4.28876,0.9881 9.1308,1.37177 13.61963,1.77303l1.86688,0.6262c0,0 1.8263,0.76694 0.64771,1.95536z" fill="#dd0000" stroke-width="0.5"/><path d="M336.35493,264.63009c-1.0784,1.22805 -2.96559,0.52631 -2.96559,0.52631l-1.50816,-0.61537c-6.53335,0.08374 -13.13965,-0.32979 -19.72879,-0.32979c0,0 -2.17357,0 -2.17357,-1.4144c0,-1.4144 2.17357,-1.4144 2.17357,-1.4144c6.99459,0 13.88728,0.35219 20.84456,0.42456l2.54917,0.89332c0,0 1.88719,0.70174 0.8088,1.92979z" fill="#dd0000" stroke-width="0.5"/><path d="M348.58385,256.69526c0.97205,1.26508 -0.97205,1.89762 -0.97205,1.89762l-0.48099,0.03258c-0.57962,0.44004 -1.15923,0.88008 -1.73886,1.32011c0,0 -1.41455,1.07389 -3.06484,0.15341c-1.6503,-0.92048 -0.23575,-1.99438 -0.23575,-1.99438c0.57962,-0.44004 1.15923,-0.88008 1.73886,-1.32011l1.83749,-0.72178c0,0 1.9441,-0.63254 2.91615,0.63254z" fill="#dd0000" stroke-width="0.5"/><path d="M364.89776,260.81666c-1.04165,0 -1.5841,-0.32484 -1.86659,-0.66317c-2.14592,-0.76384 -3.14385,-0.90569 -6.12497,-1.03829c0,0 -2.16717,-0.10848 -2.00046,-1.51872c0.1667,-1.41024 2.33388,-1.30176 2.33388,-1.30176c3.79618,0.20758 5.53248,0.50345 8.73655,1.69089l1.09518,1.41663c0,0 0,1.4144 -2.17357,1.4144z" fill="#dd0000" stroke-width="0.5"/></g><g stroke-width="1.5" stroke-linecap="butt"><path d="M207.23871,253.95254l-6.20658,-0.02128l0.40752,-29.6812h6.08194z" fill="#efd600" stroke="#b98600"/><path d="M178.52632,232.87792v-14.42692h51.34286v14.42692z" fill="#dddb00" stroke="#e4b100"/><g fill="#dddb00" stroke="#e4b100"><path d="M188.2857,254.37686v-16.68997h5.23329v16.68997z"/><path d="M170.46421,254.23542v-16.40708h5.09185v16.40708z"/><path d="M170.46421,237.45116v-34.70004h4.52609v34.70004z"/><path d="M170.46421,241.78866v-4.10177h23.10665v4.10177z"/></g><g data-paper-data="{&quot;index&quot;:null}" fill="#dddb00" stroke="#e4b100"><path d="M215.49412,254.65974v-16.68997h5.23329v16.68997z"/><path d="M233.45705,254.5183v-16.40708h5.09185v16.40708z"/><path d="M234.02281,237.73404v-34.70004h4.52609v34.70004z"/><path d="M215.44226,242.07154v-4.10177h23.10665v4.10177z"/></g></g><g stroke-width="1.5" stroke-linecap="butt"><path d="M326.04864,253.38677l-6.20658,-0.02128l0.40752,-29.6812h6.08194z" fill="#efd600" stroke="#b98600"/><path d="M297.33624,232.31216v-14.42692h51.34286v14.42692z" fill="#dddb00" stroke="#e4b100"/><g fill="#dddb00" stroke="#e4b100"><path d="M307.09562,253.8111v-16.68997h5.23329v16.68997z"/><path d="M289.27414,253.66966v-16.40708h5.09185v16.40708z"/><path d="M289.27414,236.8854v-34.70004h4.52609v34.70004z"/><path d="M289.27414,241.2229v-4.10177h23.10665v4.10177z"/></g><g data-paper-data="{&quot;index&quot;:null}" fill="#dddb00" stroke="#e4b100"><path d="M334.30404,254.09398v-16.68997h5.23329v16.68997z"/><path d="M352.26697,253.95254v-16.40708h5.09185v16.40708z"/><path d="M352.83273,237.16828v-34.70004h4.52609v34.70004z"/><path d="M334.25218,241.50578v-4.10177h23.10665v4.10177z"/></g></g><g data-paper-data="{&quot;index&quot;:null}" fill="#949494" stroke="#000000" stroke-width="1"><path d="M181.37334,217.6975c0,0 -5.66236,-3.09483 -6.09385,-6.56519c-0.15511,-1.24747 -0.29607,-1.26224 -0.59311,-3.32691c-0.10699,-0.74369 -0.16521,-1.53805 -0.28046,-2.43888c-0.30905,-2.41569 -0.65761,-5.00973 -0.65761,-5.00973c0,0 5.66594,-2.38112 7.46466,-3.51603c0.17368,-0.10958 8.72184,-5.23859 8.89642,-5.35031c4.273,-2.73451 2.83311,-1.91781 2.83311,-1.91781c0,0 1.17883,-2.55921 1.90628,-2.84488c1.39692,-0.54856 1.76384,-2.60047 3.86051,-0.76638c0.98547,0.86205 0.98869,1.02473 2.04856,2.39136c1.54716,1.99499 3.69053,5.17949 4.32909,7.78673c0.85941,3.50894 -0.07947,6.24812 -0.07947,6.24812z" stroke-linecap="butt"/><path d="M190.41611,211.46128c0,0 1.39434,-5.88924 -1.10822,-9.54485c-1.22666,-1.62442 -5.3463,-3.92637 -5.3463,-3.92637l-2.86998,-0.97473l2.40577,0.86969c0,0 1.5197,-1.22171 2.35251,-1.89121c0.94294,-0.75804 3.01586,-2.42448 3.01586,-2.42448l-0.51391,-0.60427" stroke-linecap="round"/><path d="M194.86661,192.56863c0,0 1.37458,-0.58092 2.85232,-0.59721c1.80106,-0.01986 3.83543,0.6197 4.72817,1.91665c0.8855,1.28643 1.76703,3.3993 1.39598,5.26903c-0.45785,2.30715 -2.369,4.30431 -3.07846,4.6452c-1.92388,0.92444 -5.44919,-1.39377 -6.05514,-2.10275c-1.66902,-1.95282 -2.41406,-5.27738 -2.35571,-6.0248c0.10881,-1.39361 2.51284,-3.10612 2.51284,-3.10612" stroke-linecap="round"/><path d="M178.14032,210.4176c-1.23785,-1.96188 -0.68931,-3.85818 0.51121,-5.56982c0.37059,-0.52838 1.23625,-1.63442 1.81099,-1.99705c2.43651,-1.53732 5.22573,-0.6525 6.8457,1.91502c1.61998,2.56751 0.91286,6.45423 -1.52365,7.99155c-2.43652,1.53733 -6.02427,0.22781 -7.64424,-2.3397z" stroke-linecap="butt"/></g><g data-paper-data="{&quot;index&quot;:null}" stroke="#000000" stroke-width="1" stroke-linecap="round"><path d="M163.42767,203.19333c0,0 4.15156,-2.07294 6.88963,-2.16848c1.17766,-0.04109 2.61521,0.20958 3.19382,0.6506c0.67181,0.51205 0.37963,1.23555 0.23045,1.34615c-1.00626,0.74598 -3.41465,1.29348 -4.46652,1.32911c-1.84379,0.06246 -5.94952,-1.11101 -5.94952,-1.11101" fill="#949494"/><path d="M171.73677,203.85602l-0.44443,-2.8783" fill="none"/></g><path d="M198.89765,205.36554l-3.99134,-5.99425c0,0 -1.24746,-2.28454 -0.789,-3.09258c0.26027,-0.45873 0.9914,-2.14052 1.7569,-2.7541c0.95858,-0.76833 2.31243,-0.26674 2.87355,-0.34084c0.245,-0.03236 1.71509,1.4127 1.71509,1.4127c0,0 0.73627,1.44753 1.22366,2.40574c0.72337,1.42216 2.69548,5.29937 2.69548,5.29937z" data-paper-data="{&quot;index&quot;:null}" fill="#949494" stroke="#000000" stroke-width="1" stroke-linecap="butt"/><g data-paper-data="{&quot;index&quot;:null}" stroke-width="1"><g><path d="M192.44018,210.61084l-1.89121,-2.07095l1.7396,-1.58861l1.89121,2.07095z" data-paper-data="{&quot;index&quot;:null}" fill="#000000" stroke="none" stroke-linecap="butt"/><path d="M198.22787,207.78827l1.78399,1.54268l1.87395,1.21838l0.60118,2.02947l0.74414,-1.42342l1.1047,-0.62489l0.61233,-0.52865l1.15282,-0.3787l0.06068,1.87953l-1.47571,4.48019l-0.61233,0.52865l-1.44086,0.99731l-4.46206,-1.12143l-2.63763,-4.34069z" fill="#949494" stroke="#000000" stroke-linecap="round"/><path d="M195.0707,212.03484l-2.11386,-0.35358l-0.67301,-1.35089l0.44983,-1.62149l2.14943,-1.03357l2.56996,-0.45123l0.77483,0.56421z" fill="#949494" stroke="#000000" stroke-linecap="round"/><path d="M194.43883,208.01773l1.21908,0.22177l0.95546,2.01133" fill="none" stroke="#000000" stroke-linecap="round"/></g><g stroke="none" stroke-linecap="butt"><path d="M201.48867,216.96369l-2.6955,-0.48069l-2.69965,-4.91544l2.12728,-3.01733l3.20259,2.14631l0.96867,2.71885z" fill="#8c6200"/><path d="M196.36192,213.79033l-0.31573,-2.53425l2.15716,-2.86605l1.11472,0.97918z" fill="#8c0081"/><path d="M205.94672,211.71432l-2.00377,4.96078l-2.70199,-0.19818l0.93867,-3.32893l1.00001,-1.22711l0.74693,-1.45707l0.57313,-0.2895l1.2644,-0.28469z" fill="#8c0081"/><g fill="#ffffff"><path d="M198.18524,211.32603c-0.00008,-0.0002 -0.00016,-0.0004 -0.00024,-0.0006c-0.04781,-0.12009 0.07227,-0.1679 0.07227,-0.1679c0.58903,-0.2275 1.01446,0.14248 1.00201,0.66689c-0.05455,-0.02831 -0.10561,0.01716 -0.10561,0.01716c-0.34628,0.30846 -0.69728,0.60941 -1.02429,0.93692c-0.2178,-0.03825 -0.4008,-0.12758 -0.45067,-0.27762c-0.07025,-0.21137 0.01449,-0.48508 0.08311,-0.67805c0.10952,-0.24386 0.2406,-0.35924 0.42341,-0.49681zM198.08459,212.12315c0.03997,-0.03561 0.04352,-0.09689 0.00791,-0.13686c-0.03561,-0.03998 -0.09689,-0.04351 -0.13687,-0.00791c-0.03998,0.03561 -0.04352,0.09689 -0.00791,0.13686c0.03561,0.03997 0.09689,0.04352 0.13686,0.00791zM198.665,211.58449c0.03998,-0.03561 0.04351,-0.0969 0.0079,-0.13687c-0.03561,-0.03998 -0.09689,-0.04352 -0.13687,-0.00791c-0.03998,0.03561 -0.04351,0.09689 -0.00791,0.13687c0.03561,0.03997 0.09689,0.04352 0.13686,0.00791z"/><path d="M199.60513,211.44894c0.13404,-0.1194 0.25344,0.01464 0.25344,0.01464l-0.03769,-0.01382c0.09179,0.03772 0.17194,0.09871 0.24221,0.17222l0.00424,-0.00806l0.00531,0.0028l0.03626,-0.03944l0.16423,0.15099c0.00498,0.00447 0.00977,0.00926 0.01432,0.01438c0.06595,0.07403 0.0594,0.1875 -0.01464,0.25344c-0.04028,0.03588 -0.09225,0.05029 -0.14187,0.04406c-0.00046,0.00317 -0.00081,0.00492 -0.00081,0.00492c-0.0565,0.27503 -0.13403,0.54105 -0.20554,0.80906c0.1319,-0.02566 0.26473,-0.04877 0.39889,-0.06869c0.36967,-0.05488 0.73579,-0.25614 1.08378,-0.11038c-0.02378,-0.01007 -0.08296,-0.03516 -0.10805,-0.0458l0.0289,-0.05704l-0.02598,-0.00588l0.04219,-0.18621c0.00769,-0.03603 0.02652,-0.07002 0.05613,-0.0964c0.07403,-0.06594 0.1875,-0.05939 0.25344,0.01465c0.01092,0.01226 0.01986,0.02561 0.02683,0.03963l0.08403,0.16032l-0.02836,0.01486c0.08498,0.13111 0.09957,0.25525 0.06341,0.48037c0.01717,0.0497 0.01941,0.11915 -0.05365,0.18423c-0.13404,0.1194 -0.25344,-0.01463 -0.25344,-0.01463l-0.05683,-0.17174c0.00455,-0.02025 0.00735,-0.04002 0.00901,-0.05928c-0.26649,0.05499 -0.6415,0.12195 -0.70748,0.13533c-0.30696,0.06224 -0.61015,0.12501 -0.91202,0.19091c-0.01906,0.0885 -0.03605,0.17779 -0.05006,0.26824c-0.02709,0.17487 -0.02972,0.34936 -0.03817,0.52393c0.12147,-0.0192 0.25578,-0.01788 0.42563,0.01615l0.21223,0.01225c0.04586,0.00264 0.09071,0.02279 0.12368,0.0598c0.06595,0.07403 0.05939,0.1875 -0.01463,0.25344c-0.01675,0.01491 -0.03551,0.02612 -0.05528,0.03367l-0.3284,0.13439l-0.00541,-0.01321c-0.25665,0.15639 -0.49323,0.23014 -0.91297,0.26579l-0.08881,-0.00332c0,0 -0.17921,-0.01035 -0.16886,-0.18956c0.00101,-0.01745 0.00362,-0.03312 0.00751,-0.04715c-0.00774,-0.01263 -0.01466,-0.02722 -0.02048,-0.04406c-0.05866,-0.16965 0.11099,-0.22831 0.11099,-0.22831c0.13544,-0.04623 0.24767,-0.09461 0.3517,-0.13705c0.02128,-0.23052 0.01119,-0.46128 0.04663,-0.69258c0.0065,-0.04247 0.0137,-0.08472 0.02149,-0.12677c-0.26978,0.06184 -0.53934,0.12708 -0.81048,0.19762c0.00301,0.16462 -0.03215,0.31184 -0.15177,0.37041c-0.55537,0.272 -0.4703,-0.75401 -0.42711,-0.94538l0.05475,-0.11126c0,0 0.0894,-0.15567 0.24506,-0.06626c0.00897,0.00515 0.01713,0.01052 0.02454,0.01607c0.27127,-0.26185 0.5563,-0.50873 0.83892,-0.75964c-0.00714,0.03099 -0.01572,0.06228 -0.02583,0.0938c-0.01556,0.04852 -0.14433,0.45981 -0.17826,0.49755c-0.1007,0.11203 -0.35799,0.17642 -0.62228,0.17847c0.00883,0.00777 0.01636,0.01582 0.02276,0.02406c0.08851,0.02778 0.11543,0.12735 0.11543,0.12735c0.01372,0.05116 0.03477,0.12732 0.05436,0.21489c0.31795,-0.08629 0.63307,-0.17086 0.95129,-0.24418c0.08214,-0.321 0.17981,-0.637 0.2447,-0.96365c0,0 0.00378,-0.01868 0.01496,-0.04263c-0.10487,-0.01619 -0.20841,-0.04377 -0.30849,-0.07796c0,0 -0.16947,-0.05918 -0.11028,-0.22865c0.04006,-0.11468 0.13062,-0.12465 0.18498,-0.11911c0.00999,-0.01883 0.02476,-0.03787 0.04573,-0.05656z"/></g></g></g><path d="M182.36947,202.98434l8.08583,-1.25627l1.38658,5.14296l-0.16833,0.73501l-7.01422,2.29022l-3.28176,-0.06735l-1.64722,-1.94832l-0.04527,-2.54451l0.83265,-1.35042z" data-paper-data="{&quot;index&quot;:null}" fill="#949494" stroke="#000000" stroke-width="1" stroke-linecap="round"/><g data-paper-data="{&quot;index&quot;:null}" stroke-width="1"><g><path d="M203.14175,207.05867l-1.49003,-2.37598l1.99583,-1.25162l1.49003,2.37598z" fill="#000000" stroke="none" stroke-linecap="butt"/><path d="M213.32087,216.84578c0,0 0.03696,0.5978 -0.45161,0.63221c-1.28023,0.09016 -7.5133,-0.0713 -7.5133,-0.0713l-4.71164,-6.84309c0,0 3.31393,-1.03014 4.60061,-1.56778c0.49918,-0.20858 3.78481,4.12734 4.15865,4.10905c0.38858,-0.01902 -0.75606,1.34452 -0.72103,1.72522c0.03954,0.42985 1.2438,-0.11576 1.49723,-0.11576c0.71406,0 2.01927,0.22436 2.01927,0.22436z" fill="#949494" stroke="#000000" stroke-linecap="butt"/><path d="M199.85904,210.11487l2.69236,-4.03854l1.38127,-0.27446l1.15347,0.39489l0.71854,1.11357l-0.11218,1.57055z" fill="#949494" stroke="#000000" stroke-linecap="butt"/><path d="M203.11231,209.44178l-0.89745,-0.44873l-0.33655,-1.00964" fill="none" stroke="#000000" stroke-linecap="round"/><path d="M208.7214,214.54605l-0.89745,2.69236" fill="none" stroke="#000000" stroke-linecap="round"/></g><g stroke="none" stroke-linecap="butt"><path d="M206.0465,217.08523l-4.80318,-6.03195l4.31007,-2.14431l0.64244,1.42038l2.44868,3.01758z" fill="#8c6200"/><path d="M202.42061,212.47747l-1.0665,-1.51302l4.22395,-1.87547l0.65324,1.51302z" fill="#8c0081"/><path d="M205.85899,217.18869l1.7711,-4.841l1.06266,0.94458l0.09362,2.02186l1.44977,-0.13189l1.60371,0.33025l0.43218,0.47488l0.61233,1.14228z" fill="#8c0081"/><g fill="#ffffff"><path d="M203.92983,211.5348c-0.00007,-0.0002 -0.00013,-0.00041 -0.00019,-0.00061c-0.03865,-0.12334 0.08469,-0.16199 0.08469,-0.16199c0.60447,-0.18256 1.00087,0.21835 0.94903,0.74034c-0.05227,-0.03233 -0.1066,0.00918 -0.1066,0.00918c-0.36849,0.28155 -0.74113,0.55525 -1.09183,0.85725c-0.2143,-0.05452 -0.39007,-0.15734 -0.42852,-0.31072c-0.05417,-0.21605 0.05092,-0.48262 0.13385,-0.66988c0.12755,-0.23494 0.26693,-0.34014 0.45957,-0.46357zM203.7877,212.18622c-0.0325,-0.04254 -0.09334,-0.05068 -0.13588,-0.01817c-0.04254,0.0325 -0.05068,0.09334 -0.01817,0.13588c0.0325,0.04254 0.09334,0.05068 0.13588,0.01817c0.04254,-0.0325 0.05068,-0.09334 0.01817,-0.13588zM204.38879,211.82861c0.04254,-0.0325 0.05068,-0.09334 0.01817,-0.13588c-0.0325,-0.04254 -0.09334,-0.05068 -0.13588,-0.01817c-0.04254,0.0325 -0.05068,0.09334 -0.01817,0.13588c0.03251,0.04254 0.09334,0.05068 0.13589,0.01817z"/><path d="M205.33646,211.76412c0.14263,-0.10898 0.25162,0.03365 0.25162,0.03365l-0.03655,-0.01662c0.08869,0.04451 0.16403,0.11136 0.22858,0.18994l0.00484,-0.00772l0.00509,0.00319l0.03912,-0.0366l0.15241,0.16291c0.00463,0.00483 0.00904,0.00997 0.0132,0.01542c0.06019,0.07877 0.04513,0.19143 -0.03365,0.25162c-0.04287,0.03275 -0.09577,0.04321 -0.14478,0.03326c-0.0007,0.00313 -0.00118,0.00484 -0.00118,0.00484c-0.07702,0.27 -0.17434,0.52944 -0.26579,0.79132c0.13346,-0.01567 0.26765,-0.02872 0.40293,-0.0385c0.37274,-0.02693 0.75296,-0.2001 1.08901,-0.02858c-0.02294,-0.01184 -0.08008,-0.0413 -0.1043,-0.05379l0.03311,-0.05471l-0.02547,-0.00783l0.05608,-0.18251c0.01039,-0.03535 0.0317,-0.06783 0.06322,-0.09191c0.07878,-0.06019 0.19143,-0.04513 0.25162,0.03365c0.00997,0.01305 0.01788,0.02703 0.02377,0.04154l0.07173,0.16619l-0.0294,0.01269c0.07488,0.13713 0.0801,0.26202 0.02711,0.48377c0.01338,0.05086 0.0104,0.12026 -0.06736,0.17968c-0.14264,0.10898 -0.25162,-0.03365 -0.25162,-0.03365l-0.04376,-0.17553c0.00605,-0.01985 0.01035,-0.03936 0.01344,-0.05843c-0.26987,0.0348 -0.64885,0.07338 -0.71565,0.08175c-0.31077,0.03899 -0.61782,0.07878 -0.92379,0.1218c-0.02565,0.08682 -0.04932,0.17458 -0.07009,0.26372c-0.04016,0.17234 -0.0559,0.34614 -0.07745,0.51958c0.12257,-0.01001 0.2564,0.00141 0.4232,0.04811l0.21071,0.02818c0.04553,0.00609 0.08874,0.02955 0.11884,0.06894c0.06019,0.07878 0.04513,0.19143 -0.03365,0.25162c-0.01782,0.01362 -0.03737,0.02338 -0.05766,0.02943l-0.33758,0.10931l-0.0044,-0.01358c-0.26769,0.13665 -0.50914,0.1924 -0.93037,0.1964l-0.0883,-0.00999c0,0 -0.17793,-0.0238 -0.15413,-0.20172c0.00232,-0.01733 0.0061,-0.03274 0.01103,-0.04645c-0.00677,-0.01317 -0.01257,-0.02824 -0.01711,-0.04548c-0.04574,-0.17358 0.12784,-0.21932 0.12784,-0.21932c0.13854,-0.03591 0.25408,-0.07572 0.36101,-0.11022c0.03855,-0.22826 0.04584,-0.45913 0.09857,-0.68711c0.00968,-0.04186 0.02003,-0.08344 0.03096,-0.12479c-0.27367,0.04138 -0.54738,0.08617 -0.82304,0.13612c-0.00938,0.16438 -0.0555,0.30853 -0.17918,0.35796c-0.57425,0.22946 -0.41228,-0.78724 -0.35482,-0.97482l0.06296,-0.10683c0,0 0.10085,-0.1485 0.24935,-0.04764c0.00856,0.00581 0.01628,0.01178 0.02325,0.01787c0.29019,-0.24071 0.59297,-0.46546 0.89366,-0.69442c-0.00944,0.03037 -0.02036,0.06093 -0.03281,0.0916c-0.01916,0.04722 -0.17849,0.44765 -0.21516,0.48274c-0.10884,0.10415 -0.37024,0.149 -0.63394,0.13117c0.00822,0.00842 0.01513,0.01702 0.02088,0.0257c0.08617,0.03435 0.10553,0.13568 0.10553,0.13568c0.00983,0.05205 0.0251,0.12957 0.03805,0.21837c0.32353,-0.06214 0.64412,-0.12278 0.96696,-0.17197c0.10604,-0.31391 0.2272,-0.62168 0.31647,-0.94253c0,0 0.00517,-0.01834 0.01812,-0.04139c-0.10336,-0.02403 -0.20453,-0.05932 -0.30176,-0.10094c0,0 -0.16454,-0.07176 -0.09278,-0.2363c0.04856,-0.11135 0.13961,-0.11448 0.19341,-0.10487c0.01138,-0.01802 0.02753,-0.0359 0.04986,-0.05295z"/></g></g></g><g data-paper-data="{&quot;index&quot;:null}" stroke-width="1"><g stroke="#000000"><path d="M196.28402,186.56245c0,0 0.17655,-0.70435 0,-1.234c-0.15792,-0.47373 -1.00964,-1.79491 -1.00964,-1.79491c0,0 -2.28062,-1.58885 -2.12734,-3.17221c0.0174,-0.17974 0.70169,-4.09397 2.96866,-6.30854c1.62033,-1.58287 4.92713,-1.74872 5.35418,-1.57615c0.3301,0.13339 2.40733,0.34337 4.33076,1.19957c2.71066,1.20663 5.22338,3.03142 5.22338,3.03142l-0.94777,6.4313l-9.86586,-0.05412l0.33655,3.47764z" fill="#949494" stroke-linecap="butt"/><path d="M210.6433,180.16808l-6.17,-1.234l-1.57055,-1.57055l-1.57055,-4.71164l5.27254,1.68273l4.15073,2.35582z" fill="#000000" stroke-linecap="round"/><path d="M203.2393,178.1488h-0.78527" fill="none" stroke-linecap="round"/><path d="M202.0053,179.27063l1.12182,0.11218" fill="none" stroke-linecap="round"/><path d="M202.34184,180.50464l-0.67309,-0.11218" fill="none" stroke-linecap="round"/><path d="M209.29538,183.13746c0,0 -5.89971,-0.18701 -8.93547,0.07901c-0.74693,0.06546 -0.1003,0.93481 -0.56589,0.93996c-4.12514,0.04562 -4.55226,-0.9214 -4.93371,-1.38964c-0.94741,-1.16298 -1.98285,-2.71689 -1.93231,-2.9927c0.06498,-0.35466 0.88268,-1.18712 0.88268,-1.18712l1.8534,0.72501l2.58018,0.89745l2.69236,0.56091l4.71164,0.11218l3.81418,2.01927" fill="#373737" stroke-linecap="round"/><path d="M209.13768,184.2302l-0.44873,1.12182h-5.83345l-1.234,-0.22436l-0.44873,-1.12182l0.22436,-0.89745l0.56091,-0.67309l0.67309,0.22436l0.56091,0.67309l0.44873,0.56091z" fill="#000000" stroke-linecap="round"/><path d="M198.3033,184.65536l-0.11218,1.234" fill="none" stroke-linecap="round"/><path d="M196.39621,184.43099l4.03854,0.33655" fill="none" stroke-linecap="round"/><path d="M197.85456,174.22245l-0.56091,1.00964l0.22436,1.00964l-1.68273,-0.89745l0.11218,-2.13146l1.57055,-1.79491l0.67309,0.89745l0.11218,1.57055z" fill="#151515" stroke-linecap="round"/><path d="M198.19112,175.96219l-1.57055,0.22436l-0.78527,-1.57055l0.44873,-0.67309l1.12182,-1.00964l0.89745,-0.11218l0.56091,0.44873l0.56091,0.56091l0.22436,1.234z" fill="none" stroke-linecap="round"/></g><path d="M208.09474,175.46961c1.21313,0.35683 1.49748,1.06804 1.30367,1.92263c-0.19381,0.85459 -1.09172,1.37938 -2.00553,1.17213c-0.91381,-0.20725 -1.49748,-1.06804 -1.30367,-1.92263c0.19381,-0.85459 0.75594,-1.53968 2.00553,-1.17213z" fill="#54ff00" stroke="none" stroke-linecap="butt"/><path d="M203.5587,176.46289c-0.46941,0.05216 -0.52156,-0.41725 -0.52156,-0.41725l-0.01634,-0.65262c0.28612,-0.7137 0.54435,-1.26135 1.11655,-1.78339c0,0 0.353,-0.31377 0.66677,0.03922c0.31377,0.353 -0.03922,0.66677 -0.03922,0.66677c-0.47099,0.4039 -0.64035,0.86001 -0.86708,1.4282l0.07812,0.1975c0,0 0.05216,0.46941 -0.41725,0.52156z" fill="#54ff00" stroke="none" stroke-linecap="butt"/></g><g stroke-width="1"><path d="M261.54803,184.30023c0,0 3.33355,-4.00794 6.96628,-4.74784c3.98322,-0.81129 6.20755,-2.89453 6.20755,-2.89453l-2.24209,24.22027c0,0 -2.02666,-3.81751 -6.01103,-6.03959c-2.50939,-1.39949 -5.63705,-5.84352 -5.63705,-5.84352z" fill="#ffffff" stroke="#9e9e9e" stroke-linecap="butt"/><path d="M243.2516,177.3351l5.1769,5.79108l12.65725,1.39423l-0.42049,4.37037l-12.41185,-1.19418l-6.50716,5.28443z" fill="#ffffff" stroke="#9e9e9e" stroke-linecap="butt"/><path d="M254.30371,184.54985l9.52741,0.91666l-0.28593,2.97185l-9.52741,-0.91666z" fill="#ffffff" stroke="none" stroke-linecap="butt"/><path d="M253.48535,188.20263l-2.55315,-2.18579l2.78771,-0.91739l-1.62964,-1.64885" fill="none" stroke="#9e9e9e" stroke-linecap="round"/><path d="M263.80341,192.19786l2.69659,-1.42123l-2.54703,-4.43656l4.83212,-0.61377l-1.29701,-3.02513l3.65729,-3.21719" fill="none" stroke="#9e9e9e" stroke-linecap="round"/><path d="M243.80764,179.28619l2.12736,3.80848l-0.78744,2.33086l3.42273,-0.11401l-2.59157,4.37118" fill="none" stroke="#9e9e9e" stroke-linecap="round"/><path d="M259.109,183.75748l2.21358,2.33903l-3.30055,0.53572l5.32575,3.04638l-2.03542,0.16917l-0.31547,-1.15195" fill="none" stroke="#9e9e9e" stroke-linecap="round"/><path d="M270.91326,193.00859l-2.32269,-3.78846l2.91888,-0.02288l-1.63659,-2.87189l4.05285,-1.28393" fill="none" stroke="#9e9e9e" stroke-linecap="round"/><path d="M269.59582,197.48602l-2.68228,-3.83055l3.2605,-0.92638" fill="none" stroke="#9e9e9e" stroke-linecap="round"/></g><g fill="#ffffff" stroke="#b1b1b1" stroke-width="1" stroke-linecap="butt"><path d="M126.43707,255.19155c0,0 2.25535,-1.52654 3.82082,-1.74308c2.49627,-0.34531 9.71524,-0.12935 9.71524,-0.12935l-6.76803,0.60727l9.63932,1.26516l-9.63932,0.55668z"/><path d="M127.60904,255.64823c0,0 1.84112,-1.16506 3.11905,-1.33033c2.03779,-0.26354 7.9308,-0.09872 7.9308,-0.09872l-5.52493,0.46347l7.86883,0.96557l-7.86883,0.42485z"/><path d="M111.03426,254.4423c0,0 1.35581,-1.44322 2.29689,-1.64796c1.50064,-0.32647 5.84028,-0.12229 5.84028,-0.12229l-4.06859,0.57413l5.79464,1.19611l-5.79464,0.5263z"/><path d="M142.34217,254.99201c0,0 1.84112,-0.64846 3.11905,-0.74044c2.03779,-0.14668 7.9308,-0.05494 7.9308,-0.05494l-5.52493,0.25796l7.86883,0.53742l-7.86883,0.23647z"/><path d="M125.43259,255.61828l-7.86883,-0.5118l7.86883,-1.16318l-5.52492,-0.55832c0,0 5.89302,-0.19854 7.9308,0.11892c1.27794,0.19909 3.11905,1.60258 3.11905,1.60258z" data-paper-data="{&quot;index&quot;:null}"/><path d="M145.85805,255.22848l-7.86883,-0.4973l7.86883,-1.13024l-5.52492,-0.54251c0,0 5.89301,-0.19293 7.9308,0.11556c1.27792,0.19346 3.11905,1.55721 3.11905,1.55721z" data-paper-data="{&quot;index&quot;:null}"/><path d="M147.03,255.35841l-7.86883,-0.41035l7.86883,-0.93263l-5.52492,-0.44766c0,0 5.89301,-0.1592 7.9308,0.09535c1.27792,0.15963 3.11905,1.28495 3.11905,1.28495z" data-paper-data="{&quot;index&quot;:null}"/><path d="M108.18811,255.29344l-7.86883,-0.71468l7.86883,-1.62426l-5.52493,-0.77965c0,0 5.89301,-0.27727 7.9308,0.16605c1.27792,0.27802 3.11905,2.23785 3.11905,2.23785z" data-paper-data="{&quot;index&quot;:null}"/></g><g fill="#ffffff" stroke-width="0.5" stroke-linecap="butt"><path d="M321.03978,196.09058c0,0 -4.60213,-3.13416 -5.76037,-6.9207c-1.26998,-4.15186 -3.71237,-6.30361 -3.71237,-6.30361l25.97967,-0.09379c0,0 -3.85137,2.54518 -5.80626,7.00856c-1.23121,2.81107 -5.63605,6.59091 -5.63605,6.59091z" stroke="#9e9e9e"/><path d="M315.5062,216.25531l5.62737,-6.09631l0.18758,-13.59947h4.68947v13.3181l6.28389,6.37768z" stroke="#9e9e9e"/><path d="M322.04618,203.76701v-10.22305h3.18884v10.22305z" stroke="none"/></g><path d="M0,363.1006v-366.2012h480v366.2012z" fill="none" stroke="none" stroke-width="0" stroke-linecap="butt"/></g></g></svg>