<svg version="1.1" xmlns="http://www.w3.org/2000/svg" xmlns:xlink="http://www.w3.org/1999/xlink" width="480" height="366.2012" viewBox="0,0,480,366.2012"><g transform="translate(0,3.1006)"><g data-paper-data="{&quot;isPaintingLayer&quot;:true}" fill-rule="nonzero" stroke-linejoin="miter" stroke-miterlimit="10" stroke-dasharray="" stroke-dashoffset="0" style="mix-blend-mode: normal"><text transform="translate(53.69638,95.60763) scale(0.86836,0.86836)" font-size="40" xml:space="preserve" fill="#000000" fill-rule="nonzero" stroke="none" stroke-width="1" stroke-linecap="butt" stroke-linejoin="miter" stroke-miterlimit="10" stroke-dasharray="" stroke-dashoffset="0" font-family="Sans Serif" font-weight="normal" text-anchor="start" style="mix-blend-mode: normal"><tspan x="0" dy="0">The Construction Area</tspan></text><g><path d="M321.374,135.80378l-25.71982,0.64448l-0.1314,-5.24385l25.71982,-0.64448z" fill="#fdfbff" stroke="#908b93" stroke-width="2.5" stroke-linecap="butt"/><path d="M331.55027,162.74263l-10.98174,-23.26641l4.74364,-2.239l10.98174,23.26641z" fill="#fdfbff" stroke="#908b93" stroke-width="2.5" stroke-linecap="butt"/><g stroke="none" stroke-linecap="butt"><g><path d="M313.19465,246.89476c0,-5.28819 4.28692,-9.5751 9.57511,-9.5751c5.28819,0 9.57511,4.28692 9.57511,9.5751c0,5.28819 -4.28692,9.57511 -9.57511,9.57511c-5.28819,0 -9.57511,-4.28692 -9.57511,-9.57511z" fill="#000000" stroke-width="NaN"/><path d="M317.19121,246.72824c0,-3.08094 2.4976,-5.57854 5.57854,-5.57854c3.08094,0 5.57854,2.4976 5.57854,5.57854c0,3.08094 -2.4976,5.57854 -5.57854,5.57854c-3.08094,0 -5.57854,-2.4976 -5.57854,-5.57854z" fill="#817e85" stroke-width="0"/></g><g><path d="M285.21869,246.89476c0,-5.28819 4.28692,-9.5751 9.57511,-9.5751c5.28819,0 9.57511,4.28692 9.57511,9.5751c0,5.28819 -4.28692,9.57511 -9.57511,9.57511c-5.28819,0 -9.57511,-4.28692 -9.57511,-9.57511z" fill="#000000" stroke-width="NaN"/><path d="M289.21525,246.72824c0,-3.08094 2.4976,-5.57854 5.57854,-5.57854c3.08094,0 5.57854,2.4976 5.57854,5.57854c0,3.08094 -2.4976,5.57854 -5.57854,5.57854c-3.08094,0 -5.57854,-2.4976 -5.57854,-5.57854z" fill="#817e85" stroke-width="0"/></g></g><path d="M322.64421,220.82798l-5.19642,13.47571l-5.11606,-2.91462l4.25568,-10.74153z" data-paper-data="{&quot;index&quot;:null}" fill="#7f00ff" stroke="#6600cc" stroke-width="2" stroke-linecap="round"/><path d="M315.02221,220.87742l-3.76801,11.88416l-4.7933,-0.9775l3.41904,-13.3392z" data-paper-data="{&quot;index&quot;:null}" fill="#7f00ff" stroke="#6600cc" stroke-width="2" stroke-linecap="round"/><path d="M302.21192,246.63306l11.49013,-85.42659l32.97166,-0.99914l-3.99657,86.42573z" fill="#a68eb8" stroke="#775b8a" stroke-width="2.5" stroke-linecap="butt"/><path d="M296.72948,206.83347l3.07087,-8.61825l2.66383,0.94918l-3.07087,8.61825z" fill="#000571" stroke="#000000" stroke-width="2" stroke-linecap="butt"/><path d="M321.67026,221.67918c0,0 -3.74953,0.70492 -5.97549,0.70492c-2.81896,0 -9.58335,-0.70492 -9.58335,-0.70492c0,0 -1.12745,-16.16703 -1.12745,-21.28848c0,-3.01661 1.12745,-6.62622 1.12745,-6.62622l16.79904,0.8459c0,0 0.3112,3.89677 0.19989,6.32626c-0.22093,4.82195 -1.44009,20.74253 -1.44009,20.74253z" data-paper-data="{&quot;index&quot;:null}" fill="#7f00ff" stroke="#6600cc" stroke-width="2" stroke-linecap="butt"/><path d="M332.62712,203.54567c0,0 -0.50313,1.68025 -1.25999,1.68025c-0.50981,0 -1.48965,-1.14834 -2.65959,-1.31739c-0.45878,-0.06628 -1.05178,1.17132 -1.55214,1.12595c-0.37972,-0.03444 -0.84114,-1.33377 -1.1488,-1.04539c-0.48776,0.45721 -1.2224,1.56736 -1.97794,1.6033c-0.72106,0.0343 -1.4705,-1.0251 -1.65929,0.15254c-0.28034,1.74868 -1.81719,-2.19926 -1.81719,-2.19926v-27.01321c0,0 -7.99281,-3.1218 -12.4723,-5.52685c-1.92297,-1.03245 -3.48671,-2.22102 -3.01839,-2.49949c1.21187,-0.72059 9.28978,-3.3354 16.31712,-2.96142c6.22814,0.33145 11.5635,3.62052 11.5635,3.62052l-0.315,34.38045z" data-paper-data="{&quot;index&quot;:null}" fill="#000000" stroke="#000000" stroke-width="2" stroke-linecap="butt"/><path d="M327.13988,183.00847c0,6.89778 -4.17844,12.31287 -11.07622,12.31287c-6.89778,0 -15.1395,-5.94508 -15.1395,-12.84286c0,-5.53429 2.77567,-9.68571 7.94821,-11.4599c0.49149,-0.16859 2.2333,-0.30773 2.75028,-0.41506c0.82347,-0.17097 2.19007,-1.14457 3.0277,-1.14457c0.49713,0 0.81082,1.16596 1.29278,1.32482c0.84813,0.27954 1.84695,-0.33714 2.63438,-0.01941c1.28248,0.51749 2.47286,1.74477 3.53338,2.58946c0.31033,0.24718 2.19952,-1.26515 2.48666,-1.00338c2.53722,2.31299 2.54233,6.97397 2.54233,10.65804z" data-paper-data="{&quot;index&quot;:null}" fill="#ffd499" stroke="#dfba86" stroke-width="2" stroke-linecap="butt"/><path d="M312.75866,237.18919l1.26459,-4.73652l3.07234,0.82028l-1.26459,4.73652z" data-paper-data="{&quot;index&quot;:null}" fill="#ffd499" stroke="#dfba86" stroke-width="2" stroke-linecap="butt"/><path d="M306.82295,235.1421l1.02534,-3.84042l1.81353,0.48419l-1.02534,3.84042z" data-paper-data="{&quot;index&quot;:null}" fill="#ffd499" stroke="#dfba86" stroke-width="2" stroke-linecap="butt"/><path d="M296.87135,238.4997l1.82048,-4.96314c0,0 3.01554,-0.68103 4.68629,-0.23497c1.97686,0.5278 5.02451,2.82762 5.02451,2.82762l-1.35806,5.0866z" data-paper-data="{&quot;index&quot;:null}" fill="#ff00bf" stroke="#d5009f" stroke-width="2" stroke-linecap="butt"/><path d="M300.79406,206.55937c0,2.01236 -0.94914,3.6437 -2.11997,3.6437c-1.17083,0 -2.11997,-1.63134 -2.11997,-3.6437c0,-2.01236 0.94914,-3.6437 2.11997,-3.6437c1.17083,0 2.11997,1.63134 2.11997,3.6437z" data-paper-data="{&quot;index&quot;:null}" fill="#ffd499" stroke="#dfba86" stroke-width="2" stroke-linecap="butt"/><path d="M304.90728,241.31208l1.82048,-4.96315c0,0 3.01554,-0.68103 4.68629,-0.23497c1.97686,0.5278 5.02451,2.82762 5.02451,2.82762l-1.35806,5.08661z" data-paper-data="{&quot;index&quot;:null}" fill="#ff00bf" stroke="#d5009f" stroke-width="2" stroke-linecap="butt"/><path d="M314.69749,207.50151l3.07087,-8.61825l2.66382,0.94918l-3.07087,8.61825z" fill="#000571" stroke="#000000" stroke-width="2" stroke-linecap="butt"/><path d="M318.82185,208.52722c0,1.93918 -1.12711,3.5112 -2.51747,3.5112c-1.39036,0 -2.51746,-1.57201 -2.51746,-3.5112c0,-1.93918 1.12711,-3.5112 2.51746,-3.5112c1.39036,0 2.51747,1.57202 2.51747,3.5112z" data-paper-data="{&quot;index&quot;:null}" fill="#ffd499" stroke="#dfba86" stroke-width="2" stroke-linecap="butt"/><path d="M310.9544,232.89487v-12.98015h22.98025v12.98015z" fill="#3e007d" stroke="#1b0036" stroke-width="2.5" stroke-linecap="butt"/><path d="M289.88685,247.02348v-40.83389h25.89466l3.38177,25.01553l23.77669,-2.40291l-0.86485,17.67381l-20.80711,0.29808z" fill="#a68eb8" stroke="#775b8a" stroke-width="2.5" stroke-linecap="butt"/><path d="M310.51003,231.32889c0,5.03124 -2.01138,9.10986 -4.49253,9.10986c-2.36019,0 -0.67631,-1.19477 -0.85939,-5.88529c-0.00938,-0.2404 1.10897,-2.35532 1.10897,-2.60061c0,-0.97577 1.81692,-5.28511 1.34405,-6.16642c-1.96534,-3.66285 -15.19931,-1.07156 -13.19935,-1.07156c0.55593,0 0.62383,-4.06671 2.54629,-5.25513c3.03436,-1.87578 8.45571,-1.04736 10.70348,0.25029c2.68396,1.54946 2.84849,9.49425 2.84849,11.61885z" fill="#a68eb8" stroke="#775b8a" stroke-width="2.5" stroke-linecap="butt"/><path d="M307.6398,228.70825c0,3.72174 -2.6017,6.7388 -6.42682,6.7388c-3.82512,0 -6.92599,-3.01707 -6.92599,-6.7388c0,-3.72174 0.72981,-7.23797 4.55493,-7.23797c1.32723,0 2.68574,0.78623 4.33246,0.92412c2.08372,0.17449 4.40385,-0.16398 5.21513,1.36493c0.39536,0.74506 -0.74971,4.15262 -0.74971,4.94893z" fill="#a68eb8" stroke="#775b8a" stroke-width="2.5" stroke-linecap="butt"/><path d="M296.65804,231.32889c0,0 2.6593,-0.56373 4.13452,-0.42962c1.22242,0.11113 4.10179,1.17837 4.10179,1.17837" fill="none" stroke="#775b8a" stroke-width="2.5" stroke-linecap="round"/><path d="M302.5233,228.83304l0.12479,-2.49586l2.74544,-2.12148" fill="none" stroke="#775b8a" stroke-width="2.5" stroke-linecap="round"/><path d="M297.53159,223.34216l1.49751,2.24627c0,0 -0.16002,0.58484 -0.27274,0.9089c-0.18385,0.52858 -0.72561,1.96133 -0.72561,1.96133" fill="none" stroke="#775b8a" stroke-width="2.5" stroke-linecap="round"/><path d="M305.49977,191.50327c0,0 4.46881,-3.02421 6.26419,-3.49508c1.22542,-0.32138 3.46726,0.94286 3.46726,0.94286c0,0 2.11197,0.86627 2.89243,1.36803c0.88104,0.56642 2.12876,1.86009 2.12876,1.86009" data-paper-data="{&quot;index&quot;:null}" fill="none" stroke="#000000" stroke-width="2" stroke-linecap="round"/><path d="M320.53862,176.77599l-6.61823,4.10085l-6.35223,-5.31539" data-paper-data="{&quot;index&quot;:null}" fill="none" stroke="#000000" stroke-width="2" stroke-linecap="round"/><path d="M330.67928,229.3384v-68.44118l19.48326,-2.49785l-5.49528,70.93904z" fill="#a68eb8" stroke="#775b8a" stroke-width="2.5" stroke-linecap="butt"/><g stroke="none" stroke-linecap="butt"><path d="M327.6822,248.39347c0,-5.28819 4.28692,-9.5751 9.57511,-9.5751c5.28819,0 9.57511,4.28692 9.57511,9.5751c0,5.28819 -4.28692,9.57511 -9.57511,9.57511c-5.28819,0 -9.57511,-4.28692 -9.57511,-9.57511z" fill="#000000" stroke-width="NaN"/><path d="M331.67876,248.22695c0,-3.08094 2.4976,-5.57854 5.57854,-5.57854c3.08094,0 5.57854,2.4976 5.57854,5.57854c0,3.08094 -2.4976,5.57854 -5.57854,5.57854c-3.08094,0 -5.57854,-2.4976 -5.57854,-5.57854z" fill="#bfbfbf" stroke-width="0"/></g><g stroke="none" stroke-linecap="butt"><path d="M299.70624,248.39347c0,-5.28819 4.28692,-9.5751 9.57511,-9.5751c5.28819,0 9.57511,4.28692 9.57511,9.5751c0,5.28819 -4.28692,9.57511 -9.57511,9.57511c-5.28819,0 -9.57511,-4.28692 -9.57511,-9.57511z" fill="#000000" stroke-width="NaN"/><path d="M303.7028,248.22695c0,-3.08094 2.4976,-5.57854 5.57854,-5.57854c3.08094,0 5.57854,2.4976 5.57854,5.57854c0,3.08094 -2.4976,5.57854 -5.57854,5.57854c-3.08094,0 -5.57854,-2.4976 -5.57854,-5.57854z" fill="#bfbfbf" stroke-width="0"/></g><path d="M289.71449,206.85772c0,0 0.55136,-29.16106 7.14417,-36.37437c3.34639,-3.66135 8.80628,-7.56656 16.01082,-9.10704c8.84632,-1.89153 19.30852,-0.97866 19.30852,-0.97866" fill="none" stroke="#a8fff4" stroke-width="2.5" stroke-linecap="round"/><path d="M317.81534,135.47558c0,-2.55212 2.06891,-4.62103 4.62103,-4.62103c2.55212,0 4.62103,2.06891 4.62103,4.62103c0,2.55212 -2.06891,4.62103 -4.62103,4.62103c-2.55212,0 -4.62103,-2.06891 -4.62103,-4.62103z" fill="#fdfbff" stroke="#908b93" stroke-width="2.5" stroke-linecap="butt"/><path d="M277.84968,152.33609l10.99055,-16.73562l2.24807,3.74678l-6.49442,11.9897l6.49442,15.48669z" fill="#fdfbff" stroke="#908b93" stroke-width="2.5" stroke-linecap="butt"/><path d="M297.08316,166.32407l6.49442,-15.48669l-6.49442,-11.9897l2.24807,-3.74678l10.99055,16.73562z" data-paper-data="{&quot;index&quot;:null}" fill="#fdfbff" stroke="#908b93" stroke-width="2.5" stroke-linecap="butt"/><path d="M288.34067,136.97429c0,-3.37984 2.7399,-6.11974 6.11974,-6.11974c3.37984,0 6.11974,2.7399 6.11974,6.11974c0,3.37984 -2.7399,6.11974 -6.11974,6.11974c-3.37984,0 -6.11974,-2.7399 -6.11974,-6.11974z" fill="#fdfbff" stroke="#908b93" stroke-width="2.5" stroke-linecap="butt"/><path d="M277.5999,151.83651c0,-2.34519 1.90116,-4.24635 4.24635,-4.24635c2.34519,0 4.24635,1.90116 4.24635,4.24635c0,2.34519 -1.90116,4.24635 -4.24635,4.24635c-2.34519,0 -4.24635,-1.90116 -4.24635,-4.24635z" fill="#fdfbff" stroke="#908b93" stroke-width="2.5" stroke-linecap="butt"/><path d="M301.57929,150.58759c0,-2.34519 1.90116,-4.24635 4.24635,-4.24635c2.34519,0 4.24635,1.90116 4.24635,4.24635c0,2.34519 -1.90116,4.24635 -4.24635,4.24635c-2.34519,0 -4.24635,-1.90116 -4.24635,-4.24635z" fill="#fdfbff" stroke="#908b93" stroke-width="2.5" stroke-linecap="butt"/><path d="M309.5853,181.37315c1.68127,0 3.0442,1.5218 3.0442,3.39905c0,1.87724 -1.36293,3.39905 -3.0442,3.39905c-1.68127,0 -3.0442,-1.5218 -3.0442,-3.39905c0,-1.87724 1.36293,-3.39905 3.0442,-3.39905z" fill="#ffffff" stroke="none" stroke-width="0" stroke-linecap="butt"/><path d="M308.45475,184.43122v1.54232" fill="none" stroke="#000000" stroke-width="2" stroke-linecap="round"/><path d="M317.16473,180.93248c1.68127,0 3.0442,1.5218 3.0442,3.39905c0,1.87724 -1.36293,3.39905 -3.0442,3.39905c-1.68127,0 -3.0442,-1.5218 -3.0442,-3.39905c0,-1.87724 1.36293,-3.39905 3.0442,-3.39905z" fill="#ffffff" stroke="none" stroke-width="0" stroke-linecap="butt"/><path d="M315.16553,184.32963v1.32199" fill="none" stroke="#000000" stroke-width="2" stroke-linecap="round"/></g><path d="M123.45078,328.12148v-70.67624h237.19979v70.67625z" data-paper-data="{&quot;index&quot;:null}" fill="#c0b000" stroke="none" stroke-width="0" stroke-linecap="butt"/><path d="M123.44062,269.89317v-14.73758h237.63658v14.73758l-24.27776,17.92679l-23.93417,-19.87651l-17.98914,19.30126l-30.02679,-19.77073l-25.47348,13.23481l-31.38362,-11.36923l-31.21523,12.77569l-20.70858,-9.99386l-18.97541,12.78745z" data-paper-data="{&quot;index&quot;:null}" fill="#e1d900" stroke="none" stroke-width="0" stroke-linecap="butt"/><g><g data-paper-data="{&quot;index&quot;:null}" fill="#949494" stroke="#000000" stroke-width="2"><path d="M186.87982,186.51177c0,0 -2.01881,-7.03941 0.43824,-10.15606c0.88322,-1.12032 0.78269,-1.24589 2.21233,-3.13268c0.51495,-0.67961 1.10971,-1.36028 1.74493,-2.17191c1.70339,-2.17649 3.51925,-4.52714 3.51925,-4.52714c0,0 6.44181,2.67406 8.79277,3.22065c0.227,0.05278 11.18607,2.86133 11.41553,2.91313c5.61591,1.2678 3.80804,0.757 3.80804,0.757c0,0 3.00616,-1.08997 3.81703,-0.73066c1.55713,0.69 3.50611,-0.65066 3.6982,2.50483c0.09028,1.48313 -0.03846,1.61551 -0.29613,3.5612c-0.37614,2.84029 -1.23687,7.11071 -2.83204,9.70599c-2.14684,3.49283 -5.10684,4.92006 -5.10684,4.92006z" stroke-linecap="butt"/><path d="M199.1272,188.83634c0,0 5.86605,-3.57241 6.82051,-8.50858c0.3327,-2.28598 -1.09547,-7.44762 -1.09547,-7.44762l-1.50262,-3.09418l1.2171,2.63568c0,0 2.19845,0.25212 3.4032,0.3903c1.36408,0.15644 4.36282,0.50034 4.36282,0.50034l0.07781,-0.89685" stroke-linecap="round"/><path d="M217.92746,177.35784c0,0 1.56543,0.64615 2.7574,1.82598c1.45276,1.43796 2.55935,3.59028 2.2246,5.34548c-0.33203,1.74098 -1.33431,4.13801 -3.13953,5.33c-2.22756,1.47087 -5.36419,1.52136 -6.20531,1.22062c-2.28092,-0.81551 -3.22185,-5.51038 -3.13293,-6.56506c0.24491,-2.90501 2.33414,-6.15845 2.98401,-6.70758c1.2117,-1.02387 4.51176,-0.44944 4.51176,-0.44944" stroke-linecap="round"/><path d="M190.1771,178.09483c0.59617,-2.56421 2.56443,-3.63413 4.90372,-4.03048c0.72213,-0.12236 2.30547,-0.3059 3.05665,-0.13125c3.18455,0.7404 4.69532,3.69767 3.91511,7.05344c-0.78021,3.35578 -4.48161,5.88548 -7.66617,5.14508c-3.18456,-0.7404 -4.98952,-4.68103 -4.20932,-8.03679z" stroke-linecap="butt"/></g><g data-paper-data="{&quot;index&quot;:null}" stroke="#000000" stroke-width="2" stroke-linecap="round"><path d="M183.53578,161.18254c0,0 5.1698,1.00253 7.70075,2.8085c1.08857,0.77675 2.20951,1.99575 2.42566,2.7926c0.25096,0.92519 -0.51199,1.37463 -0.72272,1.3711c-1.42134,-0.02375 -3.96779,-1.19504 -4.93936,-1.88981c-1.70303,-1.21781 -4.58834,-5.11123 -4.58834,-5.11123" fill="#d8d8d8"/><path d="M192.14688,164.62235l-1.58878,2.89827" fill="none"/></g><path d="M206.92234,184.48161l6.89489,-4.38791c0,0 2.62137,-1.36175 3.52741,-0.8226c0.51438,0.30608 2.4054,1.17512 3.0836,2.05807c0.84926,1.10566 0.24835,2.62999 0.31926,3.26839c0.03096,0.27874 -1.64314,1.9128 -1.64314,1.9128c0,0 -1.65968,0.8014 -2.75833,1.3319c-1.63059,0.78736 -6.07604,2.93392 -6.07604,2.93392z" data-paper-data="{&quot;index&quot;:null}" fill="#949494" stroke="#000000" stroke-width="2.5" stroke-linecap="butt"/><g data-paper-data="{&quot;index&quot;:null}"><g><path d="M184.9743,181.13079l3.12595,0.59876l-0.50295,2.62579l-3.12595,-0.59876z" data-paper-data="{&quot;index&quot;:null}" fill="#000000" stroke="none" stroke-width="0" stroke-linecap="butt"/><path d="M181.62852,187.62756l-2.66971,-0.19122l-2.5313,0.16474l-1.9248,-1.43707l0.29,1.79959l-0.58011,1.31837l-0.19777,0.89649l-0.79105,1.1272l-1.33153,-1.66777l-1.70061,-5.0758l0.19777,-0.89649l0.63286,-1.88526l4.81871,-2.01043l5.34599,2.15566z" fill="#949494" stroke="#000000" stroke-width="2.5" stroke-linecap="round"/><path d="M181.61545,181.62235l2.16217,-1.11398l1.52931,0.77128l0.69212,1.77982l-1.2525,2.39943l-2.03035,2.15551l-1.08767,0.01316z" fill="#242424" stroke="#000000" stroke-width="2.5" stroke-linecap="round"/><path d="M184.91793,184.84586l-1.25907,0.6262l-2.23464,-1.17999" fill="none" stroke="#000000" stroke-width="2.5" stroke-linecap="round"/></g><g stroke="none" stroke-linecap="butt"><path d="M172.43275,181.49906l2.77733,-1.39339l5.79268,2.63615l0.11477,4.18814l-4.36951,0.22326l-2.7271,-1.81434z" fill="#8c6200" stroke-width="NaN"/><path d="M179.24927,180.90298l2.00804,2.08989l-0.01514,4.07088l-1.67853,-0.13335z" fill="#8c0081" stroke-width="NaN"/><path d="M171.94397,189.29949l-1.54682,-5.87137l2.5914,-1.65468l1.40712,3.6643l-0.07597,1.79484l0.31031,1.83208l-0.32453,0.65244l-0.95634,1.11749z" fill="#8c0081" stroke-width="0"/><g fill="#ffffff" stroke-width="0.5"><path d="M179.26487,184.38186c0.00021,0.00013 0.00042,0.00026 0.00062,0.00039c0.12503,0.07672 0.04831,0.20174 0.04831,0.20174c-0.38109,0.60687 -1.01915,0.55935 -1.36397,0.07406c0.06883,-0.01131 0.08437,-0.08732 0.08437,-0.08732c0.1054,-0.51563 0.22017,-1.02762 0.2951,-1.54747c0.22401,-0.11312 0.45106,-0.15617 0.5983,-0.05361c0.20741,0.14447 0.31624,0.4509 0.38488,0.67296c0.06601,0.29611 0.02519,0.49004 -0.04762,0.73926zM178.81506,183.58873c-0.01217,0.05952 0.02623,0.11765 0.08576,0.12981c0.05953,0.01217 0.11766,-0.02623 0.12982,-0.08576c0.01217,-0.05953 -0.02623,-0.11765 -0.08576,-0.12981c-0.05952,-0.01217 -0.11765,0.02623 -0.12981,0.08576zM178.65312,184.47265c-0.01217,0.05953 0.02623,0.11765 0.08576,0.12981c0.05953,0.01218 0.11766,-0.02623 0.12982,-0.08575c0.01217,-0.05953 -0.02623,-0.11766 -0.08576,-0.12982c-0.05952,-0.01217 -0.11765,0.02623 -0.12981,0.08576z"/><path d="M177.89035,185.23434c-0.04079,0.19959 -0.24038,0.1588 -0.24038,0.1588l0.04367,-0.01303c-0.10908,0.02804 -0.22337,0.027 -0.33719,0.00789l0.00162,0.0102l-0.00673,0.00106l-0.0062,0.06048l-0.25186,-0.02576c-0.00757,-0.00068 -0.01517,-0.00179 -0.02278,-0.00335c-0.11023,-0.02253 -0.18133,-0.13014 -0.1588,-0.24038c0.01225,-0.05998 0.04972,-0.10838 0.09908,-0.13641c-0.00174,-0.0032 -0.0026,-0.00502 -0.0026,-0.00502c-0.1354,-0.28844 -0.24555,-0.58298 -0.36254,-0.87523c-0.10251,0.1129 -0.20758,0.22411 -0.31606,0.33334c-0.29885,0.30093 -0.49508,0.73256 -0.91049,0.83634c0.02846,-0.00699 0.09931,-0.02436 0.12935,-0.03173l0.01245,0.0715l0.02762,-0.01228l0.08809,0.19797c0.01746,0.03798 0.02343,0.08167 0.01443,0.12578c-0.02254,0.11023 -0.13015,0.18133 -0.24038,0.15879c-0.01826,-0.00373 -0.03545,-0.00979 -0.05131,-0.01782l-0.18526,-0.08871l0.01569,-0.03278c-0.1663,-0.06151 -0.26388,-0.16447 -0.38386,-0.39372c-0.04936,-0.03354 -0.09856,-0.09515 -0.07633,-0.20395c0.04079,-0.19959 0.24039,-0.1588 0.24039,-0.1588l0.1683,0.11757c0.00962,0.0215 0.02049,0.04139 0.03206,0.06001c0.20497,-0.23097 0.50047,-0.54651 0.55138,-0.60348c0.23683,-0.26504 0.46989,-0.528 0.69962,-0.79293c-0.04277,-0.09341 -0.08795,-0.18614 -0.13664,-0.2779c-0.09412,-0.17739 -0.21022,-0.33784 -0.32108,-0.50231c-0.09741,0.09994 -0.22043,0.18996 -0.39797,0.27435l-0.20129,0.13298c-0.0435,0.02874 -0.09796,0.04088 -0.15307,0.02961c-0.11024,-0.02253 -0.18134,-0.13015 -0.1588,-0.24039c0.0051,-0.02493 0.01455,-0.04786 0.0274,-0.06816l0.20735,-0.3452l0.01388,0.00834c0.12716,-0.31648 0.2922,-0.5442 0.64964,-0.86166l0.083,-0.05728c0,0 0.16997,-0.11229 0.28227,0.05769c0.01093,0.01656 0.0192,0.03256 0.0252,0.04797c0.01562,0.00622 0.03182,0.01479 0.04855,0.02615c0.16854,0.11442 0.05413,0.28297 0.05413,0.28297c-0.09176,0.13401 -0.16095,0.25422 -0.22672,0.36344c0.13719,0.22406 0.30307,0.42702 0.42791,0.6614c0.02293,0.04303 0.04507,0.08634 0.06655,0.12986c0.20331,-0.23943 0.40411,-0.48181 0.60274,-0.73007c-0.11453,-0.14764 -0.18253,-0.30537 -0.11355,-0.43986c0.32026,-0.62446 0.93966,0.36622 1.03035,0.56956l0.02577,0.13835c0,0 0.02442,0.20225 -0.17783,0.22667c-0.01165,0.00141 -0.02272,0.00206 -0.03322,0.00204c-0.06883,0.4223 -0.16035,0.84034 -0.24693,1.2604c-0.01456,-0.03303 -0.02799,-0.06731 -0.04022,-0.10284c-0.0188,-0.05469 -0.18101,-0.5161 -0.17579,-0.57346c0.01549,-0.17026 0.20571,-0.40352 0.44463,-0.58486c-0.01331,-0.00107 -0.02563,-0.00328 -0.03703,-0.00642c-0.09934,0.03485 -0.19144,-0.03741 -0.19144,-0.03741c-0.04721,-0.03721 -0.11808,-0.09216 -0.19536,-0.15848c-0.2305,0.29437 -0.45959,0.58526 -0.69915,0.86803c0.14329,0.34765 0.26909,0.70131 0.4319,1.04239c0,0 0.00925,0.01955 0.01535,0.04893c0.10635,-0.0565 0.21922,-0.10173 0.33344,-0.1386c0,0 0.19428,-0.06128 0.25555,0.13301c0.04146,0.13148 -0.03412,0.20204 -0.08731,0.23391c0.0037,0.02391 0.00321,0.05125 -0.00318,0.08248z"/></g></g></g><path d="M197.91178,183.19454l-7.85541,4.76656l-3.55497,-4.81476l-0.12853,-0.8443l6.3197,-5.39664l3.42608,-1.32787l2.50853,1.34583l1.09532,2.65521l-0.30579,1.77428z" data-paper-data="{&quot;index&quot;:null}" fill="#949494" stroke="#000000" stroke-width="2.5" stroke-linecap="round"/><g data-paper-data="{&quot;index&quot;:null}"><g><path d="M206.93267,190.81934l2.49405,-1.97731l1.66094,2.095l-2.49405,1.97731z" fill="#000000" stroke="none" stroke-width="0" stroke-linecap="butt"/><path d="M197.16374,203.52287c0,0 -0.6697,0.11631 -0.7695,-0.43048c-0.26151,-1.43281 -0.85748,-8.48371 -0.85748,-8.48371l7.13067,-6.16884c0,0 1.57566,3.60943 2.34273,4.99365c0.29759,0.53702 -4.18307,4.78439 -4.11576,5.20379c0.06996,0.43593 -1.61095,-0.68498 -2.03602,-0.59794c-0.47993,0.09825 0.28584,1.38852 0.31747,1.67438c0.08914,0.80544 -0.00101,2.30569 -0.00101,2.30569l-2.01111,1.50345z" fill="#949494" stroke="#000000" stroke-width="2.5" stroke-linecap="butt"/><path d="M203.07557,187.49805l4.89146,2.53277l0.482,1.52377l-0.30144,1.35038l-1.16637,0.9495l-1.78554,0.06951z" fill="#242424" stroke="#000000" stroke-width="2.5" stroke-linecap="butt"/><path d="M204.2409,191.08363l0.39412,-1.06832l1.09683,-0.50565" fill="none" stroke="#000000" stroke-width="2.5" stroke-linecap="round"/><path d="M199.18361,198.04771l-3.14894,-0.67621" fill="none" stroke="#000000" stroke-width="2.5" stroke-linecap="round"/></g><g stroke="none" stroke-linecap="butt"><path d="M195.98559,195.34747l6.20429,-6.17084l2.95676,4.59397l-1.52194,0.90197l-3.09808,3.13873z" fill="#8c6200" stroke-width="NaN"/><path d="M200.73037,190.68236l1.57351,-1.39186l2.64277,4.53039l-1.6251,0.92571z" fill="#8c0081" stroke-width="NaN"/><path d="M195.84548,195.14888l5.68161,1.39344l-0.93281,1.31657l-2.26891,0.35799l0.32974,1.61884l-0.17232,1.85016l-0.4817,0.54676l-1.21203,0.83329z" fill="#8c0081" stroke-width="0"/><g fill="#ffffff" stroke-width="0.5"><path d="M201.98209,192.26705c0.00022,-0.00009 0.00045,-0.00019 0.00066,-0.0003c0.1343,-0.05899 0.1933,0.07531 0.1933,0.07531c0.28139,0.65903 -0.12135,1.15622 -0.71661,1.1629c0.02994,-0.063 -0.02367,-0.11909 -0.02367,-0.11909c-0.36359,-0.3805 -0.71882,-0.76666 -1.10325,-1.12454c0.03475,-0.24854 0.12878,-0.45964 0.29699,-0.52215c0.23694,-0.08807 0.55074,-0.00281 0.77231,0.06735c0.28093,0.11454 0.41699,0.25863 0.58026,0.46051zM201.22956,192.18805c0.04393,-0.04197 0.04552,-0.11161 0.00353,-0.15554c-0.04197,-0.04393 -0.11161,-0.04552 -0.15554,-0.00353c-0.04393,0.04197 -0.04552,0.11161 -0.00353,0.15554c0.04197,0.04393 0.11161,0.04552 0.15554,0.00353zM201.70797,192.82142c0.04197,0.04393 0.11161,0.04552 0.15554,0.00353c0.04393,-0.04197 0.04552,-0.11161 0.00353,-0.15554c-0.04197,-0.04393 -0.11161,-0.04552 -0.15554,-0.00353c-0.04393,0.04198 -0.04551,0.11162 -0.00354,0.15555z"/><path d="M201.89901,193.88231c0.14073,0.14729 -0.00654,0.28802 -0.00654,0.28802l0.01418,-0.0433c-0.03914,0.1056 -0.10514,0.19892 -0.18571,0.28154l0.00931,0.0045l-0.00297,0.00614l0.04617,0.03956l-0.16473,0.19225c-0.00487,0.00583 -0.01011,0.01145 -0.01574,0.01681c-0.08134,0.07772 -0.21029,0.0748 -0.28802,-0.00654c-0.04229,-0.04427 -0.0607,-0.10262 -0.05559,-0.15915c-0.00362,-0.0004 -0.00561,-0.00073 -0.00561,-0.00073c-0.31417,-0.05317 -0.61896,-0.13056 -0.92577,-0.20103c0.03433,0.14859 0.06581,0.29831 0.09372,0.44969c0.07691,0.41708 0.3197,0.82434 0.16818,1.22481c0.01049,-0.02736 0.03659,-0.09548 0.04766,-0.12436l0.06584,0.03052l0.00565,-0.0297l0.21288,0.04047c0.04117,0.0073 0.08047,0.0273 0.11157,0.05984c0.07773,0.08135 0.0748,0.21029 -0.00654,0.28802c-0.01348,0.01287 -0.02826,0.02354 -0.04389,0.03199l-0.1785,0.10165l-0.01799,-0.03157c-0.14533,0.10158 -0.28555,0.12305 -0.5423,0.09098c-0.0557,0.02143 -0.13436,0.02674 -0.21109,-0.05355c-0.14073,-0.14729 0.00654,-0.28802 0.00654,-0.28802l0.19253,-0.07127c0.02314,0.00435 0.04569,0.00676 0.06759,0.00786c-0.07294,-0.30006 -0.16377,-0.72273 -0.18155,-0.79703c-0.08277,-0.34567 -0.16599,-0.68705 -0.25271,-1.02681c-0.10113,-0.0181 -0.20307,-0.03384 -0.30622,-0.04613c-0.1994,-0.02378 -0.39741,-0.01984 -0.59574,-0.0225c0.02658,0.13701 0.03042,0.28939 -0.00144,0.48337l-0.00548,0.24119c-0.00119,0.05213 -0.02225,0.10379 -0.06293,0.14266c-0.08135,0.07773 -0.21029,0.0748 -0.28802,-0.00654c-0.01758,-0.0184 -0.03104,-0.03924 -0.04039,-0.06136l-0.16544,-0.36713l0.01476,-0.00665c-0.18756,-0.28488 -0.28058,-0.55027 -0.33767,-1.02492l0.00025,-0.10085c0,0 0.00463,-0.20366 0.20829,-0.19903c0.01983,0.00045 0.0377,0.00279 0.05377,0.00665c0.01401,-0.00928 0.03029,-0.0177 0.04915,-0.02498c0.19008,-0.07326 0.26335,0.11682 0.26335,0.11682c0.05781,0.15179 0.11712,0.27714 0.16939,0.39345c0.26229,0.015 0.52361,-0.00561 0.78735,0.02541c0.04843,0.00569 0.09662,0.01219 0.14463,0.01934c-0.08084,-0.30352 -0.16552,-0.60667 -0.25629,-0.91138c-0.18659,0.00994 -0.35494,-0.02408 -0.42613,-0.15743c-0.33052,-0.6191 0.83653,-0.56331 1.05529,-0.52191l0.12836,0.05769c0,0 0.18009,0.09522 0.08487,0.27531c-0.00549,0.01038 -0.01125,0.01984 -0.01726,0.02846c0.30775,0.29727 0.59905,0.61076 0.89484,0.92134c-0.03544,-0.00685 -0.07126,-0.01536 -0.10742,-0.02557c-0.05565,-0.01572 -0.52722,-0.14545 -0.57138,-0.18243c-0.13106,-0.10977 -0.21429,-0.39902 -0.22709,-0.6987c-0.00847,0.01032 -0.01731,0.01919 -0.02638,0.02676c-0.02799,0.10149 -0.13987,0.13598 -0.13987,0.13598c-0.05748,0.01758 -0.14302,0.04449 -0.24157,0.07018c0.11048,0.35718 0.2189,0.71122 0.31468,1.06924c0.36732,0.08042 0.7296,0.17867 1.10265,0.23931c0,0 0.02133,0.00354 0.04894,0.01527c0.0142,-0.11959 0.04139,-0.23811 0.07619,-0.35298c0,0 0.0604,-0.19456 0.25495,-0.13415c0.13166,0.04088 0.14656,0.14319 0.14243,0.20506c0.02175,0.01058 0.04393,0.02657 0.06596,0.04963z"/></g></g></g><g data-paper-data="{&quot;index&quot;:null}"><g stroke="#000000" stroke-width="2.5"><path d="M221.58877,173.70664c0,0 0.11715,-0.81569 -0.14392,-1.393c-0.23351,-0.51636 -1.34908,-1.90843 -1.34908,-1.90843c0,0 -2.7598,-1.52758 -2.77144,-3.33282c-0.00132,-0.20492 0.3146,-4.70332 2.61537,-7.46764c1.64449,-1.97581 5.35803,-2.54872 5.86024,-2.40373c0.38819,0.11208 2.75756,0.10684 5.02869,0.84902c3.20067,1.04594 6.24999,2.81279 6.24999,2.81279l-0.31978,7.37052l-11.1434,1.0896l0.78553,3.88647z" fill="#949494" stroke-linecap="butt"/><path d="M237.05246,164.81356l-7.10893,-0.67337l-1.95609,-1.58974l-2.32245,-5.13556l6.14818,1.28459l4.96032,2.17525z" fill="#000000" stroke-linecap="round"/><path d="M228.45892,163.39766l-0.88645,0.09159" fill="none" stroke-linecap="round"/><path d="M227.19677,164.80796l1.27945,-0.0042" fill="none" stroke-linecap="round"/><path d="M227.72061,166.16171l-0.77291,-0.04813" fill="none" stroke-linecap="round"/><path d="M235.87718,168.32276c0,0 -6.6817,0.477 -10.0776,1.13138c-0.83554,0.16101 -0.00419,1.06696 -0.52917,1.12708c-4.65135,0.53264 -5.24629,-0.50916 -5.7315,-0.99325c-1.20513,-1.20233 -2.55522,-2.83569 -2.53035,-3.15294c0.03199,-0.40794 0.85796,-1.44303 0.85796,-1.44303l2.17677,0.60226l3.01731,0.71215l3.1047,0.31916l5.33182,-0.4229l4.54116,1.83459" fill="#373737" stroke-linecap="round"/><path d="M235.82661,169.57469l-0.3757,1.3187l-6.5851,0.68038l-1.41917,-0.10934l-0.63738,-1.21403l0.1486,-1.03926l0.55468,-0.82525l0.78599,0.17476l0.71169,0.6944l0.57196,0.58084z" fill="#000000" stroke-linecap="round"/><path d="M223.6631,172.72438l-0.01729,-1.40608" fill="none" stroke-linecap="round"/><path d="M226.06498,171.19634l-4.59817,0.09112" fill="none" stroke-linecap="round"/><path d="M221.92241,159.59344l-0.51542,1.20515l0.37103,1.11356l-2.00422,-0.81683l-0.12196,-2.41918l1.56357,-2.20937l0.86449,0.93459l0.30981,1.75983z" fill="#151515" stroke-linecap="round"/><path d="M222.50525,161.5181l-1.74674,0.43645l-1.06963,-1.68132l0.42804,-0.81216l1.14861,-1.27057l1.00001,-0.23131l0.68552,0.44112l0.69861,0.56776l0.3972,1.36684z" fill="none" stroke-linecap="round"/></g><path d="M233.62751,159.80694c1.41105,0.26131 1.81501,1.03099 1.6959,2.01831c-0.11911,0.98732 -1.07151,1.68444 -2.12723,1.55708c-1.05573,-0.12737 -1.81501,-1.03099 -1.6959,-2.01831c0.11911,-0.98732 0.67377,-1.82623 2.12723,-1.55708z" fill="#54ff00" stroke="none" stroke-width="0" stroke-linecap="butt"/><path d="M228.62285,161.45727c-0.52381,0.11362 -0.63743,-0.41018 -0.63743,-0.41018l-0.09456,-0.73481c0.23974,-0.83904 0.46738,-1.48736 1.05241,-2.14341c0,0 0.36189,-0.39537 0.75726,-0.03348c0.39537,0.36189 0.03348,0.75726 0.03348,0.75726c-0.48457,0.51088 -0.62256,1.04551 -0.81222,1.71336l0.11122,0.21384c0,0 0.11362,0.52381 -0.41018,0.63743z" fill="#54ff00" stroke="none" stroke-width="0.5" stroke-linecap="butt"/></g></g><path d="M0,363.1006v-366.2012h480v366.2012z" fill="none" stroke="none" stroke-width="0" stroke-linecap="butt"/></g></g></svg>