<svg version="1.1" xmlns="http://www.w3.org/2000/svg" xmlns:xlink="http://www.w3.org/1999/xlink" width="105.41191" height="187.34539" viewBox="0,0,105.41191,187.34539"><g transform="translate(-186.31536,-89.5896)"><g data-paper-data="{&quot;isPaintingLayer&quot;:true}" fill-rule="nonzero" stroke-linejoin="miter" stroke-miterlimit="10" stroke-dasharray="" stroke-dashoffset="0" style="mix-blend-mode: normal"><path d="M214.56536,274.77456l-10.75,-18.5h23.25z" fill="#9e9e9e" stroke="#000000" stroke-width="1.5" stroke-linecap="butt"/><path d="M241.81536,274.52456l-10.75,-18.5h23.25z" fill="#9e9e9e" stroke="#000000" stroke-width="1.5" stroke-linecap="butt"/><path d="M266.81536,275.02456l-10.75,-18.5h23.25z" fill="#9e9e9e" stroke="#000000" stroke-width="1.5" stroke-linecap="butt"/><path d="M277.81536,275.52456l-10.75,-18.5h23.25z" fill="#9e9e9e" stroke="#000000" stroke-width="1.5" stroke-linecap="butt"/><path d="M187.31536,256.02456v-16h102.75v16z" fill="#989898" stroke="#000000" stroke-width="2" stroke-linecap="butt"/><path d="M187.31536,246.27456v-16h102.75v16z" fill="#d4d4d4" stroke="#000000" stroke-width="2" stroke-linecap="butt"/><path d="M202.56536,274.27456l-10.75,-18.5h23.25z" fill="#9e9e9e" stroke="#000000" stroke-width="1.5" stroke-linecap="butt"/><path d="M227.06536,275.02456l-10.75,-18.5h23.25z" fill="#9e9e9e" stroke="#000000" stroke-width="1.5" stroke-linecap="butt"/><path d="M255.31536,274.77456l-10.75,-18.5h23.25z" fill="#9e9e9e" stroke="#000000" stroke-width="1.5" stroke-linecap="butt"/><path d="M201.31536,246.52456v-87.75h12.75v87.75z" fill="#9e9e9e" stroke="#000000" stroke-width="1.5" stroke-linecap="butt"/><path d="M223.16794,126.97454c0,-17.25902 13.9912,-31.25022 31.25022,-31.25022c17.25902,0 31.25022,13.9912 31.25022,31.25022c0,17.25902 -13.9912,31.25022 -31.25022,31.25022c-17.25902,0 -31.25022,-13.9912 -31.25022,-31.25022z" fill="#ffd499" stroke="#dfba86" stroke-width="2" stroke-linecap="butt"/><path d="M227.17024,111.5224l-15.41499,-9.52062l27.12877,-4.43964l6.0347,-6.26609l6.64185,-0.6338l1.69416,5.44769l8.71026,-2.70925l4.51861,-0.97334l6.8999,0.16046l-1.60463,3.69064l18.50553,14.90342l-6.95221,-6.07797l-6.8999,2.08602l-10.59054,-1.44416l-8.1836,3.85111l-11.39285,-1.2837l-9.30684,4.01157z" fill="#000000" stroke="#121212" stroke-width="2" stroke-linecap="round"/><path d="M235.50274,204.9117c0,0 -1.79596,-8.80309 -1.44472,-16.36419c0.43195,-9.29845 3.84472,-35.30018 3.84472,-35.30018h30.4181c0,0 2.19452,20.98577 2.39342,29.54874c0.20108,8.65745 -1.19341,22.11563 -1.19341,22.11563z" fill="#090051" stroke="#040022" stroke-width="2" stroke-linecap="butt"/><path d="M207.60536,192.2261c0,-4.6083 3.73576,-8.34406 8.34406,-8.34406c4.6083,0 8.34406,3.73576 8.34406,8.34406c0,4.6083 -3.73576,8.34406 -8.34406,8.34406c-4.6083,0 -8.34406,-3.73576 -8.34406,-8.34406z" fill="#ffd499" stroke="#dfba86" stroke-width="2" stroke-linecap="butt"/><path d="M207.12397,158.52893c0,-2.74725 2.22709,-4.97434 4.97434,-4.97434c2.74725,0 4.97434,2.22709 4.97434,4.97434c0,2.74725 -2.22709,4.97434 -4.97434,4.97434c-2.74725,0 -4.97434,-2.22709 -4.97434,-4.97434z" fill="#ffd499" stroke="#dfba86" stroke-width="2" stroke-linecap="butt"/><path d="M234.84036,221.97456v-16.8h10.8v16.8z" fill="#090051" stroke="#040022" stroke-width="2" stroke-linecap="butt"/><path d="M252.04036,221.97456v-17.4h17.4v17.4z" fill="#090051" stroke="#040022" stroke-width="2" stroke-linecap="butt"/><path d="M223.64036,229.57456v-8.8h23.4v8.8z" fill="#8a7e00" stroke="#040022" stroke-width="2" stroke-linecap="butt"/><path d="M250.04036,228.97456v-7h19.4v7z" fill="#8a7e00" stroke="#040022" stroke-width="2" stroke-linecap="butt"/><path d="M233.81536,130.39956c0,-0.41422 0.33578,-0.75 0.75,-0.75c0.41422,0 0.75,0.33578 0.75,0.75c0,0.41422 -0.33578,0.75 -0.75,0.75c-0.41422,0 -0.75,-0.33578 -0.75,-0.75z" fill="#000000" stroke="none" stroke-width="0.5" stroke-linecap="butt"/><path d="M260.31536,130.14956c0,-0.41422 0.33578,-0.75 0.75,-0.75c0.41422,0 0.75,0.33578 0.75,0.75c0,0.41422 -0.33578,0.75 -0.75,0.75c-0.41422,0 -0.75,-0.33578 -0.75,-0.75z" fill="#000000" stroke="none" stroke-width="0.5" stroke-linecap="butt"/><path d="M244.85385,142.13673c-0.62919,-1.95668 -0.77322,-4.50731 -0.78728,-6.61925c-1.47016,0.30082 -2.96979,1.2943 -4.25955,2.36552c-0.03886,1.25105 -0.18363,2.62481 0.21985,3.77939l0.02505,0.47972c1.59321,-0.00235 3.18641,-0.00315 4.77951,0.00209zM246.27687,141.66239l0.03849,0.48717c0,0 0,0.00143 -0.00006,0.00416c1.70444,0.0482 3.19647,0.48989 4.6718,0.73683c0.29662,0.04964 -0.45574,-0.39254 -0.68361,-0.58881c-0.74743,-1.49545 -2.11098,-5.41156 -3.42017,-6.28912c-0.42258,-0.28326 -0.8643,-0.45469 -1.31739,-0.53423c0.00724,1.95333 0.09103,4.41009 0.71094,6.184zM238.60385,142.13673c-0.29629,-0.92144 -0.33818,-1.89746 -0.32595,-2.87685c-0.43016,0.41378 -0.80927,0.79708 -1.12154,1.10935c-0.45331,0.45331 -1.44002,1.09609 -1.75096,1.78002c1.06573,-0.00075 2.13152,-0.00277 3.19731,-0.00469zM233.39454,142.31415c0.14748,-0.29497 0.35982,-0.39539 0.55146,-0.41531c0.33653,-1.0872 1.24522,-1.6858 2.14969,-2.59027c0.62264,-0.62264 1.38775,-1.37023 2.24819,-2.1064c0.05417,-0.21385 0.21125,-0.5279 0.66669,-0.55123c2.5968,-2.07019 5.88004,-3.76421 8.73683,-1.86444c1.61778,1.07583 3.04659,5.14503 3.92147,6.89416c0.15247,0.72858 0.92432,1.60602 0.4574,2.18573c-0.20363,0.25283 -4.4335,-0.19514 -5.03489,-0.2031c-4.17418,-0.05525 -8.35138,-0.01373 -12.52603,-0.01373l-0.83541,-0.32918c0,0 -0.67082,-0.33541 -0.33541,-1.00623z" fill="#000000" stroke="none" stroke-width="0.5" stroke-linecap="butt"/></g></g></svg>