<svg version="1.1" xmlns="http://www.w3.org/2000/svg" xmlns:xlink="http://www.w3.org/1999/xlink" width="483.14234" height="299.04101" viewBox="0,0,483.14234,299.04101"><g transform="translate(1.94503,-66.12253)"><g data-paper-data="{&quot;isPaintingLayer&quot;:true}" fill-rule="nonzero" stroke="none" stroke-width="0" stroke-linecap="butt" stroke-linejoin="miter" stroke-miterlimit="10" stroke-dasharray="" stroke-dashoffset="0" style="mix-blend-mode: normal"><path d="M0.05911,365.16353v-86.60682h480.27437v86.60683z" data-paper-data="{&quot;index&quot;:null}" fill="#4c4c4c"/><path d="M-1.94503,294.7895v-22.66697h483.14234v22.66697l-49.35946,27.57209l-48.66092,-30.57084l-36.57398,29.68608l-61.0479,-30.40814l-51.79052,20.35565l-63.80648,-17.48632l-63.46412,19.6495l-42.10291,-15.37095l-38.57918,19.66759z" data-paper-data="{&quot;index&quot;:null}" fill="#787878"/><path d="M123.16726,362.1635v-289.6068h266.55063v289.60683z" data-paper-data="{&quot;index&quot;:null}" fill="#4c4c4c"/><path d="M122.05497,88.7895v-22.66697h268.14234v22.66697l-27.39433,27.57209l-27.00664,-30.57084l-20.29843,29.68608l-33.88138,-30.40814l-28.74356,20.35565l-35.41238,-17.48632l-35.22237,19.6495l-23.36697,-15.37095l-21.41131,19.66759z" data-paper-data="{&quot;index&quot;:null}" fill="#787878"/><path d="M29.82055,150.31976v-18h71v18z" fill="#787878"/></g></g></svg>