<svg version="1.1" xmlns="http://www.w3.org/2000/svg" xmlns:xlink="http://www.w3.org/1999/xlink" width="111.79262" height="111.96864" viewBox="0,0,111.79262,111.96864"><g transform="translate(-180.38457,-109.80874)"><g data-paper-data="{&quot;isPaintingLayer&quot;:true}" fill-rule="nonzero" stroke-linejoin="miter" stroke-miterlimit="10" stroke-dasharray="" stroke-dashoffset="0" style="mix-blend-mode: normal"><path d="M257.85249,111.76793c0,0 1.5202,4.90667 1.75621,10.74659c0.26201,6.48305 -0.11341,25.57475 -0.11341,25.57475l-25.09439,-6.78046l1.14233,-12.27374c0,0 6.84953,-11.02667 10.84871,-13.87101c3.11615,-2.21629 11.46053,-3.39611 11.46053,-3.39611z" data-paper-data="{&quot;index&quot;:null}" fill="#373737" stroke="#000000" stroke-width="2.5" stroke-linecap="butt"/><path d="M211.22908,185.54896l0.46042,-4.80658l39.34792,23.88894l-4.93324,-0.42961c0,0 -16.06864,-2.99269 -22.12024,-6.22935c-5.52551,-2.95528 -12.75485,-12.4234 -12.75485,-12.4234z" fill="#373737" stroke="#000000" stroke-width="2.5" stroke-linecap="butt"/><path d="M257.58069,218.97771l-22.1717,-13.07274c0,0 -1.29674,-5.30506 2.40511,-6.34671c7.74519,-2.17942 38.92578,-7.99436 38.92578,-7.99436l7.01679,10.42808c0,0 -1.17815,13.76032 -5.24492,16.91234c-4.65583,3.60858 -20.93107,0.0734 -20.93107,0.0734z" fill="#373737" stroke="#000000" stroke-width="2.5" stroke-linecap="butt"/><path d="M183.21887,158.36964c0,0 4.66634,-7.01756 8.01067,-8.87168c4.29203,-2.37954 17.19519,-3.79801 17.19519,-3.79801l11.56438,4.26791l-4.71657,25.56281c0,0 -17.38329,-7.90287 -23.11807,-10.9378c-5.16589,-2.73386 -8.9356,-6.22323 -8.9356,-6.22323z" fill="#373737" stroke="#000000" stroke-width="2.5" stroke-linecap="butt"/><path d="M210.49095,182.16834l3.75379,-30.67591c0,0 8.28564,-6.29537 16.19511,-8.84073c7.6135,-2.45012 14.70565,-1.18299 22.45476,0.25947c7.82423,1.45645 14.1933,8.40822 18.05542,10.87354c12.56606,8.02134 19.67179,36.66993 19.67179,36.66993c0,0 -17.43107,2.01606 -22.46926,4.01462c-7.36379,2.92108 -17.44857,11.82006 -17.44857,11.82006c0,0 -11.71582,-9.30187 -15.69587,-10.14255c0,0 -8.42817,-2.5632 -11.69078,-4.42337c-4.50309,-2.56744 -12.82639,-9.55505 -12.82639,-9.55505z" fill="#949494" stroke="#000000" stroke-width="2.5" stroke-linecap="butt"/><path d="M245.25971,192.5777c0,0 -13.42407,-1.43519 -21.49426,-8.24205c-4.75063,-4.00695 -5.17296,-13.22354 -6.54939,-16.11496c-1.9952,-4.19128 1.54625,-13.36099 7.49765,-18.80364c5.9514,-5.44266 11.64609,-6.90962 19.86617,-6.22104c8.22008,0.68858 19.3215,5.2405 25.49587,10.02092c7.0363,5.44776 14.47498,20.92596 14.47498,20.92596l-14.18189,7.51102l0.71835,5.35131c0,0 -5.49048,1.65633 -7.72013,2.70245c-2.24782,1.05465 -3.24131,-3.68361 -3.24131,-3.68361z" fill="#000000" stroke="#000000" stroke-width="2.5" stroke-linecap="butt"/><g fill="#373737" stroke="#000000" stroke-width="2.5" stroke-linecap="butt"><path d="M235.79688,208.63867l-8.03976,-9.40402l4.28769,-4.3703c0,0 5.86212,2.48153 7.55052,4.12398c1.31374,1.27799 1.7409,4.91459 1.7409,4.91459z"/><path d="M228.88784,206.29519c-2.25053,-2.63243 -2.83492,-5.82655 -1.30527,-7.13429c1.52965,-1.30774 4.59409,-0.23388 6.84462,2.39855c2.25053,2.63243 2.83492,5.82655 1.30527,7.13429c-1.52965,1.30774 -4.59409,0.23388 -6.84462,-2.39855z"/></g><path d="M274.03187,191.77805c0.84062,-1.06879 1.90941,-0.22817 1.90941,-0.22817l0.0263,0.04423c5.17088,2.83744 12.75408,9.92907 9.08693,16.67148c-2.35522,4.3303 -9.81553,7.18362 -14.2758,7.69703c-2.61679,-0.25172 -6.53972,-0.18753 -8.66545,-1.9487c-0.74119,-0.61407 -0.97501,-2.6941 -1.82322,-2.23915c-2.04003,1.0942 0.51716,3.58921 -3.46719,3.92163c-0.44921,0.03747 -2.92199,-2.17788 -3.54191,-2.58643c-2.85645,-1.88246 -5.39411,-6.99698 -7.70904,-9.67122c0,0 -0.0564,-0.06602 0.9775,-0.9492c1.0339,-0.88317 2.84857,1.99498 2.84857,1.99498c2.07901,2.47544 2.73889,4.61051 5.34538,6.33258c0.82883,0.5476 1.07833,1.9699 2.05338,2.15987c0.75419,0.14693 0.40206,-1.52392 0.86648,-2.13605c0.47551,-0.62674 0.95793,-1.39604 1.71012,-1.62656c3.18052,-0.97469 3.03048,1.37671 4.58031,2.79734c1.33783,1.2263 5.09522,1.05282 6.79896,1.23149c3.02586,-0.37736 4.48511,-1.41707 7.12455,-2.89113c1.63417,-0.91264 3.77592,-1.56077 4.7798,-3.37008c2.88121,-5.19284 -4.28337,-10.97112 -7.99633,-13.00302l-0.40059,-0.29154c0,0 -1.06879,-0.84062 -0.22817,-1.90941z" fill="#000000" stroke="none" stroke-width="0.5" stroke-linecap="butt"/><path d="M231.87986,166.1967c-0.16382,-1.37096 0.81475,-2.61515 2.18571,-2.77897c1.37096,-0.16382 2.61515,0.81475 2.77897,2.18571c0.16382,1.37096 -0.81475,2.61515 -2.18571,2.77897c-1.37096,0.16382 -2.61515,-0.81475 -2.77897,-2.18571z" fill="#00ff0d" stroke="none" stroke-width="0.5" stroke-linecap="butt"/><path d="M253.21496,154.27562c-0.16382,-1.37096 0.81475,-2.61515 2.18571,-2.77897c1.37096,-0.16382 2.61515,0.81475 2.77897,2.18571c0.16382,1.37096 -0.81475,2.61515 -2.18571,2.77897c-1.37096,0.16382 -2.61515,-0.81475 -2.77897,-2.18571z" fill="#00ff0d" stroke="none" stroke-width="0.5" stroke-linecap="butt"/><path d="M218.27352,165.62299c0,0 -17.7823,-19.39445 -4.77029,-27.41499c12.65602,-7.8011 20.9022,17.15556 20.9022,17.15556" fill="none" stroke="#00ff0d" stroke-width="4" stroke-linecap="round"/><path d="M244.39774,149.06454c0,0 -16.96878,-20.07225 -3.70393,-26.78612c13.63796,-6.90271 20.88111,18.39337 20.88111,18.39337" data-paper-data="{&quot;index&quot;:null}" fill="none" stroke="#00ff0d" stroke-width="4" stroke-linecap="round"/></g></g></svg>