<svg version="1.1" xmlns="http://www.w3.org/2000/svg" xmlns:xlink="http://www.w3.org/1999/xlink" width="128.74735" height="101.22933" viewBox="0,0,128.74735,101.22933"><g transform="translate(-180.94623,-132.09981)"><g data-paper-data="{&quot;isPaintingLayer&quot;:true}" fill-rule="nonzero" stroke-linejoin="miter" stroke-miterlimit="10" stroke-dasharray="" stroke-dashoffset="0" style="mix-blend-mode: normal"><g data-paper-data="{&quot;index&quot;:null}"><g><path d="M266.5333,208.74343l-3.15488,-5.03075l4.22583,-2.6501l3.15488,5.03075z" fill="#000000" stroke="none" stroke-width="0" stroke-linecap="butt"/><path d="M288.08588,229.46601c0,0 0.07825,1.26575 -0.9562,1.3386c-2.71067,0.1909 -15.90816,-0.15097 -15.90816,-0.15097l-9.9761,-14.4891c0,0 7.01669,-2.18114 9.74102,-3.31952c1.05692,-0.44164 8.0137,8.73896 8.80524,8.70022c0.82275,-0.04027 -1.60082,2.84679 -1.52667,3.65287c0.08371,0.91014 2.63353,-0.2451 3.17013,-0.2451c1.5119,0 4.27547,0.47505 4.27547,0.47505l2.37526,4.03795z" fill="#949494" stroke="#000000" stroke-width="2.5" stroke-linecap="butt"/><path d="M259.58273,215.21443l5.70063,-8.55094l2.9246,-0.58112l2.44228,0.83612l1.52138,2.35779l-0.23753,3.32537z" fill="#242424" stroke="#000000" stroke-width="2.5" stroke-linecap="butt"/><path d="M266.47098,213.78928l-1.90021,-0.9501l-0.71258,-2.13774" fill="none" stroke="#000000" stroke-width="2.5" stroke-linecap="round"/><path d="M276.44708,230.29735l1.90021,-5.70063" fill="none" stroke="#000000" stroke-width="2.5" stroke-linecap="round"/></g><g stroke="none" stroke-linecap="butt"><path d="M272.68364,229.97299l-10.16992,-12.77164l9.12586,-4.54021l1.36026,3.00741l5.18466,6.38923z" fill="#8c6200" stroke-width="NaN"/><path d="M265.00641,220.21685l-2.25813,-3.20357l8.94351,-3.971l1.38313,3.20357z" fill="#8c0081" stroke-width="NaN"/><path d="M272.28661,230.19205l3.75,-10.25l2.25,2l0.19822,4.28095l3.06964,-0.27925l3.39558,0.69924l0.91506,1.00548l1.2965,2.41859z" fill="#8c0081" stroke-width="0"/><g fill="#ffffff" stroke-width="0.5"><path d="M268.20193,218.2209c-0.00014,-0.00043 -0.00027,-0.00086 -0.00041,-0.0013c-0.08184,-0.26115 0.17932,-0.34299 0.17932,-0.34299c1.27986,-0.38655 2.11918,0.46231 2.00941,1.56755c-0.11067,-0.06846 -0.22571,0.01944 -0.22571,0.01944c-0.78022,0.59614 -1.56921,1.17565 -2.31177,1.81508c-0.45375,-0.11543 -0.82591,-0.33315 -0.90732,-0.65789c-0.11469,-0.45744 0.10781,-1.02187 0.28341,-1.41836c0.27006,-0.49744 0.56518,-0.7202 0.97306,-0.98153zM267.90101,219.60017c-0.06882,-0.09008 -0.19763,-0.10731 -0.28771,-0.03848c-0.09008,0.06882 -0.10731,0.19763 -0.03848,0.28771c0.06882,0.09008 0.19763,0.10731 0.28771,0.03848c0.09008,-0.06882 0.10731,-0.19763 0.03848,-0.28771zM269.17371,218.84299c0.09008,-0.06882 0.10731,-0.19763 0.03848,-0.28771c-0.06882,-0.09008 -0.19763,-0.10731 -0.28771,-0.03848c-0.09007,0.06882 -0.10731,0.19763 -0.03848,0.28771c0.06883,0.09008 0.19764,0.10731 0.28772,0.03848z"/><path d="M271.18023,218.70645c0.302,-0.23075 0.53276,0.07125 0.53276,0.07125l-0.07739,-0.03519c0.18779,0.09425 0.3473,0.23579 0.48397,0.40217l0.01024,-0.01635l0.01077,0.00675l0.08284,-0.07749l0.3227,0.34493c0.00981,0.01023 0.01915,0.02111 0.02795,0.03264c0.12744,0.16679 0.09555,0.40532 -0.07125,0.53276c-0.09076,0.06935 -0.20277,0.0915 -0.30655,0.07043c-0.00148,0.00663 -0.0025,0.01025 -0.0025,0.01025c-0.16307,0.57169 -0.36914,1.12101 -0.56277,1.67548c0.28258,-0.03317 0.5667,-0.06082 0.85314,-0.08151c0.78922,-0.05701 1.59427,-0.42367 2.3058,-0.06052c-0.04858,-0.02506 -0.16955,-0.08745 -0.22083,-0.11389l0.07011,-0.11583l-0.05392,-0.01657l0.11873,-0.38644c0.02199,-0.07484 0.06713,-0.14361 0.13386,-0.1946c0.1668,-0.12744 0.40532,-0.09555 0.53276,0.07125c0.02111,0.02763 0.03786,0.05723 0.05033,0.08796l0.15187,0.35187l-0.06224,0.02687c0.15855,0.29034 0.16959,0.55478 0.05741,1.02431c0.02832,0.10768 0.02201,0.25464 -0.14263,0.38044c-0.30201,0.23075 -0.53276,-0.07125 -0.53276,-0.07125l-0.09265,-0.37166c0.01282,-0.04202 0.02191,-0.08333 0.02845,-0.12372c-0.57141,0.07368 -1.37384,0.15536 -1.51527,0.1731c-0.658,0.08255 -1.30812,0.1668 -1.95597,0.25789c-0.05432,0.18382 -0.10442,0.36964 -0.1484,0.55838c-0.08503,0.3649 -0.11836,0.73289 -0.16399,1.10012c0.25952,-0.02119 0.54289,0.00298 0.89606,0.10187l0.44614,0.05966c0.09641,0.01289 0.1879,0.06257 0.25162,0.14596c0.12744,0.1668 0.09555,0.40532 -0.07125,0.53276c-0.03773,0.02883 -0.07913,0.04951 -0.12208,0.06231l-0.71476,0.23145l-0.00931,-0.02875c-0.56678,0.28934 -1.07802,0.40737 -1.96991,0.41584l-0.18697,-0.02115c0,0 -0.37673,-0.05039 -0.32634,-0.42711c0.00491,-0.03669 0.01291,-0.06933 0.02336,-0.09836c-0.01433,-0.02788 -0.02662,-0.0598 -0.03623,-0.09629c-0.09684,-0.36752 0.27068,-0.46437 0.27068,-0.46437c0.29334,-0.07604 0.53798,-0.16032 0.76438,-0.23337c0.08163,-0.48331 0.09705,-0.97213 0.20871,-1.45484c0.0205,-0.08863 0.04242,-0.17667 0.06555,-0.26423c-0.57944,0.08761 -1.15898,0.18245 -1.74265,0.28822c-0.01985,0.34805 -0.11751,0.65326 -0.37939,0.75791c-1.21588,0.48585 -0.87293,-1.66685 -0.75127,-2.06402l0.13331,-0.22619c0,0 0.21354,-0.31442 0.52795,-0.10088c0.01812,0.01231 0.03447,0.02495 0.04923,0.03784c0.61442,-0.50967 1.25552,-0.98553 1.89217,-1.47031c-0.01998,0.0643 -0.04311,0.12901 -0.06947,0.19395c-0.04057,0.09997 -0.37793,0.94783 -0.45557,1.02212c-0.23046,0.22051 -0.78393,0.31548 -1.34227,0.27773c0.01741,0.01782 0.03203,0.03603 0.04421,0.05441c0.18246,0.07274 0.22345,0.28727 0.22345,0.28727c0.02081,0.11021 0.05315,0.27435 0.08057,0.46236c0.68502,-0.13157 1.36381,-0.25996 2.04737,-0.36411c0.22453,-0.66466 0.48106,-1.31631 0.67007,-1.99564c0,0 0.01095,-0.03883 0.03837,-0.08763c-0.21885,-0.05087 -0.43306,-0.12561 -0.63892,-0.21373c0,0 -0.34839,-0.15193 -0.19645,-0.50032c0.10282,-0.23577 0.29561,-0.24239 0.40951,-0.22204c0.02409,-0.03816 0.0583,-0.07602 0.10556,-0.11212z"/></g></g></g><path d="M257.78299,206.33781l-8.45099,-12.69182c0,0 -2.64129,-4.83713 -1.67057,-6.54801c0.55108,-0.97129 2.09912,-4.53219 3.71994,-5.83134c2.02963,-1.62681 4.89618,-0.56477 6.08426,-0.72167c0.51875,-0.06851 3.63141,2.99115 3.63141,2.99115c0,0 1.55893,3.0649 2.59089,5.09375c1.53161,3.01118 5.70723,11.22053 5.70723,11.22053z" data-paper-data="{&quot;index&quot;:null}" fill="#949494" stroke="#000000" stroke-width="2.5" stroke-linecap="butt"/><g data-paper-data="{&quot;index&quot;:null}" fill="#949494" stroke="#000000" stroke-width="2"><path d="M220.15946,232.16578c0,0 -11.98909,-6.55279 -12.90271,-13.90068c-0.32841,-2.64131 -0.62687,-2.67259 -1.25582,-7.04418c-0.22654,-1.57463 -0.34981,-3.25656 -0.59382,-5.16393c-0.65436,-5.11481 -1.39237,-10.60727 -1.39237,-10.60727c0,0 11.99667,-5.04162 15.80516,-7.4446c0.36773,-0.23201 18.46703,-11.09183 18.83668,-11.32838c9.04737,-5.78986 5.99863,-4.06064 5.99863,-4.06064c0,0 2.49598,-5.4187 4.03622,-6.02355c2.95774,-1.16148 3.73463,-5.50605 8.17399,-1.62268c2.08657,1.82524 2.09339,2.16969 4.33748,5.0633c3.27586,4.22405 7.81407,10.9667 9.16612,16.48709c1.81966,7.42959 -0.16826,13.22934 -0.16826,13.22934z" stroke-linecap="butt"/><path d="M239.30602,218.96163c0,0 2.95228,-12.46948 -2.34646,-20.20962c-2.59725,-3.43944 -11.3199,-8.31343 -11.3199,-8.31343l-6.07671,-2.06382l5.09381,1.84142c0,0 3.21771,-2.58676 4.98104,-4.00432c1.99651,-1.60502 6.38557,-5.13344 6.38557,-5.13344l-1.08812,-1.27943" stroke-linecap="round"/><path d="M248.7292,178.9596c0,0 2.91045,-1.23 6.03932,-1.2645c3.81345,-0.04206 8.12088,1.31212 10.0111,4.05818c1.8749,2.72381 3.74139,7.19745 2.95576,11.15629c-0.96943,4.88501 -5.01595,9.11365 -6.51812,9.83544c-4.0735,1.95735 -11.53775,-2.95107 -12.82074,-4.45222c-3.53386,-4.13476 -5.11137,-11.17396 -4.98782,-12.75651c0.23038,-2.95073 5.32051,-6.57668 5.32051,-6.57668" stroke-linecap="round"/><path d="M213.3141,216.75181c-2.62095,-4.15396 -1.4595,-8.16905 1.0824,-11.79316c0.78467,-1.11876 2.61756,-3.46062 3.83446,-4.22841c5.1589,-3.25501 11.0646,-1.38156 14.49463,4.05473c3.43003,5.43628 1.93283,13.66575 -3.22608,16.92076c-5.15892,3.25503 -12.75538,0.48236 -16.18539,-4.95392z" stroke-linecap="butt"/></g><g data-paper-data="{&quot;index&quot;:null}" stroke="#000000" stroke-width="2" stroke-linecap="round"><path d="M182.16251,201.45564c0,0 8.79023,-4.38911 14.58764,-4.59139c2.49349,-0.08701 5.53726,0.44375 6.76238,1.37754c1.42244,1.08419 0.80381,2.61608 0.48793,2.85025c-2.13058,1.57948 -7.22994,2.73872 -9.45711,2.81416c-3.90392,0.13225 -12.59712,-2.35237 -12.59712,-2.35237" fill="#d8d8d8"/><path d="M198.81463,196.76445l0.94101,6.09432" fill="none"/></g><path d="M271.31038,197.85186l-14.58295,-4.45411c0,0 -5.10976,-2.0651 -5.44416,-4.00355c-0.18985,-1.10048 -1.25107,-4.83548 -0.82171,-6.86784c0.53767,-2.54496 3.42759,-3.54163 4.24672,-4.41637c0.35765,-0.38194 4.70468,0.00989 4.70468,0.00989c0,0 3.149,1.38119 5.23352,2.29548c3.09381,1.35698 11.52843,5.05648 11.52843,5.05648z" data-paper-data="{&quot;index&quot;:null}" fill="#949494" stroke="#000000" stroke-width="2.5" stroke-linecap="butt"/><g data-paper-data="{&quot;index&quot;:null}"><g><path d="M243.59165,217.16097l-4.00431,-4.38489l3.68331,-3.36361l4.00431,4.38489z" data-paper-data="{&quot;index&quot;:null}" fill="#000000" stroke="none" stroke-width="0" stroke-linecap="butt"/><path d="M255.84612,211.18465l3.7773,3.26636l3.96778,2.57971l1.27289,4.29706l1.57559,-3.01386l2.33902,-1.3231l1.2965,-1.11932l2.44091,-0.80184l0.12848,3.97959l-3.12457,9.48606l-1.2965,1.11932l-3.05077,2.11163l-9.44766,-2.37443l-5.58475,-9.19069z" fill="#949494" stroke="#000000" stroke-width="2.5" stroke-linecap="round"/><path d="M249.16134,220.17605l-4.47575,-0.74865l-1.42499,-2.86029l0.95243,-3.43323l4.55106,-2.18842l5.44147,-0.95541l1.64057,1.19462z" fill="#242424" stroke="#000000" stroke-width="2.5" stroke-linecap="round"/><path d="M247.82346,211.67049l2.5812,0.46956l2.02303,4.25866" fill="none" stroke="#000000" stroke-width="2.5" stroke-linecap="round"/></g><g stroke="none" stroke-linecap="butt"><path d="M262.75031,230.61206l-5.70728,-1.01778l-5.71605,-10.40763l4.50416,-6.3887l6.78094,4.54445l2.051,5.75671z" fill="#8c6200" stroke-width="NaN"/><path d="M251.89528,223.89301l-0.6685,-5.36585l4.56742,-6.06838l2.36024,2.07326z" fill="#8c0081" stroke-width="NaN"/><path d="M272.18948,219.4974l-4.24265,10.50361l-5.72102,-0.41962l1.98747,-7.04845l2.11735,-2.59819l1.5815,-3.0851l1.2135,-0.61297l2.67715,-0.60279z" fill="#8c0081" stroke-width="0"/><g fill="#ffffff" stroke-width="0.5"><path d="M255.75584,218.67526c-0.00016,-0.00042 -0.00033,-0.00084 -0.0005,-0.00127c-0.10123,-0.25426 0.15302,-0.3555 0.15302,-0.3555c1.24717,-0.48169 2.14795,0.30167 2.12159,1.41202c-0.11551,-0.05995 -0.22361,0.03634 -0.22361,0.03634c-0.7332,0.65312 -1.47637,1.29032 -2.16876,1.98377c-0.46115,-0.08099 -0.84862,-0.27012 -0.95422,-0.58782c-0.14875,-0.44753 0.03068,-1.02707 0.17597,-1.43565c0.23189,-0.51633 0.50942,-0.76064 0.89651,-1.05192zM255.54275,220.36303c0.08464,-0.0754 0.09214,-0.20514 0.01674,-0.28978c-0.0754,-0.08465 -0.20515,-0.09213 -0.2898,-0.01674c-0.08465,0.0754 -0.09214,0.20514 -0.01674,0.28978c0.0754,0.08464 0.20514,0.09214 0.28978,0.01674zM256.77167,219.22251c0.08465,-0.0754 0.09212,-0.20516 0.01672,-0.2898c-0.0754,-0.08465 -0.20514,-0.09215 -0.28979,-0.01675c-0.08465,0.0754 -0.09213,0.20515 -0.01674,0.2898c0.0754,0.08464 0.20514,0.09214 0.28978,0.01674z"/><path d="M258.76223,218.93549c0.28381,-0.25282 0.53661,0.03099 0.53661,0.03099l-0.07981,-0.02927c0.19435,0.07987 0.36405,0.20901 0.51283,0.36464l0.00898,-0.01706l0.01125,0.00592l0.07677,-0.0835l0.34772,0.31969c0.01055,0.00946 0.02068,0.01961 0.03032,0.03045c0.13963,0.15674 0.12577,0.39699 -0.03099,0.53661c-0.08528,0.07598 -0.19532,0.10649 -0.30038,0.09328c-0.00097,0.00672 -0.00171,0.01042 -0.00171,0.01042c-0.11962,0.58233 -0.28379,1.14559 -0.4352,1.71305c0.27927,-0.05434 0.56053,-0.10326 0.84459,-0.14543c0.78271,-0.1162 1.55791,-0.54234 2.29473,-0.23371c-0.05034,-0.02133 -0.17565,-0.07444 -0.22877,-0.09697l0.0612,-0.12077l-0.05501,-0.01246l0.08934,-0.39427c0.01629,-0.07628 0.05615,-0.14825 0.11885,-0.20412c0.15675,-0.13962 0.397,-0.12575 0.53661,0.03101c0.02313,0.02596 0.04205,0.05422 0.05681,0.08392l0.17791,0.33946l-0.06005,0.03147c0.17993,0.27761 0.21083,0.54045 0.13427,1.0171c0.03635,0.10524 0.0411,0.25227 -0.1136,0.39008c-0.28381,0.25282 -0.53662,-0.03098 -0.53662,-0.03098l-0.12033,-0.36364c0.00963,-0.04287 0.01557,-0.08474 0.01907,-0.12551c-0.56425,0.11643 -1.35826,0.25821 -1.49796,0.28654c-0.64993,0.13179 -1.29188,0.26469 -1.93105,0.40423c-0.04035,0.18738 -0.07634,0.37643 -0.106,0.56796c-0.05735,0.37026 -0.06293,0.73972 -0.08081,1.10934c0.25719,-0.04065 0.54158,-0.03785 0.90119,0.0342l0.44936,0.02594c0.0971,0.0056 0.19206,0.04826 0.26188,0.12662c0.13963,0.15675 0.12575,0.397 -0.03098,0.53662c-0.03546,0.03158 -0.07518,0.05531 -0.11705,0.0713l-0.69534,0.28454l-0.01145,-0.02797c-0.54342,0.33112 -1.04433,0.48728 -1.93307,0.56276l-0.18803,-0.00703c0,0 -0.37944,-0.02192 -0.35753,-0.40136c0.00214,-0.03695 0.00766,-0.07012 0.0159,-0.09984c-0.01639,-0.02674 -0.03104,-0.05763 -0.04336,-0.0933c-0.1242,-0.3592 0.235,-0.48341 0.235,-0.48341c0.28678,-0.09788 0.52439,-0.20032 0.74466,-0.29018c0.04506,-0.48809 0.0237,-0.97668 0.09873,-1.46642c0.01376,-0.08992 0.02901,-0.17937 0.04551,-0.26842c-0.57121,0.13094 -1.14197,0.26907 -1.71605,0.41843c0.00638,0.34856 -0.06807,0.66026 -0.32134,0.78429c-1.17591,0.57591 -0.99579,-1.59648 -0.90433,-2.00169l0.11592,-0.23558c0,0 0.1893,-0.3296 0.51888,-0.14029c0.01899,0.0109 0.03626,0.02228 0.05195,0.03403c0.57436,-0.55443 1.17787,-1.07715 1.77627,-1.60842c-0.01511,0.06562 -0.03329,0.13187 -0.0547,0.19861c-0.03294,0.10273 -0.30559,0.97357 -0.37743,1.05348c-0.21322,0.23721 -0.75799,0.37353 -1.31758,0.37787c0.0187,0.01646 0.03465,0.0335 0.04818,0.05094c0.18741,0.05881 0.24441,0.26965 0.24441,0.26965c0.02904,0.10833 0.07361,0.26958 0.1151,0.45499c0.6732,-0.1827 1.34041,-0.36176 2.0142,-0.51702c0.17391,-0.67966 0.38072,-1.34875 0.51812,-2.04037c0,0 0.00801,-0.03956 0.03167,-0.09026c-0.22205,-0.03427 -0.44127,-0.09267 -0.65318,-0.16507c0,0 -0.35883,-0.12531 -0.23351,-0.48413c0.08481,-0.24282 0.27656,-0.26393 0.39166,-0.25219c0.02116,-0.03987 0.05243,-0.08019 0.09683,-0.11975z"/></g></g></g><path d="M222.2686,201.01313l17.12038,-2.65995l2.93586,10.88935l-0.35642,1.55625l-14.85144,4.84916l-6.94857,-0.14261l-3.48772,-4.12525l-0.09585,-5.38757l1.763,-2.85929z" data-paper-data="{&quot;index&quot;:null}" fill="#949494" stroke="#000000" stroke-width="2.5" stroke-linecap="round"/><g data-paper-data="{&quot;index&quot;:null}"><g><path d="M281.96599,189.83133l-5.65571,1.80959l-1.52006,-4.7508l5.65571,-1.80959z" fill="#000000" stroke="none" stroke-width="0" stroke-linecap="butt"/><path d="M307.38374,174.08722c0,0 1.24565,0.2379 1.05984,1.25813c-0.48689,2.67341 -4.08904,15.3744 -4.08904,15.3744l-16.50957,6.07377c0,0 -0.37403,-7.33835 -0.80167,-10.25982c-0.16591,-1.1334 10.45247,-5.59775 10.61111,-6.37419c0.1649,-0.80706 2.36121,2.25644 3.16052,2.38439c0.90249,0.14448 0.41526,-2.61211 0.54825,-3.13197c0.37472,-1.46473 1.51989,-4.02433 1.51989,-4.02433l4.50066,-1.30036z" fill="#949494" stroke="#000000" stroke-width="2.5" stroke-linecap="butt"/><path d="M286.51241,198.16885l-6.87126,-7.64209l0.16186,-2.97738l1.41534,-2.15885l2.66129,-0.88954l3.16275,1.0543z" fill="#242424" stroke="#000000" stroke-width="2.5" stroke-linecap="butt"/><path d="M286.83896,191.1423l-1.39142,1.60544l-2.24765,0.16052" fill="none" stroke="#000000" stroke-width="2.5" stroke-linecap="round"/><path d="M300.2527,182.31513l5.05181,3.2538" fill="none" stroke="#000000" stroke-width="2.5" stroke-linecap="round"/></g><g stroke="none" stroke-linecap="butt"><path d="M304.05751,189.13456l-14.89373,6.68721l-2.13674,-9.9664l3.25071,-0.57244l7.47488,-3.43935z" fill="#8c6200" stroke-width="NaN"/><path d="M292.70299,194.15423l-3.66329,1.39368l-1.63049,-9.64866l3.44642,-0.54598z" fill="#8c0081" stroke-width="NaN"/><path d="M304.17133,189.57349l-9.00077,-6.17342l2.49525,-1.68411l4.19651,0.86898l0.49026,-3.04308l1.51901,-3.11633l1.2009,-0.6373l2.66446,-0.65661z" fill="#8c0081" stroke-width="0"/><g fill="#ffffff" stroke-width="0.5"><path d="M291.56132,190.56372c-0.00045,0.00003 -0.0009,0.00005 -0.00136,0.00008c-0.27329,0.01456 -0.28784,-0.25873 -0.28784,-0.25873c-0.05728,-1.33573 0.97312,-1.93848 2.01667,-1.5582c-0.09375,0.09025 -0.03711,0.22349 -0.03711,0.22349c0.38417,0.90363 0.75005,1.81163 1.18548,2.6895c-0.22429,0.41098 -0.52745,0.71757 -0.86224,0.71596c-0.47159,-0.00226 -0.96327,-0.35771 -1.30386,-0.6261c-0.41499,-0.38492 -0.55765,-0.72604 -0.70974,-1.18597zM292.82297,191.1971c-0.10433,0.04435 -0.15294,0.16487 -0.10859,0.2692c0.04435,0.10433 0.16487,0.15294 0.2692,0.10859c0.10433,-0.04435 0.15294,-0.16487 0.10859,-0.2692c-0.04435,-0.10433 -0.16487,-0.15294 -0.2692,-0.10859zM292.40485,189.77644c-0.04435,-0.10433 -0.16487,-0.15294 -0.2692,-0.10859c-0.10433,0.04435 -0.15294,0.16487 -0.10859,0.2692c0.04435,0.10432 0.16487,0.15294 0.2692,0.10859c0.10433,-0.04436 0.15295,-0.16488 0.10859,-0.26921z"/><path d="M292.76988,187.79869c-0.1487,-0.34977 0.20107,-0.49848 0.20107,-0.49848l-0.05327,0.06625c0.13785,-0.15857 0.31451,-0.27802 0.50957,-0.36919l-0.0133,-0.01397l0.00921,-0.00876l-0.05454,-0.09946l0.41415,-0.22714c0.01234,-0.00697 0.0252,-0.01332 0.03855,-0.01899c0.19317,-0.08213 0.41636,0.00789 0.49848,0.20107c0.04469,0.10512 0.03839,0.21912 -0.00774,0.31444c0.00606,0.00308 0.00931,0.00496 0.00931,0.00496c0.51344,0.29967 0.99454,0.63546 1.48372,0.96047c0.0379,-0.28198 0.08153,-0.56409 0.13248,-0.84672c0.14037,-0.77873 -0.01532,-1.64953 0.51285,-2.24886c-0.03632,0.04085 -0.12674,0.14259 -0.16507,0.18571l-0.09484,-0.09663l-0.02942,0.04813l-0.34496,-0.2108c-0.06705,-0.03985 -0.12249,-0.10063 -0.15535,-0.17791c-0.08212,-0.19318 0.00789,-0.41636 0.20107,-0.49848c0.032,-0.0136 0.06483,-0.02249 0.09769,-0.02696l0.37853,-0.05992l0.01061,0.06696c0.32058,-0.08164 0.5795,-0.0268 1.00658,0.19825c0.11134,-0.00075 0.25215,0.04179 0.33322,0.23247c0.1487,0.34978 -0.20107,0.49848 -0.20107,0.49848l-0.38303,-0.00236c-0.03753,-0.02283 -0.0753,-0.04188 -0.11281,-0.05823c-0.07024,0.57184 -0.18999,1.36948 -0.20785,1.51089c-0.08311,0.65793 -0.16262,1.30865 -0.23494,1.95886c0.16462,0.09818 0.33223,0.19278 0.50418,0.28216c0.33244,0.17282 0.68069,0.29631 1.02515,0.43153c0.04379,-0.25667 0.13744,-0.52521 0.32078,-0.84285l0.16837,-0.41743c0.03638,-0.09021 0.10719,-0.16653 0.20377,-0.20759c0.19318,-0.08212 0.41636,0.00789 0.49848,0.20107c0.01858,0.0437 0.02835,0.08893 0.03011,0.13371l0.04708,0.74982l-0.03016,0.00189c0.13984,0.62081 0.12748,1.14535 -0.08537,2.01151l-0.06683,0.17589c0,0 -0.14219,0.35249 -0.49467,0.2103c-0.03433,-0.01385 -0.06397,-0.02969 -0.0895,-0.04701c-0.03056,0.00697 -0.06453,0.01097 -0.10227,0.01123c-0.38005,0.00273 -0.38279,-0.37733 -0.38279,-0.37733c-0.00096,-0.30303 -0.02198,-0.56093 -0.03664,-0.79837c-0.448,-0.19887 -0.91775,-0.33496 -1.35772,-0.56277c-0.08078,-0.04183 -0.16064,-0.08488 -0.23974,-0.12899c-0.05874,0.58307 -0.11049,1.16804 -0.15268,1.75971c0.33227,0.10549 0.60375,0.27575 0.64023,0.5554c0.16934,1.29836 -1.8312,0.43257 -2.18582,0.21627l-0.18609,-0.18521c0,0 -0.25168,-0.28481 0.03312,-0.53648c0.01642,-0.0145 0.03271,-0.02721 0.04886,-0.03832c-0.34149,-0.72157 -0.6436,-1.46061 -0.95547,-2.19754c0.05734,0.03529 0.1143,0.07374 0.17068,0.11537c0.0868,0.06408 0.82459,0.60105 0.87732,0.69468c0.15651,0.27792 0.11134,0.83766 -0.06361,1.36922c0.02158,-0.01245 0.04284,-0.0221 0.06367,-0.02935c0.11569,-0.15874 0.33369,-0.14528 0.33369,-0.14528c0.11193,0.00715 0.27896,0.0165 0.4679,0.03654c0.04231,-0.69626 0.08617,-1.38569 0.15468,-2.07373c-0.58827,-0.38226 -1.15601,-0.79229 -1.7673,-1.14378c0,0 -0.0349,-0.02023 -0.07539,-0.05889c-0.10352,0.19941 -0.22902,0.38842 -0.36542,0.56601c0,0 -0.23354,0.29986 -0.5334,0.06632c-0.20293,-0.15805 -0.16156,-0.34646 -0.11362,-0.45176c-0.031,-0.0328 -0.0592,-0.07532 -0.08246,-0.13005z"/></g></g></g><g stroke="#000000" stroke-width="2.5"><path d="M251.64783,166.10737c0,0 0.3952,-1.48582 0.03753,-2.61252c-0.31992,-1.00775 -2.08293,-3.83073 -2.08293,-3.83073c0,0 -4.78002,-3.43314 -4.40735,-6.78062c0.0423,-0.37999 1.61006,-8.64607 6.47684,-13.26561c3.47855,-3.30185 10.48449,-3.5524 11.38334,-3.17406c0.6948,0.29245 5.08614,0.80017 9.13223,2.67134c5.70208,2.637 10.96631,6.57672 10.96631,6.57672l-2.20213,13.58697l-20.88551,-0.41463l0.60674,7.37279z" fill="#949494" stroke-linecap="butt"/><path d="M282.24253,153.00647l-13.02506,-2.80016l-3.27726,-3.37279l-3.18174,-10.02283l11.1114,3.72287l8.71592,5.11377z" fill="#000000" stroke-linecap="round"/><path d="M266.62882,148.50625l-1.66251,-0.02388" fill="none" stroke-linecap="round"/><path d="M263.98219,150.84378l2.3716,0.27162" fill="none" stroke-linecap="round"/><path d="M264.65716,153.46652l-1.4216,-0.25798" fill="none" stroke-linecap="round"/><path d="M279.29852,159.252c0,0 -12.48466,-0.57535 -18.91981,-0.10446c-1.58332,0.11586 -0.24078,1.97606 -1.22663,1.97279c-8.73479,-0.02886 -9.60963,-2.08914 -10.40296,-3.09206c-1.9704,-2.49097 -4.11529,-5.81226 -3.99991,-6.39465c0.14836,-0.74889 1.90484,-2.48642 1.90484,-2.48642l3.90181,1.5913l5.43524,1.97848l5.68298,1.26939l9.97166,0.3808l8.01365,4.39103" fill="#373737" stroke-linecap="round"/><path d="M278.93142,161.56065l-0.98412,2.36137l-12.35009,-0.17741l-2.6057,-0.51253l-0.91589,-2.38866l0.50229,-1.89319l1.20798,-1.40795l1.41819,0.49547l1.16704,1.44207l0.93294,1.20115z" fill="#000000" stroke-linecap="round"/><path d="M255.98087,162.13127l-0.27503,2.60911" fill="none" stroke-linecap="round"/><path d="M260.48998,162.43359l-8.53982,-0.83533" fill="none" stroke-linecap="round"/><path d="M255.34813,140.02996l-1.21821,2.12046l0.4443,2.14434l-3.53523,-1.95119l0.30233,-4.50912l3.37961,-3.75226l1.39772,1.92048l0.18974,3.32844z" fill="#151515" stroke-linecap="round"/><path d="M256.00775,143.72343l-3.33185,0.42724l-1.61474,-3.34891l0.97047,-1.41137l2.40572,-2.1034l1.90343,-0.21021l1.17386,0.96706l1.17045,1.20457l0.43747,2.61934z" fill="none" stroke-linecap="round"/></g><path d="M276.6421,143.32508c2.61873,0.28079 3.35505,1.39474 3.1146,2.87241c-0.24045,1.47767 -2.02474,2.58742 -3.98535,2.47869c-1.9606,-0.10873 -3.35505,-1.39474 -3.1146,-2.87241c0.24045,-1.47767 1.2879,-2.76791 3.98535,-2.47869z" fill="#54ff00" stroke="none" stroke-width="0" stroke-linecap="butt"/><path d="M267.3563,144.94671c-0.99537,0.09614 -1.09152,-0.89922 -1.09152,-0.89922l-0.01474,-1.38217c0.62745,-1.50228 1.19082,-2.65386 2.4181,-3.74167c0,0 0.75688,-0.65356 1.41043,0.10332c0.65356,0.75688 -0.10332,1.41043 -0.10332,1.41043c-1.00942,0.84079 -1.38184,1.80127 -1.87914,2.9973l0.15939,0.42051c0,0 0.09614,0.99537 -0.89922,1.09152z" fill="#54ff00" stroke="none" stroke-width="0.5" stroke-linecap="butt"/></g></g></svg>