<svg version="1.1" xmlns="http://www.w3.org/2000/svg" xmlns:xlink="http://www.w3.org/1999/xlink" width="148.10799" height="103.15593" viewBox="0,0,148.10799,103.15593"><g transform="translate(-166.59847,-125.15974)"><g data-paper-data="{&quot;isPaintingLayer&quot;:true}" fill-rule="nonzero" stroke-linejoin="miter" stroke-miterlimit="10" stroke-dasharray="" stroke-dashoffset="0" style="mix-blend-mode: normal"><path d="M267.43304,217.57744c0,-5.43249 4.4039,-9.83639 9.83639,-9.83639c5.43249,0 9.83639,4.4039 9.83639,9.83639c0,5.43249 -4.40391,9.8364 -9.83639,9.8364c-5.43249,0 -9.83639,-4.40391 -9.83639,-9.8364z" fill="#000000" stroke="none" stroke-width="NaN" stroke-linecap="butt"/><path d="M214.14536,199.26032c0,0 -7.44251,-19.81662 -6.26831,-31.91247c0.20428,-2.10431 -2.71549,-8.49378 5.51433,-9.70295c5.82595,-0.85598 7.87975,5.03638 7.87975,5.03638c0,0 -3.50116,0.1644 7.24001,0.23325c8.5781,0.05477 13.39744,-0.47078 21.97571,-0.47078c4.50321,0 17.33941,-2.13774 17.33941,-2.13774c0,0 2.34549,3.29225 3.40992,5.27235c1.18116,2.19725 3.36337,7.32763 3.36337,7.32763c0,0 1.26431,4.70941 1.41946,8.80358c0.21969,5.79726 -0.65557,11.86613 -0.73959,14.58915c-0.13446,4.35771 -1.51501,3.67416 -1.51501,3.67416z" fill="#949494" stroke="#000000" stroke-width="2" stroke-linecap="butt"/><path d="M227.14778,170.22012c0,0 6.23973,0.3504 8.00911,2.72298c0.94897,1.27248 3.37102,8.06752 2.58871,13.45012c-0.28402,1.95419 -3.97754,10.0884 -8.46709,10.60669c-1.65559,0.19113 -7.33431,-1.22586 -10.76089,-4.83995c-2.77692,-2.92887 -3.58557,-7.70834 -3.45338,-11.01242c0.13327,-3.33107 3.05358,-6.77484 6.30116,-8.77418c2.66459,-1.64043 5.78238,-2.15324 5.78238,-2.15324" fill="#949494" stroke="#000000" stroke-width="2" stroke-linecap="round"/><path d="M269.70941,180.58536c0,6.42792 -4.945,12.82642 -11.04497,12.82642c-6.09997,0 -11.75755,-6.16096 -11.75755,-12.58889c0,-6.42793 3.9949,-11.16373 10.09486,-11.16373c1.43888,0 4.23865,1.00251 5.49925,1.52997c4.08361,1.70863 7.2084,4.48455 7.2084,9.39624z" fill="#949494" stroke="#000000" stroke-width="2" stroke-linecap="butt"/><g data-paper-data="{&quot;index&quot;:null}" stroke="#000000" stroke-width="2" stroke-linecap="round"><path d="M294.48342,167.31454c0,0 -8.63442,2.68176 -12.54035,2.63836c-2.22832,-0.02476 -7.35274,-1.06767 -9.5187,-2.59827c-0.32112,-0.22692 -0.97445,-1.74434 0.42296,-2.86061c1.20356,-0.96142 3.61925,-2.02746 6.11407,-1.99721c5.80051,0.07033 15.30355,4.72449 15.30355,4.72449" fill="#949494"/><path d="M276.70827,169.02436l0.80211,-6.11415" fill="none"/></g><path d="M207.76636,183.74514c0,0 7.8272,-4.85428 10.69822,-6.63482c1.9344,-1.19968 4.85663,-3.01199 4.85663,-3.01199c0,0 4.24804,-1.00217 4.65608,-0.6746c0.93452,0.75022 3.93629,1.32851 4.82819,3.77196c0.71224,1.9513 0.18947,5.79879 0.15703,6.91505c-0.05712,1.96625 -4.82379,4.73268 -4.82379,4.73268l-13.80721,6.47013z" data-paper-data="{&quot;index&quot;:null}" fill="#949494" stroke="#000000" stroke-width="2.5" stroke-linecap="butt"/><path d="M247.02533,187.78405l-0.56768,-3.31081l2.04783,-4.95213l4.68238,-2.50692l6.38998,2.48292c0,0 5.38214,2.65421 7.33668,4.32617c1.97267,1.68747 4.44547,5.75257 4.44547,5.75257l-0.24117,1.57502l-6.64029,8.97729l-14.64835,-8.90567z" data-paper-data="{&quot;index&quot;:null}" fill="#949494" stroke="#000000" stroke-width="2.5" stroke-linecap="round"/><path d="M207.34173,159.08948l-0.36275,-7.38882l-20.65188,3.14266c0,0 -1.33362,-1.76939 -1.77415,-3.23575c-0.7285,-2.42494 -2.18609,-9.94649 -2.18609,-9.94649c0,0 4.70374,-4.59437 10.01195,-7.9545c3.76661,-2.38427 8.70441,-3.84279 8.70441,-3.84279l11.99682,-1.24082c0,0 5.38557,3.19863 6.93101,5.48769c1.3741,2.03526 1.88815,7.57493 1.88815,7.57493l-4.44175,9.43958c0,0 -1.37866,3.02932 -1.56403,4.07025c-0.20724,1.16381 0.37889,2.58517 0.37889,2.58517z" fill="#949494" stroke="#000000" stroke-width="2.5" stroke-linecap="butt"/><path d="M182.92417,141.54259l7.97223,-6.20978l10.52905,-5.14414c0,0 -0.03073,3.87905 -0.71132,5.73991c-0.5331,1.45765 -3.03885,4.51398 -3.03885,4.51398l-0.90136,3.87143l-12.54695,4.47964c0,0 -1.87602,-5.15088 -2.07953,-6.28359c-0.07326,-0.40771 0.77673,-0.96746 0.77673,-0.96746z" fill="#000000" stroke="#000000" stroke-width="2.5" stroke-linecap="round"/><path d="M200.76311,142.04886l-1.64511,0.24112" fill="none" stroke="#000000" stroke-width="2.5" stroke-linecap="round"/><path d="M202.04761,144.26128l-2.3157,0.57946" fill="none" stroke="#000000" stroke-width="2.5" stroke-linecap="round"/><path d="M203.09712,146.50808l-1.37565,0.44169" fill="none" stroke="#000000" stroke-width="2.5" stroke-linecap="round"/><path d="M187.5402,154.1581c0,0 1.97365,-2.20654 3.31446,-3.18915c1.03724,-0.76011 4.05606,-2.21225 4.05606,-2.21225c0,0 2.59437,-0.06382 4.05296,-0.31319c1.76235,-0.30131 5.78325,-1.36851 5.78325,-1.36851l5.57674,-1.26082l5.02119,-3.41329l5.29531,-3.84129c0,0 0.3335,3.24622 0.57853,3.96927c0.19056,0.5623 -1.50152,4.13559 -3.12921,6.86286c-0.65534,1.09806 -1.25321,3.25507 -9.90919,4.42609c-0.97696,0.13217 0.11076,-1.88763 -1.47412,-1.79542c-6.44146,0.3748 -18.74363,2.57806 -18.74363,2.57806" fill="#373737" stroke="#000000" stroke-width="2.5" stroke-linecap="round"/><path d="M204.00274,156.40644l-0.22149,-1.50469l-0.23341,-1.84039l0.62372,-1.36665l1.85232,0.1023l1.71426,0.94751l1.09054,2.31414l-1.43317,2.2357l-8.14435,9.29333c0,0 -1.65402,0.079 -2.29281,-0.08782c-0.64304,-0.16793 -1.5528,-0.91647 -1.5528,-0.91647z" fill="#000000" stroke="#000000" stroke-width="2.5" stroke-linecap="round"/><path d="M214.68944,158.07755l1.09493,-2.38416" fill="none" stroke="#000000" stroke-width="2.5" stroke-linecap="round"/><path d="M208.14977,131.84387l-0.74862,-2.87275l1.63595,-2.5387c0,0 1.26998,0.04189 1.77561,0.47338c0.70641,0.60282 2.06572,2.80464 2.06572,2.80464l0.88948,4.43085l-3.24967,2.39679l0.16002,-2.18403l-1.48508,-1.94292z" fill="#151515" stroke="#000000" stroke-width="2.5" stroke-linecap="round"/><path d="M205.69154,134.72677l0.09114,-2.65406l1.00285,-1.3473l1.03729,-1.11228l1.91457,-0.04054l2.66016,1.77069l1.14673,1.27231l-1.16287,3.53133l-3.35911,0.0122z" fill="none" stroke="#000000" stroke-width="2.5" stroke-linecap="round"/><path d="M184.92111,206.11353l-18.32264,-11.80367l37.08494,7.28032c0,0 17.48919,0.90191 27.21357,0.87838c15.3227,-0.03706 56.20466,-0.33041 56.20466,-0.33041c0,0 5.26109,-2.16344 7.34621,-3.04765c4.62406,-1.96086 20.25861,-8.7152 20.25861,-8.7152l-19.84952,19.95383l-85.12371,1.40228z" fill="#000000" stroke="none" stroke-width="NaN" stroke-linecap="butt"/><g data-paper-data="{&quot;index&quot;:null}"><g><path d="M267.96577,201.88272l-4.9914,-3.21677l2.70208,-4.19278l4.9914,3.21677z" data-paper-data="{&quot;index&quot;:null}" fill="#000000" stroke="none" stroke-width="0" stroke-linecap="butt"/><path d="M274.75781,203.63978l9.99351,3.97342l3.91711,8.91922l-1.57315,3.36026l-0.88737,1.46504l-8.83195,4.66315l-3.94527,0.53715l0.38343,-2.54047l0.88737,-1.46504l0.91439,-2.52695l2.70882,-2.05625l-4.44919,-0.53827l-3.20543,-3.48188l-3.85068,-3.17952z" fill="#949494" stroke="#000000" stroke-width="2.5" stroke-linecap="round"/><path d="M266.81943,210.76963l-1.45154,-1.41831l0.03434,-5.52461l1.39861,-4.85234l3.22625,-1.51178l3.05791,0.9279l1.48476,4.28816z" fill="#949494" stroke="#000000" stroke-width="2.5" stroke-linecap="round"/><path d="M271.39022,206.52933l-4.53646,-1.28431l-0.89355,-2.46671" fill="none" stroke="#000000" stroke-width="2.5" stroke-linecap="round"/></g><g stroke="none" stroke-linecap="butt"><path d="M280.0377,217.47561l-6.01818,-1.06199l-5.6119,-5.92788l5.54787,-5.50674l11.2153,3.89989l1.95554,5.45753z" fill="#8c6200" stroke-width="NaN"/><path d="M270.50494,212.48723l-2.43792,-1.98133l5.22148,-5.51569l5.40218,-0.23594z" fill="#8c0081" stroke-width="NaN"/><path d="M273.86806,225.76054l0.14777,-2.7402l0.40196,-1.29875l2.77805,-2.07396l2.20859,-2.52109l6.61816,-3.13536l1.36805,5.57088l-9.64874,5.9353z" fill="#8c0081" stroke-width="0"/><g fill="#ffffff" stroke-width="0.5"><path d="M274.19001,209.43111c0.22262,-0.43024 0.41722,-0.74464 0.88764,-1.05941c0.37862,-0.21142 0.92011,-0.485 1.38618,-0.41298c0.33086,0.05113 0.58197,0.40162 0.73875,0.8428c-0.56824,0.79835 -1.07254,1.63741 -1.5942,2.46928c0,0 -0.07692,0.12265 0.00146,0.22653c-1.09041,0.2112 -2.01305,-0.54627 -1.74614,-1.85632c0,0 0.05742,-0.26758 0.325,-0.21018c0.00044,0.00009 0.00089,0.00019 0.00133,0.00028zM275.8186,208.93947c0.06022,-0.09604 0.03119,-0.22272 -0.06484,-0.28294c-0.09604,-0.06022 -0.22271,-0.0312 -0.28294,0.06484c-0.06022,0.09604 -0.03119,0.22272 0.06485,0.28295c0.09604,0.06022 0.22272,0.03119 0.28294,-0.06484zM274.89905,210.34142c0.06022,-0.09604 0.03119,-0.22272 -0.06484,-0.28294c-0.09604,-0.06022 -0.22272,-0.03119 -0.28295,0.06485c-0.06022,0.09604 -0.0312,0.22271 0.06485,0.28294c0.09604,0.06022 0.22271,0.03121 0.28294,-0.06483z"/><path d="M274.94813,212.35197c0.03159,-0.05038 0.06613,-0.08794 0.10191,-0.11545c-0.03076,-0.11154 -0.04194,-0.30412 0.18333,-0.42824c0.33289,-0.18341 0.5163,0.14948 0.5163,0.14948c0.10674,0.19686 0.20089,0.40327 0.27172,0.61649c0.04606,-0.0318 0.08372,-0.04629 0.08372,-0.04629c0.65901,-0.25085 1.28424,-0.56636 1.92536,-0.85121c0.04068,-0.69025 0.10594,-1.37799 0.17379,-2.07222c-0.18974,-0.00997 -0.35616,-0.02703 -0.46782,-0.03759c0,0 -0.2174,-0.02103 -0.30664,-0.19601c-0.01943,-0.01043 -0.03891,-0.02331 -0.05826,-0.03901c0.08907,0.55248 0.04554,1.11235 -0.15279,1.36215c-0.06681,0.08416 -0.87997,0.49826 -0.97576,0.54787c-0.06224,0.03224 -0.12453,0.06122 -0.18671,0.08706c0.42401,-0.67864 0.83874,-1.36088 1.28959,-2.01968c-0.0142,-0.01351 -0.0283,-0.02863 -0.04222,-0.04554c-0.24163,-0.29338 0.05177,-0.53501 0.05177,-0.53501l0.21294,-0.15359c0.38427,-0.15776 2.49618,-0.69772 2.12449,0.55777c-0.08006,0.27041 -0.37497,0.3958 -0.7197,0.44766c-0.05151,0.59094 -0.09251,1.17676 -0.12632,1.7618c0.08505,-0.03111 0.1707,-0.06106 0.25707,-0.08964c0.47036,-0.15568 0.95566,-0.21612 1.4294,-0.34196c0.05186,-0.23217 0.11323,-0.48354 0.1619,-0.78263c0,0 0.06255,-0.37488 0.43744,-0.31234c0.03722,0.0062 0.07013,0.0155 0.09923,0.0272c0.02794,-0.01308 0.05971,-0.02406 0.09579,-0.03233c0.37047,-0.0849 0.45538,0.28557 0.45538,0.28557l0.03829,0.18422c0.07381,0.88888 0.00341,1.40883 -0.23244,1.99986l0.02949,0.00662l-0.16456,0.73306c-0.00879,0.04395 -0.02556,0.08707 -0.05078,0.12731c-0.11152,0.17784 -0.34608,0.23159 -0.52393,0.12006c-0.08891,-0.05576 -0.14682,-0.14229 -0.16853,-0.23709l-0.10054,-0.43874c-0.13103,-0.34255 -0.18122,-0.62249 -0.18405,-0.88285c-0.36146,0.07929 -0.72481,0.14642 -1.08031,0.26473c-0.18389,0.0612 -0.36429,0.12822 -0.54231,0.19926c-0.03097,0.6535 -0.05492,1.30861 -0.07646,1.97142c-0.00463,0.14246 -0.01198,0.94901 -0.03265,1.52477c0.03961,-0.01025 0.07991,-0.0231 0.12057,-0.03973l0.37862,0.05799c0,0 0.322,0.20193 0.12006,0.52393c-0.11008,0.17553 -0.25584,0.19536 -0.36567,0.17709c-0.45719,0.155 -0.72152,0.16838 -1.02524,0.03728l-0.02102,0.06446l-0.36437,-0.11879c-0.03175,-0.00959 -0.06276,-0.02353 -0.09222,-0.04201c-0.17784,-0.11152 -0.2316,-0.34608 -0.12008,-0.52392c0.04463,-0.07115 0.10894,-0.12244 0.18143,-0.15123l0.37384,-0.15385l0.02147,0.05216l0.10887,-0.08049c0.03107,0.04862 0.10434,0.16332 0.13377,0.2094c-0.4272,-0.67502 -0.13634,-1.51044 -0.15234,-2.30156c-0.00581,-0.28712 -0.00448,-0.57259 0.0025,-0.85702c-0.53426,0.24393 -1.06224,0.49976 -1.61645,0.71484c0,0 -0.00352,0.00135 -0.00998,0.00343c0.03055,0.1014 0.01882,0.21498 -0.04187,0.31174c-0.11152,0.17784 -0.34608,0.23159 -0.52392,0.12006c-0.01229,-0.0077 -0.02398,-0.016 -0.03508,-0.02482l-0.37321,-0.28952l0.06952,-0.08963l-0.00771,-0.0101l0.01532,-0.0117c-0.17827,-0.12075 -0.33391,-0.26652 -0.44508,-0.44483l0.04217,0.07381c0,0 -0.32199,-0.20192 -0.12006,-0.52392z"/></g></g></g><path d="M206.22509,218.47928c0,-5.43249 4.4039,-9.83639 9.83639,-9.83639c5.43249,0 9.83639,4.4039 9.83639,9.83639c0,5.43249 -4.4039,9.83639 -9.83639,9.83639c-5.43249,0 -9.83639,-4.4039 -9.83639,-9.83639z" fill="#000000" stroke="none" stroke-width="NaN" stroke-linecap="butt"/><text transform="translate(237.78851,173.84183) scale(0.27306,0.27306)" font-size="40" xml:space="preserve" fill="#9e00ff" fill-rule="nonzero" stroke="none" stroke-width="1" stroke-linecap="butt" stroke-linejoin="miter" stroke-miterlimit="10" stroke-dasharray="" stroke-dashoffset="0" font-family="Sans Serif" font-weight="normal" text-anchor="start" style="mix-blend-mode: normal"><tspan x="0" dy="0">M</tspan></text><path d="M209.62525,135.98799l2.59603,4.10752l-1.09506,0.22548z" fill="none" stroke="#0088ff" stroke-width="1.5" stroke-linecap="round"/><path d="M192.33278,140.99114l-5,2.25" fill="none" stroke="#ff0000" stroke-width="1.5" stroke-linecap="round"/><g data-paper-data="{&quot;index&quot;:null}"><g><path d="M204.18041,189.4407l4.01073,-4.37901l3.67837,3.36902l-4.01074,4.37901z" fill="#000000" stroke="none" stroke-width="0" stroke-linecap="butt"/><path d="M182.92119,209.30383l3.06479,-3.54316c0,0 2.80392,0.03133 4.29102,0.30411c0.52779,0.09681 2.82736,1.69312 3.07389,0.81302c0.21837,-0.77947 -1.64458,-4.0564 -0.84258,-3.86836c0.77157,0.18091 9.27052,-7.59393 10.23041,-6.96885c2.47424,1.61121 8.98228,5.02249 8.98228,5.02249l-12.42646,12.45149c0,0 -13.0426,-2.04477 -15.67435,-2.72159c-1.00433,-0.25828 -0.699,-1.48915 -0.699,-1.48915z" fill="#949494" stroke="#000000" stroke-width="2.5" stroke-linecap="butt"/><path d="M201.85052,195.63025l0.36632,-3.31365l1.9218,-2.04462l2.55306,-0.38177l2.77177,1.09922l4.06436,9.4391z" fill="#949494" stroke="#000000" stroke-width="2.5" stroke-linecap="butt"/><path d="M210.13673,195.21824l-1.08657,1.97409l-2.04044,0.59169" fill="none" stroke="#000000" stroke-width="2.5" stroke-linecap="round"/><path d="M194.219,212.22135l-0.84055,-5.94992" fill="none" stroke="#000000" stroke-width="2.5" stroke-linecap="round"/></g><g stroke="none" stroke-linecap="butt"><path d="M193.99664,203.80353l6.2523,-5.34898l1.88053,-2.71265l8.15698,6.11216l-12.30725,10.72725z" fill="#8c6200" stroke-width="NaN"/><path d="M200.07094,199.00882l1.93841,-2.90146l8.08031,5.51939l-2.79905,2.74359z" fill="#8c0081" stroke-width="NaN"/><path d="M183.72185,210.06177l1.71158,-2.145l1.08145,-0.82389l3.46601,-0.07515l2.96889,0.82848l0.96732,-4.17494l2.5739,-1.56125l1.8392,10.75836z" fill="#8c0081" stroke-width="0"/><g fill="#ffffff" stroke-width="0.5"><path d="M204.50765,201.83063c0.35404,0.33062 0.60412,0.60298 0.78001,1.14099c0.10119,0.42166 0.2182,1.01698 0.02286,1.44622c-0.13866,0.30472 -0.544,0.45173 -1.01112,0.4834c-0.61501,-0.76291 -1.28651,-1.47525 -1.94637,-2.20237c0,0 -0.0973,-0.10721 -0.21849,-0.05984c0.09144,-1.10691 1.07014,-1.79041 2.25925,-1.17929c0,0 0.24211,0.12761 0.1145,0.36971c-0.00021,0.00041 -0.00042,0.0008 -0.00064,0.0012zM204.54072,203.53149c0.07619,0.08395 0.20599,0.09024 0.28994,0.01406c0.08395,-0.07619 0.09024,-0.20599 0.01405,-0.28994c-0.07619,-0.08395 -0.20598,-0.09025 -0.28993,-0.01406c-0.08395,0.07619 -0.09025,0.20599 -0.01406,0.28994zM203.43955,202.26718c0.07619,0.08395 0.20599,0.09024 0.28994,0.01406c0.08395,-0.07619 0.09023,-0.20599 0.01406,-0.28994c-0.07619,-0.08395 -0.20599,-0.09025 -0.28994,-0.01406c-0.08395,0.07619 -0.09025,0.20599 -0.01406,0.28994z"/><path d="M201.4906,201.77091c0.03997,0.04404 0.0668,0.08745 0.0836,0.12933c0.1157,0.00054 0.30413,0.04183 0.36273,0.29228c0.08659,0.37008 -0.28349,0.45667 -0.28349,0.45667c-0.21838,0.04953 -0.44255,0.0844 -0.66699,0.09495c0.01817,0.05294 0.02193,0.09312 0.02193,0.09312c0.06334,0.70227 0.1981,1.38952 0.29903,2.08379c0.65356,0.22577 1.29803,0.47451 1.94808,0.72752c0.06089,-0.17998 0.12231,-0.33559 0.16267,-0.44023c0,0 0.07902,-0.20362 0.27161,-0.24225c0.0153,-0.01588 0.03296,-0.03115 0.0533,-0.04554c-0.55599,-0.0636 -1.08324,-0.25687 -1.27013,-0.51534c-0.06296,-0.08709 -0.24182,-0.98188 -0.26369,-1.08753c-0.01421,-0.06863 -0.02529,-0.13645 -0.03334,-0.20331c0.53874,0.59169 1.08346,1.1754 1.59585,1.78756c0.01684,-0.01002 0.03521,-0.0195 0.05525,-0.02833c0.34778,-0.15331 0.50109,0.19448 0.50109,0.19448l0.09032,0.24653c0.04801,0.41261 -0.00306,2.59185 -1.11133,1.89461c-0.2387,-0.15017 -0.2797,-0.468 -0.23642,-0.81392c-0.55501,-0.20934 -1.10793,-0.40718 -1.66205,-0.59789c0.00696,0.0903 0.01263,0.18085 0.01681,0.27172c0.02274,0.49493 -0.05029,0.97852 -0.05719,1.46862c0.20951,0.11271 0.43493,0.23973 0.70973,0.36745c0,0 0.34401,0.16156 0.18246,0.50559c-0.01603,0.03415 -0.03389,0.06333 -0.05301,0.08818c0.00504,0.03044 0.00702,0.06399 0.00523,0.10096c-0.01841,0.37963 -0.39804,0.36122 -0.39804,0.36122l-0.18772,-0.01293c-0.87572,-0.16924 -1.35728,-0.37757 -1.86256,-0.76442l-0.01434,0.0266l-0.66128,-0.35661c-0.03994,-0.02034 -0.07692,-0.04815 -0.10883,-0.08332c-0.14108,-0.15544 -0.1294,-0.3958 0.02604,-0.53687c0.07772,-0.07052 0.17666,-0.10288 0.27382,-0.09817l0.44959,0.02181c0.36522,-0.03355 0.64829,-0.0062 0.89973,0.06146c0.02137,-0.36943 0.05498,-0.73741 0.03718,-1.11166c-0.0092,-0.19358 -0.02495,-0.38539 -0.04522,-0.576c-0.62079,-0.20648 -1.24504,-0.40664 -1.87735,-0.60655c-0.13591,-0.04297 -0.91043,-0.26808 -1.45917,-0.44364c-0.00086,0.04091 0.00063,0.08318 0.00566,0.12682l-0.15818,0.34885c0,0 -0.28144,0.25542 -0.53687,-0.02604c-0.13924,-0.15345 -0.11893,-0.29913 -0.07165,-0.39993c-0.02563,-0.48207 0.03295,-0.74017 0.24126,-0.99715l-0.05637,-0.03766l0.21286,-0.3187c0.01781,-0.02798 0.03962,-0.05407 0.06537,-0.07745c0.15544,-0.14108 0.3958,-0.1294 0.53687,0.02604c0.05643,0.06218 0.08842,0.13798 0.09655,0.21556l0.04707,0.40152l-0.05602,0.00657l0.04806,0.12658c-0.05521,0.01675 -0.18545,0.05629 -0.23775,0.07218c0.76537,-0.22882 1.49106,0.27707 2.25705,0.47553c0.27801,0.07203 0.55248,0.15049 0.82443,0.23409c-0.09042,-0.58031 -0.194,-1.15779 -0.25125,-1.74953c0,0 -0.00036,-0.00375 -0.00062,-0.01054c-0.10588,0.00199 -0.21205,-0.04 -0.28881,-0.12459c-0.14108,-0.15544 -0.1294,-0.39581 0.02604,-0.53687c0.01074,-0.00976 0.02188,-0.01877 0.03338,-0.02706l0.37964,-0.28105l0.0675,0.09117l0.01181,-0.0047l0.00712,0.01793c0.16445,-0.13899 0.34687,-0.24943 0.54859,-0.30825l-0.08247,0.02065c0,0 0.28146,-0.25542 0.53687,0.02604z"/></g></g></g></g></g></svg>