<svg version="1.1" xmlns="http://www.w3.org/2000/svg" xmlns:xlink="http://www.w3.org/1999/xlink" width="55.69465" height="36.51759" viewBox="0,0,55.69465,36.51759"><g transform="translate(-216.07733,-174.37514)"><g data-paper-data="{&quot;isPaintingLayer&quot;:true}" fill-rule="nonzero" stroke-linejoin="miter" stroke-miterlimit="10" stroke-dasharray="" stroke-dashoffset="0" style="mix-blend-mode: normal"><path d="M249.16129,190.82383c0,0 3.13664,-6.11052 7.8694,-8.23201c5.18937,-2.32618 7.4965,-5.66416 7.4965,-5.66416l5.69027,31.03193c0,0 -4.17329,-4.10753 -10.46346,-5.57499c-3.96161,-0.92422 -9.87759,-5.45288 -9.87759,-5.45288z" fill="#ffffff" stroke="#9e9e9e" stroke-width="2" stroke-linecap="butt"/><path d="M217.45017,187.20339l9.22513,5.53878l17.9294,-2.42347l1.00485,5.60472l-17.51909,2.59288l-7.04292,8.752z" fill="#ffffff" stroke="#9e9e9e" stroke-width="2" stroke-linecap="butt"/><path d="M238.0291,193.5989l13.44775,-1.99032l0.6833,3.81121l-13.44775,1.99032z" fill="#ffffff" stroke="none" stroke-width="0" stroke-linecap="butt"/><path d="M236.8512,198.74798l-4.30678,-1.89329l3.50517,-2.06526l-2.84088,-1.52576" fill="none" stroke="#9e9e9e" stroke-width="1.5" stroke-linecap="round"/><path d="M252.50295,200.34791l3.19715,-2.66545l-5.11396,-4.71048l6.42955,-2.35862l-2.88171,-3.35668l3.86886,-5.22807" fill="none" stroke="#9e9e9e" stroke-width="1.5" stroke-linecap="round"/><path d="M220.29764,190.78198l4.30864,4.06308l-0.23937,3.1746l4.67047,-1.26951l-1.9836,6.32054" fill="none" stroke="#9e9e9e" stroke-width="1.5" stroke-linecap="round"/><path d="M242.982,191.33664l3.89485,2.19676l-4.34946,1.75675l8.43543,2.05683l-2.74068,0.88174l-0.85171,-1.33694" fill="none" stroke="#9e9e9e" stroke-width="1.5" stroke-linecap="round"/><path d="M262.58427,199.02107l-4.57028,-3.97372l4.00989,-0.98965l-3.29364,-3.05321l5.11395,-2.94027" fill="none" stroke="#9e9e9e" stroke-width="1.5" stroke-linecap="round"/><path d="M262.39316,205.05501l-5.08056,-3.90798l4.15277,-2.23217" fill="none" stroke="#9e9e9e" stroke-width="1.5" stroke-linecap="round"/></g></g></svg>