<svg version="1.1" xmlns="http://www.w3.org/2000/svg" xmlns:xlink="http://www.w3.org/1999/xlink" width="122.18459" height="268.55471" viewBox="0,0,122.18459,268.55471"><defs><radialGradient cx="237.70621" cy="86.89965" r="14.75678" gradientUnits="userSpaceOnUse" id="color-1"><stop offset="0" stop-color="#b8ffff" stop-opacity="0"/><stop offset="1" stop-color="#b8ffff"/></radialGradient><radialGradient cx="249.29762" cy="88.3665" r="14.75678" gradientUnits="userSpaceOnUse" id="color-2"><stop offset="0" stop-color="#b8ffff" stop-opacity="0"/><stop offset="1" stop-color="#b8ffff"/></radialGradient></defs><g transform="translate(-186.91872,-44.55673)"><g data-paper-data="{&quot;isPaintingLayer&quot;:true}" fill-rule="nonzero" stroke-linejoin="miter" stroke-miterlimit="10" stroke-dasharray="" stroke-dashoffset="0" style="mix-blend-mode: normal"><path d="M272.21283,144.88773c0,0 14.32738,23.82286 17.25857,32.29792c4.77917,13.81818 8.69194,42.73369 8.69194,42.73369c0,0 -7.41639,3.52468 -11.26237,3.90231c-2.87728,0.28252 -9.7626,-1.8379 -9.7626,-1.8379c0,0 -3.34588,3.02547 -3.21345,1.50674c0.09903,-1.1357 -5.82196,0.35304 -5.82196,0.35304c0,0 -0.58781,-4.82131 -1.30719,-5.33743c-0.80908,-0.58047 6.44942,-8.1368 6.44942,-8.1368z" data-paper-data="{&quot;index&quot;:null}" fill="#fff400" stroke="#a59c00" stroke-width="2" stroke-linecap="round"/><path d="M221.05554,89.30144c3.80804,-23.11958 25.63718,-38.77468 48.75677,-34.96664c23.11958,3.80804 38.77468,25.63718 34.96664,48.75677c-3.80804,23.11958 -25.63718,38.77468 -48.75677,34.96664c-23.11958,-3.80804 -38.77468,-25.63718 -34.96664,-48.75677z" fill="#b2936b" stroke="#856e50" stroke-width="2" stroke-linecap="butt"/><path d="M225.16124,76.79338l7.72577,-19.66534l73.65261,12.28092l-1.41675,20.4054c0,0 -7.67473,5.70232 -16.00901,4.5879c-4.14876,-0.55475 -6.93789,-7.94764 -12.0512,-8.34382c-2.97467,-0.23048 -8.49446,3.93867 -11.37323,3.43619c-8.50099,-1.48384 -13.66884,-9.33241 -19.72866,-10.05379c-2.06958,-0.24636 -5.49329,4.92651 -6.90409,4.69678c-7.01515,-1.14234 -13.89544,-7.34422 -13.89544,-7.34422z" fill="#000000" stroke="#000000" stroke-width="2" stroke-linecap="butt"/><path d="M212.86908,208.2358c0,0 4.25116,-5.89868 6.0423,-12.07355c3.88998,-13.41052 16.38878,-65.25655 16.38878,-65.25655c0,0 16.75277,-0.93382 24.97638,1.02809c10.23298,2.44129 31.72172,12.49843 31.72172,12.49843c0,0 -12.22715,47.31677 -15.22691,61.79375c-1.84074,8.88348 -1.06094,16.81231 -1.06094,16.81231z" fill="#fff400" stroke="#a59c00" stroke-width="2" stroke-linecap="butt"/><path d="M223.49385,70.76721c0,0 -1.33349,-3.71261 1.15188,-7.08959c2.35941,-3.20582 8.51489,-6.02458 9.55736,-8.16995c2.13123,-4.38602 7.13024,-9.91607 7.13024,-9.91607c0,0 36.68647,2.83567 46.55047,5.18893c11.9733,2.85648 20.19539,10.73469 20.19539,10.73469c0,0 -1.2994,23.25202 -2.52156,28.37488c-0.73958,3.10006 -4.12184,-0.52823 -4.12184,-0.52823z" fill="#fff400" stroke="#a59c00" stroke-width="2" stroke-linecap="butt"/><text transform="translate(233.61335,63.16873) rotate(13.41829) scale(0.36892,0.36892)" font-size="40" xml:space="preserve" fill="#ff9c00" fill-rule="nonzero" stroke="none" stroke-width="1" stroke-linecap="butt" stroke-linejoin="miter" stroke-miterlimit="10" stroke-dasharray="" stroke-dashoffset="0" font-family="Sans Serif" font-weight="normal" text-anchor="start" style="mix-blend-mode: normal"><tspan x="0" dy="0">miner</tspan></text><path d="M223.01255,183.21769l9.74557,28.30521l-10.40662,-2.48272l1.44539,-2.879l-4.70425,-8.89739z" fill="#a59c00" stroke="#a59c00" stroke-width="2" stroke-linecap="round"/><path d="M275.09772,211.67103l-8.2143,5.8154l-0.01,3.22144l-10.40662,-2.48272l21.47426,-20.85707z" data-paper-data="{&quot;index&quot;:null}" fill="#a59c00" stroke="#a59c00" stroke-width="2" stroke-linecap="round"/><path d="M218.57104,195.80777c0,0 5.32202,9.02552 4.40096,9.40394c-0.81895,0.33647 -2.50188,4.8926 -2.50188,4.8926c0,0 -5.41863,-2.81301 -5.58395,-1.68505c-0.22109,1.50837 -2.77979,-2.20665 -2.77979,-2.20665c0,0 -7.18864,0.47682 -9.92339,-0.46108c-3.65547,-1.25367 -10.06012,-6.39241 -10.06012,-6.39241c0,0 10.47028,-27.23582 18.30488,-39.58093c4.80516,-7.57158 24.23634,-27.45202 24.23634,-27.45202z" data-paper-data="{&quot;index&quot;:null}" fill="#fff400" stroke="#a59c00" stroke-width="2" stroke-linecap="round"/><path d="M212.14607,272.64745l2.42703,-64.55308l59.38388,15.7474l0.73784,66.05568c0,0 -18.75885,11.73037 -28.2891,-0.56879c-5.06955,-6.54245 -0.91454,-40.99433 -4.54474,-40.99433c-2.15737,0 -20.18348,34.66621 -22.8533,37.1358c-11.25602,10.4118 -8.61161,-18.57267 -8.61161,-18.57267z" fill="#85785e" stroke="#584f3e" stroke-width="2" stroke-linecap="butt"/><path d="M257.95592,95.95017c-1.17789,7.15127 -5.76477,12.3503 -10.24508,11.61235c-4.48031,-0.73795 -7.15747,-7.13343 -5.97958,-14.28472c1.17789,-7.15127 5.76477,-12.3503 10.24509,-11.61234c4.48031,0.73795 7.15746,7.13343 5.97957,14.28472z" fill="#ffffff" stroke="#bababa" stroke-width="2" stroke-linecap="butt"/><path d="M242.6673,93.43198c-1.17789,7.15127 -5.76477,12.35029 -10.24509,11.61234c-4.48031,-0.73795 -7.15746,-7.13343 -5.97957,-14.28471c1.17789,-7.15127 5.76477,-12.3503 10.24508,-11.61235c4.48031,0.73795 7.15747,7.13343 5.97958,14.28472z" fill="#ffffff" stroke="#bababa" stroke-width="2" stroke-linecap="butt"/><path d="M243.26368,93.36997c-1.32454,8.0416 -7.26425,13.75912 -13.26672,12.77044c-6.00247,-0.98867 -9.79469,-8.30915 -8.47016,-16.35074c1.32454,-8.0416 7.26425,-13.75912 13.26672,-12.77044c6.00247,0.98867 9.79469,8.30915 8.47016,16.35074z" fill="url(#color-1)" stroke="#000000" stroke-width="2" stroke-linecap="butt"/><path d="M263.35162,97.73185c-1.32454,8.0416 -7.26425,13.75912 -13.26672,12.77044c-6.00247,-0.98867 -9.7947,-8.30915 -8.47017,-16.35074c1.32454,-8.0416 7.26426,-13.75911 13.26673,-12.77044c6.00247,0.98867 9.79469,8.30915 8.47016,16.35074z" fill="url(#color-2)" stroke="#000000" stroke-width="2" stroke-linecap="butt"/><path d="M217.57497,286.7337c-4.1289,4.09738 -7.78707,1.68966 -17.39106,-7.98822c-9.60399,-9.67788 -15.27913,-16.4398 -11.15023,-20.53718c1.97592,-1.96084 3.07845,-1.55591 7.32877,0.64717c2.46474,1.27756 5.1191,0.71922 8.29624,2.64122c2.79264,1.6894 9.01721,1.64598 11.35989,4.00669c1.59917,1.61147 3.64368,3.38637 4.9407,5.04091c6.4924,8.28197 0.05707,12.7743 -3.38432,16.18941z" fill="#935300" stroke="#603600" stroke-width="1.5" stroke-linecap="butt"/><path d="M266.19844,281.48079c1.88172,0.9375 4.03177,2.58296 5.93211,3.82509c2.78389,1.81964 3.99409,7.92558 6.21096,10.32108c2.5221,2.72532 2.50939,5.43773 4.25685,7.59492c3.01341,3.71998 3.63194,4.71845 2.10889,7.04857c-3.18257,4.86904 -10.94829,0.67091 -22.36102,-6.78883c-11.41273,-7.45975 -14.50741,-10.55849 -11.32484,-15.42753c2.65264,-4.05829 5.75789,-11.26606 15.17704,-6.5733z" data-paper-data="{&quot;index&quot;:null}" fill="#935300" stroke="#603600" stroke-width="1.5" stroke-linecap="butt"/><path d="M222.76724,208.18969c0,2.62335 -3.13401,4.75 -7,4.75c-3.86599,0 -7,-2.12665 -7,-4.75c0,-2.62335 3.13401,-4.75 7,-4.75c3.86599,0 7,2.12665 7,4.75z" fill="#b2936b" stroke="#856e50" stroke-width="2" stroke-linecap="butt"/><path d="M284.26724,219.1897c0,2.62336 -3.13401,4.75 -7,4.75c-3.86599,0 -7,-2.12664 -7,-4.75c0,-2.62336 3.13401,-4.75 7,-4.75c3.86599,0 7,2.12664 7,4.75z" fill="#b2936b" stroke="#856e50" stroke-width="2" stroke-linecap="butt"/><path d="M262.29692,92.63062l-33.06041,-8.48582" fill="none" stroke="#000000" stroke-width="2" stroke-linecap="round"/><path d="M282.21956,119.34867c-0.48245,2.92906 -2.6406,5.01249 -4.82037,4.65346c-2.17977,-0.35903 -3.55572,-3.02456 -3.07327,-5.95362c0.48245,-2.92906 6.09117,-5.96435 8.27094,-5.60532c2.17977,0.35903 0.10515,3.97642 -0.3773,6.90549z" fill="#00ffff" stroke="#00cbcb" stroke-width="2" stroke-linecap="butt"/><path d="M221.07573,115.23181c0,0 11.89695,-5.32981 16.23971,-4.70343c3.84651,0.5548 12.44731,4.36112 12.44731,4.36112c0,0 4.12378,0.20145 5.54567,1.05327c1.79557,1.07567 4.3707,4.88732 4.3707,4.88732l-4.832,9.33886c0,0 -21.1079,-9.03112 -26.43201,-12.39498c-2.70166,-1.70695 -7.33938,-2.54216 -7.33938,-2.54216z" fill="#000000" stroke="#000000" stroke-width="2" stroke-linecap="round"/><path d="M233.48801,93.71297c-0.08976,0.54494 -0.6595,0.90485 -1.27256,0.80387c-0.61306,-0.10098 -1.03728,-0.6246 -0.94752,-1.16954c0.08976,-0.54494 0.6595,-0.90485 1.27256,-0.80387c0.61306,0.10098 1.03728,0.6246 0.94752,1.16954z" fill="none" stroke="#000000" stroke-width="2" stroke-linecap="butt"/><path d="M248.1667,96.89081c-0.08976,0.54494 -0.6595,0.90485 -1.27256,0.80387c-0.61306,-0.10098 -1.03728,-0.6246 -0.94752,-1.16954c0.08976,-0.54494 0.6595,-0.90485 1.27256,-0.80387c0.61306,0.10098 1.03728,0.6246 0.94752,1.16954z" fill="none" stroke="#000000" stroke-width="2" stroke-linecap="butt"/></g></g></svg>