<svg version="1.1" xmlns="http://www.w3.org/2000/svg" xmlns:xlink="http://www.w3.org/1999/xlink" width="48.40179" height="39.25" viewBox="0,0,48.40179,39.25"><defs><linearGradient x1="240.4404" y1="170.57154" x2="238.46714" y2="172.45839" gradientUnits="userSpaceOnUse" id="color-1"><stop offset="0" stop-color="#dadada"/><stop offset="1" stop-color="#616161"/></linearGradient><linearGradient x1="239.31012" y1="175.81112" x2="241.28338" y2="178.59315" gradientUnits="userSpaceOnUse" id="color-2"><stop offset="0" stop-color="#dadada"/><stop offset="1" stop-color="#616161"/></linearGradient><linearGradient x1="240.4404" y1="181.79762" x2="238.46714" y2="184.57965" gradientUnits="userSpaceOnUse" id="color-3"><stop offset="0" stop-color="#dadada"/><stop offset="1" stop-color="#616161"/></linearGradient><linearGradient x1="239.02913" y1="187.58456" x2="241.00239" y2="190.3666" gradientUnits="userSpaceOnUse" id="color-4"><stop offset="0" stop-color="#dadada"/><stop offset="1" stop-color="#616161"/></linearGradient><linearGradient x1="239.02913" y1="195.75444" x2="241.00239" y2="192.97241" gradientUnits="userSpaceOnUse" id="color-5"><stop offset="0" stop-color="#dadada"/><stop offset="1" stop-color="#616161"/></linearGradient><linearGradient x1="239.8721" y1="170.57154" x2="241.84536" y2="172.45839" gradientUnits="userSpaceOnUse" id="color-6"><stop offset="0" stop-color="#dadada"/><stop offset="1" stop-color="#616161"/></linearGradient><linearGradient x1="241.00239" y1="175.81112" x2="239.02913" y2="178.59315" gradientUnits="userSpaceOnUse" id="color-7"><stop offset="0" stop-color="#dadada"/><stop offset="1" stop-color="#616161"/></linearGradient><linearGradient x1="239.8721" y1="181.79762" x2="241.84536" y2="184.57965" gradientUnits="userSpaceOnUse" id="color-8"><stop offset="0" stop-color="#dadada"/><stop offset="1" stop-color="#616161"/></linearGradient><linearGradient x1="241.28338" y1="187.58456" x2="239.31012" y2="190.3666" gradientUnits="userSpaceOnUse" id="color-9"><stop offset="0" stop-color="#dadada"/><stop offset="1" stop-color="#616161"/></linearGradient><linearGradient x1="241.28338" y1="195.75444" x2="239.31012" y2="192.97241" gradientUnits="userSpaceOnUse" id="color-10"><stop offset="0" stop-color="#dadada"/><stop offset="1" stop-color="#616161"/></linearGradient><linearGradient x1="240.3884" y1="191.0625" x2="240.3884" y2="200.3125" gradientUnits="userSpaceOnUse" id="color-11"><stop offset="0" stop-color="#cccccc"/><stop offset="1" stop-color="#929292"/></linearGradient><linearGradient x1="240.3884" y1="191.0625" x2="240.3884" y2="200.3125" gradientUnits="userSpaceOnUse" id="color-12"><stop offset="0" stop-color="#bcbcbc"/><stop offset="1" stop-color="#787878"/></linearGradient><linearGradient x1="240.1384" y1="163.5625" x2="240.1384" y2="172.8125" gradientUnits="userSpaceOnUse" id="color-13"><stop offset="0" stop-color="#cccccc"/><stop offset="1" stop-color="#929292"/></linearGradient><linearGradient x1="240.1384" y1="163.5625" x2="240.1384" y2="172.8125" gradientUnits="userSpaceOnUse" id="color-14"><stop offset="0" stop-color="#bcbcbc"/><stop offset="1" stop-color="#787878"/></linearGradient></defs><g transform="translate(-215.9375,-162.3125)"><g data-paper-data="{&quot;isPaintingLayer&quot;:true}" fill-rule="nonzero" stroke-linecap="butt" stroke-linejoin="miter" stroke-miterlimit="10" stroke-dasharray="" stroke-dashoffset="0" style="mix-blend-mode: normal"><g stroke="none" stroke-width="0"><path d="M222.0233,170.24724l1.97326,-1.88685l32.88768,4.42232l-1.97326,1.88685z" fill="url(#color-1)"/><path d="M224.83954,181.85335l-1.97326,-2.78203l32.88768,-6.52039l1.97326,2.78203z" data-paper-data="{&quot;index&quot;:null}" fill="url(#color-2)"/><path d="M222.0233,181.31946l1.97326,-2.78203l32.88768,6.52039l-1.97326,2.78203z" data-paper-data="{&quot;index&quot;:null}" fill="url(#color-3)"/><path d="M224.55855,193.62679l-1.97326,-2.78203l32.88768,-6.52039l1.97326,2.78203z" data-paper-data="{&quot;index&quot;:null}" fill="url(#color-4)"/><path d="M257.44623,196.2326l-1.97326,2.78203l-32.88768,-6.52039l1.97326,-2.78203z" data-paper-data="{&quot;index&quot;:null}" fill="url(#color-5)"/><path d="M225.40153,174.66955l-1.97326,-1.88686l32.88768,-4.42232l1.97326,1.88686z" data-paper-data="{&quot;index&quot;:null}" fill="url(#color-6)"/><path d="M222.58528,175.33296l1.97326,-2.78203l32.88768,6.52039l-1.97326,2.78203z" data-paper-data="{&quot;index&quot;:null}" fill="url(#color-7)"/><path d="M225.40153,187.83984l-1.97326,-2.78203l32.88768,-6.52039l1.97326,2.78203z" data-paper-data="{&quot;index&quot;:null}" fill="url(#color-8)"/><path d="M222.86628,187.1064l1.97326,-2.78203l32.88768,6.52039l-1.97326,2.78203z" data-paper-data="{&quot;index&quot;:null}" fill="url(#color-9)"/><path d="M255.75396,189.71222l1.97326,2.78203l-32.88768,6.52039l-1.97326,-2.78203z" data-paper-data="{&quot;index&quot;:null}" fill="url(#color-10)"/></g><path d="M222.68751,200.3125v-9.25h35.40179v9.25z" fill="url(#color-11)" stroke="url(#color-12)" stroke-width="2.5"/><path d="M217.1875,172.8125v-9.25h45.90179v9.25z" fill="url(#color-13)" stroke="url(#color-14)" stroke-width="2.5"/></g></g></svg>