<svg version="1.1" xmlns="http://www.w3.org/2000/svg" xmlns:xlink="http://www.w3.org/1999/xlink" width="114.96962" height="103.67665" viewBox="0,0,114.96962,103.67665"><g transform="translate(-190.44456,-128.68055)"><g data-paper-data="{&quot;isPaintingLayer&quot;:true}" fill-rule="nonzero" stroke-linejoin="miter" stroke-miterlimit="10" stroke-dasharray="" stroke-dashoffset="0" style="mix-blend-mode: normal"><g data-paper-data="{&quot;index&quot;:null}" fill="#949494" stroke="#000000" stroke-width="2"><path d="M204.74921,200.30539c0,0 -6.64286,-11.93942 -3.49459,-18.64127c1.13169,-2.40908 0.89596,-2.59479 2.69679,-6.62759c0.64865,-1.4526 1.4419,-2.94082 2.25333,-4.68416c2.17592,-4.67491 4.48262,-9.71385 4.48262,-9.71385c0,0 12.8362,2.13774 17.33941,2.13774c0.4348,0 21.53684,0.47359 21.97571,0.47078c10.74117,-0.06885 7.24001,-0.23325 7.24001,-0.23325c0,0 5.00242,-3.25087 6.6278,-2.9405c3.12122,0.596 6.09658,-2.66377 7.77886,2.9894c0.7907,2.65709 0.61267,2.95203 0.96648,6.59672c0.51648,5.32044 0.7566,13.44454 -1.04569,18.83477c-2.4256,7.25441 -7.20167,11.09865 -7.20167,11.09865z" stroke-linecap="butt"/><path d="M227.98792,199.35514c0,0 9.15072,-8.9704 8.79967,-18.34394c-0.36124,-4.29476 -5.1374,-13.07136 -5.1374,-13.07136l-4.03795,-4.98805l3.32537,4.27547c0,0 4.10165,-0.47068 6.34937,-0.72861c2.54497,-0.29205 8.13973,-0.93407 8.13973,-0.93407l-0.23753,-1.66268" stroke-linecap="round"/><path d="M257.30301,170.55263c0,0 3.11779,0.51281 5.78238,2.15324c3.24758,1.99934 6.16789,5.44311 6.30116,8.77418c0.13219,3.30408 -0.67646,8.08355 -3.45338,11.01242c-3.42658,3.61409 -9.1053,5.03108 -10.76089,4.83995c-4.48955,-0.51829 -8.18307,-8.6525 -8.46709,-10.60669c-0.78231,-5.3826 1.63974,-12.17764 2.58871,-13.45012c1.76938,-2.37258 8.00911,-2.72298 8.00911,-2.72298" stroke-linecap="round"/><path d="M207.18501,183.61658c0,-4.91169 3.12479,-7.68761 7.2084,-9.39624c1.2606,-0.52746 4.06037,-1.52997 5.49925,-1.52997c6.09996,0 10.09486,4.7358 10.09486,11.16373c0,6.42793 -5.65758,12.58889 -11.75755,12.58889c-6.09997,0 -11.04497,-6.3985 -11.04497,-12.82642z" stroke-linecap="butt"/></g><g data-paper-data="{&quot;index&quot;:null}" stroke="#000000" stroke-width="2" stroke-linecap="round"><path d="M191.67531,151.45541c0,0 9.62367,1.97923 14.30737,5.40178c2.01448,1.47205 4.08002,3.76983 4.46649,5.26098c0.44872,1.73132 -0.98414,2.55372 -1.37719,2.54271c-2.65115,-0.07425 -7.37715,-2.31306 -9.17508,-3.62967c-3.15152,-2.30783 -8.45234,-9.6322 -8.45234,-9.6322" fill="#d8d8d8"/><path d="M207.66772,158.05415l-3.02509,5.37355" fill="none"/></g><path d="M264.98559,199.83382l-12.46207,-8.78627c0,0 -4.20907,-3.55782 -3.92126,-5.50372c0.16338,-1.10471 0.3219,-4.98432 1.36458,-6.78089c1.30569,-2.24969 4.36233,-2.29381 5.41371,-2.86894c0.45906,-0.25111 4.4662,1.4789 4.4662,1.4789c0,0 2.56003,2.29567 4.25467,3.81533c2.51517,2.25544 9.37222,8.40441 9.37222,8.40441z" data-paper-data="{&quot;index&quot;:null}" fill="#949494" stroke="#000000" stroke-width="2.5" stroke-linecap="butt"/><g data-paper-data="{&quot;index&quot;:null}"><g><path d="M212.31018,206.32272l-0.56828,-5.9109l4.96516,-0.47735l0.56828,5.9109z" data-paper-data="{&quot;index&quot;:null}" fill="#000000" stroke="none" stroke-width="0" stroke-linecap="butt"/><path d="M225.69771,208.90395l1.05853,4.88023l1.62322,4.44561l-1.56294,4.20027l3.06984,-1.46354l2.66482,0.34685l1.70887,-0.11633l2.43324,0.82483l-2.28731,3.25912l-8.19539,5.70823l-1.70887,0.11633l-3.70748,-0.14381l-6.12804,-7.57253l1.05429,-10.70266z" fill="#949494" stroke="#000000" stroke-width="2.5" stroke-linecap="round"/><path d="M214.95276,212.07849l-3.12905,-3.28662l0.57843,-3.1428l2.82344,-2.1731l4.95319,0.98344l4.92464,2.50409l0.5943,1.94046z" fill="#242424" stroke="#000000" stroke-width="2.5" stroke-linecap="round"/><path d="M218.99124,204.47422l1.78184,1.92565l-0.94009,4.62008" fill="none" stroke="#000000" stroke-width="2.5" stroke-linecap="round"/></g><g stroke="none" stroke-linecap="butt"><path d="M219.5505,228.584l-3.95211,-4.24142l1.68016,-11.75454l7.43827,-2.40314l2.69256,7.70606l-1.81741,5.83467z" fill="#8c6200" stroke-width="NaN"/><path d="M214.90643,216.69239l2.68807,-4.69185l7.29648,-2.10903l0.64203,3.07521z" fill="#8c0081" stroke-width="NaN"/><path d="M233.77295,225.36595l-9.70048,5.85035l-4.32235,-3.77141l5.82222,-4.4421l3.25337,-0.8058l3.11734,-1.51694l1.33842,0.23868l2.50259,1.12586z" fill="#8c0081" stroke-width="0"/><g fill="#ffffff" stroke-width="0.5"><path d="M221.12686,214.83899c0.00012,-0.00043 0.00024,-0.00088 0.00036,-0.00131c0.07175,-0.2641 0.33586,-0.19235 0.33586,-0.19235c1.2865,0.36387 1.53625,1.5312 0.84833,2.40318c-0.05635,-0.1173 -0.20062,-0.10523 -0.20062,-0.10523c-0.97848,0.08187 -1.95539,0.14502 -2.92547,0.28366c-0.32008,-0.34171 -0.5163,-0.72564 -0.40994,-1.04308c0.14983,-0.44716 0.64135,-0.80279 1.00291,-1.04222c0.49551,-0.27357 0.86415,-0.30225 1.34857,-0.30267zM219.94286,216.06051c0.11296,-0.00945 0.19687,-0.1087 0.18742,-0.22166c-0.00946,-0.11297 -0.1087,-0.19688 -0.22166,-0.18743c-0.11297,0.00946 -0.19687,0.1087 -0.18742,0.22166c0.00945,0.11296 0.1087,0.19687 0.22166,0.18742zM221.61043,215.88664c0.11297,-0.00946 0.19687,-0.1087 0.18742,-0.22167c-0.00945,-0.11298 -0.10869,-0.19688 -0.22165,-0.18743c-0.11297,0.00946 -0.19688,0.1087 -0.18743,0.22166c0.00945,0.11296 0.1087,0.19687 0.22166,0.18742z"/><path d="M223.37439,216.85262c0.37875,-0.0317 0.41045,0.34704 0.41045,0.34704l-0.04623,-0.07134c0.10743,0.18058 0.16555,0.38576 0.19105,0.59955l0.01742,-0.00825l0.00544,0.01149l0.11153,-0.02065l0.08603,0.46444c0.00275,0.01391 0.00476,0.0281 0.00596,0.04255c0.01751,0.20918 -0.13786,0.39295 -0.34704,0.41045c-0.11382,0.00953 -0.22013,-0.03215 -0.29621,-0.10582c-0.00481,0.00479 -0.00762,0.00729 -0.00762,0.00729c-0.44537,0.39377 -0.91492,0.74554 -1.37677,1.10834c0.25593,0.12429 0.51019,0.25407 0.76265,0.39096c0.69561,0.37717 1.57137,0.502 1.97516,1.19128c-0.02744,-0.04729 -0.09574,-0.16502 -0.12469,-0.21493l0.12147,-0.05981l-0.03649,-0.04301l0.30822,-0.26159c0.05884,-0.05121 0.13392,-0.08482 0.21762,-0.09183c0.20918,-0.0175 0.39294,0.13788 0.41044,0.34706c0.00291,0.03465 0.00107,0.06861 -0.00498,0.10121l-0.06162,0.37826l-0.06692,-0.0109c-0.02285,0.33002 -0.15601,0.55875 -0.50349,0.89388c-0.03415,0.10597 -0.11864,0.22639 -0.32512,0.24367c-0.37875,0.0317 -0.41045,-0.34705 -0.41045,-0.34705l0.12218,-0.36302c0.03344,-0.0285 0.06334,-0.05841 0.09062,-0.0889c-0.52108,-0.24578 -1.24111,-0.60928 -1.36982,-0.67053c-0.59882,-0.28495 -1.19191,-0.56423 -1.78678,-0.83652c-0.1448,0.12559 -0.28711,0.25514 -0.42585,0.39046c-0.26823,0.2616 -0.49457,0.55366 -0.73086,0.83845c0.23005,0.12196 0.45576,0.29499 0.70002,0.56857l0.34372,0.29063c0.07427,0.06279 0.12459,0.15394 0.13335,0.25852c0.0175,0.20919 -0.13787,0.39296 -0.34705,0.41045c-0.04732,0.00395 -0.09333,-0.00093 -0.13641,-0.01328l-0.72686,-0.19009l0.00764,-0.02924c-0.63336,-0.0616 -1.12766,-0.23759 -1.88361,-0.71097l-0.14612,-0.11854c0,0 -0.29022,-0.24541 -0.04482,-0.53564c0.0239,-0.02826 0.04823,-0.05146 0.07268,-0.07028c0.00295,-0.03122 0.00979,-0.06473 0.02136,-0.10064c0.11642,-0.3618 0.47822,-0.24539 0.47822,-0.24539c0.28809,0.09397 0.5396,0.15477 0.76968,0.21521c0.32916,-0.3632 0.60551,-0.76668 0.95963,-1.1132c0.06501,-0.06363 0.13093,-0.12599 0.19758,-0.18729c-0.53535,-0.23836 -1.07469,-0.4707 -1.6234,-0.69604c-0.20424,0.28253 -0.45095,0.48704 -0.72795,0.43411c-1.28609,-0.24574 0.1626,-1.87454 0.47907,-2.14361l0.23417,-0.11874c0,0 0.3493,-0.14985 0.49913,0.19945c0.00864,0.02013 0.0156,0.03959 0.02109,0.05841c0.79222,-0.09836 1.58869,-0.15387 2.38622,-0.21927c-0.05148,0.0434 -0.10582,0.08544 -0.16302,0.12596c-0.08804,0.06236 -0.82904,0.5949 -0.93448,0.61566c-0.31295,0.06161 -0.83039,-0.15656 -1.28043,-0.48917c0.00507,0.02439 0.00758,0.04761 0.00793,0.06966c0.11453,0.15957 0.03348,0.36239 0.03348,0.36239c-0.04185,0.10406 -0.10304,0.25976 -0.18123,0.43293c0.64799,0.25822 1.28902,0.51575 1.921,0.79628c0.54724,-0.43898 1.11443,-0.84977 1.63966,-1.32025c0,0 0.03015,-0.02682 0.07954,-0.05315c-0.15697,-0.16076 -0.29717,-0.33912 -0.42312,-0.52427c0,0 -0.21164,-0.31569 0.10405,-0.52734c0.21365,-0.14322 0.37963,-0.04493 0.46462,0.03357c0.04087,-0.01917 0.09008,-0.03264 0.14934,-0.03759z"/></g></g></g><path d="M227.64516,191.2756l-13.01032,11.16319l-8.00817,-7.78167l-0.49338,-1.51507l9.99182,-11.85595l5.90277,-3.48626l5.02693,1.71444l2.82377,4.5545l-0.02328,3.35904z" data-paper-data="{&quot;index&quot;:null}" fill="#949494" stroke="#000000" stroke-width="2.5" stroke-linecap="round"/><g data-paper-data="{&quot;index&quot;:null}"><g><path d="M275.1259,194.17382l-5.30223,-2.6736l2.24582,-4.45387l5.30223,2.6736z" fill="#000000" stroke="none" stroke-width="0" stroke-linecap="butt"/><path d="M304.29013,200.76067c0,0 0.72168,1.04279 -0.12595,1.64022c-2.22113,1.56549 -13.69279,8.09937 -13.69279,8.09937l-16.03242,-7.24004c0,0 4.8769,-5.49611 6.61963,-7.87954c0.6761,-0.92467 11.37865,3.33395 12.03603,2.89137c0.68331,-0.46004 0.10248,3.2644 0.58289,3.91592c0.54242,0.73563 2.12708,-1.57197 2.58632,-1.84953c1.29393,-0.78204 3.9048,-1.80495 3.9048,-1.80495l4.12147,2.22719z" fill="#949494" stroke="#000000" stroke-width="2.5" stroke-linecap="butt"/><path d="M272.52454,203.30712l0.45576,-10.26684l2.20238,-2.0101l2.52267,-0.5477l2.52162,1.23093l1.51678,2.96882z" fill="#242424" stroke="#000000" stroke-width="2.5" stroke-linecap="butt"/><path d="M277.68256,198.52445l-2.1177,0.16977l-1.7156,-1.46096" fill="none" stroke="#000000" stroke-width="2.5" stroke-linecap="round"/><path d="M293.43688,201.63071l1.32242,5.86167" fill="none" stroke="#000000" stroke-width="2.5" stroke-linecap="round"/></g><g stroke="none" stroke-linecap="butt"><path d="M291.37065,209.16145l-15.30993,-5.66993l5.46175,-8.60605l2.71975,1.87023l7.74206,2.78631z" fill="#8c6200" stroke-width="NaN"/><path d="M279.75382,204.78292l-3.58964,-1.57369l5.60012,-8.02458l2.84079,2.02628z" fill="#8c0081" stroke-width="NaN"/><path d="M291.14417,209.55429l-2.0925,-10.71198l2.96013,0.54784l2.38399,3.56124l2.48265,-1.82678l3.26773,-1.15795l1.30323,0.3872l2.36061,1.39928z" fill="#8c0081" stroke-width="0"/><g fill="#ffffff" stroke-width="0.5"><path d="M281.45624,201.42182c-0.00034,-0.0003 -0.00068,-0.0006 -0.00102,-0.0009c-0.20512,-0.18117 -0.02395,-0.3863 -0.02395,-0.3863c0.8954,-0.99284 2.05279,-0.7005 2.53054,0.30218c-0.13013,-0.00135 -0.18311,0.13339 -0.18311,0.13339c-0.35938,0.91377 -0.73487,1.81784 -1.03963,2.74918c-0.44804,0.13592 -0.87916,0.14209 -1.11681,-0.09373c-0.33477,-0.33217 -0.4363,-0.93031 -0.4911,-1.36047c-0.02618,-0.56541 0.11117,-0.90871 0.32507,-1.34334zM281.91213,202.7579c-0.10549,-0.0415 -0.22464,0.01039 -0.26614,0.11589c-0.0415,0.10549 0.01039,0.22464 0.11589,0.26614c0.10549,0.0415 0.22464,-0.01039 0.26614,-0.11589c0.0415,-0.10549 -0.01039,-0.22464 -0.11589,-0.26614zM282.60969,201.45157c0.0415,-0.10549 -0.01039,-0.22464 -0.11589,-0.26614c-0.10549,-0.0415 -0.22464,0.01039 -0.26614,0.11589c-0.04149,0.10549 0.01039,0.22464 0.11589,0.26614c0.1055,0.04149 0.22465,-0.01039 0.26614,-0.11589z"/><path d="M284.25631,200.29683c0.1391,-0.35369 0.49281,-0.21459 0.49281,-0.21459l-0.08443,0.00991c0.20947,-0.01647 0.41919,0.02215 0.62222,0.09385l0.00031,-0.01929l0.01271,0.00021l0.03081,-0.10917l0.45459,0.12828c0.01369,0.00368 0.02731,0.00816 0.0408,0.01348c0.19534,0.07683 0.29143,0.29746 0.21459,0.49281c-0.0418,0.1063 -0.12621,0.18319 -0.22592,0.21884c0.00216,0.00644 0.00316,0.01007 0.00316,0.01007c0.15615,0.57362 0.26393,1.15034 0.38501,1.72502c0.22468,-0.17455 0.45354,-0.34518 0.68798,-0.51105c0.64595,-0.45702 1.14528,-1.18723 1.94207,-1.24448c-0.05454,0.00368 -0.19034,0.01286 -0.2479,0.01675l0.00009,-0.1354l-0.05472,0.01371l-0.09828,-0.39214c-0.01989,-0.07542 -0.01683,-0.15763 0.0139,-0.23578c0.07683,-0.19535 0.29746,-0.29143 0.49281,-0.21459c0.03236,0.01273 0.062,0.0294 0.08857,0.04925l0.31198,0.22259l-0.03937,0.05519c0.28587,0.16647 0.4321,0.38708 0.57896,0.84694c0.07994,0.07751 0.15055,0.20654 0.07472,0.39937c-0.13911,0.3537 -0.49281,0.21459 -0.49281,0.21459l-0.27154,-0.27015c-0.01076,-0.04259 -0.02435,-0.08265 -0.03965,-0.1206c-0.45092,0.35862 -1.09541,0.84359 -1.20728,0.93193c-0.52044,0.411 -1.03325,0.81938 -1.54059,1.23245c0.04859,0.18542 0.10183,0.37036 0.16182,0.55464c0.11597,0.35628 0.27779,0.68845 0.42869,1.02634c0.21114,-0.15237 0.46616,-0.27826 0.81957,-0.37631l0.41268,-0.17971c0.08918,-0.03884 0.19318,-0.04364 0.29084,-0.00523c0.19535,0.07683 0.29143,0.29746 0.21459,0.49281c-0.01738,0.04419 -0.04211,0.0833 -0.07225,0.11647l-0.492,0.5678l-0.02284,-0.01979c-0.33541,0.5408 -0.71189,0.90625 -1.47082,1.37483l-0.17095,0.07861c0,0 -0.34848,0.15174 -0.50022,-0.19673c-0.01478,-0.03394 -0.02481,-0.06601 -0.03088,-0.09626c-0.02669,-0.01645 -0.05371,-0.03741 -0.08081,-0.06367c-0.27298,-0.26444 -0.00854,-0.53743 -0.00854,-0.53743c0.21172,-0.21681 0.37749,-0.41548 0.53347,-0.5951c-0.18013,-0.45586 -0.41978,-0.88218 -0.5739,-1.35305c-0.0283,-0.08646 -0.05508,-0.17314 -0.08057,-0.26004c-0.45059,0.3747 -0.89752,0.75563 -1.34233,1.14806c0.16304,0.30814 0.23733,0.61986 0.06734,0.84488c-0.78928,1.04473 -1.60927,-0.97502 -1.71058,-1.37785l-0.00291,-0.26254c0,0 0.02012,-0.37955 0.39966,-0.35942c0.02188,0.00116 0.04241,0.00352 0.06171,0.00692c0.26221,-0.754 0.56474,-1.49287 0.85885,-2.23707c0.01616,0.06536 0.02984,0.13271 0.04087,0.20192c0.01699,0.10654 0.16683,1.00667 0.13881,1.11041c-0.08318,0.30793 -0.50773,0.67549 -1.0051,0.93199c0.02412,0.00625 0.04605,0.01427 0.06598,0.0237c0.19378,-0.03213 0.33983,0.13027 0.33983,0.13027c0.07482,0.08356 0.1874,0.20731 0.30811,0.35403c0.51821,-0.46693 1.03273,-0.92792 1.56387,-1.37063c-0.15164,-0.68498 -0.26916,-1.37537 -0.45879,-2.05453c0,0 -0.01071,-0.0389 -0.01249,-0.09484c-0.21361,0.06967 -0.4356,0.1165 -0.65736,0.14757c0,0 -0.37675,0.05018 -0.42692,-0.32657c-0.03396,-0.25496 0.12761,-0.36035 0.23562,-0.40185c0.00088,-0.04512 0.01057,-0.09522 0.03235,-0.15056z"/></g></g></g><g data-paper-data="{&quot;index&quot;:null}"><g stroke="#000000" stroke-width="2.5"><path d="M263.58217,162.21559c0,0 0.53837,-1.44014 0.2924,-2.59638c-0.22001,-1.03417 -1.699,-4.01578 -1.699,-4.01578c0,0 -4.42202,-3.8834 -3.72433,-7.17851c0.0792,-0.37405 2.44645,-8.44758 7.74097,-12.56993c3.78428,-2.94648 10.78121,-2.51187 11.63884,-2.04759c0.66293,0.35888 4.98373,1.29289 8.82782,3.55012c5.4174,3.18108 10.27186,7.6159 10.27186,7.6159l-3.51806,13.30708l-20.74526,-2.45162l-0.11593,7.3968z" fill="#949494" stroke-linecap="butt"/><path d="M295.30972,152.16411l-12.68948,-4.05837l-2.93234,-3.67663l-2.18805,-10.28558l10.69488,4.78985l8.17505,5.94024z" fill="#000000" stroke-linecap="round"/><path d="M280.20993,146.16109l-1.65224,-0.18607" fill="none" stroke-linecap="round"/><path d="M277.34774,148.22905l2.33376,0.50186" fill="none" stroke-linecap="round"/><path d="M277.76344,150.90518l-1.38963,-0.39553" fill="none" stroke-linecap="round"/><path d="M291.77004,158.09239c0,0 -12.36886,-1.79143 -18.81924,-1.95103c-1.58707,-0.03927 -0.43254,1.94311 -1.41337,1.84362c-8.69024,-0.88147 -9.35978,-3.01731 -10.0514,-4.09289c-1.71781,-2.67143 -3.5282,-6.18626 -3.35652,-6.7546c0.22076,-0.73082 2.13848,-2.28858 2.13848,-2.28858l3.72782,1.96461l5.21613,2.49965l5.53191,1.81813l9.88685,1.35247l7.54669,5.15239" fill="#373737" stroke-linecap="round"/><path d="M291.17931,160.35418l-1.20995,2.25401l-12.27377,-1.38225l-2.54321,-0.76447l-0.67831,-2.46667l0.68472,-1.83511l1.33966,-1.2833l1.36304,0.63156l1.02068,1.54912l0.81122,1.2865z" fill="#000000" stroke-linecap="round"/><path d="M267.75424,161.25129l0.52844,-2.56979" fill="none" stroke-linecap="round"/><path d="M264.32326,157.75753l8.41748,1.66505" fill="none" stroke-linecap="round"/><path d="M269.81064,136.62399l-1.41941,1.9914l0.23283,2.17747l-3.32785,-2.287l0.74109,-4.45807l3.72979,-3.4044l1.20355,2.04776l-0.13611,3.33106z" fill="#151515" stroke-linecap="round"/><path d="M270.10653,140.36421l-3.35764,0.09992l-1.28009,-3.49055l1.10362,-1.30988l2.59958,-1.85849l1.91486,-0.02338l1.07384,1.07704l1.04726,1.31308l0.17967,2.64954z" fill="none" stroke-linecap="round"/></g><path d="M291.06078,141.67449c2.4679,1.03823 2.89768,2.60202 2.28739,4.35419c-0.61029,1.75217 -2.62386,2.64357 -4.49744,1.99098c-1.87358,-0.65258 -2.89768,-2.60202 -2.28739,-4.35419c0.61029,-1.75217 1.95536,-3.06041 4.49744,-1.99098z" fill="#54ff00" stroke="none" stroke-width="0" stroke-linecap="butt"/><path d="M281.28144,142.68956c-1,-0.00149 -0.99852,-1.00149 -0.99852,-1.00149l0.12027,-1.37701c0.77112,-1.43385 1.44422,-2.52493 2.77184,-3.48773c0,0 0.81706,-0.57654 1.39361,0.24052c0.57654,0.81706 -0.24052,1.39361 -0.24052,1.39361c-1.08668,0.73823 -1.55109,1.65776 -2.16277,2.79953l0.11757,0.43406c0,0 -0.00149,1 -1.00149,0.99852z" fill="#54ff00" stroke="none" stroke-width="0.5" stroke-linecap="butt"/></g></g></g></svg>