<svg version="1.1" xmlns="http://www.w3.org/2000/svg" xmlns:xlink="http://www.w3.org/1999/xlink" width="564" height="927.18206" viewBox="0,0,564,927.18206"><defs><linearGradient x1="238" y1="-461.75" x2="238" y2="399.75" gradientUnits="userSpaceOnUse" id="color-1"><stop offset="0" stop-color="#00c1ff"/><stop offset="1" stop-color="#2900ff"/></linearGradient></defs><g transform="translate(25,461.75)"><g data-paper-data="{&quot;isPaintingLayer&quot;:true}" fill-rule="nonzero" stroke-linecap="butt" stroke-linejoin="miter" stroke-miterlimit="10" stroke-dasharray="" stroke-dashoffset="0" style="mix-blend-mode: normal"><g stroke="none" stroke-width="0"><path d="M-10.5,399.75v-861.5h497v861.5z" fill="url(#color-1)"/><g fill="#ffffff"><path d="M300.5,-53.80925c0,12.31308 -29.77306,22.2948 -66.5,22.2948c-36.72694,0 -66.5,-9.98172 -66.5,-22.2948c0,-12.31308 29.77306,-22.2948 66.5,-22.2948c36.72694,0 66.5,9.98172 66.5,22.2948z"/><path d="M278.97399,-80.33237c0,10.40243 -19.96344,18.83526 -44.5896,18.83526c-24.62615,0 -44.5896,-8.43283 -44.5896,-18.83526c0,-10.40243 19.96344,-18.83526 44.5896,-18.83526c24.62615,0 44.5896,8.43283 44.5896,18.83526z"/><path d="M172.8815,-81.48555c0,-13.58684 11.01431,-24.60116 24.60116,-24.60116c13.58684,0 24.60116,11.01431 24.60116,24.60116c0,13.58684 -11.01431,24.60116 -24.60116,24.60116c-13.58684,0 -24.60116,-11.01431 -24.60116,-24.60116z"/><path d="M215.16474,-94.55491c0,-15.70979 8.94913,-28.44509 19.98844,-28.44509c11.03931,0 19.98844,12.7353 19.98844,28.44509c0,15.70979 -8.94913,28.44509 -19.98844,28.44509c-11.03931,0 -19.98844,-12.7353 -19.98844,-28.44509z"/><path d="M245.91618,-82.25434c0,-14.01143 11.35851,-25.36994 25.36994,-25.36994c14.01143,0 25.36994,11.35851 25.36994,25.36994c0,14.01143 -11.35851,25.36994 -25.36994,25.36994c-14.01143,0 -25.36994,-11.35851 -25.36994,-25.36994z"/></g><g fill="#ffffff"><path d="M462.5,-61.07225c0,11.10954 -26.86292,20.11561 -60,20.11561c-33.13708,0 -60,-9.00606 -60,-20.11561c0,-11.10954 26.86292,-20.11561 60,-20.11561c33.13708,0 60,9.00606 60,20.11561z"/><path d="M443.07803,-85.00289c0,9.38565 -18.01213,16.99422 -40.23121,16.99422c-22.21909,0 -40.23121,-7.60857 -40.23121,-16.99422c0,-9.38565 18.01213,-16.99422 40.23121,-16.99422c22.21909,0 40.23121,7.60857 40.23121,16.99422z"/><path d="M347.35549,-86.04335c0,-12.2588 9.93773,-22.19653 22.19653,-22.19653c12.2588,0 22.19653,9.93773 22.19653,22.19653c0,12.2588 -9.93773,22.19653 -22.19653,22.19653c-12.2588,0 -22.19653,-9.93773 -22.19653,-22.19653z"/><path d="M385.50578,-97.83526c0,-14.17424 8.0744,-25.66474 18.03468,-25.66474c9.96028,0 18.03468,11.4905 18.03468,25.66474c0,14.17424 -8.0744,25.66474 -18.03468,25.66474c-9.96028,0 -18.03468,-11.4905 -18.03468,-25.66474z"/><path d="M413.25145,-86.73699c0,-12.64189 10.24828,-22.89017 22.89017,-22.89017c12.64189,0 22.89017,10.24828 22.89017,22.89017c0,12.64189 -10.24828,22.89017 -22.89017,22.89017c-12.64189,0 -22.89017,-10.24828 -22.89017,-22.89017z"/></g><g fill="#ffffff"><path d="M311.79412,20.8322c0,7.71133 -18.64603,13.9626 -41.64706,13.9626c-23.00103,0 -41.64706,-6.25126 -41.64706,-13.9626c0,-7.71133 18.64603,-13.9626 41.64706,-13.9626c23.00103,0 41.64706,6.25126 41.64706,13.9626z"/><path d="M298.31299,4.22153c0,6.51474 -12.50253,11.79599 -27.92519,11.79599c-15.42266,0 -27.92519,-5.28124 -27.92519,-11.79599c0,-6.51474 12.50253,-11.79599 27.92519,-11.79599c15.42266,0 27.92519,5.28124 27.92519,11.79599z"/><path d="M231.87028,3.49932c0,-8.50905 6.89795,-15.40701 15.40701,-15.40701c8.50905,0 15.40701,6.89795 15.40701,15.40701c0,8.50905 -6.89795,15.40701 -15.40701,15.40701c-8.50905,0 -15.40701,-6.89795 -15.40701,-15.40701z"/><path d="M258.35107,-4.68565c0,-9.83859 5.60459,-17.81435 12.51819,-17.81435c6.91361,0 12.51819,7.97575 12.51819,17.81435c0,9.83859 -5.60459,17.81435 -12.51819,17.81435c-6.91361,0 -12.51819,-7.97575 -12.51819,-17.81435z"/><path d="M277.60983,3.01785c0,-8.77496 7.11351,-15.88847 15.88847,-15.88847c8.77496,0 15.88847,7.11351 15.88847,15.88847c0,8.77496 -7.11351,15.88847 -15.88847,15.88847c-8.77496,0 -15.88847,-7.11351 -15.88847,-15.88847z"/></g><g fill="#ffffff"><path d="M151.5,-26.30925c0,12.31308 -29.77307,22.2948 -66.5,22.2948c-36.72693,0 -66.5,-9.98172 -66.5,-22.2948c0,-12.31307 29.77307,-22.29479 66.5,-22.29479c36.72693,0 66.5,9.98172 66.5,22.29479z"/><path d="M129.97399,-52.83237c0,10.40242 -19.96344,18.83526 -44.58959,18.83526c-24.62615,0 -44.5896,-8.43283 -44.5896,-18.83526c0,-10.40242 19.96344,-18.83526 44.5896,-18.83526c24.62616,0 44.58959,8.43284 44.58959,18.83526z"/><path d="M23.88151,-53.98555c0,-13.58684 11.01431,-24.60115 24.60115,-24.60115c13.58684,0 24.60116,11.01431 24.60116,24.60115c0,13.58684 -11.01431,24.60116 -24.60116,24.60116c-13.58684,0 -24.60115,-11.01431 -24.60115,-24.60116z"/><path d="M66.16474,-67.05491c0,-15.70979 8.94913,-28.44509 19.98844,-28.44509c11.03931,0 19.98844,12.7353 19.98844,28.44509c0,15.70979 -8.94913,28.44509 -19.98844,28.44509c-11.03931,0 -19.98844,-12.7353 -19.98844,-28.44509z"/><path d="M96.91619,-54.75433c0,-14.01143 11.35851,-25.36994 25.36994,-25.36994c14.01143,0 25.36995,11.35851 25.36995,25.36994c0,14.01143 -11.35852,25.36994 -25.36994,25.36994c-14.01143,0 -25.36994,-11.35851 -25.36994,-25.36994z"/></g><g fill="#ffffff"><path d="M141.94538,89.0843c0,13.09494 -31.66363,23.7105 -70.72269,23.7105c-39.05906,0 -70.72269,-10.61554 -70.72269,-23.7105c0,-13.09494 31.66363,-23.7105 70.72269,-23.7105c39.05906,0 70.72269,10.61554 70.72269,23.7105z"/><path d="M119.05249,60.87699c0,11.06297 -21.2311,20.03128 -47.42099,20.03128c-26.18989,0 -47.42099,-8.96831 -47.42099,-20.03128c0,-11.06297 21.2311,-20.03128 47.42099,-20.03128c26.18989,0 47.42099,8.96831 47.42099,20.03128z"/><path d="M6.22322,59.65058c0,-14.44959 11.71371,-26.16331 26.16331,-26.16331c14.44959,0 26.16331,11.71371 26.16331,26.16331c0,14.44959 -11.71371,26.16331 -26.16331,26.16331c-14.44959,0 -26.16331,-11.71371 -26.16331,-26.16331z"/><path d="M51.19141,45.75132c0,-16.70735 9.51739,-30.25132 21.25769,-30.25132c11.7403,0 21.25769,13.54398 21.25769,30.25132c0,16.70735 -9.51739,30.25132 -21.25769,30.25132c-11.7403,0 -21.25769,-13.54398 -21.25769,-30.25132z"/><path d="M83.89554,58.83298c0,-14.90115 12.07977,-26.98091 26.98091,-26.98091c14.90115,0 26.98091,12.07977 26.98091,26.98091c0,14.90115 -12.07977,26.98091 -26.98091,26.98091c-14.90115,0 -26.98091,-12.07977 -26.98091,-26.98091z"/></g><g fill="#ffffff"><path d="M330.5,123.80058c0,15.46078 -37.38423,27.99422 -83.5,27.99422c-46.11577,0 -83.5,-12.53343 -83.5,-27.99422c0,-15.46078 37.38423,-27.99422 83.5,-27.99422c46.11577,0 83.5,12.53343 83.5,27.99422z"/><path d="M303.4711,90.49711c0,13.06169 -25.06688,23.65028 -55.98843,23.65028c-30.92156,0 -55.98843,-10.58859 -55.98843,-23.65028c0,-13.06169 25.06688,-23.65028 55.98843,-23.65028c30.92156,0 55.98843,10.58859 55.98843,23.65028z"/><path d="M170.25722,89.04913c0,-17.06017 13.83,-30.89018 30.89018,-30.89018c17.06017,0 30.89018,13.83 30.89018,30.89018c0,17.06017 -13.83,30.89018 -30.89018,30.89018c-17.06017,0 -30.89018,-13.83 -30.89018,-30.89018z"/><path d="M223.34972,72.63873c0,-19.72582 11.23688,-35.71676 25.09827,-35.71676c13.86139,0 25.09827,15.99094 25.09827,35.71676c0,19.72582 -11.23688,35.71676 -25.09827,35.71676c-13.86139,0 -25.09827,-15.99094 -25.09827,-35.71676z"/><path d="M261.96243,88.08382c0,-17.5933 14.26219,-31.85549 31.85549,-31.85549c17.5933,0 31.85549,14.26219 31.85549,31.85549c0,17.5933 -14.26219,31.85549 -31.85549,31.85549c-17.5933,0 -31.85549,-14.26219 -31.85549,-31.85549z"/></g><g fill="#ffffff"><path d="M457.5,72.47551c0,11.20702 -22.16191,20.29211 -49.5,20.29211c-27.33809,0 -49.5,-9.08508 -49.5,-20.29211c0,-11.20702 22.16191,-20.29211 49.5,-20.29211c27.33809,0 49.5,9.08508 49.5,20.29211z"/><path d="M441.47688,48.3349c0,9.468 -14.86,17.14333 -33.19075,17.14333c-18.33074,0 -33.19075,-7.67533 -33.19075,-17.14333c0,-9.468 14.86,-17.14333 33.19075,-17.14333c18.33074,0 33.19075,7.67533 33.19075,17.14333z"/><path d="M362.50578,47.2853c0,-12.36637 8.19862,-22.3913 18.31214,-22.3913c10.11351,0 18.31214,10.02492 18.31214,22.3913c0,12.36637 -8.19862,22.3913 -18.31214,22.3913c-10.11351,0 -18.31214,-10.02492 -18.31214,-22.3913z"/><path d="M393.97977,35.38993c0,-14.29862 6.66138,-25.88993 14.87861,-25.88993c8.21723,0 14.87861,11.59132 14.87861,25.88993c0,14.29862 -6.66138,25.88993 -14.87861,25.88993c-8.21723,0 -14.87861,-11.59132 -14.87861,-25.88993z"/><path d="M416.86994,46.58558c0,-12.75282 8.45483,-23.09102 18.88439,-23.09102c10.42956,0 18.88439,10.3382 18.88439,23.09102c0,12.75282 -8.45483,23.09102 -18.88439,23.09102c-10.42956,0 -18.88439,-10.3382 -18.88439,-23.09102z"/></g></g><g><path d="M93.69415,152.45574v-38.18024h8.68252v38.18024z" fill="#fffe00" stroke="#abab00" stroke-width="5"/><path d="M72.78448,94.75474c0,-14.2106 11.51997,-25.73056 25.73056,-25.73056c14.2106,0 25.73056,11.51997 25.73056,25.73056c0,14.2106 -11.51997,25.73056 -25.73056,25.73056c-14.2106,0 -25.73056,-11.51997 -25.73056,-25.73056z" fill="#fffe00" stroke="#abab00" stroke-width="5"/><path d="M111.53114,104.66578c0,3.19493 -6.99301,5.78493 -15.61931,5.78493c-8.62631,0 -15.61931,-2.59 -15.61931,-5.78493c0,-3.19493 6.99301,-5.78493 15.61931,-5.78493c8.62631,0 15.61931,2.59 15.61931,5.78493z" fill="#000000" stroke="none" stroke-width="0"/><path d="M117.56877,90.82571c0.82484,0.32994 0.49491,1.15478 0.49491,1.15478l-0.30898,0.61631c-0.59195,0.35885 -0.8872,0.88904 -1.64849,1.02735c-1.01815,0.18498 -2.07508,0.03906 -3.0677,0.38593c0,0 -0.22623,0.07541 -0.48334,0.03088c-0.11512,0.3495 -0.36337,0.62898 -0.53987,0.94041c-0.07918,0.1397 -0.09976,0.31244 -0.19887,0.43878c-0.32207,0.41058 -0.86918,0.77187 -1.30746,1.03616c-0.15619,0.05048 -0.31897,0.09566 -0.48578,0.13346c0.2538,0.28686 0.50202,0.58233 0.77057,0.87335c0.69571,0.75392 1.81704,1.63207 2.05882,2.69619c0.14597,0.64244 0.10395,1.31709 0.10395,1.97049v0.27577c0,0 0,0.88839 -0.88839,0.88839c-0.88839,0 -0.88839,-0.88839 -0.88839,-0.88839v-0.27577c0,-0.47763 0.05394,-1.00536 -0.03394,-1.47664c-0.0366,-0.19628 -0.29383,-0.46351 -0.40046,-0.59911c-0.24538,-0.31207 -0.47111,-0.59921 -0.7532,-0.88108c-0.74425,-0.74368 -1.33885,-1.6307 -2.17995,-2.26152c0,0 -0.23662,-0.17747 -0.3344,-0.46414c-0.17715,-0.01401 -0.35495,-0.03547 -0.52396,-0.09569c-0.67303,-0.23983 -1.09304,-0.76942 -1.54567,-1.28195c-0.13619,-0.15422 -0.31573,-0.27345 -0.42441,-0.44815c-0.1841,-0.29592 -0.20023,-0.66872 -0.26858,-1.01047c-0.02427,-0.12135 -0.12217,-0.22196 -0.13788,-0.34471c-0.01904,-0.14868 -0.01603,-1.06092 -0.01603,-1.34002c0,0 0,-0.31544 0.18796,-0.57039c-0.01645,-0.04107 -0.03354,-0.08232 -0.0514,-0.12377c-0.05291,-0.1228 -0.12565,-0.23747 -0.18904,-0.35568c-0.00983,0.00169 -0.01953,0.00466 -0.02908,0.00916c-0.11344,0.05347 -0.12005,0.23033 -0.2214,0.3042c-0.21601,0.15744 -0.49974,0.20817 -0.70928,0.37414c-0.23743,0.18805 -0.32854,0.51202 -0.53066,0.73759c-0.35908,0.40074 -0.76533,0.76849 -1.14603,1.14919l-0.13788,0.13788c0,0 -0.62818,0.62818 -1.25637,0c-0.62818,-0.62818 0,-1.25637 0,-1.25637l0.13788,-0.13788c0.35129,-0.35129 0.72692,-0.68888 1.06013,-1.05697c0.25948,-0.28665 0.41522,-0.66718 0.7103,-0.91703c0.23555,-0.19944 0.5535,-0.27776 0.80745,-0.45317c0.21954,-0.15165 0.35625,-0.42895 0.60591,-0.52311c0.11586,-0.04369 0.23762,-0.06038 0.36188,-0.06569c-0.01421,-0.26727 -0.01582,-0.5403 -0.01404,-0.8371c0.00154,-0.25731 -0.01369,-0.527 -0.00195,-0.79273c-0.24388,-0.03468 -0.48501,-0.0833 -0.70744,-0.12414c-1.19436,-0.2193 -2.43153,-0.54582 -3.44626,-1.24023c-0.22305,-0.15264 -0.47409,-0.28056 -0.64788,-0.48755c-0.49197,-0.58598 -0.54551,-1.06893 -0.50503,-1.76766c0.01526,-0.26345 -0.04277,-0.54856 0.05437,-0.79176c-0.2612,-0.26322 -0.2612,-0.65602 -0.2612,-0.65602v-0.13788c0,-0.18006 -0.00696,-0.87469 0.02376,-1.03142c0.01977,-0.10085 0.11773,-0.17499 0.13788,-0.27577c0.02704,-0.13521 -0.03406,-0.28004 0,-0.41366c0.04626,-0.1815 0.17937,-0.33148 0.23548,-0.51018c0.30374,-0.9674 0.35761,-1.64326 1.08426,-2.44434c0.55526,-0.61213 1.23209,-0.7225 2.06228,-0.82624c1.84091,-0.23003 3.63084,0.27936 4.84799,1.75615c0.38291,0.46459 0.72908,0.98124 0.92814,1.54943c0.1431,0.40847 0.10949,2.30519 0.10958,2.74756c0.00008,0.37793 0.00229,1.60714 -0.01882,1.69863c-0.17822,0.77239 -0.52313,1.31551 -0.93679,1.87095c0.47201,0.25426 0.88353,0.63312 1.26502,1.04101c0.22357,-0.46618 0.80154,-0.46618 0.80154,-0.46618c0.21537,0 1.06829,-0.00039 1.10188,0.00259c1.2435,0.11027 2.4313,0.54691 3.6702,0.71499l0.45277,0.17327c0,0 0.82484,0.32994 0.49491,1.15478c-0.32994,0.82484 -1.15478,0.49491 -1.15478,0.49491l-0.23666,-0.1025c-0.88758,-0.09828 -1.71281,-0.35251 -2.58019,-0.54228c-0.43528,-0.09523 -0.84414,-0.11487 -1.26678,-0.1185c0.36491,0.30468 0.73532,0.60041 1.04619,0.97739c0.20219,0.2452 0.355,0.5842 0.59971,0.7976c0.32728,0.28542 0.89159,0.6235 1.11357,1.01081c0.13093,0.22844 0.17659,0.45284 0.19192,0.68242c1.02513,-0.30233 2.09014,-0.28403 3.14634,-0.40165c0.33432,-0.03723 0.37978,-0.39468 0.69555,-0.48938l-0.03321,-0.07311c0,0 0.32994,-0.82484 1.15478,-0.49491zM100.37923,81.74449c0.29507,-0.24543 0.54813,-0.46391 0.94868,-0.63966c0,0 0.82484,-0.32994 1.15478,0.49491c0.32994,0.82484 -0.49491,1.15478 -0.49491,1.15478c-0.31352,0.0924 -0.56835,0.44149 -0.82115,0.6367c-0.14586,0.11264 -0.296,0.22016 -0.45129,0.31939c-0.05154,0.03293 -0.14176,0.02011 -0.16712,0.07577c-0.02181,0.04788 0.06039,0.09051 0.06762,0.14263c0.02118,0.15266 -0.06009,0.3103 -0.02976,0.46141c0.03855,0.19204 0.73001,0.54974 0.84064,0.60153c1.28479,0.60135 2.70108,0.81489 4.10435,0.80309c0.15304,-0.28449 0.71166,-1.28634 0.7726,-1.56532c0.06064,-0.27761 -0.01481,-0.56812 -0.01882,-0.85224c-0.0083,-0.58874 0.0079,-1.17765 0.00038,-1.76641c-0.00397,-0.31095 0.06903,-0.63726 -0.02868,-0.93248c-0.1155,-0.34896 -0.34866,-0.65404 -0.58859,-0.9325c-1.09128,-1.26651 -2.64139,-1.38386 -4.17291,-0.94731c-0.28697,0.0818 -0.49951,0.70723 -0.57231,0.97433c-0.18734,0.68733 -0.35906,1.29597 -0.5375,1.94703c-0.00222,0.0081 -0.00422,0.01622 -0.00602,0.02436zM106.83872,93.56176c-0.10941,0.07294 -0.21343,0.11889 -0.31124,0.14424c0.27394,0.29918 0.62485,0.86446 1.00302,0.96503c0.3138,0.08345 0.64012,0.04743 0.94993,0.11356c0.10051,0.02145 0.17665,0.11072 0.27577,0.13788c0.24349,0.06674 0.76159,0.0113 1.01035,-0.08037c0.18471,-0.10911 0.4972,-0.31588 0.62293,-0.48057c0.05303,-0.06946 0.03527,-0.17381 0.0769,-0.25064c0.07489,-0.13821 0.35711,-0.41736 0.39244,-0.59618c0.06059,-0.30669 -0.08521,-0.69623 -0.01944,-1.01826c0.00033,-0.00159 0.00104,-0.00271 0.00208,-0.00342c-0.13154,-0.09009 -0.22863,-0.22855 -0.34902,-0.33501c-0.12414,-0.10978 -0.29064,-0.16473 -0.41366,-0.27577c-0.31186,-0.28152 -0.52046,-0.67563 -0.77914,-0.9949c-0.43411,-0.53581 -1.04713,-0.9041 -1.53418,-1.38758c-0.42768,-0.48878 -0.88506,-1.06949 -1.42319,-1.44911c-0.08461,-0.05969 -0.16781,-0.13457 -0.26939,-0.15464c-0.03351,-0.00662 -0.06862,-0.00604 -0.10451,-0.00142c0.03388,0.40029 -0.09665,0.885 -0.04777,1.26074c0.06271,0.48203 0.22814,0.94971 0.41879,1.39686c0.23033,0.54023 0.26943,1.08523 0.60784,1.57074l0.13788,0.20683c0,0 0.49279,0.73918 -0.24639,1.23197z" fill="#000000" stroke="none" stroke-width="0.5"/></g><path d="M-25,396l22.52252,-38.30631c0,0 40.52702,-190.78249 70.63945,-200.88916c2.3094,-0.77511 77.70831,-14.66208 121.18193,4.47518c61.1652,26.92516 44.94544,79.16133 95.90234,89.80737c50.9569,10.64604 62.40844,-69.67853 98.1552,-49.26438c24.76615,14.14338 57.24966,109.56596 91.77614,157.39026c29.81257,41.29484 63.82242,36.78703 63.82242,36.78703z" fill="#00ff1b" stroke="none" stroke-width="NaN"/><path d="M354.7958,220.95383v-190h37v190z" fill="#904c07" stroke="#5b3005" stroke-width="2.5"/><path d="M464.7958,7.95383c0,45.28735 -38.27965,82 -85.5,82c-47.22035,0 -85.5,-36.71265 -85.5,-82c0,-45.28735 38.27965,-82 85.5,-82c47.22035,0 85.5,36.71265 85.5,82z" fill="#0dff2c" stroke="#089b1b" stroke-width="2.5"/><path d="M220.15616,418.14602v-190h37v190z" fill="#904c07" stroke="#5b3005" stroke-width="2.5"/><path d="M315.14114,170.61149c0,45.28735 -38.27965,82 -85.5,82c-47.22035,0 -85.5,-36.71265 -85.5,-82c0,-45.28735 38.27965,-82 85.5,-82c47.22035,0 85.5,36.71265 85.5,82z" fill="#0dff2c" stroke="#089b1b" stroke-width="2.5"/><g stroke-width="2.5"><path d="M334.76576,375.09798v-190h37v190z" fill="#904c07" stroke="#5b3005"/><path d="M444.76576,162.09798c0,45.28735 -38.27965,82 -85.5,82c-47.22035,0 -85.5,-36.71265 -85.5,-82c0,-45.28735 38.27965,-82 85.5,-82c47.22035,0 85.5,36.71265 85.5,82z" fill="#0dff2c" stroke="#089b1b"/></g><g stroke-width="2.5"><path d="M51.47748,464.18206v-190h37v190z" fill="#904c07" stroke="#5b3005"/><path d="M161.47748,251.18206c0,45.28735 -38.27965,82 -85.5,82c-47.22035,0 -85.5,-36.71265 -85.5,-82c0,-45.28735 38.27965,-82 85.5,-82c47.22035,0 85.5,36.71265 85.5,82z" fill="#0dff2c" stroke="#089b1b"/></g></g></g></svg>