<svg version="1.1" xmlns="http://www.w3.org/2000/svg" xmlns:xlink="http://www.w3.org/1999/xlink" width="114.42706" height="112.21404" viewBox="0,0,114.42706,112.21404"><g transform="translate(-180.48337,-112.16589)"><g data-paper-data="{&quot;isPaintingLayer&quot;:true}" fill-rule="nonzero" stroke-linejoin="miter" stroke-miterlimit="10" stroke-dasharray="" stroke-dashoffset="0" style="mix-blend-mode: normal"><path d="M182.06221,173.65778c0,0 3.49413,-7.6689 6.50201,-10.03002c3.86025,-3.03022 16.37504,-6.47745 16.37504,-6.47745l12.09495,2.37952l-0.60205,25.98732c0,0 -18.41677,-5.04546 -24.56035,-7.1323c-5.53414,-1.87983 -9.80961,-4.72706 -9.80961,-4.72706z" data-paper-data="{&quot;index&quot;:null}" fill="#373737" stroke="#000000" stroke-width="2.5" stroke-linecap="butt"/><path d="M265.55949,124.241c0.58215,6.46217 1.15093,25.54909 1.15093,25.54909l-25.39888,-5.53173l0.53423,-12.31522c0,0 6.29609,-11.35178 10.14979,-14.39031c3.00278,-2.36762 11.27865,-3.95848 11.27865,-3.95848c0,0 1.76088,4.82553 2.28528,10.64664z" data-paper-data="{&quot;index&quot;:null}" fill="#373737" stroke="#000000" stroke-width="2.5" stroke-linecap="butt"/><path d="M214.21008,190.55471l0.2661,-4.82125l40.27981,22.28175l-4.94656,-0.23019c0,0 -16.17631,-2.34186 -22.35359,-5.3317c-5.64026,-2.72992 -13.24576,-11.89861 -13.24576,-11.89861z" fill="#373737" stroke="#000000" stroke-width="2.5" stroke-linecap="butt"/><path d="M261.87282,222.0859l-22.68114,-12.16744c0,0 -1.50974,-5.24841 2.14705,-6.43859c7.65094,-2.49017 41.48055,-14.69338 41.48055,-14.69338c0,0 20.65536,22.44348 2.67115,31.13963c-0.84304,0.40765 -1.73409,0.84183 -2.70656,1.24186c-4.50643,3.7935 -20.91106,0.91793 -20.91106,0.91793z" fill="#373737" stroke="#000000" stroke-width="2.5" stroke-linecap="butt"/><path d="M212.91284,187.27463l2.51293,-30.8024c0,0 8.02487,-6.62458 15.82519,-9.48702c7.50843,-2.75534 14.64594,-1.77542 22.44694,-0.64681c7.87663,1.13955 14.52103,7.82866 18.47948,10.13613c12.8795,7.50775 21.13544,35.84629 21.13544,35.84629c0,0 -17.33552,2.71778 -22.28897,4.91801c-7.23992,3.21584 -16.95741,12.51451 -16.95741,12.51451c0,0 -12.08161,-8.82154 -16.09235,-9.50095c0,0 -8.52473,-2.22103 -11.85974,-3.94804c-4.60302,-2.38364 -13.2015,-9.02971 -13.2015,-9.02971z" fill="#949494" stroke="#000000" stroke-width="2.5" stroke-linecap="butt"/><path d="M248.49661,196.20456c0,0 -13.47104,-0.89234 -21.80933,-7.36802c-4.90845,-3.812 -5.70233,-13.00404 -7.19431,-15.83756c-2.1627,-4.10736 1.00586,-13.4125 6.73279,-19.09086c5.72693,-5.67837 11.35779,-7.37393 19.59896,-7.0176c8.24117,0.35633 19.51723,4.45658 25.87946,8.98397c7.25039,5.1594 15.30757,20.32484 15.30757,20.32484l-13.86726,8.07715l0.93369,5.31796c0,0 -5.41917,1.87652 -7.6048,3.01176c-2.20344,1.14449 -3.38731,-3.54982 -3.38731,-3.54982z" fill="#000000" stroke="#000000" stroke-width="2.5" stroke-linecap="butt"/><g fill="#373737" stroke="#000000" stroke-width="2.5" stroke-linecap="butt"><path d="M239.68956,212.63428l-8.41267,-9.07195l4.10786,-4.53975c0,0 5.95748,2.24296 7.71077,3.81595c1.36423,1.22394 1.93779,4.84034 1.93779,4.84034z"/><path d="M232.69159,210.57149c-2.35492,-2.53947 -3.06772,-5.70741 -1.59208,-7.07582c1.47563,-1.3684 4.58091,-0.41907 6.93583,2.1204c2.35492,2.53947 3.06772,5.70741 1.59208,7.07582c-1.47563,1.3684 -4.58091,0.41907 -6.93583,-2.1204z"/></g><path d="M277.21306,194.24457c0.79681,-1.10184 1.89864,-0.30503 1.89864,-0.30503l0.02807,0.04313c5.28116,2.62648 13.14434,9.40635 9.75224,16.29123c-2.17857,4.42181 -9.51767,7.57383 -13.95359,8.26681c-2.62482,-0.14593 -6.54196,0.0765 -8.73703,-1.59746c-0.76536,-0.58367 -1.08292,-2.65257 -1.91209,-2.16376c-1.99422,1.17563 0.66157,3.56542 -3.30613,4.05834c-0.44733,0.05557 -3.00749,-2.05821 -3.6434,-2.4414c-2.93008,-1.76566 -5.67205,-6.77362 -8.093,-9.35227c0,0 -0.05902,-0.06369 0.9384,-0.98787c0.99742,-0.92417 2.92675,1.87842 2.92675,1.87842c2.17721,2.38953 2.9227,4.49624 5.59656,6.11173c0.85025,0.51371 1.15694,1.92478 2.13886,2.07526c0.75951,0.11638 0.34024,-1.5389 0.77959,-2.16927c0.44983,-0.64541 0.90082,-1.43356 1.64309,-1.69424c3.1386,-1.10223 3.08356,1.25331 4.68945,2.61024c1.38623,1.17131 5.13355,0.84636 6.84311,0.95614c3.00817,-0.49915 4.42427,-1.59689 7.00209,-3.17626c1.59601,-0.97784 3.70986,-1.71186 4.63992,-3.5602c2.66933,-5.30487 -4.72258,-10.78935 -8.5145,-12.66977l-0.41203,-0.27514c0,0 -1.10184,-0.79681 -0.30503,-1.89864z" fill="#000000" stroke="none" stroke-width="0.5" stroke-linecap="butt"/><path d="M240.31146,188.06135c-0.99392,0.75802 -1.75196,-0.2359 -1.75196,-0.2359l-0.44869,-0.69411c-0.72515,-2.13359 -1.7785,-4.8858 -1.61625,-7.15073c0.09624,-1.34345 0.73158,-2.65957 0.98493,-3.99032c-2.56376,-0.78959 -5.02797,-1.79875 -7.12185,-2.71345c0,0 -1.14532,-0.50072 -0.64461,-1.64605c0.50072,-1.14532 1.64605,-0.64461 1.64605,-0.64461c2.15147,0.94135 4.26329,1.63968 6.43486,2.19272c0.2028,-2.69497 0.13509,-5.30933 -0.17537,-8.09029c0,0 -0.13863,-1.24229 1.10366,-1.38092c1.24229,-0.13863 1.38092,1.10366 1.38092,1.10366c0.33618,3.01373 0.06078,5.95236 -0.22396,8.85258c0.54569,0.11576 1.09688,0.2246 1.65508,0.328c2.21137,0.40961 3.68648,1.17981 6.01362,0.71972l1.49715,0.57592c0,0 1.03344,0.70322 0.33022,1.73665c-0.70322,1.03344 -1.73665,0.33022 -1.73665,0.33022l0.37628,-0.18679c-2.58273,0.47536 -5.50884,0.13639 -8.40377,-0.58243c-0.25217,3.26109 -0.25577,6.48878 0.86494,9.73645l0.07129,-0.0123c0,0 0.75802,0.99392 -0.2359,1.75196z" fill="#ff0000" stroke="none" stroke-width="0.5" stroke-linecap="butt"/><path d="M262.42224,175.24385c-0.99392,0.75802 -1.75196,-0.2359 -1.75196,-0.2359l-0.44869,-0.69412c-0.72514,-2.13359 -1.7785,-4.8858 -1.61625,-7.15072c0.09624,-1.34344 0.73158,-2.65958 0.98493,-3.99033c-2.56377,-0.78959 -5.02797,-1.79875 -7.12185,-2.71345c0,0 -1.14533,-0.50073 -0.64461,-1.64605c0.50072,-1.14532 1.64605,-0.64461 1.64605,-0.64461c2.15147,0.94135 4.26329,1.63968 6.43486,2.19272c0.2028,-2.69497 0.13509,-5.30933 -0.17537,-8.09029c0,0 -0.13863,-1.2423 1.10366,-1.38093c1.24229,-0.13863 1.38092,1.10367 1.38092,1.10367c0.33618,3.01373 0.06078,5.95236 -0.22396,8.85258c0.54569,0.11576 1.09688,0.2246 1.65508,0.328c2.21138,0.4096 3.68648,1.17981 6.01362,0.71972l1.49715,0.57592c0,0 1.03344,0.70322 0.33022,1.73665c-0.70322,1.03344 -1.73665,0.33022 -1.73665,0.33022l0.37628,-0.18679c-2.58273,0.47535 -5.50884,0.1364 -8.40376,-0.58242c-0.25217,3.26109 -0.25577,6.48878 0.86493,9.73645l0.07128,-0.0123c0,0 0.75804,0.99393 -0.2359,1.75195z" fill="#ff0000" stroke="none" stroke-width="0.5" stroke-linecap="butt"/><path d="M225.29632,172.69096l9.26713,-14.95272" fill="none" stroke="#ff0000" stroke-width="2.5" stroke-linecap="round"/><path d="M264.11222,149.98653l-17.84668,1.67894" data-paper-data="{&quot;index&quot;:null}" fill="none" stroke="#ff0000" stroke-width="2.5" stroke-linecap="round"/></g></g></svg>