<svg version="1.1" xmlns="http://www.w3.org/2000/svg" xmlns:xlink="http://www.w3.org/1999/xlink" width="136.25635" height="90.93884" viewBox="0,0,136.25635,90.93884"><g transform="translate(-172.32878,-125.86348)"><g data-paper-data="{&quot;isPaintingLayer&quot;:true}" fill-rule="nonzero" stroke-linejoin="miter" stroke-miterlimit="10" stroke-dasharray="" stroke-dashoffset="0" style="mix-blend-mode: normal"><g><g data-paper-data="{&quot;index&quot;:null}" fill="#949494" stroke="#000000" stroke-width="2"><path d="M204.7492,200.30539c0,0 -6.64286,-11.93942 -3.49459,-18.64127c1.13169,-2.40908 0.89596,-2.59479 2.69679,-6.62759c0.64865,-1.4526 1.4419,-2.94082 2.25333,-4.68416c2.17592,-4.67491 4.48262,-9.71385 4.48262,-9.71385c0,0 12.8362,2.13774 17.33941,2.13774c0.4348,0 21.53684,0.47359 21.97571,0.47078c10.74117,-0.06885 7.24001,-0.23325 7.24001,-0.23325c0,0 5.00242,-3.25087 6.6278,-2.9405c3.12122,0.596 6.09658,-2.66377 7.77886,2.9894c0.7907,2.65709 0.61267,2.95203 0.96648,6.59672c0.51648,5.32044 0.7566,13.44454 -1.04569,18.83477c-2.4256,7.25441 -7.20167,11.09865 -7.20167,11.09865z" stroke-linecap="butt"/><path d="M227.98791,199.35514c0,0 9.15072,-8.9704 8.79967,-18.34394c-0.36124,-4.29476 -5.1374,-13.07136 -5.1374,-13.07136l-4.03795,-4.98805l3.32537,4.27547c0,0 4.10165,-0.47068 6.34937,-0.72861c2.54497,-0.29205 8.13973,-0.93407 8.13973,-0.93407l-0.23753,-1.66268" stroke-linecap="round"/><path d="M257.303,170.55263c0,0 3.11779,0.51281 5.78238,2.15324c3.24758,1.99934 6.16789,5.44311 6.30116,8.77418c0.13219,3.30408 -0.67646,8.08355 -3.45338,11.01242c-3.42658,3.61409 -9.1053,5.03108 -10.76089,4.83995c-4.48955,-0.51829 -8.18307,-8.6525 -8.46709,-10.60669c-0.78231,-5.3826 1.63974,-12.17764 2.58871,-13.45012c1.76938,-2.37258 8.00911,-2.72298 8.00911,-2.72298" stroke-linecap="round"/><path d="M207.185,183.61658c0,-4.91169 3.12479,-7.68761 7.2084,-9.39624c1.2606,-0.52746 4.06037,-1.52997 5.49925,-1.52997c6.09996,0 10.09486,4.7358 10.09486,11.16373c0,6.42793 -5.65758,12.58889 -11.75755,12.58889c-6.09997,0 -11.04497,-6.3985 -11.04497,-12.82642z" stroke-linecap="butt"/></g><g data-paper-data="{&quot;index&quot;:null}" stroke="#000000" stroke-width="2" stroke-linecap="round"><path d="M187.97052,155.68868c0,0 9.8184,-0.36242 15.18081,1.85015c2.30639,0.95163 4.85845,2.69326 5.58793,4.05c0.84697,1.57526 -0.34964,2.71436 -0.73406,2.79699c-2.59296,0.55736 -7.71539,-0.49528 -9.77452,-1.34734c-3.60936,-1.49353 -10.49769,-7.34981 -10.49769,-7.34981" fill="#d8d8d8"/><path d="M205.07239,158.30146l-1.66268,5.93816" fill="none"/></g><path d="M271.45966,197.49449l-14.32257,-5.23121c0,0 -4.99142,-2.33666 -5.22119,-4.29026c-0.13046,-1.10909 -0.98946,-4.89572 -0.45152,-6.90208c0.67363,-2.5124 3.61293,-3.35235 4.47788,-4.18183c0.37766,-0.36217 4.69736,0.26265 4.69736,0.26265c0,0 3.07024,1.54838 5.10263,2.57335c3.01644,1.52124 11.2401,5.66858 11.2401,5.66858z" data-paper-data="{&quot;index&quot;:null}" fill="#949494" stroke="#000000" stroke-width="2.5" stroke-linecap="butt"/><g data-paper-data="{&quot;index&quot;:null}"><g><path d="M199.01289,191.33189l5.9336,-0.23264l0.19542,4.98422l-5.9336,0.23264z" data-paper-data="{&quot;index&quot;:null}" fill="#000000" stroke="none" stroke-width="0" stroke-linecap="butt"/><path d="M195.6777,204.55177l-4.93234,0.78047l-4.53039,1.36887l-4.10502,-1.79828l1.28735,3.14779l-0.4972,2.64091l0.01937,1.71272l-0.96129,2.38263l-3.12437,-2.46819l-5.23498,-8.50548l-0.01937,-1.71272l0.35353,-3.69339l7.9074,-5.68939l10.62578,1.65866z" fill="#949494" stroke="#000000" stroke-width="2.5" stroke-linecap="round"/><path d="M193.11671,193.6443l3.45854,-2.93792l3.105,0.75547l2.00973,2.94197l-1.26235,4.88955l-2.77894,4.77493l-1.971,0.48346z" fill="#242424" stroke="#000000" stroke-width="2.5" stroke-linecap="round"/><path d="M200.48009,198.10691l-2.02346,1.66994l-4.55944,-1.2002" fill="none" stroke="#000000" stroke-width="2.5" stroke-linecap="round"/></g><g stroke="none" stroke-linecap="butt"><path d="M176.37733,197.29999l4.45841,-3.70559l11.64054,2.3431l1.97807,7.56242l-7.84617,2.25186l-5.72239,-2.1449z" fill="#8c6200" stroke-width="NaN"/><path d="M188.51283,193.33676l4.5321,2.94945l1.69246,7.4042l-3.10664,0.46686z" fill="#8c0081" stroke-width="NaN"/><path d="M178.78483,211.68185l-5.29165,-10.01621l4.01012,-4.10185l4.10527,6.06443l0.62028,3.29378l1.33797,3.19824l-0.31409,1.32275l-1.26577,2.43482z" fill="#8c0081" stroke-width="0"/><g fill="#ffffff" stroke-width="0.5"><path d="M190.01101,199.65216c0.00043,0.00014 0.00087,0.00029 0.00129,0.00044c0.25961,0.08659 0.17302,0.34621 0.17302,0.34621c-0.43614,1.26383 -1.61573,1.44708 -2.44737,0.71088c0.12031,-0.04962 0.11642,-0.19434 0.11642,-0.19434c-0.02633,-0.98155 -0.03406,-1.96047 -0.11754,-2.93683c0.35929,-0.30022 0.75371,-0.47438 1.06462,-0.35022c0.43796,0.17491 0.76518,0.68579 0.98375,1.06032c0.24507,0.51021 0.25283,0.87988 0.22581,1.36355zM188.8585,198.40089c0.00304,0.11331 0.09737,0.20271 0.21069,0.19967c0.11332,-0.00304 0.20272,-0.09738 0.19968,-0.21069c-0.00304,-0.11332 -0.09737,-0.20271 -0.21069,-0.19967c-0.11331,0.00304 -0.20271,0.09737 -0.19967,0.21069zM188.93766,200.07563c0.00304,0.11332 0.09738,0.20271 0.2107,0.19967c0.11333,-0.00303 0.20272,-0.09737 0.19968,-0.21068c-0.00304,-0.11332 -0.09738,-0.20272 -0.21069,-0.19968c-0.11331,0.00304 -0.20271,0.09737 -0.19967,0.21069z"/><path d="M187.87334,201.78207c0.0102,0.37994 -0.36973,0.39014 -0.36973,0.39014l0.07384,-0.04212c-0.18638,0.09703 -0.39451,0.14344 -0.60941,0.1568l0.00725,0.01786l-0.01178,0.00478l0.0143,0.11252l-0.46857,0.05959c-0.01404,0.00196 -0.02833,0.00316 -0.04282,0.00354c-0.20984,0.00564 -0.38451,-0.15989 -0.39014,-0.36973c-0.00307,-0.11418 0.04457,-0.21795 0.12242,-0.28974c-0.00451,-0.00507 -0.00685,-0.00802 -0.00685,-0.00802c-0.36792,-0.46696 -0.69253,-0.95567 -1.0286,-1.43733c-0.13858,0.24848 -0.28255,0.49498 -0.43352,0.73929c-0.41595,0.67314 -0.59018,1.54042 -1.30122,1.90453c0.04877,-0.02472 0.17017,-0.08624 0.22164,-0.11232l0.05284,0.12466l0.045,-0.034l0.24372,0.32254c0.04779,0.06165 0.0771,0.13851 0.07936,0.22247c0.00562,0.20984 -0.15991,0.3845 -0.36975,0.39012c-0.03476,0.00094 -0.06856,-0.00282 -0.10077,-0.0107l-0.37416,-0.08294l0.01467,-0.06619c-0.3282,-0.04151 -0.54902,-0.1874 -0.86393,-0.5533c-0.10387,-0.0401 -0.21931,-0.13127 -0.22487,-0.33839c-0.0102,-0.37994 0.36974,-0.39014 0.36974,-0.39014l0.35552,0.14254c0.02656,0.035 0.05473,0.06655 0.08363,0.09551c0.27489,-0.50633 0.67858,-1.20461 0.74702,-1.32965c0.31841,-0.58172 0.63081,-1.15804 0.93636,-1.73654c-0.11719,-0.15168 -0.23847,-0.3011 -0.36571,-0.44728c-0.246,-0.28261 -0.52477,-0.52513 -0.79572,-0.77717c-0.13479,0.22277 -0.32033,0.43833 -0.6073,0.6667l-0.30962,0.32671c-0.0669,0.0706 -0.16075,0.11567 -0.26566,0.11849c-0.20985,0.00563 -0.38452,-0.1599 -0.39014,-0.36974c-0.00127,-0.04747 0.00621,-0.09312 0.02099,-0.13544l0.23095,-0.71493l0.02876,0.00929c0.09737,-0.62886 0.30107,-1.1124 0.8165,-1.84033l0.12663,-0.13917c0,0 0.26145,-0.27586 0.53732,-0.01442c0.02687,0.02546 0.04865,0.05107 0.06606,0.07654c0.031,0.00471 0.06407,0.01344 0.09927,0.02702c0.35462,0.13672 0.21791,0.49135 0.21791,0.49135c-0.11013,0.2823 -0.18508,0.52997 -0.25845,0.75626c0.34398,0.3492 0.73117,0.64795 1.05707,1.02113c0.05985,0.06851 0.11838,0.13785 0.1758,0.20787c0.2683,-0.521 0.5308,-1.04631 0.78686,-1.58138c-0.27051,-0.21991 -0.46072,-0.47781 -0.3922,-0.75137c0.31817,-1.27011 1.86233,0.26849 2.11304,0.59969l0.10529,0.24052c0,0 0.12983,0.35722 -0.2274,0.48704c-0.02058,0.00749 -0.04041,0.01334 -0.05951,0.01775c0.05334,0.79652 0.06366,1.59486 0.08379,2.39481c-0.04041,-0.05386 -0.07931,-0.11049 -0.11653,-0.16989c-0.05727,-0.09143 -0.547,-0.8614 -0.56175,-0.96784c-0.04379,-0.31594 0.20334,-0.8202 0.5609,-1.25068c-0.02464,0.00368 -0.04796,0.00487 -0.07,0.00398c-0.1658,0.10531 -0.36371,0.01291 -0.36371,0.01291c-0.10152,-0.04767 -0.25351,-0.11759 -0.42197,-0.20545c-0.2945,0.63233 -0.58792,1.25774 -0.90379,1.87283c0.40729,0.57122 0.7853,1.16076 1.22528,1.71179c0,0 0.02507,0.03162 0.04856,0.08242c0.16939,-0.14761 0.3554,-0.27749 0.54739,-0.39276c0,0 0.32717,-0.19343 0.5206,0.13374c0.13089,0.22141 0.02336,0.38157 -0.05983,0.46198c0.01683,0.04189 0.02748,0.09178 0.02907,0.15123z"/></g></g></g><path d="M223.39549,189.6161l-12.26136,11.98099l-8.49453,-7.24764l-0.5903,-1.48l9.20439,-12.47715l5.66502,-3.8606l5.12725,1.38584l3.11232,4.36241l0.19394,3.35352z" data-paper-data="{&quot;index&quot;:null}" fill="#949494" stroke="#000000" stroke-width="2.5" stroke-linecap="round"/><g data-paper-data="{&quot;index&quot;:null}"><g><path d="M278.38947,191.25726l-5.27238,-2.73199l2.29487,-4.42879l5.27238,2.73199z" fill="#000000" stroke="none" stroke-width="0" stroke-linecap="butt"/><path d="M307.47919,198.16578c0,0 0.71013,1.0507 -0.14406,1.63872c-2.23829,1.54086 -13.7814,7.94767 -13.7814,7.94767l-15.95149,-7.41665c0,0 4.93729,-5.44192 6.70624,-7.80596c0.68628,-0.91715 11.34113,3.4594 12.00337,3.02411c0.68834,-0.45246 0.06642,3.26533 0.53961,3.92211c0.53425,0.74157 2.14431,-1.54839 2.60658,-1.82086c1.30249,-0.7677 3.9245,-1.76171 3.9245,-1.76171l4.09663,2.27256z" fill="#949494" stroke="#000000" stroke-width="2.5" stroke-linecap="butt"/><path d="M275.68741,200.36128l0.56911,-10.26118l2.22444,-1.98566l2.52856,-0.51981l2.50788,1.2587l1.4839,2.98539z" fill="#242424" stroke="#000000" stroke-width="2.5" stroke-linecap="butt"/><path d="M280.89793,195.63587l-2.11944,0.14637l-1.69936,-1.47981" fill="none" stroke="#000000" stroke-width="2.5" stroke-linecap="round"/><path d="M297.87459,204.79184l-1.25761,-5.87591" fill="none" stroke="#000000" stroke-width="2.5" stroke-linecap="round"/></g><g stroke="none" stroke-linecap="butt"><path d="M294.46772,206.42337l-15.24639,-5.83866l5.55646,-8.54521l2.69893,1.90015l7.71081,2.87164z" fill="#8c6200" stroke-width="NaN"/><path d="M282.89996,201.91683l-3.57204,-1.61323l5.68839,-7.96225l2.81824,2.05753z" fill="#8c0081" stroke-width="NaN"/><path d="M294.23692,206.81369l-1.97408,-10.73444l2.9539,0.58049l2.34451,3.58735l2.50267,-1.79925l3.28032,-1.12179l1.29887,0.40157l2.34502,1.42527z" fill="#8c0081" stroke-width="0"/><g fill="#ffffff" stroke-width="0.5"><path d="M284.63938,198.57473c-0.00033,-0.0003 -0.00067,-0.0006 -0.00101,-0.00091c-0.20311,-0.18342 -0.01967,-0.38653 -0.01967,-0.38653c0.90631,-0.98288 2.0604,-0.67779 2.52704,0.33011c-0.1301,-0.00278 -0.18458,0.13135 -0.18458,0.13135c-0.36945,0.90975 -0.7549,1.80961 -1.06992,2.73753c-0.44952,0.13096 -0.88068,0.13237 -1.11571,-0.10605c-0.33108,-0.33585 -0.426,-0.93508 -0.47605,-1.36581c-0.01993,-0.56567 0.1212,-0.90743 0.33989,-1.33967zM285.08049,199.91577c-0.10503,-0.04266 -0.22475,0.0079 -0.2674,0.11294c-0.04266,0.10503 0.0079,0.22475 0.11294,0.2674c0.10503,0.04266 0.22475,-0.0079 0.2674,-0.11294c0.04266,-0.10503 -0.0079,-0.22475 -0.11294,-0.2674zM285.79244,198.61722c0.04266,-0.10503 -0.0079,-0.22475 -0.11294,-0.2674c-0.10503,-0.04266 -0.22475,0.0079 -0.2674,0.11294c-0.04265,0.10502 0.0079,0.22475 0.11294,0.2674c0.10504,0.04266 0.22476,-0.00791 0.26741,-0.11294z"/><path d="M287.45171,197.48074c0.14301,-0.35213 0.49515,-0.20914 0.49515,-0.20914l-0.08454,0.00898c0.20964,-0.01416 0.41893,0.02678 0.62115,0.10072l0.00052,-0.01928l0.01271,0.00035l0.03202,-0.10882l0.45314,0.1333c0.01364,0.00383 0.02722,0.00846 0.04066,0.01393c0.19448,0.07898 0.28813,0.30066 0.20914,0.49515c-0.04298,0.10583 -0.12822,0.18179 -0.22833,0.21633c0.0021,0.00647 0.00305,0.0101 0.00305,0.0101c0.1498,0.5753 0.2512,1.15318 0.36594,1.72917c0.2266,-0.17207 0.45733,-0.34016 0.69358,-0.50342c0.65095,-0.44986 1.15832,-1.17451 1.9557,-1.22296c-0.05458,0.00308 -0.19047,0.01076 -0.24807,0.01401l0.00159,-0.13538l-0.05486,0.0131l-0.09394,-0.39321c-0.01905,-0.07564 -0.01509,-0.15781 0.01651,-0.23562c0.07899,-0.19449 0.30066,-0.28813 0.49515,-0.20914c0.03222,0.01309 0.06167,0.03008 0.08802,0.05022l0.3095,0.22602l-0.03998,0.05475c0.28401,0.16962 0.4278,0.39183 0.56958,0.85329c0.07908,0.07839 0.14826,0.20819 0.0703,0.40017c-0.14301,0.35214 -0.49515,0.20914 -0.49515,0.20914l-0.26853,-0.27314c-0.01029,-0.04271 -0.02344,-0.08292 -0.03831,-0.12103c-0.45486,0.35362 -1.10466,0.83144 -1.2175,0.91854c-0.52494,0.40523 -1.04224,0.80792 -1.55411,1.21536c0.04654,0.18595 0.09773,0.37147 0.15569,0.5564c0.11204,0.35753 0.27018,0.69147 0.41734,1.03102c0.21282,-0.15003 0.4692,-0.2731 0.82368,-0.36724l0.41464,-0.17514c0.08961,-0.03785 0.19364,-0.04151 0.29088,-0.00202c0.19449,0.07899 0.28813,0.30066 0.20914,0.49515c-0.01787,0.044 -0.04303,0.08284 -0.07354,0.11567l-0.49824,0.56232l-0.02262,-0.02004c-0.34136,0.53706 -0.72185,0.89833 -1.48591,1.35851l-0.17181,0.07672c0,0 -0.35013,0.14788 -0.49801,-0.20224c-0.0144,-0.0341 -0.02409,-0.06628 -0.02982,-0.09659c-0.0265,-0.01675 -0.05329,-0.038 -0.0801,-0.06455c-0.27004,-0.26744 -0.00261,-0.53749 -0.00261,-0.53749c0.2141,-0.21446 0.38206,-0.41128 0.54,-0.58918c-0.17509,-0.45782 -0.41002,-0.88676 -0.55893,-1.3593c-0.02734,-0.08677 -0.05316,-0.17374 -0.0777,-0.26092c-0.45469,0.3697 -0.90581,0.74568 -1.35493,1.13317c0.15963,0.30993 0.23047,0.62244 0.058,0.84557c-0.80077,1.03595 -1.5984,-0.99273 -1.69526,-1.39667l-0.00001,-0.26255c0,0 0.02431,-0.3793 0.4036,-0.35499c0.02186,0.0014 0.04236,0.00399 0.06163,0.0076c0.27052,-0.75107 0.58119,-1.48655 0.88351,-2.22745c0.01544,0.06554 0.02837,0.13303 0.03863,0.20236c0.01581,0.10672 0.1557,1.00845 0.12654,1.11188c-0.08657,0.30699 -0.51515,0.66984 -1.01533,0.92083c0.02405,0.00651 0.04589,0.01477 0.06572,0.02442c0.19412,-0.02998 0.33837,0.13402 0.33837,0.13402c0.07389,0.08438 0.1851,0.20936 0.30418,0.35741c0.52333,-0.46118 1.04291,-0.91645 1.57891,-1.35327c-0.14407,-0.68661 -0.25395,-1.37826 -0.43607,-2.05947c0,0 -0.01028,-0.03901 -0.01144,-0.09498c-0.21437,0.06731 -0.43686,0.11169 -0.65895,0.1403c0,0 -0.37728,0.04601 -0.42329,-0.33127c-0.03114,-0.25532 0.13158,-0.35892 0.24004,-0.39923c0.00137,-0.04511 0.01162,-0.09509 0.03401,-0.15019z"/></g></g></g><g><g stroke="#000000" stroke-width="2.5"><path d="M261.86728,160.01884c0,0 0.26067,-1.51522 -0.1964,-2.6054c-0.40881,-0.97508 -2.41736,-3.62898 -2.41736,-3.62898c0,0 -5.06805,-2.99164 -4.99642,-6.35904c0.00813,-0.38225 0.82994,-8.75545 5.26381,-13.79196c3.16915,-3.59987 10.12455,-4.47633 11.05365,-4.17994c0.71818,0.2291 5.13734,0.34183 9.33463,1.84344c5.91517,2.11619 11.51082,5.56904 11.51082,5.56904l-0.9775,13.72951l-20.83882,1.45592l1.26404,7.28892z" fill="#949494" stroke-linecap="butt"/><path d="M291.16694,144.2328l-13.22337,-1.62341l-3.56592,-3.066l-4.06584,-9.69792l11.39996,2.71366l9.13854,4.31333z" fill="#000000" stroke-linecap="round"/><path d="M275.21317,141.14779l-1.65797,0.12498" fill="none" stroke-linecap="round"/><path d="M275.17272,143.77107l-2.3864,-0.05831" fill="none" stroke-linecap="round"/><path d="M273.69327,146.26459l-1.43898,-0.12973" fill="none" stroke-linecap="round"/><path d="M288.79361,150.71672c0,0 -12.48606,0.54412 -18.85326,1.58895c-1.5666,0.25708 -0.06299,1.98967 -1.04518,2.07464c-8.70233,0.75286 -9.75803,-1.22087 -10.63792,-2.14878c-2.1854,-2.30466 -4.61888,-5.42069 -4.55607,-6.01108c0.08075,-0.75916 1.67471,-2.6469 1.67471,-2.6469l4.02854,1.23577l5.59048,1.48418l5.77377,0.75577l9.96573,-0.51302l8.37442,3.65633" fill="#373737" stroke-linecap="round"/><path d="M284.91777,159.74008l-1.94212,1.66515l-10.94689,-5.72029l-2.09568,-1.63109l0.25799,-2.54519l1.30108,-1.46413l1.71262,-0.71308l1.0431,1.08106l0.39255,1.81313l0.29204,1.49261z" fill="#000000" stroke-linecap="round"/><path d="M265.82714,155.67095l-0.04046,2.62326" fill="none" stroke-linecap="round"/><path d="M270.34522,155.56858l-8.58031,-0.06781" fill="none" stroke-linecap="round"/><path d="M263.21925,133.71494l-1.02358,2.22096l0.6344,2.09598l-3.69564,-1.62702l-0.10237,-4.51808l3.0303,-4.03963l1.56396,1.7877l0.48681,3.2981z" fill="#151515" stroke-linecap="round"/><path d="M264.20674,137.33456l-3.28026,0.72367l-1.90794,-3.19099l0.84029,-1.49254l2.20785,-2.31023l1.87698,-0.3797l1.25569,0.85814l1.27354,1.095l0.6701,2.56969z" fill="none" stroke-linecap="round"/></g><g fill="#00ff59" stroke="none" stroke-width="0.5" stroke-linecap="butt"><path d="M279.29609,142.24439c-0.45151,-0.3927 -0.05882,-0.84421 -0.05882,-0.84421l0.31322,-0.34541c1.07471,-0.85823 2.10398,-1.73308 3.27298,-2.43286c-1.57518,-0.93358 -3.27839,-1.65534 -4.81628,-2.64683c0,0 -0.50251,-0.3249 -0.17761,-0.8274c0.3249,-0.50251 0.8274,-0.17761 0.8274,-0.17761c1.73423,1.12472 3.68374,1.90111 5.42392,3.02301l0.15069,0.09742c0.10172,0.03617 0.20267,0.10907 0.28338,0.24361c0.06585,0.09154 0.12133,0.21611 0.10636,0.36704c-0.00492,0.15158 -0.07625,0.2678 -0.15353,0.34992c-0.09692,0.12191 -0.20568,0.18097 -0.31054,0.20388c-1.43652,0.70035 -2.61866,1.73853 -3.85879,2.7341l-0.15815,0.19654c0,0 -0.3927,0.45151 -0.84421,0.05881z"/><path d="M284.0851,134.78125c-0.36906,0.47103 -0.8401,0.10197 -0.8401,0.10197l-0.19832,-0.23199c-2.27317,-0.48915 -4.69054,-2.29639 -6.98271,-2.28167c0,0 -0.59838,-0.00431 -0.59407,-0.6027c0.00432,-0.59837 0.6027,-0.59407 0.6027,-0.59407c2.47348,0.04308 4.79738,1.78663 7.22566,2.30839l0.68485,0.45996c0,0 0.47103,0.36906 0.10197,0.8401z"/></g></g></g></g></g></svg>