<svg version="1.1" xmlns="http://www.w3.org/2000/svg" xmlns:xlink="http://www.w3.org/1999/xlink" width="482.14234" height="370.73543" viewBox="0,0,482.14234,370.73543"><g transform="translate(0.94502,-10.92388)"><g data-paper-data="{&quot;isPaintingLayer&quot;:true}" fill-rule="nonzero" stroke-linecap="butt" stroke-linejoin="miter" stroke-miterlimit="10" stroke-dasharray="" stroke-dashoffset="0" style="mix-blend-mode: normal"><path d="M-0.92441,381.65926v-296.8912h481.25614v296.89124z" data-paper-data="{&quot;index&quot;:null}" fill="#c0b000" stroke="none" stroke-width="0"/><path d="M-0.94502,112.02372v-29.90117h482.14234v29.90117l-49.25729,36.37177l-48.56019,-40.32758l-36.49828,39.16044l-60.92155,-40.11295l-51.68331,26.85219l-63.67442,-23.06711l-63.33277,25.92067l-42.01576,-20.27661l-38.49933,25.94454z" data-paper-data="{&quot;index&quot;:null}" fill="#e1d900" stroke="none" stroke-width="0"/><path d="M48.19367,71.96299l6.31623,-11.52686l12.95295,-5.12322l12.74748,5.81327l3.9026,13.45592l-6.35917,12.1157l-12.91002,4.53438l-12.07276,-6.94801z" fill="#a7a7a7" stroke="#515151" stroke-width="5"/><path d="M185.1821,57.66354l10.48167,-7.93082l13.91514,0.62862l9.25037,10.5225l-1.94817,13.87432l-10.76191,8.45047l-13.6349,-1.14827l-8.17023,-11.28157z" fill="#a7a7a7" stroke="#515151" stroke-width="5"/><path d="M158.34767,42.83399l10.48167,-7.93082l13.91514,0.62862l9.25037,10.5225l-1.94817,13.87432l-10.76191,8.45047l-13.6349,-1.14827l-8.17023,-11.28157z" fill="#a7a7a7" stroke="#515151" stroke-width="5"/><path d="M156.93533,58.36971l10.48167,-7.93082l13.91514,0.62862l9.25037,10.5225l-1.94817,13.87432l-10.76191,8.45047l-13.6349,-1.14827l-8.17023,-11.28157z" fill="#a7a7a7" stroke="#515151" stroke-width="5"/><path d="M132.92558,39.30315l10.48167,-7.93082l13.91514,0.62862l9.25037,10.5225l-1.94817,13.87432l-10.76191,8.45047l-13.6349,-1.14827l-8.17023,-11.28157z" fill="#a7a7a7" stroke="#515151" stroke-width="5"/><path d="M128.68856,58.36971l10.48167,-7.93082l13.91514,0.62862l9.25037,10.5225l-1.94817,13.87432l-10.76191,8.45047l-13.6349,-1.14827l-8.17023,-11.28157z" fill="#a7a7a7" stroke="#515151" stroke-width="5"/><path d="M112.44667,28.71061l10.48167,-7.93082l13.91514,0.62862l9.25037,10.5225l-1.94817,13.87432l-10.76191,8.45047l-13.6349,-1.14827l-8.17023,-11.28157z" fill="#a7a7a7" stroke="#515151" stroke-width="5"/><path d="M113.85901,49.89568l10.48167,-7.93082l13.91514,0.62862l9.25037,10.5225l-1.94817,13.87432l-10.76191,8.45047l-13.6349,-1.14827l-8.17023,-11.28157z" fill="#a7a7a7" stroke="#515151" stroke-width="5"/><path d="M114.57082,56.92291l12.91964,-2.41787l12.17119,6.77411l3.58043,13.54521l-7.93667,11.54562l-13.40238,2.75778l-11.68845,-7.11402l-2.27504,-13.7423z" fill="#a7a7a7" stroke="#515151" stroke-width="5"/><path d="M90.56107,15.9651l12.91964,-2.41787l12.17119,6.77411l3.58043,13.54521l-7.93667,11.54562l-13.40238,2.75778l-11.68845,-7.11402l-2.27504,-13.7423z" fill="#a7a7a7" stroke="#515151" stroke-width="5"/><path d="M88.44257,59.74759l12.91964,-2.41787l12.17119,6.77411l3.58043,13.54521l-7.93667,11.54562l-13.40238,2.75778l-11.68845,-7.11402l-2.27504,-13.7423z" fill="#a7a7a7" stroke="#515151" stroke-width="5"/><path d="M67.96366,54.8044l12.91964,-2.41787l12.17119,6.77411l3.58043,13.54521l-7.93667,11.54562l-13.40238,2.75778l-11.68845,-7.11402l-2.27504,-13.7423z" fill="#a7a7a7" stroke="#515151" stroke-width="5"/><path d="M92.67958,35.03167l12.91964,-2.41787l12.17119,6.77411l3.58043,13.54521l-7.93667,11.54562l-13.40238,2.75778l-11.68845,-7.11402l-2.27504,-13.7423z" fill="#a7a7a7" stroke="#515151" stroke-width="5"/><path d="M65.13898,26.55764l12.91964,-2.41787l12.17119,6.77411l3.58043,13.54521l-7.93667,11.54562l-13.40238,2.75778l-11.68845,-7.11402l-2.27504,-13.7423z" fill="#a7a7a7" stroke="#515151" stroke-width="5"/></g></g></svg>