<svg version="1.1" xmlns="http://www.w3.org/2000/svg" xmlns:xlink="http://www.w3.org/1999/xlink" width="211.14179" height="326.9495" viewBox="0,0,211.14179,326.9495"><defs><linearGradient x1="168.52241" y1="113.31849" x2="294.09631" y2="113.31849" gradientUnits="userSpaceOnUse" id="color-1"><stop offset="0" stop-color="#00cfff"/><stop offset="1" stop-color="#00cfff" stop-opacity="0"/></linearGradient></defs><g transform="translate(-164.90472,-18.59819)"><g data-paper-data="{&quot;isPaintingLayer&quot;:true}" fill-rule="nonzero" stroke-linejoin="miter" stroke-miterlimit="10" stroke-dasharray="" stroke-dashoffset="0" style="mix-blend-mode: normal"><path d="M376.04651,259.95615c0,0 -1.75503,11.43406 -6.10559,12.01977c-2.93046,0.39448 -9.33976,-6.39564 -16.17909,-6.60148c-2.68193,-0.0807 -5.25318,8.51331 -8.16,8.60222c-2.20595,0.0675 -5.73749,-8.1163 -7.31084,-5.9826c-2.49433,3.38279 -5.9659,11.24866 -10.28444,12.06947c-4.12155,0.78341 -9.1463,-5.60032 -9.4346,2.28675c-0.4281,11.71146 -11.93364,-13.05012 -11.93364,-13.05012l-18.27971,-177.5653c0,0 -26.34135,-28.81482 -50.63631,-28.43127c-18.31643,0.28916 -57.61732,-0.27066 -43.83739,-12.34081c6.47835,-5.67441 51.14168,-29.1133 91.78874,-32.09304c36.02439,-2.64088 68.91838,14.85041 68.91838,14.85041l21.45445,226.23599z" data-paper-data="{&quot;index&quot;:null}" fill="#d6d6d6" stroke="none" stroke-width="0" stroke-linecap="butt"/><path d="M225.66298,328.74061c0,8.17773 -13.15349,14.80708 -29.37913,14.80708c-16.22565,0 -29.37913,-6.62936 -29.37913,-14.80708c0,-8.17773 13.15349,-14.80708 29.37913,-14.80708c16.22565,0 29.37913,6.62936 29.37913,14.80708z" fill="#d6d6d6" stroke="#8e8e8e" stroke-width="4" stroke-linecap="butt"/><path d="M290.83145,324.80935c0,8.17773 -13.15348,14.80709 -29.37913,14.80709c-16.22564,0 -29.37914,-6.62936 -29.37914,-14.80709c0,-8.17773 13.15349,-14.80708 29.37914,-14.80708c16.22565,0 29.37913,6.62936 29.37913,14.80708z" fill="#d6d6d6" stroke="#8e8e8e" stroke-width="4" stroke-linecap="butt"/><path d="M196.51888,318.63419v-49.82701h22.09311v49.82701z" fill="#d6d6d6" stroke="#8e8e8e" stroke-width="4" stroke-linecap="butt"/><path d="M256.68735,315.81379v-53.11747h26.3237v53.11747z" fill="#d6d6d6" stroke="#8e8e8e" stroke-width="4" stroke-linecap="butt"/><path d="M265.28163,157.77568c0,0 -0.66749,3.80281 -2.32214,3.99761c-1.11454,0.1312 -3.55219,-2.1271 -6.15339,-2.19556c-1.02002,-0.02684 -1.99794,2.83141 -3.10349,2.86098c-0.83899,0.02245 -2.18214,-2.69937 -2.78053,-1.98973c-0.94867,1.12507 -2.26901,3.74115 -3.91148,4.01414c-1.56755,0.26055 -3.47861,-1.86259 -3.58826,0.76054c-0.16282,3.89507 -4.53872,-4.34029 -4.53872,-4.34029l-6.95232,-59.05576c0,0 -18.27717,-4.76774 -28.68912,-8.87273c-4.46969,-1.7622 -8.19421,-3.95818 -7.24205,-4.6875c2.46391,-1.88723 19.45071,-9.68268 34.91,-10.6737c13.70115,-0.87832 26.21172,4.93904 26.21172,4.93904l8.15977,75.24296z" data-paper-data="{&quot;index&quot;:null}" fill="#000000" stroke="#000000" stroke-width="2" stroke-linecap="butt"/><path d="M246.38243,106.92057c5.66397,14.088 1.57644,28.57876 -12.51155,34.24274c-14.08799,5.66397 -35.80249,0.28929 -41.46647,-13.79869c-4.54438,-11.3032 -2.28421,-22.06121 6.82332,-29.93213c0.86539,-0.74789 4.30858,-2.46232 5.27632,-3.10605c1.54147,-1.02537 3.53316,-4.13599 5.24392,-4.82379c1.01535,-0.40821 2.61342,1.71556 3.72821,1.64426c1.96177,-0.12548 3.49536,-2.20516 5.3645,-2.2028c3.04426,0.00383 6.48325,1.53295 9.34285,2.38733c0.83678,0.25001 3.45342,-4.39001 4.25483,-4.09117c7.08127,2.64064 10.91897,12.156 13.94407,19.68032z" data-paper-data="{&quot;index&quot;:null}" fill="#ffd499" stroke="#dfba86" stroke-width="2" stroke-linecap="butt"/><path d="M205.77683,108.05318c3.03496,-0.12589 5.62207,2.8288 5.77849,6.59951c0.15641,3.77069 -2.17709,6.92952 -5.21205,7.05541c-3.03496,0.1259 -5.62208,-2.8288 -5.77849,-6.5995c-0.15641,-3.77069 2.1771,-6.92952 5.21206,-7.05542z" fill="#ffffff" stroke="none" stroke-width="0" stroke-linecap="butt"/><path d="M221.8443,108.5343c3.03495,-0.12589 5.62208,2.82881 5.77849,6.59951c0.15641,3.7707 -2.17711,6.92952 -5.21206,7.05542c-3.03495,0.12589 -5.62208,-2.82881 -5.77849,-6.59951c-0.15641,-3.7707 2.17711,-6.92952 5.21206,-7.05542z" fill="#ffffff" stroke="none" stroke-width="0" stroke-linecap="butt"/><path d="M202.82842,118.6856l-0.14506,-3.49699" fill="none" stroke="#000000" stroke-width="2" stroke-linecap="round"/><path d="M220.07133,117.12376l-0.12434,-2.99742" fill="none" stroke="#000000" stroke-width="2" stroke-linecap="round"/><path d="M221.51975,101.55983l-8.09724,8.09724l-8.09724,-8.09724" fill="none" stroke="#000000" stroke-width="2" stroke-linecap="round"/><path d="M189.93796,270.21738v-117.9866h99.18395v117.9866z" fill="#d6d6d6" stroke="#8e8e8e" stroke-width="4" stroke-linecap="butt"/><path d="M280.33132,262.3451l-19.21642,-1.69178l6.6597,-75.64558c0,0 1.87026,-10.82972 11.06957,-10.54013c7.50615,0.23629 8.14685,12.2319 8.14685,12.2319z" data-paper-data="{&quot;index&quot;:null}" fill="#d6d6d6" stroke="#8e8e8e" stroke-width="4" stroke-linecap="butt"/><path d="M198.83915,259.35398l-19.21642,-1.69178l6.65969,-75.64558c0,0 1.87026,-10.82972 11.06957,-10.54013c7.50615,0.23629 8.14685,12.2319 8.14685,12.2319z" data-paper-data="{&quot;index&quot;:null}" fill="#d6d6d6" stroke="#8e8e8e" stroke-width="4" stroke-linecap="butt"/><path d="M221.94567,138.25837c-0.99907,0.04322 -1.04228,-0.95585 -1.04228,-0.95585l-0.07154,-1.72256c-0.00146,-0.00726 -0.65331,-3.32064 -0.73973,-3.46875c-1.79232,-3.07185 -6.36536,-5.3311 -9.87907,-3.40668c-1.15447,0.63229 -2.45481,2.85563 -3.52967,3.77806c-1.58099,1.35678 -3.6536,2.8539 -4.56941,4.75387c0,0 -0.44721,0.89443 -1.34164,0.44721c-0.89443,-0.44721 -0.44721,-1.34164 -0.44721,-1.34164c1.44623,-2.81698 4.34667,-4.42115 6.51365,-6.62182c0.01797,-0.01824 2.13164,-2.61136 2.30964,-2.70876c4.45249,-2.43642 10.37212,0.00113 12.68411,4.11437c0.30011,0.53392 0.86063,3.58874 0.98487,4.2141l0.08413,1.87617c0,0 0.04322,0.99907 -0.95585,1.04228z" fill="#000000" stroke="none" stroke-width="0.5" stroke-linecap="butt"/><path d="M169.58318,106.70501c0,-11.36432 4.32481,-37.30664 4.32481,-37.30664c0,0 68.89287,-6.17271 102.4103,16.24755c15.37646,10.28552 24.19632,40.65726 13.92426,55.39375c0,0 -68.17953,24.25547 -106.29751,13.40208c-19.40215,-5.52441 -14.36186,-47.73673 -14.36186,-47.73673z" fill="url(#color-1)" stroke="none" stroke-width="0" stroke-linecap="butt"/><path d="M174.89584,72.0845c0,-34.13876 30.02526,-18.09755 64.16403,-18.09755c34.13876,0 61.8137,27.67493 61.8137,61.8137c0,34.13876 -27.67493,61.8137 -61.8137,61.8137c-12.1163,0 -71.33834,-12.77651 -62.9328,-33.94765c3.46925,-8.73804 45.80043,8.99413 66.04991,-1.1263c16.26545,-8.12926 11.9461,-44.40256 9.69691,-49.90392c-7.28178,-17.81067 -76.97805,-7.54722 -76.97805,-20.55198z" fill="#d6d6d6" stroke="#8e8e8e" stroke-width="4" stroke-linecap="butt"/></g></g></svg>