<svg version="1.1" xmlns="http://www.w3.org/2000/svg" xmlns:xlink="http://www.w3.org/1999/xlink" width="102.1133" height="86.26683" viewBox="0,0,102.1133,86.26683"><g transform="translate(-189.37163,-144.52987)"><g data-paper-data="{&quot;isPaintingLayer&quot;:true}" fill-rule="nonzero" stroke-linecap="butt" stroke-linejoin="miter" stroke-miterlimit="10" stroke-dasharray="" stroke-dashoffset="0" style="mix-blend-mode: normal"><path d="M211.81867,187.52542l1.02748,-4.718l36.23549,28.38889l-4.84742,-1.01191c0,0 -15.60004,-4.87812 -21.22486,-8.80995c-5.13583,-3.59002 -11.19069,-13.84903 -11.19069,-13.84903z" fill="#373737" stroke="#000000" stroke-width="2.5"/><path d="M253.87646,226.21773l-20.46397,-15.61111c0,0 -0.65812,-5.42144 3.14117,-6.01651c7.94907,-1.24504 39.59935,-3.31927 39.59935,-3.31927l5.72991,11.18697c0,0 -2.80252,13.52333 -7.21455,16.17055c-5.05111,3.03066 -20.79192,-2.41063 -20.79192,-2.41063z" fill="#373737" stroke="#000000" stroke-width="2.5"/><path d="M192.75778,196.6057c0,0 -2.21759,-8.13038 -1.41491,-11.8691c1.03015,-4.79818 8.44744,-15.45122 8.44744,-15.45122l16.35056,-8.66985l8.35644,25.96232c0,0 -15.11712,5.06512 -21.17491,7.38928c-5.45685,2.09361 -10.56463,2.63858 -10.56463,2.63858z" fill="#373737" stroke="#000000" stroke-width="2.5"/><path d="M279.58882,165.48854c-5.87845,2.74633 -13.24171,6.40282 -13.24171,6.40282l-13.83215,-22.39234l11.76209,-3.68823c0,0 12.81678,2.05764 16.98532,4.64741c3.24811,2.01795 7.56012,9.25864 7.56012,9.25864c0,0 -3.93836,3.29781 -9.23367,5.77171z" data-paper-data="{&quot;index&quot;:null}" fill="#373737" stroke="#000000" stroke-width="2.5"/><path d="M211.48687,184.0811l7.36703,-30.01382c0,0 8.97407,-5.26779 17.12968,-6.8567c7.85043,-1.52946 14.74213,0.57022 22.26535,2.92194c7.59615,2.37452 13.09539,10.03289 16.63771,12.93904c11.52555,9.45566 15.18187,38.74499 15.18187,38.74499c0,0 -17.54714,-0.06641 -22.78688,1.32024c-7.65836,2.02672 -18.72779,9.66626 -18.72779,9.66626c0,0 -10.52937,-10.62626 -14.38156,-11.93325c0,0 -8.0645,-3.54511 -11.08335,-5.77926c-4.16665,-3.0836 -11.60206,-11.00943 -11.60206,-11.00943z" fill="#949494" stroke="#000000" stroke-width="2.5"/><path d="M244.77493,198.54231c0,0 -13.15895,-3.01784 -20.36449,-10.73416c-4.24164,-4.54232 -3.56742,-13.74391 -4.59105,-16.77822c-1.4838,-4.39841 3.12063,-13.08314 9.67577,-17.7812c6.55514,-4.69807 12.38366,-5.47898 20.46397,-3.81994c8.08031,1.65904 18.56322,7.49601 24.12676,12.97526c6.34021,6.24415 11.88982,22.49562 11.88982,22.49562l-14.9729,5.77525l0.07833,5.39874c0,0 -5.64822,0.99317 -7.98625,1.76735c-2.35708,0.78049 -2.78135,-4.04218 -2.78135,-4.04218z" fill="#000000" stroke="#000000" stroke-width="2.5"/><g fill="#373737" stroke="#000000" stroke-width="2.5"><path d="M233.47328,213.36704l-6.86716,-10.29152l4.77595,-3.83068c0,0 5.52627,3.15955 7.00786,4.99073c1.15282,1.42484 1.14548,5.08643 1.14548,5.08643z"/><path d="M226.89111,210.22034c-1.92229,-2.88086 -2.12356,-6.12176 -0.44955,-7.23877c1.67401,-1.11701 4.58939,0.31287 6.51168,3.19373c1.92229,2.88086 2.12356,6.12176 0.44955,7.23877c-1.67401,1.11701 -4.58939,-0.31287 -6.51168,-3.19373z"/></g><path d="M273.43872,201.16218c0.9615,-0.9615 1.92299,0 1.92299,0l0.02087,0.04704c4.79768,3.43093 11.48588,11.37223 7.04464,17.63189c-2.85238,4.02026 -10.59854,5.96824 -15.08822,5.94881c-2.56844,-0.56043 -6.47127,-0.96216 -8.37302,-2.96311c-0.66309,-0.69768 -0.64846,-2.79076 -1.54466,-2.43966c-2.15545,0.84442 0.08764,3.62522 -3.90801,3.48254c-0.45048,-0.01609 -2.64294,-2.5092 -3.21001,-2.98841c-2.61291,-2.20808 -4.5258,-7.58757 -6.50707,-10.51759c0,0 -0.04817,-0.07225 1.08322,-0.82651c1.13139,-0.75426 2.59174,2.31888 2.59174,2.31888c1.77061,2.70463 2.1725,4.90292 4.55625,6.92209c0.758,0.64207 0.83698,2.08393 1.7826,2.38825c0.73143,0.23538 0.58004,-1.46545 1.11381,-2.01815c0.54651,-0.56589 1.11681,-1.27252 1.89103,-1.41216c3.2737,-0.59043 2.84572,1.72656 4.21604,3.32104c1.18288,1.37637 4.93431,1.64994 6.60481,2.0295c3.04926,-0.01567 4.62156,-0.87489 7.41726,-2.02537c1.73091,-0.7123 3.93443,-1.10172 5.1459,-2.77914c3.477,-4.8143 -2.95137,-11.40185 -6.39701,-13.85995l-0.36317,-0.33701c0,0 -0.9615,-0.9615 0,-1.92299z" fill="#000000" stroke="none" stroke-width="0.5"/><path d="M237.07377,174.43797c0,-2.76142 2.23858,-5 5,-5c2.76142,0 5,2.23858 5,5c0,2.76142 -2.23858,5 -5,5c-2.76142,0 -5,-2.23858 -5,-5z" fill="#00ff0d" stroke="none" stroke-width="0.5"/><path d="M262.88078,167.52538c0,-2.76142 2.23858,-5 5,-5c2.76142,0 5,2.23858 5,5c0,2.76142 -2.23858,5 -5,5c-2.76142,0 -5,-2.23858 -5,-5z" fill="#00ff0d" stroke="none" stroke-width="0.5"/><path d="M235.62202,151.66104c2.5,0 2.5,2.5 2.5,2.5v2.3042c-0.03024,1.14412 0.23603,2.33548 -0.09071,3.43237c-1.09096,3.66236 -5.39989,6.31964 -8.01495,8.9347c0,0 -1.76777,1.76777 -3.53553,0c-1.76777,-1.76777 0,-3.53553 0,-3.53553c2.7118,-2.7118 6.81657,-4.7761 6.6412,-8.83154v-2.3042c0,0 0,-2.5 2.5,-2.5z" fill="#00ff0d" stroke="none" stroke-width="0.5"/><path d="M258.80692,147.14926l0.85049,2.14149c1.33388,3.83381 5.91075,4.23726 9.432,5.75665c0,0 2.29543,0.99046 1.30498,3.28589c-0.99045,2.29543 -3.28589,1.30498 -3.28589,1.30498c-3.39564,-1.46518 -8.38112,-2.34439 -10.74683,-5.34547c-0.70854,-0.89883 -0.9008,-2.10435 -1.3512,-3.15652l-0.85049,-2.14149c0,0 -0.92276,-2.32347 1.40071,-3.24623c2.32347,-0.92276 3.24623,1.40071 3.24623,1.40071z" data-paper-data="{&quot;index&quot;:null}" fill="#00ff0d" stroke="none" stroke-width="0.5"/></g></g></svg>