<svg version="1.1" xmlns="http://www.w3.org/2000/svg" xmlns:xlink="http://www.w3.org/1999/xlink" width="487.26874" height="757.83155" viewBox="0,0,487.26874,757.83155"><g transform="translate(0.91929,397.46806)"><g data-paper-data="{&quot;isPaintingLayer&quot;:true}" fill-rule="nonzero" stroke="none" stroke-width="0" stroke-linecap="butt" stroke-linejoin="miter" stroke-miterlimit="10" stroke-dasharray="" stroke-dashoffset="0" style="mix-blend-mode: normal"><path d="M241.91318,-2.52883l-5.0266,50.49209l-236.95009,-30.38301v-20.10908z" data-paper-data="{&quot;index&quot;:null}" fill="#d69b00"/><path d="M35.49809,11.61542l10.57778,6.70173l27.75708,-0.19809l22.99275,8.43371l39.50905,0.88429l16.86176,7.76351l43.82135,-1.94332l5.16832,8.60499l23.35541,-3.20737l11.75524,5.21316l0.07615,7.5578l-238.29227,-32.414l0.45073,-5.06899z" data-paper-data="{&quot;index&quot;:null}" fill="#00d624"/><path d="M481.57274,-2.15512v19.96296l-243.83071,30.16223l-5.17256,-50.12519z" data-paper-data="{&quot;index&quot;:null}" fill="#d69b00"/><path d="M480.96051,8.94964l0.46382,10.56899l-244.18284,31.914l0.07836,-7.5578l12.0966,-5.21316l24.03361,3.20737l5.3184,-8.60499l45.09385,1.94332l17.3514,-7.76351l40.65632,-0.88429l23.66042,-8.43371l28.5631,0.19809l10.88494,-6.70173z" data-paper-data="{&quot;index&quot;:null}" fill="#00d624"/><path d="M-0.19947,2.50534v-399.9734h482.09476v399.9734z" fill="#d69b00"/><path d="M0.68117,360.36348v-75.56741h479.65752v75.56742z" fill="#d69b00"/><path d="M0.68117,294.5009v-20.66222h479.66828v20.66222l-49.00456,25.13352l-48.31102,-27.86704l-36.31101,27.06054l-60.60895,-27.71875l-51.4181,18.55532l-63.34764,-15.93977l-63.00778,17.91163l-41.80013,-14.01149l-38.3018,17.92812z" fill="#00d624"/><path d="M0.68117,360.36347v-75.56741h485.65739v75.56742z" fill="#d69b00"/><path d="M0.68117,294.50089v-20.66222h485.66828v20.66222l-49.61754,25.13352l-48.91533,-27.86704l-36.76521,27.06054l-61.36709,-27.71875l-52.06127,18.55532l-64.14003,-15.93977l-63.79592,17.91163l-42.323,-14.01149l-38.7809,17.92812z" fill="#00d624"/></g></g></svg>