<svg version="1.1" xmlns="http://www.w3.org/2000/svg" xmlns:xlink="http://www.w3.org/1999/xlink" width="485.97922" height="360.83332" viewBox="0,0,485.97922,360.83332"><g transform="translate(-0.37023,0.46985)"><g data-paper-data="{&quot;isPaintingLayer&quot;:true}" fill-rule="nonzero" stroke="none" stroke-width="0" stroke-linecap="butt" stroke-linejoin="miter" stroke-miterlimit="10" stroke-dasharray="" stroke-dashoffset="0" style="mix-blend-mode: normal"><path d="M0.68117,360.36346v-75.56741h485.65739v75.56742z" fill="#d69b00"/><path d="M0.68117,294.50088v-20.66222h485.66828v20.66222l-49.61754,25.13352l-48.91533,-27.86704l-36.76521,27.06054l-61.36709,-27.71875l-52.06127,18.55532l-64.14003,-15.93977l-63.79592,17.91163l-42.32299,-14.01149l-38.7809,17.92812z" fill="#00d624"/><path d="M481.83869,-0.46985v17.24268h-421.96847v-17.24268z" data-paper-data="{&quot;index&quot;:null}" fill="#d69b00"/><path d="M0.65925,61.90179l-0.16667,-24.4624l60.0046,-37.66667v62.12907z" fill="#d69b00"/><path d="M0.37023,72.61722v-15.5l13.77368,-14.09533l10.51245,18.29389l9.24719,-14.6597l15.76486,13.96114l5.70175,-15.98302l5.47929,13.48302v14.5z" fill="#00d624"/><path d="M84.0124,9.75484l33.55513,4.09077l36.61992,-3.19709l55.19935,4.08701l55.49709,-3.63707l45.04595,4.23388l53.0978,-6.32476l31.81106,6.17457l42.32393,-6.35859l42.93152,5.73487v4.71463h-420.22393v-4.71463z" data-paper-data="{&quot;index&quot;:null}" fill="#00d624"/></g></g></svg>