<svg version="1.1" xmlns="http://www.w3.org/2000/svg" xmlns:xlink="http://www.w3.org/1999/xlink" width="121.20127" height="90.70278" viewBox="0,0,121.20127,90.70278"><g transform="translate(-174.51154,-124.27999)"><g data-paper-data="{&quot;isPaintingLayer&quot;:true}" fill-rule="nonzero" stroke-linejoin="miter" stroke-miterlimit="10" stroke-dasharray="" stroke-dashoffset="0" style="mix-blend-mode: normal"><g data-paper-data="{&quot;index&quot;:null}" fill="#949494" stroke="#000000" stroke-width="2"><path d="M204.7492,200.30539c0,0 -6.64286,-11.93942 -3.49459,-18.64127c1.13169,-2.40908 0.89596,-2.59479 2.69679,-6.62759c0.64865,-1.4526 1.4419,-2.94082 2.25333,-4.68416c2.17592,-4.67491 4.48262,-9.71385 4.48262,-9.71385c0,0 12.8362,2.13774 17.33941,2.13774c0.4348,0 21.53684,0.47359 21.97571,0.47078c10.74117,-0.06885 7.24001,-0.23325 7.24001,-0.23325c0,0 5.00242,-3.25087 6.6278,-2.9405c3.12122,0.596 6.09658,-2.66377 7.77886,2.9894c0.7907,2.65709 0.61267,2.95203 0.96648,6.59672c0.51648,5.32044 0.7566,13.44454 -1.04569,18.83477c-2.4256,7.25441 -7.20167,11.09865 -7.20167,11.09865z" stroke-linecap="butt"/><path d="M227.98791,199.35514c0,0 9.15072,-8.9704 8.79967,-18.34394c-0.36124,-4.29476 -5.1374,-13.07136 -5.1374,-13.07136l-4.03795,-4.98805l3.32537,4.27547c0,0 4.10165,-0.47068 6.34937,-0.72861c2.54497,-0.29205 8.13973,-0.93407 8.13973,-0.93407l-0.23753,-1.66268" stroke-linecap="round"/><path d="M257.303,170.55263c0,0 3.11779,0.51281 5.78238,2.15324c3.24758,1.99934 6.16789,5.44311 6.30116,8.77418c0.13219,3.30408 -0.67646,8.08355 -3.45338,11.01242c-3.42658,3.61409 -9.1053,5.03108 -10.76089,4.83995c-4.48955,-0.51829 -8.18307,-8.6525 -8.46709,-10.60669c-0.78231,-5.3826 1.63974,-12.17764 2.58871,-13.45012c1.76938,-2.37258 8.00911,-2.72298 8.00911,-2.72298" stroke-linecap="round"/><path d="M207.185,183.61658c0,-4.91169 3.12479,-7.68761 7.2084,-9.39624c1.2606,-0.52746 4.06037,-1.52997 5.49925,-1.52997c6.09996,0 10.09486,4.7358 10.09486,11.16373c0,6.42793 -5.65758,12.58889 -11.75755,12.58889c-6.09997,0 -11.04497,-6.3985 -11.04497,-12.82642z" stroke-linecap="butt"/></g><g data-paper-data="{&quot;index&quot;:null}" stroke="#000000" stroke-width="2" stroke-linecap="round"><path d="M187.97052,155.68867c0,0 9.8184,-0.36242 15.18081,1.85015c2.30639,0.95163 4.85845,2.69326 5.58793,4.05c0.84697,1.57526 -0.34964,2.71436 -0.73406,2.79699c-2.59296,0.55736 -7.71539,-0.49528 -9.77452,-1.34734c-3.60936,-1.49353 -10.49769,-7.34981 -10.49769,-7.34981" fill="#d8d8d8"/><path d="M203.40971,164.23961l1.66268,-5.93816" fill="none"/></g><g data-paper-data="{&quot;index&quot;:null}"><g><path d="M199.19112,186.94314l5.79351,-1.30268l1.09425,4.86655l-5.79351,1.30268z" data-paper-data="{&quot;index&quot;:null}" fill="#000000" stroke="none" stroke-width="0" stroke-linecap="butt"/><path d="M198.30356,200.54833l-4.70964,1.66025l-4.20784,2.16618l-4.36269,-1.02565l1.83579,2.86282l-0.01103,2.68728l0.32902,1.68093l-0.5142,2.51726l-3.51947,-1.86198l-6.68787,-7.41759l-0.32902,-1.68093l-0.32074,-3.69638l6.74714,-7.02654l10.7505,-0.2918z" fill="#949494" stroke="#000000" stroke-width="2.5" stroke-linecap="round"/><path d="M193.81081,190.28447l2.86971,-3.51534l3.19046,0.18105l2.50898,2.52966l-0.35659,5.03727l-1.86887,5.19902l-1.85095,0.83219z" fill="#242424" stroke="#000000" stroke-width="2.5" stroke-linecap="round"/><path d="M201.86025,193.34074l-1.68782,2.00857l-4.70136,-0.35521" fill="none" stroke="#000000" stroke-width="2.5" stroke-linecap="round"/></g><g stroke="none" stroke-linecap="butt"><path d="M178.00947,196.90931l3.71414,-4.45128l11.87237,0.19768l3.31407,7.07954l-7.30905,3.63469l-6.01608,-1.07383z" fill="#8c6200" stroke-width="NaN"/><path d="M189.2273,190.81523l4.99106,2.08051l3.00454,6.97563l-2.97084,1.02139z" fill="#8c0081" stroke-width="NaN"/><path d="M182.98007,210.61796l-7.01702,-8.89311l3.20154,-4.75987l5.13503,5.2213l1.20615,3.12713l1.8947,2.90327l-0.06951,1.35775l-0.8042,2.62369z" fill="#8c0081" stroke-width="0"/><g fill="#ffffff" stroke-width="0.5"><path d="M191.84372,196.7552c0.00045,0.00007 0.0009,0.00013 0.00135,0.0002c0.27099,0.03818 0.23282,0.30918 0.23282,0.30918c-0.20021,1.32189 -1.32716,1.7156 -2.27829,1.14207c0.10934,-0.07057 0.07932,-0.2122 0.07932,-0.2122c-0.20354,-0.96057 -0.38831,-1.92193 -0.64711,-2.86706c0.29902,-0.36028 0.65541,-0.60295 0.98366,-0.53711c0.46238,0.09276 0.87666,0.53598 1.1594,0.86477c0.33336,0.45743 0.40789,0.81959 0.46886,1.30016zM190.48378,195.73317c0.02349,0.11089 0.13245,0.18174 0.24335,0.15825c0.1109,-0.0235 0.18175,-0.13246 0.15825,-0.24335c-0.0235,-0.1109 -0.13245,-0.18174 -0.24335,-0.15825c-0.11089,0.02349 -0.18174,0.13245 -0.15825,0.24335zM190.86473,197.36593c0.0235,0.1109 0.13246,0.18173 0.24335,0.15824c0.11091,-0.02349 0.18175,-0.13245 0.15825,-0.24334c-0.0235,-0.1109 -0.13246,-0.18175 -0.24335,-0.15825c-0.11089,0.02349 -0.18174,0.13245 -0.15825,0.24335z"/><path d="M190.12682,199.2368c0.0788,0.37182 -0.29302,0.45061 -0.29302,0.45061l0.065,-0.05479c-0.16574,0.12916 -0.36204,0.21247 -0.57097,0.2645l0.01036,0.01626l-0.01072,0.00683l0.03443,0.10807l-0.45004,0.14341c-0.01345,0.00447 -0.02729,0.00823 -0.04148,0.01124c-0.20535,0.04352 -0.4071,-0.08766 -0.45061,-0.29302c-0.02368,-0.11174 0.00438,-0.22242 0.06796,-0.30711c-0.00535,-0.00417 -0.00819,-0.00665 -0.00819,-0.00665c-0.44635,-0.39266 -0.85405,-0.81456 -1.27174,-1.22744c-0.09132,0.26946 -0.18831,0.53795 -0.29256,0.80554c-0.28726,0.7373 -0.30164,1.62179 -0.93504,2.10858c0.04349,-0.03313 0.15175,-0.11561 0.19765,-0.15057l0.07453,0.11304l0.03811,-0.04158l0.29807,0.2731c0.05816,0.05198 0.10089,0.12227 0.11831,0.20443c0.04351,0.20535 -0.08768,0.40709 -0.29304,0.4506c-0.03401,0.00721 -0.06794,0.00963 -0.10104,0.00771l-0.38299,-0.01385l0.00245,-0.06775c-0.33029,0.01858 -0.57387,-0.08495 -0.9498,-0.3878c-0.10941,-0.02064 -0.23944,-0.08941 -0.2824,-0.29211c-0.0788,-0.37182 0.29302,-0.45061 0.29302,-0.45061l0.37545,0.07584c0.03246,0.02961 0.06587,0.05555 0.09954,0.0788c0.17871,-0.54772 0.44936,-1.30753 0.49404,-1.44289c0.20787,-0.62974 0.41081,-1.25309 0.60661,-1.87733c-0.14271,-0.12796 -0.28903,-0.25297 -0.44062,-0.37371c-0.29308,-0.23343 -0.61114,-0.42149 -0.92323,-0.62032c-0.09225,0.24349 -0.23571,0.48906 -0.47661,0.7656l-0.24538,0.37735c-0.05301,0.08154 -0.13716,0.14285 -0.23983,0.16461c-0.20536,0.04351 -0.40711,-0.08767 -0.45061,-0.29302c-0.00984,-0.04646 -0.01074,-0.09271 -0.00387,-0.137l0.09775,-0.74492l0.02997,0.00393c-0.01805,-0.63609 0.09477,-1.14851 0.46995,-1.95771l0.09935,-0.15979c0,0 0.2072,-0.31862 0.52583,-0.11143c0.03103,0.02018 0.05708,0.04142 0.07882,0.06332c0.03134,-0.00097 0.06544,0.00163 0.10252,0.00861c0.37351,0.07029 0.30324,0.4438 0.30324,0.4438c-0.05722,0.29757 -0.0861,0.55471 -0.11731,0.79054c0.4015,0.28118 0.83636,0.50492 1.22442,0.81296c0.07126,0.05655 0.14137,0.11415 0.21052,0.17262c0.16958,-0.56095 0.33268,-1.12509 0.48766,-1.69767c-0.30584,-0.16732 -0.53959,-0.38654 -0.5217,-0.66798c0.08305,-1.30672 1.88017,-0.07299 2.18668,0.20737l0.14708,0.21749c0,0 0.19233,0.32783 -0.1355,0.52015c-0.01889,0.01109 -0.03733,0.02043 -0.05531,0.02823c0.19661,0.77371 0.35125,1.557 0.51582,2.3401c-0.04949,-0.04566 -0.098,-0.09431 -0.14535,-0.14599c-0.07287,-0.07955 -0.69387,-0.74818 -0.72764,-0.85019c-0.10025,-0.30279 0.05154,-0.84345 0.32528,-1.33154c-0.02357,0.00808 -0.04629,0.01347 -0.06812,0.01658c-0.14401,0.13358 -0.35536,0.07852 -0.35536,0.07852c-0.10847,-0.02851 -0.2706,-0.06976 -0.45218,-0.12569c-0.17519,0.67518 -0.35058,1.34338 -0.54991,2.00547c0.50394,0.48807 0.98241,0.99947 1.51485,1.46177c0,0 0.03037,0.02656 0.06268,0.07227c0.13987,-0.17583 0.29931,-0.33723 0.46727,-0.48534c0,0 0.28676,-0.24945 0.53621,0.03732c0.1688,0.19407 0.09204,0.37104 0.02477,0.46518c0.02413,0.03815 0.04364,0.08529 0.05596,0.14347z"/></g></g></g><path d="M223.8401,193.13072l-16.06011,5.99651l-4.83637,-10.06453l0.05889,-1.59229l13.46518,-7.68694l6.74256,-1.23881l4.12832,3.3416l1.08147,5.24858l-1.1793,3.14531z" data-paper-data="{&quot;index&quot;:null}" fill="#949494" stroke="#000000" stroke-width="2.5" stroke-linecap="round"/><g><g stroke="#000000" stroke-width="2.5"><path d="M263.15632,158.32968c0,0 0.37382,-1.49134 0,-2.61279c-0.33436,-1.00305 -2.13774,-3.80042 -2.13774,-3.80042c0,0 -4.82884,-3.36413 -4.50429,-6.71662c0.03684,-0.38056 1.48571,-8.6683 6.28563,-13.35727c3.43077,-3.35147 10.43238,-3.70263 11.33658,-3.33724c0.69893,0.28244 5.09711,0.72703 9.16966,2.53989c5.73937,2.55483 11.05964,6.41853 11.05964,6.41853l-2.00675,13.6172l-20.88931,-0.1146l0.71258,7.36331z" fill="#949494" stroke-linecap="butt"/><path d="M293.55969,144.79068l-13.06394,-2.61279l-3.32537,-3.32537l-3.32537,-9.9761l11.16373,3.56289l8.78847,4.98805z" fill="#000000" stroke-linecap="round"/><path d="M276.22027,140.5152h1.66268" fill="none" stroke-linecap="round"/><path d="M275.27017,142.89049l2.37526,0.23753" fill="none" stroke-linecap="round"/><path d="M274.55758,145.26575l1.42516,0.23753" fill="none" stroke-linecap="round"/><path d="M290.70569,151.07785c0,0 -12.49164,-0.39597 -18.91936,0.1673c-1.58149,0.13859 -0.21237,1.97931 -1.19817,1.99021c-8.7343,0.0966 -9.63865,-1.9509 -10.4463,-2.94232c-2.00598,-2.46241 -4.19835,-5.75255 -4.09135,-6.33654c0.13759,-0.75094 1.86893,-2.51352 1.86893,-2.51352l3.92426,1.53509l5.4631,1.90021l5.70063,1.18763l9.9761,0.23753l8.07589,4.27547" fill="#373737" stroke-linecap="round"/><path d="M287.38827,157.63449l-1.55522,2.03121l-11.89413,-3.32954l-2.38801,-1.16179l-0.27463,-2.54345l0.9697,-1.70181l1.52784,-1.05225l1.24434,0.84164l0.75949,1.69255l0.59478,1.39978z" fill="#000000" stroke-linecap="round"/><path d="M267.4318,154.29175l-0.23753,2.61279" fill="none" stroke-linecap="round"/><path d="M263.39385,153.81669l8.55094,0.71258" fill="none" stroke-linecap="round"/><path d="M266.48168,132.20181l-1.18763,2.13774l0.47505,2.13774l-3.56289,-1.90021l0.23753,-4.513l3.32537,-3.80042l1.42516,1.90021l0.23753,3.32537z" fill="#151515" stroke-linecap="round"/><path d="M267.19428,135.88542l-3.32537,0.47505l-1.66268,-3.32537l0.9501,-1.42516l2.37526,-2.13774l1.90021,-0.23753l1.18763,0.9501l1.18763,1.18763l0.47505,2.61279z" fill="none" stroke-linecap="round"/></g><path d="M288.99415,136.0034l-8.50608,-3.99452" fill="none" stroke="#54ff00" stroke-width="1.5" stroke-linecap="round"/><path d="M282.86438,137.12391c-0.15836,-0.17393 -0.30928,-0.4711 -0.08496,-0.87594c0.37611,-0.67878 1.05489,-0.30267 1.05489,-0.30267c0.90987,0.50441 1.78809,1.06393 2.68416,1.59246c0.28701,0.16929 2.14788,1.07068 2.24647,1.43501c0.84969,3.1399 -9.24828,3.9186 -6.25006,-1.68955z" data-paper-data="{&quot;index&quot;:null}" fill="#54ff00" stroke="none" stroke-width="0.5" stroke-linecap="butt"/></g><g data-paper-data="{&quot;index&quot;:null}"><g><path d="M275.64477,168.49257l-2.18123,5.52304l-4.63935,-1.83223l2.18123,-5.52304z" fill="#000000" stroke="none" stroke-width="0" stroke-linecap="butt"/><path d="M279.55694,138.85081c0,0 0.97297,-0.81337 1.64488,-0.02347c1.76065,2.06985 9.30894,12.90101 9.30894,12.90101l-5.75474,16.62346c0,0 -5.91613,-4.35783 -8.44793,-5.87701c-0.98222,-0.58937 2.28725,-11.63432 1.78681,-12.24881c-0.52017,-0.63872 3.24162,-0.3984 3.84684,-0.93597c0.68335,-0.60696 -1.75857,-1.97559 -2.07668,-2.40774c-0.89627,-1.2176 -2.15197,-3.72483 -2.15197,-3.72483z" fill="#949494" stroke="#000000" stroke-width="2.5" stroke-linecap="butt"/><path d="M284.9765,170.25408l-10.26582,0.47813l-2.20173,-2.01081l-0.77445,-2.46253l0.99694,-2.62295l2.81887,-1.78002z" fill="#242424" stroke="#000000" stroke-width="2.5" stroke-linecap="butt"/><path d="M279.74534,165.55153l0.36131,2.09355l-1.29919,1.84115" fill="none" stroke="#000000" stroke-width="2.5" stroke-linecap="round"/><path d="M281.40863,149.58028l5.71742,-1.84907" fill="none" stroke="#000000" stroke-width="2.5" stroke-linecap="round"/></g><g stroke="none" stroke-linecap="butt"><path d="M289.09584,150.95433l-4.2567,15.76143l-9.06633,-4.65795l1.61562,-2.8783l2.07199,-7.96303z" fill="#8c6200" stroke-width="NaN"/><path d="M285.78995,162.92067l-1.24133,3.71768l-8.49982,-4.84853l1.76004,-3.013z" fill="#8c0081" stroke-width="NaN"/><path d="M289.50762,151.14423l-10.47779,3.05627l0.27686,-2.99764l3.33012,-2.69743l-2.04461,-2.30657l-1.44981,-3.14912l0.2673,-1.333l1.17921,-2.47789z" fill="#8c0081" stroke-width="0"/><g fill="#ffffff" stroke-width="0.5"><path d="M282.28819,161.53041c-0.00026,0.00037 -0.00053,0.00073 -0.0008,0.0011c-0.1618,0.22072 -0.38253,0.05891 -0.38253,0.05891c-1.07002,-0.80157 -0.88395,-1.98073 0.07121,-2.54752c0.01047,0.12971 0.14946,0.17025 0.14946,0.17025c0.94262,0.27495 1.87704,0.56681 2.8322,0.78577c0.17603,0.43385 0.22131,0.86263 0.00804,1.12071c-0.30041,0.36354 -0.88687,0.51895 -1.31027,0.61258c-0.5607,0.0774 -0.91505,-0.02822 -1.36731,-0.20178zM283.57736,160.95511c-0.03175,0.10882 0.03074,0.22277 0.13957,0.25452c0.10882,0.03175 0.22277,-0.03074 0.25452,-0.13957c0.03175,-0.10882 -0.03074,-0.22277 -0.13957,-0.25452c-0.10882,-0.03175 -0.22277,0.03074 -0.25452,0.13957zM282.2131,160.37902c-0.10882,-0.03175 -0.22277,0.03074 -0.25452,0.13957c-0.03175,0.10882 0.03074,0.22277 0.13957,0.25452c0.10882,0.03174 0.22277,-0.03074 0.25452,-0.13957c0.03174,-0.10883 -0.03074,-0.22278 -0.13957,-0.25452z"/><path d="M280.91366,158.84402c-0.36486,-0.10642 -0.25845,-0.47129 -0.25845,-0.47129l0.01754,0.08319c-0.03542,-0.20711 -0.01599,-0.41947 0.03698,-0.62817l-0.01924,0.00145l-0.00095,-0.01268l-0.11151,-0.02078l0.08649,-0.46436c0.00242,-0.01396 0.00565,-0.02794 0.00972,-0.04186c0.05878,-0.20151 0.26978,-0.31723 0.47129,-0.25845c0.10965,0.03198 0.19389,0.10906 0.23845,0.20513c0.00622,-0.00274 0.00974,-0.00406 0.00974,-0.00406c0.55708,-0.20758 1.12163,-0.36726 1.68295,-0.54002c-0.19423,-0.20791 -0.38493,-0.42033 -0.57139,-0.63875c-0.51377,-0.6018 -1.2863,-1.03278 -1.41564,-1.82108c0.00862,0.05398 0.03008,0.18839 0.03919,0.24536l-0.13484,0.0122l0.01862,0.05325l-0.3816,0.13347c-0.07331,0.02666 -0.15545,0.03107 -0.23607,0.00756c-0.20151,-0.05878 -0.31723,-0.26978 -0.25845,-0.47129c0.00974,-0.03338 0.02365,-0.06442 0.041,-0.09268l0.19335,-0.3309l0.05854,0.0342c0.13983,-0.2998 0.34625,-0.46546 0.79089,-0.65346c0.06993,-0.08664 0.19202,-0.16868 0.39094,-0.11066c0.36487,0.10643 0.25845,0.47129 0.25845,0.47129l-0.24439,0.29494c-0.04144,0.01459 -0.0801,0.03175 -0.1165,0.05043c0.39808,0.4165 0.93954,1.01431 1.03767,1.1177c0.45655,0.48098 0.9098,0.9546 1.36721,1.42234c0.18024,-0.06522 0.35959,-0.13503 0.53766,-0.2115c0.34428,-0.14784 0.66039,-0.33914 0.98319,-0.52009c-0.17091,-0.19644 -0.31943,-0.43898 -0.44915,-0.78202l-0.21643,-0.39466c-0.04677,-0.08528 -0.061,-0.18842 -0.03162,-0.28917c0.05878,-0.20151 0.26978,-0.31723 0.47129,-0.25845c0.04558,0.01329 0.08678,0.03438 0.12255,0.06138l0.61011,0.43842l-0.01763,0.02454c0.56901,0.28493 0.96713,0.62668 1.50268,1.33994l0.0938,0.16311c0,0 0.18275,0.33327 -0.15051,0.51601c-0.03246,0.0178 -0.06349,0.0307 -0.09306,0.0395c-0.01396,0.02807 -0.03238,0.05689 -0.05607,0.08626c-0.23857,0.29586 -0.53444,0.05729 -0.53444,0.05729c-0.23513,-0.19116 -0.44803,-0.33822 -0.64108,-0.47724c-0.43762,0.22077 -0.84043,0.49813 -1.29537,0.69436c-0.08353,0.03603 -0.16743,0.07057 -0.25165,0.10385c0.41405,0.41471 0.83399,0.82522 1.26518,1.23257c0.29207,-0.19034 0.59576,-0.29262 0.83528,-0.14376c1.11206,0.69118 -0.8249,1.69113 -1.21688,1.8286l-0.26119,0.02673c0,0 -0.3798,0.01442 -0.39422,-0.36538c-0.00083,-0.02189 -0.00034,-0.04255 0.00129,-0.06208c-0.77469,-0.19268 -1.53797,-0.42689 -2.3058,-0.65223c0.06363,-0.02203 0.12945,-0.04176 0.19738,-0.05903c0.10456,-0.02659 0.98737,-0.25752 1.09322,-0.23903c0.31421,0.05488 0.71879,0.44431 1.01938,0.91635c0.00403,-0.02458 0.01003,-0.04715 0.01761,-0.06786c-0.04958,-0.19006 0.09889,-0.35025 0.09889,-0.35025c0.07642,-0.08209 0.18944,-0.20544 0.3246,-0.33898c-0.51205,-0.47368 -1.01784,-0.94423 -1.50694,-1.43298c-0.66838,0.21319 -1.34526,0.3929 -2.0044,0.6434c0,0 -0.03776,0.0142 -0.09332,0.02105c0.08877,0.20641 0.15556,0.42322 0.20663,0.64125c0,0 0.08417,0.37064 -0.28647,0.4548c-0.25083,0.05696 -0.37045,-0.09438 -0.42158,-0.19817c-0.04501,0.00322 -0.09578,-0.00189 -0.15287,-0.01855z"/></g></g></g><path d="M276.77838,181.17503l-13.62278,6.84992c0,0 -5.12168,2.03536 -6.70224,0.86438c-0.89731,-0.66477 -4.24426,-2.63311 -5.33733,-4.39948c-1.36874,-2.21189 0.033,-4.92853 0.0213,-6.12688c-0.00511,-0.52323 3.40935,-3.24198 3.40935,-3.24198c0,0 3.23129,-1.17585 5.37029,-1.95422c3.17466,-1.15525 11.82969,-4.30477 11.82969,-4.30477z" data-paper-data="{&quot;index&quot;:null}" fill="#949494" stroke="#000000" stroke-width="2.5" stroke-linecap="butt"/></g></g></svg>