<svg version="1.1" xmlns="http://www.w3.org/2000/svg" xmlns:xlink="http://www.w3.org/1999/xlink" width="488.40361" height="292.5461" viewBox="0,0,488.40361,292.5461"><g transform="translate(4.70181,-68.4344)"><g data-paper-data="{&quot;isPaintingLayer&quot;:true}" fill-rule="nonzero" stroke="none" stroke-width="0" stroke-linecap="butt" stroke-linejoin="miter" stroke-miterlimit="10" stroke-dasharray="" stroke-dashoffset="0" style="mix-blend-mode: normal"><path d="M-4.34382,359.9805v-275.5621h199.04562v275.56204z" data-paper-data="{&quot;index&quot;:null}" fill="#866000"/><path d="M183.24594,110.1487l-15.92249,-17.92812l-17.37681,14.01149l-26.19305,-17.91163l-26.33435,15.93977l-21.3751,-18.55532l-25.19585,27.71874l-15.0949,-27.06054l-20.08345,27.86705l-20.37175,-25.13352v-20.66222h199.40361v20.66222z" data-paper-data="{&quot;index&quot;:null}" fill="#005f10"/><path d="M192.82135,360.9805v-115.82752h290.88045v115.82749z" data-paper-data="{&quot;index&quot;:null}" fill="#866000"/><path d="M466.96047,268.00755l-23.26874,-16.14832l-25.39404,12.62051l-38.2779,-16.13347l-38.48438,14.35736l-31.23706,-16.71326l-36.8206,24.96699l-22.05933,-24.37413l-29.34945,25.10057l-29.77079,-22.63841v-18.611h291.40361v18.611z" data-paper-data="{&quot;index&quot;:null}" fill="#005f10"/></g></g></svg>