<svg version="1.1" xmlns="http://www.w3.org/2000/svg" xmlns:xlink="http://www.w3.org/1999/xlink" width="670.767" height="425.21875" viewBox="0,0,670.767,425.21875"><defs><linearGradient x1="240" y1="-21" x2="240" y2="381" gradientUnits="userSpaceOnUse" id="color-1"><stop offset="0" stop-color="#00efff"/><stop offset="1" stop-color="#005358"/></linearGradient><linearGradient x1="346.39815" y1="132.21875" x2="346.39815" y2="180.21875" gradientUnits="userSpaceOnUse" id="color-2"><stop offset="0" stop-color="#e05200"/><stop offset="1" stop-color="#da5d00"/></linearGradient><linearGradient x1="228.39815" y1="153.21875" x2="228.39815" y2="201.21875" gradientUnits="userSpaceOnUse" id="color-3"><stop offset="0" stop-color="#e05200"/><stop offset="1" stop-color="#da5d00"/></linearGradient><linearGradient x1="207.39815" y1="238.21875" x2="207.39815" y2="286.21875" gradientUnits="userSpaceOnUse" id="color-4"><stop offset="0" stop-color="#e05200"/><stop offset="1" stop-color="#da5d00"/></linearGradient><linearGradient x1="462.39816" y1="150.21875" x2="462.39816" y2="198.21875" gradientUnits="userSpaceOnUse" id="color-5"><stop offset="0" stop-color="#e05200"/><stop offset="1" stop-color="#da5d00"/></linearGradient><linearGradient x1="461.39816" y1="263.21875" x2="461.39816" y2="311.21875" gradientUnits="userSpaceOnUse" id="color-6"><stop offset="0" stop-color="#e05200"/><stop offset="1" stop-color="#da5d00"/></linearGradient><linearGradient x1="415.39816" y1="339.21875" x2="415.39816" y2="387.21875" gradientUnits="userSpaceOnUse" id="color-7"><stop offset="0" stop-color="#e05200"/><stop offset="1" stop-color="#da5d00"/></linearGradient><linearGradient x1="240.39815" y1="316.21875" x2="240.39815" y2="364.21875" gradientUnits="userSpaceOnUse" id="color-8"><stop offset="0" stop-color="#e05200"/><stop offset="1" stop-color="#da5d00"/></linearGradient><linearGradient x1="325.39815" y1="356.21875" x2="325.39815" y2="404.21875" gradientUnits="userSpaceOnUse" id="color-9"><stop offset="0" stop-color="#e05200"/><stop offset="1" stop-color="#da5d00"/></linearGradient></defs><g transform="translate(100.767,21)"><g data-paper-data="{&quot;isPaintingLayer&quot;:true}" fill-rule="nonzero" stroke-linejoin="miter" stroke-miterlimit="10" stroke-dasharray="" stroke-dashoffset="0" style="mix-blend-mode: normal"><path d="M-90,381v-402h660v402z" fill="url(#color-1)" stroke="none" stroke-width="0" stroke-linecap="butt"/><path d="M406.69443,234.15623c0,22.36753 -32.2355,40.5 -72,40.5c-39.7645,0 -72,-18.13247 -72,-40.5c0,-22.36753 32.2355,-40.5 72,-40.5c39.7645,0 72,18.13247 72,40.5z" fill="#000000" stroke="none" stroke-width="NaN" stroke-linecap="butt"/><g stroke-linecap="butt"><path d="M290.23148,180.21875l12.66667,-48h87.33333l12.33334,48z" fill="url(#color-2)" stroke="none" stroke-width="0"/><path d="M380.89814,153.55208c0,9.57294 -15.37155,17.33333 -34.33333,17.33333c-18.96177,0 -34.33334,-7.7604 -34.33334,-17.33333c0,-9.57294 27.33334,-101 27.33334,-101l13.13165,0.20166c0,0 28.20168,93.40776 28.20168,100.79834z" fill="#ff6710" stroke="none" stroke-width="0"/><path d="M314.43813,140.30647l6.10829,-21c0,0 18.59238,5.20224 25.35603,4.92173c8.77915,-0.3641 25.11774,-7.25506 25.11774,-7.25506l6.75127,24c0,0 -21.40092,11.11318 -32.14162,11.16914c-10.58239,0.05514 -31.19171,-11.83581 -31.19171,-11.83581z" fill="#ffffff" stroke="#c3c3c3" stroke-width="0.5"/><path d="M327.43813,92.97314l8.33333,-24c0,0 6.80563,1.33333 10.66667,1.33333c3.41823,0 11.33333,-1.33333 11.33333,-1.33333l8.33333,23.33333c0,0 -16.12069,3.97638 -20.70074,3.77506c-5.39652,-0.23721 -17.96593,-3.10839 -17.96593,-3.10839z" fill="#ffffff" stroke="#c3c3c3" stroke-width="0.5"/></g><g stroke-linecap="butt"><path d="M172.23148,201.21875l12.66667,-48h87.33333l12.33334,48z" fill="url(#color-3)" stroke="none" stroke-width="0"/><path d="M262.89814,174.55208c0,9.57293 -15.37155,17.33333 -34.33333,17.33333c-18.96177,0 -34.33334,-7.7604 -34.33334,-17.33333c0,-9.57293 27.33334,-101 27.33334,-101l13.13165,0.20167c0,0 28.20168,93.40775 28.20168,100.79833z" fill="#ff6710" stroke="none" stroke-width="0"/><path d="M196.43813,161.30647l6.10829,-21c0,0 18.59238,5.20224 25.35603,4.92173c8.77915,-0.3641 25.11774,-7.25506 25.11774,-7.25506l6.75127,24c0,0 -21.40092,11.11318 -32.14162,11.16915c-10.58239,0.05514 -31.19171,-11.83581 -31.19171,-11.83581z" fill="#ffffff" stroke="#c3c3c3" stroke-width="0.5"/><path d="M209.43813,113.97314l8.33333,-24c0,0 6.80563,1.33333 10.66667,1.33333c3.41823,0 11.33333,-1.33333 11.33333,-1.33333l8.33333,23.33333c0,0 -16.12069,3.97638 -20.70074,3.77506c-5.39652,-0.23721 -17.96593,-3.10839 -17.96593,-3.10839z" fill="#ffffff" stroke="#c3c3c3" stroke-width="0.5"/></g><g stroke-linecap="butt"><path d="M151.23147,286.21875l12.66667,-48h87.33333l12.33334,48z" fill="url(#color-4)" stroke="none" stroke-width="0"/><path d="M241.89814,259.55208c0,9.57293 -15.37155,17.33333 -34.33333,17.33333c-18.96177,0 -34.33333,-7.7604 -34.33333,-17.33333c0,-9.57294 27.33333,-101 27.33333,-101l13.13165,0.20166c0,0 28.20168,93.40776 28.20168,100.79834z" fill="#ff6710" stroke="none" stroke-width="0"/><path d="M175.43813,246.30647l6.10829,-21c0,0 18.59238,5.20224 25.35604,4.92173c8.77914,-0.3641 25.11774,-7.25506 25.11774,-7.25506l6.75127,24c0,0 -21.40092,11.11318 -32.14162,11.16914c-10.58239,0.05513 -31.19171,-11.83581 -31.19171,-11.83581z" fill="#ffffff" stroke="#c3c3c3" stroke-width="0.5"/><path d="M188.43813,198.97314l8.33334,-24c0,0 6.80563,1.33333 10.66666,1.33333c3.41823,0 11.33334,-1.33333 11.33334,-1.33333l8.33333,23.33333c0,0 -16.12069,3.97638 -20.70074,3.77506c-5.39652,-0.23721 -17.96593,-3.1084 -17.96593,-3.1084z" fill="#ffffff" stroke="#c3c3c3" stroke-width="0.5"/></g><g stroke-linecap="butt"><path d="M406.23148,198.21875l12.66667,-48h87.33333l12.33334,48z" fill="url(#color-5)" stroke="none" stroke-width="0"/><path d="M496.89816,171.55208c0,9.57294 -15.37155,17.33333 -34.33333,17.33333c-18.96177,0 -34.33334,-7.7604 -34.33334,-17.33333c0,-9.57294 27.33334,-101 27.33334,-101l13.13165,0.20166c0,0 28.20168,93.40776 28.20168,100.79834z" fill="#ff6710" stroke="none" stroke-width="0"/><path d="M430.43815,158.30647l6.10829,-21c0,0 18.59238,5.20224 25.35603,4.92173c8.77915,-0.3641 25.11774,-7.25506 25.11774,-7.25506l6.75127,24c0,0 -21.40092,11.11318 -32.14162,11.16914c-10.58239,0.05514 -31.19171,-11.83581 -31.19171,-11.83581z" fill="#ffffff" stroke="#c3c3c3" stroke-width="0.5"/><path d="M443.43815,110.97314l8.33333,-24c0,0 6.80563,1.33333 10.66667,1.33333c3.41823,0 11.33333,-1.33333 11.33333,-1.33333l8.33333,23.33333c0,0 -16.12069,3.97638 -20.70074,3.77506c-5.39652,-0.23721 -17.96593,-3.10839 -17.96593,-3.10839z" fill="#ffffff" stroke="#c3c3c3" stroke-width="0.5"/></g><g stroke-linecap="butt"><path d="M405.23148,311.21875l12.66667,-48h87.33333l12.33334,48z" fill="url(#color-6)" stroke="none" stroke-width="0"/><path d="M495.89816,284.55208c0,9.57293 -15.37155,17.33333 -34.33333,17.33333c-18.96177,0 -34.33334,-7.7604 -34.33334,-17.33333c0,-9.57293 27.33334,-101 27.33334,-101l13.13165,0.20166c0,0 28.20168,93.40776 28.20168,100.79834z" fill="#ff6710" stroke="none" stroke-width="0"/><path d="M429.43815,271.30647l6.10829,-21c0,0 18.59238,5.20224 25.35603,4.92173c8.77915,-0.3641 25.11774,-7.25506 25.11774,-7.25506l6.75127,24c0,0 -21.40092,11.11318 -32.14162,11.16915c-10.58239,0.05513 -31.19171,-11.83581 -31.19171,-11.83581z" fill="#ffffff" stroke="#c3c3c3" stroke-width="0.5"/><path d="M442.43815,223.97314l8.33333,-24c0,0 6.80563,1.33333 10.66667,1.33333c3.41823,0 11.33333,-1.33333 11.33333,-1.33333l8.33333,23.33333c0,0 -16.12069,3.97638 -20.70074,3.77506c-5.39652,-0.23721 -17.96593,-3.10839 -17.96593,-3.10839z" fill="#ffffff" stroke="#c3c3c3" stroke-width="0.5"/></g><g stroke-linecap="butt"><path d="M359.23148,387.21875l12.66667,-48h87.33333l12.33334,48z" fill="url(#color-7)" stroke="none" stroke-width="0"/><path d="M449.89816,360.55208c0,9.57293 -15.37155,17.33333 -34.33333,17.33333c-18.96177,0 -34.33334,-7.7604 -34.33334,-17.33333c0,-9.57294 27.33334,-101 27.33334,-101l13.13165,0.20167c0,0 28.20168,93.40776 28.20168,100.79834z" fill="#ff6710" stroke="none" stroke-width="0"/><path d="M383.43813,347.30647l6.10829,-21c0,0 18.59238,5.20224 25.35603,4.92173c8.77915,-0.3641 25.11774,-7.25506 25.11774,-7.25506l6.75127,24c0,0 -21.40092,11.11318 -32.14162,11.16914c-10.58239,0.05514 -31.19171,-11.83581 -31.19171,-11.83581z" fill="#ffffff" stroke="#c3c3c3" stroke-width="0.5"/><path d="M396.43813,299.97314l8.33333,-24c0,0 6.80563,1.33333 10.66667,1.33333c3.41823,0 11.33333,-1.33333 11.33333,-1.33333l8.33333,23.33333c0,0 -16.12069,3.97638 -20.70074,3.77506c-5.39652,-0.23721 -17.96593,-3.10839 -17.96593,-3.10839z" fill="#ffffff" stroke="#c3c3c3" stroke-width="0.5"/></g><g stroke-linecap="butt"><path d="M184.23148,364.21875l12.66667,-48h87.33333l12.33334,48z" fill="url(#color-8)" stroke="none" stroke-width="0"/><path d="M274.89815,337.55208c0,9.57293 -15.37155,17.33333 -34.33333,17.33333c-18.96177,0 -34.33334,-7.7604 -34.33334,-17.33333c0,-9.57293 27.33334,-101 27.33334,-101l13.13165,0.20167c0,0 28.20168,93.40775 28.20168,100.79833z" fill="#ff6710" stroke="none" stroke-width="0"/><path d="M208.43813,324.30647l6.10829,-21c0,0 18.59238,5.20224 25.35603,4.92173c8.77915,-0.3641 25.11774,-7.25506 25.11774,-7.25506l6.75127,24c0,0 -21.40092,11.11318 -32.14162,11.16915c-10.58239,0.05514 -31.19171,-11.83581 -31.19171,-11.83581z" fill="#ffffff" stroke="#c3c3c3" stroke-width="0.5"/><path d="M221.43813,276.97314l8.33333,-24c0,0 6.80563,1.33333 10.66667,1.33333c3.41823,0 11.33333,-1.33333 11.33333,-1.33333l8.33333,23.33333c0,0 -16.12069,3.97638 -20.70074,3.77506c-5.39652,-0.23721 -17.96593,-3.10839 -17.96593,-3.10839z" fill="#ffffff" stroke="#c3c3c3" stroke-width="0.5"/></g><g stroke-linecap="butt"><path d="M269.23148,404.21875l12.66667,-48h87.33333l12.33334,48z" fill="url(#color-9)" stroke="none" stroke-width="0"/><path d="M359.89814,377.55208c0,9.57293 -15.37155,17.33333 -34.33333,17.33333c-18.96177,0 -34.33334,-7.7604 -34.33334,-17.33333c0,-9.57293 27.33334,-101 27.33334,-101l13.13165,0.20166c0,0 28.20168,93.40776 28.20168,100.79834z" fill="#ff6710" stroke="none" stroke-width="0"/><path d="M293.43813,364.30647l6.10829,-21c0,0 18.59238,5.20224 25.35603,4.92173c8.77915,-0.3641 25.11774,-7.25506 25.11774,-7.25506l6.75127,24c0,0 -21.40092,11.11318 -32.14162,11.16915c-10.58239,0.05514 -31.19171,-11.83581 -31.19171,-11.83581z" fill="#ffffff" stroke="#c3c3c3" stroke-width="0.5"/><path d="M306.43813,316.97314l8.33334,-24c0,0 6.80563,1.33333 10.66666,1.33333c3.41823,0 11.33333,-1.33333 11.33333,-1.33333l8.33333,23.33333c0,0 -16.12069,3.97638 -20.70074,3.77506c-5.39652,-0.23721 -17.96593,-3.10839 -17.96593,-3.10839z" fill="#ffffff" stroke="#c3c3c3" stroke-width="0.5"/></g><g stroke-linecap="butt"><path d="M79.56386,270.92421v-111.4h25.33333v111.4z" fill="#fffe00" stroke="#abab00" stroke-width="5"/><path d="M18.5549,102.56773c0,-41.46282 33.61226,-75.07508 75.07508,-75.07508c41.46282,0 75.07508,33.61226 75.07508,75.07508c0,41.46282 -33.61226,75.07508 -75.07508,75.07508c-41.46282,0 -75.07508,-33.61226 -75.07508,-75.07508z" fill="#fffe00" stroke="#abab00" stroke-width="5"/><path d="M131.60756,131.48556c0,9.32197 -20.40377,16.87892 -45.57309,16.87892c-25.16932,0 -45.57309,-7.55695 -45.57309,-16.87892c0,-9.32197 20.40377,-16.87892 45.57309,-16.87892c25.16932,0 45.57309,7.55695 45.57309,16.87892z" fill="#000000" stroke="none" stroke-width="0"/><path d="M149.2238,91.10384c2.40668,0.96267 1.44401,3.36935 1.44401,3.36935l-0.90153,1.79823c-1.72715,1.04702 -2.58861,2.59399 -4.80987,2.99754c-2.97069,0.53971 -6.05454,0.11397 -8.95074,1.12605c0,0 -0.66007,0.22002 -1.41025,0.0901c-0.33588,1.01976 -1.06021,1.8352 -1.57519,2.74388c-0.23102,0.40762 -0.29106,0.91161 -0.58024,1.28026c-0.93973,1.19796 -2.53604,2.25211 -3.81482,3.02325c-0.45572,0.1473 -0.93067,0.27911 -1.41738,0.3894c0.74052,0.83699 1.46477,1.6991 2.24831,2.5482c2.02991,2.19973 5.30166,4.76195 6.0071,7.86678c0.42589,1.87446 0.30329,3.84294 0.30329,5.74937v0.80462c0,0 0,2.59208 -2.59208,2.59208c-2.59208,0 -2.59208,-2.59208 -2.59208,-2.59208v-0.80462c0,-1.39359 0.15737,-2.93339 -0.09902,-4.30844c-0.10678,-0.5727 -0.85731,-1.35239 -1.16843,-1.74805c-0.71596,-0.91053 -1.37458,-1.74834 -2.19763,-2.57076c-2.17154,-2.16987 -3.90643,-4.75795 -6.36052,-6.59852c0,0 -0.69041,-0.51781 -0.9757,-1.35423c-0.51689,-0.04089 -1.03566,-0.10349 -1.52878,-0.27921c-1.96373,-0.69977 -3.18922,-2.24497 -4.50986,-3.7404c-0.39736,-0.44996 -0.92122,-0.79787 -1.23832,-1.30758c-0.53716,-0.86343 -0.58422,-1.95115 -0.78365,-2.94829c-0.07081,-0.35407 -0.35646,-0.64762 -0.40231,-1.00578c-0.05554,-0.43382 -0.04677,-3.09548 -0.04677,-3.90983c0,0 0,-0.92037 0.54843,-1.66426c-0.04799,-0.11983 -0.09785,-0.2402 -0.14996,-0.36114c-0.15438,-0.35829 -0.36662,-0.69288 -0.55157,-1.03778c-0.02869,0.00493 -0.05699,0.0136 -0.08484,0.02672c-0.331,0.15602 -0.35027,0.67205 -0.64598,0.88759c-0.63027,0.45938 -1.45811,0.6074 -2.0695,1.09163c-0.69276,0.54869 -0.95859,1.49393 -1.54833,2.1521c-1.04769,1.16925 -2.23304,2.24226 -3.34382,3.35304l-0.40231,0.40231c0,0 -1.83287,1.83287 -3.66575,0c-1.83287,-1.83287 0,-3.66575 0,-3.66575l0.40231,-0.40231c1.02497,-1.02497 2.12097,-2.00997 3.09318,-3.08395c0.7571,-0.83636 1.2115,-1.94666 2.07248,-2.67565c0.68727,-0.58192 1.61498,-0.81043 2.35593,-1.32224c0.64057,-0.44247 1.03945,-1.25156 1.7679,-1.52629c0.33804,-0.12749 0.69332,-0.17618 1.05586,-0.19168c-0.04145,-0.77983 -0.04615,-1.57646 -0.04096,-2.44245c0.0045,-0.75075 -0.03995,-1.53766 -0.00569,-2.31297c-0.71159,-0.10118 -1.41514,-0.24306 -2.06414,-0.36222c-3.48484,-0.63985 -7.09458,-1.59257 -10.05528,-3.61867c-0.6508,-0.44537 -1.38328,-0.81859 -1.89035,-1.42255c-1.43545,-1.70975 -1.59166,-3.11887 -1.47355,-5.15757c0.04453,-0.76867 -0.12478,-1.60055 0.15864,-2.31016c-0.7621,-0.76801 -0.7621,-1.91411 -0.7621,-1.91411v-0.40231c0,-0.52537 -0.02031,-2.55212 0.06934,-3.00941c0.05769,-0.29426 0.3435,-0.51058 0.40231,-0.80462c0.0789,-0.3945 -0.09937,-0.81709 0,-1.20694c0.13498,-0.52956 0.52335,-0.96718 0.68706,-1.48858c0.88623,-2.82262 1.04342,-4.79461 3.16358,-7.13194c1.6201,-1.78605 3.59492,-2.10808 6.01719,-2.41076c5.37129,-0.67118 10.59384,0.81511 14.14518,5.124c1.11723,1.35555 2.12727,2.86299 2.70807,4.52082c0.41753,1.1918 0.31947,6.72595 0.31974,8.01667c0.00023,1.10269 0.00668,4.68922 -0.05491,4.95615c-0.51999,2.25362 -1.52635,3.83832 -2.73332,5.45894c1.37719,0.74186 2.57791,1.84729 3.691,3.03741c0.65233,-1.36019 2.33868,-1.36019 2.33868,-1.36019c0.6284,0 3.11698,-0.00115 3.21499,0.00755c3.6282,0.32175 7.0939,1.59573 10.7087,2.08616l1.32106,0.50556c0,0 2.40668,0.96267 1.44401,3.36935c-0.96267,2.40668 -3.36935,1.44401 -3.36935,1.44401l-0.6905,-0.29907c-2.58973,-0.28675 -4.99752,-1.02852 -7.52832,-1.58224c-1.27002,-0.27787 -2.46297,-0.33515 -3.69613,-0.34576c1.06471,0.88898 2.14548,1.75183 3.05251,2.85178c0.58995,0.71543 1.0358,1.70455 1.74979,2.3272c0.95492,0.83277 2.60143,1.81921 3.2491,2.94929c0.38201,0.66654 0.51525,1.32126 0.55998,1.99112c2.99106,-0.88212 6.09847,-0.82874 9.18021,-1.1719c0.97546,-0.10862 1.10809,-1.15157 2.02944,-1.42789l-0.09691,-0.21333c0,0 0.96267,-2.40668 3.36935,-1.44401zM99.0692,64.6072c0.86093,-0.71611 1.59929,-1.35356 2.76799,-1.86636c0,0 2.40668,-0.96267 3.36935,1.44401c0.96267,2.40668 -1.44401,3.36935 -1.44401,3.36935c-0.91476,0.2696 -1.65829,1.28814 -2.3959,1.85773c-0.42559,0.32865 -0.86364,0.64236 -1.31675,0.93189c-0.15039,0.09609 -0.41363,0.05867 -0.48762,0.22108c-0.06365,0.1397 0.17621,0.26409 0.19731,0.41615c0.06181,0.44542 -0.17534,0.90537 -0.08684,1.34626c0.11248,0.56031 2.12997,1.60401 2.45278,1.7551c3.74869,1.75458 7.88104,2.37764 11.97542,2.34322c0.44653,-0.83006 2.07645,-3.75321 2.25425,-4.56721c0.17692,-0.80998 -0.04322,-1.65763 -0.05491,-2.48662c-0.02422,-1.7178 0.02305,-3.43609 0.00112,-5.15392c-0.01158,-0.90727 0.20141,-1.85935 -0.08369,-2.72074c-0.33699,-1.01817 -1.01729,-1.90831 -1.71736,-2.7208c-3.18406,-3.69535 -7.70688,-4.03775 -12.17546,-2.76399c-0.83731,0.23868 -1.45743,2.06351 -1.66984,2.84283c-0.54661,2.00544 -1.04763,3.7813 -1.56828,5.68094c-0.00648,0.02363 -0.01231,0.04732 -0.01756,0.07108zM117.9163,99.08691c-0.31924,0.21282 -0.62272,0.34689 -0.90813,0.42086c0.79928,0.87292 1.82315,2.52228 2.92655,2.81571c0.91558,0.24349 1.86769,0.1384 2.77165,0.33135c0.29326,0.0626 0.51542,0.32305 0.80462,0.40231c0.71044,0.19472 2.22212,0.03296 2.94794,-0.23451c0.53895,-0.31835 1.4507,-0.92167 1.81755,-1.40218c0.15473,-0.20267 0.1029,-0.50712 0.22438,-0.7313c0.21852,-0.40327 1.04195,-1.21774 1.14504,-1.73949c0.1768,-0.89484 -0.24862,-2.03143 -0.05673,-2.97101c0.00095,-0.00465 0.00304,-0.00791 0.00608,-0.00997c-0.38379,-0.26285 -0.66709,-0.66685 -1.01834,-0.97746c-0.36221,-0.32031 -0.84802,-0.48063 -1.20694,-0.80462c-0.90993,-0.8214 -1.51858,-1.9713 -2.27333,-2.90286c-1.26663,-1.56334 -3.05526,-2.63794 -4.47635,-4.04861c-1.24787,-1.42613 -2.58236,-3.1205 -4.1525,-4.22813c-0.24686,-0.17415 -0.48964,-0.39265 -0.78602,-0.45121c-0.09776,-0.01931 -0.20021,-0.01762 -0.30493,-0.00413c0.09886,1.16794 -0.28201,2.58219 -0.13939,3.67852c0.18296,1.40645 0.66566,2.77101 1.22191,4.07567c0.67204,1.57625 0.78613,3.16643 1.77353,4.58302l0.40231,0.60347c0,0 1.43782,2.15674 -0.71891,3.59456z" fill="#000000" stroke="none" stroke-width="0.5"/></g><g stroke-width="5"><g data-paper-data="{&quot;index&quot;:null}" fill="#949494" stroke="#000000"><path d="M-57.8581,323.06523c0,0 -15.775,-28.3529 -8.29871,-44.26798c2.68746,-5.72091 2.12766,-6.16193 6.40415,-15.73874c1.54037,-3.44953 3.42412,-6.98365 5.35105,-11.12362c5.16722,-11.10165 10.64501,-23.06777 10.64501,-23.06777c0,0 30.48251,5.07656 41.17642,5.07656c1.03253,0 51.14418,1.12465 52.18638,1.11798c25.50738,-0.1635 17.19307,-0.55391 17.19307,-0.55391c0,0 11.8794,-7.71994 15.73924,-6.98289c7.41206,1.41534 14.47773,-6.32573 18.47269,7.09902c1.8777,6.30987 1.45493,7.01027 2.29513,15.66543c1.2265,12.63461 1.79672,31.92715 -2.48323,44.7275c-5.76015,17.22727 -17.10202,26.3563 -17.10202,26.3563z" stroke-linecap="butt"/><path d="M-2.67244,320.80864c0,0 21.73049,-21.30228 20.89684,-43.56191c-0.85785,-10.1989 -12.19994,-31.04095 -12.19994,-31.04095l-9.58904,-11.84527l7.89686,10.15309c0,0 9.74031,-1.11774 15.07804,-1.73025c6.04362,-0.69354 19.32966,-2.21816 19.32966,-2.21816l-0.56407,-3.94842" stroke-linecap="round"/><path d="M66.94299,252.41046c0,0 7.40391,1.21779 13.73159,5.11336c7.71213,4.74789 14.64707,12.92592 14.96355,20.83631c0.31392,7.8463 -1.60641,19.19625 -8.20085,26.15153c-8.1372,8.58249 -21.62263,11.94746 -25.55421,11.49357c-10.66147,-1.2308 -19.43258,-20.54735 -20.10705,-25.18803c-1.85778,-12.78222 3.89394,-28.91861 6.14749,-31.9404c4.2018,-5.63424 19.01947,-6.46634 19.01947,-6.46634" stroke-linecap="round"/><path d="M-52.07373,283.43381c0,-11.66394 7.42053,-18.256 17.118,-22.31353c2.99358,-1.25258 9.64228,-3.63327 13.05923,-3.63327c14.48576,0 23.97257,11.24625 23.97257,26.51085c0,15.2646 -13.43523,29.89522 -27.92101,29.89522c-14.48578,0 -26.22882,-15.19471 -26.22882,-30.45929z" stroke-linecap="butt"/></g><g data-paper-data="{&quot;index&quot;:null}" stroke="#000000" stroke-linecap="round"><path d="M-97.70294,217.11259c0,0 23.31605,-0.86065 36.05033,4.39361c5.47705,2.25986 11.53751,6.39577 13.26983,9.61766c2.01133,3.74082 -0.8303,6.44587 -1.74319,6.6421c-6.15758,1.32358 -18.32197,-1.17616 -23.21185,-3.19957c-8.57126,-3.54673 -24.92918,-17.45381 -24.92918,-17.45381" fill="#949494"/><path d="M-57.09061,223.31724l-3.94842,14.10153" fill="none"/></g><path d="M56.76442,328.82946l-2.8203,-36.09989c0,0 0.12664,-13.08721 4.12063,-15.50979c2.26742,-1.37535 9.60099,-6.96463 14.46586,-7.78071c6.0919,-1.02187 10.80457,4.49995 13.44936,5.55072c1.15478,0.4588 4.06404,10.40699 4.06404,10.40699c0,0 -0.31791,8.15953 -0.52835,13.56082c-0.31232,8.01652 -1.16383,29.87185 -1.16383,29.87185z" data-paper-data="{&quot;index&quot;:null}" fill="#949494" stroke="#000000" stroke-linecap="butt"/><g data-paper-data="{&quot;index&quot;:null}"><g><path d="M-43.92639,329.01821l7.49199,-11.94667l10.03521,6.29327l-7.49199,11.94667z" data-paper-data="{&quot;index&quot;:null}" fill="#000000" stroke="none" stroke-linecap="butt"/><path d="M-22.47141,353.26638l-5.07656,10.71716l-3.38437,10.71716l-9.02497,5.6406l7.89686,1.69219l4.51249,4.51249l3.38437,2.25623l3.38437,5.07656l-9.02497,2.8203l-23.69054,-1.12812l-3.38437,-2.25623l-6.76872,-5.6406l-0.56407,-23.12648l17.48587,-18.61401z" fill="#949494" stroke="#000000" stroke-linecap="round"/><path d="M-47.2901,343.67739l-1.12812,-10.71716l5.6406,-5.07656h8.4609l7.89686,9.02497l5.6406,11.84527l-1.69219,4.51249z" fill="#949494" stroke="#000000" stroke-linecap="round"/><path d="M-28.67609,335.21646l0.56407,6.20467l-8.4609,7.33279" fill="none" stroke="#000000" stroke-linecap="round"/></g><g stroke="none" stroke-linecap="butt"><path d="M-62.54449,381.39808l-1.29406,-13.70609l20.18725,-19.68701l17.47863,6.25126l-6.09448,18.40176l-11.87113,8.34775z" fill="#8c6200"/><path d="M-54.06012,352.29305l11.85434,-4.93604l16.7858,6.59937l-3.24595,6.71709z" fill="#8c0081"/><path d="M-31.11857,395.94206l-26.7288,-3.04065l-2.67157,-13.35786l17.39067,0.0735l7.28957,3.19579l8.06359,1.66051l2.17302,2.38774l3.07886,5.7435z" fill="#8c0081"/><g fill="#ffffff"><path d="M-39.66957,357.81492c0.00085,-0.00064 0.00173,-0.00131 0.00259,-0.00195c0.51755,-0.39307 0.91064,0.12448 0.91064,0.12448c1.89399,2.54813 0.67324,5.10664 -1.88435,5.75122c0.06386,-0.30237 -0.22512,-0.4886 -0.22512,-0.4886c-1.95996,-1.26317 -3.88986,-2.55929 -5.91621,-3.70346c-0.10741,-1.10667 0.07941,-2.11337 0.73935,-2.55671c0.92964,-0.62448 2.36972,-0.58181 3.39691,-0.50869c1.32873,0.20287 2.064,0.68285 2.97623,1.38371zM-43.66697,358.39875c0.22626,0.14583 0.52793,0.0806 0.67376,-0.14567c0.14583,-0.22629 0.0806,-0.52795 -0.14567,-0.67378c-0.22629,-0.14583 -0.52793,-0.0806 -0.67376,0.14567c-0.14583,0.22626 -0.0806,0.52793 0.14567,0.67376zM-40.27697,360.48687c0.22629,0.14583 0.52793,0.08057 0.67376,-0.14569c0.14586,-0.22629 0.08062,-0.52793 -0.14564,-0.67376c-0.22629,-0.14583 -0.52795,-0.0806 -0.67378,0.14567c-0.14583,0.22626 -0.0806,0.52793 0.14567,0.67376z"/><path d="M-38.35655,364.85967c0.75868,0.48893 0.26975,1.24759 0.26975,1.24759l0.01631,-0.20121c-0.05939,0.49544 -0.24719,0.96573 -0.50886,1.40501l0.04474,0.00971l-0.00641,0.02949l0.2398,0.12268l-0.5108,0.99862c-0.01496,0.03016 -0.03175,0.05977 -0.05042,0.08872c-0.27003,0.41902 -0.82859,0.5398 -1.24759,0.26975c-0.228,-0.14692 -0.36768,-0.37934 -0.40416,-0.62816c-0.01598,0.00204 -0.02491,0.00268 -0.02491,0.00268c-1.40848,0.09594 -2.80161,0.07782 -4.19624,0.09162c0.30161,0.60458 0.59212,1.2171 0.86894,1.84037c0.76276,1.71731 2.23001,3.22068 1.99154,5.10268c0.01686,-0.12873 0.05885,-0.4492 0.07666,-0.58506l0.31522,0.06338l-0.00639,-0.13379l0.95892,-0.04586c0.1849,-0.01114 0.37487,0.03436 0.54253,0.14239c0.419,0.27005 0.53975,0.82861 0.2697,1.24761c-0.04472,0.06941 -0.09736,0.13066 -0.15597,0.18326l-0.66383,0.62258l-0.11014,-0.11743c-0.52102,0.58796 -1.1029,0.82553 -2.2422,0.95291c-0.21776,0.14996 -0.55117,0.25419 -0.96476,-0.01235c-0.75868,-0.48893 -0.26975,-1.24761 -0.26975,-1.24761l0.75573,-0.5062c0.1042,-0.0052 0.2038,-0.01817 0.29931,-0.03605c-0.62463,-1.21726 -1.45312,-2.94421 -1.60662,-3.2459c-0.71418,-1.40358 -1.42579,-2.78817 -2.15086,-4.16221c-0.4544,0.02662 -0.90985,0.06428 -1.36694,0.11798c-0.88368,0.1038 -1.73265,0.32558 -2.58981,0.51928c0.25628,0.56272 0.43042,1.21527 0.49383,2.0839l0.22588,1.04476c0.04882,0.22574 0.01149,0.47015 -0.12351,0.67965c-0.27005,0.41902 -0.82861,0.5398 -1.24761,0.26975c-0.09478,-0.0611 -0.17428,-0.13693 -0.23747,-0.22258l-1.09252,-1.41052l0.05673,-0.04396c-1.10268,-1.03329 -1.77798,-2.08043 -2.51493,-4.0662l-0.10328,-0.43472c0,0 -0.19071,-0.88219 0.69147,-1.07293c0.08592,-0.01857 0.1653,-0.02698 0.23857,-0.027c0.05077,-0.05448 0.11218,-0.10762 0.18597,-0.15847c0.74312,-0.51223 1.25538,0.23087 1.25538,0.23087c0.40603,0.59411 0.79128,1.07281 1.13674,1.5198c1.1455,-0.20674 2.24996,-0.56578 3.41828,-0.70496c0.21451,-0.02558 0.42888,-0.04747 0.6431,-0.06628c-0.66222,-1.22398 -1.34065,-2.44239 -2.04687,-3.66122c-0.79356,0.23586 -1.55407,0.26338 -1.99869,-0.23743c-2.06433,-2.32524 3.02111,-3.29214 4.00638,-3.34011l0.61266,0.11572c0,0 0.87438,0.22394 0.65041,1.09829c-0.01289,0.05039 -0.02797,0.0971 -0.04491,0.14047c1.63332,0.96236 3.21258,2.01152 4.80816,3.0436c-0.15975,0.0071 -0.32289,0.00753 -0.48922,0.00093c-0.256,-0.01016 -2.42182,-0.08126 -2.65029,-0.19492c-0.67818,-0.33733 -1.33593,-1.49739 -1.70109,-2.77516c-0.02579,0.05324 -0.05469,0.10057 -0.08597,0.14258c-0.0156,0.46618 -0.46189,0.73047 -0.46189,0.73047c-0.22947,0.13522 -0.57015,0.33959 -0.96811,0.55222c0.84543,1.42448 1.67874,2.83761 2.46174,4.2809c1.66566,-0.03348 3.32804,0.01498 4.9979,-0.10964c0,0 0.09558,-0.00679 0.22667,0.01517c-0.06255,-0.52987 -0.06806,-1.0686 -0.0369,-1.59948c0,0 0.05896,-0.90064 0.9596,-0.84168c0.6095,0.03992 0.77951,0.4653 0.82574,0.73614c0.10468,0.02311 0.21679,0.06906 0.33548,0.14557z"/></g></g></g><path d="M-6.14306,285.41087l-2.8203,40.61237l-26.51085,0.56407l-3.38437,-1.69219l-3.38437,-36.66393l3.94842,-15.79369l11.2812,-5.6406l12.40934,2.8203l5.6406,5.6406z" data-paper-data="{&quot;index&quot;:null}" fill="#949494" stroke="#000000" stroke-linecap="round"/><g data-paper-data="{&quot;index&quot;:null}"><g><path d="M88.1907,345.23198l-7.49199,-11.94667l10.03521,-6.29327l7.49199,11.94667z" fill="#000000" stroke="none" stroke-linecap="butt"/><path d="M139.37226,394.44252c0,0 0.18582,3.00581 -2.27072,3.17881c-6.43711,0.45334 -37.77759,-0.35851 -37.77759,-0.35851l-23.69054,-34.4077c0,0 16.66274,-5.17962 23.13229,-7.88296c2.5099,-1.04878 19.03037,20.75267 20.91007,20.66067c1.95381,-0.09563 -3.80152,6.76036 -3.62543,8.67458c0.19879,2.16134 6.25392,-0.58205 7.5282,-0.58205c3.59035,0 10.15309,1.12812 10.15309,1.12812l5.6406,9.58904z" fill="#949494" stroke="#000000" stroke-linecap="butt"/><path d="M71.68497,360.59886l13.53746,-20.30617l6.94514,-1.38l5.79976,1.98556l3.61287,5.59911l-0.56407,7.89686z" fill="#949494" stroke="#000000" stroke-linecap="butt"/><path d="M88.04271,357.21452l-4.51249,-2.25623l-1.69219,-5.07656" fill="none" stroke="#000000" stroke-linecap="round"/><path d="M111.73325,396.41673l4.51249,-13.53746" fill="none" stroke="#000000" stroke-linecap="round"/></g><g stroke="none" stroke-linecap="butt"><path d="M102.7961,395.64646l-24.15082,-30.3292l21.67145,-10.78177l3.23025,7.14179l12.31217,15.1727z" fill="#8c6200"/><path d="M84.56475,372.47826l-5.36245,-7.60761l21.23842,-9.43005l3.28456,7.60761z" fill="#8c0081"/><path d="M101.85326,396.16667l8.90524,-24.34098l5.34314,4.74946l0.47072,10.1661l7.28957,-0.66314l8.06359,1.66051l2.17302,2.38774l3.07884,5.7435z" fill="#8c0081"/><g fill="#ffffff"><path d="M92.15324,367.73842c-0.00033,-0.00102 -0.00064,-0.00204 -0.00097,-0.00309c-0.19435,-0.62016 0.42584,-0.81451 0.42584,-0.81451c3.03932,-0.91795 5.03248,1.09786 4.77181,3.72251c-0.26281,-0.16257 -0.536,0.04616 -0.536,0.04616c-1.85281,1.41567 -3.72645,2.79185 -5.48983,4.31033c-1.07753,-0.27412 -1.96131,-0.79114 -2.15464,-1.56231c-0.27236,-1.0863 0.25602,-2.42667 0.67302,-3.36822c0.64132,-1.18129 1.34215,-1.71028 2.31075,-2.33087zM91.43864,371.01381c-0.16343,-0.21392 -0.46932,-0.25483 -0.68323,-0.09138c-0.21392,0.16343 -0.25483,0.46932 -0.09138,0.68323c0.16343,0.21392 0.46932,0.25483 0.68323,0.09138c0.21392,-0.16343 0.25483,-0.46932 0.09138,-0.68323zM94.46096,369.21571c0.21392,-0.16343 0.25483,-0.46932 0.09138,-0.68323c-0.16343,-0.21392 -0.46932,-0.25483 -0.68323,-0.09138c-0.21389,0.16343 -0.25483,0.46932 -0.09138,0.68323c0.16345,0.21392 0.46934,0.25483 0.68326,0.09138z"/><path d="M99.2259,368.89147c0.71717,-0.54797 1.26516,0.1692 1.26516,0.1692l-0.18378,-0.08357c0.44595,0.22382 0.82474,0.55994 1.1493,0.95505l0.02432,-0.03883l0.02558,0.01603l0.19672,-0.18402l0.76633,0.81912c0.0233,0.02429 0.04548,0.05013 0.06637,0.07751c0.30264,0.39608 0.22691,0.96253 -0.1692,1.26516c-0.21553,0.16469 -0.48152,0.21729 -0.72797,0.16725c-0.00351,0.01574 -0.00594,0.02434 -0.00594,0.02434c-0.38725,1.35761 -0.87661,2.6621 -1.33643,3.97881c0.67105,-0.07877 1.34576,-0.14443 2.02598,-0.19356c1.87418,-0.13538 3.78596,-1.0061 5.47565,-0.14372c-0.11536,-0.05951 -0.40264,-0.20767 -0.52441,-0.27046l0.16649,-0.27506l-0.12805,-0.03935l0.28195,-0.91769c0.05222,-0.17772 0.15942,-0.34103 0.31788,-0.46212c0.3961,-0.30264 0.96253,-0.22691 1.26516,0.1692c0.05013,0.06561 0.08991,0.13591 0.11952,0.20888l0.36065,0.8356l-0.1478,0.06381c0.37651,0.68948 0.40273,1.31745 0.13633,2.43246c0.06725,0.25571 0.05227,0.6047 -0.33871,0.90344c-0.71719,0.54797 -1.26516,-0.1692 -1.26516,-0.1692l-0.22002,-0.88259c0.03044,-0.09979 0.05203,-0.19789 0.06756,-0.2938c-1.35694,0.17497 -3.2625,0.36894 -3.59836,0.41107c-1.56257,0.19603 -3.10643,0.3961 -4.6449,0.61242c-0.129,0.43652 -0.24797,0.8778 -0.35241,1.326c-0.20192,0.86654 -0.28107,1.74042 -0.38943,2.61249c0.61629,-0.05032 1.28922,0.00708 2.1279,0.24191l1.05946,0.14168c0.22895,0.03061 0.44621,0.14859 0.59753,0.34662c0.30264,0.3961 0.22691,0.96253 -0.1692,1.26516c-0.0896,0.06846 -0.18791,0.11757 -0.28991,0.14797l-1.69736,0.54963l-0.02211,-0.06827c-1.34595,0.6871 -2.56001,0.96739 -4.678,0.98751l-0.444,-0.05023c0,0 -0.89463,-0.11966 -0.77497,-1.01427c0.01166,-0.08713 0.03066,-0.16464 0.05547,-0.23358c-0.03403,-0.06621 -0.06322,-0.14201 -0.08604,-0.22866c-0.22997,-0.87276 0.64279,-1.10275 0.64279,-1.10275c0.6966,-0.18057 1.27756,-0.38072 1.8152,-0.55419c0.19385,-1.14773 0.23047,-2.30855 0.49563,-3.45485c0.04868,-0.21047 0.10074,-0.41954 0.15566,-0.62747c-1.37601,0.20805 -2.75226,0.43327 -4.13832,0.68444c-0.04714,0.82652 -0.27905,1.55132 -0.90095,1.79983c-2.88739,1.15376 -2.07297,-3.95832 -1.78406,-4.90149l0.31658,-0.53714c0,0 0.5071,-0.74666 1.25374,-0.23956c0.04303,0.02923 0.08186,0.05925 0.11691,0.08986c1.45908,-1.21033 2.98152,-2.34037 4.49339,-3.49159c-0.04745,0.1527 -0.10237,0.30636 -0.16497,0.46058c-0.09634,0.2374 -0.89748,2.25084 -1.08186,2.42726c-0.54728,0.52365 -1.86162,0.74918 -3.18753,0.65953c0.04134,0.04232 0.07606,0.08556 0.10499,0.12921c0.43329,0.17274 0.53063,0.68219 0.53063,0.68219c0.04942,0.26172 0.12622,0.65151 0.19133,1.09798c1.62674,-0.31244 3.23868,-0.61733 4.86195,-0.86466c0.5332,-1.57839 1.14239,-3.12588 1.59124,-4.73911c0,0 0.026,-0.09221 0.09112,-0.2081c-0.51971,-0.1208 -1.0284,-0.29829 -1.51726,-0.50755c0,0 -0.82733,-0.36079 -0.46652,-1.18812c0.24417,-0.55989 0.70199,-0.57561 0.97248,-0.52729c0.05721,-0.09062 0.13845,-0.18053 0.25068,-0.26625z"/></g></g></g><g data-paper-data="{&quot;index&quot;:null}"><g stroke="#000000"><path d="M78.09415,231.57303c0,0 0.88772,-3.54153 0,-6.20467c-0.79401,-2.38197 -5.07656,-9.02497 -5.07656,-9.02497c0,0 -11.46719,-7.9889 -10.69647,-15.95016c0.08749,-0.90373 3.52816,-20.58487 14.92667,-31.71991c8.14715,-7.95884 24.77409,-8.79275 26.92132,-7.92504c1.65977,0.67072 12.10426,1.7265 21.77547,6.03155c13.62945,6.06703 26.26366,15.24228 26.26366,15.24228l-4.76549,32.33717l-49.60647,-0.27214l1.69219,17.48587z" fill="#949494" stroke-linecap="butt"/><path d="M150.29395,199.42156l-31.02333,-6.20467l-7.89686,-7.89686l-7.89686,-23.69054l26.51085,8.4609l20.87024,11.84527z" fill="#000000" stroke-linecap="round"/><path d="M109.11751,189.26845h3.94842" fill="none" stroke-linecap="round"/><path d="M112.50188,195.47319l-5.6406,-0.56407" fill="none" stroke-linecap="round"/><path d="M105.16907,200.54972l3.38437,0.56407" fill="none" stroke-linecap="round"/><path d="M143.51647,214.35189c0,0 -29.66427,-0.94032 -44.92837,0.39729c-3.75561,0.32911 -0.50432,4.70033 -2.84533,4.72621c-20.74161,0.2294 -22.88919,-4.63286 -24.80714,-6.98722c-4.76366,-5.84756 -9.96995,-13.66075 -9.71585,-15.04757c0.32674,-1.78328 4.4382,-5.96893 4.4382,-5.96893l9.31906,3.64542l12.97339,4.51249l13.53746,2.8203l23.69054,0.56407l19.17806,10.15309" fill="#373737" stroke-linecap="round"/><path d="M142.72355,219.84628l-2.25623,5.6406h-29.33115l-6.20467,-1.12812l-2.25623,-5.6406l1.12812,-4.51249l2.8203,-3.38437l3.38437,1.12812l2.8203,3.38437l2.25623,2.8203z" fill="#000000" stroke-linecap="round"/><path d="M88.24726,221.98404l-0.56407,6.20467" fill="none" stroke-linecap="round"/><path d="M78.65822,220.8559l20.30617,1.69219" fill="none" stroke-linecap="round"/><path d="M85.99099,169.52639l-2.8203,5.07656l1.12812,5.07656l-8.4609,-4.51249l0.56407,-10.71716l7.89686,-9.02497l3.38437,4.51249l0.56407,7.89686z" fill="#151515" stroke-linecap="round"/><path d="M87.68322,178.27397l-7.89686,1.12812l-3.94842,-7.89686l2.25623,-3.38437l5.6406,-5.07656l4.51249,-0.56407l2.8203,2.25623l2.8203,2.8203l1.12812,6.20467z" fill="none" stroke-linecap="round"/></g><path d="M137.47955,175.79722c6.09971,1.79416 7.52949,5.37019 6.55497,9.66717c-0.97452,4.29698 -5.48926,6.93564 -10.08401,5.89358c-4.59472,-1.04206 -7.52949,-5.37019 -6.55497,-9.66717c0.97452,-4.29698 3.80095,-7.74164 10.08401,-5.89358z" fill="#54ff00" stroke="none" stroke-linecap="butt"/><path d="M114.67191,180.79154c-2.36022,0.26224 -2.62246,-2.09796 -2.62246,-2.09796l-0.08214,-3.28145c1.43864,-3.58855 2.73707,-6.34217 5.61412,-8.96703c0,0 1.7749,-1.57768 3.35257,0.19722c1.57768,1.7749 -0.19722,3.35257 -0.19722,3.35257c-2.36818,2.03087 -3.21973,4.32422 -4.35974,7.18114l0.3928,0.99306c0,0 0.26224,2.36022 -2.09796,2.62246z" fill="#54ff00" stroke="none" stroke-linecap="butt"/></g></g><text transform="translate(36.69611,33.00952) scale(0.67586,0.85892)" font-size="40" xml:space="preserve" fill="#ff0000" fill-rule="nonzero" stroke="none" stroke-width="1" stroke-linecap="butt" stroke-linejoin="miter" stroke-miterlimit="10" stroke-dasharray="" stroke-dashoffset="0" font-family="Pixel" font-weight="normal" text-anchor="start" style="mix-blend-mode: normal"><tspan x="0" dy="0">This game is in constrcuction!!</tspan></text><text transform="translate(117.54179,60.45933) scale(0.5,0.5)" font-size="40" xml:space="preserve" fill="#ff0000" fill-rule="nonzero" stroke="none" stroke-width="1" stroke-linecap="butt" stroke-linejoin="miter" stroke-miterlimit="10" stroke-dasharray="" stroke-dashoffset="0" font-family="Pixel" font-weight="normal" text-anchor="start" style="mix-blend-mode: normal"><tspan x="0" dy="0">Try Again In A Few Minutes</tspan></text></g></g></svg>