<svg version="1.1" xmlns="http://www.w3.org/2000/svg" xmlns:xlink="http://www.w3.org/1999/xlink" width="485.5045" height="102.5" viewBox="0,0,485.5045,102.5"><g transform="translate(3.33784,-283.34087)"><g data-paper-data="{&quot;isPaintingLayer&quot;:true}" fill-rule="nonzero" stroke="none" stroke-linecap="butt" stroke-linejoin="miter" stroke-miterlimit="10" stroke-dasharray="" stroke-dashoffset="0" style="mix-blend-mode: normal"><path d="M-0.65208,385.84087v-87h482v87z" fill="#af0000" stroke-width="NaN"/><g><path d="M-3.33784,308.34087v-25h485.5045v25z" fill="#cb0000" stroke-width="0"/><path d="M18.63653,288.00754c3.10226,1.5 0.77557,3.5 0.77557,3.5l-1.91135,1.6011c-1.44328,0.84076 -3.36692,1.43265 -4.32983,2.52227c-0.52524,0.59435 0.1968,1.36219 0.29518,2.04329c0,0 0,2.5 -3.87783,2.5c-3.87783,0 -3.87783,-2.5 -3.87783,-2.5c0.09839,-1.3189 -0.62349,-2.77656 0.29518,-3.95671c1.31587,-1.69039 4.00737,-2.76293 6.01106,-4.14439l1.19091,-1.06557c0,0 2.3267,-2 5.42896,-0.5z" fill="#dd0000" stroke-width="0.5"/><path d="M52.65975,301.10864c-2.74205,1.76777 -5.48407,0 -5.48407,0l-0.51704,-0.33333c-2.25185,-1.48204 -5.06932,-2.59179 -7.90462,-3.57303c0,0 -3.40434,-1.19713 -1.54743,-3.39187c1.85691,-2.19474 5.26124,-0.99761 5.26124,-0.99761c3.46109,1.23344 6.85616,2.63867 9.67488,4.42697l0.51704,0.33333c0,0 2.74205,1.76777 0,3.53553z" fill="#dd0000" stroke-width="0.5"/><path d="M93.33059,292.74573c1.44019,2.32119 -2.16029,3.24967 -2.16029,3.24967l-5.17044,1.33333c0,0 -3.60048,0.92848 -5.04067,-1.39272c-1.44019,-2.32119 2.16029,-3.24967 2.16029,-3.24967l5.17044,-1.33333c0,0 3.60048,-0.92848 5.04067,1.39272z" fill="#dd0000" stroke-width="0.5"/><path d="M113.25561,304.00754c0,2.5 -3.87783,2.5 -3.87783,2.5h-4.13636c0,0 -3.87783,0 -3.87783,-2.5c0,-2.5 3.87783,-2.5 3.87783,-2.5h4.13636c0,0 3.87783,0 3.87783,2.5z" fill="#dd0000" stroke-width="0.5"/><path d="M144.15385,292.07822c0.77554,-0.39228 2.98435,-1.26245 5.19316,0.16155c2.74205,1.76777 0,3.53553 0,3.53553l-2.31857,0.99092c-6.58907,1.05739 -9.71731,1.50723 -13.98985,4.84177c0,0 -2.48252,1.92055 -5.46155,0.32009c-2.97903,-1.60046 -0.49651,-3.52101 -0.49651,-3.52101c5.12477,-3.93555 9.66787,-5.09985 17.07332,-6.32886z" fill="#dd0000" stroke-width="0.5"/><path d="M191.95399,293.8895c1.73421,2.23607 -1.73421,3.3541 -1.73421,3.3541l-2.68545,0.84406c-5.24764,2.25521 -9.92126,4.31276 -15.91904,5.62492c0,0 -3.67883,0.79057 -4.90512,-1.58114c-1.22628,-2.37171 2.45255,-3.16228 2.45255,-3.16228c5.33977,-1.12248 9.41555,-3.04133 14.06954,-5.04175l3.51909,-1.15594c0,0 3.46844,-1.11803 5.20265,1.11803z" fill="#dd0000" stroke-width="0.5"/><path d="M238.47609,300.29304c-3.02807,1.56174 -5.45054,-0.39043 -5.45054,-0.39043l-1.78214,-1.46064c-2.69703,-1.74041 -6.38842,-5.50249 -10.55797,-6.00131c-3.94453,-0.4719 -8.0233,0.06688 -12.03516,0.06688c0,0 -3.87783,0 -3.87783,-2.5c0,-2.5 3.87783,-2.5 3.87783,-2.5c1.3036,0 13.26412,-0.01817 13.81705,0.06688c6.51525,1.0021 9.85961,4.49787 14.26016,7.33202l2.35421,1.8727c0,0 2.42247,1.95217 -0.60561,3.51391z" fill="#dd0000" stroke-width="0.5"/><path d="M309.08114,289.28745c2.15104,2.08013 -1.07553,3.46688 -1.07553,3.46688l-3.11541,1.05776c-11.76075,1.15932 -26.31971,2.98587 -36.07703,7.56312c0,0 -2.08947,0.96219 -4.08235,0.22448c-0.43024,1.21622 -2.41888,1.72904 -2.41888,1.72904l-1.97017,0.46547c-5.35518,2.11633 -8.71808,2.69046 -14.98135,2.71334c0,0 -3.87783,0 -3.87783,-2.5c0,-2.5 3.87783,-2.5 3.87783,-2.5c4.96994,0.02227 6.67091,-0.21881 10.87086,-1.95333l3.20028,-0.86786c0,0 1.7431,-0.4495 3.28874,0.05892c0.39793,-0.8921 1.58498,-1.43873 1.58498,-1.43873c10.9776,-4.98104 26.29732,-7.14139 39.41143,-8.43688l-0.01315,-0.27558c0,0 3.22656,-1.38675 5.37759,0.69338z" fill="#dd0000" stroke-width="0.5"/><path d="M364.95363,299.02979c-2.1027,2.10057 -5.36095,0.74498 -5.36095,0.74498l-0.1819,-0.35457c-8.59264,-0.76264 -17.7426,-1.53996 -25.96149,-3.40473c-2.48885,-0.56469 -4.77057,-1.51945 -7.33639,-1.91591c0,0 -3.76205,-0.60634 -2.82154,-3.0317c0.94052,-2.42536 4.70257,-1.81902 4.70257,-1.81902c2.83733,0.47208 5.41266,1.45359 8.17494,2.08409c7.65149,1.7465 16.2901,2.42465 24.29854,3.13388l3.33067,1.10682c0,0 3.25826,1.35559 1.15556,3.45615z" fill="#dd0000" stroke-width="0.5"/><path d="M415.73258,303.24788c-1.92395,2.17061 -5.29085,0.93026 -5.29085,0.93026l-2.69068,-1.08769c-11.65603,0.14802 -23.44222,-0.58292 -35.19777,-0.58292c0,0 -3.87783,0 -3.87783,-2.5c0,-2.5 3.87783,-2.5 3.87783,-2.5c12.47892,0 24.77604,0.62251 37.1884,0.75042l4.54794,1.57897c0,0 3.36691,1.24035 1.44296,3.41096z" fill="#dd0000" stroke-width="0.5"/><path d="M437.54997,289.22284c1.73421,2.23607 -1.73421,3.3541 -1.73421,3.3541l-0.85813,0.05758c-1.03409,0.77778 -2.06817,1.55556 -3.10226,2.33333c0,0 -2.52366,1.89814 -5.46793,0.27116c-2.94427,-1.62698 -0.4206,-3.52512 -0.4206,-3.52512c1.03409,-0.77778 2.06817,-1.55556 3.10226,-2.33333l3.27823,-1.27576c0,0 3.46844,-1.11803 5.20265,1.11803z" fill="#dd0000" stroke-width="0.5"/><path d="M466.65533,296.50754c-1.85838,0 -2.82616,-0.57416 -3.33016,-1.17217c-3.82849,-1.35011 -5.60888,-1.60083 -10.92745,-1.8352c0,0 -3.86641,-0.19174 -3.56898,-2.68438c0.29741,-2.49264 4.16383,-2.30089 4.16383,-2.30089c6.7727,0.3669 9.8704,0.88987 15.58672,2.9887l1.95389,2.50394c0,0 0,2.5 -3.87783,2.5z" fill="#dd0000" stroke-width="0.5"/></g></g></g></svg>