<svg version="1.1" xmlns="http://www.w3.org/2000/svg" xmlns:xlink="http://www.w3.org/1999/xlink" width="37.54641" height="40.93654" viewBox="0,0,37.54641,40.93654"><defs><linearGradient x1="240.64909" y1="165.13898" x2="239.14249" y2="167.37049" gradientUnits="userSpaceOnUse" id="color-1"><stop offset="0" stop-color="#dadada"/><stop offset="1" stop-color="#616161"/></linearGradient><linearGradient x1="239.78611" y1="171.33563" x2="241.29271" y2="174.62585" gradientUnits="userSpaceOnUse" id="color-2"><stop offset="0" stop-color="#dadada"/><stop offset="1" stop-color="#616161"/></linearGradient><linearGradient x1="240.64909" y1="178.41564" x2="239.14249" y2="181.70584" gradientUnits="userSpaceOnUse" id="color-3"><stop offset="0" stop-color="#dadada"/><stop offset="1" stop-color="#616161"/></linearGradient><linearGradient x1="239.57158" y1="185.25965" x2="241.07818" y2="188.54985" gradientUnits="userSpaceOnUse" id="color-4"><stop offset="0" stop-color="#dadada"/><stop offset="1" stop-color="#616161"/></linearGradient><linearGradient x1="239.57158" y1="194.92185" x2="241.07818" y2="191.63165" gradientUnits="userSpaceOnUse" id="color-5"><stop offset="0" stop-color="#dadada"/><stop offset="1" stop-color="#616161"/></linearGradient><linearGradient x1="240.2152" y1="165.13898" x2="241.7218" y2="167.37048" gradientUnits="userSpaceOnUse" id="color-6"><stop offset="0" stop-color="#dadada"/><stop offset="1" stop-color="#616161"/></linearGradient><linearGradient x1="241.07818" y1="171.33563" x2="239.57158" y2="174.62585" gradientUnits="userSpaceOnUse" id="color-7"><stop offset="0" stop-color="#dadada"/><stop offset="1" stop-color="#616161"/></linearGradient><linearGradient x1="240.2152" y1="178.41564" x2="241.7218" y2="181.70584" gradientUnits="userSpaceOnUse" id="color-8"><stop offset="0" stop-color="#dadada"/><stop offset="1" stop-color="#616161"/></linearGradient><linearGradient x1="241.29271" y1="185.25965" x2="239.78611" y2="188.54985" gradientUnits="userSpaceOnUse" id="color-9"><stop offset="0" stop-color="#dadada"/><stop offset="1" stop-color="#616161"/></linearGradient><linearGradient x1="241.29271" y1="194.92185" x2="239.78611" y2="191.63165" gradientUnits="userSpaceOnUse" id="color-10"><stop offset="0" stop-color="#dadada"/><stop offset="1" stop-color="#616161"/></linearGradient><linearGradient x1="240.60939" y1="189.37287" x2="240.60939" y2="200.3125" gradientUnits="userSpaceOnUse" id="color-11"><stop offset="0" stop-color="#cccccc"/><stop offset="1" stop-color="#929292"/></linearGradient><linearGradient x1="240.60939" y1="189.37287" x2="240.60939" y2="200.3125" gradientUnits="userSpaceOnUse" id="color-12"><stop offset="0" stop-color="#bcbcbc"/><stop offset="1" stop-color="#787878"/></linearGradient><linearGradient x1="240.22764" y1="161.87596" x2="240.22764" y2="172.81559" gradientUnits="userSpaceOnUse" id="color-13"><stop offset="0" stop-color="#cccccc"/><stop offset="1" stop-color="#929292"/></linearGradient><linearGradient x1="240.22764" y1="161.87596" x2="240.22764" y2="172.81559" gradientUnits="userSpaceOnUse" id="color-14"><stop offset="0" stop-color="#bcbcbc"/><stop offset="1" stop-color="#787878"/></linearGradient></defs><g transform="translate(-221.45444,-160.62596)"><g data-paper-data="{&quot;isPaintingLayer&quot;:true}" fill-rule="nonzero" stroke-linecap="butt" stroke-linejoin="miter" stroke-miterlimit="10" stroke-dasharray="" stroke-dashoffset="0" style="mix-blend-mode: normal"><g stroke="none" stroke-width="0"><path d="M226.58748,164.75544l1.5066,-2.23151l25.11002,5.2301l-1.5066,2.23151z" fill="url(#color-1)"/><path d="M228.7377,178.48155l-1.5066,-3.2902l25.11003,-7.71142l1.5066,3.29021z" data-paper-data="{&quot;index&quot;:null}" fill="url(#color-2)"/><path d="M226.58748,177.85014l1.5066,-3.2902l25.11003,7.71141l-1.50661,3.29021z" data-paper-data="{&quot;index&quot;:null}" fill="url(#color-3)"/><path d="M228.52317,192.40556l-1.5066,-3.29021l25.11003,-7.71142l1.5066,3.2902z" data-paper-data="{&quot;index&quot;:null}" fill="url(#color-4)"/><path d="M253.63319,195.48737l-1.5066,3.2902l-25.11003,-7.71142l1.5066,-3.29021z" data-paper-data="{&quot;index&quot;:null}" fill="url(#color-5)"/><path d="M229.16679,169.98554l-1.5066,-2.23151l25.11003,-5.2301l1.5066,2.23151z" data-paper-data="{&quot;index&quot;:null}" fill="url(#color-6)"/><path d="M227.01656,170.77013l1.5066,-3.29021l25.11003,7.71142l-1.50661,3.2902z" data-paper-data="{&quot;index&quot;:null}" fill="url(#color-7)"/><path d="M229.16679,185.56156l-1.5066,-3.29021l25.11003,-7.71141l1.5066,3.2902z" data-paper-data="{&quot;index&quot;:null}" fill="url(#color-8)"/><path d="M227.2311,184.69414l1.5066,-3.2902l25.11002,7.71142l-1.5066,3.29021z" data-paper-data="{&quot;index&quot;:null}" fill="url(#color-9)"/><path d="M252.34112,187.77594l1.5066,3.29021l-25.11002,7.71142l-1.5066,-3.2902z" data-paper-data="{&quot;index&quot;:null}" fill="url(#color-10)"/></g><path d="M227.09461,200.3125v-10.93963h27.02957v10.93963z" fill="url(#color-11)" stroke="url(#color-12)" stroke-width="2.5"/><path d="M222.70444,172.81559v-10.93963h35.04641v10.93963z" fill="url(#color-13)" stroke="url(#color-14)" stroke-width="2.5"/></g></g></svg>