<svg version="1.1" xmlns="http://www.w3.org/2000/svg" xmlns:xlink="http://www.w3.org/1999/xlink" width="16.05865" height="18.15122" viewBox="0,0,16.05865,18.15122"><g transform="translate(-214.9353,-79.68853)"><g data-paper-data="{&quot;isPaintingLayer&quot;:true}" fill-rule="nonzero" stroke-width="1.5" stroke-linejoin="miter" stroke-miterlimit="10" stroke-dasharray="" stroke-dashoffset="0" style="mix-blend-mode: normal"><g><path d="M230.10084,96.299c0,0 -0.13203,0.75222 -0.45933,0.79075c-0.22046,0.02595 -0.70264,-0.42075 -1.21718,-0.43429c-0.20177,-0.00531 -0.3952,0.56007 -0.61389,0.56592c-0.16596,0.00444 -0.43164,-0.53395 -0.55001,-0.39358c-0.18765,0.22255 -0.44882,0.74002 -0.77371,0.79402c-0.31007,0.05154 -0.68809,-0.36843 -0.70978,0.15044c-0.03221,0.77047 -0.89779,-0.85853 -0.89779,-0.85853l-1.37521,-11.68158c0,0 -3.61533,-0.94309 -5.67488,-1.75508c-0.88413,-0.34857 -1.62086,-0.78295 -1.43252,-0.92722c0.48738,-0.37331 3.84746,-1.91529 6.9054,-2.11132c2.71017,-0.17374 5.18483,0.97697 5.18483,0.97697l1.61405,14.8835z" data-paper-data="{&quot;index&quot;:null}" fill="#000000" stroke="#000000" stroke-linecap="butt"/><path d="M226.36247,86.23956c1.12037,2.78669 0.31183,5.65305 -2.47486,6.77341c-2.78669,1.12037 -7.08194,0.05722 -8.20231,-2.72946c-0.89891,-2.23584 -0.45183,-4.36384 1.34969,-5.92075c0.17118,-0.14794 0.85226,-0.48706 1.04369,-0.61439c0.30491,-0.20282 0.69888,-0.81812 1.03728,-0.95417c0.20084,-0.08075 0.51695,0.33935 0.73746,0.32524c0.38805,-0.02482 0.6914,-0.43619 1.06113,-0.43573c0.60217,0.00076 1.28243,0.30323 1.84807,0.47223c0.16552,0.04945 0.68311,-0.86837 0.84163,-0.80926c1.40072,0.52234 2.15984,2.40453 2.75822,3.89288z" data-paper-data="{&quot;index&quot;:null}" fill="#ffd499" stroke="#dfba86" stroke-linecap="butt"/><path d="M218.33044,86.4636c0.60033,-0.0249 1.11208,0.55955 1.14302,1.30542c0.03094,0.74587 -0.43064,1.3707 -1.03098,1.3956c-0.60033,0.0249 -1.11208,-0.55955 -1.14302,-1.30542c-0.03094,-0.74586 0.43064,-1.3707 1.03097,-1.3956z" fill="#ffffff" stroke="none" stroke-linecap="butt"/><path d="M221.50868,86.55877c0.60033,-0.0249 1.11208,0.55956 1.14302,1.30542c0.03094,0.74587 -0.43065,1.3707 -1.03098,1.3956c-0.60033,0.0249 -1.11208,-0.55956 -1.14302,-1.30542c-0.03094,-0.74587 0.43065,-1.3707 1.03098,-1.3956z" fill="#ffffff" stroke="none" stroke-linecap="butt"/><path d="M217.74723,88.56675l-0.02869,-0.69173" fill="none" stroke="#000000" stroke-linecap="round"/><path d="M221.15798,88.25781l-0.0246,-0.59291" fill="none" stroke="#000000" stroke-linecap="round"/><path d="M219.05943,92.36126c0,0 0.82758,-1.97097 2.67943,-1.12992c0.52735,0.23951 1.22032,2.32584 1.22032,2.32584" fill="none" stroke="#000000" stroke-linecap="round"/><path d="M221.44449,85.17918l-1.60168,1.60168l-1.60168,-1.60168" fill="none" stroke="#000000" stroke-linecap="round"/></g></g></g></svg>