<svg version="1.1" xmlns="http://www.w3.org/2000/svg" xmlns:xlink="http://www.w3.org/1999/xlink" width="485.4036" height="141.5461" viewBox="0,0,485.4036,141.5461"><g transform="translate(0.7018,-226.4344)"><g data-paper-data="{&quot;isPaintingLayer&quot;:true}" fill-rule="nonzero" stroke="none" stroke-width="0" stroke-linecap="butt" stroke-linejoin="miter" stroke-miterlimit="10" stroke-dasharray="" stroke-dashoffset="0" style="mix-blend-mode: normal"><path d="M-0.7018,365.98049v-54.56209h212.02226v54.5621z" data-paper-data="{&quot;index&quot;:null}" fill="#d69b00"/><path d="M-0.7018,316.09662v-20.66222h212.4036v20.66222l-21.69988,25.13352l-21.39277,-27.86705l-16.079,27.06054l-26.83847,-27.71874l-22.76864,18.55532l-28.0512,-15.93977l-27.90069,17.91163l-18.50967,-14.01149l-16.96055,17.92812z" data-paper-data="{&quot;index&quot;:null}" fill="#00ff2a"/><path d="M211.2982,367.98048v-125.56208h272.91274v125.5621z" data-paper-data="{&quot;index&quot;:null}" fill="#d69b00"/><path d="M211.2982,247.09662v-20.66222h273.4036v20.66222l-27.93185,25.13352l-27.53654,-27.86705l-20.69671,27.06054l-34.54618,-27.71874l-29.30754,18.55532l-36.1072,-15.93977l-35.91347,17.91163l-23.82545,-14.01149l-21.83143,17.92812z" data-paper-data="{&quot;index&quot;:null}" fill="#00ff2a"/></g></g></svg>