<svg version="1.1" xmlns="http://www.w3.org/2000/svg" xmlns:xlink="http://www.w3.org/1999/xlink" width="481.54704" height="861.65625" viewBox="0,0,481.54704,861.65625"><defs><linearGradient x1="239.55799" y1="-461.75" x2="239.55799" y2="399.75" gradientUnits="userSpaceOnUse" id="color-1"><stop offset="0" stop-color="#606060"/><stop offset="1" stop-color="#000000"/></linearGradient></defs><g transform="translate(1.30557,461.75)"><g data-paper-data="{&quot;isPaintingLayer&quot;:true}" fill-rule="nonzero" stroke-linecap="butt" stroke-linejoin="miter" stroke-miterlimit="10" stroke-dasharray="" stroke-dashoffset="0" style="mix-blend-mode: normal"><path d="M0.04702,399.75v-861.5h479.02195v861.5z" fill="url(#color-1)" stroke="none" stroke-width="0"/><path d="M193.99764,85.36789l-27.02703,-216.21621h66.06607z" fill="#4b4b4b" stroke="none" stroke-width="0"/><path d="M-1.30557,398.90624v-204l23.81999,126.71383l73.09609,-122.66821l4.08393,100.22105l44.05995,-27.94408l48.10013,78.57719l58.55864,-100.97364l86.99987,88.49041l28.96436,-105.66049l74.23571,78.53033l36.08135,-115.28638v204z" fill="#333333" stroke="none" stroke-width="0"/><path d="M-0.41058,399.90624v-260l23.95215,161.49802l73.50164,-156.34184l4.10659,127.73271l44.3044,-35.61499l48.367,100.14739l58.88353,-128.6919l87.48256,112.7819l29.12506,-134.66533l74.64758,100.08768l36.28154,-146.93363v260z" fill="#1c1c1c" stroke="none" stroke-width="0"/><path d="M-0.41058,397.90624v-180l23.95215,111.80632l73.50164,-108.23666l4.10659,88.43033l44.3044,-24.65654l48.367,69.33281l58.88353,-89.09439l87.48256,78.07977l29.12506,-93.22984l74.64758,69.29147l36.28154,-101.72328v180z" fill="#5d5d5d" stroke="none" stroke-width="0"/><path d="M479.51895,-292.04123v446.95948l-36.19065,-252.5899l-74.46059,172.05822l-29.05211,-231.49979l-87.26341,193.88053l-58.73603,-221.23101l-48.24584,172.16087l-44.19342,-61.22486l-4.0963,219.58209l-73.31751,-268.76332l-23.89215,277.62719v-446.95947z" data-paper-data="{&quot;index&quot;:null}" fill="#313131" stroke="none" stroke-width="0"/><path d="M479.02194,-307.55174v415.42795l-36.19065,-234.77051l-74.46059,159.92007l-29.0521,-215.16824l-87.26342,180.2029l-58.73603,-205.62388l-48.24584,160.01548l-44.19341,-56.90565l-4.0963,204.09129l-73.31752,-249.80295l-23.89214,258.0415v-415.42794z" data-paper-data="{&quot;index&quot;:null}" fill="#5d5d5d" stroke="none" stroke-width="0"/><path d="M107.99117,65.79798c-1.16307,3.82005 1.32819,8.55438 0.97278,12.45607c-0.1483,1.62805 -0.59779,2.79476 -0.91638,4.01003c1.23556,2.5659 1.66632,5.6702 1.15996,8.22685c-0.43924,2.21778 -1.18814,3.11659 -2.18138,4.29777c-0.12001,1.44792 -0.245,2.89563 -0.38133,4.34288c-0.14207,1.50814 -0.31982,5.48391 -1.5109,6.47243c-1.49208,1.23833 -3.71678,2.65146 -5.50079,1.89182c-0.89285,-0.38018 -2.1241,-6.37383 -1.84963,-8.16007c-0.10137,-0.23049 -0.16935,-0.48034 -0.19726,-0.74413c-0.01955,-0.1847 -0.01846,-0.36682 0.00142,-0.54408l0.22938,-2.48733c0.35889,-3.67909 -0.01919,-7.23214 0.57007,-10.94529c0.18394,-1.15909 0.09046,-2.41968 0.36055,-3.55049c-0.00647,-0.06391 -0.01307,-0.12769 -0.01981,-0.19134c-0.34279,-3.23903 -1.37509,-7.18585 -1.05732,-10.41935c0.15015,-1.52784 0.69338,-2.87425 1.34068,-4.16976c-0.03235,-1.76356 -0.02412,-3.42329 -0.10345,-4.63249c-0.45997,-7.01145 -0.32563,-13.99882 0.12799,-20.93426c0.13336,-2.0389 1.16981,-3.93278 1.44116,-5.95794c1.01058,-7.54212 1.78822,-15.48087 0.98631,-23.05822c-0.39925,-3.77259 -0.78314,-7.48593 -0.0825,-11.26625c0.2163,-1.16703 0.55024,-2.36858 0.86674,-3.57343c-0.16301,-1.50757 -0.27811,-3.01547 -0.31096,-4.52386c-0.04086,-1.87633 0.34825,-3.73941 0.41502,-5.615c0.04253,-1.19465 -0.74209,-2.63633 -0.0163,-3.58618c1.2408,-1.62388 3.4781,-2.14689 5.21714,-3.22034c1.21837,0.82798 2.64733,1.41453 3.71491,2.41537c0.83796,0.37721 1.17623,1.1941 1.30626,1.67205c2.72769,4.55945 2.34165,12.27853 2.85921,17.16899c0.52756,4.985 1.56685,10.15529 1.59246,15.16296c0.00575,1.1259 -0.17477,2.19387 -0.44994,3.23331c0.52087,4.17959 0.69477,8.46639 1.12554,12.53682c0.05732,0.54167 0.12502,1.08676 0.19558,1.63423c0.53182,0.40789 1.03391,0.98764 1.49349,1.77716c1.51511,2.60286 -0.34547,5.69814 -1.35279,7.90229c-0.07544,0.16508 -0.1522,0.32927 -0.22996,0.49271c-0.45514,1.61398 -1.09701,2.90754 -2.03809,4.50237c-0.25202,0.76696 -0.52194,1.57683 -0.77523,2.48682c-0.17716,0.63648 -0.34646,1.27523 -0.51233,1.91496c-0.02284,0.42837 -0.01787,0.86559 0.01942,1.31344l0.3089,2.9188c0.14531,1.37304 -0.84997,2.60391 -2.22301,2.74922c-0.59634,0.06311 -1.16586,-0.08893 -1.63128,-0.39363c-0.77224,2.19099 -2.33029,4.31162 -2.96432,6.3941zM104.00574,41.41993c0.0317,-0.05196 0.06359,-0.10374 0.09568,-0.15533c-0.01832,-0.17537 -0.0358,-0.3508 -0.05249,-0.5263c-0.00939,0.08666 -0.01643,0.17204 -0.02087,0.25598c-0.0075,0.1419 -0.01494,0.28379 -0.02232,0.42565zM111.40138,20.02193c0.05715,-0.1768 0.11172,-0.35381 0.16314,-0.53109c-0.00854,-0.06172 -0.01719,-0.12342 -0.02594,-0.18506c-0.05844,0.11856 -0.11859,0.23668 -0.17889,0.35462c0.01373,0.12055 0.02762,0.24106 0.04169,0.36154z" fill="#00fffe" stroke="none" stroke-width="0.5"/><path d="M207.64563,35.3665c-1.55864,3.67644 0.42053,8.64665 -0.34353,12.48927c-0.31882,1.6034 -0.88859,2.71633 -1.33331,3.89132c0.95865,2.68169 1.06032,5.81408 0.28771,8.30325c-0.6702,2.15923 -1.50954,2.97424 -2.62157,4.04433c-0.27173,1.42725 -0.54838,2.85376 -0.83627,4.27863c-0.3,1.48481 -0.89518,5.4198 -2.18368,6.27748c-1.61411,1.07442 -3.97518,2.24558 -5.66934,1.3024c-0.84788,-0.47204 -1.44151,-6.56198 -0.98057,-8.30941c-0.07654,-0.23988 -0.11786,-0.4955 -0.11786,-0.76076c0,-0.18573 0.02025,-0.36673 0.05867,-0.54091l0.48988,-2.44938c0.74409,-3.62088 0.74205,-7.194 1.71881,-10.82452c0.30491,-1.1333 0.34461,-2.39672 0.7322,-3.49283c0.00029,-0.06423 0.00044,-0.12836 0.00044,-0.19236c0,-3.25711 -0.6112,-7.29067 0.04511,-10.47277c0.31011,-1.50355 0.99202,-2.78531 1.77207,-4.00551c0.15343,-1.75717 0.33629,-3.40681 0.38466,-4.61765c0.28049,-7.02092 1.14944,-13.95535 2.33044,-20.80453c0.34719,-2.01354 1.57721,-3.78783 2.06019,-5.77318c1.79872,-7.39387 3.40753,-15.2067 3.40753,-22.82636c0,-3.79366 0.00905,-7.52678 1.10364,-11.21237c0.33792,-1.13779 0.79646,-2.29752 1.23801,-3.46237c-0.00344,-1.51636 0.04079,-3.02799 0.16687,-4.53147c0.15684,-1.87021 0.73986,-3.682 1.00365,-5.54014c0.16802,-1.18354 -0.46051,-2.69978 0.36121,-3.56798c1.40481,-1.48428 3.68472,-1.76893 5.52708,-2.65339c1.12446,0.95161 2.48376,1.68529 3.44008,2.79293c0.79361,0.46331 1.04402,1.31125 1.12304,1.80024c2.23269,4.8212 1.03642,12.45679 1.03642,17.37455c0,5.01284 0.48939,10.26379 -0.01217,15.24634c-0.11277,1.12025 -0.40469,2.16329 -0.78772,3.168c0.07811,4.2112 -0.20011,8.4925 -0.20011,12.58565c0,0.5447 0.00995,1.09388 0.02251,1.64574c0.48593,0.46159 0.92423,1.09097 1.29816,1.92447c1.23277,2.74786 -0.94323,5.63014 -2.17693,7.71603c-0.0924,0.15622 -0.18601,0.31143 -0.28054,0.46577c-0.62248,1.55712 -1.39691,2.77595 -2.50061,4.26287c-0.33134,0.73617 -0.68499,1.51314 -1.03264,2.39142c-0.24316,0.6143 -0.47874,1.23168 -0.71102,1.85041c-0.0678,0.42358 -0.10887,0.8589 -0.11892,1.30818v2.9351c0,1.38071 -1.11929,2.5 -2.5,2.5c-0.59967,0 -1.15003,-0.21113 -1.58079,-0.56312c-0.99854,2.09755 -2.77111,4.04244 -3.62079,6.04662zM206.24794,10.7044c0.03699,-0.04834 0.07416,-0.09647 0.11149,-0.1444c0.00024,-0.17632 0.00131,-0.35262 0.00319,-0.52891c-0.01846,0.08519 -0.03444,0.16936 -0.04769,0.25237c-0.02239,0.14032 -0.04473,0.28064 -0.06699,0.42094zM215.85449,-9.79644c0.07543,-0.16981 0.14834,-0.34009 0.21813,-0.51098c-0.002,-0.06228 -0.00411,-0.12454 -0.00631,-0.18676c-0.0706,0.11175 -0.14284,0.22288 -0.21522,0.33382c0.00096,0.12133 0.0021,0.24264 0.0034,0.36392z" fill="#00fffe" stroke="none" stroke-width="0.5"/><path d="M103.09184,131.26877c-2.91614,-7.96733 -3.75154,-34.97962 -3.75154,-34.97962c0,0 16.79966,21.16916 19.7158,29.13649c2.91615,7.96733 1.70643,15.73416 -2.70198,17.34769c-4.40841,1.61354 -10.34614,-3.53723 -13.26228,-11.50456z" fill="#00fffe" stroke="#00bdbd" stroke-width="1.5"/><path d="M199.09184,89.26877c-2.91614,-7.96733 -3.75153,-34.97962 -3.75153,-34.97962c0,0 16.79966,21.16916 19.7158,29.13649c2.91615,7.96733 1.70643,15.73416 -2.70198,17.3477c-4.40841,1.61353 -10.34614,-3.53723 -13.26229,-11.50456z" fill="#00fffe" stroke="#00bdbd" stroke-width="1.5"/></g></g></svg>