<svg version="1.1" xmlns="http://www.w3.org/2000/svg" xmlns:xlink="http://www.w3.org/1999/xlink" width="486.54892" height="754.83156" viewBox="0,0,486.54892,754.83156"><g transform="translate(0.19947,394.46808)"><g data-paper-data="{&quot;isPaintingLayer&quot;:true}" fill-rule="nonzero" stroke="none" stroke-width="0" stroke-linecap="butt" stroke-linejoin="miter" stroke-miterlimit="10" stroke-dasharray="" stroke-dashoffset="0" style="mix-blend-mode: normal"><path d="M0.68117,360.36346v-75.56741h479.65752v75.56742z" fill="#d69b00"/><path d="M0.68117,294.50088v-20.66222h479.66828v20.66222l-49.00456,25.13352l-48.31102,-27.86704l-36.31101,27.06054l-60.60895,-27.71875l-51.4181,18.55532l-63.34764,-15.93977l-63.00778,17.91163l-41.80013,-14.01149l-38.3018,17.92812z" fill="#00d624"/><path d="M0.68117,360.36347v-75.56741h485.65739v75.56742z" fill="#d69b00"/><path d="M0.68117,294.50089v-20.66222h485.66828v20.66222l-49.61754,25.13352l-48.91533,-27.86704l-36.76521,27.06054l-61.36709,-27.71875l-52.06127,18.55532l-64.14003,-15.93977l-63.79592,17.91163l-42.323,-14.01149l-38.7809,17.92812z" fill="#00d624"/><path d="M201.67576,-24.46985v38.20333h-201.5068v-38.20333z" data-paper-data="{&quot;index&quot;:null}" fill="#d69b00"/><path d="M-0.19947,5.50532v-399.9734h201.68974v399.9734z" fill="#d69b00"/><path d="M11.74593,-1.81575l16.0908,9.06362l17.56047,-7.08356l26.46992,9.05529l26.6127,-8.05839l21.60103,9.3807l25.46216,-14.0133l15.25446,13.68054l20.29573,-14.08826l20.58709,12.70633v10.44586h-201.51132v-10.44586z" data-paper-data="{&quot;index&quot;:null}" fill="#00d624"/></g></g></svg>