<svg version="1.1" xmlns="http://www.w3.org/2000/svg" xmlns:xlink="http://www.w3.org/1999/xlink" width="28.73549" height="43.46248" viewBox="0,0,28.73549,43.46248"><g transform="translate(-226.28682,-156.70878)"><g data-paper-data="{&quot;isPaintingLayer&quot;:true}" fill-rule="nonzero" stroke-linecap="butt" stroke-linejoin="miter" stroke-miterlimit="10" stroke-dasharray="" stroke-dashoffset="0" style="mix-blend-mode: normal"><path d="M230.63448,169.38306c0,0 0.13822,0.73715 -0.59894,0.87537c-0.34221,0.06416 -0.55534,-0.06032 -0.68549,-0.21213c-0.29922,-0.09854 -0.51523,-0.3803 -0.51523,-0.71252c0,-0.06371 0.00794,-0.12556 0.02289,-0.18462l0.12275,-0.53194c-0.38787,-2.46297 -0.69602,-6.09275 0.38309,-8.01696c1.58385,-2.82423 5.80306,-3.14148 8.59626,-3.14148c1.59101,0 4.68656,-0.58907 6.15569,0.20812c1.16286,0.63101 1.95224,2.14378 2.87024,3.06968c3.03897,3.06512 5.14096,5.22744 6.64118,9.48602c0.52988,4.14913 0.64539,8.73868 0.64539,12.92368c0,1.02394 0.44635,3.41949 -0.09964,4.31105c-0.60534,0.98846 -2.69628,1.65307 -3.74657,1.7509c-0.74597,0.00046 -2.47779,0.24296 -3.03855,-0.38967c-0.47019,-0.53045 -0.12414,-2.24524 -0.17585,-2.93161c-0.17665,-2.345 -0.50103,-5.19877 -0.11855,-7.53969c0.27474,-1.68148 1.05416,-2.8713 1.05416,-4.63848c0,-3.07574 -2.30841,-7.84884 -5.82975,-8.38861c-2.01297,-0.30856 -4.08385,-0.30157 -6.13968,-0.26919c-0.09313,0.3083 -0.37938,0.5328 -0.71807,0.5328h-0.70634c-1.22193,0.17691 -2.42157,1.42954 -3.54191,2.60114l-0.01843,0.04677c0,0 -0.1276,0.25521 -0.38281,0.37209l0.25915,0.24295l-0.44626,0.47601c0.00376,0.02023 0.00751,0.04034 0.01126,0.06031z" fill="#c6c6c6" stroke="#6f6f6f" stroke-width="1.5"/><path d="M244.74925,198.92179l-6.02694,-6.17901l2.67505,-2.60922l6.02694,6.17901z" fill="#c6c6c6" stroke="#6f6f6f" stroke-width="1.5"/><path d="M232.09963,193.96043v-12.47368h12.47368v12.47368z" fill="#c6c6c6" stroke="#6f6f6f" stroke-width="1.5"/><path d="M228.25753,173.85516c0,-5.61005 4.54784,-10.15789 10.15789,-10.15789c5.61005,0 10.15789,4.54784 10.15789,10.15789c0,5.61005 -4.54784,10.15789 -10.15789,10.15789c-5.61005,0 -10.15789,-4.54784 -10.15789,-10.15789z" fill="#c6c6c6" stroke="#6f6f6f" stroke-width="1.5"/><path d="M234.33074,172.44485c0,-0.66609 3.78536,-2.48181 3.78536,-2.48181c0,0 0.68966,1.06378 0.68966,2.48181c0,1.23574 -1.00177,2.23751 -2.23751,2.23751c-1.23574,0 -2.23751,-1.00177 -2.23751,-2.23751z" fill="#ff0000" stroke="none" stroke-width="0"/><path d="M229.58338,172.39165c0,-1.18602 0.12539,-2.14749 0.12539,-2.14749c0,0 4.16958,0.96146 4.16958,2.14749c0,1.18602 -0.96146,2.14749 -2.14749,2.14749c-1.18602,0 -2.14749,-0.96146 -2.14749,-2.14749z" fill="#ff0000" stroke="none" stroke-width="0"/><path d="M232.71805,167.96043c0,-0.41421 0.33579,-0.75 0.75,-0.75c0.41421,0 0.75,0.33579 0.75,0.75c0,0.41421 -0.33579,0.75 -0.75,0.75c-0.41421,0 -0.75,-0.33579 -0.75,-0.75z" fill="#000000" stroke="none" stroke-width="0.5"/><path d="M243.03384,167.80253c0,-0.41421 0.33579,-0.75 0.75,-0.75c0.41421,0 0.75,0.33579 0.75,0.75c0,0.41421 -0.33579,0.75 -0.75,0.75c-0.41421,0 -0.75,-0.33579 -0.75,-0.75z" fill="#000000" stroke="none" stroke-width="0.5"/><path d="M232.50753,179.90779c0,-0.41421 0.33579,-0.75 0.75,-0.75c0.41421,0 0.75,0.33579 0.75,0.75c0,0.41421 -0.33579,0.75 -0.75,0.75c-0.41421,0 -0.75,-0.33579 -0.75,-0.75z" fill="#000000" stroke="none" stroke-width="0.5"/><path d="M242.297,180.17095c0,-0.41421 0.33579,-0.75 0.75,-0.75c0.41421,0 0.75,0.33579 0.75,0.75c0,0.41421 -0.33579,0.75 -0.75,0.75c-0.41421,0 -0.75,-0.33579 -0.75,-0.75z" fill="#000000" stroke="none" stroke-width="0.5"/><path d="M245.61279,172.01306c0,-0.41421 0.33579,-0.75 0.75,-0.75c0.41421,0 0.75,0.33579 0.75,0.75c0,0.41421 -0.33579,0.75 -0.75,0.75c-0.41421,0 -0.75,-0.33579 -0.75,-0.75z" fill="#000000" stroke="none" stroke-width="0.5"/><path d="M245.61279,175.80253c0,-0.41421 0.33579,-0.75 0.75,-0.75c0.41421,0 0.75,0.33579 0.75,0.75c0,0.41421 -0.33579,0.75 -0.75,0.75c-0.41421,0 -0.75,-0.33579 -0.75,-0.75z" fill="#000000" stroke="none" stroke-width="0.5"/><path d="M229.92858,176.01306c0,-0.41421 0.33579,-0.75 0.75,-0.75c0.41421,0 0.75,0.33579 0.75,0.75c0,0.41421 -0.33579,0.75 -0.75,0.75c-0.41421,0 -0.75,-0.33579 -0.75,-0.75z" fill="#000000" stroke="none" stroke-width="0.5"/><path d="M227.82332,172.22358c0,-0.41421 0.33579,-0.75 0.75,-0.75c0.41421,0 0.75,0.33579 0.75,0.75c0,0.41421 -0.33579,0.75 -0.75,0.75c-0.41421,0 -0.75,-0.33579 -0.75,-0.75z" fill="#000000" stroke="none" stroke-width="0.5"/><path d="M233.34963,183.90779c0,-0.41421 0.33579,-0.75 0.75,-0.75c0.41421,0 0.75,0.33579 0.75,0.75c0,0.41421 -0.33579,0.75 -0.75,0.75c-0.41421,0 -0.75,-0.33579 -0.75,-0.75z" fill="#000000" stroke="none" stroke-width="0.5"/><path d="M241.92858,183.64464c0,-0.41421 0.33579,-0.75 0.75,-0.75c0.41421,0 0.75,0.33579 0.75,0.75c0,0.41421 -0.33579,0.75 -0.75,0.75c-0.41421,0 -0.75,-0.33579 -0.75,-0.75z" fill="#000000" stroke="none" stroke-width="0.5"/><path d="M233.08648,192.48674c0,-0.41421 0.33579,-0.75 0.75,-0.75c0.41421,0 0.75,0.33579 0.75,0.75c0,0.41421 -0.33579,0.75 -0.75,0.75c-0.41421,0 -0.75,-0.33579 -0.75,-0.75z" fill="#000000" stroke="none" stroke-width="0.5"/><path d="M242.03384,192.38148c0,-0.41421 0.33579,-0.75 0.75,-0.75c0.41421,0 0.75,0.33579 0.75,0.75c0,0.41421 -0.33579,0.75 -0.75,0.75c-0.41421,0 -0.75,-0.33579 -0.75,-0.75z" fill="#000000" stroke="none" stroke-width="0.5"/><path d="M231.77311,190.80809l1.02117,-7.56295l2.86871,0.38734l-1.02117,7.56295z" fill="#c6c6c6" stroke="#6f6f6f" stroke-width="1.5"/><path d="M237.31422,191.88747l1.10808,-7.55071l2.86406,0.42031l-1.10808,7.5507z" fill="#c6c6c6" stroke="#6f6f6f" stroke-width="1.5"/><path d="M227.34421,196.27234l6.56352,-5.60572l2.42688,2.84152l-6.56354,5.60573z" data-paper-data="{&quot;index&quot;:null}" fill="#c6c6c6" stroke="#6f6f6f" stroke-width="1.5"/></g></g></svg>