<svg version="1.1" xmlns="http://www.w3.org/2000/svg" xmlns:xlink="http://www.w3.org/1999/xlink" width="488" height="861.5" viewBox="0,0,488,861.5"><defs><linearGradient x1="239.0015" y1="-437.21545" x2="239.0015" y2="424.28455" gradientUnits="userSpaceOnUse" id="color-1"><stop offset="0" stop-color="#00c1ff"/><stop offset="1" stop-color="#2900ff"/></linearGradient></defs><g transform="translate(4.9985,437.21546)"><g data-paper-data="{&quot;isPaintingLayer&quot;:true}" fill-rule="nonzero" stroke="none" stroke-width="0" stroke-linecap="butt" stroke-linejoin="miter" stroke-miterlimit="10" stroke-dasharray="" stroke-dashoffset="0" style="mix-blend-mode: normal"><g><path d="M-4.9985,424.28455v-861.5h488v861.5z" fill="url(#color-1)"/><g fill="#ffffff"><path d="M302.0015,-19.27471c0,12.31308 -29.77306,22.2948 -66.5,22.2948c-36.72694,0 -66.5,-9.98172 -66.5,-22.2948c0,-12.31308 29.77306,-22.2948 66.5,-22.2948c36.72694,0 66.5,9.98172 66.5,22.2948z"/><path d="M280.47549,-45.79782c0,10.40243 -19.96344,18.83526 -44.5896,18.83526c-24.62615,0 -44.5896,-8.43283 -44.5896,-18.83526c0,-10.40243 19.96344,-18.83526 44.5896,-18.83526c24.62615,0 44.5896,8.43283 44.5896,18.83526z"/><path d="M174.383,-46.95101c0,-13.58684 11.01431,-24.60116 24.60116,-24.60116c13.58684,0 24.60116,11.01431 24.60116,24.60116c0,13.58684 -11.01431,24.60116 -24.60116,24.60116c-13.58684,0 -24.60116,-11.01431 -24.60116,-24.60116z"/><path d="M216.66624,-60.02037c0,-15.70979 8.94913,-28.44509 19.98844,-28.44509c11.03931,0 19.98844,12.7353 19.98844,28.44509c0,15.70979 -8.94913,28.44509 -19.98844,28.44509c-11.03931,0 -19.98844,-12.7353 -19.98844,-28.44509z"/><path d="M247.41768,-47.7198c0,-14.01143 11.35851,-25.36994 25.36994,-25.36994c14.01143,0 25.36994,11.35851 25.36994,25.36994c0,14.01143 -11.35851,25.36994 -25.36994,25.36994c-14.01143,0 -25.36994,-11.35851 -25.36994,-25.36994z"/></g><g fill="#ffffff"><path d="M464.0015,-26.53771c0,11.10954 -26.86292,20.11561 -60,20.11561c-33.13708,0 -60,-9.00606 -60,-20.11561c0,-11.10954 26.86292,-20.11561 60,-20.11561c33.13708,0 60,9.00606 60,20.11561z"/><path d="M444.57953,-50.46834c0,9.38565 -18.01213,16.99422 -40.23121,16.99422c-22.21909,0 -40.23121,-7.60857 -40.23121,-16.99422c0,-9.38565 18.01213,-16.99422 40.23121,-16.99422c22.21909,0 40.23121,7.60857 40.23121,16.99422z"/><path d="M348.85699,-51.5088c0,-12.2588 9.93773,-22.19653 22.19653,-22.19653c12.2588,0 22.19653,9.93773 22.19653,22.19653c0,12.2588 -9.93773,22.19653 -22.19653,22.19653c-12.2588,0 -22.19653,-9.93773 -22.19653,-22.19653z"/><path d="M387.00728,-63.30072c0,-14.17424 8.0744,-25.66474 18.03468,-25.66474c9.96028,0 18.03468,11.4905 18.03468,25.66474c0,14.17424 -8.0744,25.66474 -18.03468,25.66474c-9.96028,0 -18.03468,-11.4905 -18.03468,-25.66474z"/><path d="M414.75295,-52.20245c0,-12.64189 10.24828,-22.89017 22.89017,-22.89017c12.64189,0 22.89017,10.24828 22.89017,22.89017c0,12.64189 -10.24828,22.89017 -22.89017,22.89017c-12.64189,0 -22.89017,-10.24828 -22.89017,-22.89017z"/></g><g fill="#ffffff"><path d="M313.29562,55.36674c0,7.71133 -18.64603,13.9626 -41.64706,13.9626c-23.00103,0 -41.64706,-6.25126 -41.64706,-13.9626c0,-7.71133 18.64603,-13.9626 41.64706,-13.9626c23.00103,0 41.64706,6.25126 41.64706,13.9626z"/><path d="M299.81449,38.75608c0,6.51474 -12.50253,11.79599 -27.92519,11.79599c-15.42266,0 -27.92519,-5.28124 -27.92519,-11.79599c0,-6.51474 12.50253,-11.79599 27.92519,-11.79599c15.42266,0 27.92519,5.28124 27.92519,11.79599z"/><path d="M233.37178,38.03386c0,-8.50905 6.89795,-15.40701 15.40701,-15.40701c8.50905,0 15.40701,6.89795 15.40701,15.40701c0,8.50905 -6.89795,15.40701 -15.40701,15.40701c-8.50905,0 -15.40701,-6.89795 -15.40701,-15.40701z"/><path d="M259.85257,29.84889c0,-9.83859 5.60459,-17.81435 12.51819,-17.81435c6.91361,0 12.51819,7.97575 12.51819,17.81435c0,9.83859 -5.60459,17.81435 -12.51819,17.81435c-6.91361,0 -12.51819,-7.97575 -12.51819,-17.81435z"/><path d="M279.11133,37.55239c0,-8.77496 7.11351,-15.88847 15.88847,-15.88847c8.77496,0 15.88847,7.11351 15.88847,15.88847c0,8.77496 -7.11351,15.88847 -15.88847,15.88847c-8.77496,0 -15.88847,-7.11351 -15.88847,-15.88847z"/></g><g fill="#ffffff"><path d="M153.0015,8.22529c0,12.31308 -29.77307,22.2948 -66.5,22.2948c-36.72693,0 -66.5,-9.98172 -66.5,-22.2948c0,-12.31307 29.77307,-22.29479 66.5,-22.29479c36.72693,0 66.5,9.98172 66.5,22.29479z"/><path d="M131.47549,-18.29782c0,10.40242 -19.96344,18.83526 -44.58959,18.83526c-24.62615,0 -44.5896,-8.43283 -44.5896,-18.83526c0,-10.40242 19.96344,-18.83526 44.5896,-18.83526c24.62616,0 44.58959,8.43284 44.58959,18.83526z"/><path d="M25.38301,-19.45101c0,-13.58684 11.01431,-24.60115 24.60115,-24.60115c13.58684,0 24.60116,11.01431 24.60116,24.60115c0,13.58684 -11.01431,24.60116 -24.60116,24.60116c-13.58684,0 -24.60115,-11.01431 -24.60115,-24.60116z"/><path d="M67.66624,-32.52037c0,-15.70979 8.94913,-28.44509 19.98844,-28.44509c11.03931,0 19.98844,12.7353 19.98844,28.44509c0,15.70979 -8.94913,28.44509 -19.98844,28.44509c-11.03931,0 -19.98844,-12.7353 -19.98844,-28.44509z"/><path d="M98.41769,-20.2198c0,-14.01143 11.35851,-25.36994 25.36994,-25.36994c14.01143,0 25.36995,11.35851 25.36995,25.36994c0,14.01143 -11.35852,25.36994 -25.36994,25.36994c-14.01143,0 -25.36994,-11.35851 -25.36994,-25.36994z"/></g><g fill="#ffffff"><path d="M143.44688,123.61884c0,13.09494 -31.66363,23.7105 -70.72269,23.7105c-39.05906,0 -70.72269,-10.61554 -70.72269,-23.7105c0,-13.09494 31.66363,-23.7105 70.72269,-23.7105c39.05906,0 70.72269,10.61554 70.72269,23.7105z"/><path d="M120.55399,95.41153c0,11.06297 -21.2311,20.03128 -47.42099,20.03128c-26.18989,0 -47.42099,-8.96831 -47.42099,-20.03128c0,-11.06297 21.2311,-20.03128 47.42099,-20.03128c26.18989,0 47.42099,8.96831 47.42099,20.03128z"/><path d="M7.72472,94.18512c0,-14.44959 11.71371,-26.16331 26.16331,-26.16331c14.44959,0 26.16331,11.71371 26.16331,26.16331c0,14.44959 -11.71371,26.16331 -26.16331,26.16331c-14.44959,0 -26.16331,-11.71371 -26.16331,-26.16331z"/><path d="M52.69291,80.28586c0,-16.70735 9.51739,-30.25132 21.25769,-30.25132c11.7403,0 21.25769,13.54398 21.25769,30.25132c0,16.70735 -9.51739,30.25132 -21.25769,30.25132c-11.7403,0 -21.25769,-13.54398 -21.25769,-30.25132z"/><path d="M85.39704,93.36753c0,-14.90115 12.07977,-26.98091 26.98091,-26.98091c14.90115,0 26.98091,12.07977 26.98091,26.98091c0,14.90115 -12.07977,26.98091 -26.98091,26.98091c-14.90115,0 -26.98091,-12.07977 -26.98091,-26.98091z"/></g><g fill="#ffffff"><path d="M332.0015,158.33512c0,15.46078 -37.38423,27.99422 -83.5,27.99422c-46.11577,0 -83.5,-12.53343 -83.5,-27.99422c0,-15.46078 37.38423,-27.99422 83.5,-27.99422c46.11577,0 83.5,12.53343 83.5,27.99422z"/><path d="M304.9726,125.03166c0,13.06169 -25.06688,23.65028 -55.98843,23.65028c-30.92156,0 -55.98843,-10.58859 -55.98843,-23.65028c0,-13.06169 25.06688,-23.65028 55.98843,-23.65028c30.92156,0 55.98843,10.58859 55.98843,23.65028z"/><path d="M171.75872,123.58367c0,-17.06017 13.83,-30.89018 30.89018,-30.89018c17.06017,0 30.89018,13.83 30.89018,30.89018c0,17.06017 -13.83,30.89018 -30.89018,30.89018c-17.06017,0 -30.89018,-13.83 -30.89018,-30.89018z"/><path d="M224.85122,107.17327c0,-19.72582 11.23688,-35.71676 25.09827,-35.71676c13.86139,0 25.09827,15.99094 25.09827,35.71676c0,19.72582 -11.23688,35.71676 -25.09827,35.71676c-13.86139,0 -25.09827,-15.99094 -25.09827,-35.71676z"/><path d="M263.46393,122.61837c0,-17.5933 14.26219,-31.85549 31.85549,-31.85549c17.5933,0 31.85549,14.26219 31.85549,31.85549c0,17.5933 -14.26219,31.85549 -31.85549,31.85549c-17.5933,0 -31.85549,-14.26219 -31.85549,-31.85549z"/></g><g fill="#ffffff"><path d="M459.0015,107.01005c0,11.20702 -22.16191,20.29211 -49.5,20.29211c-27.33809,0 -49.5,-9.08508 -49.5,-20.29211c0,-11.20702 22.16191,-20.29211 49.5,-20.29211c27.33809,0 49.5,9.08508 49.5,20.29211z"/><path d="M442.97838,82.86945c0,9.468 -14.86,17.14333 -33.19075,17.14333c-18.33074,0 -33.19075,-7.67533 -33.19075,-17.14333c0,-9.468 14.86,-17.14333 33.19075,-17.14333c18.33074,0 33.19075,7.67533 33.19075,17.14333z"/><path d="M364.00728,81.81984c0,-12.36637 8.19862,-22.3913 18.31214,-22.3913c10.11351,0 18.31214,10.02492 18.31214,22.3913c0,12.36637 -8.19862,22.3913 -18.31214,22.3913c-10.11351,0 -18.31214,-10.02492 -18.31214,-22.3913z"/><path d="M395.48127,69.92447c0,-14.29862 6.66138,-25.88993 14.87861,-25.88993c8.21723,0 14.87861,11.59132 14.87861,25.88993c0,14.29862 -6.66138,25.88993 -14.87861,25.88993c-8.21723,0 -14.87861,-11.59132 -14.87861,-25.88993z"/><path d="M418.37144,81.12013c0,-12.75282 8.45483,-23.09102 18.88439,-23.09102c10.42956,0 18.88439,10.3382 18.88439,23.09102c0,12.75282 -8.45483,23.09102 -18.88439,23.09102c-10.42956,0 -18.88439,-10.3382 -18.88439,-23.09102z"/></g></g></g></g></svg>