<svg version="1.1" xmlns="http://www.w3.org/2000/svg" xmlns:xlink="http://www.w3.org/1999/xlink" width="133.88322" height="96.47672" viewBox="0,0,133.88322,96.47672"><g transform="translate(-177.10173,-112.73687)"><g data-paper-data="{&quot;isPaintingLayer&quot;:true}" fill-rule="nonzero" stroke-linejoin="miter" stroke-miterlimit="10" stroke-dasharray="" stroke-dashoffset="0" style="mix-blend-mode: normal"><g data-paper-data="{&quot;index&quot;:null}" fill="#949494" stroke="#000000" stroke-width="2"><path d="M205.29489,187.20845c0,0 -6.64286,-11.93942 -3.49459,-18.64127c1.13169,-2.40908 0.89596,-2.59479 2.69679,-6.62759c0.64865,-1.4526 1.4419,-2.94082 2.25333,-4.68416c2.17592,-4.67491 4.48262,-9.71385 4.48262,-9.71385c0,0 12.8362,2.13774 17.33941,2.13774c0.4348,0 21.53684,0.47359 21.97571,0.47078c10.74117,-0.06885 7.24001,-0.23325 7.24001,-0.23325c0,0 5.00242,-3.25087 6.6278,-2.9405c3.12122,0.596 6.09658,-2.66377 7.77886,2.9894c0.7907,2.65709 0.61267,2.95203 0.96648,6.59672c0.51648,5.32044 0.7566,13.44454 -1.04569,18.83477c-2.4256,7.25441 -7.20167,11.09865 -7.20167,11.09865z" stroke-linecap="butt"/><path d="M228.5336,186.2582c0,0 9.15072,-8.9704 8.79967,-18.34394c-0.36124,-4.29476 -5.1374,-13.07136 -5.1374,-13.07136l-4.03795,-4.98805l3.32537,4.27547c0,0 4.10165,-0.47068 6.34937,-0.72861c2.54497,-0.29205 8.13973,-0.93407 8.13973,-0.93407l-0.23753,-1.66268" stroke-linecap="round"/><path d="M257.84869,157.45569c0,0 3.11779,0.51281 5.78238,2.15324c3.24758,1.99934 6.16789,5.44311 6.30116,8.77418c0.13219,3.30408 -0.67646,8.08355 -3.45338,11.01242c-3.42658,3.61409 -9.1053,5.03108 -10.76089,4.83995c-4.48955,-0.51829 -8.18307,-8.6525 -8.46709,-10.60669c-0.78231,-5.3826 1.63974,-12.17764 2.58871,-13.45012c1.76938,-2.37258 8.00911,-2.72298 8.00911,-2.72298" stroke-linecap="round"/><path d="M207.73069,170.51964c0,-4.91169 3.12479,-7.68761 7.2084,-9.39624c1.2606,-0.52746 4.06037,-1.52997 5.49925,-1.52997c6.09996,0 10.09486,4.7358 10.09486,11.16373c0,6.42793 -5.65758,12.58889 -11.75755,12.58889c-6.09997,0 -11.04497,-6.3985 -11.04497,-12.82642z" stroke-linecap="butt"/></g><g data-paper-data="{&quot;index&quot;:null}" stroke="#000000" stroke-width="2" stroke-linecap="round"><path d="M188.51621,142.59174c0,0 9.8184,-0.36242 15.18081,1.85015c2.30639,0.95163 4.85845,2.69326 5.58793,4.05c0.84697,1.57526 -0.34964,2.71436 -0.73406,2.79699c-2.59296,0.55736 -7.71539,-0.49528 -9.77452,-1.34734c-3.60936,-1.49353 -10.49769,-7.34981 -10.49769,-7.34981" fill="#d8d8d8"/><path d="M205.61808,145.20452l-1.66268,5.93816" fill="none"/></g><path d="M271.55934,182.74801l-14.31657,-5.24762c0,0 -4.98874,-2.34238 -5.21627,-4.29625c-0.12918,-1.10923 -0.98385,-4.89685 -0.44361,-6.90259c0.67651,-2.51163 3.61677,-3.34821 4.48267,-4.17669c0.37807,-0.36173 4.69705,0.26803 4.69705,0.26803c0,0 3.06847,1.5519 5.09968,2.57919c3.01469,1.5247 11.2336,5.68146 11.2336,5.68146z" data-paper-data="{&quot;index&quot;:null}" fill="#949494" stroke="#000000" stroke-width="2.5" stroke-linecap="butt"/><g data-paper-data="{&quot;index&quot;:null}"><g><path d="M198.61055,179.25813l5.34335,-2.59042l2.17595,4.48842l-5.34335,2.59042z" data-paper-data="{&quot;index&quot;:null}" fill="#000000" stroke="none" stroke-width="0" stroke-linecap="butt"/><path d="M200.85122,192.70684l-4.20648,2.69121l-3.60247,3.06928l-4.48163,-0.00299l2.44066,2.36833l0.60252,2.61889l0.70394,1.56149l0.07383,2.56818l-3.85152,-1.00967l-8.20415,-5.69563l-0.70394,-1.56149l-1.15582,-3.52565l4.9656,-8.38087l10.40023,-2.73744z" fill="#949494" stroke="#000000" stroke-width="2.5" stroke-linecap="round"/><path d="M194.13474,183.73911l1.99176,-4.07747l3.14758,-0.55182l3.02006,1.89034l0.80236,4.98573l-0.6331,5.48832l-1.6122,1.23264z" fill="#242424" stroke="#000000" stroke-width="2.5" stroke-linecap="round"/><path d="M202.66923,184.87779l-1.18491,2.34074l-4.65836,0.72705" fill="none" stroke="#000000" stroke-width="2.5" stroke-linecap="round"/></g><g stroke="none" stroke-linecap="butt"><path d="M180.26219,193.79512l2.60031,-5.18143l11.6042,-2.5169l4.84222,6.13644l-6.28672,5.20676l-6.10239,0.32741z" fill="#8c6200" stroke-width="NaN"/><path d="M189.7933,185.30185l5.33415,0.88662l4.51715,6.1059l-2.65935,1.67241z" fill="#8c0081" stroke-width="NaN"/><path d="M188.23005,206.00771l-8.86133,-7.05711l2.03083,-5.36488l6.19107,3.91167l1.88796,2.76936l2.50725,2.39428l0.24218,1.33779l-0.18423,2.73798z" fill="#8c0081" stroke-width="0"/><g fill="#ffffff" stroke-width="0.5"><path d="M193.69622,190.48799c0.00045,-0.00004 0.00091,-0.00008 0.00136,-0.00012c0.27255,-0.02467 0.29724,0.24789 0.29724,0.24789c0.10674,1.33269 -0.90062,1.9732 -1.95755,1.63185c0.09035,-0.09367 0.02881,-0.2247 0.02881,-0.2247c-0.41737,-0.88877 -0.81666,-1.7826 -1.28432,-2.64374c0.20892,-0.41902 0.50051,-0.73661 0.83512,-0.74742c0.47135,-0.01521 0.97585,0.32177 1.32616,0.57737c0.42895,0.36928 0.58417,0.70488 0.7532,1.15886zM192.13893,189.80328c0.04818,0.10261 0.17044,0.14672 0.27303,0.09854c0.10261,-0.04819 0.14672,-0.17044 0.09854,-0.27304c-0.04819,-0.10261 -0.17044,-0.14672 -0.27303,-0.09854c-0.10261,0.04818 -0.14672,0.17044 -0.09854,0.27303zM192.88243,191.30602c0.04819,0.10261 0.17044,0.14671 0.27305,0.09853c0.10262,-0.04819 0.14673,-0.17042 0.09855,-0.27303c-0.04819,-0.10261 -0.17044,-0.14672 -0.27304,-0.09854c-0.10261,0.04818 -0.14672,0.17044 -0.09854,0.27303z"/><path d="M192.59094,193.29593c0.16157,0.34403 -0.18246,0.50558 -0.18246,0.50558l0.05077,-0.06818c-0.13189,0.16357 -0.30399,0.28949 -0.49554,0.38781l0.0138,0.01346l-0.00888,0.00909l0.05819,0.09736l-0.40544,0.24233c-0.01207,0.00742 -0.02469,0.01424 -0.03782,0.0204c-0.19,0.08923 -0.41636,0.00755 -0.50558,-0.18246c-0.04855,-0.10338 -0.04649,-0.21755 -0.00392,-0.31451c-0.00616,-0.00284 -0.00949,-0.0046 -0.00949,-0.0046c-0.52418,-0.28043 -1.0174,-0.59816 -1.51829,-0.90482c-0.02742,0.28319 -0.06057,0.56672 -0.10102,0.85104c-0.11142,0.7834 0.07642,1.64783 -0.42918,2.26632c0.03478,-0.04219 0.12137,-0.1472 0.15807,-0.19171l0.09836,0.09306l0.02761,-0.04919l0.35252,0.19788c0.06848,0.03734 0.12613,0.09602 0.16184,0.17204c0.08922,0.19001 0.00753,0.41636 -0.18248,0.50558c-0.03147,0.01479 -0.06395,0.02488 -0.09662,0.03057l-0.37605,0.07391l-0.01307,-0.06652c-0.31734,0.09346 -0.57811,0.04825 -1.01324,-0.16082c-0.11124,0.00488 -0.25353,-0.03241 -0.3416,-0.21995c-0.16157,-0.34403 0.18246,-0.50559 0.18246,-0.50559l0.38285,-0.01184c0.03835,0.02143 0.0768,0.03905 0.11489,0.05401c0.049,-0.57405 0.13911,-1.37557 0.15173,-1.51755c0.05867,-0.66056 0.11401,-1.31377 0.16218,-1.96622c-0.16815,-0.09202 -0.33913,-0.18034 -0.51428,-0.26329c-0.33862,-0.16039 -0.6912,-0.2709 -1.04043,-0.39326c-0.03424,0.25812 -0.11788,0.52995 -0.28932,0.85416l-0.1528,0.42339c-0.03301,0.09149 -0.10094,0.17038 -0.19593,0.215c-0.19001,0.08923 -0.41637,0.00755 -0.50559,-0.18246c-0.02018,-0.04299 -0.03161,-0.08781 -0.03503,-0.13251l-0.07483,-0.74757l0.03008,-0.00302c-0.16274,-0.61519 -0.16983,-1.13983 0.01078,-2.0133l0.06026,-0.17824c0,0 0.12903,-0.3575 0.48653,-0.22848c0.03482,0.01257 0.06503,0.0273 0.09118,0.04366c0.03029,-0.0081 0.06409,-0.01335 0.10178,-0.01501c0.37969,-0.01681 0.39651,0.36289 0.39651,0.36289c0.01219,0.30278 0.04275,0.55972 0.06619,0.79645c0.45507,0.18213 0.92951,0.30074 1.37764,0.51208c0.08229,0.03879 0.16369,0.07888 0.24436,0.12003c0.03709,-0.58485 0.06714,-1.17133 0.08737,-1.76416c-0.33595,-0.09311 -0.61356,-0.2532 -0.66037,-0.53129c-0.21734,-1.29119 1.8139,-0.50013 2.1763,-0.29712l0.19283,0.17819c0,0 0.26207,0.27529 -0.01322,0.53735c-0.01586,0.0151 -0.03168,0.02841 -0.04742,0.04011c0.36799,0.70842 0.6973,1.43575 1.03624,2.16063c-0.05861,-0.03316 -0.11693,-0.06945 -0.17483,-0.10897c-0.0891,-0.06082 -0.8463,-0.57009 -0.90246,-0.66171c-0.1667,-0.27193 -0.1423,-0.83296 0.01284,-1.37063c-0.0211,0.01324 -0.04199,0.02367 -0.06254,0.03168c-0.10972,0.16292 -0.32807,0.15754 -0.32807,0.15754c-0.11212,-0.003 -0.27938,-0.00617 -0.46894,-0.01918c-0.01649,0.69734 -0.03477,1.38793 -0.07774,2.07804c0.60203,0.36019 1.18458,0.7489 1.80847,1.0775c0,0 0.03564,0.01893 0.07752,0.05606c0.09606,-0.20311 0.21446,-0.39664 0.34418,-0.57917c0,0 0.22227,-0.3083 0.53057,-0.08603c0.20864,0.15042 0.17428,0.34025 0.13027,0.44725c0.0322,0.03164 0.06195,0.07308 0.08722,0.12691z"/></g></g></g><path d="M224.94237,176.52572l-13.60079,10.43569l-7.57106,-8.20758l-0.40987,-1.53976l10.62465,-11.29233l6.08443,-3.15855l4.92576,1.98653l2.57072,4.70198l-0.20676,3.35275z" data-paper-data="{&quot;index&quot;:null}" fill="#949494" stroke="#000000" stroke-width="2.5" stroke-linecap="round"/><g data-paper-data="{&quot;index&quot;:null}"><g><path d="M280.12374,176.8534l-5.50212,-2.23349l1.87612,-4.62177l5.50212,2.23349z" fill="#000000" stroke="none" stroke-width="0" stroke-linecap="butt"/><path d="M309.72708,181.04636c0,0 0.80411,0.98064 0.00787,1.64502c-2.08644,1.74096 -12.98867,9.18624 -12.98867,9.18624l-16.56816,-5.91206c0,0 4.41372,-5.87456 5.95682,-8.39184c0.59866,-0.97659 11.61212,2.39743 12.23132,1.90284c0.64363,-0.51409 0.36766,3.24525 0.89946,3.85554c0.60045,0.68907 1.99218,-1.73977 2.42732,-2.05376c1.22604,-0.88469 3.74507,-2.11656 3.74507,-2.11656l4.28896,1.88459z" fill="#949494" stroke="#000000" stroke-width="2.5" stroke-linecap="butt"/><path d="M278.27385,186.16802l-0.3808,-10.2699l2.03159,-2.18258l2.46976,-0.75107l2.61338,1.02176l1.75322,2.83562z" fill="#242424" stroke="#000000" stroke-width="2.5" stroke-linecap="butt"/><path d="M283.02578,180.98167l-2.09687,0.34145l-1.82875,-1.31658" fill="none" stroke="#000000" stroke-width="2.5" stroke-linecap="round"/><path d="M298.98056,182.79627l1.79479,5.73469" fill="none" stroke="#000000" stroke-width="2.5" stroke-linecap="round"/></g><g stroke="none" stroke-linecap="butt"><path d="M297.53368,190.47011l-15.72037,-4.40592l4.74368,-9.02177l2.86285,1.64283l7.94303,2.14738z" fill="#8c6200" stroke-width="NaN"/><path d="M285.59921,187.05094l-3.70575,-1.27651l4.92889,-8.45348l2.99619,1.78852z" fill="#8c0081" stroke-width="NaN"/><path d="M297.3399,190.88007l-2.95682,-10.5063l2.99489,0.30527l2.66574,3.35554l2.32584,-2.02265l3.16272,-1.41989l1.33041,0.27992l2.4666,1.20265z" fill="#8c0081" stroke-width="0"/><g fill="#ffffff" stroke-width="0.5"><path d="M287.02262,183.56252c-0.00036,-0.00026 -0.00072,-0.00054 -0.00109,-0.00082c-0.21918,-0.16389 -0.05528,-0.38307 -0.05528,-0.38307c0.81168,-1.06237 1.98902,-0.86514 2.54673,0.09536c-0.1298,0.00925 -0.17166,0.14783 -0.17166,0.14783c-0.28386,0.93997 -0.58457,1.87159 -0.81258,2.82462c-0.4355,0.17191 -0.8647,0.21312 -1.12074,-0.00258c-0.36068,-0.30384 -0.51053,-0.89174 -0.60013,-1.31602c-0.07208,-0.56141 0.0369,-0.91475 0.21474,-1.36533zM287.58568,184.85709c-0.10851,-0.03278 -0.22305,0.02863 -0.25582,0.13715c-0.03278,0.10851 0.02863,0.22305 0.13715,0.25582c0.10851,0.03278 0.22305,-0.02863 0.25582,-0.13715c0.03278,-0.10851 -0.02863,-0.22305 -0.13715,-0.25582zM288.17467,183.49835c0.03278,-0.10851 -0.02863,-0.22305 -0.13715,-0.25582c-0.10851,-0.03278 -0.22305,0.02863 -0.25582,0.13715c-0.03277,0.10851 0.02863,0.22305 0.13715,0.25582c0.10852,0.03277 0.22306,-0.02863 0.25583,-0.13715z"/><path d="M289.72191,182.21351c0.10987,-0.36383 0.47372,-0.25397 0.47372,-0.25397l-0.08334,0.01675c0.20744,-0.03346 0.4196,-0.01202 0.6278,0.04293l-0.00126,-0.01925l0.01268,-0.00083l0.02183,-0.11132l0.46352,0.09088c0.01394,0.00255 0.02788,0.00591 0.04177,0.01011c0.20094,0.06068 0.31466,0.27278 0.25397,0.47372c-0.03302,0.10934 -0.11089,0.19285 -0.20738,0.23649c0.00268,0.00624 0.00397,0.00978 0.00397,0.00978c0.20229,0.55901 0.35661,1.12506 0.52404,1.68799c0.20974,-0.19225 0.42397,-0.38092 0.64414,-0.56532c0.60664,-0.50804 1.04493,-1.27645 1.83441,-1.39831c-0.05406,0.00811 -0.18866,0.0283 -0.24572,0.03687l-0.01093,-0.13495l-0.05342,0.01811l-0.12984,-0.38285c-0.02596,-0.07356 -0.02959,-0.15574 -0.00532,-0.23613c0.06069,-0.20095 0.27278,-0.31466 0.47372,-0.25397c0.03328,0.01005 0.06419,0.02426 0.09228,0.04188l0.32905,0.19648l-0.03475,0.05821c0.29846,0.14267 0.46215,0.35065 0.64593,0.79704c0.08597,0.07075 0.16685,0.19362 0.10695,0.39197c-0.10988,0.36384 -0.47372,0.25397 -0.47372,0.25397l-0.29261,-0.24718c-0.0142,-0.04158 -0.03099,-0.0804 -0.04933,-0.11698c-0.42026,0.39411 -1.02317,0.92989 -1.12748,1.02703c-0.48529,0.45197 -0.96318,0.9007 -1.43525,1.35366c0.06351,0.18085 0.13162,0.36085 0.20639,0.53964c0.14457,0.34566 0.33287,0.66357 0.51075,0.98807c0.19805,-0.16904 0.44198,-0.31525 0.78624,-0.44172l0.39669,-0.21267c0.08572,-0.04596 0.18898,-0.05921 0.28946,-0.02887c0.20095,0.06069 0.31466,0.27278 0.25397,0.47372c-0.01373,0.04546 -0.03519,0.08645 -0.06254,0.12197l-0.44418,0.60593l-0.02438,-0.01786c-0.29031,0.56629 -0.63582,0.96115 -1.35412,1.48991l-0.16399,0.09226c0,0 -0.33498,0.17958 -0.51456,-0.1554c-0.01749,-0.03263 -0.0301,-0.06378 -0.03862,-0.09343c-0.02793,-0.01422 -0.05658,-0.03292 -0.08572,-0.05688c-0.29358,-0.24136 -0.05222,-0.53495 -0.05222,-0.53495c0.19338,-0.23331 0.34245,-0.4448 0.4833,-0.63652c-0.21661,-0.4397 -0.49014,-0.84512 -0.68205,-1.3019c-0.03524,-0.08386 -0.06898,-0.16809 -0.10146,-0.25262c-0.41862,0.41011 -0.83309,0.82613 -1.2445,1.25344c0.18757,0.29386 0.28696,0.59851 0.13584,0.83661c-0.70169,1.10546 -1.68324,-0.84089 -1.81699,-1.23416l-0.02425,-0.26143c0,0 -0.01081,-0.37992 0.3691,-0.39074c0.02189,-0.00062 0.04255,0.00007 0.06206,0.00188c0.20002,-0.77283 0.44145,-1.53386 0.67406,-2.29952c0.02142,0.06383 0.04053,0.12984 0.05716,0.19793c0.0256,0.10481 0.24815,0.98976 0.22866,1.09544c-0.05786,0.31367 -0.45111,0.71455 -0.92597,1.01065c0.02454,0.00427 0.04706,0.01047 0.06769,0.01825c0.19053,-0.04778 0.3493,0.1022 0.3493,0.1022c0.08136,0.0772 0.20364,0.19138 0.33589,0.32779c0.47851,-0.50753 0.95383,-1.00884 1.44721,-1.49328c-0.20685,-0.67037 -0.38013,-1.34892 -0.62437,-2.01041c0,0 -0.01384,-0.0379 -0.02016,-0.09351c-0.20724,0.08681 -0.42468,0.15154 -0.64318,0.20055c0,0 -0.37142,0.08066 -0.45207,-0.29077c-0.05458,-0.25136 0.09789,-0.36953 0.20215,-0.41968c-0.00279,-0.04505 0.00279,-0.09576 0.02,-0.15269z"/></g></g></g><g data-paper-data="{&quot;index&quot;:null}"><g stroke="#000000" stroke-width="2.5"><path d="M262.54445,146.78656c0,0 0.37382,-1.49134 0,-2.61279c-0.33436,-1.00305 -2.13774,-3.80042 -2.13774,-3.80042c0,0 -4.82884,-3.36413 -4.50429,-6.71662c0.03684,-0.38056 1.48571,-8.6683 6.28563,-13.35727c3.43077,-3.35147 10.43238,-3.70263 11.33658,-3.33724c0.69893,0.28244 5.09711,0.72703 9.16966,2.53989c5.73937,2.55483 11.05964,6.41853 11.05964,6.41853l-2.00675,13.6172l-20.88931,-0.1146l0.71258,7.36331z" fill="#949494" stroke-linecap="butt"/><path d="M292.94782,133.24756l-13.06394,-2.61279l-3.32537,-3.32537l-3.32537,-9.9761l11.16373,3.56289l8.78847,4.98805z" fill="#000000" stroke-linecap="round"/><path d="M277.27108,128.97208h-1.66268" fill="none" stroke-linecap="round"/><path d="M277.03356,131.5849l-2.37526,-0.23753" fill="none" stroke-linecap="round"/><path d="M275.37087,133.96016l-1.42516,-0.23753" fill="none" stroke-linecap="round"/><path d="M290.09382,139.53473c0,0 -12.49164,-0.39597 -18.91936,0.1673c-1.58149,0.13859 -0.21237,1.97931 -1.19817,1.99021c-8.7343,0.0966 -9.63865,-1.9509 -10.4463,-2.94232c-2.00598,-2.46241 -4.19835,-5.75255 -4.09135,-6.33654c0.13759,-0.75094 1.86893,-2.51352 1.86893,-2.51352l3.92426,1.53509l5.4631,1.90021l5.70063,1.18763l9.9761,0.23753l8.07589,4.27547" fill="#373737" stroke-linecap="round"/><path d="M289.75992,141.84842l-0.9501,2.37526h-12.35136l-2.61279,-0.47505l-0.9501,-2.37526l0.47505,-1.90021l1.18763,-1.42516l1.42516,0.47505l1.18763,1.42516l0.9501,1.18763z" fill="#000000" stroke-linecap="round"/><path d="M266.81993,142.74863l-0.23753,2.61279" fill="none" stroke-linecap="round"/><path d="M262.78198,142.27357l8.55094,0.71258" fill="none" stroke-linecap="round"/><path d="M265.86981,120.65869l-1.18763,2.13774l0.47505,2.13774l-3.56289,-1.90021l0.23753,-4.513l3.32537,-3.80042l1.42516,1.90021l0.23753,3.32537z" fill="#151515" stroke-linecap="round"/><path d="M266.58241,124.3423l-3.32537,0.47505l-1.66268,-3.32537l0.9501,-1.42516l2.37526,-2.13774l1.90021,-0.23753l1.18763,0.9501l1.18763,1.18763l0.47505,2.61279z" fill="none" stroke-linecap="round"/></g><path d="M287.55167,123.29934c2.56859,0.75552 3.17067,2.26139 2.7603,4.07085c-0.41037,1.80946 -2.31153,2.9206 -4.24638,2.48179c-1.93484,-0.43881 -3.17067,-2.26139 -2.7603,-4.07085c0.41037,-1.80946 1.60058,-3.26001 4.24638,-2.48179z" fill="#54ff00" stroke="none" stroke-width="0" stroke-linecap="butt"/><path d="M277.94736,125.40245c-0.99389,0.11043 -1.10432,-0.88345 -1.10432,-0.88345l-0.03459,-1.38182c0.60581,-1.51114 1.15258,-2.67069 2.36411,-3.77602c0,0 0.74741,-0.66436 1.41177,0.08305c0.66436,0.74741 -0.08305,1.41177 -0.08305,1.41177c-0.99724,0.8552 -1.35583,1.82093 -1.83589,3.02398l0.16541,0.41818c0,0 0.11043,0.99389 -0.88345,1.10432z" fill="#54ff00" stroke="none" stroke-width="0.5" stroke-linecap="butt"/></g></g></g></svg>