<svg version="1.1" xmlns="http://www.w3.org/2000/svg" xmlns:xlink="http://www.w3.org/1999/xlink" width="434.03603" height="92.68618" viewBox="0,0,434.03603,92.68618"><g transform="translate(-34.64074,-108.85637)"><g data-paper-data="{&quot;isPaintingLayer&quot;:true}" fill-rule="nonzero" stroke="none" stroke-width="0" stroke-linecap="butt" stroke-linejoin="miter" stroke-miterlimit="10" stroke-dasharray="" stroke-dashoffset="0" style="mix-blend-mode: normal"><path d="M386.76862,201.54255v-25.85106h81.14362v25.85106z" data-paper-data="{&quot;index&quot;:null}" fill="#da7600"/><path d="M267.59309,172.79255v24.41489h-81.14362v-24.41489z" data-paper-data="{&quot;index&quot;:null}" fill="#da7600"/><path d="M286.2899,134.70744v-25.85107h81.14362v25.85107z" data-paper-data="{&quot;index&quot;:null}" fill="#da7600"/><path d="M35.70479,147.60638v-25.85107h81.14362v25.85107z" data-paper-data="{&quot;index&quot;:null}" fill="#da7600"/><g><path d="M186.16326,198.5459v-25.31741h82.2165v25.31742z" fill="#d69b00"/><path d="M186.66326,181.05322v-8.02913h81.83032v8.02913l-8.36007,9.76662l-8.24175,-10.82884l-6.19458,10.51544l-10.33975,-10.77122l-8.77182,7.21041l-10.80696,-6.19403l-10.74899,6.96027l-7.13101,-5.44472l-6.5342,6.96668z" fill="#00d624"/></g><g><path d="M286.64074,134.58794v-25.31741h82.2165v25.31742z" fill="#d69b00"/><path d="M287.14074,117.09527v-8.02913h81.83033v8.02913l-8.36007,9.76662l-8.24176,-10.82884l-6.19457,10.51544l-10.33975,-10.77122l-8.77182,7.21041l-10.80696,-6.19403l-10.74899,6.96027l-7.13101,-5.44472l-6.5342,6.96668z" fill="#00d624"/></g><g><path d="M34.64074,147.58794v-25.31741h82.2165v25.31742z" fill="#d69b00"/><path d="M35.14074,130.09527v-8.02913h81.83033v8.02913l-8.36007,9.76662l-8.24175,-10.82884l-6.19458,10.51544l-10.33975,-10.77122l-8.77182,7.21041l-10.80696,-6.19403l-10.74899,6.96027l-7.13101,-5.44472l-6.5342,6.96668z" fill="#00d624"/></g><g><path d="M386.34645,201.53389v-25.31741h82.2165v25.31742z" fill="#d69b00"/><path d="M386.84645,184.04121v-8.02913h81.83033v8.02913l-8.36007,9.76662l-8.24175,-10.82884l-6.19458,10.51544l-10.33975,-10.77122l-8.77182,7.21041l-10.80696,-6.19403l-10.74899,6.96027l-7.13101,-5.44472l-6.5342,6.96668z" fill="#00d624"/></g></g></g></svg>