<svg version="1.1" xmlns="http://www.w3.org/2000/svg" xmlns:xlink="http://www.w3.org/1999/xlink" width="1448.96097" height="1023.49508" viewBox="0,0,1448.96097,1023.49508"><defs><linearGradient x1="784.48199" y1="-468.2515" x2="784.48199" y2="393.2485" gradientUnits="userSpaceOnUse" id="color-1"><stop offset="0" stop-color="#00c1ff"/><stop offset="1" stop-color="#2900ff"/></linearGradient><linearGradient x1="-176.47898" y1="-468.2515" x2="-176.47898" y2="393.2485" gradientUnits="userSpaceOnUse" id="color-2"><stop offset="0" stop-color="#00c1ff"/><stop offset="1" stop-color="#2900ff"/></linearGradient><linearGradient x1="297.5" y1="-471.75" x2="297.5" y2="389.75" gradientUnits="userSpaceOnUse" id="color-3"><stop offset="0" stop-color="#00c1ff"/><stop offset="1" stop-color="#2900ff"/></linearGradient></defs><g transform="translate(420.47898,471.75)"><g data-paper-data="{&quot;isPaintingLayer&quot;:true}" fill-rule="nonzero" stroke-linejoin="miter" stroke-miterlimit="10" stroke-dasharray="" stroke-dashoffset="0" style="mix-blend-mode: normal"><g stroke="none" stroke-width="0" stroke-linecap="butt"><path d="M540.48199,393.2485v-861.5h488v861.5z" fill="url(#color-1)"/><g fill="#ffffff"><path d="M847.48199,-50.31075c0,12.31308 -29.77306,22.2948 -66.5,22.2948c-36.72694,0 -66.5,-9.98172 -66.5,-22.2948c0,-12.31308 29.77306,-22.2948 66.5,-22.2948c36.72694,0 66.5,9.98172 66.5,22.2948z"/><path d="M825.95598,-76.83387c0,10.40243 -19.96344,18.83526 -44.5896,18.83526c-24.62615,0 -44.5896,-8.43283 -44.5896,-18.83526c0,-10.40243 19.96344,-18.83526 44.5896,-18.83526c24.62615,0 44.5896,8.43283 44.5896,18.83526z"/><path d="M719.86349,-77.98705c0,-13.58684 11.01431,-24.60116 24.60116,-24.60116c13.58684,0 24.60116,11.01431 24.60116,24.60116c0,13.58684 -11.01431,24.60116 -24.60116,24.60116c-13.58684,0 -24.60116,-11.01431 -24.60116,-24.60116z"/><path d="M762.14673,-91.05641c0,-15.70979 8.94913,-28.44509 19.98844,-28.44509c11.03931,0 19.98844,12.7353 19.98844,28.44509c0,15.70979 -8.94913,28.44509 -19.98844,28.44509c-11.03931,0 -19.98844,-12.7353 -19.98844,-28.44509z"/><path d="M792.89817,-78.75584c0,-14.01143 11.35851,-25.36994 25.36994,-25.36994c14.01143,0 25.36994,11.35851 25.36994,25.36994c0,14.01143 -11.35851,25.36994 -25.36994,25.36994c-14.01143,0 -25.36994,-11.35851 -25.36994,-25.36994z"/></g><g fill="#ffffff"><path d="M1009.48199,-57.57375c0,11.10954 -26.86292,20.11561 -60,20.11561c-33.13708,0 -60,-9.00606 -60,-20.11561c0,-11.10954 26.86292,-20.11561 60,-20.11561c33.13708,0 60,9.00606 60,20.11561z"/><path d="M990.06002,-81.50439c0,9.38565 -18.01213,16.99422 -40.23121,16.99422c-22.21909,0 -40.23121,-7.60857 -40.23121,-16.99422c0,-9.38565 18.01213,-16.99422 40.23121,-16.99422c22.21909,0 40.23121,7.60857 40.23121,16.99422z"/><path d="M894.33748,-82.54485c0,-12.2588 9.93773,-22.19653 22.19653,-22.19653c12.2588,0 22.19653,9.93773 22.19653,22.19653c0,12.2588 -9.93773,22.19653 -22.19653,22.19653c-12.2588,0 -22.19653,-9.93773 -22.19653,-22.19653z"/><path d="M932.48777,-94.33676c0,-14.17424 8.0744,-25.66474 18.03468,-25.66474c9.96028,0 18.03468,11.4905 18.03468,25.66474c0,14.17424 -8.0744,25.66474 -18.03468,25.66474c-9.96028,0 -18.03468,-11.4905 -18.03468,-25.66474z"/><path d="M960.23344,-83.23849c0,-12.64189 10.24828,-22.89017 22.89017,-22.89017c12.64189,0 22.89017,10.24828 22.89017,22.89017c0,12.64189 -10.24828,22.89017 -22.89017,22.89017c-12.64189,0 -22.89017,-10.24828 -22.89017,-22.89017z"/></g><g fill="#ffffff"><path d="M858.77611,24.3307c0,7.71133 -18.64603,13.9626 -41.64706,13.9626c-23.00103,0 -41.64706,-6.25126 -41.64706,-13.9626c0,-7.71133 18.64603,-13.9626 41.64706,-13.9626c23.00103,0 41.64706,6.25126 41.64706,13.9626z"/><path d="M845.29498,7.72003c0,6.51474 -12.50253,11.79599 -27.92519,11.79599c-15.42266,0 -27.92519,-5.28124 -27.92519,-11.79599c0,-6.51474 12.50253,-11.79599 27.92519,-11.79599c15.42266,0 27.92519,5.28124 27.92519,11.79599z"/><path d="M778.85227,6.99782c0,-8.50905 6.89795,-15.40701 15.40701,-15.40701c8.50905,0 15.40701,6.89795 15.40701,15.40701c0,8.50905 -6.89795,15.40701 -15.40701,15.40701c-8.50905,0 -15.40701,-6.89795 -15.40701,-15.40701z"/><path d="M805.33306,-1.18715c0,-9.83859 5.60459,-17.81435 12.51819,-17.81435c6.91361,0 12.51819,7.97575 12.51819,17.81435c0,9.83859 -5.60459,17.81435 -12.51819,17.81435c-6.91361,0 -12.51819,-7.97575 -12.51819,-17.81435z"/><path d="M824.59182,6.51635c0,-8.77496 7.11351,-15.88847 15.88847,-15.88847c8.77496,0 15.88847,7.11351 15.88847,15.88847c0,8.77496 -7.11351,15.88847 -15.88847,15.88847c-8.77496,0 -15.88847,-7.11351 -15.88847,-15.88847z"/></g><g fill="#ffffff"><path d="M698.48199,-22.81075c0,12.31308 -29.77307,22.2948 -66.5,22.2948c-36.72693,0 -66.5,-9.98172 -66.5,-22.2948c0,-12.31307 29.77307,-22.29479 66.5,-22.29479c36.72693,0 66.5,9.98172 66.5,22.29479z"/><path d="M676.95598,-49.33387c0,10.40242 -19.96344,18.83526 -44.58959,18.83526c-24.62615,0 -44.5896,-8.43283 -44.5896,-18.83526c0,-10.40242 19.96344,-18.83526 44.5896,-18.83526c24.62616,0 44.58959,8.43284 44.58959,18.83526z"/><path d="M570.8635,-50.48705c0,-13.58684 11.01431,-24.60115 24.60115,-24.60115c13.58684,0 24.60116,11.01431 24.60116,24.60115c0,13.58684 -11.01431,24.60116 -24.60116,24.60116c-13.58684,0 -24.60115,-11.01431 -24.60115,-24.60116z"/><path d="M613.14673,-63.55641c0,-15.70979 8.94913,-28.44509 19.98844,-28.44509c11.03931,0 19.98844,12.7353 19.98844,28.44509c0,15.70979 -8.94913,28.44509 -19.98844,28.44509c-11.03931,0 -19.98844,-12.7353 -19.98844,-28.44509z"/><path d="M643.89818,-51.25583c0,-14.01143 11.35851,-25.36994 25.36994,-25.36994c14.01143,0 25.36995,11.35851 25.36995,25.36994c0,14.01143 -11.35852,25.36994 -25.36994,25.36994c-14.01143,0 -25.36994,-11.35851 -25.36994,-25.36994z"/></g><g fill="#ffffff"><path d="M688.92737,92.5828c0,13.09494 -31.66363,23.7105 -70.72269,23.7105c-39.05906,0 -70.72269,-10.61554 -70.72269,-23.7105c0,-13.09494 31.66363,-23.7105 70.72269,-23.7105c39.05906,0 70.72269,10.61554 70.72269,23.7105z"/><path d="M666.03448,64.37549c0,11.06297 -21.2311,20.03128 -47.42099,20.03128c-26.18989,0 -47.42099,-8.96831 -47.42099,-20.03128c0,-11.06297 21.2311,-20.03128 47.42099,-20.03128c26.18989,0 47.42099,8.96831 47.42099,20.03128z"/><path d="M553.20521,63.14908c0,-14.44959 11.71371,-26.16331 26.16331,-26.16331c14.44959,0 26.16331,11.71371 26.16331,26.16331c0,14.44959 -11.71371,26.16331 -26.16331,26.16331c-14.44959,0 -26.16331,-11.71371 -26.16331,-26.16331z"/><path d="M598.1734,49.24982c0,-16.70735 9.51739,-30.25132 21.25769,-30.25132c11.7403,0 21.25769,13.54398 21.25769,30.25132c0,16.70735 -9.51739,30.25132 -21.25769,30.25132c-11.7403,0 -21.25769,-13.54398 -21.25769,-30.25132z"/><path d="M630.87753,62.33148c0,-14.90115 12.07977,-26.98091 26.98091,-26.98091c14.90115,0 26.98091,12.07977 26.98091,26.98091c0,14.90115 -12.07977,26.98091 -26.98091,26.98091c-14.90115,0 -26.98091,-12.07977 -26.98091,-26.98091z"/></g><g fill="#ffffff"><path d="M877.48199,127.29908c0,15.46078 -37.38423,27.99422 -83.5,27.99422c-46.11577,0 -83.5,-12.53343 -83.5,-27.99422c0,-15.46078 37.38423,-27.99422 83.5,-27.99422c46.11577,0 83.5,12.53343 83.5,27.99422z"/><path d="M850.45309,93.99561c0,13.06169 -25.06688,23.65028 -55.98843,23.65028c-30.92156,0 -55.98843,-10.58859 -55.98843,-23.65028c0,-13.06169 25.06688,-23.65028 55.98843,-23.65028c30.92156,0 55.98843,10.58859 55.98843,23.65028z"/><path d="M717.23921,92.54763c0,-17.06017 13.83,-30.89018 30.89018,-30.89018c17.06017,0 30.89018,13.83 30.89018,30.89018c0,17.06017 -13.83,30.89018 -30.89018,30.89018c-17.06017,0 -30.89018,-13.83 -30.89018,-30.89018z"/><path d="M770.33171,76.13723c0,-19.72582 11.23688,-35.71676 25.09827,-35.71676c13.86139,0 25.09827,15.99094 25.09827,35.71676c0,19.72582 -11.23688,35.71676 -25.09827,35.71676c-13.86139,0 -25.09827,-15.99094 -25.09827,-35.71676z"/><path d="M808.94442,91.58232c0,-17.5933 14.26219,-31.85549 31.85549,-31.85549c17.5933,0 31.85549,14.26219 31.85549,31.85549c0,17.5933 -14.26219,31.85549 -31.85549,31.85549c-17.5933,0 -31.85549,-14.26219 -31.85549,-31.85549z"/></g><g fill="#ffffff"><path d="M1004.48199,75.97401c0,11.20702 -22.16191,20.29211 -49.5,20.29211c-27.33809,0 -49.5,-9.08508 -49.5,-20.29211c0,-11.20702 22.16191,-20.29211 49.5,-20.29211c27.33809,0 49.5,9.08508 49.5,20.29211z"/><path d="M988.45887,51.8334c0,9.468 -14.86,17.14333 -33.19075,17.14333c-18.33074,0 -33.19075,-7.67533 -33.19075,-17.14333c0,-9.468 14.86,-17.14333 33.19075,-17.14333c18.33074,0 33.19075,7.67533 33.19075,17.14333z"/><path d="M909.48777,50.7838c0,-12.36637 8.19862,-22.3913 18.31214,-22.3913c10.11351,0 18.31214,10.02492 18.31214,22.3913c0,12.36637 -8.19862,22.3913 -18.31214,22.3913c-10.11351,0 -18.31214,-10.02492 -18.31214,-22.3913z"/><path d="M940.96176,38.88843c0,-14.29862 6.66138,-25.88993 14.87861,-25.88993c8.21723,0 14.87861,11.59132 14.87861,25.88993c0,14.29862 -6.66138,25.88993 -14.87861,25.88993c-8.21723,0 -14.87861,-11.59132 -14.87861,-25.88993z"/><path d="M963.85193,50.08408c0,-12.75282 8.45483,-23.09102 18.88439,-23.09102c10.42956,0 18.88439,10.3382 18.88439,23.09102c0,12.75282 -8.45483,23.09102 -18.88439,23.09102c-10.42956,0 -18.88439,-10.3382 -18.88439,-23.09102z"/></g></g><g stroke="none" stroke-width="0" stroke-linecap="butt"><path d="M-420.47898,393.2485v-861.5h488v861.5z" fill="url(#color-2)"/><g fill="#ffffff"><path d="M-113.47898,-50.31075c0,12.31308 -29.77306,22.2948 -66.5,22.2948c-36.72694,0 -66.5,-9.98172 -66.5,-22.2948c0,-12.31308 29.77306,-22.2948 66.5,-22.2948c36.72694,0 66.5,9.98172 66.5,22.2948z"/><path d="M-135.00499,-76.83387c0,10.40243 -19.96344,18.83526 -44.5896,18.83526c-24.62615,0 -44.5896,-8.43283 -44.5896,-18.83526c0,-10.40243 19.96344,-18.83526 44.5896,-18.83526c24.62615,0 44.5896,8.43283 44.5896,18.83526z"/><path d="M-241.09748,-77.98705c0,-13.58684 11.01431,-24.60116 24.60116,-24.60116c13.58684,0 24.60116,11.01431 24.60116,24.60116c0,13.58684 -11.01431,24.60116 -24.60116,24.60116c-13.58684,0 -24.60116,-11.01431 -24.60116,-24.60116z"/><path d="M-198.81424,-91.05641c0,-15.70979 8.94913,-28.44509 19.98844,-28.44509c11.03931,0 19.98844,12.7353 19.98844,28.44509c0,15.70979 -8.94913,28.44509 -19.98844,28.44509c-11.03931,0 -19.98844,-12.7353 -19.98844,-28.44509z"/><path d="M-168.0628,-78.75584c0,-14.01143 11.35851,-25.36994 25.36994,-25.36994c14.01143,0 25.36994,11.35851 25.36994,25.36994c0,14.01143 -11.35851,25.36994 -25.36994,25.36994c-14.01143,0 -25.36994,-11.35851 -25.36994,-25.36994z"/></g><g fill="#ffffff"><path d="M48.52102,-57.57375c0,11.10954 -26.86292,20.11561 -60,20.11561c-33.13708,0 -60,-9.00606 -60,-20.11561c0,-11.10954 26.86292,-20.11561 60,-20.11561c33.13708,0 60,9.00606 60,20.11561z"/><path d="M29.09905,-81.50439c0,9.38565 -18.01213,16.99422 -40.23121,16.99422c-22.21909,0 -40.23121,-7.60857 -40.23121,-16.99422c0,-9.38565 18.01213,-16.99422 40.23121,-16.99422c22.21909,0 40.23121,7.60857 40.23121,16.99422z"/><path d="M-66.62349,-82.54485c0,-12.2588 9.93773,-22.19653 22.19653,-22.19653c12.2588,0 22.19653,9.93773 22.19653,22.19653c0,12.2588 -9.93773,22.19653 -22.19653,22.19653c-12.2588,0 -22.19653,-9.93773 -22.19653,-22.19653z"/><path d="M-28.4732,-94.33676c0,-14.17424 8.0744,-25.66474 18.03468,-25.66474c9.96028,0 18.03468,11.4905 18.03468,25.66474c0,14.17424 -8.0744,25.66474 -18.03468,25.66474c-9.96028,0 -18.03468,-11.4905 -18.03468,-25.66474z"/><path d="M-0.72753,-83.23849c0,-12.64189 10.24828,-22.89017 22.89017,-22.89017c12.64189,0 22.89017,10.24828 22.89017,22.89017c0,12.64189 -10.24828,22.89017 -22.89017,22.89017c-12.64189,0 -22.89017,-10.24828 -22.89017,-22.89017z"/></g><g fill="#ffffff"><path d="M-102.18486,24.3307c0,7.71133 -18.64603,13.9626 -41.64706,13.9626c-23.00103,0 -41.64706,-6.25126 -41.64706,-13.9626c0,-7.71133 18.64603,-13.9626 41.64706,-13.9626c23.00103,0 41.64706,6.25126 41.64706,13.9626z"/><path d="M-115.66599,7.72003c0,6.51474 -12.50253,11.79599 -27.92519,11.79599c-15.42266,0 -27.92519,-5.28124 -27.92519,-11.79599c0,-6.51474 12.50253,-11.79599 27.92519,-11.79599c15.42266,0 27.92519,5.28124 27.92519,11.79599z"/><path d="M-182.1087,6.99782c0,-8.50905 6.89795,-15.40701 15.40701,-15.40701c8.50905,0 15.40701,6.89795 15.40701,15.40701c0,8.50905 -6.89795,15.40701 -15.40701,15.40701c-8.50905,0 -15.40701,-6.89795 -15.40701,-15.40701z"/><path d="M-155.62791,-1.18715c0,-9.83859 5.60459,-17.81435 12.51819,-17.81435c6.91361,0 12.51819,7.97575 12.51819,17.81435c0,9.83859 -5.60459,17.81435 -12.51819,17.81435c-6.91361,0 -12.51819,-7.97575 -12.51819,-17.81435z"/><path d="M-136.36915,6.51635c0,-8.77496 7.11351,-15.88847 15.88847,-15.88847c8.77496,0 15.88847,7.11351 15.88847,15.88847c0,8.77496 -7.11351,15.88847 -15.88847,15.88847c-8.77496,0 -15.88847,-7.11351 -15.88847,-15.88847z"/></g><g fill="#ffffff"><path d="M-262.47898,-22.81075c0,12.31308 -29.77307,22.2948 -66.5,22.2948c-36.72693,0 -66.5,-9.98172 -66.5,-22.2948c0,-12.31307 29.77307,-22.29479 66.5,-22.29479c36.72693,0 66.5,9.98172 66.5,22.29479z"/><path d="M-284.00499,-49.33387c0,10.40242 -19.96344,18.83526 -44.58959,18.83526c-24.62615,0 -44.5896,-8.43283 -44.5896,-18.83526c0,-10.40242 19.96344,-18.83526 44.5896,-18.83526c24.62616,0 44.58959,8.43284 44.58959,18.83526z"/><path d="M-390.09747,-50.48705c0,-13.58684 11.01431,-24.60115 24.60115,-24.60115c13.58684,0 24.60116,11.01431 24.60116,24.60115c0,13.58684 -11.01431,24.60116 -24.60116,24.60116c-13.58684,0 -24.60115,-11.01431 -24.60115,-24.60116z"/><path d="M-347.81424,-63.55641c0,-15.70979 8.94913,-28.44509 19.98844,-28.44509c11.03931,0 19.98844,12.7353 19.98844,28.44509c0,15.70979 -8.94913,28.44509 -19.98844,28.44509c-11.03931,0 -19.98844,-12.7353 -19.98844,-28.44509z"/><path d="M-317.06279,-51.25583c0,-14.01143 11.35851,-25.36994 25.36994,-25.36994c14.01143,0 25.36995,11.35851 25.36995,25.36994c0,14.01143 -11.35852,25.36994 -25.36994,25.36994c-14.01143,0 -25.36994,-11.35851 -25.36994,-25.36994z"/></g><g fill="#ffffff"><path d="M-272.0336,92.5828c0,13.09494 -31.66363,23.7105 -70.72269,23.7105c-39.05906,0 -70.72269,-10.61554 -70.72269,-23.7105c0,-13.09494 31.66363,-23.7105 70.72269,-23.7105c39.05906,0 70.72269,10.61554 70.72269,23.7105z"/><path d="M-294.92649,64.37549c0,11.06297 -21.2311,20.03128 -47.42099,20.03128c-26.18989,0 -47.42099,-8.96831 -47.42099,-20.03128c0,-11.06297 21.2311,-20.03128 47.42099,-20.03128c26.18989,0 47.42099,8.96831 47.42099,20.03128z"/><path d="M-407.75576,63.14908c0,-14.44959 11.71371,-26.16331 26.16331,-26.16331c14.44959,0 26.16331,11.71371 26.16331,26.16331c0,14.44959 -11.71371,26.16331 -26.16331,26.16331c-14.44959,0 -26.16331,-11.71371 -26.16331,-26.16331z"/><path d="M-362.78757,49.24982c0,-16.70735 9.51739,-30.25132 21.25769,-30.25132c11.7403,0 21.25769,13.54398 21.25769,30.25132c0,16.70735 -9.51739,30.25132 -21.25769,30.25132c-11.7403,0 -21.25769,-13.54398 -21.25769,-30.25132z"/><path d="M-330.08344,62.33148c0,-14.90115 12.07977,-26.98091 26.98091,-26.98091c14.90115,0 26.98091,12.07977 26.98091,26.98091c0,14.90115 -12.07977,26.98091 -26.98091,26.98091c-14.90115,0 -26.98091,-12.07977 -26.98091,-26.98091z"/></g><g fill="#ffffff"><path d="M-83.47898,127.29908c0,15.46078 -37.38423,27.99422 -83.5,27.99422c-46.11577,0 -83.5,-12.53343 -83.5,-27.99422c0,-15.46078 37.38423,-27.99422 83.5,-27.99422c46.11577,0 83.5,12.53343 83.5,27.99422z"/><path d="M-110.50788,93.99561c0,13.06169 -25.06688,23.65028 -55.98843,23.65028c-30.92156,0 -55.98843,-10.58859 -55.98843,-23.65028c0,-13.06169 25.06688,-23.65028 55.98843,-23.65028c30.92156,0 55.98843,10.58859 55.98843,23.65028z"/><path d="M-243.72176,92.54763c0,-17.06017 13.83,-30.89018 30.89018,-30.89018c17.06017,0 30.89018,13.83 30.89018,30.89018c0,17.06017 -13.83,30.89018 -30.89018,30.89018c-17.06017,0 -30.89018,-13.83 -30.89018,-30.89018z"/><path d="M-190.62926,76.13723c0,-19.72582 11.23688,-35.71676 25.09827,-35.71676c13.86139,0 25.09827,15.99094 25.09827,35.71676c0,19.72582 -11.23688,35.71676 -25.09827,35.71676c-13.86139,0 -25.09827,-15.99094 -25.09827,-35.71676z"/><path d="M-152.01655,91.58232c0,-17.5933 14.26219,-31.85549 31.85549,-31.85549c17.5933,0 31.85549,14.26219 31.85549,31.85549c0,17.5933 -14.26219,31.85549 -31.85549,31.85549c-17.5933,0 -31.85549,-14.26219 -31.85549,-31.85549z"/></g><g fill="#ffffff"><path d="M43.52102,75.97401c0,11.20702 -22.16191,20.29211 -49.5,20.29211c-27.33809,0 -49.5,-9.08508 -49.5,-20.29211c0,-11.20702 22.16191,-20.29211 49.5,-20.29211c27.33809,0 49.5,9.08508 49.5,20.29211z"/><path d="M27.4979,51.8334c0,9.468 -14.86,17.14333 -33.19075,17.14333c-18.33074,0 -33.19075,-7.67533 -33.19075,-17.14333c0,-9.468 14.86,-17.14333 33.19075,-17.14333c18.33074,0 33.19075,7.67533 33.19075,17.14333z"/><path d="M-51.4732,50.7838c0,-12.36637 8.19862,-22.3913 18.31214,-22.3913c10.11351,0 18.31214,10.02492 18.31214,22.3913c0,12.36637 -8.19862,22.3913 -18.31214,22.3913c-10.11351,0 -18.31214,-10.02492 -18.31214,-22.3913z"/><path d="M-19.99921,38.88843c0,-14.29862 6.66138,-25.88993 14.87861,-25.88993c8.21723,0 14.87861,11.59132 14.87861,25.88993c0,14.29862 -6.66138,25.88993 -14.87861,25.88993c-8.21723,0 -14.87861,-11.59132 -14.87861,-25.88993z"/><path d="M2.89096,50.08408c0,-12.75282 8.45483,-23.09102 18.88439,-23.09102c10.42956,0 18.88439,10.3382 18.88439,23.09102c0,12.75282 -8.45483,23.09102 -18.88439,23.09102c-10.42956,0 -18.88439,-10.3382 -18.88439,-23.09102z"/></g></g><g stroke="none" stroke-width="0" stroke-linecap="butt"><path d="M53.5,389.75v-861.5h488v861.5z" fill="url(#color-3)"/><g fill="#ffffff"><path d="M360.5,-53.80925c0,12.31308 -29.77306,22.2948 -66.5,22.2948c-36.72694,0 -66.5,-9.98172 -66.5,-22.2948c0,-12.31308 29.77306,-22.2948 66.5,-22.2948c36.72694,0 66.5,9.98172 66.5,22.2948z"/><path d="M338.97399,-80.33237c0,10.40243 -19.96344,18.83526 -44.5896,18.83526c-24.62615,0 -44.5896,-8.43283 -44.5896,-18.83526c0,-10.40243 19.96344,-18.83526 44.5896,-18.83526c24.62615,0 44.5896,8.43283 44.5896,18.83526z"/><path d="M232.8815,-81.48555c0,-13.58684 11.01431,-24.60116 24.60116,-24.60116c13.58684,0 24.60116,11.01431 24.60116,24.60116c0,13.58684 -11.01431,24.60116 -24.60116,24.60116c-13.58684,0 -24.60116,-11.01431 -24.60116,-24.60116z"/><path d="M275.16474,-94.55491c0,-15.70979 8.94913,-28.44509 19.98844,-28.44509c11.03931,0 19.98844,12.7353 19.98844,28.44509c0,15.70979 -8.94913,28.44509 -19.98844,28.44509c-11.03931,0 -19.98844,-12.7353 -19.98844,-28.44509z"/><path d="M305.91618,-82.25434c0,-14.01143 11.35851,-25.36994 25.36994,-25.36994c14.01143,0 25.36994,11.35851 25.36994,25.36994c0,14.01143 -11.35851,25.36994 -25.36994,25.36994c-14.01143,0 -25.36994,-11.35851 -25.36994,-25.36994z"/></g><g fill="#ffffff"><path d="M522.5,-61.07225c0,11.10954 -26.86292,20.11561 -60,20.11561c-33.13708,0 -60,-9.00606 -60,-20.11561c0,-11.10954 26.86292,-20.11561 60,-20.11561c33.13708,0 60,9.00606 60,20.11561z"/><path d="M503.07803,-85.00289c0,9.38565 -18.01213,16.99422 -40.23121,16.99422c-22.21909,0 -40.23121,-7.60857 -40.23121,-16.99422c0,-9.38565 18.01213,-16.99422 40.23121,-16.99422c22.21909,0 40.23121,7.60857 40.23121,16.99422z"/><path d="M407.35549,-86.04335c0,-12.2588 9.93773,-22.19653 22.19653,-22.19653c12.2588,0 22.19653,9.93773 22.19653,22.19653c0,12.2588 -9.93773,22.19653 -22.19653,22.19653c-12.2588,0 -22.19653,-9.93773 -22.19653,-22.19653z"/><path d="M445.50578,-97.83526c0,-14.17424 8.0744,-25.66474 18.03468,-25.66474c9.96028,0 18.03468,11.4905 18.03468,25.66474c0,14.17424 -8.0744,25.66474 -18.03468,25.66474c-9.96028,0 -18.03468,-11.4905 -18.03468,-25.66474z"/><path d="M473.25145,-86.73699c0,-12.64189 10.24828,-22.89017 22.89017,-22.89017c12.64189,0 22.89017,10.24828 22.89017,22.89017c0,12.64189 -10.24828,22.89017 -22.89017,22.89017c-12.64189,0 -22.89017,-10.24828 -22.89017,-22.89017z"/></g><g fill="#ffffff"><path d="M371.79412,20.8322c0,7.71133 -18.64603,13.9626 -41.64706,13.9626c-23.00103,0 -41.64706,-6.25126 -41.64706,-13.9626c0,-7.71133 18.64603,-13.9626 41.64706,-13.9626c23.00103,0 41.64706,6.25126 41.64706,13.9626z"/><path d="M358.31299,4.22153c0,6.51474 -12.50253,11.79599 -27.92519,11.79599c-15.42266,0 -27.92519,-5.28124 -27.92519,-11.79599c0,-6.51474 12.50253,-11.79599 27.92519,-11.79599c15.42266,0 27.92519,5.28124 27.92519,11.79599z"/><path d="M291.87028,3.49932c0,-8.50905 6.89795,-15.40701 15.40701,-15.40701c8.50905,0 15.40701,6.89795 15.40701,15.40701c0,8.50905 -6.89795,15.40701 -15.40701,15.40701c-8.50905,0 -15.40701,-6.89795 -15.40701,-15.40701z"/><path d="M318.35107,-4.68565c0,-9.83859 5.60459,-17.81435 12.51819,-17.81435c6.91361,0 12.51819,7.97575 12.51819,17.81435c0,9.83859 -5.60459,17.81435 -12.51819,17.81435c-6.91361,0 -12.51819,-7.97575 -12.51819,-17.81435z"/><path d="M337.60983,3.01785c0,-8.77496 7.11351,-15.88847 15.88847,-15.88847c8.77496,0 15.88847,7.11351 15.88847,15.88847c0,8.77496 -7.11351,15.88847 -15.88847,15.88847c-8.77496,0 -15.88847,-7.11351 -15.88847,-15.88847z"/></g><g fill="#ffffff"><path d="M211.5,-26.30925c0,12.31308 -29.77307,22.2948 -66.5,22.2948c-36.72693,0 -66.5,-9.98172 -66.5,-22.2948c0,-12.31307 29.77307,-22.29479 66.5,-22.29479c36.72693,0 66.5,9.98172 66.5,22.29479z"/><path d="M189.97399,-52.83237c0,10.40242 -19.96344,18.83526 -44.58959,18.83526c-24.62615,0 -44.5896,-8.43283 -44.5896,-18.83526c0,-10.40242 19.96344,-18.83526 44.5896,-18.83526c24.62616,0 44.58959,8.43284 44.58959,18.83526z"/><path d="M83.88151,-53.98555c0,-13.58684 11.01431,-24.60115 24.60115,-24.60115c13.58684,0 24.60116,11.01431 24.60116,24.60115c0,13.58684 -11.01431,24.60116 -24.60116,24.60116c-13.58684,0 -24.60115,-11.01431 -24.60115,-24.60116z"/><path d="M126.16474,-67.05491c0,-15.70979 8.94913,-28.44509 19.98844,-28.44509c11.03931,0 19.98844,12.7353 19.98844,28.44509c0,15.70979 -8.94913,28.44509 -19.98844,28.44509c-11.03931,0 -19.98844,-12.7353 -19.98844,-28.44509z"/><path d="M156.91619,-54.75433c0,-14.01143 11.35851,-25.36994 25.36994,-25.36994c14.01143,0 25.36995,11.35851 25.36995,25.36994c0,14.01143 -11.35852,25.36994 -25.36994,25.36994c-14.01143,0 -25.36994,-11.35851 -25.36994,-25.36994z"/></g><g fill="#ffffff"><path d="M201.94538,89.0843c0,13.09494 -31.66363,23.7105 -70.72269,23.7105c-39.05906,0 -70.72269,-10.61554 -70.72269,-23.7105c0,-13.09494 31.66363,-23.7105 70.72269,-23.7105c39.05906,0 70.72269,10.61554 70.72269,23.7105z"/><path d="M179.05249,60.87699c0,11.06297 -21.2311,20.03128 -47.42099,20.03128c-26.18989,0 -47.42099,-8.96831 -47.42099,-20.03128c0,-11.06297 21.2311,-20.03128 47.42099,-20.03128c26.18989,0 47.42099,8.96831 47.42099,20.03128z"/><path d="M66.22322,59.65058c0,-14.44959 11.71371,-26.16331 26.16331,-26.16331c14.44959,0 26.16331,11.71371 26.16331,26.16331c0,14.44959 -11.71371,26.16331 -26.16331,26.16331c-14.44959,0 -26.16331,-11.71371 -26.16331,-26.16331z"/><path d="M111.19141,45.75132c0,-16.70735 9.51739,-30.25132 21.25769,-30.25132c11.7403,0 21.25769,13.54398 21.25769,30.25132c0,16.70735 -9.51739,30.25132 -21.25769,30.25132c-11.7403,0 -21.25769,-13.54398 -21.25769,-30.25132z"/><path d="M143.89554,58.83298c0,-14.90115 12.07977,-26.98091 26.98091,-26.98091c14.90115,0 26.98091,12.07977 26.98091,26.98091c0,14.90115 -12.07977,26.98091 -26.98091,26.98091c-14.90115,0 -26.98091,-12.07977 -26.98091,-26.98091z"/></g><g fill="#ffffff"><path d="M390.5,123.80058c0,15.46078 -37.38423,27.99422 -83.5,27.99422c-46.11577,0 -83.5,-12.53343 -83.5,-27.99422c0,-15.46078 37.38423,-27.99422 83.5,-27.99422c46.11577,0 83.5,12.53343 83.5,27.99422z"/><path d="M363.4711,90.49711c0,13.06169 -25.06688,23.65028 -55.98843,23.65028c-30.92156,0 -55.98843,-10.58859 -55.98843,-23.65028c0,-13.06169 25.06688,-23.65028 55.98843,-23.65028c30.92156,0 55.98843,10.58859 55.98843,23.65028z"/><path d="M230.25722,89.04913c0,-17.06017 13.83,-30.89018 30.89018,-30.89018c17.06017,0 30.89018,13.83 30.89018,30.89018c0,17.06017 -13.83,30.89018 -30.89018,30.89018c-17.06017,0 -30.89018,-13.83 -30.89018,-30.89018z"/><path d="M283.34972,72.63873c0,-19.72582 11.23688,-35.71676 25.09827,-35.71676c13.86139,0 25.09827,15.99094 25.09827,35.71676c0,19.72582 -11.23688,35.71676 -25.09827,35.71676c-13.86139,0 -25.09827,-15.99094 -25.09827,-35.71676z"/><path d="M321.96243,88.08382c0,-17.5933 14.26219,-31.85549 31.85549,-31.85549c17.5933,0 31.85549,14.26219 31.85549,31.85549c0,17.5933 -14.26219,31.85549 -31.85549,31.85549c-17.5933,0 -31.85549,-14.26219 -31.85549,-31.85549z"/></g><g fill="#ffffff"><path d="M517.5,72.47551c0,11.20702 -22.16191,20.29211 -49.5,20.29211c-27.33809,0 -49.5,-9.08508 -49.5,-20.29211c0,-11.20702 22.16191,-20.29211 49.5,-20.29211c27.33809,0 49.5,9.08508 49.5,20.29211z"/><path d="M501.47688,48.3349c0,9.468 -14.86,17.14333 -33.19075,17.14333c-18.33074,0 -33.19075,-7.67533 -33.19075,-17.14333c0,-9.468 14.86,-17.14333 33.19075,-17.14333c18.33074,0 33.19075,7.67533 33.19075,17.14333z"/><path d="M422.50578,47.2853c0,-12.36637 8.19862,-22.3913 18.31214,-22.3913c10.11351,0 18.31214,10.02492 18.31214,22.3913c0,12.36637 -8.19862,22.3913 -18.31214,22.3913c-10.11351,0 -18.31214,-10.02492 -18.31214,-22.3913z"/><path d="M453.97977,35.38993c0,-14.29862 6.66138,-25.88993 14.87861,-25.88993c8.21723,0 14.87861,11.59132 14.87861,25.88993c0,14.29862 -6.66138,25.88993 -14.87861,25.88993c-8.21723,0 -14.87861,-11.59132 -14.87861,-25.88993z"/><path d="M476.86994,46.58558c0,-12.75282 8.45483,-23.09102 18.88439,-23.09102c10.42956,0 18.88439,10.3382 18.88439,23.09102c0,12.75282 -8.45483,23.09102 -18.88439,23.09102c-10.42956,0 -18.88439,-10.3382 -18.88439,-23.09102z"/></g></g><g stroke="none" stroke-width="0" stroke-linecap="butt"><path d="M-23.04445,442.75366l-23.39268,-113.76586l722.11884,-148.48298l23.39268,113.76588z" fill="#d69b00"/><path d="M-43.4329,343.59831l-6.39621,-31.10673l722.13504,-148.48631l6.39621,31.10673l-65.99546,53.00809l-81.35821,-26.99833l-46.28893,51.97978l-99.8267,-22.96813l-71.66536,43.85183l-100.30346,-4.38722l-89.31275,46.47047l-67.26701,-8.15447l-52.11308,38.8473z" fill="#00d624"/></g><text transform="translate(67.5,318.5) scale(0.5,0.5)" font-size="40" xml:space="preserve" fill="#000000" fill-rule="nonzero" stroke="none" stroke-width="1" stroke-linecap="butt" stroke-linejoin="miter" stroke-miterlimit="10" stroke-dasharray="" stroke-dashoffset="0" font-family="Marker" font-weight="normal" text-anchor="start" style="mix-blend-mode: normal"><tspan x="0" dy="0">Created By</tspan></text><path d="M186.05104,551.74508l-44.64642,-146.34103l449.54435,-137.14912l44.64642,146.34103z" fill="#d69b00" stroke="none" stroke-width="0" stroke-linecap="butt"/><g stroke="none" stroke-width="1" stroke-linecap="butt" font-family="Marker" font-weight="normal" font-size="40" text-anchor="start"><g><text transform="translate(206.01745,335.89835) scale(1.6137,1.6137)" font-size="40" xml:space="preserve" fill="#000000" fill-rule="nonzero" stroke="none" stroke-width="1" stroke-linecap="butt" stroke-linejoin="miter" stroke-miterlimit="10" stroke-dasharray="" stroke-dashoffset="0" font-family="Marker" font-weight="normal" text-anchor="start" style="mix-blend-mode: normal"><tspan x="0" dy="0">VS</tspan></text><text transform="translate(214.67036,328.18421) scale(1.6137,1.6137)" font-size="40" xml:space="preserve" fill="#ff0000" fill-rule="nonzero" stroke="none" stroke-width="1" stroke-linecap="butt" stroke-linejoin="miter" stroke-miterlimit="10" stroke-dasharray="" stroke-dashoffset="0" font-family="Marker" font-weight="normal" text-anchor="start" style="mix-blend-mode: normal"><tspan x="0" dy="0">VS</tspan></text></g><g><text transform="translate(243.54414,269.32369) scale(0.87503,0.87503)" font-size="40" xml:space="preserve" fill="#000000" fill-rule="nonzero" stroke="none" stroke-width="1" stroke-linecap="butt" stroke-linejoin="miter" stroke-miterlimit="10" stroke-dasharray="" stroke-dashoffset="0" font-family="Marker" font-weight="normal" text-anchor="start" style="mix-blend-mode: normal"><tspan x="0" dy="0">Aibo Recognition</tspan></text><text transform="translate(247.98669,266.23841) scale(0.87503,0.87503)" font-size="40" xml:space="preserve" fill="#0400ff" fill-rule="nonzero" stroke="none" stroke-width="1" stroke-linecap="butt" stroke-linejoin="miter" stroke-miterlimit="10" stroke-dasharray="" stroke-dashoffset="0" font-family="Marker" font-weight="normal" text-anchor="start" style="mix-blend-mode: normal"><tspan x="0" dy="0">Aibo Recognition</tspan></text></g><g><text transform="translate(306.63501,328.73527) scale(1.52368,1.52368)" font-size="40" xml:space="preserve" fill="#000000" fill-rule="nonzero" stroke="none" stroke-width="1" stroke-linecap="butt" stroke-linejoin="miter" stroke-miterlimit="10" stroke-dasharray="" stroke-dashoffset="0" font-family="Marker" font-weight="normal" text-anchor="start" style="mix-blend-mode: normal"><tspan x="0" dy="0">Melney</tspan></text><text transform="translate(314.37076,323.36291) scale(1.52368,1.52368)" font-size="40" xml:space="preserve" fill="#9200ff" fill-rule="nonzero" stroke="none" stroke-width="1" stroke-linecap="butt" stroke-linejoin="miter" stroke-miterlimit="10" stroke-dasharray="" stroke-dashoffset="0" font-family="Marker" font-weight="normal" text-anchor="start" style="mix-blend-mode: normal"><tspan x="0" dy="0">Melney</tspan></text></g></g><g stroke-width="3"><g data-paper-data="{&quot;index&quot;:null}" fill="#949494" stroke="#000000"><path d="M123.91875,236.51441c0,0 -13.69457,-14.90295 -11.47542,-25.64468c0.7977,-3.86127 0.39397,-4.04733 1.59447,-10.47875c0.43241,-2.31657 1.06081,-4.73443 1.62723,-7.52605c1.51892,-7.48598 3.10044,-15.54152 3.10044,-15.54152c0,0 19.2289,-1.35623 25.71566,-2.91233c0.62632,-0.15025 31.18689,-6.75993 31.8181,-6.91563c15.44858,-3.81082 10.34844,-2.8378 10.34844,-2.8378c0,0 6.0825,-6.41139 8.53107,-6.52597c4.70198,-0.22003 7.86149,-5.94378 12.23824,1.61814c2.05715,3.55424 1.90262,4.04061 3.67171,9.16843c2.58247,7.48548 5.73567,19.10505 5.00213,27.49232c-0.98723,11.28796 -6.53864,18.47587 -6.53864,18.47587z" stroke-linecap="butt"/><path d="M157.06513,227.11538c0,0 10.08161,-16.08368 6.33688,-29.46471c-2.00443,-6.06166 -11.91714,-17.0537 -11.91714,-17.0537l-7.5402,-5.78982l6.26751,5.00961c0,0 5.74567,-2.09534 8.89432,-3.24359c3.56504,-1.30011 11.40229,-4.15821 11.40229,-4.15821l-0.9167,-2.31297" stroke-linecap="round"/><path d="M189.33992,175.49621c0,0 4.6683,-0.33867 9.07342,1.10356c5.36893,1.75778 10.76556,5.70932 12.1086,10.46158c1.33215,4.71376 1.81888,11.87789 -1.16912,17.05642c-3.68704,6.39007 -11.37743,10.3935 -13.82831,10.69028c-6.64617,0.8048 -14.77739,-9.63601 -15.86179,-12.35282c-2.98687,-7.48316 -1.84602,-18.10818 -0.91877,-20.26907c1.72889,-4.02905 10.59597,-6.68995 10.59597,-6.68995" stroke-linecap="round"/><path d="M121.66058,211.63293c-1.69725,-7.07516 1.8447,-12.15358 7.1366,-16.02592c1.63359,-1.1954 5.32017,-3.60696 7.39284,-4.10416c8.78683,-2.10786 16.17785,3.33348 18.39904,12.59274c2.22119,9.25926 -3.79946,20.08895 -12.5863,22.19682c-8.78684,2.10787 -18.12101,-5.40024 -20.34219,-14.65949z" stroke-linecap="butt"/></g><g data-paper-data="{&quot;index&quot;:null}" stroke="#000000" stroke-linecap="round"><path d="M84.33206,178.04316c0,0 14.01791,-3.91484 22.50687,-2.58069c3.65113,0.57382 7.92913,2.20072 9.44875,3.90299c1.76437,1.97645 0.43431,4.03078 -0.09088,4.28265c-3.54249,1.69887 -11.28496,1.95264 -14.54551,1.43681c-5.71528,-0.90416 -17.66139,-6.95969 -17.66139,-6.95969" fill="#d8d8d8"/><path d="M109.8697,175.8972l-0.34309,9.1283" fill="none"/></g><g data-paper-data="{&quot;index&quot;:null}"><g><path d="M108.03264,203.15315l9.0444,1.93907l0.06353,10.30821l-9.0444,-1.93907z" data-paper-data="{&quot;index&quot;:null}" fill="#000000" stroke="none" stroke-linecap="butt"/><path d="M102.33442,228.92471l-7.54579,-0.40705l-6.96146,0.96414l-6.16518,-5.36224l1.81213,6.98418l-0.88093,5.21719l-0.05092,3.52272l-1.57535,4.49815l-4.64075,-6.33765l-7.57059,-19.58694l0.05092,-3.52272l0.71162,-7.43559l12.30555,-8.45542l16.09913,7.73136z" fill="#949494" stroke="#000000" stroke-linecap="round"/><path d="M98.94756,205.49741l5.40329,-4.62069l4.69169,2.81493l2.92155,6.85599l-2.1514,9.52023l-4.4549,8.66737l-3.02339,0.18945z" fill="#242424" stroke="#000000" stroke-linecap="round"/><path d="M109.94828,217.65437l-3.15898,2.60297l-6.88507,-4.31993" fill="none" stroke="#000000" stroke-linecap="round"/></g><g stroke="none" stroke-linecap="butt"><path d="M73.29141,206.18234l6.96158,-5.78887l17.6119,9.54922l2.65645,16.32519l-12.05095,1.42585l-8.61124,-6.73226z" fill="#8c6200"/><path d="M91.95291,202.99132l6.76135,7.89859l2.22906,15.88417l-4.75154,-0.30713z" fill="#8c0081"/><path d="M76.28149,236.67727l-7.58595,-22.71033l6.29769,-6.78466l5.96528,14.11732l0.78971,7.01211l1.88682,7.10832l-0.54027,2.58663l-2.04134,4.48124z" fill="#8c0081"/><g fill="#ffffff"><path d="M93.93731,216.56193c0.00065,0.00048 0.0013,0.00095 0.00194,0.00144c0.39116,0.28344 0.24715,0.78096 0.24715,0.78096c-0.72333,2.41601 -2.52778,2.31167 -3.75931,0.46216c0.18549,-0.05283 0.18636,-0.35142 0.18636,-0.35142c0.00599,-2.02505 0.04017,-4.03715 -0.04107,-6.07483c0.56108,-0.46977 1.16974,-0.66655 1.63725,-0.28513c0.65854,0.53732 1.13274,1.71901 1.44791,2.57663c0.34915,1.14685 0.3436,1.90865 0.27977,2.89023zM92.24143,213.52469c-0.0007,0.23378 0.13872,0.45566 0.31139,0.49559c0.17267,0.03991 0.31321,-0.11729 0.31389,-0.35106c0.00069,-0.2338 -0.13872,-0.45566 -0.31139,-0.49559c-0.17265,-0.03992 -0.31318,0.11726 -0.31389,0.35106zM92.28333,216.99383c-0.00069,0.2338 0.13874,0.45564 0.31139,0.49557c0.17267,0.03994 0.31319,-0.11727 0.31389,-0.35104c0.00069,-0.2338 -0.13873,-0.45569 -0.31139,-0.49559c-0.17265,-0.03992 -0.31318,0.11726 -0.31389,0.35106z"/><path d="M90.58288,220.06231c-0.0023,0.78387 -0.58122,0.65006 -0.58122,0.65006l0.11439,-0.05637c-0.28831,0.12323 -0.60736,0.1337 -0.93515,0.07359l0.01019,0.03962l-0.01816,0.00501l0.0165,0.23673l-0.71615,-0.06853c-0.02146,-0.00169 -0.04328,-0.00507 -0.06537,-0.01017c-0.31972,-0.07389 -0.57789,-0.48472 -0.5766,-0.91765c0.00069,-0.23557 0.07808,-0.42914 0.19998,-0.54474c-0.00662,-0.01224 -0.01006,-0.01925 -0.01006,-0.01925c-0.5382,-1.10812 -1.00945,-2.24328 -1.49848,-3.36859c-0.22265,0.45351 -0.45341,0.90074 -0.6947,1.34062c-0.66486,1.212 -0.97081,2.92088 -2.07042,3.37856c0.07541,-0.03086 0.26312,-0.10768 0.3427,-0.14022l0.07459,0.27735l0.07012,-0.05143l0.35591,0.76117c0.06987,0.14598 0.11086,0.31564 0.11037,0.48886c-0.00128,0.43291 -0.2615,0.72395 -0.58124,0.65003c-0.05295,-0.01224 -0.10424,-0.03372 -0.1529,-0.06301l-0.56574,-0.32257l0.02544,-0.12986c-0.49772,-0.21884 -0.82704,-0.60819 -1.2893,-1.48731c-0.15625,-0.12459 -0.32771,-0.3587 -0.32646,-0.78603c0.0023,-0.78387 0.58122,-0.65006 0.58122,-0.65006l0.53457,0.43731c0.03881,0.08264 0.0802,0.15887 0.12284,0.23007c0.44226,-0.92714 1.08963,-2.19575 1.1997,-2.42448c0.51206,-1.06413 1.01474,-2.11965 1.50705,-3.18239c-0.1713,-0.35899 -0.34893,-0.71504 -0.53577,-1.06685c-0.36123,-0.68018 -0.77427,-1.2914 -1.17493,-1.91896c-0.21567,0.40228 -0.50826,0.76907 -0.95587,1.12087l-0.48671,0.54438c-0.10515,0.11765 -0.25015,0.1719 -0.41001,0.13496c-0.31974,-0.07391 -0.5779,-0.48475 -0.5766,-0.91765c0.0003,-0.09795 0.01384,-0.18858 0.03831,-0.2694l0.38517,-1.37312l0.04335,0.03078c0.17776,-1.25087 0.51057,-2.16024 1.32946,-3.4442l0.19931,-0.23403c0,0 0.41097,-0.45964 0.8187,0.18923c0.0397,0.0632 0.07166,0.1246 0.09698,0.18397c0.04697,0.02231 0.09691,0.05368 0.14987,0.09588c0.53346,0.42501 0.30868,1.0971 0.30868,1.0971c-0.18092,0.53449 -0.30664,1.01223 -0.42896,1.44673c0.5073,0.85672 1.08273,1.62749 1.56137,2.52607c0.0879,0.16498 0.17375,0.3311 0.25789,0.49819c0.43292,-0.95992 0.85724,-1.93104 1.27217,-2.92485c-0.40151,-0.56146 -0.67898,-1.16821 -0.56181,-1.70168c0.54402,-2.47695 2.82267,1.30945 3.1888,2.09125l0.149,0.53646c0,0 0.18088,0.78596 -0.36907,0.90689c-0.03169,0.00698 -0.06215,0.01092 -0.09143,0.0122c0.04381,1.65633 0.02205,3.29889 0.01513,4.94876c-0.059,-0.12699 -0.11557,-0.25905 -0.16943,-0.39609c-0.0829,-0.21095 -0.79234,-1.99054 -0.80979,-2.21498c-0.05184,-0.66619 0.34808,-1.60039 0.91264,-2.33823c-0.03769,-0.00248 -0.07325,-0.00954 -0.10675,-0.02034c-0.25738,0.14859 -0.55431,-0.12163 -0.55431,-0.12163c-0.15231,-0.13917 -0.38043,-0.34455 -0.63277,-0.59347c-0.47803,1.17773 -0.95411,2.34171 -1.46386,3.47535c0.59325,1.33811 1.14107,2.70194 1.78504,4.01195c0,0 0.03668,0.07509 0.07007,0.18892c0.26481,-0.23394 0.55411,-0.42472 0.8518,-0.58309c0,0 0.50718,-0.26372 0.7863,0.4865c0.18888,0.50769 0.01767,0.79257 -0.11278,0.92371c0.02365,0.09281 0.03754,0.19954 0.03716,0.32219z"/></g></g></g><path d="M143.01156,227.4709l-25.91037,-3.22002l-2.11731,-21.78826l0.84712,-2.74224l22.99757,-1.96426l10.26557,3.59454l4.32161,9.39173l-0.96247,10.13016l-3.19819,4.50764z" data-paper-data="{&quot;index&quot;:null}" fill="#949494" stroke="#000000" stroke-linecap="round"/><g><g stroke="#000000"><path d="M193.54779,155.86675c0,0 0.02314,-2.27741 -0.90286,-3.76365c-0.82824,-1.32933 -4.3926,-4.7357 -4.3926,-4.7357c0,0 -8.1183,-3.17732 -8.80926,-8.11864c-0.07844,-0.56092 -0.85523,-12.99985 4.43863,-21.41281c3.78382,-6.01322 13.74811,-8.93848 15.17684,-8.7246c1.10439,0.16533 7.59348,-0.71406 14.08632,0.49004c9.15024,1.69691 18.14906,5.42402 18.14906,5.42402l1.8148,20.30865l-30.13009,7.05329l3.57087,10.36042z" fill="#949494" stroke-linecap="butt"/><path d="M232.66458,125.8582l-19.72111,0.75063l-5.9392,-3.64101l-8.23738,-13.22121l17.31222,1.27458l14.38319,4.14827z" fill="#000000" stroke-linecap="round"/><path d="M208.60526,125.11664l-2.39505,0.57454" fill="none" stroke-linecap="round"/><path d="M205.6624,129.44103l3.50358,-0.47862" fill="none" stroke-linecap="round"/><path d="M205.45671,133.10877l2.13498,-0.15031" fill="none" stroke-linecap="round"/><path d="M230.72602,135.90091c0,0 -18.1307,3.74614 -27.19502,6.77864c-2.2302,0.74612 0.37804,2.92453 -1.03821,3.28088c-12.54814,3.15732 -14.55836,0.52045 -16.06434,-0.62858c-3.74045,-2.85386 -8.03542,-6.83564 -8.08309,-7.71384c-0.0613,-1.12925 1.82359,-4.26647 1.82359,-4.26647l6.18325,0.85521l8.52607,0.84941l8.62199,-0.25912l14.45238,-3.10512l13.11051,3.36805" fill="#373737" stroke-linecap="round"/><path d="M228.21304,146.49192l-1.53836,3.46331l-18.28371,-0.68606l-3.84132,-0.84834l-1.27449,-3.56887l0.80876,-2.78649l1.8372,-2.04369l2.08327,0.78237l1.67889,2.17563l1.34046,1.81082z" fill="#000000" stroke-linecap="round"/><path d="M198.87188,152.41854l-0.5607,-3.84573" fill="none" stroke-linecap="round"/><path d="M192.33047,149.28383l12.56363,-1.92835" fill="none" stroke-linecap="round"/><path d="M189.30931,117.08117l-0.97205,3.48975l1.423,2.9152l-5.78887,-1.50603l-1.21733,-6.58293l3.47686,-6.6235l2.70953,2.24473l1.49125,4.70803z" fill="#151515" stroke-linecap="round"/><path d="M191.60867,122.14107l-4.62595,1.83339l-3.54414,-4.21556l0.87612,-2.38121l2.68279,-3.90014l2.65512,-0.99878l2.03906,0.9582l2.12114,1.30036l1.58716,3.5995z" fill="none" stroke-linecap="round"/></g><path d="M223.05157,114.77801l-13.6331,-2.81469" fill="none" stroke="#54ff00" stroke-linecap="round"/><path d="M214.609,118.51022c-0.28822,-0.19582 -0.6083,-0.57173 -0.42507,-1.23241c0.30722,-1.10773 1.41495,-0.80051 1.41495,-0.80051c1.48494,0.41218 2.94334,0.91468 4.41674,1.36638c0.47193,0.14468 3.46394,0.80008 3.73185,1.29082c2.30896,4.22933 -11.96781,8.84041 -9.58687,-0.27402z" data-paper-data="{&quot;index&quot;:null}" fill="#54ff00" stroke="none" stroke-linecap="butt"/></g><g data-paper-data="{&quot;index&quot;:null}"><g><path d="M225.51296,175.42022l-6.5815,7.60804l-5.04493,-8.91722l6.5815,-7.60804z" fill="#000000" stroke="none" stroke-linecap="butt"/><path d="M250.32999,125.29662c0,0 1.84768,-0.34347 2.23247,1.91752c1.00829,5.92465 4.04056,34.94256 4.04056,34.94256l-18.71695,23.86507c0,0 -5.10056,-15.1074 -7.51132,-20.93356c-0.93526,-2.26027 10.75383,-18.77723 10.48449,-20.50958c-0.27996,-1.80066 4.6318,3.12805 5.80198,2.85594c1.32123,-0.30722 -1.06764,-5.74795 -1.21146,-6.92593c-0.4052,-3.31898 -0.44452,-9.45009 -0.44452,-9.45009z" fill="#949494" stroke="#000000" stroke-linecap="butt"/><path d="M236.92901,189.80062l-14.15173,-11.35439l-1.64172,-6.34134l0.57984,-5.47478l3.07312,-3.65957l4.97298,0.0704z" fill="#242424" stroke="#000000" stroke-linecap="butt"/><path d="M232.97895,174.87263l-0.89339,4.30027l-2.96502,1.85423" fill="none" stroke="#000000" stroke-linecap="round"/><path d="M245.75133,147.33554l8.92523,3.39821" fill="none" stroke="#000000" stroke-linecap="round"/></g><g stroke="none" stroke-linecap="butt"><path d="M255.20631,159.03934l-16.12948,24.05762l-9.14859,-19.41755l4.07536,-3.394l8.04305,-12.24813z" fill="#8c6200"/><path d="M242.86063,177.2159l-4.12433,5.39164l-8.25937,-19.09446l4.35882,-3.47079z" fill="#8c0081"/><path d="M255.63612,159.88121l-16.13732,-6.84186l2.34963,-5.21053l6.26694,-1.0158l-1.23494,-6.7007l0.12226,-7.54893l1.23918,-2.14516l3.22315,-3.17416z" fill="#8c0081"/><g fill="#ffffff"><path d="M239.05756,170.47172c-0.0006,0.00037 -0.0012,0.00071 -0.0018,0.00107c-0.36361,0.21508 -0.55442,-0.34714 -0.55442,-0.34714c-0.91368,-2.75716 0.11458,-4.7148 1.77566,-4.62374c-0.07142,0.25223 0.08919,0.49285 0.08919,0.49285c1.08919,1.63191 2.15618,3.28531 3.2992,4.82869c-0.04881,1.01174 -0.27049,1.85824 -0.7281,2.08102c-0.6446,0.31381 -1.53751,-0.09808 -2.16991,-0.42976c-0.80676,-0.52536 -1.21472,-1.143 -1.70984,-2.00295zM241.17444,170.94523c-0.11454,0.16328 -0.10545,0.4484 0.02029,0.63682c0.12574,0.18841 0.32052,0.20876 0.43507,0.04545c0.11454,-0.16328 0.10545,-0.4484 -0.02029,-0.63682c-0.12574,-0.18841 -0.32052,-0.20876 -0.43507,-0.04545zM239.71551,168.25407c-0.12574,-0.18841 -0.32052,-0.20876 -0.43507,-0.04545c-0.11454,0.16328 -0.10545,0.4484 0.02029,0.63682c0.12575,0.18839 0.32052,0.20876 0.43507,0.04545c0.11453,-0.16331 0.10546,-0.44841 -0.02029,-0.63682z"/><path d="M238.97619,163.86781c-0.4216,-0.63165 -0.0376,-1.17919 -0.0376,-1.17919l-0.0312,0.17468c0.08881,-0.42503 0.25502,-0.79437 0.46403,-1.11698l-0.02689,-0.02025l0.00709,-0.02457l-0.13659,-0.17135l0.42275,-0.75518c0.01246,-0.02292 0.02603,-0.04491 0.04071,-0.06578c0.21209,-0.30239 0.57278,-0.26473 0.80562,0.08415c0.1267,0.18982 0.18942,0.43272 0.18614,0.66341c0.01019,0.00235 0.01581,0.0041 0.01581,0.0041c0.88771,0.28044 1.75391,0.6583 2.62438,1.00815c-0.1247,-0.61583 -0.24167,-1.23579 -0.34897,-1.86178c-0.29568,-1.7248 -1.05275,-3.44234 -0.70731,-5.05356c-0.02398,0.11006 -0.08366,0.38406 -0.10895,0.50022l-0.18978,-0.13819l-0.01002,0.12062l-0.60234,-0.20821c-0.11639,-0.03812 -0.23001,-0.12789 -0.32316,-0.26746c-0.23284,-0.34887 -0.24969,-0.87682 -0.0376,-1.17919c0.03513,-0.05009 0.07435,-0.09088 0.11637,-0.12243l0.47877,-0.38111l0.05635,0.133c0.38614,-0.38743 0.77359,-0.44755 1.49684,-0.26496c0.15138,-0.07677 0.37003,-0.08287 0.59987,0.26151c0.42161,0.63169 0.0376,1.17919 0.0376,1.17919l-0.52386,0.2538c-0.06548,-0.02244 -0.1289,-0.03681 -0.19027,-0.04567c0.26192,1.24438 0.59756,2.99482 0.66164,3.30289c0.29822,1.43327 0.59684,2.84899 0.90494,4.25881c0.28594,0.09432 0.57369,0.1791 0.86412,0.25004c0.5615,0.13716 1.11369,0.16043 1.66808,0.21079c-0.10083,-0.56683 -0.1411,-1.19217 -0.08976,-1.98086l-0.03149,-0.98746c-0.00681,-0.21337 0.04201,-0.42098 0.14804,-0.57217c0.21209,-0.30239 0.57278,-0.26473 0.80562,0.08415c0.05267,0.0789 0.09429,0.16699 0.1247,0.25954l0.53326,1.53767l-0.03994,0.02434c0.57906,1.20497 0.89031,2.31124 1.14186,4.26802l0.01888,0.4133c0,0 0.02658,0.83385 -0.54309,0.77433c-0.05548,-0.00579 -0.10582,-0.01895 -0.15147,-0.03793c-0.03732,0.03525 -0.08115,0.06655 -0.13244,0.0926c-0.51662,0.26244 -0.75811,-0.53123 -0.75811,-0.53123c-0.19088,-0.63363 -0.38086,-1.15925 -0.54939,-1.64634c-0.7354,-0.11365 -1.46119,-0.0812 -2.20374,-0.26085c-0.13633,-0.03298 -0.2722,-0.06916 -0.40764,-0.10805c0.28463,1.26011 0.57996,2.51949 0.89254,3.78644c0.51916,-0.00363 0.99592,0.16937 1.2206,0.73004c1.04314,2.60323 -2.22685,2.14236 -2.84582,1.92916l-0.36967,-0.26197c0,0 -0.52141,-0.42612 -0.29042,-1.14529c0.01332,-0.04145 0.02759,-0.07905 0.04268,-0.1132c-0.9171,-1.27966 -1.79143,-2.62247 -2.67776,-3.95432c0.10029,0.03514 0.20201,0.07714 0.30495,0.12619c0.15846,0.07551 1.50059,0.70108 1.63106,0.86145c0.38732,0.47602 0.67585,1.67811 0.76976,2.90894c0.02164,-0.04062 0.0446,-0.07518 0.06848,-0.10443c0.05849,-0.4104 0.36422,-0.52948 0.36422,-0.52948c0.15713,-0.06062 0.39078,-0.15389 0.66101,-0.23958c-0.37783,-1.48594 -0.74929,-2.95863 -1.08626,-4.44505c-1.04142,-0.40275 -2.07223,-0.87751 -3.12579,-1.20028c0,0 -0.06026,-0.01877 -0.13966,-0.07234c-0.01645,0.48734 -0.06938,0.9677 -0.14431,1.43156c0,0 -0.13093,0.7854 -0.68598,0.49911c-0.37563,-0.19374 -0.43708,-0.61607 -0.43756,-0.86885c-0.06278,-0.0477 -0.12784,-0.11768 -0.19381,-0.21653z"/></g></g></g><path d="M224.11032,196.01846l-21.07679,9.05715c0,0 -7.84703,2.5486 -10.01174,0.48115c-1.22895,-1.1737 -5.88591,-4.74061 -7.24639,-7.68781c-1.70359,-3.69056 0.75241,-7.81389 0.90625,-9.71642c0.06716,-0.83069 5.49299,-4.69009 5.49299,-4.69009c0,0 4.93526,-1.43617 8.20223,-2.38687c4.84878,-1.41102 18.06789,-5.25783 18.06789,-5.25783z" data-paper-data="{&quot;index&quot;:null}" fill="#949494" stroke="#000000" stroke-linecap="butt"/><path d="M215.65881,99.99336c0.3584,-0.08751 0.75944,-0.13273 1.19158,-0.14337c0.90026,-0.07883 1.78704,0.00981 2.62422,0.24375c2.95346,0.52643 6.24162,1.74532 7.58645,2.13672c17.70896,5.15403 26.212,12.40418 37.67225,26.14604c2.74212,3.28804 7.586,6.97546 8.94454,10.92615c2.7918,8.11855 -4.30969,13.67798 -12.11067,9.04962c-2.28288,-1.35444 -3.25624,-4.19405 -4.94774,-6.23974c-4.87828,-5.89976 -9.36184,-11.85159 -15.27224,-16.44899c-2.24302,-1.74472 -4.31134,-3.70311 -6.45936,-5.56353c-3.15204,-2.73003 -7.96002,-2.48969 -11.96065,-3.66585c-3.68241,-1.08261 -9.83372,-0.34216 -10.77396,-4.06347c-0.8875,-0.9192 -1.54864,-2.0803 -1.86826,-3.41268c-0.8747,-3.64626 1.11195,-7.30964 4.51298,-8.62991c0.2623,-0.14508 0.54799,-0.25838 0.86086,-0.33478z" fill="#ffffff" stroke="none" stroke-linecap="butt"/><path d="M199.83376,120.75042c0.3584,-0.08751 0.75945,-0.13272 1.19159,-0.14335c0.90026,-0.07883 1.78704,0.00981 2.62422,0.24375c2.95347,0.52644 6.24162,1.74532 7.58645,2.13672c17.70896,5.15403 26.21201,12.40419 37.67225,26.14606c2.74212,3.28804 7.58599,6.97544 8.94456,10.92615c2.79179,8.11856 -4.30968,13.67799 -12.11067,9.04962c-2.28288,-1.35444 -3.25624,-4.19405 -4.94775,-6.23975c-4.8783,-5.89976 -9.36184,-11.85158 -15.27225,-16.44897c-2.243,-1.74471 -4.31136,-3.70312 -6.45936,-5.56355c-3.15204,-2.73003 -7.96002,-2.48968 -11.96065,-3.66585c-3.68241,-1.08261 -9.83372,-0.34216 -10.77397,-4.06348c-0.8875,-0.9192 -1.54864,-2.0803 -1.86826,-3.41268c-0.8747,-3.64626 1.11195,-7.30964 4.51298,-8.62991c0.2623,-0.14509 0.548,-0.25839 0.86086,-0.33478z" fill="#ffffff" stroke="none" stroke-linecap="butt"/></g><g stroke-width="5"><path d="M242.14197,173.96774l-16.77127,-50.12228c0,0 0.86629,-15.31801 21.78465,-22.53571c20.55405,-7.09198 32.89013,4.24113 32.89013,4.24113l16.77127,50.12228l-0.35742,16.44068l-12.77769,-13.92722l-1.73062,17.35766l-10.28516,-10.93015l-1.96341,12.67406l-12.66379,-7.77766l-6.43735,12.63792z" fill="#c6c6c6" stroke="#6f6f6f" stroke-linecap="butt"/><path d="M313.78196,190.93377l-24.91613,-5.85919l2.5366,-10.78686l24.91618,5.85917z" data-paper-data="{&quot;index&quot;:null}" fill="#c6c6c6" stroke="#6f6f6f" stroke-linecap="butt"/><path d="M241.80239,204.70585l17.81579,-18.37773l7.95619,7.71295l-17.81579,18.37773z" fill="#c6c6c6" stroke="#6f6f6f" stroke-linecap="butt"/><path d="M260.07146,193.40981l-11.73717,-35.07745l35.07745,-11.73717l11.73717,35.07745z" fill="#c6c6c6" stroke="#6f6f6f" stroke-linecap="butt"/><path d="M230.58412,141.18971c-5.2788,-15.77612 3.23094,-32.84449 19.00706,-38.12329c15.77612,-5.2788 32.84449,3.23094 38.12329,19.00706c5.2788,15.77612 -3.23094,32.84449 -19.00706,38.12329c-15.77612,5.2788 -32.84449,-3.23094 -38.12329,-19.00706z" fill="#c6c6c6" stroke="#6f6f6f" stroke-linecap="butt"/><path d="M237.34571,119.71286c-0.38975,-1.16481 0.23856,-2.42505 1.40337,-2.8148c1.16481,-0.38975 2.42505,0.23856 2.8148,1.40337c0.38975,1.16481 -0.23856,2.42505 -1.40337,2.8148c-1.16481,0.38975 -2.42505,-0.23856 -2.8148,-1.40337z" fill="#000000" stroke="none" stroke-linecap="butt"/><path d="M266.20634,109.56214c-0.38975,-1.16481 0.23856,-2.42505 1.40337,-2.8148c1.16481,-0.38975 2.42505,0.23856 2.8148,1.40337c0.38975,1.16481 -0.23856,2.42505 -1.40337,2.8148c-1.16481,0.38975 -2.42505,-0.23856 -2.8148,-1.40337z" fill="#000000" stroke="none" stroke-linecap="butt"/><path d="M247.99563,153.50833c-0.38975,-1.16481 0.23856,-2.42505 1.40337,-2.8148c1.16481,-0.38975 2.42505,0.23856 2.8148,1.40337c0.38975,1.16481 -0.23856,2.42505 -1.40337,2.8148c-1.16481,0.38975 -2.42505,-0.23856 -2.8148,-1.40337z" fill="#000000" stroke="none" stroke-linecap="butt"/><path d="M275.77238,145.03692c-0.38975,-1.16481 0.23856,-2.42505 1.40337,-2.8148c1.16481,-0.38975 2.42505,0.23856 2.8148,1.40337c0.38975,1.16481 -0.23856,2.42505 -1.40337,2.8148c-1.16481,0.38975 -2.42505,-0.23856 -2.8148,-1.40337z" fill="#000000" stroke="none" stroke-linecap="butt"/><path d="M277.42057,118.97597c-0.38975,-1.16481 0.23856,-2.42505 1.40337,-2.8148c1.16481,-0.38975 2.42505,0.23856 2.8148,1.40337c0.38975,1.16481 -0.23856,2.42505 -1.40337,2.8148c-1.16481,0.38975 -2.42505,-0.23856 -2.8148,-1.40337z" fill="#000000" stroke="none" stroke-linecap="butt"/><path d="M280.98629,129.6324c-0.38975,-1.16481 0.23856,-2.42505 1.40337,-2.8148c1.16481,-0.38975 2.42505,0.23856 2.8148,1.40337c0.38975,1.16481 -0.23856,2.42505 -1.40337,2.8148c-1.16481,0.38975 -2.42505,-0.23856 -2.8148,-1.40337z" fill="#000000" stroke="none" stroke-linecap="butt"/><path d="M237.07855,144.98257c-0.38975,-1.16481 0.23856,-2.42505 1.40337,-2.8148c1.16481,-0.38975 2.42505,0.23856 2.8148,1.40337c0.38975,1.16481 -0.23856,2.42505 -1.40337,2.8148c-1.16481,0.38975 -2.42505,-0.23856 -2.8148,-1.40337z" fill="#000000" stroke="none" stroke-linecap="butt"/><path d="M232.04331,133.25433c-0.38975,-1.16481 0.23856,-2.42505 1.40337,-2.8148c1.16481,-0.38975 2.42505,0.23856 2.8148,1.40337c0.38975,1.16481 -0.23856,2.42505 -1.40337,2.8148c-1.16481,0.38975 -2.42505,-0.23856 -2.8148,-1.40337z" fill="#000000" stroke="none" stroke-linecap="butt"/><path d="M254.12753,163.96442c-0.38975,-1.16481 0.23856,-2.42505 1.40337,-2.8148c1.16481,-0.38975 2.42505,0.23856 2.8148,1.40337c0.38975,1.16481 -0.23856,2.42505 -1.40337,2.8148c-1.16481,0.38975 -2.42505,-0.23856 -2.8148,-1.40337z" fill="#000000" stroke="none" stroke-linecap="butt"/><path d="M278.00493,155.15201c-0.38975,-1.16481 0.23856,-2.42505 1.40337,-2.8148c1.16481,-0.38975 2.42505,0.23856 2.8148,1.40337c0.38975,1.16481 -0.23856,2.42505 -1.40337,2.8148c-1.16481,0.38975 -2.42505,-0.23856 -2.8148,-1.40337z" fill="#000000" stroke="none" stroke-linecap="butt"/><path d="M261.45992,188.33704c-0.38975,-1.16481 0.23856,-2.42505 1.40337,-2.8148c1.16481,-0.38975 2.42505,0.23856 2.8148,1.40337c0.38975,1.16481 -0.23856,2.42505 -1.40337,2.8148c-1.16481,0.38975 -2.42505,-0.23856 -2.8148,-1.40337z" fill="#000000" stroke="none" stroke-linecap="butt"/><path d="M286.5219,179.62198c-0.38975,-1.16481 0.23856,-2.42505 1.40337,-2.8148c1.16481,-0.38975 2.42505,0.23856 2.8148,1.40337c0.38975,1.16481 -0.23856,2.42505 -1.40337,2.8148c-1.16481,0.38975 -2.42505,-0.23856 -2.8148,-1.40337z" fill="#000000" stroke="none" stroke-linecap="butt"/><path d="M236.19882,145.57937l18.16702,13.49425l-5.11849,6.89097l-18.16702,-13.49425z" fill="#c6c6c6" stroke="#6f6f6f" stroke-linecap="butt"/><path d="M297.2108,133.31495l-9.24598,20.65548l-7.83481,-3.50708l9.24599,-20.65545z" fill="#c6c6c6" stroke="#6f6f6f" stroke-linecap="butt"/><path d="M260.38053,112.51719l-4.47,8.96568l-8.96568,-4.47" fill="none" stroke="#000000" stroke-linecap="round"/><path d="M244.54518,132.08767c-1.13679,-3.39737 0.69579,-7.07306 4.09317,-8.20984c3.39737,-1.13679 7.07306,0.69579 8.20984,4.09317c1.13679,3.39737 -0.69579,7.07306 -4.09317,8.20984c-3.39737,1.13679 -7.07306,-0.69579 -8.20984,-4.09317z" fill="#ff0000" stroke="none" stroke-linecap="butt"/><path d="M257.78511,127.26662c-1.13679,-3.39737 0.69579,-7.07306 4.09317,-8.20984c3.39737,-1.13679 7.07306,0.69579 8.20984,4.09317c1.13679,3.39737 -0.69579,7.07306 -4.09317,8.20984c-3.39737,1.13679 -7.07306,-0.69579 -8.20984,-4.09317z" fill="#ff0000" stroke="none" stroke-linecap="butt"/></g><text transform="translate(49.83178,349.34059) rotate(-0.12424) scale(0.60303,0.65778) skewX(-25.54214)" font-size="40" xml:space="preserve" fill="#ffffff" fill-rule="nonzero" stroke="none" stroke-width="1" stroke-linecap="butt" stroke-linejoin="miter" stroke-miterlimit="10" stroke-dasharray="" stroke-dashoffset="0" font-family="Pixel" font-weight="normal" text-anchor="start" style="mix-blend-mode: normal"><tspan x="0" dy="0">GVBVDXX</tspan></text></g></g></svg>