<svg version="1.1" xmlns="http://www.w3.org/2000/svg" xmlns:xlink="http://www.w3.org/1999/xlink" width="422.1894" height="315.2994" viewBox="0,0,422.1894,315.2994"><g transform="translate(-28.9053,-38.61726)"><g data-paper-data="{&quot;isPaintingLayer&quot;:true}" fill-rule="nonzero" stroke-linejoin="miter" stroke-miterlimit="10" stroke-dasharray="" stroke-dashoffset="0" style="mix-blend-mode: normal"><path d="M30.1553,317.60961v-275.21922h419.6894v275.21922z" fill="#ffc500" stroke="#d2a100" stroke-width="2.5" stroke-linecap="butt"/><text transform="translate(128.13814,83.90315) scale(1.11817,1.11817)" font-size="40" xml:space="preserve" fill="#d3a200" fill-rule="nonzero" stroke="none" stroke-width="1" stroke-linecap="butt" stroke-linejoin="miter" stroke-miterlimit="10" stroke-dasharray="" stroke-dashoffset="0" font-family="Marker" font-weight="normal" text-anchor="start" style="mix-blend-mode: normal"><tspan x="0" dy="0">CONTROLS</tspan></text><g stroke-width="1"><text transform="translate(31.78049,290.20509) scale(0.38738,0.38738)" font-size="40" xml:space="preserve" fill="#d3a200" fill-rule="nonzero" stroke="none" stroke-width="1" stroke-linecap="butt" stroke-linejoin="miter" stroke-miterlimit="10" stroke-dasharray="" stroke-dashoffset="0" font-family="Marker" font-weight="normal" text-anchor="start" style="mix-blend-mode: normal"><tspan x="0" dy="0">Press Down While</tspan><tspan x="0" dy="46.150000000000006px">On Floor To Crouch</tspan></text><g><g data-paper-data="{&quot;index&quot;:null}" fill="#949494" stroke="#000000"><path d="M77.92775,257.3044c0,0 -3.55706,-6.39322 -1.87125,-9.98188c0.60599,-1.28999 0.47976,-1.38944 1.44406,-3.54888c0.34734,-0.77783 0.7721,-1.57473 1.2066,-2.50824c1.16514,-2.50329 2.40032,-5.20149 2.40032,-5.20149c0,0 6.87343,1.1447 9.28477,1.1447c0.23282,0 11.53237,0.25359 11.76738,0.25209c5.75159,-0.03687 3.87683,-0.1249 3.87683,-0.1249c0,0 2.67866,-1.74075 3.549,-1.57455c1.67133,0.31914 3.26454,-1.42637 4.16537,1.60074c0.4234,1.4228 0.32807,1.58073 0.51752,3.53236c0.27656,2.84895 0.40514,7.19917 -0.55993,10.08549c-1.29884,3.88453 -3.85629,5.94302 -3.85629,5.94302z" stroke-linecap="butt"/><path d="M90.37142,256.79557c0,0 4.89996,-4.8034 4.71198,-9.82266c-0.19343,-2.29972 -2.75093,-6.99935 -2.75093,-6.99935l-2.16221,-2.67096l1.78065,2.28939c0,0 2.19632,-0.25204 3.39991,-0.39015c1.36276,-0.15639 4.35859,-0.50017 4.35859,-0.50017l-0.12719,-0.89032" stroke-linecap="round"/><path d="M106.06883,241.37263c0,0 1.66949,0.2746 3.0963,1.153c1.73899,1.07059 3.30273,2.91464 3.37409,4.69833c0.07078,1.76925 -0.36222,4.32851 -1.84919,5.89685c-1.83484,1.93525 -4.87563,2.694 -5.76215,2.59165c-2.40402,-0.27753 -4.3818,-4.63317 -4.53389,-5.67958c-0.41891,-2.88223 0.87803,-6.52078 1.38618,-7.20216c0.94745,-1.27045 4.28865,-1.45808 4.28865,-1.45808" stroke-linecap="round"/><path d="M79.23205,248.36801c0,-2.63007 1.67324,-4.1165 3.85989,-5.03142c0.67501,-0.28244 2.17421,-0.81926 2.94469,-0.81926c3.26636,0 5.40552,2.53589 5.40552,5.97787c0,3.44197 -3.02948,6.741 -6.29584,6.741c-3.26637,0 -5.91427,-3.42622 -5.91427,-6.86818z" stroke-linecap="butt"/></g><g data-paper-data="{&quot;index&quot;:null}" stroke="#000000" stroke-linecap="round"><path d="M70.92704,231.1466c0,0 5.15321,1.05982 7.6612,2.8925c1.0787,0.78824 2.18474,2.01864 2.39168,2.8171c0.24028,0.92708 -0.52698,1.36745 -0.73744,1.36155c-1.41961,-0.03976 -3.95025,-1.23858 -4.913,-1.94358c-1.68755,-1.23578 -4.526,-5.15777 -4.526,-5.15777" fill="#d8d8d8"/><path d="M77.87068,237.55743l1.61985,-2.87738" fill="none"/></g><path d="M110.18264,257.05189l-6.67309,-4.70481c0,0 -2.25384,-1.90511 -2.09972,-2.94709c0.08749,-0.59154 0.17237,-2.66896 0.73069,-3.63098c0.69916,-1.20465 2.3359,-1.22827 2.89889,-1.53624c0.24581,-0.13447 2.39153,0.79191 2.39153,0.79191c0,0 1.37082,1.22927 2.27826,2.043c1.34681,1.20772 5.01856,4.50032 5.01856,4.50032z" data-paper-data="{&quot;index&quot;:null}" fill="#949494" stroke="#000000" stroke-linecap="butt"/><g data-paper-data="{&quot;index&quot;:null}"><g><path d="M81.97643,260.52651l-0.3043,-3.16512l2.6587,-0.2556l0.3043,3.16512z" data-paper-data="{&quot;index&quot;:null}" fill="#000000" stroke="none" stroke-linecap="butt"/><path d="M89.14509,261.90869l0.56681,2.61323l0.86918,2.3805l-0.83691,2.24913l1.64381,-0.78368l1.42694,0.18573l0.91506,-0.06229l1.30293,0.44167l-1.22479,1.74517l-4.3884,3.0566l-0.91506,0.06229l-1.98525,-0.077l-3.2814,-4.05488l0.56454,-5.73097z" fill="#949494" stroke="#000000" stroke-linecap="round"/><path d="M83.39146,263.60857l-1.67552,-1.7599l0.30974,-1.68288l1.51188,-1.16363l2.65229,0.5266l2.637,1.34087l0.31824,1.03907z" fill="#242424" stroke="#000000" stroke-linecap="round"/><path d="M85.55395,259.53669l0.95413,1.03113l-0.50339,2.47392" fill="none" stroke="#000000" stroke-linecap="round"/></g><g stroke="none" stroke-linecap="butt"><path d="M85.85342,272.4468l-2.11624,-2.27116l0.89968,-6.29423l3.98299,-1.28681l1.44179,4.12638l-0.97317,3.12431z" fill="#8c6200"/><path d="M83.36665,266.07918l1.43938,-2.51235l3.90706,-1.12933l0.34379,1.64669z" fill="#8c0081"/><path d="M93.46914,270.72363l-5.19433,3.13269l-2.3145,-2.01949l3.11764,-2.37862l1.74209,-0.43149l1.66925,-0.81228l0.71669,0.12781l1.34007,0.60287z" fill="#8c0081"/><g fill="#ffffff"><path d="M86.69752,265.08673c0.00006,-0.00023 0.00013,-0.00048 0.00019,-0.0007c0.03842,-0.14142 0.17984,-0.103 0.17984,-0.103c0.68888,0.19484 0.82262,0.81992 0.45426,1.28684c-0.03017,-0.06281 -0.10742,-0.05635 -0.10742,-0.05635c-0.52395,0.04384 -1.04705,0.07765 -1.5665,0.15189c-0.17139,-0.18297 -0.27646,-0.38856 -0.21951,-0.55854c0.08023,-0.23944 0.34342,-0.42987 0.53703,-0.55808c0.26533,-0.14649 0.46273,-0.16185 0.72212,-0.16207zM86.06352,265.74082c0.06049,-0.00506 0.10542,-0.0582 0.10036,-0.11869c-0.00507,-0.06049 -0.0582,-0.10542 -0.11869,-0.10036c-0.06049,0.00507 -0.10542,0.0582 -0.10036,0.11869c0.00506,0.06049 0.0582,0.10542 0.11869,0.10036zM86.95646,265.64772c0.06049,-0.00507 0.10542,-0.0582 0.10036,-0.11869c-0.00506,-0.0605 -0.0582,-0.10542 -0.11869,-0.10036c-0.06049,0.00507 -0.10542,0.0582 -0.10036,0.11869c0.00506,0.06049 0.0582,0.10542 0.11869,0.10036z"/><path d="M87.90101,266.16497c0.20281,-0.01697 0.21979,0.18583 0.21979,0.18583l-0.02476,-0.0382c0.05753,0.09669 0.08865,0.20657 0.1023,0.32104l0.00933,-0.00442l0.00291,0.00616l0.05972,-0.01106l0.04606,0.2487c0.00147,0.00745 0.00255,0.01505 0.00319,0.02278c0.00938,0.11201 -0.07382,0.21041 -0.18583,0.21979c-0.06095,0.0051 -0.11787,-0.01722 -0.15861,-0.05667c-0.00258,0.00256 -0.00408,0.00391 -0.00408,0.00391c-0.23849,0.21085 -0.48991,0.39922 -0.73722,0.59348c0.13705,0.06656 0.2732,0.13605 0.40838,0.20935c0.37248,0.20197 0.84143,0.26881 1.05765,0.6379c-0.01469,-0.02532 -0.05127,-0.08837 -0.06677,-0.11509l0.06505,-0.03203l-0.01954,-0.02303l0.16504,-0.14007c0.03151,-0.02742 0.07171,-0.04542 0.11653,-0.04917c0.11201,-0.00937 0.21041,0.07383 0.21978,0.18585c0.00156,0.01855 0.00058,0.03674 -0.00266,0.0542l-0.033,0.20255l-0.03584,-0.00584c-0.01223,0.17672 -0.08354,0.2992 -0.2696,0.47865c-0.01829,0.05674 -0.06353,0.12123 -0.17409,0.13048c-0.20281,0.01697 -0.21979,-0.18584 -0.21979,-0.18584l0.06542,-0.19439c0.0179,-0.01526 0.03391,-0.03128 0.04852,-0.0476c-0.27902,-0.13161 -0.66458,-0.32625 -0.7335,-0.35905c-0.32065,-0.15258 -0.63824,-0.30213 -0.95677,-0.44794c-0.07753,0.06725 -0.15374,0.13662 -0.22803,0.20908c-0.14363,0.14008 -0.26483,0.29647 -0.39135,0.44897c0.12319,0.0653 0.24405,0.15796 0.37484,0.30446l0.18405,0.15563c0.03977,0.03362 0.06671,0.08243 0.07141,0.13843c0.00937,0.11202 -0.07383,0.21042 -0.18584,0.21979c-0.02534,0.00211 -0.04998,-0.00049 -0.07304,-0.00711l-0.38921,-0.10179l0.00409,-0.01565c-0.33915,-0.03298 -0.60383,-0.12722 -1.00862,-0.3807l-0.07824,-0.06347c0,0 -0.15541,-0.13141 -0.024,-0.28682c0.0128,-0.01513 0.02583,-0.02756 0.03892,-0.03764c0.00158,-0.01671 0.00524,-0.03466 0.01144,-0.05389c0.06234,-0.19373 0.25607,-0.1314 0.25607,-0.1314c0.15426,0.05032 0.28894,0.08288 0.41215,0.11524c0.17626,-0.19448 0.32424,-0.41054 0.51385,-0.59609c0.03481,-0.03407 0.07011,-0.06746 0.10579,-0.10029c-0.28666,-0.12763 -0.57547,-0.25204 -0.86929,-0.37271c-0.10936,0.15129 -0.24147,0.2608 -0.3898,0.23246c-0.68866,-0.13158 0.08707,-1.00376 0.25653,-1.14784l0.12539,-0.06358c0,0 0.18704,-0.08024 0.26727,0.1068c0.00463,0.01078 0.00835,0.0212 0.01129,0.03128c0.42421,-0.05267 0.8507,-0.08239 1.27775,-0.11741c-0.02756,0.02324 -0.05667,0.04575 -0.0873,0.06744c-0.04714,0.03339 -0.44393,0.31856 -0.50038,0.32967c-0.16758,0.03299 -0.44465,-0.08383 -0.68564,-0.26193c0.00272,0.01306 0.00406,0.0255 0.00424,0.0373c0.06132,0.08545 0.01793,0.19405 0.01793,0.19405c-0.02241,0.05572 -0.05518,0.1391 -0.09704,0.23182c0.34698,0.13827 0.69024,0.27617 1.02865,0.42638c0.29303,-0.23507 0.59675,-0.45503 0.87799,-0.70696c0,0 0.01615,-0.01436 0.04259,-0.02846c-0.08405,-0.08608 -0.15912,-0.18159 -0.22657,-0.28074c0,0 -0.11332,-0.16904 0.05572,-0.28237c0.1144,-0.07669 0.20328,-0.02406 0.24879,0.01798c0.02188,-0.01026 0.04823,-0.01747 0.07997,-0.02013z"/></g></g></g><path d="M90.18788,252.4692l-6.96666,5.97757l-4.28815,-4.16687l-0.26419,-0.81127l5.35034,-6.34853l3.16077,-1.8668l2.69178,0.91804l1.51205,2.43881l-0.01247,1.79867z" data-paper-data="{&quot;index&quot;:null}" fill="#949494" stroke="#000000" stroke-linecap="round"/><g data-paper-data="{&quot;index&quot;:null}"><g><path d="M115.6125,254.02112l-2.8392,-1.43163l1.20257,-2.38492l2.8392,1.43163z" fill="#000000" stroke="none" stroke-linecap="butt"/><path d="M131.22912,257.54819c0,0 0.38644,0.55839 -0.06744,0.87829c-1.18935,0.83828 -7.3321,4.33698 -7.3321,4.33698l-8.58491,-3.87684c0,0 2.61144,-2.94302 3.54463,-4.21927c0.36203,-0.49513 6.09295,1.78524 6.44496,1.54825c0.36589,-0.24634 0.05487,1.74799 0.31212,2.09687c0.29045,0.39391 1.139,-0.84175 1.3849,-0.99037c0.69286,-0.41876 2.09091,-0.9665 2.09091,-0.9665l2.20694,1.1926z" fill="#949494" stroke="#000000" stroke-linecap="butt"/><path d="M114.21953,258.91174l0.24405,-5.49761l1.17931,-1.07636l1.35081,-0.29328l1.35026,0.65913l0.8122,1.58972z" fill="#242424" stroke="#000000" stroke-linecap="butt"/><path d="M116.98151,256.35075l-1.13396,0.09091l-0.91865,-0.7823" fill="none" stroke="#000000" stroke-linecap="round"/><path d="M125.41751,258.01407l0.70812,3.13876" fill="none" stroke="#000000" stroke-linecap="round"/></g><g stroke="none" stroke-linecap="butt"><path d="M124.3111,262.04657l-8.19804,-3.03609l2.92462,-4.6083l1.45635,1.00146l4.14566,1.49199z" fill="#8c6200"/><path d="M118.09062,259.70199l-1.92215,-0.84266l2.9987,-4.29694l1.52116,1.08502z" fill="#8c0081"/><path d="M124.18983,262.25692l-1.12048,-5.73597l1.58507,0.29335l1.27656,1.90694l1.32939,-0.97819l1.74978,-0.62005l0.69784,0.20734l1.26404,0.74927z" fill="#8c0081"/><g fill="#ffffff"><path d="M119.00221,257.90222c-0.00018,-0.00016 -0.00037,-0.00032 -0.00055,-0.00048c-0.10984,-0.09701 -0.01283,-0.20685 -0.01283,-0.20685c0.47946,-0.53164 1.09921,-0.37509 1.35503,0.16181c-0.06969,-0.00072 -0.09805,0.07142 -0.09805,0.07142c-0.19244,0.4893 -0.3935,0.97341 -0.55669,1.47211c-0.23991,0.07278 -0.47076,0.07609 -0.59802,-0.05019c-0.17926,-0.17787 -0.23363,-0.49815 -0.26297,-0.7285c-0.01402,-0.30277 0.05953,-0.48659 0.17406,-0.71932zM119.24633,258.61765c-0.05648,-0.02222 -0.12029,0.00556 -0.14251,0.06206c-0.02222,0.05648 0.00556,0.12029 0.06206,0.14251c0.05648,0.02222 0.12029,-0.00556 0.14251,-0.06206c0.02222,-0.05648 -0.00556,-0.12029 -0.06206,-0.14251zM119.61986,257.91814c0.02222,-0.05648 -0.00556,-0.12029 -0.06206,-0.14251c-0.05648,-0.02222 -0.12029,0.00556 -0.14251,0.06206c-0.02221,0.05648 0.00556,0.12029 0.06206,0.14251c0.05649,0.02221 0.1203,-0.00556 0.14251,-0.06206z"/><path d="M120.50157,257.29981c0.07449,-0.1894 0.26388,-0.11491 0.26388,-0.11491l-0.04521,0.00531c0.11216,-0.00882 0.22446,0.01186 0.33318,0.05025l0.00016,-0.01033l0.00681,0.00011l0.01649,-0.05846l0.24342,0.06869c0.00733,0.00197 0.01462,0.00437 0.02185,0.00722c0.1046,0.04114 0.15605,0.15928 0.11491,0.26388c-0.02239,0.05692 -0.06758,0.09809 -0.12097,0.11718c0.00115,0.00345 0.00169,0.00539 0.00169,0.00539c0.08361,0.30716 0.14133,0.61598 0.20616,0.9237c0.12031,-0.09346 0.24286,-0.18483 0.3684,-0.27365c0.34589,-0.24472 0.61327,-0.63573 1.03993,-0.66639c-0.0292,0.00197 -0.10192,0.00689 -0.13275,0.00897l0.00005,-0.0725l-0.0293,0.00734l-0.05262,-0.20998c-0.01065,-0.04038 -0.00901,-0.08441 0.00745,-0.12625c0.04114,-0.10461 0.15928,-0.15605 0.26388,-0.11491c0.01733,0.00682 0.0332,0.01574 0.04743,0.02638l0.16705,0.11919l-0.02108,0.02955c0.15308,0.08914 0.23138,0.20727 0.31002,0.45352c0.04281,0.04151 0.08062,0.1106 0.04001,0.21385c-0.07449,0.1894 -0.26388,0.11491 -0.26388,0.11491l-0.1454,-0.14466c-0.00576,-0.02281 -0.01304,-0.04426 -0.02123,-0.06458c-0.24145,0.19203 -0.58656,0.45172 -0.64646,0.49902c-0.27868,0.22008 -0.55327,0.43876 -0.82494,0.65995c0.02602,0.09929 0.05453,0.19832 0.08665,0.29699c0.0621,0.19078 0.14875,0.36864 0.22955,0.54958c0.11306,-0.08159 0.24961,-0.149 0.43886,-0.20151l0.22098,-0.09623c0.04776,-0.02079 0.10344,-0.02337 0.15574,-0.0028c0.10461,0.04114 0.15605,0.15928 0.11491,0.26388c-0.0093,0.02366 -0.02255,0.04461 -0.03869,0.06237l-0.26345,0.30404l-0.01223,-0.01059c-0.17961,0.28958 -0.3812,0.48527 -0.78758,0.73618l-0.09154,0.04209c0,0 -0.1866,0.08125 -0.26785,-0.10535c-0.00791,-0.01818 -0.01328,-0.03535 -0.01653,-0.05154c-0.01429,-0.00881 -0.02876,-0.02004 -0.04327,-0.0341c-0.14618,-0.1416 -0.00457,-0.28778 -0.00457,-0.28778c0.11337,-0.1161 0.20214,-0.22248 0.28566,-0.31866c-0.09645,-0.2441 -0.22478,-0.47238 -0.30731,-0.72452c-0.01515,-0.0463 -0.0295,-0.09271 -0.04314,-0.13924c-0.24128,0.20064 -0.4806,0.40462 -0.71878,0.61475c0.08731,0.165 0.12708,0.33192 0.03605,0.45241c-0.42264,0.55942 -0.86172,-0.52209 -0.91597,-0.7378l-0.00156,-0.14059c0,0 0.01078,-0.20324 0.214,-0.19246c0.01172,0.00062 0.02271,0.00188 0.03304,0.00371c0.1404,-0.40375 0.3024,-0.79939 0.45989,-1.19789c0.00865,0.035 0.01598,0.07107 0.02188,0.10812c0.00909,0.05705 0.08934,0.53905 0.07433,0.5946c-0.04454,0.16489 -0.27188,0.36171 -0.53821,0.49906c0.01292,0.00335 0.02466,0.00764 0.03533,0.01269c0.10376,-0.01721 0.18197,0.06976 0.18197,0.06976c0.04006,0.04475 0.10035,0.11101 0.16499,0.18957c0.27749,-0.25003 0.553,-0.49687 0.83741,-0.73393c-0.0812,-0.36679 -0.14413,-0.73647 -0.24567,-1.10014c0,0 -0.00574,-0.02083 -0.00669,-0.05078c-0.11439,0.03731 -0.23325,0.06238 -0.35199,0.07902c0,0 -0.20174,0.02687 -0.22861,-0.17487c-0.01819,-0.13653 0.06833,-0.19295 0.12617,-0.21518c0.00048,-0.02416 0.00566,-0.05099 0.01732,-0.08062z"/></g></g></g><g data-paper-data="{&quot;index&quot;:null}"><g stroke="#000000"><path d="M109.43115,236.90838c0,0 0.28828,-0.77116 0.15657,-1.39029c-0.11781,-0.55377 -0.90977,-2.15034 -0.90977,-2.15034c0,0 -2.36787,-2.07945 -1.99427,-3.84389c0.04241,-0.20029 1.31,-4.52344 4.14507,-6.73084c2.02638,-1.57776 5.77304,-1.34503 6.23227,-1.09643c0.35498,0.19217 2.66865,0.6923 4.72705,1.90099c2.90087,1.70338 5.50029,4.0781 5.50029,4.0781l-1.88382,7.12557l-11.1085,-1.31277l-0.06207,3.96077z" fill="#949494" stroke-linecap="butt"/><path d="M126.42036,231.52609l-6.79486,-2.17314l-1.57019,-1.96873l-1.17164,-5.50764l5.72681,2.56483l4.37751,3.18083z" fill="#000000" stroke-linecap="round"/><path d="M118.33485,228.31164l-0.88473,-0.09964" fill="none" stroke-linecap="round"/><path d="M118.05189,229.68771l-1.24967,-0.26873" fill="none" stroke-linecap="round"/><path d="M117.02482,230.85197l-0.7441,-0.21179" fill="none" stroke-linecap="round"/><path d="M124.52496,234.70052c0,0 -6.62317,-0.95926 -10.07718,-1.04472c-0.84984,-0.02102 -0.23162,1.04048 -0.75682,0.98721c-4.65338,-0.47201 -5.0119,-1.61569 -5.38224,-2.19163c-0.91984,-1.43047 -1.88925,-3.31257 -1.79732,-3.6169c0.11821,-0.39133 1.1451,-1.22547 1.1451,-1.22547l1.99614,1.05199l2.79309,1.33849l2.96218,0.97356l5.29413,0.72421l4.04104,2.75896" fill="#373737" stroke-linecap="round"/><path d="M124.20865,235.91164l-0.6479,1.20696l-6.57226,-0.74015l-1.36182,-0.40936l-0.36322,-1.32083l0.36665,-0.98265l0.71735,-0.68717l0.72987,0.33818l0.54655,0.82951l0.43439,0.68888z" fill="#000000" stroke-linecap="round"/><path d="M111.66517,236.39202l0.28297,-1.37605" fill="none" stroke-linecap="round"/><path d="M114.33531,235.4128l-4.50732,-0.89159" fill="none" stroke-linecap="round"/><path d="M112.76632,223.20479l-0.76005,1.06634l0.12468,1.16598l-1.78197,-1.22463l0.39683,-2.38717l1.9972,-1.82296l0.64447,1.09652l-0.07289,1.78369z" fill="#151515" stroke-linecap="round"/><path d="M112.92476,225.20757l-1.79792,0.0535l-0.68545,-1.86909l0.59096,-0.70141l1.392,-0.99517l1.02535,-0.01252l0.57501,0.57672l0.56077,0.70312l0.09621,1.41875z" fill="none" stroke-linecap="round"/></g><path d="M124.14518,225.90919c1.32149,0.55594 1.55163,1.39331 1.22483,2.33155c-0.32679,0.93824 -1.405,1.41556 -2.40825,1.06612c-1.00325,-0.34944 -1.55163,-1.39331 -1.22483,-2.33155c0.32679,-0.93824 1.04704,-1.63877 2.40825,-1.06612z" fill="#54ff00" stroke="none" stroke-linecap="butt"/><path d="M118.90861,226.45274c-0.53547,-0.0008 -0.53468,-0.53627 -0.53468,-0.53627l0.0644,-0.73735c0.41291,-0.76779 0.77334,-1.35203 1.48424,-1.86758c0,0 0.43752,-0.30872 0.74624,0.12879c0.30872,0.43752 -0.12879,0.74624 -0.12879,0.74624c-0.58189,0.3953 -0.83057,0.88768 -1.1581,1.49907l0.06295,0.23243c0,0 -0.0008,0.53547 -0.53627,0.53468z" fill="#54ff00" stroke="none" stroke-linecap="butt"/></g></g></g><g><text transform="translate(37.71492,170.78524) scale(0.38743,0.38743)" font-size="40" xml:space="preserve" fill="#d3a200" fill-rule="nonzero" stroke="none" stroke-width="2" stroke-linecap="butt" stroke-linejoin="miter" stroke-miterlimit="10" stroke-dasharray="" stroke-dashoffset="0" font-family="Marker" font-weight="normal" text-anchor="start" style="mix-blend-mode: normal"><tspan x="0" dy="0">Press Up/Space</tspan><tspan x="0" dy="48px">To Jump</tspan></text><g stroke-width="1"><path d="M82.54758,137.07749c0,0 -3.55497,-6.38946 -1.87016,-9.976c0.60563,-1.28924 0.47948,-1.38862 1.44321,-3.5468c0.34713,-0.77737 0.77164,-1.5738 1.20588,-2.50676c1.16446,-2.50181 2.3989,-5.19843 2.3989,-5.19843c0,0 6.86937,1.14403 9.27931,1.14403c0.23269,0 11.52558,0.25344 11.76045,0.25194c5.74822,-0.03684 3.87455,-0.12483 3.87455,-0.12483c0,0 2.67708,-1.73972 3.54692,-1.57363c1.67034,0.31895 3.26263,-1.42553 4.16291,1.59979c0.42314,1.42196 0.32787,1.5798 0.51722,3.53028c0.2764,2.84727 0.4049,7.19494 -0.5596,10.07956c-1.29808,3.88224 -3.85403,5.93952 -3.85403,5.93952z" fill="#949494" stroke="#000000" stroke-linecap="butt"/><path d="M94.98394,136.56896c0,0 4.89707,-4.80057 4.70921,-9.81689c-0.19332,-2.29838 -2.74931,-6.99523 -2.74931,-6.99523l-2.16094,-2.66939l1.77959,2.28805c0,0 2.19502,-0.25189 3.39791,-0.38992c1.36196,-0.1563 4.35603,-0.49987 4.35603,-0.49987l-0.12711,-0.8898" fill="#949494" stroke="#000000" stroke-linecap="round"/><path d="M110.67211,121.1551c0,0 1.6685,0.27444 3.09448,1.15232c1.73796,1.06996 3.30079,2.91292 3.37211,4.69557c0.07075,1.7682 -0.36201,4.32597 -1.8481,5.89338c-1.83375,1.9341 -4.87277,2.69242 -5.75877,2.59013c-2.40262,-0.27737 -4.37923,-4.63045 -4.53122,-5.67624c-0.41866,-2.88053 0.87752,-6.51695 1.38537,-7.19792c0.9469,-1.2697 4.28613,-1.45722 4.28613,-1.45722" fill="#949494" stroke="#000000" stroke-linecap="round"/><path d="M83.85112,128.14636c0,-2.62852 1.67225,-4.11408 3.85762,-5.02846c0.67462,-0.28227 2.17293,-0.81877 2.94296,-0.81877c3.26444,0 5.40233,2.53439 5.40233,5.97434c0,3.43995 -3.0277,6.73703 -6.29214,6.73703c-3.26444,0 -5.91079,-3.4242 -5.91079,-6.86415z" fill="#949494" stroke="#000000" stroke-linecap="butt"/><path d="M73.56836,113.20055c0,0 5.25438,-0.19395 8.12412,0.99012c1.23428,0.50927 2.60003,1.44131 2.99042,2.16739c0.45327,0.84301 -0.18711,1.4526 -0.39283,1.49683c-1.38765,0.29827 -4.12894,-0.26505 -5.2309,-0.72104c-1.93157,-0.79927 -5.61791,-3.9333 -5.61791,-3.9333" fill="#d8d8d8" stroke="#000000" stroke-linecap="round"/><path d="M81.83074,117.77664l0.8898,-3.17784" fill="none" stroke="#000000" stroke-linecap="round"/><path d="M101.5802,130.57139l5.71325,-5.82629c0,0 2.24143,-1.91703 3.24446,-1.59756c0.56945,0.18136 2.60498,0.59894 3.46419,1.30428c1.07592,0.88326 0.83619,2.50155 1.04949,3.10637c0.09313,0.26408 -1.16548,2.23176 -1.16548,2.23176c0,0 -1.43286,1.15464 -2.38136,1.91896c-1.40775,1.1344 -5.24566,4.22711 -5.24566,4.22711z" data-paper-data="{&quot;index&quot;:null}" fill="#949494" stroke="#000000" stroke-linecap="butt"/><g><path d="M79.47776,132.27526l3.1754,-0.12449l0.10458,2.66734l-3.1754,0.12449z" data-paper-data="{&quot;index&quot;:null}" fill="#000000" stroke="none" stroke-linecap="butt"/><path d="M77.6929,139.34997l-2.63957,0.41767l-2.42447,0.73256l-2.19683,-0.96236l0.68894,1.68456l-0.26608,1.4133l0.01037,0.91657l-0.51444,1.27508l-1.67203,-1.32086l-2.80154,-4.55177l-0.01037,-0.91657l0.18919,-1.97654l4.23169,-3.04472l5.68645,0.88765z" fill="#949494" stroke="#000000" stroke-linecap="round"/><path d="M76.32238,133.51277l1.85086,-1.57225l1.66166,0.4043l1.07551,1.57442l-0.67555,2.61668l-1.48718,2.55533l-1.0548,0.25873z" fill="#242424" stroke="#000000" stroke-linecap="round"/><path d="M80.26294,135.90096l-1.08287,0.89368l-2.44001,-0.6423" fill="none" stroke="#000000" stroke-linecap="round"/></g><g stroke="none" stroke-linecap="butt"><path d="M67.36418,135.46913l2.38595,-1.98307l6.22951,1.25393l1.05858,4.04708l-4.19893,1.2051l-3.06238,-1.14786z" fill="#8c6200"/><path d="M73.85857,133.34817l2.42539,1.57842l0.90573,3.9624l-1.66254,0.24984z" fill="#8c0081"/><path d="M68.65258,143.16568l-2.83187,-5.36024l2.14604,-2.19513l2.19696,3.24542l0.33195,1.76269l0.71603,1.71156l-0.16809,0.70788l-0.67738,1.30301z" fill="#8c0081"/><g fill="#ffffff"><path d="M74.66034,136.72791c0.00023,0.00007 0.00047,0.00016 0.00069,0.00023c0.13893,0.04634 0.09259,0.18528 0.09259,0.18528c-0.2334,0.67634 -0.86467,0.77441 -1.30973,0.38043c0.06438,-0.02656 0.0623,-0.104 0.0623,-0.104c-0.0141,-0.52528 -0.01822,-1.04916 -0.06291,-1.57166c0.19228,-0.16067 0.40335,-0.25387 0.56974,-0.18742c0.23438,0.0936 0.40949,0.36701 0.52646,0.56744c0.13115,0.27304 0.13531,0.47088 0.12084,0.72971zM74.04357,136.05828c0.00163,0.06064 0.05211,0.10848 0.11275,0.10686c0.06065,-0.00163 0.10848,-0.05212 0.10686,-0.11275c-0.00163,-0.06065 -0.05211,-0.10848 -0.11275,-0.10686c-0.06064,0.00163 -0.10848,0.05211 -0.10686,0.11275zM74.08593,136.95453c0.00163,0.06065 0.05212,0.10848 0.11276,0.10686c0.06065,-0.00162 0.10848,-0.05211 0.10686,-0.11275c-0.00163,-0.06065 -0.05212,-0.10848 -0.11275,-0.10686c-0.06064,0.00163 -0.10848,0.05211 -0.10686,0.11275z"/><path d="M73.51636,137.86775c0.00545,0.20333 -0.19787,0.20878 -0.19787,0.20878l0.03951,-0.02254c-0.09974,0.05192 -0.21112,0.07677 -0.32613,0.08392l0.00388,0.00956l-0.0063,0.00255l0.00766,0.06022l-0.25076,0.03189c-0.00752,0.00104 -0.01516,0.00169 -0.02291,0.00189c-0.1123,0.00302 -0.20577,-0.08557 -0.20878,-0.19787c-0.00165,-0.0611 0.02385,-0.11664 0.06551,-0.15505c-0.00241,-0.00271 -0.00367,-0.00429 -0.00367,-0.00429c-0.1969,-0.2499 -0.37061,-0.51144 -0.55046,-0.7692c-0.07416,0.13298 -0.15121,0.26489 -0.232,0.39564c-0.2226,0.36024 -0.31584,0.82437 -0.69636,1.01922c0.0261,-0.01323 0.09107,-0.04615 0.11861,-0.06011l0.02828,0.06671l0.02408,-0.0182l0.13043,0.17261c0.02558,0.03299 0.04126,0.07412 0.04247,0.11906c0.00301,0.1123 -0.08558,0.20577 -0.19788,0.20877c-0.01861,0.0005 -0.03669,-0.00151 -0.05393,-0.00573l-0.20024,-0.04438l0.00785,-0.03541c-0.17564,-0.02221 -0.29381,-0.10029 -0.46234,-0.2961c-0.05559,-0.02146 -0.11737,-0.07025 -0.12034,-0.18109c-0.00545,-0.20333 0.19787,-0.20878 0.19787,-0.20878l0.19026,0.07628c0.01421,0.01873 0.02929,0.03562 0.04476,0.05111c0.14711,-0.27096 0.36315,-0.64465 0.39977,-0.71157c0.17039,-0.31131 0.33758,-0.61974 0.5011,-0.92932c-0.06271,-0.08118 -0.12761,-0.16113 -0.19571,-0.23936c-0.13165,-0.15125 -0.28084,-0.28102 -0.42583,-0.41591c-0.07213,0.11922 -0.17143,0.23458 -0.32501,0.35679l-0.16569,0.17484c-0.0358,0.03778 -0.08602,0.0619 -0.14217,0.06342c-0.1123,0.00301 -0.20578,-0.08558 -0.20878,-0.19787c-0.00069,-0.02541 0.00332,-0.04983 0.01123,-0.07248l0.1236,-0.3826l0.01539,0.00498c0.05211,-0.33654 0.16113,-0.59531 0.43696,-0.98487l0.06776,-0.07448c0,0 0.13992,-0.14762 0.28755,-0.00772c0.01438,0.01362 0.02604,0.02733 0.03535,0.04096c0.01659,0.00252 0.03429,0.00719 0.05313,0.01445c0.18978,0.07317 0.11662,0.26295 0.11662,0.26295c-0.05894,0.15107 -0.09905,0.28362 -0.13831,0.40472c0.18408,0.18688 0.3913,0.34675 0.5657,0.54647c0.03203,0.03667 0.06335,0.07377 0.09408,0.11125c0.14358,-0.27881 0.28406,-0.55994 0.42109,-0.84629c-0.14477,-0.11769 -0.24656,-0.2557 -0.20989,-0.4021c0.17027,-0.67971 0.99663,0.14368 1.13081,0.32093l0.05635,0.12872c0,0 0.06948,0.19117 -0.1217,0.26064c-0.01101,0.00401 -0.02163,0.00714 -0.03185,0.0095c0.02854,0.42626 0.03407,0.85349 0.04484,1.2816c-0.02163,-0.02883 -0.04245,-0.05913 -0.06236,-0.09092c-0.03065,-0.04894 -0.29273,-0.46098 -0.30062,-0.51795c-0.02343,-0.16908 0.10882,-0.43894 0.30017,-0.66931c-0.01319,0.00197 -0.02566,0.00261 -0.03746,0.00213c-0.08873,0.05636 -0.19465,0.00691 -0.19465,0.00691c-0.05433,-0.02551 -0.13567,-0.06292 -0.22582,-0.10995c-0.1576,0.33839 -0.31463,0.67309 -0.48367,1.00225c0.21797,0.30569 0.42025,0.62119 0.65572,0.91608c0,0 0.01341,0.01692 0.02599,0.04411c0.09065,-0.079 0.19019,-0.1485 0.29294,-0.21019c0,0 0.17509,-0.10352 0.2786,0.07157c0.07005,0.11849 0.0125,0.2042 -0.03202,0.24723c0.009,0.02241 0.01471,0.04912 0.01556,0.08093z"/></g></g><path d="M94.02778,131.35704l-6.56175,6.41171l-4.5459,-3.87863l-0.3159,-0.79203l4.92579,-6.67723l3.03168,-2.06603l2.74388,0.74164l1.66558,2.33458l0.10379,1.79466z" data-paper-data="{&quot;index&quot;:null}" fill="#949494" stroke="#000000" stroke-linecap="round"/><g><path d="M103.02325,136.73259l1.97841,-2.48688l2.08897,1.66186l-1.97841,2.48688z" fill="#000000" stroke="none" stroke-linecap="butt"/><path d="M96.39516,151.29578c0,0 -0.62499,0.26454 -0.84567,-0.24466c-0.57829,-1.3343 -2.75213,-8.05665 -2.75213,-8.05665l5.53987,-7.61158c0,0 2.34846,3.15396 3.40744,4.3267c0.41084,0.45498 -2.98632,5.59871 -2.82604,5.99136c0.16661,0.40813 -1.72155,-0.3019 -2.11525,-0.12116c-0.44451,0.20406 0.59194,1.28573 0.68734,1.55658c0.26881,0.76315 0.52035,2.24254 0.52035,2.24254l-1.6159,1.91685z" fill="#949494" stroke="#000000" stroke-linecap="butt"/><path d="M98.5212,134.37471l5.3297,1.35716l0.8133,1.37291l0.01218,1.38142l-0.91963,1.18713l-1.72075,0.47133z" fill="#242424" stroke="#000000" stroke-linecap="butt"/><path d="M100.46522,137.59825l0.14173,-1.12806l0.95235,-0.73975" fill="none" stroke="#000000" stroke-linecap="round"/><path d="M97.12155,145.5144l-3.21529,0.05437" fill="none" stroke="#000000" stroke-linecap="round"/></g><g stroke="none" stroke-linecap="butt"><path d="M93.40089,143.61147l4.63851,-7.40407l3.91422,3.79916l-1.27618,1.2213l-2.30324,3.75295z" fill="#8c6200"/><path d="M96.96045,138.00175l1.21556,-1.70939l3.59448,3.80832l-1.37112,1.26772z" fill="#8c0081"/><path d="M93.21972,143.45002l5.84052,0.07049l-0.60949,1.49129l-2.12561,0.86117l0.68671,1.49978l0.25075,1.83827l-0.34484,0.64065l-0.9903,1.08442z" fill="#8c0081"/><g fill="#ffffff"><path d="M98.53606,139.25986c0.00019,-0.00015 0.00038,-0.00028 0.00059,-0.00044c0.11727,-0.08774 0.20501,0.02954 0.20501,0.02954c0.42266,0.5773 0.14341,1.15187 -0.43397,1.29297c0.01488,-0.06803 -0.04994,-0.11047 -0.04994,-0.11047c-0.43963,-0.28783 -0.87241,-0.58305 -1.32719,-0.84418c-0.02241,-0.24956 0.02133,-0.47611 0.17076,-0.57495c0.21051,-0.13921 0.53498,-0.12726 0.76632,-0.10912c0.29911,0.04787 0.46401,0.15723 0.66845,0.31665zM97.78636,139.35319c0.03324,-0.05076 0.01903,-0.11884 -0.03173,-0.15207c-0.05076,-0.03324 -0.11884,-0.01903 -0.15207,0.03173c-0.03324,0.05076 -0.01903,0.11884 0.03173,0.15207c0.05076,0.03324 0.11884,0.01903 0.15207,-0.03173zM98.39483,139.86098c0.05076,0.03324 0.11884,0.01903 0.15207,-0.03173c0.03324,-0.05076 0.01903,-0.11884 -0.03173,-0.15207c-0.05076,-0.03323 -0.11884,-0.01903 -0.15207,0.03173c-0.03324,0.05076 -0.01902,0.11884 0.03173,0.15207z"/><path d="M98.82049,140.84952c0.17016,0.11141 0.05875,0.28158 0.05875,0.28158l0.00401,-0.04532c-0.01419,0.11155 -0.05727,0.21723 -0.11696,0.31579l0.01007,0.00226l-0.00149,0.00663l0.05385,0.02803l-0.11673,0.22421c-0.00342,0.00677 -0.00725,0.01342 -0.01151,0.01992c-0.06153,0.09398 -0.1876,0.1203 -0.28158,0.05875c-0.05114,-0.03348 -0.08224,-0.08608 -0.09005,-0.14222c-0.00361,0.00043 -0.00562,0.00057 -0.00562,0.00057c-0.31756,0.01933 -0.63147,0.01298 -0.94577,0.01382c0.06699,0.13674 0.13146,0.27524 0.19283,0.41614c0.16909,0.38823 0.4973,0.7294 0.4405,1.15312c0.00402,-0.02898 0.014,-0.10113 0.01822,-0.13171l0.07093,0.0148l-0.00122,-0.03016l0.21616,-0.00878c0.04169,-0.0022 0.08442,0.00835 0.12202,0.03297c0.09398,0.06154 0.1203,0.1876 0.05875,0.28158c-0.0102,0.01557 -0.02215,0.02928 -0.03545,0.04104l-0.1506,0.13921l-0.02463,-0.02664c-0.11837,0.13165 -0.24989,0.18424 -0.50683,0.2111c-0.04932,0.03344 -0.12462,0.05638 -0.21739,-0.00435c-0.17017,-0.11141 -0.05875,-0.28158 -0.05875,-0.28158l0.17113,-0.11284c0.02348,-0.001 0.04595,-0.00376 0.06751,-0.00764c-0.13878,-0.27533 -0.32268,-0.66584 -0.35678,-0.73407c-0.15865,-0.31746 -0.31677,-0.63063 -0.47792,-0.94144c-0.10245,0.00526 -0.20515,0.01301 -0.30824,0.02437c-0.1993,0.02196 -0.39098,0.07055 -0.58445,0.11282c0.05683,0.12723 0.09502,0.27455 0.10789,0.4704l0.04921,0.23581c0.01063,0.05096 0.00183,0.10597 -0.02894,0.15296c-0.06154,0.09398 -0.1876,0.1203 -0.28158,0.05875c-0.02126,-0.01392 -0.03906,-0.03114 -0.05315,-0.05055l-0.2439,-0.31964l0.01285,-0.00981c-0.24681,-0.23464 -0.39728,-0.47171 -0.56013,-0.9204l-0.02257,-0.09814c0,0 -0.04154,-0.19911 0.15757,-0.24066c0.0194,-0.00404 0.03729,-0.00581 0.05379,-0.0057c0.01153,-0.01219 0.02545,-0.02407 0.04216,-0.03541c0.16829,-0.11422 0.28252,0.05407 0.28252,0.05407c0.09054,0.13455 0.17657,0.24305 0.25369,0.34434c0.25847,-0.04473 0.50795,-0.12385 0.77145,-0.15331c0.04838,-0.00541 0.09672,-0.01 0.14503,-0.0139c-0.14725,-0.2769 -0.29815,-0.55257 -0.45531,-0.82838c-0.17921,0.05186 -0.35063,0.05683 -0.45001,-0.05675c-0.46141,-0.52735 0.68617,-0.73697 0.90827,-0.74617l0.13787,0.02707c0,0 0.19667,0.05188 0.14479,0.24856c-0.00299,0.01134 -0.00646,0.02184 -0.01036,0.03158c0.3665,0.21952 0.72068,0.45852 1.07856,0.69369c-0.03601,0.00134 -0.07278,0.00118 -0.11025,-0.00059c-0.05767,-0.00271 -0.54562,-0.02225 -0.59692,-0.04822c-0.15228,-0.07712 -0.29862,-0.3396 -0.37884,-0.62815c-0.0059,0.01196 -0.01249,0.02257 -0.01961,0.03199c-0.00428,0.10504 -0.10528,0.16386 -0.10528,0.16386c-0.05193,0.0301 -0.12903,0.07561 -0.21905,0.12287c0.18821,0.32238 0.37369,0.64217 0.54779,0.96869c0.37541,-0.00484 0.74995,0.00879 1.12644,-0.01658c0,0 0.02155,-0.00137 0.05106,0.00379c-0.01324,-0.11951 -0.01359,-0.24092 -0.00571,-0.3605c0,0 0.01475,-0.20286 0.21762,-0.18811c0.13728,0.00998 0.1749,0.10612 0.18488,0.16723c0.02355,0.00537 0.04873,0.01591 0.07537,0.03335z"/></g></g><g stroke="#000000"><path d="M113.40724,116.7764c0,0 -0.0705,-0.81976 -0.45493,-1.32218c-0.34385,-0.44937 -1.74351,-1.55093 -1.74351,-1.55093c0,0 -3.02934,-0.86159 -3.44884,-2.61458c-0.04762,-0.19899 -0.7575,-4.64519 0.85501,-7.85375c1.15255,-2.29333 4.63449,-3.69016 5.15567,-3.66269c0.40287,0.02123 2.70592,-0.5196 5.08244,-0.31134c3.34919,0.29351 6.71419,1.32233 6.71419,1.32233l1.35554,7.24024l-10.59076,3.57925l1.64269,3.60205z" fill="#949494" stroke-linecap="butt"/><path d="M126.43511,104.63131l-7.0658,0.95252l-2.26177,-1.10376l-3.4198,-4.46928l6.26965,-0.14086l5.31583,0.9939z" fill="#000000" stroke-linecap="round"/><path d="M117.75763,105.19739l-0.84138,0.2895" fill="none" stroke-linecap="round"/><path d="M118.09237,106.56093l-1.24333,0.29338" fill="none" stroke-linecap="round"/><path d="M117.66457,108.0524l-0.76255,0.12795" fill="none" stroke-linecap="round"/><path d="M126.08559,108.3098c0,0 -6.3902,1.97466 -9.5448,3.37889c-0.77616,0.34551 0.23718,1.03859 -0.25978,1.21575c-4.40307,1.5697 -5.21722,0.69105 -5.79854,0.32998c-1.44386,-0.8968 -3.12616,-2.18 -3.1737,-2.49416c-0.06113,-0.40396 0.5081,-1.59735 0.5081,-1.59735l2.25312,0.09353l3.0954,0.01035l3.09154,-0.39161l5.08965,-1.61684l4.83116,0.75738" fill="#373737" stroke-linecap="round"/><path d="M126.31949,109.53874l-0.06722,1.3674l-6.25027,2.15062l-1.40489,0.21454l-0.89436,-1.03654l-0.09047,-1.04429l0.35284,-0.92797l0.8039,-0.00776l0.84914,0.5144l0.68758,0.43555z" fill="#000000" stroke-linecap="round"/><path d="M115.20245,115.35213l-0.33474,-1.36353" fill="none" stroke-linecap="round"/><path d="M117.19281,113.323l-4.45118,1.12829" fill="none" stroke-linecap="round"/><path d="M110.54062,102.97567l-0.22877,1.28857l0.61261,0.99906l-2.13383,-0.34122l-0.6656,-2.32512l1.02103,-2.50217l1.05205,0.71344l0.69921,1.6414z" fill="#151515" stroke-linecap="round"/><path d="M111.54262,104.71564l-1.60005,0.81941l-1.42039,-1.39326l0.23264,-0.88661l0.82975,-1.49535l0.92022,-0.45106l0.76642,0.274l0.80778,0.3942l0.69533,1.23945z" fill="none" stroke-linecap="round"/></g><path d="M121.97227,100.5367c1.43136,-0.06492 1.99824,0.59227 2.10563,1.57938c0.10741,0.98711 -0.66119,1.88042 -1.7167,1.99526c-1.05551,0.11484 -1.99824,-0.59227 -2.10563,-1.57938c-0.10741,-0.98711 0.24233,-1.92838 1.7167,-1.99526z" fill="#54ff00" stroke="none" stroke-linecap="butt"/><path d="M117.47832,103.27325c-0.48372,0.22894 -0.71265,-0.25478 -0.71265,-0.25478l-0.2581,-0.69323c0.04345,-0.87018 0.11824,-1.55216 0.53885,-2.32245c0,0 0.26254,-0.46633 0.72887,-0.20379c0.46633,0.26254 0.20379,0.72887 0.20379,0.72887c-0.35574,0.6064 -0.36905,1.15753 -0.40249,1.84991l0.15652,0.18282c0,0 0.22894,0.48372 -0.25478,0.71265z" fill="#54ff00" stroke="none" stroke-linecap="butt"/></g></g><g stroke-width="1"><g><g data-paper-data="{&quot;index&quot;:null}" fill="#949494" stroke="#000000"><path d="M360.44907,144.74983c0,0 -3.86123,-6.93991 -2.03127,-10.83542c0.65781,-1.4003 0.52079,-1.50825 1.56754,-3.85235c0.37703,-0.84434 0.83812,-1.70938 1.30977,-2.72271c1.26478,-2.71734 2.60557,-5.64627 2.60557,-5.64627c0,0 7.46117,1.24258 10.0787,1.24258c0.25273,0 12.5185,0.27528 12.7736,0.27365c6.24341,-0.04002 4.20833,-0.13558 4.20833,-0.13558c0,0 2.90771,-1.8896 3.85247,-1.70919c1.81424,0.34643 3.5437,-1.54834 4.52154,1.73762c0.4596,1.54446 0.35612,1.7159 0.56178,3.83441c0.30021,3.09256 0.43978,7.81477 -0.60782,10.9479c-1.4099,4.2167 -4.18604,6.4512 -4.18604,6.4512z" stroke-linecap="butt"/><path d="M373.9568,144.19749c0,0 5.31895,-5.21413 5.1149,-10.6626c-0.20997,-2.49637 -2.98616,-7.59786 -2.98616,-7.59786l-2.3471,-2.89935l1.9329,2.48516c0,0 2.38412,-0.27359 3.69063,-0.42351c1.47929,-0.16976 4.7313,-0.54294 4.7313,-0.54294l-0.13807,-0.96645" stroke-linecap="round"/><path d="M390.99648,127.45574c0,0 1.81225,0.29808 3.36107,1.25159c1.88769,1.16214 3.58515,3.16386 3.66261,5.10008c0.07684,1.92053 -0.3932,4.69864 -2.00731,6.40108c-1.99173,2.10073 -5.29255,2.92437 -6.25487,2.81327c-2.6096,-0.30126 -4.75649,-5.02935 -4.92158,-6.16524c-0.45473,-3.12869 0.95312,-7.07837 1.50471,-7.81802c1.02847,-1.37909 4.65537,-1.58276 4.65537,-1.58276" stroke-linecap="round"/><path d="M361.8649,135.04929c0,-2.85497 1.81632,-4.4685 4.18995,-5.46166c0.73274,-0.30659 2.36013,-0.88931 3.19649,-0.88931c3.54566,0 5.86774,2.75273 5.86774,6.48903c0,3.7363 -3.28852,7.31742 -6.83419,7.31742c-3.54567,0 -6.42,-3.71919 -6.42,-7.45548z" stroke-linecap="butt"/></g><g data-paper-data="{&quot;index&quot;:null}" stroke="#000000" stroke-linecap="round"><path d="M350.69629,118.81592c0,0 5.70704,-0.21066 8.824,1.07542c1.34061,0.55314 2.82402,1.56548 3.24804,2.3541c0.49231,0.91564 -0.20323,1.57775 -0.42668,1.62578c-1.50718,0.32397 -4.48465,-0.28789 -5.68154,-0.78315c-2.09798,-0.86813 -6.10189,-4.27215 -6.10189,-4.27215" fill="#d8d8d8"/><path d="M360.63692,120.33463l-0.96645,3.45161" fill="none"/></g><g data-paper-data="{&quot;index&quot;:null}"><g><path d="M357.44116,130.56633l3.27352,1.56773l-0.9193,3.93904l-3.27352,-1.56773z" data-paper-data="{&quot;index&quot;:null}" fill="#000000" stroke="none" stroke-linecap="butt"/><path d="M352.908,139.87821l-2.84193,-0.846l-2.74448,-0.26932l-1.86158,-2.61035l0.05216,2.83077l-0.81367,1.91005l-0.34187,1.33948l-1.01282,1.57213l-1.19064,-2.84299l-1.09581,-8.1666l0.34187,-1.33948l0.95213,-2.77201l5.46928,-2.09991l5.43515,4.42359z" fill="#949494" stroke="#000000" stroke-linecap="round"/><path d="M353.76006,130.62923l2.48464,-1.26851l1.53252,1.50352l0.48721,2.8834l-1.6923,3.43564l-2.49317,2.89938l-1.17095,-0.20445z" fill="#242424" stroke="#000000" stroke-linecap="round"/><path d="M356.84477,136.27479l-1.44361,0.70405l-2.23167,-2.27853" fill="none" stroke="#000000" stroke-linecap="round"/></g><g stroke="none" stroke-linecap="butt"><path d="M343.90794,128.5422l3.18615,-1.5716l5.84598,5.25569l-0.48068,6.47223l-4.7287,-0.559l-2.66951,-3.35699z" fill="#8c6200"/><path d="M351.32055,129.03276l1.8569,3.63269l-0.60339,6.26484l-1.7849,-0.55211z" fill="#8c0081"/><path d="M342.25756,140.45161l-0.81578,-9.35977l3.02398,-2.01233l0.98393,5.93266l-0.34051,2.74784l0.0693,2.88497l-0.44291,0.93751l-1.18908,1.52302z" fill="#8c0081"/><g fill="#ffffff"><path d="M350.83557,134.39243c0.0002,0.00024 0.00041,0.00048 0.00061,0.00073c0.12331,0.14395 0.02282,0.32061 0.02282,0.32061c-0.49714,0.85565 -1.1761,0.65067 -1.47671,-0.16776c0.07561,-0.00318 0.10327,-0.11703 0.10327,-0.11703c0.18764,-0.77213 0.38486,-1.53675 0.54037,-2.32169c0.25709,-0.12789 0.50734,-0.14726 0.65081,0.04107c0.20209,0.2653 0.27487,0.75959 0.31662,1.11568c0.02825,0.46955 -0.0436,0.75972 -0.1578,1.12841zM350.4665,133.07831c-0.02166,0.08914 0.01122,0.18656 0.07345,0.2176c0.06223,0.03103 0.13024,-0.01608 0.1519,-0.10522c0.02166,-0.08915 -0.01122,-0.18656 -0.07345,-0.2176c-0.06222,-0.03103 -0.13023,0.01608 -0.1519,0.10522zM350.16494,134.40584c-0.02166,0.08915 0.01123,0.18656 0.07345,0.21759c0.06223,0.03105 0.13024,-0.01608 0.1519,-0.10521c0.02166,-0.08915 -0.01122,-0.18657 -0.07345,-0.2176c-0.06222,-0.03103 -0.13023,0.01608 -0.1519,0.10522z"/><path d="M349.23525,135.42101c-0.07263,0.29888 -0.28127,0.19484 -0.28127,0.19484l0.04881,-0.01104c-0.12129,0.02063 -0.24398,-0.00458 -0.36355,-0.05752l0.00026,0.01605l-0.00739,0.00025l-0.01537,0.09184l-0.26698,-0.0917c-0.00803,-0.00261 -0.01605,-0.00589 -0.02401,-0.00986c-0.11523,-0.05746 -0.17613,-0.23785 -0.13601,-0.40292c0.02183,-0.08982 0.06907,-0.1566 0.12617,-0.18955c-0.00141,-0.00528 -0.00208,-0.00827 -0.00208,-0.00827c-0.10393,-0.47208 -0.17984,-0.94835 -0.26343,-1.42249c-0.12646,0.15266 -0.25545,0.30219 -0.38778,0.44794c-0.36462,0.4016 -0.63778,1.02564 -1.09924,1.09962c0.0316,-0.00487 0.11025,-0.017 0.14359,-0.02213l0.00307,0.11265l0.03146,-0.01321l0.06613,0.32301c0.0133,0.0621 0.01341,0.13059 -0.00263,0.19663c-0.04011,0.16507 -0.16604,0.2523 -0.28128,0.19483c-0.01908,-0.00952 -0.03669,-0.02241 -0.05257,-0.03804l-0.18634,-0.17487l0.02159,-0.04722c-0.16988,-0.12906 -0.2599,-0.30777 -0.35581,-0.68551c-0.04822,-0.06184 -0.09221,-0.16686 -0.05262,-0.3298c0.07263,-0.29888 0.28127,-0.19484 0.28127,-0.19484l0.16394,0.21579c0.00724,0.03508 0.01606,0.06796 0.02581,0.09903c0.25362,-0.31328 0.61675,-0.73808 0.67968,-0.81528c0.29279,-0.35916 0.5812,-0.7159 0.86633,-1.07634c-0.0325,-0.15266 -0.06769,-0.30477 -0.10678,-0.45611c-0.07558,-0.29259 -0.17723,-0.56362 -0.27266,-0.83975c-0.11911,0.13375 -0.26433,0.24693 -0.46732,0.34019l-0.23554,0.16317c-0.05089,0.03527 -0.11118,0.04269 -0.1688,0.01397c-0.11523,-0.05747 -0.17613,-0.23786 -0.13601,-0.40292c0.00908,-0.03735 0.02254,-0.07069 0.03928,-0.09929l0.27265,-0.48868l0.01372,0.01571c0.18232,-0.46101 0.39255,-0.77753 0.82253,-1.19249l0.09747,-0.07105c0,0 0.19888,-0.13776 0.29506,0.14714c0.00936,0.02775 0.01594,0.0541 0.02016,0.07907c0.01588,0.01281 0.03206,0.02935 0.04841,0.0503c0.16465,0.211 0.01736,0.44687 0.01736,0.44687c-0.11796,0.18738 -0.20965,0.35816 -0.2961,0.51275c0.11515,0.37333 0.26416,0.72009 0.36454,1.10677c0.01844,0.071 0.03599,0.14224 0.0528,0.21369c0.25305,-0.32664 0.50384,-0.65835 0.75313,-0.99957c-0.10181,-0.25098 -0.15214,-0.50789 -0.05861,-0.70072c0.4343,-0.89531 0.95717,0.758 1.02531,1.08982l0.00775,0.21833c0,0 -0.00292,0.31645 -0.22383,0.31225c-0.01273,-0.00024 -0.02472,-0.00152 -0.036,-0.00371c-0.13489,0.636 -0.29354,1.26075 -0.4472,1.88965c-0.01089,-0.05385 -0.02038,-0.10942 -0.02839,-0.16664c-0.01232,-0.08808 -0.12013,-0.83204 -0.10624,-0.91927c0.0412,-0.25894 0.2793,-0.57879 0.56225,-0.80864c-0.01415,-0.00439 -0.02708,-0.01035 -0.03887,-0.01753c-0.11181,0.03314 -0.20037,-0.09715 -0.20037,-0.09715c-0.04538,-0.06704 -0.11362,-0.16629 -0.18712,-0.28436c-0.2902,0.40562 -0.57839,0.80618 -0.87666,1.19207c0.10388,0.56487 0.18807,1.1354 0.31388,1.6942c0,0 0.00712,0.03201 0.00945,0.0785c0.12245,-0.06503 0.2503,-0.11134 0.37839,-0.14452c0,0 0.21766,-0.0542 0.25549,0.2576c0.0256,0.211 -0.0658,0.30403 -0.12758,0.34213c0.00053,0.03758 -0.00394,0.07957 -0.01531,0.12634z"/></g></g></g><path d="M368.56194,143.04678l-9.59169,-3.60028l1.18645,-8.50738l0.57423,-0.9688l8.9548,1.35554l3.58794,2.31118l0.78932,3.9791l-1.29448,3.77719l-1.6329,1.42721z" data-paper-data="{&quot;index&quot;:null}" fill="#949494" stroke="#000000" stroke-linecap="round"/><g><g stroke="#000000"><path d="M394.39878,120.35103c0,0 0.21729,-0.86686 0,-1.51871c-0.19435,-0.58303 -1.24258,-2.20903 -1.24258,-2.20903c0,0 -2.80681,-1.95543 -2.61816,-3.9041c0.02141,-0.2212 0.86358,-5.03854 3.65358,-7.76405c1.99417,-1.94808 6.06392,-2.15219 6.5895,-1.9398c0.40626,0.16417 2.96275,0.42259 5.32996,1.47634c3.33607,1.48502 6.42853,3.73083 6.42853,3.73083l-1.16644,7.91513l-12.14212,-0.06661l0.41419,4.28z" fill="#949494" stroke-linecap="butt"/><path d="M412.07105,112.48135l-7.59355,-1.51871l-1.9329,-1.9329l-1.9329,-5.79871l6.48903,2.07097l5.10839,2.89935z" fill="#000000" stroke-linecap="round"/><path d="M402.95879,109.99619h-0.96645" fill="none" stroke-linecap="round"/><path d="M401.44008,111.37684l1.38064,0.13807" fill="none" stroke-linecap="round"/><path d="M401.02588,112.75749l0.82839,0.13807" fill="none" stroke-linecap="round"/><path d="M410.41213,116.13583c0,0 -7.26089,-0.23016 -10.99707,0.09724c-0.91926,0.08056 -0.12344,1.15049 -0.69645,1.15683c-5.0769,0.05615 -5.60256,-1.13398 -6.07202,-1.71025c-1.166,-1.4313 -2.44033,-3.34373 -2.37814,-3.68318c0.07998,-0.43649 1.08633,-1.46101 1.08633,-1.46101l2.28102,0.89229l3.17548,1.10452l3.31355,0.69032l5.79871,0.13807l4.69419,2.48516" fill="#373737" stroke-linecap="round"/><path d="M408.48385,119.94694l-0.90399,1.18066l-6.91358,-1.93533l-1.38805,-0.6753l-0.15963,-1.47841l0.56365,-0.98919l0.88807,-0.61163l0.72329,0.48921l0.44146,0.98381l0.34572,0.81364z" fill="#000000" stroke-linecap="round"/><path d="M396.88395,118.00394l-0.13807,1.51871" fill="none" stroke-linecap="round"/><path d="M399.50717,118.142l-4.97032,-0.41419" fill="none" stroke-linecap="round"/><path d="M396.33168,105.16395l-0.69032,1.24258l0.27613,1.24258l-2.07097,-1.10452l0.13807,-2.62323l1.9329,-2.20903l0.82839,1.10452l0.13807,1.9329z" fill="#151515" stroke-linecap="round"/><path d="M396.74589,107.30508l-1.9329,0.27613l-0.96645,-1.9329l0.55226,-0.82839l1.38064,-1.24258l1.10452,-0.13807l0.69032,0.55226l0.69032,0.69032l0.27613,1.51871z" fill="none" stroke-linecap="round"/></g><path d="M404.47304,105.05181l4.94424,2.32185" fill="none" stroke="#54ff00" stroke-linecap="round"/><path d="M405.85429,108.02497c-0.09205,-0.1011 -0.17977,-0.27383 -0.04938,-0.50915c0.21862,-0.39455 0.61317,-0.17593 0.61317,-0.17593c0.52887,0.29319 1.03935,0.61842 1.56019,0.92563c0.16683,0.0984 1.24848,0.62234 1.30578,0.83411c0.49389,1.8251 -5.37565,2.27773 -3.63291,-0.98207z" data-paper-data="{&quot;index&quot;:null}" fill="#54ff00" stroke="none" stroke-linecap="butt"/></g><g data-paper-data="{&quot;index&quot;:null}"><g><path d="M404.80571,130.73776l-3.20764,2.30052l-1.10874,-3.86425l3.20764,-2.30052z" fill="#000000" stroke="none" stroke-linecap="butt"/><path d="M418.86291,113.88404c0,0 0.73644,0.03807 0.67631,0.936c-0.15757,2.35292 -1.65665,13.70262 -1.65665,13.70262l-9.32612,7.39281c0,0 -0.56336,-6.23129 -0.94994,-8.67499c-0.14997,-0.94804 5.82199,-6.18036 5.87778,-6.86602c0.058,-0.71269 1.481,1.61751 1.95241,1.62079c0.53225,0.00371 0.11875,-2.29093 0.1717,-2.75356c0.14919,-1.30349 0.69538,-3.64649 0.69538,-3.64649z" fill="#949494" stroke="#000000" stroke-linecap="butt"/><path d="M407.84538,137.26972l-4.36047,-5.62775l-0.04598,-2.56989l0.72237,-2.0359l1.50756,-1.11507l1.89106,0.48205z" fill="#242424" stroke="#000000" stroke-linecap="butt"/><path d="M407.70458,131.2122l-0.7345,1.55905l-1.30106,0.43611" fill="none" stroke="#000000" stroke-linecap="round"/><path d="M415.09858,121.87416l3.09449,2.11358" fill="none" stroke="#000000" stroke-linecap="round"/></g><g stroke="none" stroke-linecap="butt"><path d="M417.63497,127.20533l-8.35646,7.70311l-1.71342,-8.2464l1.86566,-0.92199l4.19003,-3.93723z" fill="#8c6200"/><path d="M411.26057,133.0108l-2.0672,1.67974l-1.4037,-8.04173l1.98085,-0.92535z" fill="#8c0081"/><path d="M417.72191,127.5659l-5.53114,-4.08769l1.37346,-1.77308l2.48421,0.18604l0.14212,-2.66977l0.73762,-2.8692l0.66918,-0.70509l1.52037,-0.91612z" fill="#8c0081"/><g fill="#ffffff"><path d="M410.42678,130.08937c-0.00026,0.00009 -0.00052,0.00016 -0.00078,0.00024c-0.15843,0.04879 -0.17977,-0.1832 -0.17977,-0.1832c-0.09626,-1.13566 0.47528,-1.7885 1.10075,-1.60171c-0.05034,0.08971 -0.01108,0.19622 -0.01108,0.19622c0.26622,0.72237 0.52201,1.45091 0.81687,2.14443c-0.11123,0.38157 -0.2733,0.68428 -0.4683,0.72739c-0.27468,0.06074 -0.57768,-0.17816 -0.78862,-0.3626c-0.25974,-0.2743 -0.35887,-0.54731 -0.46908,-0.92076zM411.19116,130.4638c-0.05865,0.05182 -0.08128,0.16144 -0.05055,0.24484c0.03073,0.0834 0.10319,0.10899 0.16185,0.05717c0.05865,-0.05182 0.08128,-0.16144 0.05055,-0.24484c-0.03073,-0.0834 -0.10319,-0.10899 -0.16185,-0.05717zM410.88081,129.30342c-0.03073,-0.0834 -0.10319,-0.10899 -0.16185,-0.05717c-0.05865,0.05182 -0.08128,0.16144 -0.05055,0.24484c0.03074,0.08339 0.10319,0.10899 0.16185,0.05717c0.05865,-0.05183 0.08128,-0.16144 0.05055,-0.24484z"/><path d="M411.0002,127.56211c-0.10305,-0.2796 0.09359,-0.45338 0.09359,-0.45338l-0.02789,0.06379c0.07279,-0.15405 0.17002,-0.27976 0.2793,-0.38372l-0.00841,-0.01019l0.00495,-0.00872l-0.03643,-0.07788l0.23043,-0.24945c0.00685,-0.0076 0.01404,-0.01475 0.02155,-0.02137c0.1086,-0.09597 0.24278,-0.04858 0.29969,0.10585c0.03097,0.08403 0.03267,0.18245 0.0103,0.27017c0.00367,0.00183 0.00566,0.00301 0.00566,0.00301c0.31305,0.18826 0.60897,0.41172 0.90908,0.62489c0.00879,-0.24639 0.0209,-0.49365 0.03726,-0.74233c0.04505,-0.68518 -0.0866,-1.40983 0.19268,-1.99299c-0.01922,0.0398 -0.06708,0.13889 -0.08736,0.18089l-0.05977,-0.0701l-0.01486,0.04511l-0.21077,-0.13458c-0.04092,-0.0252 -0.07606,-0.06985 -0.09883,-0.13163c-0.05691,-0.15443 -0.01501,-0.35742 0.09359,-0.45338c0.01799,-0.0159 0.03669,-0.02787 0.05561,-0.03606l0.21757,-0.10159l0.00933,0.05591c0.1828,-0.11249 0.33614,-0.09996 0.59539,0.03591c0.06479,-0.01544 0.14877,0.00225 0.20495,0.15469c0.10305,0.27962 -0.09359,0.45338 -0.09359,0.45338l-0.22312,0.04889c-0.02293,-0.01455 -0.04581,-0.02584 -0.06842,-0.03484c-0.01396,0.49878 -0.04612,1.19741 -0.04987,1.32082c-0.0174,0.57418 -0.03304,1.1417 -0.04453,1.70783c0.10047,0.06216 0.20251,0.12085 0.30683,0.1745c0.20169,0.10373 0.41026,0.16315 0.61718,0.23311c0.01341,-0.22551 0.05528,-0.4678 0.14706,-0.76404l0.07837,-0.37966c0.01693,-0.08204 0.05456,-0.15678 0.10886,-0.20477c0.1086,-0.09597 0.24278,-0.04858 0.29969,0.10585c0.01287,0.03493 0.02069,0.07235 0.02383,0.11045l0.06272,0.63553l-0.01747,0.00563c0.11065,0.51278 0.12816,0.96337 0.04503,1.73303l-0.03063,0.15943c0,0 -0.06618,0.3206 -0.2781,0.24575c-0.02064,-0.00729 -0.03864,-0.01691 -0.05432,-0.02834c-0.01747,0.01003 -0.03706,0.01797 -0.05901,0.02321c-0.22115,0.05285 -0.24064,-0.27209 -0.24064,-0.27209c-0.01483,-0.25924 -0.03921,-0.47719 -0.05893,-0.67847c-0.2702,-0.11068 -0.5501,-0.16473 -0.81699,-0.30124c-0.049,-0.02506 -0.09753,-0.0513 -0.14565,-0.07854c-0.00674,0.50686 -0.00932,1.01443 -0.00602,1.52646c0.19842,0.04613 0.3645,0.15578 0.39891,0.39028c0.15974,1.08878 -1.04578,0.61361 -1.26244,0.47561l-0.11707,-0.13379c0,0 -0.15995,-0.21032 -0.00598,-0.46358c0.00888,-0.0146 0.01776,-0.02764 0.02664,-0.03929c-0.2328,-0.57222 -0.4435,-1.16461 -0.65978,-1.75392c0.03505,0.02259 0.07002,0.04792 0.10481,0.07606c0.05355,0.04332 0.5084,0.40486 0.5435,0.47799c0.10421,0.21708 0.10428,0.70217 0.02745,1.1804c0.01197,-0.01352 0.0239,-0.0246 0.03569,-0.03358c0.05988,-0.15124 0.18744,-0.16869 0.18744,-0.16869c0.0655,-0.00875 0.16319,-0.02295 0.27415,-0.03091c-0.00816,-0.60156 -0.01509,-1.19749 -0.00761,-1.79549c-0.3605,-0.249 -0.71036,-0.5245 -1.08282,-0.74409c0,0 -0.02127,-0.01268 -0.04667,-0.04039c-0.05088,0.18445 -0.11505,0.36289 -0.1861,0.53302c0,0 -0.12185,0.28769 -0.30743,0.12765c-0.12559,-0.10831 -0.11038,-0.27508 -0.08743,-0.37157c-0.01959,-0.02395 -0.03801,-0.0566 -0.05413,-0.10036z"/></g></g></g><path d="M402.38511,138.46889l-8.87114,1.52666c0,0 -3.22741,0.25419 -3.86415,-0.73281c-0.36149,-0.56033 -1.81192,-2.34759 -2.06126,-3.59666c-0.31222,-1.56411 1.00232,-2.91262 1.23516,-3.62447c0.10166,-0.31081 2.52521,-1.28678 2.52521,-1.28678c0,0 2.01457,-0.09625 3.34814,-0.15997c1.97927,-0.09457 7.37529,-0.35239 7.37529,-0.35239z" data-paper-data="{&quot;index&quot;:null}" fill="#949494" stroke="#000000" stroke-linecap="butt"/><path d="M407.94976,101.05572c0.14476,-0.00059 0.30192,0.01887 0.46779,0.05437c0.35072,0.05233 0.68097,0.16732 0.97899,0.33321c1.07874,0.4712 2.22181,1.23726 2.69913,1.5097c6.28531,3.58753 8.86613,7.13222 11.9811,13.42459c0.74533,1.50559 2.25605,3.35594 2.4128,4.98773c0.32213,3.35328 -2.8964,4.82453 -5.44931,2.34448c-0.74709,-0.72576 -0.85857,-1.89834 -1.31673,-2.83373c-1.32135,-2.69765 -2.48732,-5.37904 -4.3217,-7.67422c-0.69615,-0.87103 -1.30609,-1.8076 -1.9554,-2.71408c-0.95281,-1.33019 -2.80936,-1.67857 -4.22819,-2.49354c-1.30597,-0.75015 -3.72086,-1.03066 -3.739,-2.53664c-0.2545,-0.43197 -0.40049,-0.93551 -0.40049,-1.47316c0,-1.47134 1.09335,-2.6873 2.5119,-2.87977c0.11336,-0.03135 0.23274,-0.04843 0.35911,-0.04894z" fill="#ffffff" stroke="none" stroke-linecap="butt"/><path d="M400.01156,107.52733c0.14476,-0.00059 0.30192,0.01887 0.46779,0.05437c0.35072,0.05233 0.68097,0.16732 0.97899,0.33321c1.07875,0.47121 2.22181,1.23726 2.69913,1.5097c6.28531,3.58753 8.86613,7.13223 11.9811,13.42459c0.74533,1.50559 2.25605,3.35593 2.41281,4.98773c0.32213,3.35328 -2.8964,4.82453 -5.44931,2.34448c-0.74709,-0.72576 -0.85857,-1.89834 -1.31673,-2.83374c-1.32135,-2.69765 -2.48732,-5.37903 -4.3217,-7.67422c-0.69615,-0.87102 -1.3061,-1.8076 -1.9554,-2.71408c-0.95281,-1.33019 -2.80936,-1.67857 -4.22819,-2.49354c-1.30597,-0.75015 -3.72086,-1.03066 -3.739,-2.53664c-0.2545,-0.43197 -0.40049,-0.93551 -0.40049,-1.47316c0,-1.47134 1.09335,-2.6873 2.5119,-2.87977c0.11336,-0.03135 0.23275,-0.04843 0.35911,-0.04894z" fill="#ffffff" stroke="none" stroke-linecap="butt"/></g><text transform="translate(341.35135,160.76126) scale(0.34546,0.34546)" font-size="40" xml:space="preserve" fill="#d3a200" fill-rule="nonzero" stroke="none" stroke-width="1" stroke-linecap="butt" stroke-linejoin="miter" stroke-miterlimit="10" stroke-dasharray="" stroke-dashoffset="0" font-family="Marker" font-weight="normal" text-anchor="start" style="mix-blend-mode: normal"><tspan x="0" dy="0">Press Down</tspan><tspan x="0" dy="46.150000000000006px">While in Air</tspan><tspan x="0" dy="46.150000000000006px">to jump</tspan><tspan x="0" dy="46.150000000000006px">attack</tspan></text></g><g stroke-width="1"><g data-paper-data="{&quot;index&quot;:null}" fill="#949494" stroke="#000000"><path d="M358.02983,258.36426c0,0 -4.11703,-7.39967 -2.16584,-11.55326c0.70139,-1.49307 0.55529,-1.60817 1.67138,-4.10757c0.40201,-0.90028 0.89364,-1.82263 1.39654,-2.90309c1.34857,-2.89736 2.77818,-6.02033 2.77818,-6.02033c0,0 7.95547,1.3249 10.74641,1.3249c0.26948,0 13.34784,0.29352 13.61984,0.29177c6.65703,-0.04267 4.48713,-0.14456 4.48713,-0.14456c0,0 3.10034,-2.01479 4.1077,-1.82243c1.93443,0.36938 3.77847,-1.65092 4.82109,1.85273c0.49005,1.64678 0.37971,1.82957 0.59899,4.08844c0.3201,3.29744 0.46892,8.3325 -0.64809,11.67319c-1.50331,4.49605 -4.46336,6.87859 -4.46336,6.87859z" stroke-linecap="butt"/><path d="M372.43244,257.77533c0,0 5.67132,-5.55957 5.45375,-11.36899c-0.22389,-2.66175 -3.184,-8.10121 -3.184,-8.10121l-2.50259,-3.09143l2.06096,2.6498c0,0 2.54207,-0.29171 3.93514,-0.45157c1.57729,-0.181 5.04474,-0.57891 5.04474,-0.57891l-0.14721,-1.03048" stroke-linecap="round"/><path d="M390.60099,239.92445c0,0 1.93231,0.31782 3.58373,1.33451c2.01275,1.23913 3.82266,3.37347 3.90526,5.43796c0.08193,2.04776 -0.41925,5.00993 -2.14029,6.82515c-2.12368,2.2399 -5.64317,3.1181 -6.66926,2.99965c-2.78248,-0.32122 -5.07161,-5.36254 -5.24763,-6.57369c-0.48485,-3.33596 1.01626,-7.54731 1.6044,-8.33595c1.09661,-1.47045 4.96379,-1.68762 4.96379,-1.68762" stroke-linecap="round"/><path d="M359.53946,248.02107c0,-3.04411 1.93664,-4.76453 4.46754,-5.82349c0.78128,-0.3269 2.51649,-0.94823 3.40826,-0.94823c3.78056,0 6.25647,2.9351 6.25647,6.91892c0,3.98383 -3.50639,7.80219 -7.28695,7.80219c-3.78057,0 -6.84532,-3.96559 -6.84532,-7.9494z" stroke-linecap="butt"/></g><g data-paper-data="{&quot;index&quot;:null}" stroke="#000000" stroke-linecap="round"><path d="M347.63094,230.71225c0,0 6.08513,-0.22462 9.40858,1.14666c1.42943,0.58979 3.01111,1.6692 3.46322,2.51006c0.52492,0.9763 -0.2167,1.68227 -0.45495,1.73348c-1.60703,0.34543 -4.78175,-0.30696 -6.05793,-0.83504c-2.23697,-0.92564 -6.50613,-4.55518 -6.50613,-4.55518" fill="#d8d8d8"/><path d="M358.23013,232.33157l-1.03048,3.68028" fill="none"/></g><path d="M399.37484,256.62216l-8.87667,-3.24214c0,0 -3.09352,-1.44819 -3.23593,-2.65897c-0.08085,-0.68738 -0.61324,-3.03421 -0.27984,-4.27769c0.41749,-1.55711 2.23918,-2.07768 2.77525,-2.59176c0.23406,-0.22446 2.91127,0.16278 2.91127,0.16278c0,0 1.90284,0.95964 3.16245,1.59488c1.86949,0.94282 6.96625,3.5132 6.96625,3.5132z" data-paper-data="{&quot;index&quot;:null}" fill="#949494" stroke="#000000" stroke-linecap="butt"/><g data-paper-data="{&quot;index&quot;:null}"><g><path d="M354.47465,252.80277l3.67746,-0.14418l0.12112,3.08906l-3.67746,0.14418z" data-paper-data="{&quot;index&quot;:null}" fill="#000000" stroke="none" stroke-linecap="butt"/><path d="M352.4076,260.99603l-3.05691,0.48371l-2.80779,0.84838l-2.54416,-1.11452l0.79786,1.9509l-0.30815,1.63675l0.012,1.06149l-0.59578,1.47668l-1.93638,-1.52971l-3.24447,-5.27142l-0.012,-1.06149l0.21911,-2.28905l4.90075,-3.5261l6.58552,1.02798z" fill="#949494" stroke="#000000" stroke-linecap="round"/><path d="M350.82038,254.23593l2.14349,-1.82083l1.92438,0.46822l1.24557,1.82334l-0.78236,3.03039l-1.7223,2.95935l-1.22156,0.29963z" fill="#242424" stroke="#000000" stroke-linecap="round"/><path d="M355.38397,257.00172l-1.25408,1.03498l-2.8258,-0.74385" fill="none" stroke="#000000" stroke-linecap="round"/></g><g stroke="none" stroke-linecap="butt"><path d="M340.44585,256.50161l2.76318,-2.29661l7.21443,1.45218l1.22594,4.68695l-4.86281,1.39563l-3.54655,-1.32934z" fill="#8c6200"/><path d="M347.96704,254.04533l2.80885,1.82797l1.04893,4.58889l-1.9254,0.28934z" fill="#8c0081"/><path d="M341.93794,265.41503l-3.2796,-6.20773l2.48534,-2.5422l2.54432,3.75854l0.38443,2.04138l0.82923,1.98217l-0.19466,0.8198l-0.78448,1.50902z" fill="#8c0081"/><g fill="#ffffff"><path d="M348.89557,257.95941c0.00027,0.00009 0.00054,0.00018 0.0008,0.00027c0.1609,0.05367 0.10723,0.21457 0.10723,0.21457c-0.27031,0.78328 -1.00138,0.89685 -1.5168,0.44058c0.07456,-0.03075 0.07215,-0.12045 0.07215,-0.12045c-0.01632,-0.60833 -0.02111,-1.21504 -0.07285,-1.82015c0.22268,-0.18607 0.46713,-0.29401 0.65982,-0.21706c0.27143,0.1084 0.47423,0.42503 0.6097,0.65715c0.15189,0.31621 0.1567,0.54532 0.13995,0.84508zM348.18128,257.18391c0.00188,0.07023 0.06035,0.12563 0.13058,0.12375c0.07023,-0.00188 0.12564,-0.06035 0.12376,-0.13058c-0.00188,-0.07023 -0.06035,-0.12563 -0.13058,-0.12375c-0.07023,0.00188 -0.12563,0.06035 -0.12375,0.13058zM348.23034,258.22187c0.00188,0.07023 0.06035,0.12563 0.13059,0.12375c0.07024,-0.00188 0.12564,-0.06035 0.12376,-0.13057c-0.00188,-0.07023 -0.06035,-0.12564 -0.13058,-0.12376c-0.07023,0.00188 -0.12563,0.06035 -0.12375,0.13058z"/><path d="M347.57071,259.27946c0.00632,0.23547 -0.22915,0.2418 -0.22915,0.2418l0.04576,-0.0261c-0.11551,0.06014 -0.2445,0.0889 -0.37769,0.09718l0.00449,0.01107l-0.0073,0.00296l0.00886,0.06974l-0.2904,0.03693c-0.0087,0.00121 -0.01756,0.00196 -0.02654,0.00219c-0.13005,0.0035 -0.23831,-0.09909 -0.2418,-0.22915c-0.0019,-0.07077 0.02762,-0.13508 0.07587,-0.17957c-0.0028,-0.00314 -0.00425,-0.00497 -0.00425,-0.00497c-0.22803,-0.28941 -0.42921,-0.59229 -0.63749,-0.89081c-0.08589,0.154 -0.17512,0.30677 -0.26868,0.45819c-0.25779,0.41719 -0.36577,0.9547 -0.80645,1.18037c0.03023,-0.01532 0.10547,-0.05345 0.13737,-0.06961l0.03275,0.07726l0.02789,-0.02107l0.15105,0.1999c0.02962,0.03821 0.04778,0.08584 0.04918,0.13788c0.00348,0.13005 -0.09911,0.2383 -0.22916,0.24178c-0.02154,0.00058 -0.04249,-0.00175 -0.06245,-0.00663l-0.23189,-0.0514l0.00909,-0.04102c-0.20341,-0.02573 -0.34027,-0.11614 -0.53544,-0.34292c-0.06438,-0.02485 -0.13592,-0.08136 -0.13937,-0.20972c-0.00632,-0.23547 0.22915,-0.2418 0.22915,-0.2418l0.22034,0.08834c0.01646,0.02169 0.03392,0.04125 0.05183,0.05919c0.17037,-0.31381 0.42056,-0.74658 0.46298,-0.82407c0.19734,-0.36053 0.39096,-0.71772 0.58033,-1.07625c-0.07263,-0.09401 -0.1478,-0.18661 -0.22666,-0.27721c-0.15246,-0.17515 -0.32524,-0.32546 -0.49316,-0.48167c-0.08354,0.13807 -0.19853,0.27166 -0.37639,0.4132l-0.19189,0.20248c-0.04146,0.04376 -0.09963,0.07169 -0.16465,0.07344c-0.13006,0.00349 -0.23831,-0.0991 -0.2418,-0.22915c-0.00079,-0.02942 0.00385,-0.05771 0.01301,-0.08394l0.14314,-0.44309l0.01782,0.00576c0.06035,-0.38975 0.18659,-0.68943 0.50604,-1.14058l0.07848,-0.08625c0,0 0.16204,-0.17097 0.33301,-0.00894c0.01665,0.01578 0.03015,0.03165 0.04094,0.04744c0.01921,0.00292 0.03971,0.00833 0.06152,0.01675c0.21978,0.08473 0.13505,0.30452 0.13505,0.30452c-0.06826,0.17496 -0.11471,0.32846 -0.16018,0.46871c0.21319,0.21642 0.45316,0.40158 0.65514,0.63286c0.03709,0.04246 0.07337,0.08544 0.10896,0.12883c0.16628,-0.3229 0.32897,-0.64847 0.48767,-0.98009c-0.16765,-0.13629 -0.28554,-0.29613 -0.24307,-0.46568c0.19719,-0.78717 1.15421,0.1664 1.30959,0.37167l0.06526,0.14907c0,0 0.08046,0.22139 -0.14094,0.30185c-0.01275,0.00464 -0.02504,0.00827 -0.03688,0.011c0.03306,0.49366 0.03945,0.98844 0.05193,1.48423c-0.02504,-0.03338 -0.04915,-0.06848 -0.07222,-0.10529c-0.03549,-0.05667 -0.33901,-0.53387 -0.34815,-0.59984c-0.02714,-0.19581 0.12602,-0.50833 0.34763,-0.77513c-0.01527,0.00228 -0.02972,0.00302 -0.04338,0.00247c-0.10276,0.06527 -0.22542,0.008 -0.22542,0.008c-0.06292,-0.02954 -0.15712,-0.07288 -0.26152,-0.12733c-0.18252,0.3919 -0.36437,0.77951 -0.56014,1.16072c0.25243,0.35402 0.4867,0.7194 0.75939,1.06091c0,0 0.01554,0.0196 0.0301,0.05108c0.10498,-0.09148 0.22027,-0.17198 0.33925,-0.24342c0,0 0.20277,-0.11988 0.32265,0.08289c0.08112,0.13722 0.01448,0.23648 -0.03708,0.28632c0.01043,0.02596 0.01703,0.05688 0.01802,0.09373z"/></g></g></g><path d="M369.5862,251.73938l-7.5992,7.42543l-5.26464,-4.49186l-0.36585,-0.91726l5.70459,-7.73294l3.511,-2.39268l3.17771,0.8589l1.92892,2.70368l0.1202,2.0784z" data-paper-data="{&quot;index&quot;:null}" fill="#949494" stroke="#000000" stroke-linecap="round"/><g data-paper-data="{&quot;index&quot;:null}"><g><path d="M403.66971,252.75652l-3.26765,-1.6932l1.42229,-2.74482l3.26765,1.6932z" fill="#000000" stroke="none" stroke-linecap="butt"/><path d="M421.69859,257.0382c0,0 0.44012,0.65119 -0.08928,1.01563c-1.38722,0.95498 -8.54127,4.92571 -8.54127,4.92571l-9.88622,-4.5966c0,0 3.05997,-3.37273 4.15631,-4.83788c0.42533,-0.56842 7.02887,2.14403 7.4393,1.87425c0.42661,-0.28042 0.04116,2.02375 0.33443,2.4308c0.33111,0.4596 1.32897,-0.95964 1.61547,-1.12851c0.80724,-0.4758 2.43228,-1.09185 2.43228,-1.09185l2.53896,1.40846z" fill="#949494" stroke="#000000" stroke-linecap="butt"/><path d="M401.99506,258.3989l0.35272,-6.35955l1.37864,-1.23065l1.56712,-0.32216l1.5543,0.7801l0.91967,1.85025z" fill="#242424" stroke="#000000" stroke-linecap="butt"/><path d="M405.22437,255.47024l-1.31356,0.09072l-1.05321,-0.91714" fill="none" stroke="#000000" stroke-linecap="round"/><path d="M415.74597,261.14482l-0.77943,-3.6417" fill="none" stroke="#000000" stroke-linecap="round"/></g><g stroke="none" stroke-linecap="butt"><path d="M413.6345,262.15599l-9.44923,-3.61861l3.44372,-5.29605l1.67271,1.17765l4.77891,1.77975z" fill="#8c6200"/><path d="M406.46517,259.36298l-2.21384,-0.99983l3.52548,-4.93475l1.74666,1.27519z" fill="#8c0081"/><path d="M413.49145,262.3979l-1.22347,-6.65286l1.83073,0.35977l1.45305,2.22332l1.55107,-1.11512l2.03304,-0.69525l0.805,0.24888l1.45337,0.88334z" fill="#8c0081"/><g fill="#ffffff"><path d="M407.54321,257.29166c-0.0002,-0.00019 -0.00042,-0.00037 -0.00063,-0.00056c-0.12588,-0.11368 -0.01219,-0.23956 -0.01219,-0.23956c0.5617,-0.60916 1.27697,-0.42007 1.56618,0.20459c-0.08063,-0.00172 -0.1144,0.08141 -0.1144,0.08141c-0.22897,0.56383 -0.46786,1.12154 -0.6631,1.69663c-0.2786,0.08116 -0.54582,0.08204 -0.69148,-0.06573c-0.20519,-0.20815 -0.26402,-0.57953 -0.29504,-0.84649c-0.01235,-0.35058 0.07512,-0.5624 0.21065,-0.83028zM407.81659,258.12279c-0.06509,-0.02644 -0.13929,0.0049 -0.16573,0.07c-0.02644,0.06509 0.0049,0.13929 0.07,0.16573c0.06509,0.02644 0.13929,-0.0049 0.16573,-0.07c0.02644,-0.06509 -0.0049,-0.13929 -0.07,-0.16573zM408.25784,257.31799c0.02644,-0.06509 -0.0049,-0.13929 -0.07,-0.16573c-0.06509,-0.02644 -0.13929,0.0049 -0.16573,0.07c-0.02643,0.06509 0.0049,0.13929 0.07,0.16573c0.0651,0.02644 0.1393,-0.0049 0.16573,-0.07z"/><path d="M409.2862,256.61364c0.08863,-0.21824 0.30688,-0.12962 0.30688,-0.12962l-0.0524,0.00557c0.12993,-0.00878 0.25964,0.0166 0.38497,0.06242l0.00032,-0.01195l0.00788,0.00022l0.01984,-0.06744l0.28084,0.08262c0.00845,0.00237 0.01687,0.00524 0.0252,0.00863c0.12053,0.04895 0.17857,0.18634 0.12962,0.30688c-0.02664,0.06559 -0.07947,0.11267 -0.14151,0.13407c0.0013,0.00401 0.00189,0.00626 0.00189,0.00626c0.09284,0.35655 0.15569,0.7147 0.2268,1.07168c0.14044,-0.10664 0.28344,-0.21082 0.42986,-0.312c0.40344,-0.27881 0.71789,-0.72792 1.21208,-0.75795c-0.03383,0.00191 -0.11805,0.00667 -0.15375,0.00868l0.00099,-0.0839l-0.034,0.00812l-0.05822,-0.2437c-0.01181,-0.04688 -0.00935,-0.09781 0.01023,-0.14603c0.04896,-0.12054 0.18634,-0.17857 0.30688,-0.12962c0.01997,0.00811 0.03822,0.01864 0.05455,0.03112l0.19182,0.14008l-0.02478,0.03393c0.17602,0.10513 0.26514,0.24284 0.35301,0.52884c0.04901,0.04858 0.09189,0.12903 0.04357,0.24801c-0.08863,0.21825 -0.30688,0.12962 -0.30688,0.12962l-0.16643,-0.16928c-0.00638,-0.02647 -0.01453,-0.05139 -0.02374,-0.07501c-0.28191,0.21916 -0.68463,0.5153 -0.75457,0.56928c-0.32534,0.25115 -0.64595,0.50072 -0.96319,0.75324c0.02884,0.11525 0.06057,0.23023 0.09649,0.34484c0.06944,0.22159 0.16745,0.42855 0.25865,0.63899c0.1319,-0.09298 0.2908,-0.16926 0.51049,-0.2276l0.25698,-0.10855c0.05554,-0.02346 0.12001,-0.02573 0.18028,-0.00125c0.12054,0.04896 0.17857,0.18634 0.12962,0.30688c-0.01108,0.02727 -0.02667,0.05134 -0.04558,0.07169l-0.30879,0.34851l-0.01402,-0.01242c-0.21156,0.33285 -0.44738,0.55676 -0.92092,0.84196l-0.10648,0.04755c0,0 -0.217,0.09165 -0.30865,-0.12534c-0.00892,-0.02113 -0.01493,-0.04108 -0.01848,-0.05986c-0.01642,-0.01038 -0.03303,-0.02355 -0.04964,-0.04001c-0.16736,-0.16575 -0.00162,-0.33312 -0.00162,-0.33312c0.13269,-0.13292 0.23679,-0.2549 0.33467,-0.36515c-0.10852,-0.28374 -0.25412,-0.54959 -0.34641,-0.84245c-0.01694,-0.05378 -0.03295,-0.10768 -0.04816,-0.16171c-0.2818,0.22913 -0.56139,0.46215 -0.83974,0.7023c0.09893,0.19208 0.14284,0.38577 0.03595,0.52406c-0.49629,0.64205 -0.99064,-0.61526 -1.05067,-0.86561l-0.00001,-0.16272c0,0 0.01507,-0.23508 0.25014,-0.22001c0.01355,0.00087 0.02625,0.00247 0.0382,0.00471c0.16766,-0.46549 0.3602,-0.92132 0.54757,-1.3805c0.00957,0.04062 0.01758,0.08245 0.02394,0.12542c0.0098,0.06614 0.0965,0.62501 0.07843,0.68911c-0.05365,0.19026 -0.31927,0.41515 -0.62927,0.5707c0.01491,0.00403 0.02844,0.00915 0.04073,0.01513c0.12031,-0.01858 0.20971,0.08306 0.20971,0.08306c0.04579,0.0523 0.11472,0.12975 0.18852,0.22151c0.32434,-0.28582 0.64636,-0.56799 0.97856,-0.83871c-0.08929,-0.42554 -0.15739,-0.8542 -0.27026,-1.27639c0,0 -0.00637,-0.02418 -0.00709,-0.05887c-0.13286,0.04172 -0.27075,0.06922 -0.4084,0.08695c0,0 -0.23383,0.02852 -0.26234,-0.20531c-0.0193,-0.15824 0.08155,-0.22245 0.14877,-0.24743c0.00085,-0.02796 0.0072,-0.05893 0.02108,-0.09308z"/></g></g></g><g><g stroke="#000000"><path d="M393.42979,233.39595c0,0 0.16155,-0.93908 -0.12172,-1.61474c-0.25337,-0.60432 -1.4982,-2.24913 -1.4982,-2.24913c0,0 -3.14102,-1.85412 -3.09662,-3.94113c0.00504,-0.23691 0.51437,-5.42635 3.26234,-8.54782c1.96414,-2.23108 6.27487,-2.77429 6.8507,-2.59059c0.4451,0.14199 3.18396,0.21186 5.78531,1.14251c3.66603,1.31155 7.13404,3.45151 7.13404,3.45151l-0.60582,8.50911l-12.91523,0.90233l0.78341,4.51744z" fill="#949494" stroke-linecap="butt"/><path d="M411.58878,223.61226l-8.19542,-1.00614l-2.21004,-1.90021l-2.51988,-6.01046l7.06533,1.68184l5.66377,2.67326z" fill="#000000" stroke-linecap="round"/><path d="M400.67359,221.77773l1.02756,-0.07746" fill="none" stroke-linecap="round"/><path d="M401.67607,223.3261l-1.47901,-0.03614" fill="none" stroke-linecap="round"/><path d="M400.75916,224.8715l-0.89183,-0.0804" fill="none" stroke-linecap="round"/><path d="M410.11786,227.63079c0,0 -7.73846,0.33723 -11.68465,0.98478c-0.97093,0.15933 -0.03904,1.23313 -0.64777,1.2858c-5.39343,0.4666 -6.04771,-0.75666 -6.59304,-1.33175c-1.35444,-1.42835 -2.86263,-3.35957 -2.82371,-3.72548c0.05005,-0.4705 1.03793,-1.64046 1.03793,-1.64046l2.49676,0.76589l3.4648,0.91985l3.5784,0.4684l6.17644,-0.31795l5.1902,2.26608" fill="#373737" stroke-linecap="round"/><path d="M407.71574,233.22318l-1.20366,1.03201l-6.78453,-3.54525l-1.29884,-1.0109l0.15989,-1.57743l0.80637,-0.90742l1.06143,-0.44194l0.64648,0.67001l0.24329,1.12372l0.181,0.92507z" fill="#000000" stroke-linecap="round"/><path d="M395.88399,230.70127l-0.02508,1.62581" fill="none" stroke-linecap="round"/><path d="M398.68414,230.63782l-5.3178,-0.04203" fill="none" stroke-linecap="round"/><path d="M394.26769,217.09363l-0.63438,1.37648l0.39318,1.29902l-2.29044,-1.00837l-0.06345,-2.80016l1.87808,-2.50363l0.96929,1.10796l0.30171,2.04406z" fill="#151515" stroke-linecap="round"/><path d="M394.87971,219.33696l-2.033,0.44851l-1.18248,-1.97767l0.52078,-0.92503l1.36835,-1.43181l1.16329,-0.23533l0.77824,0.53185l0.7893,0.67865l0.41531,1.59261z" fill="none" stroke-linecap="round"/></g><g fill="#00ff59" stroke="none" stroke-linecap="butt"><path d="M404.23161,222.37991c-0.27983,-0.24338 -0.03645,-0.52321 -0.03645,-0.52321l0.19412,-0.21407c0.66607,-0.5319 1.30398,-1.07411 2.02849,-1.50781c-0.97625,-0.5786 -2.03184,-1.02593 -2.98498,-1.64042c0,0 -0.31144,-0.20136 -0.11008,-0.5128c0.20136,-0.31144 0.5128,-0.11008 0.5128,-0.11008c1.07482,0.69707 2.28306,1.17825 3.36157,1.87356l0.09339,0.06038c0.06304,0.02242 0.12561,0.0676 0.17563,0.15098c0.04081,0.05673 0.0752,0.13394 0.06592,0.22748c-0.00305,0.09394 -0.04726,0.16597 -0.09515,0.21687c-0.06007,0.07556 -0.12747,0.11216 -0.19246,0.12636c-0.89031,0.43405 -1.62296,1.07749 -2.39155,1.69451l-0.09802,0.12181c0,0 -0.24338,0.27983 -0.52321,0.03645z"/><path d="M407.19968,217.7545c-0.22873,0.29193 -0.52067,0.0632 -0.52067,0.0632l-0.12291,-0.14378c-1.40884,-0.30316 -2.90705,-1.42323 -4.32766,-1.41411c0,0 -0.37086,-0.00267 -0.36819,-0.37353c0.00268,-0.37085 0.37353,-0.36819 0.37353,-0.36819c1.53298,0.0267 2.97326,1.1073 4.47823,1.43067l0.42445,0.28507c0,0 0.29193,0.22873 0.0632,0.52067z"/></g></g></g><text transform="translate(341.35135,280.59807) scale(0.29264,0.29264)" font-size="40" xml:space="preserve" fill="#d3a200" fill-rule="nonzero" stroke="none" stroke-width="1" stroke-linecap="butt" stroke-linejoin="miter" stroke-miterlimit="10" stroke-dasharray="" stroke-dashoffset="0" font-family="Marker" font-weight="normal" text-anchor="start" style="mix-blend-mode: normal"><tspan x="0" dy="0">Press up</tspan><tspan x="0" dy="46.150000000000006px">while in air</tspan><tspan x="0" dy="46.150000000000006px">to flutter kick</tspan></text><text transform="translate(123.63363,346.66667) scale(0.5,0.5)" font-size="40" xml:space="preserve" fill="#000000" fill-rule="nonzero" stroke="none" stroke-width="1" stroke-linecap="butt" stroke-linejoin="miter" stroke-miterlimit="10" stroke-dasharray="" stroke-dashoffset="0" font-family="Marker" font-weight="normal" text-anchor="start" style="mix-blend-mode: normal"><tspan x="0" dy="0">Press Space To Continue</tspan></text></g></g></svg>