<svg version="1.1" xmlns="http://www.w3.org/2000/svg" xmlns:xlink="http://www.w3.org/1999/xlink" width="77.1613" height="174.93848" viewBox="0,0,77.1613,174.93848"><g transform="translate(-214.23537,-79.51098)"><g data-paper-data="{&quot;isPaintingLayer&quot;:true}" fill-rule="nonzero" stroke-linejoin="miter" stroke-miterlimit="10" stroke-dasharray="" stroke-dashoffset="0" style="mix-blend-mode: normal"><g stroke-width="2" stroke-linecap="butt"><path d="M240.68847,240.99181v-10.79162h6.99997v10.79162z" data-paper-data="{&quot;index&quot;:null}" fill="#ffd499" stroke="#dfba86"/><path d="M226.17674,253.24177l1.05357,-11.58925c0,0 6.02669,-3.1607 9.8333,-3.1607c4.50404,0 12.29162,3.1607 12.29162,3.1607v11.58925z" data-paper-data="{&quot;index&quot;:null}" fill="#ff00bf" stroke="#d5009f"/></g><g stroke-width="2" stroke-linecap="butt"><path d="M268.23654,241.1995v-10.79162h6.99997v10.79162z" data-paper-data="{&quot;index&quot;:null}" fill="#ffd499" stroke="#dfba86"/><path d="M253.72482,253.44946l1.05357,-11.58925c0,0 6.02669,-3.1607 9.8333,-3.1607c4.50404,0 12.29162,3.1607 12.29162,3.1607v11.58925z" data-paper-data="{&quot;index&quot;:null}" fill="#ff00bf" stroke="#d5009f"/></g><path d="M248.53094,198.58787l1.86635,34.8348l-10.74328,1.02026l-2.13458,-31.73185z" data-paper-data="{&quot;index&quot;:null}" fill="#7f00ff" stroke="#6600cc" stroke-width="2" stroke-linecap="round"/><path d="M270.33038,197.29293l6.33002,35.66374l-12.88163,-1.43428l-0.75624,-25.42197z" data-paper-data="{&quot;index&quot;:null}" fill="#7f00ff" stroke="#6600cc" stroke-width="2" stroke-linecap="round"/><path d="M269.49242,202.27266c0,0 -8.19237,1.84866 -13.08914,2.02555c-6.20127,0.22401 -21.13787,-0.78917 -21.13787,-0.78917c0,0 -3.76492,-35.47535 -4.17189,-46.74173c-0.23971,-6.63607 1.95367,-14.66622 1.95367,-14.66622l37.02247,0.52593c0,0 0.99425,8.54755 0.94244,13.9009c-0.10282,10.62508 -1.51968,45.74476 -1.51968,45.74476z" data-paper-data="{&quot;index&quot;:null}" fill="#7f00ff" stroke="#6600cc" stroke-width="2" stroke-linecap="butt"/><path d="M290.38722,160.69298c0,0 -0.66749,3.80281 -2.32214,3.99761c-1.11454,0.1312 -3.55219,-2.1271 -6.15339,-2.19556c-1.02002,-0.02684 -1.99794,2.83141 -3.10349,2.86098c-0.83899,0.02245 -2.18214,-2.69938 -2.78053,-1.98974c-0.94867,1.12508 -2.26901,3.74115 -3.91148,4.01415c-1.56755,0.26056 -3.47861,-1.86258 -3.58826,0.76055c-0.16282,3.89506 -4.53872,-4.34029 -4.53872,-4.34029l-6.95232,-59.05577c0,0 -18.27717,-4.76774 -28.68912,-8.87273c-4.46969,-1.7622 -8.1942,-3.95818 -7.24204,-4.6875c2.46391,-1.88723 19.45071,-9.68268 34.91,-10.6737c13.70115,-0.87832 26.21172,4.93904 26.21172,4.93904z" data-paper-data="{&quot;index&quot;:null}" fill="#000000" stroke="#000000" stroke-width="2" stroke-linecap="butt"/><path d="M271.48801,109.83787c5.66397,14.088 1.57644,28.57876 -12.51155,34.24274c-14.088,5.66396 -35.80249,0.28929 -41.46647,-13.7987c-4.54438,-11.30321 -2.28421,-22.0612 6.82332,-29.93212c0.8654,-0.74789 4.30858,-2.46232 5.27632,-3.10605c1.54146,-1.02537 3.53316,-4.13599 5.24391,-4.82379c1.01534,-0.40821 2.61342,1.71556 3.72822,1.64426c1.96177,-0.12547 3.49535,-2.20515 5.3645,-2.2028c3.04425,0.00383 6.48325,1.53295 9.34285,2.38733c0.83678,0.25001 3.45343,-4.39001 4.25483,-4.09117c7.08127,2.64065 10.91897,12.156 13.94407,19.68032z" data-paper-data="{&quot;index&quot;:null}" fill="#ffd499" stroke="#dfba86" stroke-width="2" stroke-linecap="butt"/><path d="M246.94989,111.4516c3.03495,-0.12589 5.62208,2.82882 5.7785,6.59951c0.15642,3.77071 -2.17711,6.92952 -5.21206,7.05541c-3.03495,0.12589 -5.62207,-2.82881 -5.77849,-6.59951c-0.15642,-3.77071 2.1771,-6.92952 5.21205,-7.05542z" fill="#ffffff" stroke="none" stroke-width="0" stroke-linecap="butt"/><path d="M235.08406,143.59387c0,0 1.15487,-10.74501 11.34239,-9.35237c9.90109,-0.74627 9.27834,9.49884 9.27834,9.49884" fill="none" stroke="#000000" stroke-width="2" stroke-linecap="round"/><path d="M246.62535,104.47713l-8.09725,8.09725l-8.09724,-8.09725" fill="none" stroke="#000000" stroke-width="2" stroke-linecap="round"/><path d="M228.52068,175.95617c0,4.42976 -2.08933,8.0208 -4.66665,8.0208c-2.57732,0 -4.66665,-3.59103 -4.66665,-8.0208c0,-4.42976 2.08933,-8.0208 4.66665,-8.0208c2.57732,0 4.66665,3.59103 4.66665,8.0208z" data-paper-data="{&quot;index&quot;:null}" fill="#ffd499" stroke="#dfba86" stroke-width="2" stroke-linecap="butt"/><path d="M284.24992,178.49657c0,4.26868 -2.48108,7.72913 -5.54164,7.72913c-3.06056,0 -5.54164,-3.46045 -5.54164,-7.72913c0,-4.26868 2.48108,-7.72913 5.54164,-7.72913c3.06056,0 5.54164,3.46045 5.54164,7.72913z" data-paper-data="{&quot;index&quot;:null}" fill="#ffd499" stroke="#dfba86" stroke-width="2" stroke-linecap="butt"/><path d="M231.56934,111.47049c3.03496,-0.12589 5.62207,2.8288 5.77849,6.59951c0.15642,3.7707 -2.17709,6.92952 -5.21205,7.05541c-3.03496,0.12589 -5.62207,-2.8288 -5.77849,-6.59951c-0.15642,-3.7707 2.17709,-6.92952 5.21205,-7.05541z" fill="#ffffff" stroke="none" stroke-width="0" stroke-linecap="butt"/><path d="M230.0288,122.18937v-5.28571" fill="none" stroke="#000000" stroke-width="2" stroke-linecap="round"/><path d="M245.31451,122.33223v-5.28571" fill="none" stroke="#000000" stroke-width="2" stroke-linecap="round"/></g></g></svg>