<svg version="1.1" xmlns="http://www.w3.org/2000/svg" xmlns:xlink="http://www.w3.org/1999/xlink" width="455.70871" height="145.2039" viewBox="0,0,455.70871,145.2039"><g transform="translate(-26.64074,-215.15957)"><g data-paper-data="{&quot;isPaintingLayer&quot;:true}" fill-rule="nonzero" stroke="none" stroke-width="0" stroke-linecap="butt" stroke-linejoin="miter" stroke-miterlimit="10" stroke-dasharray="" stroke-dashoffset="0" style="mix-blend-mode: normal"><path d="M260.62798,360.36346v-75.56741h221.7165v75.56742z" fill="#d69b00"/><path d="M260.62798,294.50088v-20.66222h221.72147v20.66222l-22.65183,25.13352l-22.33125,-27.86704l-16.78437,27.06054l-28.01583,-27.71875l-23.76746,18.55532l-29.28176,-15.93977l-29.12466,17.91163l-19.32166,-14.01149l-17.70459,17.92812z" fill="#00d624"/><path d="M27.00798,279.81383v-25.85106h81.14362v25.85106z" data-paper-data="{&quot;index&quot;:null}" fill="#da7600"/><path d="M167.00798,241.01063v-25.85106h81.14362v25.85106z" data-paper-data="{&quot;index&quot;:null}" fill="#da7600"/><g><path d="M166.14074,241.08795v-25.31741h82.2165v25.31742z" fill="#d69b00"/><path d="M166.64074,223.59527v-8.02912h81.83033v8.02912l-8.36007,9.76662l-8.24175,-10.82883l-6.19458,10.51544l-10.33975,-10.77122l-8.77182,7.21041l-10.80696,-6.19403l-10.74899,6.96027l-7.13101,-5.44472l-6.5342,6.96668z" fill="#00d624"/></g><g><path d="M26.64074,279.58795v-25.31742h82.2165v25.31742z" fill="#d69b00"/><path d="M27.14074,262.09526v-8.02912h81.83033v8.02912l-8.36007,9.76662l-8.24175,-10.82884l-6.19458,10.51544l-10.33975,-10.77121l-8.77181,7.2104l-10.80696,-6.19403l-10.74898,6.96027l-7.13101,-5.44472l-6.5342,6.96668z" fill="#00d624"/></g></g></g></svg>