<svg version="1.1" xmlns="http://www.w3.org/2000/svg" xmlns:xlink="http://www.w3.org/1999/xlink" width="482.4036" height="127.5461" viewBox="0,0,482.4036,127.5461"><g transform="translate(0.7018,-239.4344)"><g data-paper-data="{&quot;isPaintingLayer&quot;:true}" fill-rule="nonzero" stroke="none" stroke-width="0" stroke-linecap="butt" stroke-linejoin="miter" stroke-miterlimit="10" stroke-dasharray="" stroke-dashoffset="0" style="mix-blend-mode: normal"><path d="M269.67954,365.9805v-54.5621h212.02226v54.56209z" data-paper-data="{&quot;index&quot;:null}" fill="#d69b00"/><path d="M469.49907,337.1487l-16.96055,-17.92812l-18.50967,14.01149l-27.90069,-17.91163l-28.0512,15.93977l-22.76864,-18.55532l-26.83847,27.71874l-16.079,-27.06054l-21.39277,27.86705l-21.69988,-25.13352v-20.66222h212.4036v20.66222z" data-paper-data="{&quot;index&quot;:null}" fill="#00ff2a"/><path d="M140.53411,366.9805v-81.70776h131.16769v81.70774z" data-paper-data="{&quot;index&quot;:null}" fill="#d69b00"/><path d="M264.15257,312.37831l-10.49265,-18.88637l-11.45102,14.7604l-17.26078,-18.869l-17.35389,16.79174l-14.08583,-19.54709l-16.60363,29.2003l-9.94728,-28.50691l-13.23465,29.35653l-13.42464,-26.4769v-21.76661h131.4036v21.76661z" data-paper-data="{&quot;index&quot;:null}" fill="#00ff2a"/><path d="M-0.44973,362.9805v-107.5621h140.15153v107.56208z" data-paper-data="{&quot;index&quot;:null}" fill="#d69b00"/><path d="M131.63553,281.1487l-11.21131,-17.92812l-12.23531,14.01149l-18.44299,-17.91163l-18.54248,15.93977l-15.05059,-18.55532l-17.74084,27.71874l-10.62859,-27.06054l-14.14111,27.86705l-14.34411,-25.13352v-20.66222h140.4036v20.66222z" data-paper-data="{&quot;index&quot;:null}" fill="#00ff2a"/></g></g></svg>