<svg version="1.1" xmlns="http://www.w3.org/2000/svg" xmlns:xlink="http://www.w3.org/1999/xlink" width="107.48423" height="194.11403" viewBox="0,0,107.48423,194.11403"><g transform="translate(-186.25788,-82.94299)"><g data-paper-data="{&quot;isPaintingLayer&quot;:true}" fill-rule="nonzero" stroke-linejoin="miter" stroke-miterlimit="10" stroke-dasharray="" stroke-dashoffset="0" style="mix-blend-mode: normal"><path d="M214.50789,274.89658l-10.75,-18.5h23.25z" fill="#9e9e9e" stroke="#000000" stroke-width="1.5" stroke-linecap="butt"/><path d="M241.75789,274.64658l-10.75,-18.5h23.25z" fill="#9e9e9e" stroke="#000000" stroke-width="1.5" stroke-linecap="butt"/><path d="M266.75789,275.14658l-10.75,-18.5h23.25z" fill="#9e9e9e" stroke="#000000" stroke-width="1.5" stroke-linecap="butt"/><path d="M277.75789,275.64658l-10.75,-18.5h23.25z" fill="#9e9e9e" stroke="#000000" stroke-width="1.5" stroke-linecap="butt"/><path d="M187.25789,256.14658v-16h102.75v16z" fill="#989898" stroke="#000000" stroke-width="2" stroke-linecap="butt"/><path d="M187.25789,246.39658v-16h102.75v16z" fill="#d4d4d4" stroke="#000000" stroke-width="2" stroke-linecap="butt"/><path d="M202.50789,274.39658l-10.75,-18.5h23.25z" fill="#9e9e9e" stroke="#000000" stroke-width="1.5" stroke-linecap="butt"/><path d="M227.00789,275.14658l-10.75,-18.5h23.25z" fill="#9e9e9e" stroke="#000000" stroke-width="1.5" stroke-linecap="butt"/><path d="M255.25789,274.89658l-10.75,-18.5h23.25z" fill="#9e9e9e" stroke="#000000" stroke-width="1.5" stroke-linecap="butt"/><path d="M201.25789,246.64658v-87.75h12.75v87.75z" fill="#9e9e9e" stroke="#000000" stroke-width="1.5" stroke-linecap="butt"/><path d="M223.11047,127.09656c0,-17.25902 13.9912,-31.25022 31.25022,-31.25022c17.25902,0 31.25022,13.9912 31.25022,31.25022c0,17.25902 -13.9912,31.25022 -31.25022,31.25022c-17.25902,0 -31.25022,-13.9912 -31.25022,-31.25022z" fill="#ffd499" stroke="#dfba86" stroke-width="2" stroke-linecap="butt"/><path d="M237.34325,132.3565v-12.06692" fill="none" stroke="#000000" stroke-width="2" stroke-linecap="round"/><path d="M255.90774,114.41083l-11.75751,9.28224l-12.37633,-7.11639" fill="none" stroke="#000000" stroke-width="2" stroke-linecap="round"/><path d="M250.95721,132.6659l-0.30941,-13.30455" fill="none" stroke="#000000" stroke-width="2" stroke-linecap="round"/><path d="M232.70213,140.71051c0,0 6.96475,-4.50067 10.55271,-4.71812c3.16612,-0.19188 9.86822,3.48049 9.86822,3.48049z" fill="none" stroke="#000000" stroke-width="2" stroke-linecap="round"/><path d="M244.45963,139.78229v-3.09408" fill="none" stroke="#000000" stroke-width="2" stroke-linecap="round"/><path d="M240.43733,140.09169v-3.40349" fill="none" stroke="#000000" stroke-width="2" stroke-linecap="round"/><path d="M227.11277,111.64442l-8.66499,-21.02062l20.37877,7.06036l12.0347,-12.51609l0.64185,5.6162l1.44416,-0.80231l13.96026,-3.20925l-0.48139,5.77666l6.8999,0.16046l-1.60463,3.69064l19.25553,4.65342l-7.70221,4.17203l-6.8999,2.08602l-10.59054,-1.44416l-8.1836,3.85111l-11.39285,-1.2837l-9.30684,4.01157z" fill="#000000" stroke="#121212" stroke-width="2" stroke-linecap="round"/><path d="M235.44527,205.03372c0,0 -1.79596,-8.80309 -1.44472,-16.36419c0.43195,-9.29845 3.84472,-35.30018 3.84472,-35.30018h30.4181c0,0 2.19453,20.98577 2.39342,29.54874c0.20109,8.65745 -1.19342,22.11563 -1.19342,22.11563z" fill="#090051" stroke="#040022" stroke-width="2" stroke-linecap="butt"/><path d="M207.54789,192.34812c0,-4.6083 3.73576,-8.34406 8.34406,-8.34406c4.6083,0 8.34406,3.73576 8.34406,8.34406c0,4.6083 -3.73576,8.34406 -8.34406,8.34406c-4.6083,0 -8.34406,-3.73576 -8.34406,-8.34406z" fill="#ffd499" stroke="#dfba86" stroke-width="2" stroke-linecap="butt"/><path d="M207.0665,158.65095c0,-2.74725 2.22709,-4.97434 4.97434,-4.97434c2.74725,0 4.97434,2.22709 4.97434,4.97434c0,2.74725 -2.22709,4.97434 -4.97434,4.97434c-2.74725,0 -4.97434,-2.22709 -4.97434,-4.97434z" fill="#ffd499" stroke="#dfba86" stroke-width="2" stroke-linecap="butt"/><path d="M234.78289,222.09658v-16.8h10.8v16.8z" fill="#090051" stroke="#040022" stroke-width="2" stroke-linecap="butt"/><path d="M251.98289,222.09658v-17.4h17.4v17.4z" fill="#090051" stroke="#040022" stroke-width="2" stroke-linecap="butt"/><path d="M223.58289,229.69658v-8.8h23.4v8.8z" fill="#8a7e00" stroke="#040022" stroke-width="2" stroke-linecap="butt"/><path d="M249.98289,229.09658v-7h19.4v7z" fill="#8a7e00" stroke="#040022" stroke-width="2" stroke-linecap="butt"/></g></g></svg>