<svg version="1.1" xmlns="http://www.w3.org/2000/svg" xmlns:xlink="http://www.w3.org/1999/xlink" width="34.24282" height="88.39388" viewBox="0,0,34.24282,88.39388"><defs><linearGradient x1="240.91031" y1="148.45676" x2="239.77149" y2="151.22367" gradientUnits="userSpaceOnUse" id="color-1"><stop offset="0" stop-color="#dadada"/><stop offset="1" stop-color="#616161"/></linearGradient><linearGradient x1="240.25799" y1="156.14014" x2="241.39682" y2="160.21974" gradientUnits="userSpaceOnUse" id="color-2"><stop offset="0" stop-color="#dadada"/><stop offset="1" stop-color="#616161"/></linearGradient><linearGradient x1="240.91031" y1="164.91879" x2="239.77149" y2="168.99841" gradientUnits="userSpaceOnUse" id="color-3"><stop offset="0" stop-color="#dadada"/><stop offset="1" stop-color="#616161"/></linearGradient><linearGradient x1="240.09582" y1="173.40484" x2="241.23464" y2="177.48444" gradientUnits="userSpaceOnUse" id="color-4"><stop offset="0" stop-color="#dadada"/><stop offset="1" stop-color="#616161"/></linearGradient><linearGradient x1="240.09582" y1="185.38523" x2="241.23464" y2="181.30564" gradientUnits="userSpaceOnUse" id="color-5"><stop offset="0" stop-color="#dadada"/><stop offset="1" stop-color="#616161"/></linearGradient><linearGradient x1="240.58233" y1="148.45676" x2="241.72114" y2="151.22367" gradientUnits="userSpaceOnUse" id="color-6"><stop offset="0" stop-color="#dadada"/><stop offset="1" stop-color="#616161"/></linearGradient><linearGradient x1="241.23464" y1="156.14014" x2="240.09582" y2="160.21974" gradientUnits="userSpaceOnUse" id="color-7"><stop offset="0" stop-color="#dadada"/><stop offset="1" stop-color="#616161"/></linearGradient><linearGradient x1="240.58233" y1="164.91879" x2="241.72114" y2="168.99841" gradientUnits="userSpaceOnUse" id="color-8"><stop offset="0" stop-color="#dadada"/><stop offset="1" stop-color="#616161"/></linearGradient><linearGradient x1="241.39682" y1="173.40484" x2="240.25799" y2="177.48444" gradientUnits="userSpaceOnUse" id="color-9"><stop offset="0" stop-color="#dadada"/><stop offset="1" stop-color="#616161"/></linearGradient><linearGradient x1="241.39682" y1="185.38523" x2="240.25799" y2="181.30564" gradientUnits="userSpaceOnUse" id="color-10"><stop offset="0" stop-color="#dadada"/><stop offset="1" stop-color="#616161"/></linearGradient><linearGradient x1="240.56109" y1="188.65041" x2="240.56109" y2="200.3125" gradientUnits="userSpaceOnUse" id="color-11"><stop offset="0" stop-color="#cccccc"/><stop offset="1" stop-color="#929292"/></linearGradient><linearGradient x1="240.56109" y1="188.65041" x2="240.56109" y2="200.3125" gradientUnits="userSpaceOnUse" id="color-12"><stop offset="0" stop-color="#bcbcbc"/><stop offset="1" stop-color="#787878"/></linearGradient><linearGradient x1="240.56109" y1="138.5349" x2="240.56109" y2="150.197" gradientUnits="userSpaceOnUse" id="color-13"><stop offset="0" stop-color="#cccccc"/><stop offset="1" stop-color="#929292"/></linearGradient><linearGradient x1="240.56109" y1="138.5349" x2="240.56109" y2="150.197" gradientUnits="userSpaceOnUse" id="color-14"><stop offset="0" stop-color="#bcbcbc"/><stop offset="1" stop-color="#787878"/></linearGradient></defs><g transform="translate(-223.43969,-113.16862)"><g data-paper-data="{&quot;isPaintingLayer&quot;:true}" fill-rule="nonzero" stroke-linecap="butt" stroke-linejoin="miter" stroke-miterlimit="10" stroke-dasharray="" stroke-dashoffset="0" style="mix-blend-mode: normal"><g stroke="none" stroke-width="0"><path d="M230.28131,147.9812l1.13882,-2.76691l18.98035,6.48492l-1.13882,2.76691z" fill="url(#color-1)"/><path d="M231.90663,165.00053l-1.13882,-4.0796l18.98036,-9.56157l1.13882,4.0796z" data-paper-data="{&quot;index&quot;:null}" fill="url(#color-2)"/><path d="M230.28131,164.21762l1.13882,-4.0796l18.98036,9.56156l-1.13882,4.0796z" data-paper-data="{&quot;index&quot;:null}" fill="url(#color-3)"/><path d="M231.74447,182.26522l-1.13882,-4.0796l18.98036,-9.56156l1.13882,4.0796z" data-paper-data="{&quot;index&quot;:null}" fill="url(#color-4)"/><path d="M250.72481,186.08642l-1.13882,4.0796l-18.98036,-9.56156l1.13882,-4.0796z" data-paper-data="{&quot;index&quot;:null}" fill="url(#color-5)"/><path d="M232.23097,154.46612l-1.13882,-2.76691l18.98036,-6.48492l1.13882,2.76691z" data-paper-data="{&quot;index&quot;:null}" fill="url(#color-6)"/><path d="M230.60565,155.43897l1.13882,-4.0796l18.98036,9.56157l-1.13882,4.0796z" data-paper-data="{&quot;index&quot;:null}" fill="url(#color-7)"/><path d="M232.23097,173.77919l-1.13882,-4.0796l18.98036,-9.56156l1.13882,4.0796z" data-paper-data="{&quot;index&quot;:null}" fill="url(#color-8)"/><path d="M230.76781,172.70367l1.13882,-4.0796l18.98036,9.56156l-1.13882,4.0796z" data-paper-data="{&quot;index&quot;:null}" fill="url(#color-9)"/><path d="M249.74817,176.52485l1.13882,4.0796l-18.98036,9.56156l-1.13882,-4.0796z" data-paper-data="{&quot;index&quot;:null}" fill="url(#color-10)"/></g><path d="M228.32026,200.3125v-11.6621h24.48168v11.6621z" fill="url(#color-11)" stroke="url(#color-12)" stroke-width="2.5"/><path d="M224.68969,150.197v-29.96515c0,0 10.63944,-5.81323 15.87096,-5.81323c5.34691,0 15.87186,7.53994 15.87186,7.53994v28.23845c0,0 -10.81308,-2.10494 -16.04475,-2.10494c-5.34676,0 -15.69807,2.10494 -15.69807,2.10494z" fill="url(#color-13)" stroke="url(#color-14)" stroke-width="2.5"/></g></g></svg>