<svg version="1.1" xmlns="http://www.w3.org/2000/svg" xmlns:xlink="http://www.w3.org/1999/xlink" width="480" height="360" viewBox="0,0,480,360"><g transform="translate(0.65055,0)"><g data-paper-data="{&quot;isPaintingLayer&quot;:true}" fill-rule="nonzero" stroke="none" stroke-width="0" stroke-linecap="butt" stroke-linejoin="miter" stroke-miterlimit="10" stroke-dasharray="" stroke-dashoffset="0" style="mix-blend-mode: normal"><path d="M-0.65055,359.99995v-347.57821h186.71057v347.57826z" fill="#d69b00"/><path d="M-0.65055,19.80801v-19.80801h186.71475v19.80801l-19.07542,24.09446l-18.80546,-26.71497l-14.13433,25.94181l-23.59253,-26.57281l-20.0149,17.78821l-24.6586,-15.28079l-24.52628,17.17113l-16.27105,-13.43223l-14.9093,17.18694z" fill="#00d624"/><path d="M181.90156,359.99998v-124.21086h189.7062v124.21088z" fill="#d69b00"/><path d="M181.90156,239.34078v-19.80801h189.71045v19.80801l-19.38148,24.09446l-19.10718,-26.71497l-14.36111,25.94181l-23.97106,-26.57281l-20.33604,17.78821l-25.05421,-15.28079l-24.91979,17.17113l-16.53209,-13.43223l-15.1485,17.18694z" fill="#00d624"/><path d="M368.97479,359.99999v-47.51821h109.34526v47.51822z" fill="#d69b00"/><path d="M367.94965,316.03344v-19.80801h111.39979v19.80801l-11.38099,24.09446l-11.21992,-26.71497l-8.43299,25.94181l-14.07604,-26.57281l-11.94152,17.78821l-14.71208,-15.28079l-14.63315,17.17113l-9.7078,-13.43223l-8.89534,17.18694z" fill="#00d624"/></g></g></svg>