<svg version="1.1" xmlns="http://www.w3.org/2000/svg" xmlns:xlink="http://www.w3.org/1999/xlink" width="76.5" height="200.5" viewBox="0,0,76.5,200.5"><g transform="translate(-202.59724,-80.26111)"><g data-paper-data="{&quot;isPaintingLayer&quot;:true}" fill-rule="nonzero" stroke-linejoin="miter" stroke-miterlimit="10" stroke-dasharray="" stroke-dashoffset="0" style="mix-blend-mode: normal"><g id="ID0.14264652878046036" stroke-width="2"><path d="M240.09724,233.66111c0.488,-2.536 5.169,-0.316 7.75,-0.25c0.686,0.018 1.316,0.443 2,0.5c1.327,0.111 2.698,-0.283 4,0c0.7,0.152 1.287,0.703 1.75,1.25c0.481,0.568 0.778,1.289 1,2c0.2,0.641 0.292,1.33 0.25,2c-0.126,2.01 -0.61,3.991 -0.75,6c-0.11,1.578 0.117,3.173 0,4.75c-0.051,0.685 -0.225,1.371 -0.5,2c-0.315,0.72 -0.627,1.521 -1.25,2c-0.544,0.419 -1.456,0.081 -2,0.5c-0.623,0.479 -0.604,1.553 -1.25,2c-0.552,0.382 -1.369,0.479 -2,0.25c-1.302,-0.474 -2.392,-1.419 -3.5,-2.25c-0.565,-0.424 -1.081,0.082 -1.5,-1.5c-1.677,-6.329 -5.236,-12.821 -0.25,-19z" id="ID0.17920746188610792" fill="#ffd499" stroke="#ffd499" stroke-linecap="round"/><g id="ID0.9278047611005604"><path d="M257.84724,249.51111v5c0.505,0.956 1.95,0.85 3,1.25c1.3,0.45 2.7,0.7 4,1.25c2,0.8 4,1.7 6,2.75c0.6,0.3 1.1,0.85 1.75,1.25c0.55,0.35 1.2,0.55 1.75,1c0.55,0.45 1.2,1 1.5,1.75c0.55,1.3 0.6,2.8 1,4.25c0.15,0.65 0.55,1.3 0.75,2c0.15,0.65 0.25,1.3 0.25,2c0,0.65 -0.1,1.3 -0.25,2c-0.2,0.65 -0.65,1.3 -0.75,2c-0.2,0.95 2.5,2.75 -0.25,3h-37l-0.25,-29.5z" id="ID0.7963717300444841" fill="#ff0000" stroke="#cc0000" stroke-linecap="round"/><path d="M238.59724,273.51111h39.5v5.75h-39.5z" id="ID0.23636615462601185" fill="#e5e5e5" stroke="#b2b2b2" stroke-linecap="butt"/><path d="M273.09724,260.01111c0,0 -1.311,1.357 -2,2c-0.561,0.524 -1.176,0.99 -1.75,1.5c-0.176,0.156 -0.5,0.5 -0.5,0.5" id="ID0.6116329785436392" fill="none" stroke="#ffffff" stroke-linecap="round"/><path d="M268.34724,258.01111c0,0 -1.311,1.357 -2,2c-0.561,0.524 -1.176,0.99 -1.75,1.5c-0.176,0.156 -0.5,0.5 -0.5,0.5" id="ID0.6116329785436392" fill="none" stroke="#ffffff" stroke-linecap="round"/><path d="M263.19724,255.66111c0,0 -1.311,1.357 -2,2c-0.561,0.524 -1.176,0.99 -1.75,1.5c-0.176,0.156 -0.5,0.5 -0.5,0.5" id="ID0.6116329785436392" fill="none" stroke="#ffffff" stroke-linecap="round"/></g></g><g id="ID0.14264652878046036" stroke-width="2"><path d="M219.59724,234.26111c0.488,-2.536 5.169,-0.316 7.75,-0.25c0.686,0.018 1.316,0.443 2,0.5c1.327,0.111 2.698,-0.283 4,0c0.7,0.152 1.287,0.703 1.75,1.25c0.481,0.568 0.778,1.289 1,2c0.2,0.641 0.292,1.33 0.25,2c-0.126,2.01 -0.61,3.991 -0.75,6c-0.11,1.578 0.117,3.173 0,4.75c-0.051,0.685 -0.225,1.371 -0.5,2c-0.315,0.72 -0.627,1.521 -1.25,2c-0.544,0.419 -1.456,0.081 -2,0.5c-0.623,0.479 -0.604,1.553 -1.25,2c-0.552,0.382 -1.369,0.479 -2,0.25c-1.302,-0.474 -2.392,-1.419 -3.5,-2.25c-0.565,-0.424 -1.081,0.082 -1.5,-1.5c-1.677,-6.329 -5.236,-12.821 -0.25,-19z" id="ID0.17920746188610792" fill="#ffd499" stroke="#ffd499" stroke-linecap="round"/><g id="ID0.9278047611005604"><path d="M237.34724,250.01111v5c0.505,0.956 1.95,0.85 3,1.25c1.3,0.45 2.7,0.7 4,1.25c2,0.8 4,1.7 6,2.75c0.6,0.3 1.1,0.85 1.75,1.25c0.55,0.35 1.2,0.55 1.75,1c0.55,0.45 1.2,1 1.5,1.75c0.55,1.3 0.6,2.8 1,4.25c0.15,0.65 0.55,1.3 0.75,2c0.15,0.65 0.25,1.3 0.25,2c0,0.65 -0.1,1.3 -0.25,2c-0.2,0.65 -0.65,1.3 -0.75,2c-0.2,0.95 2.5,2.75 -0.25,3h-37l-0.25,-29.5z" id="ID0.7963717300444841" fill="#ff0000" stroke="#cc0000" stroke-linecap="round"/><path d="M218.09724,274.01111h39.5v5.75h-39.5z" id="ID0.23636615462601185" fill="#e5e5e5" stroke="#b2b2b2" stroke-linecap="butt"/><path d="M252.59724,260.51111c0,0 -1.311,1.357 -2,2c-0.561,0.524 -1.176,0.99 -1.75,1.5c-0.176,0.156 -0.5,0.5 -0.5,0.5" id="ID0.6116329785436392" fill="none" stroke="#ffffff" stroke-linecap="round"/><path d="M247.84724,258.51111c0,0 -1.311,1.357 -2,2c-0.561,0.524 -1.176,0.99 -1.75,1.5c-0.176,0.156 -0.5,0.5 -0.5,0.5" id="ID0.6116329785436392" fill="none" stroke="#ffffff" stroke-linecap="round"/><path d="M242.69724,256.26111c0,0 -1.311,1.357 -2,2c-0.561,0.524 -1.176,0.99 -1.75,1.5c-0.176,0.156 -0.5,0.5 -0.5,0.5" id="ID0.6116329785436392" fill="none" stroke="#ffffff" stroke-linecap="round"/></g></g><g id="ID0.2955229333601892"><path d="M251.38317,172.81038c0.04829,-0.83216 0.1867,-0.67785 0.4738,-0.76682c0.71576,-0.22185 1.5001,-0.05184 2.24866,-0.07771c2.24666,-0.07764 4.51132,-0.4741 6.74597,-0.23314c0.78037,0.0841 1.70823,0.46928 2.04198,1.18018c0.32617,0.69415 -0.4175,1.49831 -0.42199,2.26593c-0.00689,1.33503 0.17638,2.6715 0.38801,3.98898c0.10847,0.67766 0.46527,1.30271 0.56878,1.98154c0.11364,0.74052 0.05184,1.5001 0.07771,2.24866c0.023,0.6656 0.09911,1.33337 0.06908,1.99881c-0.06489,1.42309 -0.28802,2.84164 -0.35291,4.26473c-0.03003,0.66543 0.04607,1.3332 0.06908,1.99881c0.023,0.6656 0.04607,1.3332 0.06908,1.99881c0.023,0.6656 0.29459,1.37264 0.06908,1.99881c-0.2602,0.72242 -0.725,1.51795 -1.43866,1.80076c-0.63864,0.25321 -1.33058,-0.39928 -2.01608,-0.43062c-1.41406,-0.0642 -2.83331,0.09792 -4.24746,0.14679c-0.6656,0.023 -1.38543,0.33005 -1.99881,0.06908c-0.75861,-0.32299 -1.43481,-0.95401 -1.8094,-1.68851c-0.30269,-0.5939 -0.04462,-1.29123 -0.06908,-1.99881c-0.09778,-2.82931 -0.12987,-5.6689 -0.29358,-8.49493c-0.04403,-0.75293 -0.31578,-1.40693 -0.32756,-2.24002c-0.04716,-3.33336 -0.03983,-6.68261 -0.5866,-9.73555z" id="ID0.022129699122160673" fill="#000000" stroke="#000000" stroke-width="2" stroke-linecap="round"/><path d="M264.5906,198.65993c1.17862,1.7007 1.51043,3.7525 1.09259,5.69345c-0.41655,1.94104 -1.58192,3.77067 -3.39589,5.02779c-1.81397,1.25712 -3.93628,1.70592 -5.9,1.41446c-1.96408,-0.29023 -3.76876,-1.32129 -4.94739,-3.02199c-1.17862,-1.7007 -1.51043,-3.7525 -1.09259,-5.69345c0.41655,-1.94104 1.58192,-3.77067 3.39589,-5.02779c1.81397,-1.25712 3.93628,-1.70592 5.9,-1.41446c1.96408,0.29023 3.76876,1.32129 4.94739,3.02199z" id="ID0.19317426113411784" fill="#ffd499" stroke="none" stroke-width="1" stroke-linecap="butt"/></g><path d="M221.59724,211.76111c0.077,-0.83 0.21,-0.671 0.5,-0.75c0.723,-0.197 1.501,0 2.25,0c2.248,0 4.525,-0.318 6.75,0c0.777,0.111 1.691,0.528 2,1.25c0.302,0.705 -0.469,1.483 -0.5,2.25c-0.053,1.334 0.084,2.676 0.25,4c0.085,0.681 0.42,1.318 0.5,2c0.088,0.744 0,1.501 0,2.25c0,0.666 0.053,1.336 0,2c-0.114,1.42 -0.386,2.83 -0.5,4.25c-0.053,0.664 0,1.334 0,2c0,0.666 0,1.334 0,2c0,0.666 0.247,1.382 0,2c-0.285,0.713 -0.777,1.492 -1.5,1.75c-0.647,0.231 -1.316,-0.445 -2,-0.5c-1.411,-0.113 -2.835,0 -4.25,0c-0.666,0 -1.396,0.282 -2,0c-0.747,-0.349 -1.401,-1.003 -1.75,-1.75c-0.282,-0.604 0,-1.292 0,-2c0,-2.831 0.066,-5.67 0,-8.5c-0.018,-0.754 -0.267,-1.417 -0.25,-2.25c0.068,-3.333 0.191,-6.68 -0.25,-9.75z" id="ID0.022129699122160673" fill="#000000" stroke="#000000" stroke-width="2" stroke-linecap="round"/><path d="M244.34724,211.76111c0.077,-0.83 0.21,-0.671 0.5,-0.75c0.723,-0.197 1.501,0 2.25,0c2.248,0 4.525,-0.318 6.75,0c0.777,0.111 1.691,0.528 2,1.25c0.302,0.705 -0.469,1.483 -0.5,2.25c-0.053,1.334 0.084,2.676 0.25,4c0.085,0.681 0.42,1.318 0.5,2c0.088,0.744 0,1.501 0,2.25c0,0.666 0.053,1.336 0,2c-0.114,1.42 -0.386,2.83 -0.5,4.25c-0.053,0.664 0,1.334 0,2c0,0.666 0,1.334 0,2c0,0.666 0.247,1.382 0,2c-0.285,0.713 -0.777,1.492 -1.5,1.75c-0.647,0.231 -1.316,-0.445 -2,-0.5c-1.411,-0.113 -2.835,0 -4.25,0c-0.666,0 -1.396,0.282 -2,0c-0.747,-0.349 -1.401,-1.003 -1.75,-1.75c-0.282,-0.604 0,-1.292 0,-2c0,-2.831 0.066,-5.67 0,-8.5c-0.018,-0.754 -0.267,-1.417 -0.25,-2.25c0.068,-3.333 0.191,-6.68 -0.25,-9.75z" id="ID0.022129699122160673" fill="#000000" stroke="#000000" stroke-width="2" stroke-linecap="round"/><path d="M239.38383,162.76111c3.78802,-0.625 6.93493,1.153 9.7074,3c4.15178,2.779 8.68226,6.39 10.50746,11c1.85401,4.683 0.0544,9.835 -0.21335,15c-0.36056,6.981 2.45779,15.115 -1.71426,20.927c-3.82429,5.321 -11.15071,8.573 -18.28725,8.573c-7.13654,0 -14.39576,-3.328 -18.28725,-8.573c-4.08351,-5.508 -2.31484,-13.46 -2.24764,-20.427c-0.06721,-6.881 -1.98202,-14.938 2.24764,-20.927c3.76242,-5.328 11.59448,-7.305 18.28725,-8.573z" id="ID0.8979470622725785" fill="#000000" stroke="#000000" stroke-width="2" stroke-linecap="round"/><g id="ID0.2955229333601892"><path d="M229.23415,174.03324c0.02662,-0.83314 0.169,-0.68248 0.45369,-0.77889c0.70975,-0.2404 1.49825,-0.09085 2.24587,-0.13619c2.24388,-0.13607 4.49745,-0.59131 6.73762,-0.40857c0.78229,0.06377 1.71986,0.42468 2.07199,1.12665c0.34412,0.68543 -0.37838,1.50867 -0.36289,2.27614c0.02784,1.33476 0.24582,2.66601 0.49166,3.97753c0.12606,0.67461 0.49901,1.29016 0.62014,1.96607c0.13287,0.73731 0.09085,1.49825 0.13619,2.24587c0.04031,0.66478 0.13377,1.33034 0.12106,1.99633c-0.02784,1.4243 -0.214,2.84818 -0.24184,4.27247c-0.01271,0.66599 0.08075,1.33155 0.12106,1.99633c0.04031,0.66478 0.08075,1.33155 0.12106,1.99633c0.04031,0.66478 0.3302,1.36452 0.12106,1.99633c-0.24132,0.72894 -0.68527,1.5363 -1.39132,1.83758c-0.63183,0.26974 -1.34052,-0.36453 -2.0266,-0.37803c-1.41525,-0.02739 -2.8298,0.1716 -4.24221,0.25725c-0.66478,0.04031 -1.37637,0.36598 -1.99633,0.12106c-0.76675,-0.30314 -1.45914,-0.91636 -1.85272,-1.64087c-0.31804,-0.58582 -0.0782,-1.28963 -0.12106,-1.99633c-0.17136,-2.82581 -0.27732,-5.6636 -0.5145,-8.48441c-0.06361,-0.75153 -0.35228,-1.39824 -0.38573,-2.23074c-0.13387,-3.331 -0.21368,-6.67931 -0.8397,-9.71699z" id="ID0.022129699122160673" fill="#000000" stroke="#000000" stroke-width="2" stroke-linecap="round"/><path d="M243.10992,199.48403c1.22247,1.66946 1.60754,3.71193 1.24035,5.66309c-0.36591,1.95122 -1.48328,3.81055 -3.26393,5.11444c-1.78065,1.30389 -3.89056,1.80776 -5.8612,1.56748c-1.97097,-0.23903 -3.80186,-1.22279 -5.02434,-2.89225c-1.22247,-1.66946 -1.60754,-3.71193 -1.24035,-5.66309c0.36591,-1.95122 1.48328,-3.81055 3.26393,-5.11444c1.78065,-1.30389 3.89056,-1.80776 5.8612,-1.56748c1.97097,0.23903 3.80186,1.22279 5.02434,2.89225z" id="ID0.19317426113411784" fill="#ffd499" stroke="none" stroke-width="1" stroke-linecap="butt"/></g><path d="M223.59724,131.76111c-0.183,0.037 -0.646,-0.447 -1,-0.5c-0.689,-0.14 -1.4,0.15 -2,0c-0.75,-0.2 -1.35,-0.75 -2,-1c-1,-0.4 -2.1,-0.55 -3,-1c-0.75,-0.4 -1.3,-1.1 -2,-1.5c-0.65,-0.4 -1.45,-0.55 -2,-1c-1.15,-0.9 -2.05,-2 -3,-3c-1.7,-1.85 -3.7,-3.4 -5,-5.5c-0.95,-1.5 -1.35,-3.3 -1.5,-5c-0.35,-2.85 -0.15,-5.7 0,-8.5c0.05,-1.7 0.35,-3.35 0.5,-5c0.05,-1 -0.15,-2.05 0,-3c0.15,-1.4 0.45,-2.75 1,-4c0.3,-0.8 0.8,-1.55 1.5,-2c0.55,-0.4 1.3,-0.35 2,-0.5c1,-0.35 1.95,-0.7 3,-1c0.65,-0.2 1.3,-0.45 2,-0.5c0.65,-0.1 1.3,0 2,0c0.65,0 1.35,-0.2 2,0c0.7,0.15 1.35,0.55 2,1c0.55,0.4 0.9,1.05 1.5,1.5c1.1,0.85 2.3,1.65 3.5,2.5c0.65,0.45 1.3,0.95 2,1.5c0.8,0.65 1.7,1.25 2.5,2c0.7,0.6 1.45,1.2 2,2c0.45,0.7 0.6,1.65 1,2.5c0.3,0.65 0.8,2 1,2c0.15,0 -0.15,-1.35 0,-2c0.35,-2.05 0.85,-4.05 1.5,-6c0.2,-0.75 0.75,-1.3 1,-2c0.6,-2 0.8,-4.05 1.5,-6c0.35,-1.1 1,-2.05 1.5,-3c0.3,-0.7 0.55,-1.4 1,-2c0.4,-0.6 0.9,-1.15 1.5,-1.5c0.75,-0.5 1.6,-0.95 2.5,-1c0.8,-0.1 1.7,0.15 2.5,0.5c0.75,0.3 1.25,1.1 2,1.5c0.6,0.3 1.4,0.1 2,0.5c0.65,0.45 1.05,1.25 1.5,2c0.35,0.6 0.75,1.25 1,2c0.4,1.3 0.65,2.65 1,4c0.45,1.95 1.1,3.95 1.5,6c0.1,0.65 0,1.3 0,2c0,0.65 -0.1,1.3 0,2c0.05,0.65 0.1,2 0.5,2c0.35,0 0.7,-1.35 1,-2c0.2,-0.65 0.25,-1.4 0.5,-2c0.25,-0.7 0.65,-1.35 1,-2c0.3,-0.7 0.4,-1.55 1,-2c0.5,-0.45 1.3,-0.45 2,-0.5c0.65,-0.1 1.35,-0.2 2,0c0.7,0.15 1.35,0.55 2,1c0.55,0.4 0.85,1.1 1.5,1.5c0.55,0.3 1.3,0.3 2,0.5c2.15,0.5 4.4,0.7 6.5,1.5c0.65,0.2 1.1,0.85 1.5,1.5c0.3,0.55 0.15,1.35 0.5,2c0.35,0.7 1.35,1.15 1.5,2c0.35,2.25 0,4.65 0,7c0,1.65 0.3,3.35 0,5c-0.4,1.75 -1.15,3.4 -2,5c-0.35,0.6 -0.95,1.05 -1.5,1.5c-0.8,0.55 -1.7,1 -2.5,1.5c-0.7,0.35 -1.4,0.55 -2,1c-0.9,0.55 -1.65,1.4 -2.5,2c-0.65,0.4 -1.3,0.8 -2,1c-1.35,0.3 -4,0.5 -3,0c0,0 -1.716,-0.565 -2.5,-1c-0.728,-0.404 -1.458,-0.868 -2,-1.5c-0.485,-0.565 -0.515,-1.435 -1,-2c-0.542,-0.632 -1.334,-1.001 -2,-1.5c-0.666,-0.499 -1.221,-1.208 -2,-1.5c-0.624,-0.234 -1.334,0 -2,0c-2.164,0 -4.336,0 -6.5,0c-2.331,0 -4.683,-0.257 -7,0c-0.74,0.082 -1.303,0.739 -2,1c-0.643,0.241 -1.404,0.159 -2,0.5c-0.613,0.35 -0.925,1.089 -1.5,1.5c-0.606,0.433 -1.473,0.473 -2,1c-0.527,0.527 -0.638,1.349 -1,2c-0.471,0.849 -0.917,1.723 -1.5,2.5c-0.424,0.565 -1.02,0.985 -1.5,1.5c-0.522,0.57 -1.206,1.441 -1.5,2z" id="ID0.24193326709792018" fill="#000000" stroke="#000000" stroke-width="2" stroke-linecap="round"/><g id="ID0.17718650214374065"><path d="M240.71578,119.26111c6.48389,0 12.35836,2.689 16.61265,7.034c4.25429,4.345 6.88735,10.345 6.88735,16.966c0,6.621 -2.63306,12.621 -6.88735,16.966c-4.25429,4.345 -10.12876,7.034 -16.61265,7.034c-6.48389,0 -12.35836,-2.689 -16.61265,-7.034c-4.25429,-4.345 -6.88735,-10.345 -6.88735,-16.966c0,-6.621 2.63306,-12.621 6.88735,-16.966c4.25429,-4.345 10.12876,-7.034 16.61265,-7.034z" id="ID0.098620078060776" fill="#ffd499" stroke="none" stroke-width="1" stroke-linecap="butt"/><path d="M255.34724,129.76111c1.724,0 3.287,0.728 4.418,1.905c1.132,1.177 1.832,2.802 1.832,4.595c0,1.793 -0.7,3.418 -1.832,4.595c-1.131,1.177 -2.694,1.905 -4.418,1.905c-1.724,0 -3.287,-0.728 -4.418,-1.905c-1.132,-1.177 -1.832,-2.802 -1.832,-4.595c0,-1.793 0.7,-3.418 1.832,-4.595c1.131,-1.177 2.694,-1.905 4.418,-1.905z" id="ID0.3920878516510129" fill="#ffffff" stroke="#000000" stroke-width="2" stroke-linecap="butt"/><path d="M236.84724,129.76111c1.724,0 3.287,0.728 4.418,1.905c1.132,1.177 1.832,2.802 1.832,4.595c0,1.793 -0.7,3.418 -1.832,4.595c-1.131,1.177 -2.694,1.905 -4.418,1.905c-1.724,0 -3.287,-0.728 -4.418,-1.905c-1.132,-1.177 -1.832,-2.802 -1.832,-4.595c0,-1.793 0.7,-3.418 1.832,-4.595c1.131,-1.177 2.694,-1.905 4.418,-1.905z" id="ID0.3920878516510129" fill="#ffffff" stroke="#000000" stroke-width="2" stroke-linecap="butt"/><path d="M257.47224,135.01111c0.931,0 1.775,0.392 2.386,1.026c0.611,0.633 0.989,1.508 0.989,2.474c0,0.966 -0.378,1.841 -0.989,2.474c-0.611,0.634 -1.455,1.026 -2.386,1.026c-0.931,0 -1.775,-0.392 -2.386,-1.026c-0.611,-0.633 -0.989,-1.508 -0.989,-2.474c0,-0.966 0.378,-1.841 0.989,-2.474c0.611,-0.634 1.455,-1.026 2.386,-1.026z" id="ID0.6984207038767636" fill="#000000" stroke="none" stroke-width="1" stroke-linecap="butt"/><path d="M233.92224,130.01111c0.931,0 1.775,0.392 2.386,1.026c0.611,0.633 0.989,1.508 0.989,2.474c0,0.966 -0.378,1.841 -0.989,2.474c-0.611,0.634 -1.455,1.026 -2.386,1.026c-0.931,0 -1.775,-0.392 -2.386,-1.026c-0.611,-0.633 -0.989,-1.508 -0.989,-2.474c0,-0.966 0.378,-1.841 0.989,-2.474c0.611,-0.634 1.455,-1.026 2.386,-1.026z" id="ID0.6984207038767636" fill="#000000" stroke="none" stroke-width="1" stroke-linecap="butt"/><path d="M258.69724,154.41111c0.446,0.101 0.092,0.844 0,1.25c-0.327,1.439 -0.852,2.829 -1.25,4.25c-0.185,0.661 0.138,1.672 -0.5,2c-2.553,1.313 -5.477,1.756 -8.25,2.5c-0.693,0.186 -1.334,0.167 -2,0.25c-0.666,0.083 -1.329,0.25 -2,0.25c-1.501,0 -3.028,0.044 -4.5,-0.25c-0.658,-0.132 -1.255,-0.546 -1.75,-1c-0.528,-0.484 -0.882,-1.136 -1.25,-1.75c-0.383,-0.638 -0.778,-1.289 -1,-2c-0.2,-0.641 -0.25,-1.329 -0.25,-2c0,-0.671 -0.122,-1.442 0.25,-2c0.372,-0.558 1.092,-0.868 1.75,-1c0.658,-0.132 1.33,0.208 2,0.25c0.665,0.042 1.334,0 2,0c0.666,0 1.335,0.039 2,0c0.753,-0.044 1.501,-0.167 2.25,-0.25c1.498,-0.166 2.996,-0.393 4.5,-0.5c0.83,-0.059 1.668,0 2.5,0c1.832,0 3.714,-0.406 5.25,-0.25z" id="ID0.9000463099218905" fill="#000000" stroke="#000000" stroke-width="2" stroke-linecap="round"/></g></g></g></svg>