<svg version="1.1" xmlns="http://www.w3.org/2000/svg" xmlns:xlink="http://www.w3.org/1999/xlink" width="90.12468" height="182.0841" viewBox="0,0,90.12468,182.0841"><g transform="translate(-194.93778,-89.02469)"><g data-paper-data="{&quot;isPaintingLayer&quot;:true}" fill-rule="nonzero" stroke-linejoin="miter" stroke-miterlimit="10" stroke-dasharray="" stroke-dashoffset="0" style="mix-blend-mode: normal"><g id="ID0.14264652878046036" stroke-width="2"><path d="M246.06246,224.00879c0.488,-2.536 5.169,-0.316 7.75,-0.25c0.686,0.018 1.316,0.443 2,0.5c1.327,0.111 2.698,-0.283 4,0c0.7,0.152 1.287,0.703 1.75,1.25c0.481,0.568 0.778,1.289 1,2c0.2,0.641 0.292,1.33 0.25,2c-0.126,2.01 -0.61,3.991 -0.75,6c-0.11,1.578 0.117,3.173 0,4.75c-0.051,0.685 -0.225,1.371 -0.5,2c-0.315,0.72 -0.627,1.521 -1.25,2c-0.544,0.419 -1.456,0.081 -2,0.5c-0.623,0.479 -0.604,1.553 -1.25,2c-0.552,0.382 -1.369,0.479 -2,0.25c-1.302,-0.474 -2.392,-1.419 -3.5,-2.25c-0.565,-0.424 -1.081,0.082 -1.5,-1.5c-1.677,-6.329 -5.236,-12.821 -0.25,-19z" id="ID0.17920746188610792" fill="#ffd499" stroke="#ffd499" stroke-linecap="round"/><g id="ID0.9278047611005604"><path d="M263.81246,239.85879v5c0.505,0.956 1.95,0.85 3,1.25c1.3,0.45 2.7,0.7 4,1.25c2,0.8 4,1.7 6,2.75c0.6,0.3 1.1,0.85 1.75,1.25c0.55,0.35 1.2,0.55 1.75,1c0.55,0.45 1.2,1 1.5,1.75c0.55,1.3 0.6,2.8 1,4.25c0.15,0.65 0.55,1.3 0.75,2c0.15,0.65 0.25,1.3 0.25,2c0,0.65 -0.1,1.3 -0.25,2c-0.2,0.65 -0.65,1.3 -0.75,2c-0.2,0.95 2.5,2.75 -0.25,3h-37l-0.25,-29.5z" id="ID0.7963717300444841" fill="#ff00bf" stroke="#cc0099" stroke-linecap="round"/><path d="M244.56246,263.85879h39.5v5.75h-39.5z" id="ID0.23636615462601185" fill="#e5e5e5" stroke="#b2b2b2" stroke-linecap="butt"/><path d="M279.06246,250.35879c0,0 -1.311,1.357 -2,2c-0.561,0.524 -1.176,0.99 -1.75,1.5c-0.176,0.156 -0.5,0.5 -0.5,0.5" id="ID0.6116329785436392" fill="none" stroke="#ffffff" stroke-linecap="round"/><path d="M274.31246,248.35879c0,0 -1.311,1.357 -2,2c-0.561,0.524 -1.176,0.99 -1.75,1.5c-0.176,0.156 -0.5,0.5 -0.5,0.5" id="ID0.6116329785436392" fill="none" stroke="#ffffff" stroke-linecap="round"/><path d="M269.16246,246.00879c0,0 -1.311,1.357 -2,2c-0.561,0.524 -1.176,0.99 -1.75,1.5c-0.176,0.156 -0.5,0.5 -0.5,0.5" id="ID0.6116329785436392" fill="none" stroke="#ffffff" stroke-linecap="round"/></g></g><g id="ID0.14264652878046036" stroke-width="2"><path d="M225.56246,224.60879c0.488,-2.536 5.169,-0.316 7.75,-0.25c0.686,0.018 1.316,0.443 2,0.5c1.327,0.111 2.698,-0.283 4,0c0.7,0.152 1.287,0.703 1.75,1.25c0.481,0.568 0.778,1.289 1,2c0.2,0.641 0.292,1.33 0.25,2c-0.126,2.01 -0.61,3.991 -0.75,6c-0.11,1.578 0.117,3.173 0,4.75c-0.051,0.685 -0.225,1.371 -0.5,2c-0.315,0.72 -0.627,1.521 -1.25,2c-0.544,0.419 -1.456,0.081 -2,0.5c-0.623,0.479 -0.604,1.553 -1.25,2c-0.552,0.382 -1.369,0.479 -2,0.25c-1.302,-0.474 -2.392,-1.419 -3.5,-2.25c-0.565,-0.424 -1.081,0.082 -1.5,-1.5c-1.677,-6.329 -5.236,-12.821 -0.25,-19z" id="ID0.17920746188610792" fill="#ffd499" stroke="#ffd499" stroke-linecap="round"/><g id="ID0.9278047611005604"><path d="M243.31246,240.35879v5c0.505,0.956 1.95,0.85 3,1.25c1.3,0.45 2.7,0.7 4,1.25c2,0.8 4,1.7 6,2.75c0.6,0.3 1.1,0.85 1.75,1.25c0.55,0.35 1.2,0.55 1.75,1c0.55,0.45 1.2,1 1.5,1.75c0.55,1.3 0.6,2.8 1,4.25c0.15,0.65 0.55,1.3 0.75,2c0.15,0.65 0.25,1.3 0.25,2c0,0.65 -0.1,1.3 -0.25,2c-0.2,0.65 -0.65,1.3 -0.75,2c-0.2,0.95 2.5,2.75 -0.25,3h-37l-0.25,-29.5z" id="ID0.7963717300444841" fill="#ff00bf" stroke="#cc0099" stroke-linecap="round"/><path d="M224.06246,264.35879h39.5v5.75h-39.5z" id="ID0.23636615462601185" fill="#e5e5e5" stroke="#b2b2b2" stroke-linecap="butt"/><path d="M258.56246,250.85879c0,0 -1.311,1.357 -2,2c-0.561,0.524 -1.176,0.99 -1.75,1.5c-0.176,0.156 -0.5,0.5 -0.5,0.5" id="ID0.6116329785436392" fill="none" stroke="#ffffff" stroke-linecap="round"/><path d="M253.81246,248.85879c0,0 -1.311,1.357 -2,2c-0.561,0.524 -1.176,0.99 -1.75,1.5c-0.176,0.156 -0.5,0.5 -0.5,0.5" id="ID0.6116329785436392" fill="none" stroke="#ffffff" stroke-linecap="round"/><path d="M248.66246,246.60879c0,0 -1.311,1.357 -2,2c-0.561,0.524 -1.176,0.99 -1.75,1.5c-0.176,0.156 -0.5,0.5 -0.5,0.5" id="ID0.6116329785436392" fill="none" stroke="#ffffff" stroke-linecap="round"/></g></g><g id="ID0.2955229333601892"><path d="M258.88432,162.83365c0.11178,-0.82603 0.23799,-0.66159 0.53105,-0.72834c0.73063,-0.16647 1.49968,0.06302 2.24802,0.09447c2.24602,0.09439 4.53436,-0.12772 6.74405,0.28342c0.77165,0.14353 1.66734,0.59854 1.94575,1.33287c0.27213,0.71706 -0.53085,1.462 -0.59403,2.22702c-0.10897,1.3306 -0.02843,2.67717 0.08183,4.00697c0.05633,0.68397 0.36429,1.33447 0.41558,2.01923c0.05668,0.74704 -0.06302,1.49968 -0.09447,2.24802c-0.02796,0.66541 -0.00314,1.33705 -0.08398,1.99824c-0.17352,1.41396 -0.50449,2.8113 -0.67801,4.22526c-0.08083,0.66119 -0.05601,1.33282 -0.08398,1.99824c-0.02796,0.66541 -0.05601,1.33282 -0.08398,1.99824c-0.02796,0.66541 0.18875,1.39115 -0.08398,1.99824c-0.31469,0.7004 -0.83896,1.45806 -1.57216,1.68547c-0.65613,0.20363 -1.29615,-0.49986 -1.97724,-0.58354c-1.40501,-0.17215 -2.8325,-0.11904 -4.24625,-0.17845c-0.66541,-0.02796 -1.40661,0.22314 -1.99824,-0.08398c-0.73169,-0.38006 -1.35765,-1.06094 -1.67498,-1.82194c-0.25639,-0.61531 0.05425,-1.29086 0.08398,-1.99824c0.11887,-2.8285 0.30402,-5.66223 0.3569,-8.4925c0.01368,-0.75409 -0.20727,-1.42696 -0.15531,-2.25851c0.20789,-3.32721 0.47131,-6.66609 0.15961,-9.7519z" id="ID0.022129699122160673" fill="#7f00ff" stroke="#6600cc" stroke-width="2" stroke-linecap="round"/><path d="M270.07631,189.6175c1.04512,1.78585 1.21904,3.85702 0.65401,5.76033c-0.56377,1.9035 -1.86563,3.63865 -3.77043,4.75337c-1.9048,1.11472 -4.05521,1.39991 -5.99089,0.95913c-1.93614,-0.43957 -3.65669,-1.60562 -4.7018,-3.39148c-1.04512,-1.78585 -1.21904,-3.85702 -0.65401,-5.76033c0.56377,-1.9035 1.86563,-3.63865 3.77043,-4.75337c1.9048,-1.11472 4.05521,-1.39991 5.99089,-0.95913c1.93614,0.43957 3.65669,1.60562 4.7018,3.39148z" id="ID0.19317426113411784" fill="#ffd499" stroke="none" stroke-width="1" stroke-linecap="butt"/></g><path d="M227.56246,202.10879c0.077,-0.83 0.21,-0.671 0.5,-0.75c0.723,-0.197 1.501,0 2.25,0c2.248,0 4.525,-0.318 6.75,0c0.777,0.111 1.691,0.528 2,1.25c0.302,0.705 -0.469,1.483 -0.5,2.25c-0.053,1.334 0.084,2.676 0.25,4c0.085,0.681 0.42,1.318 0.5,2c0.088,0.744 0,1.501 0,2.25c0,0.666 0.053,1.336 0,2c-0.114,1.42 -0.386,2.83 -0.5,4.25c-0.053,0.664 0,1.334 0,2c0,0.666 0,1.334 0,2c0,0.666 0.247,1.382 0,2c-0.285,0.713 -0.777,1.492 -1.5,1.75c-0.647,0.231 -1.316,-0.445 -2,-0.5c-1.411,-0.113 -2.835,0 -4.25,0c-0.666,0 -1.396,0.282 -2,0c-0.747,-0.349 -1.401,-1.003 -1.75,-1.75c-0.282,-0.604 0,-1.292 0,-2c0,-2.831 0.066,-5.67 0,-8.5c-0.018,-0.754 -0.267,-1.417 -0.25,-2.25c0.068,-3.333 0.191,-6.68 -0.25,-9.75z" id="ID0.022129699122160673" fill="#7f00ff" stroke="#6600cc" stroke-width="2" stroke-linecap="round"/><path d="M250.31246,202.10879c0.077,-0.83 0.21,-0.671 0.5,-0.75c0.723,-0.197 1.501,0 2.25,0c2.248,0 4.525,-0.318 6.75,0c0.777,0.111 1.691,0.528 2,1.25c0.302,0.705 -0.469,1.483 -0.5,2.25c-0.053,1.334 0.084,2.676 0.25,4c0.085,0.681 0.42,1.318 0.5,2c0.088,0.744 0,1.501 0,2.25c0,0.666 0.053,1.336 0,2c-0.114,1.42 -0.386,2.83 -0.5,4.25c-0.053,0.664 0,1.334 0,2c0,0.666 0,1.334 0,2c0,0.666 0.247,1.382 0,2c-0.285,0.713 -0.777,1.492 -1.5,1.75c-0.647,0.231 -1.316,-0.445 -2,-0.5c-1.411,-0.113 -2.835,0 -4.25,0c-0.666,0 -1.396,0.282 -2,0c-0.747,-0.349 -1.401,-1.003 -1.75,-1.75c-0.282,-0.604 0,-1.292 0,-2c0,-2.831 0.066,-5.67 0,-8.5c-0.018,-0.754 -0.267,-1.417 -0.25,-2.25c0.068,-3.333 0.191,-6.68 -0.25,-9.75z" id="ID0.022129699122160673" fill="#7f00ff" stroke="#6600cc" stroke-width="2" stroke-linecap="round"/><path d="M245.34905,153.10879c3.78802,-0.625 6.93493,1.153 9.7074,3c4.15178,2.779 8.68226,6.39 10.50746,11c1.85401,4.683 0.0544,9.835 -0.21335,15c-0.36056,6.981 2.45779,15.115 -1.71426,20.927c-3.82429,5.321 -11.15071,8.573 -18.28725,8.573c-7.13654,0 -14.39576,-3.328 -18.28725,-8.573c-4.08351,-5.508 -2.31484,-13.46 -2.24764,-20.427c-0.06721,-6.881 -1.98202,-14.938 2.24764,-20.927c3.76242,-5.328 11.59448,-7.305 18.28725,-8.573z" id="ID0.8979470622725785" fill="#7f00ff" stroke="#6600cc" stroke-width="2" stroke-linecap="round"/><g id="ID0.2955229333601892"><path d="M235.19937,164.38092c0.02662,-0.83314 0.169,-0.68248 0.45369,-0.77889c0.70975,-0.2404 1.49825,-0.09085 2.24587,-0.13619c2.24388,-0.13607 4.49745,-0.59131 6.73762,-0.40857c0.78229,0.06377 1.71986,0.42468 2.07199,1.12665c0.34412,0.68543 -0.37838,1.50867 -0.36289,2.27614c0.02784,1.33476 0.24582,2.66601 0.49166,3.97753c0.12606,0.67461 0.49901,1.29016 0.62014,1.96607c0.13287,0.73731 0.09085,1.49825 0.13619,2.24587c0.04031,0.66478 0.13377,1.33034 0.12106,1.99633c-0.02784,1.4243 -0.214,2.84818 -0.24184,4.27247c-0.01271,0.66599 0.08075,1.33155 0.12106,1.99633c0.04031,0.66478 0.08075,1.33155 0.12106,1.99633c0.04031,0.66478 0.3302,1.36452 0.12106,1.99633c-0.24132,0.72894 -0.68527,1.5363 -1.39132,1.83758c-0.63183,0.26974 -1.34052,-0.36453 -2.0266,-0.37803c-1.41525,-0.02739 -2.8298,0.1716 -4.24221,0.25725c-0.66478,0.04031 -1.37637,0.36598 -1.99633,0.12106c-0.76675,-0.30314 -1.45914,-0.91636 -1.85272,-1.64087c-0.31804,-0.58582 -0.0782,-1.28963 -0.12106,-1.99633c-0.17136,-2.82581 -0.27732,-5.6636 -0.5145,-8.48441c-0.06361,-0.75153 -0.35228,-1.39824 -0.38573,-2.23074c-0.13387,-3.331 -0.21368,-6.67931 -0.8397,-9.71699z" id="ID0.022129699122160673" fill="#7f00ff" stroke="#6600cc" stroke-width="2" stroke-linecap="round"/><path d="M249.07514,189.83171c1.22247,1.66946 1.60754,3.71193 1.24035,5.66309c-0.36591,1.95122 -1.48328,3.81055 -3.26393,5.11444c-1.78065,1.30389 -3.89056,1.80776 -5.8612,1.56748c-1.97097,-0.23903 -3.80186,-1.22279 -5.02434,-2.89225c-1.22247,-1.66946 -1.60754,-3.71193 -1.24035,-5.66309c0.36591,-1.95122 1.48328,-3.81055 3.26393,-5.11444c1.78065,-1.30389 3.89056,-1.80776 5.8612,-1.56748c1.97097,0.23903 3.80186,1.22279 5.02434,2.89225z" id="ID0.19317426113411784" fill="#ffd499" stroke="none" stroke-width="1" stroke-linecap="butt"/></g><g id="ID0.7457062280736864"><path d="M246.681,109.60879c6.48389,0 12.35836,2.689 16.61265,7.034c4.25429,4.345 6.88735,10.345 6.88735,16.966c0,6.621 -2.63306,12.621 -6.88735,16.966c-4.25429,4.345 -10.12876,7.034 -16.61265,7.034c-6.48389,0 -12.35836,-2.689 -16.61265,-7.034c-4.25429,-4.345 -6.88735,-10.345 -6.88735,-16.966c0,-6.621 2.63306,-12.621 6.88735,-16.966c4.25429,-4.345 10.12876,-7.034 16.61265,-7.034z" id="ID0.098620078060776" fill="#ffd499" stroke="none" stroke-width="1" stroke-linecap="butt"/><path d="M261.06246,116.10879l-10,7.5l-8,-7" id="ID0.6978429718874395" fill="none" stroke="#000000" stroke-width="3" stroke-linecap="round"/><path d="M260.81246,122.10879c1.724,0 3.287,0.728 4.418,1.905c1.132,1.177 1.832,2.802 1.832,4.595c0,1.793 -0.7,3.418 -1.832,4.595c-1.131,1.177 -2.694,1.905 -4.418,1.905c-1.724,0 -3.287,-0.728 -4.418,-1.905c-1.132,-1.177 -1.832,-2.802 -1.832,-4.595c0,-1.793 0.7,-3.418 1.832,-4.595c1.131,-1.177 2.694,-1.905 4.418,-1.905z" id="ID0.3920878516510129" fill="#ffffff" stroke="#000000" stroke-width="2" stroke-linecap="butt"/><path d="M242.31246,122.10879c1.724,0 3.287,0.728 4.418,1.905c1.132,1.177 1.832,2.802 1.832,4.595c0,1.793 -0.7,3.418 -1.832,4.595c-1.131,1.177 -2.694,1.905 -4.418,1.905c-1.724,0 -3.287,-0.728 -4.418,-1.905c-1.132,-1.177 -1.832,-2.802 -1.832,-4.595c0,-1.793 0.7,-3.418 1.832,-4.595c1.131,-1.177 2.694,-1.905 4.418,-1.905z" id="ID0.3920878516510129" fill="#ffffff" stroke="#000000" stroke-width="2" stroke-linecap="butt"/><path d="M264.43746,124.85879c0.931,0 1.775,0.392 2.386,1.026c0.611,0.633 0.989,1.508 0.989,2.474c0,0.966 -0.378,1.841 -0.989,2.474c-0.611,0.634 -1.455,1.026 -2.386,1.026c-0.931,0 -1.775,-0.392 -2.386,-1.026c-0.611,-0.633 -0.989,-1.508 -0.989,-2.474c0,-0.966 0.378,-1.841 0.989,-2.474c0.611,-0.634 1.455,-1.026 2.386,-1.026z" id="ID0.6984207038767636" fill="#000000" stroke="none" stroke-width="1" stroke-linecap="butt"/><path d="M245.38746,124.85879c0.931,0 1.775,0.392 2.386,1.026c0.611,0.633 0.989,1.508 0.989,2.474c0,0.966 -0.378,1.841 -0.989,2.474c-0.611,0.634 -1.455,1.026 -2.386,1.026c-0.931,0 -1.775,-0.392 -2.386,-1.026c-0.611,-0.633 -0.989,-1.508 -0.989,-2.474c0,-0.966 0.378,-1.841 0.989,-2.474c0.611,-0.634 1.455,-1.026 2.386,-1.026z" id="ID0.6984207038767636" fill="#000000" stroke="none" stroke-width="1" stroke-linecap="butt"/><path d="M241.56246,156.80879c-0.446,-0.101 -0.092,-0.844 0,-1.25c0.327,-1.439 0.852,-2.829 1.25,-4.25c0.185,-0.661 -0.138,-1.672 0.5,-2c2.553,-1.313 5.477,-1.756 8.25,-2.5c0.693,-0.186 1.334,-0.167 2,-0.25c0.666,-0.083 1.329,-0.25 2,-0.25c1.501,0 3.028,-0.044 4.5,0.25c0.658,0.132 1.255,0.546 1.75,1c0.528,0.484 0.882,1.136 1.25,1.75c0.383,0.638 0.778,1.289 1,2c0.2,0.641 0.25,1.329 0.25,2c0,0.671 0.122,1.442 -0.25,2c-0.372,0.558 -1.092,0.868 -1.75,1c-0.658,0.132 -1.33,-0.208 -2,-0.25c-0.665,-0.042 -1.334,0 -2,0c-0.666,0 -1.335,-0.039 -2,0c-0.753,0.044 -1.501,0.167 -2.25,0.25c-1.498,0.166 -2.996,0.393 -4.5,0.5c-0.83,0.059 -1.668,0 -2.5,0c-1.832,0 -3.714,0.406 -5.25,0.25z" id="ID0.9000463099218905" fill="#000000" stroke="#000000" stroke-width="2" stroke-linecap="round"/></g><path d="M266.04161,120.86808c-0.3027,0.25281 -0.21867,-0.99533 -0.40894,-1.46467c-0.26701,-0.65923 -0.60646,-1.29056 -0.95954,-1.90835c-0.36921,-0.64623 -0.75909,-1.28822 -1.2081,-1.88162c-0.43154,-0.57113 -0.85322,-1.18155 -1.42994,-1.60632c-0.5407,-0.39847 -1.22449,-0.55627 -1.84689,-0.80716c-0.69066,-0.27775 -1.4048,-0.50268 -2.09545,-0.78043c-0.62239,-0.25089 -1.20084,-0.6262 -1.84689,-0.80716c-0.66061,-0.18543 -1.35644,-0.2494 -2.04199,-0.2833c-0.91808,-0.0451 -1.84352,-0.00894 -2.76097,0.04546c-0.83151,0.04919 -1.65448,0.30866 -2.48567,0.2673c-0.78868,-0.0389 -1.53335,-0.40739 -2.31729,-0.50513c-0.66572,-0.0833 -1.34421,-0.02341 -2.01527,-0.03473c-0.67106,-0.01132 -1.3536,-0.14812 -2.01527,-0.03473c-0.67648,0.11599 -1.31616,0.4151 -1.93508,0.71097c-0.73938,0.35408 -1.42975,0.8085 -2.13018,1.23483c-0.63624,0.38725 -1.23539,0.83889 -1.88162,1.2081c-0.61779,0.35308 -1.26653,0.65215 -1.90835,0.95954c-0.71261,0.34115 -1.5272,0.51021 -2.15691,0.98627c-0.56371,0.42571 -0.98386,1.03613 -1.33102,1.65178c-0.36573,0.64882 -0.57173,1.38004 -0.78043,2.09545c-0.22122,0.758 -0.44095,1.52992 -0.50513,2.31729c-0.08161,0.99945 0.05596,2.00752 0.07219,3.00953c0.0135,0.83635 0.18606,1.69281 0.01873,2.5124c-0.2233,1.09415 -0.86062,2.06988 -1.17065,3.14318c-0.24115,0.83457 -0.42785,1.69848 -0.47841,2.56586c-0.03813,0.66489 0.18151,1.32318 0.21384,1.98854c0.03676,0.75339 -0.04874,1.51087 -0.008,2.26383c0.0451,0.83094 0.17834,1.65844 0.2673,2.48567c0.08008,0.74471 0.20434,1.48869 0.24057,2.2371c0.03286,0.67033 0.01093,1.34554 -0.03473,2.01527c-0.05141,0.76589 -0.16144,1.52903 -0.25657,2.29056c-0.08468,0.68096 -0.19862,1.36104 -0.2833,2.04199c-0.09512,0.76154 -0.20516,1.52468 -0.25657,2.29056c-0.04566,0.66972 -0.06461,1.34462 -0.03473,2.01527c0.02934,0.66568 0.25903,1.32389 0.21384,1.98854c-0.05303,0.78819 -0.41346,1.53299 -0.50513,2.31729c-0.12742,1.08786 -0.11144,2.19047 -0.14965,3.28483c-0.02346,0.67035 0.01093,1.34554 -0.03473,2.01527c-0.05141,0.76589 -0.25363,1.52285 -0.25657,2.29056c-0.00287,0.7496 0.16048,1.4924 0.24057,2.2371c0.10681,0.99327 0.29381,1.98396 0.32076,2.9828c0.03015,1.09405 -0.17582,2.19035 -0.14965,3.28483c0.02205,0.91589 0.19609,1.82349 0.29403,2.73424c0.08008,0.74471 0.16048,1.4924 0.24057,2.2371c0.08008,0.74471 0.16048,1.4924 0.24057,2.2371c0.07121,0.66218 0.14263,1.32635 0.21384,1.98854c0.07121,0.66218 0.18151,1.32318 0.21384,1.98854c0.03676,0.75339 -0.04675,1.51066 -0.008,2.26383c0.03822,0.7482 0.34379,1.49481 0.24057,2.2371c-0.09246,0.6647 -0.43039,1.29142 -0.80716,1.84689c-0.4305,0.63567 -1.05339,1.11904 -1.57959,1.67851c-0.5262,0.55947 -0.94507,1.24719 -1.57959,1.67851c-0.56799,0.38594 -1.26554,0.55851 -1.93508,0.71097c-0.73033,0.16704 -1.4924,0.16048 -2.2371,0.24057c-0.66218,0.07121 -1.32286,0.1845 -1.98854,0.21384c-0.67065,0.02988 -1.34554,0.01093 -2.01527,-0.03473c-0.76589,-0.05141 -1.52468,-0.20516 -2.29056,-0.25657c-0.66972,-0.04566 -1.34579,0.01799 -2.01527,-0.03473c-0.68471,-0.0541 -1.35842,-0.22103 -2.04199,-0.2833c-1.00858,-0.09169 -2.03812,-0.00411 -3.03626,-0.17638c-0.80754,-0.13946 -1.56896,-0.48604 -2.34402,-0.7537c-0.70403,-0.24312 -1.39767,-0.52055 -2.09545,-0.78043c-0.69779,-0.25988 -1.60014,-0.2242 -2.09545,-0.78043c-0.56405,-0.63433 -0.59454,-1.60061 -0.76443,-2.43221c-0.18401,-0.89747 -0.19609,-1.82349 -0.29403,-2.73424c-0.07121,-0.66218 -0.14263,-1.32635 -0.21384,-1.98854c-0.08008,-0.74471 -0.16048,-1.4924 -0.24057,-2.2371c-0.07121,-0.66218 -0.14263,-1.32635 -0.21384,-1.98854c-0.07121,-0.66218 -0.14263,-1.32635 -0.21384,-1.98854c-0.07121,-0.66218 -0.14263,-1.32635 -0.21384,-1.98854c-0.08906,-0.82823 -0.17834,-1.65844 -0.2673,-2.48567c-0.08008,-0.74471 -0.16048,-1.4924 -0.24057,-2.2371c-0.11569,-1.0758 -0.2318,-2.15557 -0.34748,-3.23137c-0.07121,-0.66218 -0.14263,-1.32635 -0.21384,-1.98854c-0.07121,-0.66218 -0.17455,-1.32393 -0.21384,-1.98854c-0.0642,-1.08335 -0.03472,-2.17475 -0.09892,-3.2581c-0.03928,-0.66461 -0.14263,-1.32635 -0.21384,-1.98854c-0.09794,-0.91075 -0.19609,-1.82349 -0.29403,-2.73424c-0.08896,-0.82723 -0.17834,-1.65844 -0.2673,-2.48567c-0.07121,-0.66218 -0.17952,-1.32339 -0.21384,-1.98854c-0.04354,-0.83513 -0.02125,-1.67533 -0.01873,-2.5124c0.00226,-0.67109 0.04859,-1.3439 0.03473,-2.01527c-0.02595,-1.2514 -0.06834,-2.50606 -0.15238,-3.75523c-0.05615,-0.83076 -0.17834,-1.65844 -0.2673,-2.48567c-0.07121,-0.66218 -0.1845,-1.32286 -0.21384,-1.98854c-0.02988,-0.67065 0.03645,-1.3446 0.03473,-2.01527c-0.00227,-0.91902 -0.03413,-1.84191 -0.04546,-2.76097c-0.01052,-0.83667 0.02481,-1.67727 -0.01873,-2.5124c-0.03431,-0.66514 -0.22072,-1.32298 -0.21384,-1.98854c0.00801,-0.76725 0.24856,-1.52331 0.25657,-2.29056c0.00688,-0.66555 -0.21663,-1.32242 -0.21384,-1.98854c0.00322,-0.84921 0.23159,-1.69045 0.22984,-2.53913c-0.0021,-0.74907 -0.27778,-1.48883 -0.24057,-2.2371c0.04338,-0.86862 0.36901,-1.70322 0.47841,-2.56586c0.118,-0.92291 0.12783,-1.86033 0.20311,-2.7877c0.06892,-0.84622 0.13144,-1.69577 0.22984,-2.53913c0.11935,-1.02262 0.19082,-2.06021 0.42495,-3.06299c0.16943,-0.72527 0.56643,-1.38249 0.78043,-2.09545c0.27982,-0.93327 0.41424,-1.90923 0.70024,-2.84115c0.27337,-0.89033 0.69069,-1.73278 0.97554,-2.61932c0.21785,-0.67717 0.48342,-1.35948 0.53186,-2.06872c0.05035,-0.74767 -0.16048,-1.4924 -0.24057,-2.2371c-0.07121,-0.66218 -0.14263,-1.32635 -0.21384,-1.98854c-0.07121,-0.66218 -0.14263,-1.32635 -0.21384,-1.98854c-0.07121,-0.66218 -0.14263,-1.32635 -0.21384,-1.98854c-0.08906,-0.82823 -1.20158,-2.26049 -0.2673,-2.48567c3.73701,-0.90172 7.69773,-0.17201 11.541,-0.23529c2.59233,-0.04241 5.19254,-0.06757 7.78576,-0.08292c2.34397,-0.01369 4.69573,-0.01112 7.04006,-0.00273c2.17935,0.00803 4.36487,-0.01075 6.54293,0.05073c1.51829,0.04291 3.03663,0.19847 4.55439,0.26457c1.25907,0.0547 2.52396,0.02328 3.78196,0.09619c1.27115,0.07351 2.53617,0.28648 3.80869,0.34476c0.91876,0.04201 1.84193,-0.07135 2.76097,-0.04546c0.93019,0.0267 1.85821,0.16426 2.7877,0.20311c0.7537,0.0316 1.50972,0.00059 2.26383,0.008c0.67152,0.00624 1.3453,-0.00386 2.01527,0.03473c0.84717,0.04971 1.71246,0.0341 2.53913,0.22984c0.65321,0.15404 1.20084,0.6262 1.84689,0.80716c0.66061,0.18543 1.37691,0.11243 2.04199,0.2833c0.72091,0.18498 1.42261,0.46255 2.09545,0.78043c0.9187,0.43426 1.78321,0.98197 2.67278,1.47267c0.88956,0.4907 1.84063,0.8893 2.67278,1.47267c0.62868,0.44031 1.20424,0.97584 1.67851,1.57959c0.50681,0.64451 0.92101,1.37239 1.23483,2.13018c0.25677,0.6201 0.21426,1.33776 0.4624,1.96181c0.331,0.83339 0.93443,1.54394 1.26156,2.37875c0.36893,0.94296 0.74349,1.91951 0.81789,2.92934c0.11159,1.51475 0.07605,3.07349 -0.26457,4.55439c-0.1863,0.81157 -0.77793,1.48267 -1.27757,2.14891c-0.53136,0.70787 -1.17352,1.33009 -1.80143,1.95381c-0.508,0.50421 -1.16734,0.86376 -1.60632,1.42994c-0.88563,1.14525 -1.44949,2.92575 -2.19164,3.00153z" id="ID0.3789374581538141" fill="#000000" stroke="#000000" stroke-width="2" stroke-linecap="round"/></g></g></svg>