<svg version="1.1" xmlns="http://www.w3.org/2000/svg" xmlns:xlink="http://www.w3.org/1999/xlink" width="480" height="366.2012" viewBox="0,0,480,366.2012"><g transform="translate(0,3.1006)"><g data-paper-data="{&quot;isPaintingLayer&quot;:true}" fill-rule="nonzero" stroke-linejoin="miter" stroke-miterlimit="10" stroke-dasharray="" stroke-dashoffset="0" style="mix-blend-mode: normal"><path d="M80.92586,340.63655v-47.5621h317.57709v47.5621z" fill="#d69b00" stroke="none" stroke-width="0" stroke-linecap="butt"/><path d="M80.92586,297.75266v-20.66222h318.14828v20.66222l-32.50311,25.13352l-32.04311,-27.86704l-24.08391,27.06054l-40.19995,-27.71875l-34.10396,18.55532l-42.01643,-15.93977l-41.79098,17.91163l-27.72467,-14.01149l-25.40432,17.92812z" fill="#00d624" stroke="none" stroke-width="0" stroke-linecap="butt"/><path d="M129.92586,332.63653v-103.5621h216.75842v103.5621z" fill="#d69b00" stroke="none" stroke-width="0" stroke-linecap="butt"/><path d="M129.92586,233.7527v-20.66222h217.14828v20.66222l-22.18461,25.13352l-21.87064,-27.86704l-16.43818,27.06054l-27.43799,-27.71875l-23.27725,18.55532l-28.67781,-15.93977l-28.52393,17.91163l-18.92314,-14.01149l-17.33941,17.92812z" fill="#00d624" stroke="none" stroke-width="0" stroke-linecap="butt"/><path d="M166.92586,276.63653v-110.5621h138.89846v110.5621z" fill="#d69b00" stroke="none" stroke-width="0" stroke-linecap="butt"/><path d="M166.92586,170.7527v-20.66222h139.14828v20.66222l-14.21586,25.13352l-14.01467,-27.86704l-10.53356,27.06054l-17.58222,-27.71875l-14.91603,18.55532l-18.3767,-15.93977l-18.27809,17.91163l-12.12592,-14.01149l-11.11107,17.92812z" fill="#00d624" stroke="none" stroke-width="0" stroke-linecap="butt"/><g><g data-paper-data="{&quot;index&quot;:null}" fill="#949494" stroke="#000000" stroke-width="2"><path d="M212.38083,154.02925c0,0 -5.62684,-3.07542 -6.05563,-6.524c-0.15413,-1.23965 -0.29421,-1.25433 -0.58939,-3.30604c-0.10632,-0.73902 -0.16418,-1.5284 -0.2787,-2.42359c-0.30711,-2.40053 -0.65348,-4.97831 -0.65348,-4.97831c0,0 5.63039,-2.36618 7.41783,-3.49397c0.17259,-0.10889 8.66713,-5.20573 8.84061,-5.31675c4.2462,-2.71735 2.81534,-1.90578 2.81534,-1.90578c0,0 1.17144,-2.54316 1.89432,-2.82703c1.38816,-0.54512 1.75277,-2.58415 3.8363,-0.76157c0.97929,0.85664 0.98249,1.0183 2.03571,2.37636c1.53746,1.98247 3.66738,5.147 4.30193,7.73788c0.85402,3.48693 -0.07897,6.20892 -0.07897,6.20892z" stroke-linecap="butt"/><path d="M221.36688,147.83216c0,0 1.38559,-5.8523 -1.10126,-9.48498c-1.21897,-1.61423 -5.31277,-3.90174 -5.31277,-3.90174l-2.85198,-0.96861l2.39068,0.86423c0,0 1.51017,-1.21404 2.33775,-1.87935c0.93702,-0.75328 2.99694,-2.40928 2.99694,-2.40928l-0.51069,-0.60047" stroke-linecap="round"/><path d="M225.78946,129.058c0,0 1.36596,-0.57728 2.83443,-0.59347c1.78977,-0.01974 3.81137,0.61582 4.69851,1.90462c0.87995,1.27836 1.75595,3.37798 1.38723,5.23598c-0.45498,2.29268 -2.35413,4.27731 -3.05915,4.61606c-1.91181,0.91864 -5.41501,-1.38502 -6.01715,-2.08956c-1.65855,-1.94057 -2.39892,-5.24427 -2.34093,-5.98701c0.10812,-1.38487 2.49707,-3.08663 2.49707,-3.08663" stroke-linecap="round"/><path d="M209.1681,146.79501c-1.23009,-1.94958 -0.68499,-3.83398 0.508,-5.53488c0.36827,-0.52507 1.2285,-1.62417 1.79963,-1.98452c2.42123,-1.52767 5.19295,-0.64841 6.80276,1.90301c1.60981,2.55141 0.90713,6.41374 -1.5141,7.94142c-2.42123,1.52768 -5.98648,0.22639 -7.59628,-2.32502z" stroke-linecap="butt"/></g><g data-paper-data="{&quot;index&quot;:null}" stroke="#000000" stroke-width="2" stroke-linecap="round"><path d="M194.54774,139.61608c0,0 4.12552,-2.05994 6.84641,-2.15488c1.17027,-0.04084 2.5988,0.20827 3.17379,0.64652c0.66759,0.50884 0.37725,1.2278 0.229,1.33771c-0.99994,0.7413 -3.39323,1.28536 -4.4385,1.32077c-1.83223,0.06207 -5.9122,-1.10404 -5.9122,-1.10404" fill="#949494"/><path d="M202.36308,137.41436l0.44164,2.86025" fill="none"/></g><path d="M229.79521,141.77467l-3.9663,-5.95665c0,0 -1.23964,-2.27021 -0.78405,-3.07318c0.25864,-0.45586 0.98518,-2.12709 1.74588,-2.73682c0.95257,-0.76351 2.29792,-0.26506 2.85552,-0.3387c0.24346,-0.03215 1.70433,1.40384 1.70433,1.40384c0,0 0.73165,1.43845 1.21598,2.39065c0.71883,1.41324 2.67857,5.26613 2.67857,5.26613z" data-paper-data="{&quot;index&quot;:null}" fill="#949494" stroke="#000000" stroke-width="2.5" stroke-linecap="butt"/><g data-paper-data="{&quot;index&quot;:null}"><g><path d="M223.37826,146.98706l-1.87934,-2.05796l1.72869,-1.57864l1.87934,2.05796z" data-paper-data="{&quot;index&quot;:null}" fill="#000000" stroke="none" stroke-width="0" stroke-linecap="butt"/><path d="M229.12964,144.18218l1.7728,1.533l1.8622,1.21073l0.59741,2.01674l0.73947,-1.41449l1.09777,-0.62097l0.60849,-0.52533l1.14559,-0.37633l0.0603,1.86774l-1.46645,4.45209l-0.60849,0.52533l-1.43182,0.99105l-4.43407,-1.11439l-2.62109,-4.31346z" fill="#949494" stroke="#000000" stroke-width="2.5" stroke-linecap="round"/><path d="M225.99228,148.40211l-2.1006,-0.35136l-0.66879,-1.34242l0.447,-1.61132l2.13595,-1.02709l2.55384,-0.4484l0.76997,0.56067z" fill="#949494" stroke="#000000" stroke-width="2.5" stroke-linecap="round"/><path d="M225.36437,144.41019l1.21143,0.22038l0.94947,1.99872" fill="none" stroke="#000000" stroke-width="2.5" stroke-linecap="round"/></g><g stroke="none" stroke-linecap="butt"><path d="M232.36999,153.30003l-2.6786,-0.47767l-2.68271,-4.88461l2.11394,-2.99841l3.1825,2.13285l0.9626,2.7018z" fill="#8c6200" stroke-width="NaN"/><path d="M227.2754,150.14661l-0.31375,-2.51835l2.14363,-2.84807l1.10773,0.97304z" fill="#8c0081" stroke-width="NaN"/><path d="M236.80007,148.0836l-1.9912,4.92966l-2.68504,-0.19694l0.93278,-3.30805l0.99374,-1.21941l0.74224,-1.44793l0.56953,-0.28769l1.25647,-0.28291z" fill="#8c0081" stroke-width="0"/><g fill="#ffffff" stroke-width="0.5"><path d="M229.08727,147.69776c-0.00008,-0.0002 -0.00015,-0.00039 -0.00023,-0.0006c-0.04751,-0.11933 0.07182,-0.16685 0.07182,-0.16685c0.58533,-0.22607 1.0081,0.14158 0.99573,0.6627c-0.05421,-0.02814 -0.10495,0.01706 -0.10495,0.01706c-0.34411,0.30653 -0.6929,0.60559 -1.01786,0.93104c-0.21643,-0.03801 -0.39828,-0.12678 -0.44784,-0.27588c-0.06981,-0.21004 0.0144,-0.48203 0.08259,-0.67379c0.10883,-0.24233 0.23909,-0.35699 0.42076,-0.4937zM228.98726,148.48986c0.03972,-0.03539 0.04324,-0.09628 0.00786,-0.136c-0.03539,-0.03973 -0.09628,-0.04324 -0.13601,-0.00786c-0.03973,0.03539 -0.04324,0.09628 -0.00786,0.136c0.03539,0.03972 0.09628,0.04324 0.136,0.00786zM229.56403,147.95458c0.03973,-0.03539 0.04323,-0.09629 0.00785,-0.13601c-0.03539,-0.03973 -0.09628,-0.04325 -0.13601,-0.00786c-0.03973,0.03539 -0.04324,0.09628 -0.00786,0.13601c0.03539,0.03972 0.09628,0.04324 0.136,0.00786z"/><path d="M230.49826,147.81989c0.1332,-0.11866 0.25185,0.01454 0.25185,0.01454l-0.03746,-0.01374c0.09121,0.03749 0.17086,0.09809 0.24069,0.17114l0.00421,-0.00801l0.00528,0.00278l0.03603,-0.03919l0.1632,0.15004c0.00495,0.00444 0.00971,0.0092 0.01423,0.01429c0.06553,0.07356 0.05903,0.18632 -0.01454,0.25185c-0.04002,0.03566 -0.09167,0.04998 -0.14098,0.04378c-0.00046,0.00315 -0.0008,0.00489 -0.0008,0.00489c-0.05614,0.2733 -0.13319,0.53766 -0.20425,0.80399c0.13107,-0.0255 0.26307,-0.04846 0.39639,-0.06825c0.36735,-0.05454 0.73117,-0.25454 1.07698,-0.10969c-0.02363,-0.01001 -0.08244,-0.03494 -0.10737,-0.04551l0.02872,-0.05668l-0.02582,-0.00585l0.04193,-0.18504c0.00765,-0.0358 0.02635,-0.06958 0.05578,-0.0958c0.07357,-0.06553 0.18632,-0.05902 0.25185,0.01455c0.01086,0.01218 0.01974,0.02545 0.02666,0.03939l0.0835,0.15932l-0.02818,0.01477c0.08445,0.13029 0.09895,0.25365 0.06302,0.47736c0.01706,0.04939 0.01929,0.1184 -0.05332,0.18308c-0.1332,0.11866 -0.25185,-0.01454 -0.25185,-0.01454l-0.05647,-0.17067c0.00452,-0.02012 0.00731,-0.03977 0.00895,-0.05891c-0.26482,0.05464 -0.63747,0.12119 -0.70304,0.13448c-0.30503,0.06185 -0.60632,0.12423 -0.9063,0.18972c-0.01894,0.08794 -0.03583,0.17667 -0.04975,0.26656c-0.02692,0.17377 -0.02953,0.34717 -0.03793,0.52065c0.12071,-0.01908 0.25418,-0.01776 0.42296,0.01605l0.2109,0.01217c0.04557,0.00263 0.09014,0.02265 0.12291,0.05943c0.06553,0.07357 0.05902,0.18632 -0.01454,0.25185c-0.01664,0.01482 -0.03528,0.02596 -0.05494,0.03346l-0.32634,0.13354l-0.00537,-0.01313c-0.25504,0.1554 -0.49014,0.22869 -0.90725,0.26412l-0.08825,-0.0033c0,0 -0.17808,-0.01029 -0.1678,-0.18837c0.001,-0.01734 0.0036,-0.03291 0.00746,-0.04686c-0.00769,-0.01255 -0.01457,-0.02705 -0.02035,-0.04379c-0.05829,-0.16858 0.11029,-0.22688 0.11029,-0.22688c0.13459,-0.04594 0.24611,-0.09402 0.34949,-0.13619c0.02115,-0.22908 0.01112,-0.45838 0.04634,-0.68823c0.00646,-0.0422 0.01362,-0.08418 0.02136,-0.12598c-0.26809,0.06145 -0.53596,0.12628 -0.80539,0.19638c0.00299,0.16359 -0.03195,0.30988 -0.15081,0.36809c-0.55189,0.27029 -0.46735,-0.74928 -0.42443,-0.93945l0.0544,-0.11056c0,0 0.08884,-0.15469 0.24353,-0.06584c0.00891,0.00512 0.01702,0.01046 0.02438,0.01597c0.26956,-0.26021 0.55281,-0.50554 0.83366,-0.75488c-0.00709,0.0308 -0.01562,0.06189 -0.02567,0.09321c-0.01546,0.04821 -0.14342,0.45693 -0.17714,0.49443c-0.10007,0.11133 -0.35575,0.17531 -0.61838,0.17735c0.00878,0.00773 0.01626,0.01572 0.02261,0.02391c0.08796,0.0276 0.11471,0.12655 0.11471,0.12655c0.01363,0.05084 0.03455,0.12652 0.05402,0.21354c0.31595,-0.08575 0.62909,-0.16978 0.94532,-0.24265c0.08162,-0.31898 0.17868,-0.63301 0.24317,-0.95761c0,0 0.00376,-0.01857 0.01486,-0.04236c-0.10421,-0.01608 -0.2071,-0.04349 -0.30656,-0.07747c0,0 -0.16841,-0.05881 -0.10959,-0.22722c0.0398,-0.11396 0.1298,-0.12387 0.18382,-0.11836c0.00993,-0.01871 0.02461,-0.03764 0.04545,-0.0562z"/></g></g></g><path d="M213.37072,139.40838l8.0351,-1.24839l1.37789,5.1107l-0.16728,0.73039l-6.97022,2.27585l-3.26117,-0.06693l-1.63689,-1.9361l-0.04499,-2.52855l0.82743,-1.34195z" data-paper-data="{&quot;index&quot;:null}" fill="#949494" stroke="#000000" stroke-width="2.5" stroke-linecap="round"/><g data-paper-data="{&quot;index&quot;:null}"><g><path d="M234.01269,143.45716l-1.48068,-2.36108l1.98331,-1.24377l1.48068,2.36108z" fill="#000000" stroke="none" stroke-width="0" stroke-linecap="butt"/><path d="M244.12796,153.18289c0,0 0.03673,0.59405 -0.44877,0.62824c-1.2722,0.0896 -7.46617,-0.07085 -7.46617,-0.07085l-4.68208,-6.80017c0,0 3.29314,-1.02367 4.57175,-1.55795c0.49604,-0.20727 3.76107,4.10145 4.13256,4.08327c0.38614,-0.0189 -0.75131,1.33608 -0.71651,1.7144c0.03929,0.42716 1.23599,-0.11503 1.48784,-0.11503c0.70958,0 2.00661,0.22296 2.00661,0.22296l1.11478,1.89513z" fill="#949494" stroke="#000000" stroke-width="2.5" stroke-linecap="butt"/><path d="M230.75058,146.49417l2.67548,-4.01321l1.3726,-0.27274l1.14623,0.39242l0.71403,1.10658l-0.11148,1.56069z" fill="#949494" stroke="#000000" stroke-width="2.5" stroke-linecap="butt"/><path d="M233.98344,145.82531l-0.89183,-0.44591l-0.33443,-1.0033" fill="none" stroke="#000000" stroke-width="2.5" stroke-linecap="round"/><path d="M238.66552,153.57304l0.89183,-2.67548" fill="none" stroke="#000000" stroke-width="2.5" stroke-linecap="round"/></g><g stroke="none" stroke-linecap="butt"><path d="M236.89923,153.42081l-4.77305,-5.99411l4.28304,-2.13086l0.63841,1.41147l2.43331,2.99866z" fill="#8c6200" stroke-width="NaN"/><path d="M233.29608,148.84195l-1.05981,-1.50353l4.19745,-1.86371l0.64914,1.50353z" fill="#8c0081" stroke-width="NaN"/><path d="M236.71289,153.52362l1.75999,-4.81063l1.05599,0.93866l0.09303,2.00918l1.44067,-0.13106l1.59365,0.32817l0.42946,0.4719l0.60849,1.13512z" fill="#8c0081" stroke-width="0"/><g fill="#ffffff" stroke-width="0.5"><path d="M234.79583,147.90523c-0.00007,-0.0002 -0.00013,-0.0004 -0.00019,-0.00061c-0.03841,-0.12257 0.08416,-0.16098 0.08416,-0.16098c0.60068,-0.18142 0.99459,0.21698 0.94308,0.7357c-0.05194,-0.03213 -0.10593,0.00912 -0.10593,0.00912c-0.36618,0.27979 -0.73648,0.55177 -1.08498,0.85187c-0.21296,-0.05417 -0.38762,-0.15636 -0.42583,-0.30877c-0.05383,-0.21469 0.0506,-0.47959 0.13301,-0.66568c0.12675,-0.23346 0.26526,-0.33801 0.45669,-0.46066zM234.6546,148.55254c-0.0323,-0.04228 -0.09275,-0.05036 -0.13503,-0.01806c-0.04228,0.0323 -0.05036,0.09275 -0.01806,0.13503c0.0323,0.04228 0.09275,0.05036 0.13503,0.01806c0.04228,-0.0323 0.05036,-0.09275 0.01806,-0.13503zM235.25191,148.19716c0.04228,-0.0323 0.05036,-0.09275 0.01806,-0.13503c-0.0323,-0.04228 -0.09275,-0.05036 -0.13503,-0.01806c-0.04227,0.0323 -0.05036,0.09275 -0.01806,0.13503c0.0323,0.04228 0.09276,0.05036 0.13504,0.01806z"/><path d="M236.19363,148.13311c0.14174,-0.1083 0.25004,0.03344 0.25004,0.03344l-0.03632,-0.01652c0.08814,0.04423 0.163,0.11066 0.22714,0.18875l0.00481,-0.00767l0.00505,0.00317l0.03888,-0.03637l0.15145,0.16189c0.0046,0.0048 0.00899,0.00991 0.01312,0.01532c0.05981,0.07828 0.04484,0.19023 -0.03344,0.25004c-0.0426,0.03255 -0.09517,0.04294 -0.14387,0.03305c-0.00069,0.00311 -0.00117,0.00481 -0.00117,0.00481c-0.07653,0.26831 -0.17325,0.52612 -0.26412,0.78635c0.13262,-0.01557 0.26597,-0.02854 0.4004,-0.03826c0.3704,-0.02676 0.74824,-0.19884 1.08218,-0.0284c-0.0228,-0.01176 -0.07957,-0.04104 -0.10364,-0.05345l0.0329,-0.05436l-0.02531,-0.00778l0.05572,-0.18137c0.01032,-0.03512 0.03151,-0.0674 0.06282,-0.09133c0.07828,-0.05981 0.19023,-0.04484 0.25004,0.03344c0.00991,0.01297 0.01777,0.02686 0.02362,0.04128l0.07128,0.16514l-0.02921,0.01261c0.07441,0.13627 0.07959,0.26037 0.02694,0.48074c0.01329,0.05054 0.01033,0.11951 -0.06694,0.17855c-0.14174,0.1083 -0.25004,-0.03344 -0.25004,-0.03344l-0.04348,-0.17443c0.00602,-0.01972 0.01028,-0.03911 0.01335,-0.05807c-0.26818,0.03458 -0.64478,0.07292 -0.71116,0.08124c-0.30882,0.03874 -0.61394,0.07828 -0.91799,0.12104c-0.02549,0.08627 -0.04901,0.17348 -0.06965,0.26206c-0.03991,0.17126 -0.05555,0.34397 -0.07697,0.51632c0.1218,-0.00995 0.25479,0.0014 0.42055,0.04781l0.20939,0.028c0.04525,0.00605 0.08819,0.02937 0.11809,0.0685c0.05981,0.07828 0.04484,0.19023 -0.03344,0.25004c-0.01771,0.01353 -0.03714,0.02324 -0.0573,0.02924l-0.33546,0.10863l-0.00437,-0.01349c-0.26601,0.1358 -0.50595,0.19119 -0.92454,0.19517l-0.08775,-0.00993c0,0 -0.17681,-0.02365 -0.15316,-0.20046c0.0023,-0.01722 0.00606,-0.03254 0.01096,-0.04616c-0.00673,-0.01308 -0.01249,-0.02807 -0.017,-0.04519c-0.04545,-0.17249 0.12704,-0.21794 0.12704,-0.21794c0.13767,-0.03569 0.25249,-0.07524 0.35875,-0.10953c0.03831,-0.22683 0.04555,-0.45625 0.09795,-0.6828c0.00962,-0.0416 0.01991,-0.08292 0.03076,-0.12401c-0.27195,0.04112 -0.54394,0.08563 -0.81788,0.13527c-0.00932,0.16335 -0.05515,0.30659 -0.17806,0.35571c-0.57065,0.22802 -0.40969,-0.7823 -0.35259,-0.96871l0.06257,-0.10616c0,0 0.10022,-0.14757 0.24778,-0.04735c0.0085,0.00578 0.01618,0.01171 0.02311,0.01776c0.28837,-0.2392 0.58925,-0.46254 0.88805,-0.69006c-0.00938,0.03018 -0.02023,0.06055 -0.0326,0.09103c-0.01904,0.04692 -0.17737,0.44484 -0.21381,0.47971c-0.10816,0.10349 -0.36792,0.14806 -0.62997,0.13035c0.00817,0.00836 0.01503,0.01691 0.02075,0.02554c0.08563,0.03414 0.10487,0.13482 0.10487,0.13482c0.00977,0.05172 0.02494,0.12876 0.03781,0.217c0.3215,-0.06175 0.64008,-0.12201 0.96089,-0.17089c0.10538,-0.31194 0.22578,-0.61778 0.31448,-0.93661c0,0 0.00514,-0.01822 0.01801,-0.04113c-0.10271,-0.02387 -0.20325,-0.05895 -0.29986,-0.10031c0,0 -0.16351,-0.07131 -0.0922,-0.23482c0.04826,-0.11065 0.13874,-0.11376 0.1922,-0.10421c0.01131,-0.01791 0.02736,-0.03568 0.04954,-0.05262z"/></g></g></g><g data-paper-data="{&quot;index&quot;:null}"><g stroke="#000000" stroke-width="2.5"><path d="M227.19799,123.08952c0,0 0.17544,-0.69993 0,-1.22626c-0.15693,-0.47076 -1.0033,-1.78365 -1.0033,-1.78365c0,0 -2.26632,-1.57889 -2.114,-3.15231c0.01729,-0.17861 0.69729,-4.06829 2.95003,-6.26896c1.61016,-1.57294 4.89623,-1.73775 5.32059,-1.56627c0.32803,0.13256 2.39223,0.34122 4.30359,1.19205c2.69366,1.19906 5.19062,3.01241 5.19062,3.01241l-0.94183,6.39096l-9.80397,-0.05379l0.33443,3.45582z" fill="#949494" stroke-linecap="butt"/><path d="M241.46719,116.73526l-6.1313,-1.22626l-1.56069,-1.56069l-1.56069,-4.68208l5.23947,1.67217l4.12469,2.34104z" fill="#000000" stroke-linecap="round"/><path d="M234.10963,114.72865h-0.78035" fill="none" stroke-linecap="round"/><path d="M233.99816,115.95492l-1.11478,-0.11148" fill="none" stroke-linecap="round"/><path d="M232.54894,116.95822l0.66887,0.11148" fill="none" stroke-linecap="round"/><path d="M240.12772,119.68601c0,0 -5.8627,-0.18584 -8.87942,0.07852c-0.74224,0.06504 -0.09967,0.92895 -0.56234,0.93406c-4.09927,0.04534 -4.5237,-0.91562 -4.90276,-1.38092c-0.94147,-1.15568 -1.97041,-2.69984 -1.92019,-2.97393c0.06458,-0.35244 0.87714,-1.17967 0.87714,-1.17967l1.84177,0.72046l2.564,0.89183l2.67548,0.55739l4.68208,0.11148l3.79026,2.00661" fill="#373737" stroke-linecap="round"/><path d="M239.97101,120.77189l-0.44591,1.11478h-5.79686l-1.22626,-0.22296l-0.44591,-1.11478l0.22296,-0.89183l0.55739,-0.66887l0.66887,0.22296l0.55739,0.66887l0.44591,0.55739z" fill="#000000" stroke-linecap="round"/><path d="M229.2046,121.19439l-0.11148,1.22626" fill="none" stroke-linecap="round"/><path d="M231.32268,121.30586l-4.01321,-0.33443" fill="none" stroke-linecap="round"/><path d="M228.75868,110.82692l-0.55739,1.0033l0.22296,1.0033l-1.67217,-0.89183l0.11148,-2.11808l1.56069,-1.78365l0.66887,0.89183l0.11148,1.56069z" fill="#151515" stroke-linecap="round"/><path d="M229.09312,112.55575l-1.56069,0.22296l-0.78035,-1.56069l0.44591,-0.66887l1.11478,-1.0033l0.89183,-0.11148l0.55739,0.44591l0.55739,0.55739l0.22296,1.22626z" fill="none" stroke-linecap="round"/></g><path d="M238.93462,112.06625c1.20552,0.35459 1.48809,1.06134 1.29549,1.91057c-0.1926,0.84923 -1.08487,1.37072 -1.99295,1.16478c-0.90808,-0.20595 -1.48809,-1.06134 -1.29549,-1.91057c0.1926,-0.84923 0.7512,-1.53002 1.99295,-1.16478z" fill="#54ff00" stroke="none" stroke-width="0" stroke-linecap="butt"/><path d="M234.42703,113.05331c-0.46646,0.05183 -0.51829,-0.41463 -0.51829,-0.41463l-0.01623,-0.64853c0.28432,-0.70922 0.54094,-1.25343 1.10955,-1.7722c0,0 0.35078,-0.3118 0.66259,0.03898c0.3118,0.35078 -0.03898,0.66259 -0.03898,0.66259c-0.46803,0.40137 -0.63633,0.85462 -0.86164,1.41924l0.07763,0.19626c0,0 0.05183,0.46646 -0.41463,0.51829z" fill="#54ff00" stroke="none" stroke-width="0.5" stroke-linecap="butt"/></g></g><g data-paper-data="{&quot;index&quot;:null}" stroke-linecap="butt"><path d="M111.86552,250.25973c0.00375,-0.01997 0.0075,-0.04008 0.01126,-0.06031l-0.44626,-0.47601l0.25915,-0.24295c-0.25521,-0.11688 -0.38281,-0.37209 -0.38281,-0.37209l-0.01843,-0.04677c-1.12034,-1.1716 -2.31998,-2.42423 -3.54191,-2.60114h-0.70634c-0.33869,0 -0.62494,-0.2245 -0.71807,-0.5328c-2.05583,-0.03238 -4.12671,-0.03937 -6.13968,0.26919c-3.52134,0.53977 -5.82975,5.31287 -5.82975,8.38861c0,1.76718 0.77942,2.957 1.05416,4.63848c0.38248,2.34092 0.0581,5.19469 -0.11855,7.53969c-0.05171,0.68637 0.29434,2.40116 -0.17585,2.93161c-0.56076,0.63263 -2.29258,0.39013 -3.03855,0.38967c-1.05029,-0.09783 -3.14123,-0.76244 -3.74657,-1.7509c-0.54599,-0.89156 -0.09964,-3.28711 -0.09964,-4.31105c0,-4.185 0.11551,-8.77455 0.64539,-12.92368c1.50022,-4.25858 3.60221,-6.4209 6.64118,-9.48602c0.918,-0.9259 1.70738,-2.43867 2.87024,-3.06968c1.46913,-0.79719 4.56468,-0.20812 6.15569,-0.20812c2.7932,0 7.01241,0.31725 8.59626,3.14148c1.07911,1.92421 0.77096,5.55399 0.38309,8.01696l0.12275,0.53194c0.01495,0.05906 0.02289,0.12091 0.02289,0.18462c0,0.33222 -0.21601,0.61398 -0.51523,0.71252c-0.13015,0.15181 -0.34328,0.27629 -0.68549,0.21213c-0.73716,-0.13822 -0.59894,-0.87537 -0.59894,-0.87537z" fill="#c6c6c6" stroke="#6f6f6f" stroke-width="1.5"/><path d="M92.00093,279.18571l5.57908,-6.5862l2.85134,2.41533l-5.57907,6.5862z" data-paper-data="{&quot;index&quot;:null}" fill="#c6c6c6" stroke="#6f6f6f" stroke-width="1.5"/><path d="M114.56472,280.81537l-6.65553,-5.49618l2.37944,-2.88136l6.65553,5.49618z" fill="#c6c6c6" stroke="#6f6f6f" stroke-width="1.5"/><path d="M97.92668,274.83713v-12.47368h12.47368v12.47368z" fill="#c6c6c6" stroke="#6f6f6f" stroke-width="1.5"/><path d="M104.08457,264.88973c-5.61005,0 -10.15789,-4.54784 -10.15789,-10.15789c0,-5.61005 4.54784,-10.15789 10.15789,-10.15789c5.61005,0 10.15789,4.54784 10.15789,10.15789c0,5.61005 -4.54784,10.15789 -10.15789,10.15789z" fill="#c6c6c6" stroke="#6f6f6f" stroke-width="1.5"/><path d="M105.93174,255.55906c-1.23574,0 -2.23751,-1.00177 -2.23751,-2.23751c0,-1.41803 0.68966,-2.48181 0.68966,-2.48181c0,0 3.78536,1.81572 3.78536,2.48181c0,1.23574 -1.00177,2.23751 -2.23751,2.23751z" fill="#ff0000" stroke="none" stroke-width="0"/><path d="M112.91662,253.26833c0,1.18603 -0.96147,2.14749 -2.14749,2.14749c-1.18603,0 -2.14749,-0.96147 -2.14749,-2.14749c0,-1.18603 4.16958,-2.14749 4.16958,-2.14749c0,0 0.12539,0.96147 0.12539,2.14749z" fill="#ff0000" stroke="none" stroke-width="0"/><path d="M109.03194,249.58713c-0.41421,0 -0.75,-0.33579 -0.75,-0.75c0,-0.41421 0.33579,-0.75 0.75,-0.75c0.41421,0 0.75,0.33579 0.75,0.75c0,0.41421 -0.33579,0.75 -0.75,0.75z" fill="#000000" stroke="none" stroke-width="0.5"/><path d="M98.71615,249.42922c-0.41421,0 -0.75,-0.33579 -0.75,-0.75c0,-0.41421 0.33579,-0.75 0.75,-0.75c0.41421,0 0.75,0.33579 0.75,0.75c0,0.41421 -0.33579,0.75 -0.75,0.75z" fill="#000000" stroke="none" stroke-width="0.5"/><path d="M109.24246,261.53448c-0.41421,0 -0.75,-0.33579 -0.75,-0.75c0,-0.41421 0.33579,-0.75 0.75,-0.75c0.41421,0 0.75,0.33579 0.75,0.75c0,0.41421 -0.33579,0.75 -0.75,0.75z" fill="#000000" stroke="none" stroke-width="0.5"/><path d="M99.45299,261.79765c-0.41421,0 -0.75,-0.33579 -0.75,-0.75c0,-0.41421 0.33579,-0.75 0.75,-0.75c0.41421,0 0.75,0.33579 0.75,0.75c0,0.41421 -0.33579,0.75 -0.75,0.75z" fill="#000000" stroke="none" stroke-width="0.5"/><path d="M96.1372,253.63974c-0.41421,0 -0.75,-0.33579 -0.75,-0.75c0,-0.41421 0.33579,-0.75 0.75,-0.75c0.41421,0 0.75,0.33579 0.75,0.75c0,0.41421 -0.33579,0.75 -0.75,0.75z" fill="#000000" stroke="none" stroke-width="0.5"/><path d="M96.1372,257.42922c-0.41421,0 -0.75,-0.33579 -0.75,-0.75c0,-0.41421 0.33579,-0.75 0.75,-0.75c0.41421,0 0.75,0.33579 0.75,0.75c0,0.41421 -0.33579,0.75 -0.75,0.75z" fill="#000000" stroke="none" stroke-width="0.5"/><path d="M111.82141,257.63975c-0.41421,0 -0.75,-0.33579 -0.75,-0.75c0,-0.41421 0.33579,-0.75 0.75,-0.75c0.41421,0 0.75,0.33579 0.75,0.75c0,0.41421 -0.33579,0.75 -0.75,0.75z" fill="#000000" stroke="none" stroke-width="0.5"/><path d="M113.92667,253.85026c-0.41421,0 -0.75,-0.33579 -0.75,-0.75c0,-0.41421 0.33579,-0.75 0.75,-0.75c0.41421,0 0.75,0.33579 0.75,0.75c0,0.41421 -0.33579,0.75 -0.75,0.75z" fill="#000000" stroke="none" stroke-width="0.5"/><path d="M108.40036,265.53448c-0.41421,0 -0.75,-0.33579 -0.75,-0.75c0,-0.41421 0.33579,-0.75 0.75,-0.75c0.41421,0 0.75,0.33579 0.75,0.75c0,0.41421 -0.33579,0.75 -0.75,0.75z" fill="#000000" stroke="none" stroke-width="0.5"/><path d="M99.82141,265.27133c-0.41421,0 -0.75,-0.33579 -0.75,-0.75c0,-0.41421 0.33579,-0.75 0.75,-0.75c0.41421,0 0.75,0.33579 0.75,0.75c0,0.41421 -0.33579,0.75 -0.75,0.75z" fill="#000000" stroke="none" stroke-width="0.5"/><path d="M108.66351,274.11343c-0.41421,0 -0.75,-0.33579 -0.75,-0.75c0,-0.41421 0.33579,-0.75 0.75,-0.75c0.41421,0 0.75,0.33579 0.75,0.75c0,0.41421 -0.33579,0.75 -0.75,0.75z" fill="#000000" stroke="none" stroke-width="0.5"/><path d="M99.71615,274.00816c-0.41421,0 -0.75,-0.33579 -0.75,-0.75c0,-0.41421 0.33579,-0.75 0.75,-0.75c0.41421,0 0.75,0.33579 0.75,0.75c0,0.41421 -0.33579,0.75 -0.75,0.75z" fill="#000000" stroke="none" stroke-width="0.5"/><path d="M107.85817,272.07212l-1.02117,-7.56295l2.86871,-0.38734l1.02117,7.56295z" fill="#c6c6c6" stroke="#6f6f6f" stroke-width="1.5"/><path d="M102.32171,273.18447l-1.10808,-7.5507l2.86406,-0.42031l1.10808,7.55071z" fill="#c6c6c6" stroke="#6f6f6f" stroke-width="1.5"/></g><path d="M318.13448,183.25974c0,0 0.13822,0.73715 -0.59894,0.87537c-0.34221,0.06416 -0.55534,-0.06032 -0.68549,-0.21213c-0.29922,-0.09854 -0.51523,-0.3803 -0.51523,-0.71252c0,-0.06371 0.00794,-0.12556 0.02289,-0.18462l0.12275,-0.53194c-0.38787,-2.46297 -0.69602,-6.09275 0.38309,-8.01696c1.58385,-2.82423 5.80306,-3.14148 8.59626,-3.14148c1.59101,0 4.68656,-0.58907 6.15569,0.20812c1.16286,0.63101 1.95224,2.14378 2.87024,3.06968c3.03897,3.06512 5.14096,5.22744 6.64118,9.48602c0.52988,4.14913 0.64539,8.73868 0.64539,12.92368c0,1.02394 0.44635,3.41949 -0.09964,4.31105c-0.60534,0.98846 -2.69628,1.65307 -3.74657,1.7509c-0.74597,0.00046 -2.47779,0.24296 -3.03855,-0.38967c-0.47019,-0.53045 -0.12414,-2.24524 -0.17585,-2.93161c-0.17665,-2.345 -0.50103,-5.19877 -0.11855,-7.53969c0.27474,-1.68148 1.05416,-2.8713 1.05416,-4.63848c0,-3.07574 -2.30841,-7.84884 -5.82975,-8.38861c-2.01297,-0.30856 -4.08385,-0.30157 -6.13968,-0.26919c-0.09313,0.3083 -0.37938,0.5328 -0.71807,0.5328h-0.70634c-1.22193,0.17691 -2.42157,1.42954 -3.54191,2.60114l-0.01843,0.04677c0,0 -0.1276,0.25521 -0.38281,0.37209l0.25915,0.24295l-0.44626,0.47601c0.00376,0.02023 0.00751,0.04034 0.01126,0.06031z" fill="#c6c6c6" stroke="#6f6f6f" stroke-width="1.5" stroke-linecap="butt"/><path d="M335.14771,214.60105l-5.57907,-6.5862l2.85134,-2.41533l5.57908,6.5862z" data-paper-data="{&quot;index&quot;:null}" fill="#c6c6c6" stroke="#6f6f6f" stroke-width="1.5" stroke-linecap="butt"/><path d="M313.05583,210.93402l6.65553,-5.49618l2.37944,2.88136l-6.65553,5.49618z" fill="#c6c6c6" stroke="#6f6f6f" stroke-width="1.5" stroke-linecap="butt"/><path d="M319.59963,207.83714v-12.47368h12.47368v12.47368z" fill="#c6c6c6" stroke="#6f6f6f" stroke-width="1.5" stroke-linecap="butt"/><path d="M315.75753,187.73187c0,-5.61005 4.54784,-10.15789 10.15789,-10.15789c5.61005,0 10.15789,4.54784 10.15789,10.15789c0,5.61005 -4.54784,10.15789 -10.15789,10.15789c-5.61005,0 -10.15789,-4.54784 -10.15789,-10.15789z" fill="#c6c6c6" stroke="#6f6f6f" stroke-width="1.5" stroke-linecap="butt"/><path d="M321.83074,186.32156c0,-0.66609 3.78536,-2.48181 3.78536,-2.48181c0,0 0.68966,1.06378 0.68966,2.48181c0,1.23574 -1.00177,2.23751 -2.23751,2.23751c-1.23574,0 -2.23751,-1.00177 -2.23751,-2.23751z" fill="#ff0000" stroke="none" stroke-width="0" stroke-linecap="butt"/><path d="M317.08338,186.26836c0,-1.18602 0.12539,-2.14749 0.12539,-2.14749c0,0 4.16958,0.96146 4.16958,2.14749c0,1.18602 -0.96146,2.14749 -2.14749,2.14749c-1.18602,0 -2.14749,-0.96146 -2.14749,-2.14749z" fill="#ff0000" stroke="none" stroke-width="0" stroke-linecap="butt"/><path d="M320.21805,181.83714c0,-0.41421 0.33579,-0.75 0.75,-0.75c0.41421,0 0.75,0.33579 0.75,0.75c0,0.41421 -0.33579,0.75 -0.75,0.75c-0.41421,0 -0.75,-0.33579 -0.75,-0.75z" fill="#000000" stroke="none" stroke-width="0.5" stroke-linecap="butt"/><path d="M330.53384,181.67922c0,-0.41421 0.33579,-0.75 0.75,-0.75c0.41421,0 0.75,0.33579 0.75,0.75c0,0.41421 -0.33579,0.75 -0.75,0.75c-0.41421,0 -0.75,-0.33579 -0.75,-0.75z" fill="#000000" stroke="none" stroke-width="0.5" stroke-linecap="butt"/><path d="M320.00753,193.7845c0,-0.41421 0.33579,-0.75 0.75,-0.75c0.41421,0 0.75,0.33579 0.75,0.75c0,0.41421 -0.33579,0.75 -0.75,0.75c-0.41421,0 -0.75,-0.33579 -0.75,-0.75z" fill="#000000" stroke="none" stroke-width="0.5" stroke-linecap="butt"/><path d="M329.797,194.04766c0,-0.41421 0.33579,-0.75 0.75,-0.75c0.41421,0 0.75,0.33579 0.75,0.75c0,0.41421 -0.33579,0.75 -0.75,0.75c-0.41421,0 -0.75,-0.33579 -0.75,-0.75z" fill="#000000" stroke="none" stroke-width="0.5" stroke-linecap="butt"/><path d="M333.11279,185.88975c0,-0.41421 0.33579,-0.75 0.75,-0.75c0.41421,0 0.75,0.33579 0.75,0.75c0,0.41421 -0.33579,0.75 -0.75,0.75c-0.41421,0 -0.75,-0.33579 -0.75,-0.75z" fill="#000000" stroke="none" stroke-width="0.5" stroke-linecap="butt"/><path d="M333.11279,189.67922c0,-0.41421 0.33579,-0.75 0.75,-0.75c0.41421,0 0.75,0.33579 0.75,0.75c0,0.41421 -0.33579,0.75 -0.75,0.75c-0.41421,0 -0.75,-0.33579 -0.75,-0.75z" fill="#000000" stroke="none" stroke-width="0.5" stroke-linecap="butt"/><path d="M317.42858,189.88975c0,-0.41421 0.33579,-0.75 0.75,-0.75c0.41421,0 0.75,0.33579 0.75,0.75c0,0.41421 -0.33579,0.75 -0.75,0.75c-0.41421,0 -0.75,-0.33579 -0.75,-0.75z" fill="#000000" stroke="none" stroke-width="0.5" stroke-linecap="butt"/><path d="M315.32332,186.10029c0,-0.41421 0.33579,-0.75 0.75,-0.75c0.41421,0 0.75,0.33579 0.75,0.75c0,0.41421 -0.33579,0.75 -0.75,0.75c-0.41421,0 -0.75,-0.33579 -0.75,-0.75z" fill="#000000" stroke="none" stroke-width="0.5" stroke-linecap="butt"/><path d="M320.84963,197.7845c0,-0.41421 0.33579,-0.75 0.75,-0.75c0.41421,0 0.75,0.33579 0.75,0.75c0,0.41421 -0.33579,0.75 -0.75,0.75c-0.41421,0 -0.75,-0.33579 -0.75,-0.75z" fill="#000000" stroke="none" stroke-width="0.5" stroke-linecap="butt"/><path d="M329.42858,197.52135c0,-0.41421 0.33579,-0.75 0.75,-0.75c0.41421,0 0.75,0.33579 0.75,0.75c0,0.41421 -0.33579,0.75 -0.75,0.75c-0.41421,0 -0.75,-0.33579 -0.75,-0.75z" fill="#000000" stroke="none" stroke-width="0.5" stroke-linecap="butt"/><path d="M320.58648,206.36343c0,-0.41421 0.33579,-0.75 0.75,-0.75c0.41421,0 0.75,0.33579 0.75,0.75c0,0.41421 -0.33579,0.75 -0.75,0.75c-0.41421,0 -0.75,-0.33579 -0.75,-0.75z" fill="#000000" stroke="none" stroke-width="0.5" stroke-linecap="butt"/><path d="M329.53384,206.25819c0,-0.41421 0.33579,-0.75 0.75,-0.75c0.41421,0 0.75,0.33579 0.75,0.75c0,0.41421 -0.33579,0.75 -0.75,0.75c-0.41421,0 -0.75,-0.33579 -0.75,-0.75z" fill="#000000" stroke="none" stroke-width="0.5" stroke-linecap="butt"/><path d="M319.27311,204.68478l1.02117,-7.56295l2.86871,0.38734l-1.02117,7.56295z" fill="#c6c6c6" stroke="#6f6f6f" stroke-width="1.5" stroke-linecap="butt"/><path d="M324.81422,205.76418l1.10808,-7.55071l2.86406,0.42031l-1.10808,7.5507z" fill="#c6c6c6" stroke="#6f6f6f" stroke-width="1.5" stroke-linecap="butt"/><text transform="translate(120,84.11349) scale(0.86836,0.86836)" font-size="40" xml:space="preserve" fill="#000000" fill-rule="nonzero" stroke="none" stroke-width="1" stroke-linecap="butt" stroke-linejoin="miter" stroke-miterlimit="10" stroke-dasharray="" stroke-dashoffset="0" font-family="Sans Serif" font-weight="normal" text-anchor="start" style="mix-blend-mode: normal"><tspan x="0" dy="0">Starter Level</tspan></text><path d="M0,363.1006v-366.2012h480v366.2012z" fill="none" stroke="none" stroke-width="0" stroke-linecap="butt"/></g></g></svg>