<svg version="1.1" xmlns="http://www.w3.org/2000/svg" xmlns:xlink="http://www.w3.org/1999/xlink" width="197.54067" height="198.87095" viewBox="0,0,197.54067,198.87095"><g transform="translate(-195.47808,-98.52485)"><g data-paper-data="{&quot;isPaintingLayer&quot;:true}" fill-rule="nonzero" stroke-linejoin="miter" stroke-miterlimit="10" stroke-dasharray="" stroke-dashoffset="0" style="mix-blend-mode: normal"><path d="M310.14182,194.25687l-20.4074,28.29283l-9.00475,-5.94757l18.25132,-26.04527z" data-paper-data="{&quot;index&quot;:null}" fill="#7f00ff" stroke="#6600cc" stroke-width="2" stroke-linecap="round"/><path d="M301.44522,227.76752v-10.79162h6.99997v10.79162z" data-paper-data="{&quot;index&quot;:null}" fill="#ffd499" stroke="#dfba86" stroke-width="2" stroke-linecap="butt"/><path d="M277.55139,223.63927l6.83031,-5.46888l2.58253,3.22543l-6.83031,5.46888z" data-paper-data="{&quot;index&quot;:null}" fill="#ffd499" stroke="#dfba86" stroke-width="2" stroke-linecap="butt"/><path d="M255.98046,220.18837l9.87543,-6.15601c0,0 6.15791,2.89674 8.45581,5.93153c2.71891,3.59081 4.90011,11.70738 4.90011,11.70738l-9.23943,6.99596z" data-paper-data="{&quot;index&quot;:null}" fill="#ff00bf" stroke="#d5009f" stroke-width="2" stroke-linecap="butt"/><path d="M286.93348,240.01747l1.05357,-11.58925c0,0 6.02669,-3.1607 9.8333,-3.1607c4.50404,0 12.29162,3.1607 12.29162,3.1607v11.58925z" data-paper-data="{&quot;index&quot;:null}" fill="#ff00bf" stroke="#d5009f" stroke-width="2" stroke-linecap="butt"/><path d="M332.83045,191.71871l-20.02143,30.18466l-8.33578,-9.92513l16.99077,-18.92518z" data-paper-data="{&quot;index&quot;:null}" fill="#7f00ff" stroke="#6600cc" stroke-width="2" stroke-linecap="round"/><g stroke="#000000" stroke-width="1.5" stroke-linecap="butt"><path d="M264.90604,181.39583v-3.33333h20v3.33333z" fill="#c3c3c3"/><path d="M294.23938,179.89583c0,6.35127 -2.91015,11.5 -6.5,11.5c-3.58985,0 -6.5,-5.14873 -6.5,-11.5c0,-6.35127 2.91015,-11.5 6.5,-11.5c3.58985,0 6.5,5.14873 6.5,11.5z" fill="#d4d4d4"/></g><path d="M196.26876,275.50752c0,0 0.90378,-38.2849 3.03538,-53.01692c3.1611,-21.84709 28.06113,-57.04609 50.13414,-56.78123c10.64751,0.12776 19.13761,-5.0153 21.21526,2.18874c5.49466,19.05213 -12.56011,54.52608 15.94855,58.85941c13.85381,2.10579 22.87878,-18.90458 40.25588,-28.26278c7.60147,-4.09367 28.61952,-6.8 28.61952,-6.8l36.04126,0.06278l0.75,84.5c0,0 -0.03765,-20.52436 -24.49768,-20.35618c-24.92469,0.17138 -27.7506,20.15625 -27.7506,20.15625l-46.75314,-0.1789l-42.74386,-0.60521c0,0 0.22143,-19.44131 -26.25867,-18.93094c-27.01101,0.5206 -27.99605,19.16498 -27.99605,19.16498z" fill="#9300ff" stroke="#7a00d2" stroke-width="1.5" stroke-linecap="butt"/><g stroke="none" stroke-linecap="butt"><path d="M204.90604,277.56248c0,-10.58546 8.58121,-19.16667 19.16667,-19.16667c10.58546,0 19.16667,8.58121 19.16667,19.16667c0,10.58546 -8.58121,19.16667 -19.16667,19.16667c-10.58546,0 -19.16667,-8.58121 -19.16667,-19.16667z" fill="#000000" stroke-width="NaN"/><path d="M212.90604,277.22913c0,-6.16718 4.99949,-11.16667 11.16667,-11.16667c6.16718,0 11.16667,4.99949 11.16667,11.16667c0,6.16718 -4.99949,11.16667 -11.16667,11.16667c-6.16718,0 -11.16667,-4.99949 -11.16667,-11.16667z" fill="#bfbfbf" stroke-width="0"/></g><g stroke="none" stroke-linecap="butt"><path d="M348.23937,278.22913c0,-10.58546 8.58121,-19.16666 19.16667,-19.16666c10.58546,0 19.16667,8.5812 19.16667,19.16666c0,10.58546 -8.58121,19.16667 -19.16667,19.16667c-10.58546,0 -19.16667,-8.58121 -19.16667,-19.16667z" fill="#000000" stroke-width="NaN"/><path d="M356.23937,277.89583c0,-6.16718 4.99949,-11.16667 11.16667,-11.16667c6.16718,0 11.16667,4.99949 11.16667,11.16667c0,6.16718 -4.99949,11.16667 -11.16667,11.16667c-6.16718,0 -11.16667,-4.99949 -11.16667,-11.16667z" fill="#bfbfbf" stroke-width="0"/></g><path d="M325.26655,211.55116c0,0 -8.06525,-2.34186 -12.43739,-4.5541c-5.53688,-2.80159 -18.12262,-10.90885 -18.12262,-10.90885c0,0 13.85291,-32.8751 18.94279,-42.93442c2.99802,-5.92509 8.79987,-11.89442 8.79987,-11.89442l32.15526,18.35699c0,0 -3.2615,7.96315 -5.89466,12.62443c-5.22615,9.2515 -23.44326,39.31038 -23.44326,39.31038z" data-paper-data="{&quot;index&quot;:null}" fill="#7f00ff" stroke="#6600cc" stroke-width="2" stroke-linecap="butt"/><path d="M371.34937,181.06253c0,0 -0.82453,3.77188 -2.48583,3.89793c-1.11902,0.0849 -3.46097,-2.2725 -6.05711,-2.44871c-1.01803,-0.06909 -2.11357,2.74617 -3.2194,2.7299c-0.8392,-0.01235 -2.06839,-2.7875 -2.69568,-2.10327c-0.99448,1.08479 -2.42212,3.64389 -4.07449,3.84858c-1.577,0.19536 -3.39842,-2.00516 -3.6167,0.61117c-0.32412,3.88497 -4.35493,-4.52468 -4.35493,-4.52468l-4.49869,-59.29317c0,0 -18.06386,-5.52117 -28.29673,-10.05417c-4.39281,-1.94594 -8.02311,-4.2944 -7.04154,-4.98363c2.54001,-1.78349 19.83531,-8.8682 35.32239,-9.21763c13.72578,-0.3097 25.98449,6.02118 25.98449,6.02118l5.0342,75.5165z" data-paper-data="{&quot;index&quot;:null}" fill="#000000" stroke="#000000" stroke-width="2" stroke-linecap="butt"/><path d="M354.57417,126.96782c5.0752,14.31064 0.39059,28.61954 -13.92004,33.69475c-14.31064,5.0752 -35.78372,-1.19485 -40.85893,-15.50548c-4.07199,-11.48184 -1.36788,-22.13692 8.05804,-29.6236c0.89565,-0.71138 4.40693,-2.28163 5.40052,-2.8847c1.58264,-0.9606 3.70155,-3.986 5.43934,-4.6023c1.03139,-0.36578 2.54007,1.82241 3.65686,1.79737c1.96528,-0.04406 3.58375,-2.05839 5.45119,-1.97857c3.04148,0.13 6.41414,1.80035 9.23587,2.77251c0.8257,0.28447 3.63241,-4.24311 4.42074,-3.91131c6.96574,2.93187 10.40576,12.59811 13.1164,20.24135z" data-paper-data="{&quot;index&quot;:null}" fill="#ffd499" stroke="#dfba86" stroke-width="2" stroke-linecap="butt"/><path d="M293.07036,168.12191c0,4.42976 -2.08933,8.0208 -4.66665,8.0208c-2.57732,0 -4.66665,-3.59103 -4.66665,-8.0208c0,-4.42976 2.08933,-8.0208 4.66665,-8.0208c2.57732,0 4.66665,3.59103 4.66665,8.0208z" data-paper-data="{&quot;index&quot;:null}" fill="#ffd499" stroke="#dfba86" stroke-width="2" stroke-linecap="butt"/><path d="M290.48676,182.62194c0,4.26868 -2.48108,7.72913 -5.54164,7.72913c-3.06056,0 -5.54164,-3.46045 -5.54164,-7.72913c0,-4.26868 2.48108,-7.72913 5.54164,-7.72913c3.06056,0 5.54164,3.46045 5.54164,7.72913z" data-paper-data="{&quot;index&quot;:null}" fill="#ffd499" stroke="#dfba86" stroke-width="2" stroke-linecap="butt"/><path d="M254.81043,168.8825v-6.66666h16.33334v6.66666z" fill="#ff0000" stroke="#b40000" stroke-width="2" stroke-linecap="butt"/><path d="M317.71516,129.1386l7.54597,2.69499l-5.38998,5.92898" fill="none" stroke="#000000" stroke-width="2" stroke-linecap="round"/><path d="M343.04808,138.84055l-9.16297,-7.54597l5.38998,-1.61699" fill="none" stroke="#000000" stroke-width="2" stroke-linecap="round"/><path d="M329.74606,145.80574c0,0 -36.20683,1.46585 -39.7861,1.00334c-4.94954,-0.63956 12.84373,-4.48476 12.84373,-4.48476c0,0 0.93201,2.12988 5.71822,2.74834c4.08204,0.52747 21.22414,0.73308 21.22414,0.73308z" fill="#000000" stroke="#000000" stroke-width="2" stroke-linecap="round"/></g></g></svg>