<svg version="1.1" xmlns="http://www.w3.org/2000/svg" xmlns:xlink="http://www.w3.org/1999/xlink" width="109.25093" height="111.24403" viewBox="0,0,109.25093,111.24403"><g transform="translate(-183.5185,-125.49602)"><g data-paper-data="{&quot;isPaintingLayer&quot;:true}" fill-rule="nonzero" stroke-linejoin="miter" stroke-miterlimit="10" stroke-dasharray="" stroke-dashoffset="0" style="mix-blend-mode: normal"><g data-paper-data="{&quot;index&quot;:null}" fill="#949494" stroke="#000000" stroke-width="2"><path d="M209.83813,211.58371c0,0 -9.04432,-10.24098 -7.40339,-17.46135c0.58985,-2.59547 0.31984,-2.72642 1.2158,-7.0512c0.32272,-1.55777 0.77906,-3.18128 1.19857,-5.05789c1.12493,-5.03229 2.29969,-10.44817 2.29969,-10.44817c0,0 12.99629,-0.65912 17.39515,-1.62294c0.42472,-0.09306 21.13913,-4.1469 21.56723,-4.24358c10.47753,-2.36618 7.02232,-1.77742 7.02232,-1.77742c0,0 4.19072,-4.2462 5.84486,-4.29091c3.17645,-0.08584 5.38518,-3.90689 8.23842,1.25522c1.34107,2.42628 1.23029,2.75249 2.35598,6.237c1.64324,5.08661 3.6166,12.97106 3.00974,18.62212c-0.81673,7.60545 -4.65935,12.38283 -4.65935,12.38283z" stroke-linecap="butt"/><path d="M232.33495,205.68171c0,0 7.01874,-10.72106 4.66961,-19.80225c-1.27207,-4.11792 -7.81601,-11.6689 -7.81601,-11.6689l-5.01197,-4.00822l4.16339,3.46467c0,0 3.90586,-1.33765 6.04629,-2.07068c2.42349,-0.82998 7.75119,-2.65457 7.75119,-2.65457l-0.58789,-1.57331" stroke-linecap="round"/><path d="M254.80614,171.27234c0,0 3.1553,-0.16637 6.10924,0.86574c3.60024,1.25793 7.18995,3.99687 8.03308,7.22222c0.8363,3.19922 1.06933,8.04101 -1.01637,11.49636c-2.57365,4.26373 -7.8175,6.8633 -9.47564,7.03094c-4.49644,0.45462 -9.84534,-6.70058 -10.54103,-8.5487c-1.91622,-5.09043 -1.00463,-12.2464 -0.35,-13.6925c1.22058,-2.6963 7.24072,-4.37407 7.24072,-4.37407" stroke-linecap="round"/><path d="M208.64559,194.7603c-1.05125,-4.79787 1.407,-8.17826 5.03029,-10.72131c1.1185,-0.78504 3.63882,-2.36356 5.04436,-2.67152c5.95861,-1.30557 10.87453,2.46546 12.2503,8.74444c1.37577,6.27898 -2.83208,13.50806 -8.7907,14.81363c-5.95862,1.30557 -12.1585,-3.88628 -13.53426,-10.16525z" stroke-linecap="butt"/></g><g data-paper-data="{&quot;index&quot;:null}" stroke="#000000" stroke-width="2" stroke-linecap="round"><path d="M184.75598,169.74577c0,0 9.80877,-0.56607 15.21593,1.53476c2.32564,0.90357 4.91329,2.59187 5.67076,3.93318c0.87947,1.55735 -0.29324,2.72103 -0.67587,2.81162c-2.58084,0.61104 -7.72401,-0.33508 -9.80037,-1.14423c-3.63957,-1.41832 -10.64793,-7.13041 -10.64793,-7.13041" fill="#d8d8d8"/><path d="M201.90838,172.00313l-1.53911,5.97138" fill="none"/></g><path d="M253.0168,202.73271l-1.18763,-15.20168c0,0 0.05333,-5.51103 1.7352,-6.53118c0.95481,-0.57916 4.04298,-2.93281 6.09158,-3.27646c2.5653,-0.43031 4.54981,1.89493 5.66353,2.33741c0.48628,0.1932 1.71137,4.38239 1.71137,4.38239c0,0 -0.13387,3.43598 -0.22249,5.71047c-0.13152,3.37576 -0.49009,12.57905 -0.49009,12.57905z" data-paper-data="{&quot;index&quot;:null}" fill="#949494" stroke="#000000" stroke-width="2.5" stroke-linecap="butt"/><g data-paper-data="{&quot;index&quot;:null}"><g><path d="M228.76557,216.15832l-2.87848,-5.19385l4.36284,-2.41792l2.87848,5.19385z" data-paper-data="{&quot;index&quot;:null}" fill="#000000" stroke="none" stroke-width="0" stroke-linecap="butt"/><path d="M242.07179,213.18626l2.91701,4.05317l3.26151,3.4294l0.24186,4.4751l2.23146,-2.56641l2.58206,-0.7447l1.5207,-0.7882l2.56031,-0.21402l-0.79775,3.90093l-5.23891,8.50306l-1.5207,0.7882l-3.45724,1.34671l-8.63964,-4.50031l-3.30155,-10.23514z" fill="#949494" stroke="#000000" stroke-width="2.5" stroke-linecap="round"/><path d="M233.48438,220.38265l-4.18019,-1.76602l-0.72295,-3.11274l1.72252,-3.11883l4.93445,-1.07355l5.51471,0.33232l1.31887,1.54245z" fill="#242424" stroke="#000000" stroke-width="2.5" stroke-linecap="round"/><path d="M234.15511,211.79868l2.40198,1.05526l0.98046,4.61168" fill="none" stroke="#000000" stroke-width="2.5" stroke-linecap="round"/></g><g stroke="none" stroke-linecap="butt"><path d="M244.28327,233.68508l-5.31575,-2.31336l-3.14711,-11.44936l5.86273,-5.17024l5.54244,5.99287l0.66032,6.07538z" fill="#8c6200" stroke-width="NaN"/><path d="M235.28198,224.63222l0.59387,-5.37462l5.85,-4.84398l1.8152,2.56402z" fill="#8c0081" stroke-width="NaN"/><path d="M256.04232,225.06193l-6.56245,9.23364l-5.46782,-1.73469l3.5676,-6.39553l2.66208,-2.03644l2.25373,-2.63432l1.32256,-0.3149l2.74396,0.03438z" fill="#8c0081" stroke-width="0"/><g fill="#ffffff" stroke-width="0.5"><path d="M240.24715,220.4518c-0.00006,-0.00045 -0.00013,-0.0009 -0.00019,-0.00135c-0.03952,-0.2708 0.23128,-0.31033 0.23128,-0.31033c1.32487,-0.17939 2.01946,0.79148 1.73637,1.86547c-0.09846,-0.0851 -0.22594,-0.01649 -0.22594,-0.01649c-0.86465,0.46531 -1.73532,0.91283 -2.56962,1.42684c-0.4298,-0.18571 -0.76286,-0.45952 -0.79192,-0.79305c-0.04093,-0.46982 0.26798,-0.99197 0.50405,-1.35572c0.34529,-0.44849 0.67191,-0.6218 1.11598,-0.81538zM239.64854,222.04417c0.09982,-0.05372 0.13719,-0.17819 0.08347,-0.27801c-0.05372,-0.09983 -0.1782,-0.13719 -0.27802,-0.08348c-0.09983,0.05372 -0.13719,0.17819 -0.08347,0.27801c0.05372,0.09982 0.17819,0.13719 0.27801,0.08347zM241.10841,221.21967c0.09983,-0.05372 0.13718,-0.1782 0.08346,-0.27802c-0.05372,-0.09983 -0.17819,-0.1372 -0.27801,-0.08348c-0.09983,0.05372 -0.13719,0.1782 -0.08348,0.27802c0.05372,0.09982 0.17819,0.13719 0.27801,0.08347z"/><path d="M243.11127,221.40202c0.33469,-0.18012 0.5148,0.15456 0.5148,0.15456l-0.07085,-0.04698c0.17054,0.12276 0.30566,0.28773 0.41431,0.47361l0.01269,-0.01451l0.00957,0.00837l0.09404,-0.06342l0.26412,0.3916c0.00807,0.01165 0.01557,0.02387 0.02244,0.03665c0.09948,0.18484 0.03029,0.41533 -0.15456,0.5148c-0.10058,0.05413 -0.21469,0.0583 -0.31383,0.02109c-0.0025,0.00631 -0.00408,0.00973 -0.00408,0.00973c-0.25138,0.53872 -0.54168,1.04856 -0.82053,1.56546c0.28426,0.0119 0.56919,0.02952 0.85529,0.05437c0.78832,0.06845 1.6412,-0.16633 2.28638,0.30472c-0.04402,-0.03242 -0.1536,-0.11314 -0.20006,-0.14737l0.08754,-0.10329l-0.05062,-0.02488l0.17832,-0.36281c0.03354,-0.07042 0.08899,-0.13119 0.16294,-0.171c0.18485,-0.09947 0.41533,-0.03027 0.5148,0.15458c0.01648,0.03061 0.02834,0.06249 0.0358,0.0948l0.09435,0.37145l-0.06571,0.01669c0.11066,0.31176 0.07977,0.57461 -0.10522,1.02051c0.01095,0.1108 -0.01851,0.25492 -0.20096,0.35311c-0.33469,0.18012 -0.51481,-0.15456 -0.51481,-0.15456l-0.03274,-0.38163c0.0193,-0.03947 0.03479,-0.07882 0.04765,-0.11767c-0.57587,-0.01757 -1.38112,-0.06376 -1.52358,-0.06859c-0.66278,-0.02249 -1.31804,-0.04206 -1.97215,-0.05453c-0.0827,0.17292 -0.16154,0.34847 -0.2348,0.5279c-0.14164,0.34687 -0.23273,0.70497 -0.33583,1.06037c0.2596,0.02009 0.5356,0.08875 0.8687,0.24222l0.4311,0.12943c0.09315,0.02796 0.17564,0.09148 0.22538,0.18389c0.09948,0.18485 0.03028,0.41534 -0.15456,0.51481c-0.04182,0.0225 -0.08595,0.03637 -0.13039,0.04222l-0.74236,0.11556l-0.00465,-0.02986c-0.60538,0.1961 -1.12885,0.23185 -2.01088,0.09922l-0.18127,-0.05043c0,0 -0.36402,-0.1093 -0.25472,-0.47332c0.01065,-0.03545 0.02371,-0.06643 0.03862,-0.09344c-0.00974,-0.02981 -0.01683,-0.06326 -0.02055,-0.10081c-0.03753,-0.37821 0.34068,-0.41575 0.34068,-0.41575c0.30166,-0.02872 0.55655,-0.07327 0.79165,-0.10961c0.157,-0.46434 0.24951,-0.94456 0.43605,-1.40356c0.03424,-0.08428 0.06981,-0.16776 0.1065,-0.25055c-0.586,-0.00508 -1.17324,-0.00305 -1.7663,0.00914c-0.07462,0.34054 -0.2193,0.62648 -0.49443,0.68841c-1.27739,0.28756 -0.59848,-1.78386 -0.41557,-2.15682l0.16739,-0.20228c0,0 0.26056,-0.27672 0.53726,-0.01616c0.01595,0.01501 0.0301,0.03008 0.04264,0.04515c0.68726,-0.40614 1.39552,-0.77469 2.1008,-1.15273c-0.02991,0.06033 -0.06296,0.12056 -0.09926,0.18052c-0.05586,0.0923 -0.523,0.87618 -0.61141,0.93726c-0.26241,0.18131 -0.82394,0.1876 -1.36929,0.06207c0.01438,0.02035 0.02594,0.04063 0.03506,0.06072c0.16867,0.10066 0.17523,0.31897 0.17523,0.31897c0.00313,0.11211 0.0091,0.2793 0.00646,0.46928c0.69721,-0.02163 1.38776,-0.04111 2.07919,-0.03591c0.32676,-0.62081 0.68307,-1.22372 0.97709,-1.86463c0,0 0.01696,-0.03662 0.05174,-0.08046c-0.20805,-0.08482 -0.40776,-0.19247 -0.59711,-0.31203c0,0 -0.31999,-0.20509 -0.11489,-0.52508c0.1388,-0.21654 0.33022,-0.19261 0.43946,-0.15451c0.02983,-0.03388 0.06959,-0.06585 0.12196,-0.09403z"/></g></g></g><path d="M224.22143,187.50125l11.34519,13.09464l-7.6682,8.27019l-1.50797,0.52438l-11.99539,-10.00951l-3.56899,-5.96366l1.64352,-5.14594l4.51431,-2.94212l3.35904,-0.02445z" data-paper-data="{&quot;index&quot;:null}" fill="#949494" stroke="#000000" stroke-width="2.5" stroke-linecap="round"/><g data-paper-data="{&quot;index&quot;:null}"><g><path d="M266.25042,209.63982l-3.15488,-5.03075l4.22583,-2.6501l3.15488,5.03075z" fill="#000000" stroke="none" stroke-width="0" stroke-linecap="butt"/><path d="M287.803,230.3624c0,0 0.07825,1.26575 -0.9562,1.3386c-2.71067,0.1909 -15.90816,-0.15097 -15.90816,-0.15097l-9.9761,-14.4891c0,0 7.01669,-2.18114 9.74102,-3.31952c1.05692,-0.44164 8.0137,8.73896 8.80524,8.70022c0.82275,-0.04027 -1.60082,2.84679 -1.52667,3.65287c0.08371,0.91014 2.63353,-0.2451 3.17013,-0.2451c1.5119,0 4.27547,0.47505 4.27547,0.47505l2.37526,4.03795z" fill="#949494" stroke="#000000" stroke-width="2.5" stroke-linecap="butt"/><path d="M259.29985,216.11082l5.70063,-8.55094l2.9246,-0.58112l2.44228,0.83612l1.52138,2.35779l-0.23753,3.32537z" fill="#242424" stroke="#000000" stroke-width="2.5" stroke-linecap="butt"/><path d="M266.1881,214.68567l-1.90021,-0.9501l-0.71258,-2.13774" fill="none" stroke="#000000" stroke-width="2.5" stroke-linecap="round"/><path d="M276.1642,231.19374l1.90021,-5.70063" fill="none" stroke="#000000" stroke-width="2.5" stroke-linecap="round"/></g><g stroke="none" stroke-linecap="butt"><path d="M272.40076,230.86938l-10.16992,-12.77164l9.12586,-4.54021l1.36026,3.00741l5.18466,6.38923z" fill="#8c6200" stroke-width="NaN"/><path d="M264.72353,221.11324l-2.25813,-3.20357l8.94351,-3.971l1.38313,3.20357z" fill="#8c0081" stroke-width="NaN"/><path d="M272.00373,231.08844l3.75,-10.25l2.25,2l0.19822,4.28095l3.06964,-0.27925l3.39558,0.69924l0.91506,1.00548l1.2965,2.41859z" fill="#8c0081" stroke-width="0"/><g fill="#ffffff" stroke-width="0.5"><path d="M267.91905,219.11729c-0.00014,-0.00043 -0.00027,-0.00086 -0.00041,-0.0013c-0.08184,-0.26115 0.17932,-0.34299 0.17932,-0.34299c1.27986,-0.38655 2.11918,0.46231 2.00941,1.56755c-0.11067,-0.06846 -0.22571,0.01944 -0.22571,0.01944c-0.78022,0.59614 -1.56921,1.17565 -2.31177,1.81508c-0.45375,-0.11543 -0.82591,-0.33315 -0.90732,-0.65789c-0.11469,-0.45744 0.10781,-1.02187 0.28341,-1.41836c0.27006,-0.49744 0.56518,-0.7202 0.97306,-0.98153zM267.61813,220.49656c-0.06882,-0.09008 -0.19763,-0.10731 -0.28771,-0.03848c-0.09008,0.06882 -0.10731,0.19763 -0.03848,0.28771c0.06882,0.09008 0.19763,0.10731 0.28771,0.03848c0.09008,-0.06882 0.10731,-0.19763 0.03848,-0.28771zM268.89083,219.73938c0.09008,-0.06882 0.10731,-0.19763 0.03848,-0.28771c-0.06882,-0.09008 -0.19763,-0.10731 -0.28771,-0.03848c-0.09007,0.06882 -0.10731,0.19763 -0.03848,0.28771c0.06883,0.09008 0.19764,0.10731 0.28772,0.03848z"/><path d="M270.89735,219.60284c0.302,-0.23075 0.53276,0.07125 0.53276,0.07125l-0.07739,-0.03519c0.18779,0.09425 0.3473,0.23579 0.48397,0.40217l0.01024,-0.01635l0.01077,0.00675l0.08284,-0.07749l0.3227,0.34493c0.00981,0.01023 0.01915,0.02111 0.02795,0.03264c0.12744,0.16679 0.09555,0.40532 -0.07125,0.53276c-0.09076,0.06935 -0.20277,0.0915 -0.30655,0.07043c-0.00148,0.00663 -0.0025,0.01025 -0.0025,0.01025c-0.16307,0.57169 -0.36914,1.12101 -0.56277,1.67548c0.28258,-0.03317 0.5667,-0.06082 0.85314,-0.08151c0.78922,-0.05701 1.59427,-0.42367 2.3058,-0.06052c-0.04858,-0.02506 -0.16955,-0.08745 -0.22083,-0.11389l0.07011,-0.11583l-0.05392,-0.01657l0.11873,-0.38644c0.02199,-0.07484 0.06713,-0.14361 0.13386,-0.1946c0.1668,-0.12744 0.40532,-0.09555 0.53276,0.07125c0.02111,0.02763 0.03786,0.05723 0.05033,0.08796l0.15187,0.35187l-0.06224,0.02687c0.15855,0.29034 0.16959,0.55478 0.05741,1.02431c0.02832,0.10768 0.02201,0.25464 -0.14263,0.38044c-0.30201,0.23075 -0.53276,-0.07125 -0.53276,-0.07125l-0.09265,-0.37166c0.01282,-0.04202 0.02191,-0.08333 0.02845,-0.12372c-0.57141,0.07368 -1.37384,0.15536 -1.51527,0.1731c-0.658,0.08255 -1.30812,0.1668 -1.95597,0.25789c-0.05432,0.18382 -0.10442,0.36964 -0.1484,0.55838c-0.08503,0.3649 -0.11836,0.73289 -0.16399,1.10012c0.25952,-0.02119 0.54289,0.00298 0.89606,0.10187l0.44614,0.05966c0.09641,0.01289 0.1879,0.06257 0.25162,0.14596c0.12744,0.1668 0.09555,0.40532 -0.07125,0.53276c-0.03773,0.02883 -0.07913,0.04951 -0.12208,0.06231l-0.71476,0.23145l-0.00931,-0.02875c-0.56678,0.28934 -1.07802,0.40737 -1.96991,0.41584l-0.18697,-0.02115c0,0 -0.37673,-0.05039 -0.32634,-0.42711c0.00491,-0.03669 0.01291,-0.06933 0.02336,-0.09836c-0.01433,-0.02788 -0.02662,-0.0598 -0.03623,-0.09629c-0.09684,-0.36752 0.27068,-0.46437 0.27068,-0.46437c0.29334,-0.07604 0.53798,-0.16032 0.76438,-0.23337c0.08163,-0.48331 0.09705,-0.97213 0.20871,-1.45484c0.0205,-0.08863 0.04242,-0.17667 0.06555,-0.26423c-0.57944,0.08761 -1.15898,0.18245 -1.74265,0.28822c-0.01985,0.34805 -0.11751,0.65326 -0.37939,0.75791c-1.21588,0.48585 -0.87293,-1.66685 -0.75127,-2.06402l0.13331,-0.22619c0,0 0.21354,-0.31442 0.52795,-0.10088c0.01812,0.01231 0.03447,0.02495 0.04923,0.03784c0.61442,-0.50967 1.25552,-0.98553 1.89217,-1.47031c-0.01998,0.0643 -0.04311,0.12901 -0.06947,0.19395c-0.04057,0.09997 -0.37793,0.94783 -0.45557,1.02212c-0.23046,0.22051 -0.78393,0.31548 -1.34227,0.27773c0.01741,0.01782 0.03203,0.03603 0.04421,0.05441c0.18246,0.07274 0.22345,0.28727 0.22345,0.28727c0.02081,0.11021 0.05315,0.27435 0.08057,0.46236c0.68502,-0.13157 1.36381,-0.25996 2.04737,-0.36411c0.22453,-0.66466 0.48106,-1.31631 0.67007,-1.99564c0,0 0.01095,-0.03883 0.03837,-0.08763c-0.21885,-0.05087 -0.43306,-0.12561 -0.63892,-0.21373c0,0 -0.34839,-0.15193 -0.19645,-0.50032c0.10282,-0.23577 0.29561,-0.24239 0.40951,-0.22204c0.02409,-0.03816 0.0583,-0.07602 0.10556,-0.11212z"/></g></g></g><g data-paper-data="{&quot;index&quot;:null}"><g stroke="#000000" stroke-width="2.5"><path d="M260.21295,159.54571c0,0 0.37382,-1.49134 0,-2.61279c-0.33436,-1.00305 -2.13774,-3.80042 -2.13774,-3.80042c0,0 -4.82884,-3.36413 -4.50429,-6.71662c0.03684,-0.38056 1.48571,-8.6683 6.28563,-13.35727c3.43077,-3.35147 10.43238,-3.70263 11.33658,-3.33724c0.69893,0.28244 5.09711,0.72703 9.16966,2.53989c5.73937,2.55483 11.05964,6.41853 11.05964,6.41853l-2.00675,13.6172l-20.88931,-0.1146l0.71258,7.36331z" fill="#949494" stroke-linecap="butt"/><path d="M290.61632,146.00671l-13.06394,-2.61279l-3.32537,-3.32537l-3.32537,-9.9761l11.16373,3.56289l8.78847,4.98805z" fill="#000000" stroke-linecap="round"/><path d="M273.2769,141.73123h1.66268" fill="none" stroke-linecap="round"/><path d="M274.70206,144.34405l-2.37526,-0.23753" fill="none" stroke-linecap="round"/><path d="M273.03937,146.71931l-1.42516,-0.23753" fill="none" stroke-linecap="round"/><path d="M287.76232,152.29388c0,0 -12.49164,-0.39597 -18.91936,0.1673c-1.58149,0.13859 -0.21237,1.97931 -1.19817,1.99021c-8.7343,0.0966 -9.63865,-1.9509 -10.4463,-2.94232c-2.00598,-2.46241 -4.19835,-5.75255 -4.09135,-6.33654c0.13759,-0.75094 1.86893,-2.51352 1.86893,-2.51352l3.92426,1.53509l5.4631,1.90021l5.70063,1.18763l9.9761,0.23753l8.07589,4.27547" fill="#373737" stroke-linecap="round"/><path d="M287.42842,154.60757l-0.9501,2.37526h-12.35136l-2.61279,-0.47505l-0.9501,-2.37526l0.47505,-1.90021l1.18763,-1.42516l1.42516,0.47505l1.18763,1.42516l0.9501,1.18763z" fill="#000000" stroke-linecap="round"/><path d="M264.2509,158.12057l0.23753,-2.61279" fill="none" stroke-linecap="round"/><path d="M269.00142,155.7453l-8.55094,-0.71258" fill="none" stroke-linecap="round"/><path d="M263.53831,133.41784l-1.18763,2.13774l0.47505,2.13774l-3.56289,-1.90021l0.23753,-4.513l3.32537,-3.80042l1.42516,1.90021l0.23753,3.32537z" fill="#151515" stroke-linecap="round"/><path d="M264.25091,137.10145l-3.32537,0.47505l-1.66268,-3.32537l0.9501,-1.42516l2.37526,-2.13774l1.90021,-0.23753l1.18763,0.9501l1.18763,1.18763l0.47505,2.61279z" fill="none" stroke-linecap="round"/></g><path d="M285.22017,136.05849c2.56859,0.75552 3.17067,2.26139 2.7603,4.07085c-0.41037,1.80946 -2.31153,2.9206 -4.24638,2.48179c-1.93484,-0.43881 -3.17067,-2.26139 -2.7603,-4.07085c0.41037,-1.80946 1.60058,-3.26001 4.24638,-2.48179z" fill="#54ff00" stroke="none" stroke-width="0" stroke-linecap="butt"/><path d="M275.61586,138.1616c-0.99389,0.11043 -1.10432,-0.88345 -1.10432,-0.88345l-0.03459,-1.38182c0.60581,-1.51114 1.15258,-2.67069 2.36411,-3.77602c0,0 0.74741,-0.66436 1.41177,0.08305c0.66436,0.74741 -0.08305,1.41177 -0.08305,1.41177c-0.99724,0.8552 -1.35583,1.82093 -1.83589,3.02398l0.16541,0.41818c0,0 0.11043,0.99389 -0.88345,1.10432z" fill="#54ff00" stroke="none" stroke-width="0.5" stroke-linecap="butt"/></g></g></g></svg>