<svg version="1.1" xmlns="http://www.w3.org/2000/svg" xmlns:xlink="http://www.w3.org/1999/xlink" width="103.07601" height="102.17219" viewBox="0,0,103.07601,102.17219"><g transform="translate(-188.40892,-128.62451)"><g data-paper-data="{&quot;isPaintingLayer&quot;:true}" fill-rule="nonzero" stroke-linecap="butt" stroke-linejoin="miter" stroke-miterlimit="10" stroke-dasharray="" stroke-dashoffset="0" style="mix-blend-mode: normal"><g><path d="M211.81867,187.52542l1.02748,-4.718l36.23549,28.38889l-4.84742,-1.01191c0,0 -15.60004,-4.87812 -21.22486,-8.80995c-5.13583,-3.59002 -11.19069,-13.84903 -11.19069,-13.84903z" fill="#373737" stroke="#000000" stroke-width="2.5"/><path d="M253.87646,226.21773l-20.46397,-15.61111c0,0 -0.65812,-5.42144 3.14117,-6.01651c7.94907,-1.24504 39.59935,-3.31927 39.59935,-3.31927l5.72991,11.18697c0,0 -2.80252,13.52333 -7.21455,16.17055c-5.05111,3.03066 -20.79192,-2.41063 -20.79192,-2.41063z" fill="#373737" stroke="#000000" stroke-width="2.5"/><path d="M189.93149,174.53125c0,0 2.66633,-7.99447 5.40859,-10.65949c3.51935,-3.42022 15.60108,-8.16736 15.60108,-8.16736l12.27838,1.09141l-8.73129,24.82962c0,0 -7.97424,-1.99975 -14.30356,-3.42742c-5.70145,-1.28604 -10.25321,-3.66676 -10.25321,-3.66676z" fill="#373737" stroke="#000000" stroke-width="2.5"/><path d="M274.8268,141.94279c-2.39904,6.02853 -5.25569,13.73742 -5.25569,13.73742l-25.41882,-6.82853l6.03842,-10.7465c0,0 10.74412,-7.28474 15.55469,-8.25537c3.74838,-0.7563 11.85067,1.56186 11.85067,1.56186c0,0 -0.60821,5.10062 -2.76927,10.53112z" data-paper-data="{&quot;index&quot;:null}" fill="#373737" stroke="#000000" stroke-width="2.5"/><path d="M211.48687,184.0811l7.36703,-30.01382c0,0 8.97407,-5.26779 17.12968,-6.8567c7.85043,-1.52946 14.74213,0.57022 22.26535,2.92194c7.59615,2.37452 13.09539,10.03289 16.63771,12.93904c11.52555,9.45566 15.18187,38.74499 15.18187,38.74499c0,0 -17.54714,-0.06641 -22.78688,1.32024c-7.65836,2.02672 -18.72779,9.66626 -18.72779,9.66626c0,0 -10.52937,-10.62626 -14.38156,-11.93325c0,0 -8.0645,-3.54511 -11.08335,-5.77926c-4.16665,-3.0836 -11.60206,-11.00943 -11.60206,-11.00943z" fill="#949494" stroke="#000000" stroke-width="2.5"/><path d="M244.77493,198.54231c0,0 -13.15895,-3.01784 -20.36449,-10.73416c-4.24164,-4.54232 -3.56742,-13.74391 -4.59105,-16.77822c-1.4838,-4.39841 3.12063,-13.08314 9.67577,-17.7812c6.55514,-4.69807 12.38366,-5.47898 20.46397,-3.81994c8.08031,1.65904 18.56322,7.49601 24.12676,12.97526c6.34021,6.24415 11.88982,22.49562 11.88982,22.49562l-14.9729,5.77525l0.07833,5.39874c0,0 -5.64822,0.99317 -7.98625,1.76735c-2.35708,0.78049 -2.78135,-4.04218 -2.78135,-4.04218z" fill="#000000" stroke="#000000" stroke-width="2.5"/><g fill="#00ff0d" stroke="none"><path d="M254.3241,157.56545c1.98765,0 6.04396,0.72045 8.71483,1.91447c3.3026,1.47643 5.06424,3.67692 5.06424,6.13469c0,0 -1.64034,4.14343 -6.24903,2.89805c-19.12708,-5.16861 -7.53005,-10.94721 -7.53005,-10.94721z" stroke-width="0"/><path d="M268.87038,158.80453c-0.69338,1.04006 -1.73344,0.34669 -1.73344,0.34669l-1.27411,-1.09337c-1.90632,-4.76257 -8.50752,-7.17135 -13.31227,-7.15513c0,0 -1.25,0 -1.25,-1.25c0,-1.25 1.25,-1.25 1.25,-1.25c6.02376,0.01748 13.05044,2.97751 15.61014,8.67033l0.363,-0.00196c0,0 1.04007,0.69338 0.34669,1.73344z" stroke-width="0.5"/><path d="M246.00208,169.16169c-0.49948,3.42427 -3.52297,5.63461 -8.59836,6.50844c-1.07323,0.18478 -5.24212,7.27327 -9.16091,3.80508c-2.63589,-2.33279 5.27515,-6.69593 4.08348,-7.27287c-3.33038,-2.12779 -5.4563,7.21597 -8.15243,4.32638c0,0 -0.27311,-8.51394 12.89066,-11.11736c5.83655,-1.1543 9.2293,1.75027 8.93757,3.75033z" stroke-width="0"/></g><g fill="#373737" stroke="#000000" stroke-width="2.5"><path d="M233.47328,213.36704l-6.86716,-10.29152l4.77595,-3.83068c0,0 5.52627,3.15955 7.00786,4.99073c1.15282,1.42484 1.14548,5.08643 1.14548,5.08643z"/><path d="M226.89111,210.22034c-1.92229,-2.88086 -2.12356,-6.12176 -0.44955,-7.23877c1.67401,-1.11701 4.58939,0.31287 6.51168,3.19373c1.92229,2.88086 2.12356,6.12176 0.44955,7.23877c-1.67401,1.11701 -4.58939,-0.31287 -6.51168,-3.19373z"/></g><path d="M273.43872,201.16218c0.9615,-0.9615 1.92299,0 1.92299,0l0.02087,0.04704c4.79768,3.43093 11.48588,11.37223 7.04464,17.63189c-2.85238,4.02026 -10.59854,5.96824 -15.08822,5.94881c-2.56844,-0.56043 -6.47127,-0.96216 -8.37302,-2.96311c-0.66309,-0.69768 -0.64846,-2.79076 -1.54466,-2.43966c-2.15545,0.84442 0.08764,3.62522 -3.90801,3.48254c-0.45048,-0.01609 -2.64294,-2.5092 -3.21001,-2.98841c-2.61291,-2.20808 -4.5258,-7.58757 -6.50707,-10.51759c0,0 -0.04817,-0.07225 1.08322,-0.82651c1.13139,-0.75426 2.59174,2.31888 2.59174,2.31888c1.77061,2.70463 2.1725,4.90292 4.55625,6.92209c0.758,0.64207 0.83698,2.08393 1.7826,2.38825c0.73143,0.23538 0.58004,-1.46545 1.11381,-2.01815c0.54651,-0.56589 1.11681,-1.27252 1.89103,-1.41216c3.2737,-0.59043 2.84572,1.72656 4.21604,3.32104c1.18288,1.37637 4.93431,1.64994 6.60481,2.0295c3.04926,-0.01567 4.62156,-0.87489 7.41726,-2.02537c1.73091,-0.7123 3.93443,-1.10172 5.1459,-2.77914c3.477,-4.8143 -2.95137,-11.40185 -6.39701,-13.85995l-0.36317,-0.33701c0,0 -0.9615,-0.9615 0,-1.92299z" fill="#000000" stroke="none" stroke-width="0.5"/></g></g></g></svg>