<svg version="1.1" xmlns="http://www.w3.org/2000/svg" xmlns:xlink="http://www.w3.org/1999/xlink" width="163.52391" height="105.53715" viewBox="0,0,163.52391,105.53715"><g transform="translate(-157.95857,-125.86348)"><g data-paper-data="{&quot;isPaintingLayer&quot;:true}" fill-rule="nonzero" stroke-linejoin="miter" stroke-miterlimit="10" stroke-dasharray="" stroke-dashoffset="0" style="mix-blend-mode: normal"><g data-paper-data="{&quot;index&quot;:null}" fill="#949494" stroke="#000000" stroke-width="2"><path d="M204.7492,200.30539c0,0 -6.64286,-11.93942 -3.49459,-18.64127c1.13169,-2.40908 0.89596,-2.59479 2.69679,-6.62759c0.64865,-1.4526 1.4419,-2.94082 2.25333,-4.68416c2.17592,-4.67491 4.48262,-9.71385 4.48262,-9.71385c0,0 12.8362,2.13774 17.33941,2.13774c0.4348,0 21.53684,0.47359 21.97571,0.47078c10.74117,-0.06885 7.24001,-0.23325 7.24001,-0.23325c0,0 5.00242,-3.25087 6.6278,-2.9405c3.12122,0.596 6.09658,-2.66377 7.77886,2.9894c0.7907,2.65709 0.61267,2.95203 0.96648,6.59672c0.51648,5.32044 0.7566,13.44454 -1.04569,18.83477c-2.4256,7.25441 -7.20167,11.09865 -7.20167,11.09865z" stroke-linecap="butt"/><path d="M227.98791,199.35514c0,0 9.15072,-8.9704 8.79967,-18.34394c-0.36124,-4.29476 -5.1374,-13.07136 -5.1374,-13.07136l-4.03795,-4.98805l3.32537,4.27547c0,0 4.10165,-0.47068 6.34937,-0.72861c2.54497,-0.29205 8.13973,-0.93407 8.13973,-0.93407l-0.23753,-1.66268" stroke-linecap="round"/><path d="M257.303,170.55263c0,0 3.11779,0.51281 5.78238,2.15324c3.24758,1.99934 6.16789,5.44311 6.30116,8.77418c0.13219,3.30408 -0.67646,8.08355 -3.45338,11.01242c-3.42658,3.61409 -9.1053,5.03108 -10.76089,4.83995c-4.48955,-0.51829 -8.18307,-8.6525 -8.46709,-10.60669c-0.78231,-5.3826 1.63974,-12.17764 2.58871,-13.45012c1.76938,-2.37258 8.00911,-2.72298 8.00911,-2.72298" stroke-linecap="round"/><path d="M207.185,183.61658c0,-4.91169 3.12479,-7.68761 7.2084,-9.39624c1.2606,-0.52746 4.06037,-1.52997 5.49925,-1.52997c6.09996,0 10.09486,4.7358 10.09486,11.16373c0,6.42793 -5.65758,12.58889 -11.75755,12.58889c-6.09997,0 -11.04497,-6.3985 -11.04497,-12.82642z" stroke-linecap="butt"/></g><g data-paper-data="{&quot;index&quot;:null}" stroke="#000000" stroke-width="2" stroke-linecap="round"><path d="M187.97052,155.68868c0,0 9.8184,-0.36242 15.18081,1.85015c2.30639,0.95163 4.85845,2.69326 5.58793,4.05c0.84697,1.57526 -0.34964,2.71436 -0.73406,2.79699c-2.59296,0.55736 -7.71539,-0.49528 -9.77452,-1.34734c-3.60936,-1.49353 -10.49769,-7.34981 -10.49769,-7.34981" fill="#d8d8d8"/><path d="M205.07239,158.30146l-1.66268,5.93816" fill="none"/></g><g data-paper-data="{&quot;index&quot;:null}"><g><path d="M187.55133,201.10467l8.0992,-3.67172l5.35254,3.92021l-8.0992,3.67172z" data-paper-data="{&quot;index&quot;:null}" fill="#000000" stroke="none" stroke-width="0" stroke-linecap="butt"/><path d="M196.33426,213.76469l-6.13438,3.52741l-4.9702,3.76778l-7.59933,0.95411l5.01563,1.79252l1.99207,2.42982l1.77216,1.37515l1.07692,2.49318l-6.90411,-0.16391l-16.02022,-3.81229l-1.77216,-1.37515l-3.2662,-3.1975l5.31282,-9.24793l16.61821,-4.89523z" fill="#949494" stroke="#000000" stroke-width="2.5" stroke-linecap="round"/><path d="M181.6236,206.43809l1.86577,-4.40875l5.13195,-1.21124l5.82083,1.20181l3.20804,4.69938l0.96058,5.49692l-2.27654,1.54848z" fill="#242424" stroke="#000000" stroke-width="2.5" stroke-linecap="round"/><path d="M196.51511,205.728l-1.14144,2.53978l-7.62842,1.70506" fill="none" stroke="#000000" stroke-width="2.5" stroke-linecap="round"/></g><g stroke="none" stroke-linecap="butt"><path d="M161.83061,219.22457l2.48839,-5.61719l18.74118,-4.93687l10.48372,4.96085l-8.729,6.42916l-10.22474,1.62301z" fill="#8c6200" stroke-width="NaN"/><path d="M174.8422,208.89188l9.37217,-0.27292l9.92127,5.00044l-3.88893,2.20173z" fill="#8c0081" stroke-width="NaN"/><path d="M179.86539,229.45394l-17.63899,-5.00202l1.45487,-5.67481l11.94609,2.49937l4.22719,2.30231l5.13815,1.80364l0.90637,1.25521l0.70233,2.71417z" fill="#8c0081" stroke-width="0"/><g fill="#ffffff" stroke-width="0.5"><path d="M183.38124,213.12494c0.00075,-0.00014 0.00152,-0.00028 0.00226,-0.0004c0.45295,-0.08231 0.5958,0.1787 0.5958,0.1787c0.67487,1.27916 -0.79566,2.12001 -2.7141,2.01224c0.11847,-0.1108 -0.03444,-0.22567 -0.03444,-0.22567c-1.03701,-0.77915 -2.04521,-1.56709 -3.15722,-2.30849c0.1989,-0.45397 0.5756,-0.8265 1.13889,-0.90852c0.7935,-0.11551 1.77371,0.10597 2.46236,0.28085c0.86411,0.26917 1.25164,0.56387 1.70645,0.97129zM180.48724,212.78858c0.11971,0.08994 0.34332,0.10694 0.49943,0.03795c0.15611,-0.06899 0.18559,-0.19784 0.06588,-0.28779c-0.11972,-0.08995 -0.34332,-0.10694 -0.49943,-0.03795c-0.15609,0.06898 -0.18559,0.19783 -0.06587,0.28778zM182.30471,214.09788c0.11972,0.08995 0.34333,0.10693 0.49944,0.03795c0.15613,-0.06898 0.1856,-0.19783 0.06589,-0.28778c-0.11972,-0.08995 -0.34334,-0.10694 -0.49944,-0.03796c-0.15609,0.06898 -0.18559,0.19783 -0.06587,0.28778z"/><path d="M182.54797,216.10414c0.40142,0.30159 -0.12196,0.53289 -0.12196,0.53289l0.06083,-0.07745c-0.16299,0.18797 -0.40812,0.34772 -0.69642,0.4847l0.02838,0.0102l-0.01168,0.01079l0.13473,0.08269l-0.59759,0.32332c-0.01773,0.00983 -0.03658,0.01919 -0.05655,0.028c-0.28906,0.12775 -0.7031,0.09629 -0.9248,-0.07028c-0.12064,-0.09063 -0.15943,-0.20261 -0.1232,-0.30642c-0.0115,-0.00146 -0.01779,-0.00247 -0.01779,-0.00247c-0.99264,-0.16203 -1.9466,-0.3671 -2.90947,-0.55973c0.05846,0.28251 0.10733,0.56658 0.14414,0.85299c0.10143,0.78912 0.74025,1.59351 0.11225,2.30569c0.04333,-0.04864 0.15121,-0.16972 0.19695,-0.22104l0.20124,0.0699l0.02858,-0.05394l0.67101,0.11803c0.12995,0.02185 0.24944,0.06687 0.33815,0.13351c0.22168,0.16658 0.16707,0.40515 -0.12201,0.53288c-0.04788,0.02117 -0.09919,0.03797 -0.15247,0.0505l-0.61016,0.15251l-0.04683,-0.0622c-0.50338,0.15907 -0.96225,0.1706 -1.77746,0.05926c-0.18678,0.02852 -0.44185,0.02248 -0.66068,-0.14193c-0.40142,-0.30159 0.12197,-0.53289 0.12197,-0.53289l0.6447,-0.09332c0.07297,0.01274 0.14469,0.02175 0.2148,0.02822c-0.12966,-0.57127 -0.27392,-1.37355 -0.30516,-1.51495c-0.14532,-0.65785 -0.29359,-1.30781 -0.4537,-1.9555c-0.31918,-0.05399 -0.6418,-0.10376 -0.96949,-0.1474c-0.63354,-0.08437 -1.27227,-0.11704 -1.90971,-0.16202c0.03759,0.25947 -0.00346,0.5429 -0.17396,0.89624l-0.10213,0.44625c-0.02206,0.09643 -0.10799,0.18801 -0.25251,0.25188c-0.28909,0.12775 -0.70313,0.09629 -0.92481,-0.07028c-0.05015,-0.03768 -0.08615,-0.07903 -0.1085,-0.12197l-0.40391,-0.71435l0.04987,-0.00936c-0.50389,-0.56625 -0.71035,-1.07728 -0.72784,-1.96916l0.03612,-0.187c0,0 0.08627,-0.37681 0.7402,-0.32711c0.06369,0.00484 0.12038,0.01278 0.17079,0.02318c0.04835,-0.01439 0.10371,-0.02673 0.16699,-0.0364c0.6375,-0.0975 0.80674,0.26984 0.80674,0.26984c0.13289,0.29319 0.27992,0.53769 0.40739,0.76395c0.83903,0.08075 1.68737,0.0953 2.52544,0.20608c0.15388,0.02033 0.30676,0.0421 0.45877,0.06507c-0.15386,-0.57928 -0.32026,-1.15864 -0.50566,-1.74213c-0.60409,-0.01922 -1.13407,-0.11634 -1.31651,-0.37802c-0.847,-1.21499 2.88996,-0.87595 3.57962,-0.75501l0.39297,0.1329c0,0 0.54634,0.21297 0.17672,0.52778c-0.02128,0.01815 -0.04318,0.03452 -0.06552,0.04931c0.88644,0.6135 1.7143,1.25373 2.55758,1.88951c-0.11165,-0.01988 -0.22399,-0.04289 -0.3368,-0.06912c-0.17361,-0.0404 -1.6461,-0.37622 -1.77526,-0.45373c-0.38341,-0.23006 -0.54996,-0.78336 -0.48619,-1.34176c-0.03087,0.01744 -0.06242,0.0321 -0.09429,0.04432c-0.12564,0.18259 -0.49783,0.22397 -0.49783,0.22397c-0.19119,0.02101 -0.47596,0.05363 -0.80215,0.0814c0.23048,0.68479 0.45542,1.36334 0.63831,2.04672c1.15418,0.22332 2.28588,0.47867 3.46541,0.66645c0,0 0.06744,0.01088 0.15219,0.03821c0.08759,-0.21894 0.2166,-0.43328 0.36889,-0.63931c0,0 0.26258,-0.34866 0.86766,-0.19736c0.40947,0.1024 0.42157,0.29518 0.38662,0.40912c0.06632,0.02403 0.13211,0.05817 0.19492,0.10536z"/></g></g></g><path d="M226.7224,187.27115l-9.88665,16.12309l-18.33406,-2.82838l-1.99526,-1.07558l4.8488,-15.23938l5.80503,-5.94128l8.85862,-0.98371l7.97829,2.5731l2.77349,2.93487z" data-paper-data="{&quot;index&quot;:null}" fill="#949494" stroke="#000000" stroke-width="2.5" stroke-linecap="round"/><path d="M269.77734,202.49103l-16.28944,-11.38319c0,0 -5.28686,-4.41955 -4.12833,-6.24951c0.65769,-1.0389 2.31807,-4.78151 4.60274,-6.29485c2.86092,-1.89503 7.657,-1.2449 9.51056,-1.56665c0.80931,-0.14048 6.44587,2.4531 6.44587,2.4531c0,0 3.1676,2.81636 5.26444,4.6807c3.1121,2.76701 11.59654,10.31065 11.59654,10.31065z" data-paper-data="{&quot;index&quot;:null}" fill="#949494" stroke="#000000" stroke-width="2.5" stroke-linecap="butt"/><g data-paper-data="{&quot;index&quot;:null}"><g><path d="M284.31752,200.27308l-5.38411,-4.90076l6.60981,-2.81673l5.38411,4.90076z" fill="#000000" stroke="none" stroke-width="0" stroke-linecap="butt"/><path d="M320.22422,220.11847c0,0 0.20671,1.26162 -1.44826,1.37571c-4.33664,0.29899 -25.53202,0.48442 -25.53202,0.48442l-16.93423,-14.07917c0,0 11.11741,-2.45961 15.41521,-3.70587c1.66737,-0.4835 13.41714,8.41197 14.68457,8.34166c1.31739,-0.07309 -2.38576,2.90844 -2.2151,3.71091c0.19265,0.90606 4.20941,-0.35007 5.07029,-0.3715c2.42563,-0.06037 6.88983,0.30394 6.88983,0.30394l4.06968,3.93987z" fill="#949494" stroke="#000000" stroke-width="2.5" stroke-linecap="butt"/><path d="M273.58125,207.01648l8.59755,-8.77176l4.65483,-0.69745l3.97189,0.73793l2.59202,2.29516l-0.16787,3.3322z" fill="#242424" stroke="#000000" stroke-width="2.5" stroke-linecap="butt"/><path d="M284.54107,205.31741l-3.10952,-0.87346l-1.2803,-2.10757" fill="none" stroke="#000000" stroke-width="2.5" stroke-linecap="round"/><path d="M301.60474,221.41393l2.68309,-5.77196" fill="none" stroke="#000000" stroke-width="2.5" stroke-linecap="round"/></g><g stroke="none" stroke-linecap="butt"><path d="M295.54606,221.24011l-17.13506,-12.35534l14.35001,-4.90101l2.37517,2.95069l8.7277,6.17709z" fill="#8c6200" stroke-width="NaN"/><path d="M282.60351,211.79833l-3.82825,-3.11084l14.09395,-4.32498l2.42444,3.14578z" fill="#8c0081" stroke-width="NaN"/><path d="M294.92314,221.47485l5.35911,-10.39158l3.73804,1.90855l0.5925,4.26962l4.90688,-0.40161l5.49255,0.56309l1.53255,0.96814l2.23513,2.36489z" fill="#8c0081" stroke-width="0"/><g fill="#ffffff" stroke-width="0.5"><path d="M287.60229,209.67636c-0.00024,-0.00042 -0.00049,-0.00085 -0.00074,-0.00128c-0.14805,-0.25767 0.26571,-0.34987 0.26571,-0.34987c2.02856,-0.43734 3.42956,0.37731 3.3243,1.48606c-0.18194,-0.06398 -0.36087,0.02843 -0.36087,0.02843c-1.21353,0.62683 -2.44219,1.23737 -3.59252,1.90595c-0.73539,-0.09722 -1.34642,-0.2999 -1.49785,-0.62113c-0.21333,-0.4525 0.10745,-1.02536 0.36374,-1.42854c0.40138,-0.50783 0.86057,-0.7422 1.4982,-1.0196zM287.20792,211.06655c-0.11619,-0.08726 -0.32395,-0.09934 -0.46406,-0.02696c-0.14011,0.07236 -0.1595,0.20176 -0.04329,0.28902c0.11619,0.08726 0.32395,0.09934 0.46406,0.02696c0.14011,-0.07236 0.1595,-0.20176 0.04329,-0.28902zM289.20125,210.25915c0.14011,-0.07236 0.1595,-0.20176 0.04329,-0.28902c-0.11619,-0.08726 -0.32395,-0.09934 -0.46406,-0.02696c-0.14009,0.07236 -0.1595,0.20176 -0.04329,0.28902c0.1162,0.08727 0.32397,0.09933 0.46407,0.02697z"/><path d="M292.41166,210.0426c0.46973,-0.24262 0.85931,0.04992 0.85931,0.04992l-0.12642,-0.03207c0.30733,0.08668 0.57232,0.22173 0.80225,0.38252l0.01538,-0.01674l0.01771,0.00632l0.12794,-0.08073l0.53983,0.33177c0.01639,0.00983 0.03208,0.02033 0.04694,0.0315c0.21515,0.16157 0.17929,0.40118 -0.08015,0.53518c-0.14117,0.07292 -0.31945,0.09953 -0.4873,0.08261c-0.00194,0.00669 -0.00336,0.01034 -0.00336,0.01034c-0.22497,0.57774 -0.52036,1.13485 -0.79545,1.69662c0.45124,-0.04443 0.9053,-0.08341 1.36351,-0.11551c1.26252,-0.08849 2.5306,-0.48699 3.69545,-0.15255c-0.07955,-0.0231 -0.27763,-0.08061 -0.36158,-0.10498l0.10506,-0.11853l-0.08756,-0.0144l0.16571,-0.39088c0.03049,-0.07565 0.09849,-0.14618 0.20229,-0.19979c0.25944,-0.134 0.64415,-0.11166 0.85931,0.04992c0.03564,0.02677 0.0644,0.05567 0.08638,0.08588l0.26621,0.34552l-0.09814,0.02933c0.27298,0.28378 0.30765,0.54757 0.15779,1.02121c0.05234,0.10647 0.05164,0.25355 -0.20444,0.38583c-0.46973,0.24263 -0.85931,-0.04992 -0.85931,-0.04992l-0.17246,-0.36766c0.01788,-0.0425 0.02981,-0.08415 0.03771,-0.12476c-0.91203,0.09644 -2.19416,0.2101 -2.41994,0.23347c-1.05037,0.10876 -2.08799,0.2189 -3.12155,0.33579c-0.07537,0.18585 -0.14384,0.37352 -0.20228,0.56387c-0.11301,0.368 -0.14289,0.73703 -0.19256,1.1058c0.41501,-0.03153 0.87117,-0.01871 1.44414,0.066l0.71959,0.0418c0.15551,0.00903 0.30546,0.05501 0.41304,0.1358c0.21516,0.16158 0.17929,0.40118 -0.08015,0.53518c-0.05869,0.03032 -0.12378,0.05264 -0.19188,0.06713l-1.13189,0.2598l-0.01678,-0.02836c-0.89077,0.31174 -1.7034,0.45009 -3.13378,0.49417l-0.30132,-0.01366c0,0 -0.60763,-0.0353 -0.55095,-0.41373c0.00552,-0.03686 0.01625,-0.06979 0.03117,-0.09921c-0.02477,-0.02729 -0.04653,-0.05869 -0.0643,-0.09476c-0.17893,-0.36336 0.40448,-0.47481 0.40448,-0.47481c0.46575,-0.08769 0.85283,-0.18167 1.21136,-0.26371c0.09997,-0.48619 0.09336,-0.97523 0.24155,-1.46201c0.02722,-0.08938 0.05673,-0.17822 0.08822,-0.26664c-0.924,0.11068 -1.84772,0.22859 -2.77735,0.35758c-0.00954,0.34857 -0.14664,0.65742 -0.56008,0.77245c-1.91956,0.53402 -1.50736,-1.63066 -1.33763,-2.03238l0.19937,-0.23133c0,0 0.32244,-0.3227 0.84055,-0.12189c0.02986,0.01157 0.0569,0.02355 0.08142,0.03585c0.95307,-0.53381 1.95111,-1.03489 2.94144,-1.5447c-0.02793,0.06505 -0.06089,0.13063 -0.09902,0.19657c-0.05868,0.10151 -0.54556,0.96217 -0.66536,1.03951c-0.3556,0.22954 -1.23746,0.34654 -2.13567,0.33111c0.02908,0.01711 0.0537,0.03472 0.07443,0.0526c0.29739,0.0654 0.37691,0.27812 0.37691,0.27812c0.04045,0.10929 0.10287,0.27201 0.1589,0.45877c1.09058,-0.15882 2.17136,-0.31421 3.26136,-0.44557c0.3176,-0.6731 0.6874,-1.33447 0.94707,-2.02081c0,0 0.01508,-0.03923 0.05594,-0.0891c-0.35438,-0.04208 -0.70284,-0.10821 -1.03876,-0.18804c0,0 -0.56868,-0.1379 -0.34726,-0.49208c0.14984,-0.23969 0.45871,-0.254 0.64276,-0.23822c0.0362,-0.0391 0.08865,-0.07829 0.16217,-0.11624z"/></g></g></g><g><g stroke="#000000" stroke-width="2.5"><path d="M261.86728,160.01884c0,0 0.26067,-1.51522 -0.1964,-2.6054c-0.40881,-0.97508 -2.41736,-3.62898 -2.41736,-3.62898c0,0 -5.06805,-2.99164 -4.99642,-6.35904c0.00813,-0.38225 0.82994,-8.75545 5.26381,-13.79196c3.16915,-3.59987 10.12455,-4.47633 11.05365,-4.17994c0.71818,0.2291 5.13734,0.34183 9.33463,1.84344c5.91517,2.11619 11.51082,5.56904 11.51082,5.56904l-0.9775,13.72951l-20.83882,1.45592l1.26404,7.28892z" fill="#949494" stroke-linecap="butt"/><path d="M291.16694,144.2328l-13.22337,-1.62341l-3.56592,-3.066l-4.06584,-9.69792l11.39996,2.71366l9.13854,4.31333z" fill="#000000" stroke-linecap="round"/><path d="M275.21317,141.14779l-1.65797,0.12498" fill="none" stroke-linecap="round"/><path d="M272.78632,143.71276l2.3864,0.05831" fill="none" stroke-linecap="round"/><path d="M273.69327,146.26459l-1.43898,-0.12973" fill="none" stroke-linecap="round"/><path d="M288.79361,150.71672c0,0 -12.48606,0.54412 -18.85326,1.58895c-1.5666,0.25708 -0.06299,1.98967 -1.04518,2.07464c-8.70233,0.75286 -9.75803,-1.22087 -10.63792,-2.14878c-2.1854,-2.30466 -4.61888,-5.42069 -4.55607,-6.01108c0.08075,-0.75916 1.67471,-2.6469 1.67471,-2.6469l4.02854,1.23577l5.59048,1.48418l5.77377,0.75577l9.96573,-0.51302l8.37442,3.65633" fill="#373737" stroke-linecap="round"/><path d="M284.91777,159.74008l-1.94212,1.66515l-10.94689,-5.72029l-2.09568,-1.63109l0.25799,-2.54519l1.30108,-1.46413l1.71262,-0.71308l1.0431,1.08106l0.39255,1.81313l0.29204,1.49261z" fill="#000000" stroke-linecap="round"/><path d="M265.78668,158.29421l0.04046,-2.62326" fill="none" stroke-linecap="round"/><path d="M270.34522,155.56858l-8.58031,-0.06781" fill="none" stroke-linecap="round"/><path d="M263.21925,133.71494l-1.02358,2.22096l0.6344,2.09598l-3.69564,-1.62702l-0.10237,-4.51808l3.0303,-4.03963l1.56396,1.7877l0.48681,3.2981z" fill="#151515" stroke-linecap="round"/><path d="M264.20674,137.33456l-3.28026,0.72367l-1.90794,-3.19099l0.84029,-1.49254l2.20785,-2.31023l1.87698,-0.3797l1.25569,0.85814l1.27354,1.095l0.6701,2.56969z" fill="none" stroke-linecap="round"/></g><g fill="#00ff59" stroke="none" stroke-width="0.5" stroke-linecap="butt"><path d="M279.29609,142.24439c-0.45151,-0.3927 -0.05882,-0.84421 -0.05882,-0.84421l0.31322,-0.34541c1.07471,-0.85823 2.10398,-1.73308 3.27298,-2.43286c-1.57518,-0.93358 -3.27839,-1.65534 -4.81628,-2.64683c0,0 -0.50251,-0.3249 -0.17761,-0.8274c0.3249,-0.50251 0.8274,-0.17761 0.8274,-0.17761c1.73423,1.12472 3.68374,1.90111 5.42392,3.02301l0.15069,0.09742c0.10172,0.03617 0.20267,0.10907 0.28338,0.24361c0.06585,0.09154 0.12133,0.21611 0.10636,0.36704c-0.00492,0.15158 -0.07625,0.2678 -0.15353,0.34992c-0.09692,0.12191 -0.20568,0.18097 -0.31054,0.20388c-1.43652,0.70035 -2.61866,1.73853 -3.85879,2.7341l-0.15815,0.19654c0,0 -0.3927,0.45151 -0.84421,0.05881z"/><path d="M284.0851,134.78125c-0.36906,0.47103 -0.8401,0.10197 -0.8401,0.10197l-0.19832,-0.23199c-2.27317,-0.48915 -4.69054,-2.29639 -6.98271,-2.28167c0,0 -0.59838,-0.00431 -0.59407,-0.6027c0.00432,-0.59837 0.6027,-0.59407 0.6027,-0.59407c2.47348,0.04308 4.79738,1.78663 7.22566,2.30839l0.68485,0.45996c0,0 0.47103,0.36906 0.10197,0.8401z"/></g></g></g></g></svg>