<svg version="1.1" xmlns="http://www.w3.org/2000/svg" xmlns:xlink="http://www.w3.org/1999/xlink" width="480" height="366.2012" viewBox="0,0,480,366.2012"><g transform="translate(0,3.1006)"><g data-paper-data="{&quot;isPaintingLayer&quot;:true}" fill-rule="nonzero" stroke-linejoin="miter" stroke-miterlimit="10" stroke-dasharray="" stroke-dashoffset="0" style="mix-blend-mode: normal"><text transform="translate(77.7048,92.13184) scale(0.86836,0.86836)" font-size="40" xml:space="preserve" fill="#000000" fill-rule="nonzero" stroke="none" stroke-width="1" stroke-linecap="butt" stroke-linejoin="miter" stroke-miterlimit="10" stroke-dasharray="" stroke-dashoffset="0" font-family="Sans Serif" font-weight="normal" text-anchor="start" style="mix-blend-mode: normal"><tspan x="0" dy="0">The Evil Aibo Clone</tspan></text><path d="M83.98214,308.31009v-48.3755h177.74912v48.37551z" fill="#d69b00" stroke="none" stroke-width="0" stroke-linecap="butt"/><path d="M83.98214,266.14725v-13.2272h177.75311v13.2272l-18.15987,16.08956l-17.90286,-17.83946l-13.45595,17.32317l-22.46017,-17.74453l-19.05427,11.87844l-23.47506,-10.20406l-23.34911,11.46637l-15.49009,-8.96965l-14.19369,11.47693z" fill="#00d624" stroke="none" stroke-width="0" stroke-linecap="butt"/><path d="M261.9476,309.59038v-106.63038h128.45763v106.63039z" fill="#d69b00" stroke="none" stroke-width="0" stroke-linecap="butt"/><path d="M261.9476,209.17269v-13.2272h128.46052v13.2272l-13.12397,16.08956l-12.93822,-17.83946l-9.72449,17.32317l-16.23176,-17.74453l-13.77034,11.87844l-16.9652,-10.20406l-16.87419,11.46637l-11.19454,-8.96965l-10.25765,11.47693z" fill="#00d624" stroke="none" stroke-width="0" stroke-linecap="butt"/><g><g data-paper-data="{&quot;index&quot;:null}" fill="#949494" stroke="#000000" stroke-width="2"><path d="M110.83299,253.1971c0,0 -5.62684,-3.07542 -6.05563,-6.524c-0.15413,-1.23965 -0.29421,-1.25433 -0.58939,-3.30604c-0.10632,-0.73902 -0.16418,-1.5284 -0.2787,-2.42359c-0.30711,-2.40053 -0.65348,-4.97831 -0.65348,-4.97831c0,0 5.63039,-2.36618 7.41783,-3.49397c0.17259,-0.10889 8.66713,-5.20573 8.84061,-5.31675c4.2462,-2.71735 2.81534,-1.90578 2.81534,-1.90578c0,0 1.17144,-2.54316 1.89432,-2.82703c1.38816,-0.54512 1.75277,-2.58415 3.8363,-0.76157c0.97929,0.85664 0.98249,1.0183 2.03571,2.37636c1.53746,1.98247 3.66738,5.147 4.30193,7.73788c0.85402,3.48693 -0.07897,6.20892 -0.07897,6.20892z" stroke-linecap="butt"/><path d="M119.81904,246.99998c0,0 1.38559,-5.8523 -1.10126,-9.48498c-1.21897,-1.61423 -5.31277,-3.90174 -5.31277,-3.90174l-2.85198,-0.96861l2.39068,0.86423c0,0 1.51017,-1.21404 2.33775,-1.87935c0.93702,-0.75328 2.99694,-2.40928 2.99694,-2.40928l-0.51069,-0.60047" stroke-linecap="round"/><path d="M124.24162,228.22585c0,0 1.36596,-0.57728 2.83443,-0.59347c1.78977,-0.01974 3.81137,0.61582 4.69851,1.90462c0.87995,1.27836 1.75595,3.37798 1.38723,5.23598c-0.45498,2.29268 -2.35413,4.27731 -3.05915,4.61606c-1.91181,0.91864 -5.41501,-1.38502 -6.01715,-2.08956c-1.65855,-1.94057 -2.39892,-5.24427 -2.34093,-5.98701c0.10812,-1.38487 2.49707,-3.08663 2.49707,-3.08663" stroke-linecap="round"/><path d="M107.62026,245.96286c-1.23009,-1.94958 -0.68499,-3.83398 0.508,-5.53488c0.36827,-0.52507 1.2285,-1.62417 1.79963,-1.98452c2.42123,-1.52767 5.19295,-0.64841 6.80276,1.90301c1.60981,2.55141 0.90713,6.41374 -1.5141,7.94142c-2.42123,1.52768 -5.98648,0.22639 -7.59628,-2.32502z" stroke-linecap="butt"/></g><g data-paper-data="{&quot;index&quot;:null}" stroke="#000000" stroke-width="2" stroke-linecap="round"><path d="M92.9999,238.7839c0,0 4.12552,-2.05994 6.84641,-2.15488c1.17027,-0.04084 2.5988,0.20827 3.17379,0.64652c0.66759,0.50884 0.37725,1.2278 0.229,1.33771c-0.99994,0.7413 -3.39323,1.28536 -4.4385,1.32077c-1.83223,0.06207 -5.9122,-1.10404 -5.9122,-1.10404" fill="#949494"/><path d="M101.25688,239.44243l-0.44164,-2.86025" fill="none"/></g><path d="M128.24737,240.94248l-3.9663,-5.95665c0,0 -1.23964,-2.27021 -0.78405,-3.07318c0.25864,-0.45586 0.98518,-2.12709 1.74588,-2.73682c0.95257,-0.76351 2.29792,-0.26506 2.85552,-0.3387c0.24346,-0.03215 1.70433,1.40384 1.70433,1.40384c0,0 0.73165,1.43845 1.21598,2.39065c0.71883,1.41324 2.67857,5.26613 2.67857,5.26613z" data-paper-data="{&quot;index&quot;:null}" fill="#949494" stroke="#000000" stroke-width="2.5" stroke-linecap="butt"/><g data-paper-data="{&quot;index&quot;:null}"><g><path d="M121.83042,246.15487l-1.87934,-2.05796l1.72869,-1.57864l1.87934,2.05796z" data-paper-data="{&quot;index&quot;:null}" fill="#000000" stroke="none" stroke-width="0" stroke-linecap="butt"/><path d="M127.5818,243.35003l1.7728,1.533l1.8622,1.21073l0.59741,2.01674l0.73947,-1.41449l1.09777,-0.62097l0.60849,-0.52533l1.14559,-0.37633l0.0603,1.86774l-1.46645,4.45209l-0.60849,0.52533l-1.43182,0.99105l-4.43407,-1.11439l-2.62109,-4.31346z" fill="#949494" stroke="#000000" stroke-width="2.5" stroke-linecap="round"/><path d="M124.44444,247.56996l-2.1006,-0.35136l-0.66879,-1.34242l0.447,-1.61132l2.13595,-1.02709l2.55384,-0.4484l0.76997,0.56067z" fill="#949494" stroke="#000000" stroke-width="2.5" stroke-linecap="round"/><path d="M123.81653,243.57804l1.21143,0.22038l0.94947,1.99872" fill="none" stroke="#000000" stroke-width="2.5" stroke-linecap="round"/></g><g stroke="none" stroke-linecap="butt"><path d="M130.82215,252.46788l-2.6786,-0.47767l-2.68271,-4.88461l2.11394,-2.99841l3.1825,2.13285l0.9626,2.7018z" fill="#8c6200" stroke-width="NaN"/><path d="M125.72756,249.31443l-0.31375,-2.51835l2.14363,-2.84807l1.10773,0.97304z" fill="#8c0081" stroke-width="NaN"/><path d="M135.25223,247.25145l-1.9912,4.92966l-2.68504,-0.19694l0.93278,-3.30805l0.99374,-1.21941l0.74224,-1.44793l0.56953,-0.28769l1.25647,-0.28291z" fill="#8c0081" stroke-width="0"/><g fill="#ffffff" stroke-width="0.5"><path d="M127.53943,246.86557c-0.00008,-0.0002 -0.00015,-0.00039 -0.00023,-0.0006c-0.04751,-0.11933 0.07182,-0.16685 0.07182,-0.16685c0.58533,-0.22607 1.0081,0.14158 0.99573,0.6627c-0.05421,-0.02814 -0.10495,0.01706 -0.10495,0.01706c-0.34411,0.30653 -0.6929,0.60559 -1.01786,0.93104c-0.21643,-0.03801 -0.39828,-0.12678 -0.44784,-0.27588c-0.06981,-0.21004 0.0144,-0.48203 0.08259,-0.67379c0.10883,-0.24233 0.23909,-0.35699 0.42076,-0.4937zM127.43942,247.65771c0.03972,-0.03539 0.04324,-0.09628 0.00786,-0.136c-0.03539,-0.03973 -0.09628,-0.04324 -0.13601,-0.00786c-0.03973,0.03539 -0.04324,0.09628 -0.00786,0.136c0.03539,0.03972 0.09628,0.04324 0.136,0.00786zM128.01619,247.12243c0.03973,-0.03539 0.04323,-0.09629 0.00785,-0.13601c-0.03539,-0.03973 -0.09628,-0.04325 -0.13601,-0.00786c-0.03973,0.03539 -0.04324,0.09628 -0.00786,0.13601c0.03539,0.03972 0.09628,0.04324 0.136,0.00786z"/><path d="M128.95042,246.98771c0.1332,-0.11866 0.25185,0.01454 0.25185,0.01454l-0.03746,-0.01374c0.09121,0.03749 0.17086,0.09809 0.24069,0.17114l0.00421,-0.00801l0.00528,0.00278l0.03603,-0.03919l0.1632,0.15004c0.00495,0.00444 0.00971,0.0092 0.01423,0.01429c0.06553,0.07356 0.05903,0.18632 -0.01454,0.25185c-0.04002,0.03566 -0.09167,0.04998 -0.14098,0.04378c-0.00046,0.00315 -0.0008,0.00489 -0.0008,0.00489c-0.05614,0.2733 -0.13319,0.53766 -0.20425,0.80399c0.13107,-0.0255 0.26307,-0.04846 0.39639,-0.06825c0.36735,-0.05454 0.73117,-0.25454 1.07698,-0.10969c-0.02363,-0.01001 -0.08244,-0.03494 -0.10737,-0.04551l0.02872,-0.05668l-0.02582,-0.00585l0.04193,-0.18504c0.00765,-0.0358 0.02635,-0.06958 0.05578,-0.0958c0.07357,-0.06553 0.18632,-0.05902 0.25185,0.01455c0.01086,0.01218 0.01974,0.02545 0.02666,0.03939l0.0835,0.15932l-0.02818,0.01477c0.08445,0.13029 0.09895,0.25365 0.06302,0.47736c0.01706,0.04939 0.01929,0.1184 -0.05332,0.18308c-0.1332,0.11866 -0.25185,-0.01454 -0.25185,-0.01454l-0.05647,-0.17067c0.00452,-0.02012 0.00731,-0.03977 0.00895,-0.05891c-0.26482,0.05464 -0.63747,0.12119 -0.70304,0.13448c-0.30503,0.06185 -0.60632,0.12423 -0.9063,0.18972c-0.01894,0.08794 -0.03583,0.17667 -0.04975,0.26656c-0.02692,0.17377 -0.02953,0.34717 -0.03793,0.52065c0.12071,-0.01908 0.25418,-0.01776 0.42296,0.01605l0.2109,0.01217c0.04557,0.00263 0.09014,0.02265 0.12291,0.05943c0.06553,0.07357 0.05902,0.18632 -0.01454,0.25185c-0.01664,0.01482 -0.03528,0.02596 -0.05494,0.03346l-0.32634,0.13354l-0.00537,-0.01313c-0.25504,0.1554 -0.49014,0.22869 -0.90725,0.26412l-0.08825,-0.0033c0,0 -0.17808,-0.01029 -0.1678,-0.18837c0.001,-0.01734 0.0036,-0.03291 0.00746,-0.04686c-0.00769,-0.01255 -0.01457,-0.02705 -0.02035,-0.04379c-0.05829,-0.16858 0.11029,-0.22688 0.11029,-0.22688c0.13459,-0.04594 0.24611,-0.09402 0.34949,-0.13619c0.02115,-0.22908 0.01112,-0.45838 0.04634,-0.68823c0.00646,-0.0422 0.01362,-0.08418 0.02136,-0.12598c-0.26809,0.06145 -0.53596,0.12628 -0.80539,0.19638c0.00299,0.16359 -0.03195,0.30988 -0.15081,0.36809c-0.55189,0.27029 -0.46735,-0.74928 -0.42443,-0.93945l0.0544,-0.11056c0,0 0.08884,-0.15469 0.24353,-0.06584c0.00891,0.00512 0.01702,0.01046 0.02438,0.01597c0.26956,-0.26021 0.55281,-0.50554 0.83366,-0.75488c-0.00709,0.0308 -0.01562,0.06189 -0.02567,0.09321c-0.01546,0.04821 -0.14342,0.45693 -0.17714,0.49443c-0.10007,0.11133 -0.35575,0.17531 -0.61838,0.17735c0.00878,0.00773 0.01626,0.01572 0.02261,0.02391c0.08796,0.0276 0.11471,0.12655 0.11471,0.12655c0.01363,0.05084 0.03455,0.12652 0.05402,0.21354c0.31595,-0.08575 0.62909,-0.16978 0.94532,-0.24265c0.08162,-0.31898 0.17868,-0.63301 0.24317,-0.95761c0,0 0.00376,-0.01857 0.01486,-0.04236c-0.10421,-0.01608 -0.2071,-0.04349 -0.30656,-0.07747c0,0 -0.16841,-0.05881 -0.10959,-0.22722c0.0398,-0.11396 0.1298,-0.12387 0.18382,-0.11836c0.00993,-0.01871 0.02461,-0.03764 0.04545,-0.0562z"/></g></g></g><path d="M111.82288,238.57623l8.0351,-1.24839l1.37789,5.1107l-0.16728,0.73039l-6.97022,2.27585l-3.26117,-0.06693l-1.63689,-1.9361l-0.04499,-2.52855l0.82743,-1.34195z" data-paper-data="{&quot;index&quot;:null}" fill="#949494" stroke="#000000" stroke-width="2.5" stroke-linecap="round"/><g data-paper-data="{&quot;index&quot;:null}"><g><path d="M132.46485,242.62498l-1.48068,-2.36108l1.98331,-1.24377l1.48068,2.36108z" fill="#000000" stroke="none" stroke-width="0" stroke-linecap="butt"/><path d="M142.58012,252.3507c0,0 0.03673,0.59405 -0.44877,0.62824c-1.2722,0.0896 -7.46617,-0.07085 -7.46617,-0.07085l-4.68208,-6.80017c0,0 3.29314,-1.02367 4.57175,-1.55795c0.49604,-0.20727 3.76107,4.10145 4.13256,4.08327c0.38614,-0.0189 -0.75131,1.33608 -0.71651,1.7144c0.03929,0.42716 1.23599,-0.11503 1.48784,-0.11503c0.70958,0 2.00661,0.22296 2.00661,0.22296l1.11478,1.89513z" fill="#949494" stroke="#000000" stroke-width="2.5" stroke-linecap="butt"/><path d="M129.20274,245.66202l2.67548,-4.01321l1.3726,-0.27274l1.14623,0.39242l0.71403,1.10658l-0.11148,1.56069z" fill="#949494" stroke="#000000" stroke-width="2.5" stroke-linecap="butt"/><path d="M132.4356,244.99316l-0.89183,-0.44591l-0.33443,-1.0033" fill="none" stroke="#000000" stroke-width="2.5" stroke-linecap="round"/><path d="M137.11768,252.74089l0.89183,-2.67548" fill="none" stroke="#000000" stroke-width="2.5" stroke-linecap="round"/></g><g stroke="none" stroke-linecap="butt"><path d="M135.35139,252.58866l-4.77305,-5.99411l4.28304,-2.13086l0.63841,1.41147l2.43331,2.99866z" fill="#8c6200" stroke-width="NaN"/><path d="M131.74824,248.0098l-1.05981,-1.50353l4.19745,-1.86371l0.64914,1.50353z" fill="#8c0081" stroke-width="NaN"/><path d="M135.16505,252.69147l1.75999,-4.81063l1.05599,0.93866l0.09303,2.00918l1.44067,-0.13106l1.59365,0.32817l0.42946,0.4719l0.60849,1.13512z" fill="#8c0081" stroke-width="0"/><g fill="#ffffff" stroke-width="0.5"><path d="M133.24799,247.07304c-0.00007,-0.0002 -0.00013,-0.0004 -0.00019,-0.00061c-0.03841,-0.12257 0.08416,-0.16098 0.08416,-0.16098c0.60068,-0.18142 0.99459,0.21698 0.94308,0.7357c-0.05194,-0.03213 -0.10593,0.00912 -0.10593,0.00912c-0.36618,0.27979 -0.73648,0.55177 -1.08498,0.85187c-0.21296,-0.05417 -0.38762,-0.15636 -0.42583,-0.30877c-0.05383,-0.21469 0.0506,-0.47959 0.13301,-0.66568c0.12675,-0.23346 0.26526,-0.33801 0.45669,-0.46066zM133.10676,247.72039c-0.0323,-0.04228 -0.09275,-0.05036 -0.13503,-0.01806c-0.04228,0.0323 -0.05036,0.09275 -0.01806,0.13503c0.0323,0.04228 0.09275,0.05036 0.13503,0.01806c0.04228,-0.0323 0.05036,-0.09275 0.01806,-0.13503zM133.70407,247.36501c0.04228,-0.0323 0.05036,-0.09275 0.01806,-0.13503c-0.0323,-0.04228 -0.09275,-0.05036 -0.13503,-0.01806c-0.04227,0.0323 -0.05036,0.09275 -0.01806,0.13503c0.0323,0.04228 0.09276,0.05036 0.13504,0.01806z"/><path d="M134.64579,247.30092c0.14174,-0.1083 0.25004,0.03344 0.25004,0.03344l-0.03632,-0.01652c0.08814,0.04423 0.163,0.11066 0.22714,0.18875l0.00481,-0.00767l0.00505,0.00317l0.03888,-0.03637l0.15145,0.16189c0.0046,0.0048 0.00899,0.00991 0.01312,0.01532c0.05981,0.07828 0.04484,0.19023 -0.03344,0.25004c-0.0426,0.03255 -0.09517,0.04294 -0.14387,0.03305c-0.00069,0.00311 -0.00117,0.00481 -0.00117,0.00481c-0.07653,0.26831 -0.17325,0.52612 -0.26412,0.78635c0.13262,-0.01557 0.26597,-0.02854 0.4004,-0.03826c0.3704,-0.02676 0.74824,-0.19884 1.08218,-0.0284c-0.0228,-0.01176 -0.07957,-0.04104 -0.10364,-0.05345l0.0329,-0.05436l-0.02531,-0.00778l0.05572,-0.18137c0.01032,-0.03512 0.03151,-0.0674 0.06282,-0.09133c0.07828,-0.05981 0.19023,-0.04484 0.25004,0.03344c0.00991,0.01297 0.01777,0.02686 0.02362,0.04128l0.07128,0.16514l-0.02921,0.01261c0.07441,0.13627 0.07959,0.26037 0.02694,0.48074c0.01329,0.05054 0.01033,0.11951 -0.06694,0.17855c-0.14174,0.1083 -0.25004,-0.03344 -0.25004,-0.03344l-0.04348,-0.17443c0.00602,-0.01972 0.01028,-0.03911 0.01335,-0.05807c-0.26818,0.03458 -0.64478,0.07292 -0.71116,0.08124c-0.30882,0.03874 -0.61394,0.07828 -0.91799,0.12104c-0.02549,0.08627 -0.04901,0.17348 -0.06965,0.26206c-0.03991,0.17126 -0.05555,0.34397 -0.07697,0.51632c0.1218,-0.00995 0.25479,0.0014 0.42055,0.04781l0.20939,0.028c0.04525,0.00605 0.08819,0.02937 0.11809,0.0685c0.05981,0.07828 0.04484,0.19023 -0.03344,0.25004c-0.01771,0.01353 -0.03714,0.02324 -0.0573,0.02924l-0.33546,0.10863l-0.00437,-0.01349c-0.26601,0.1358 -0.50595,0.19119 -0.92454,0.19517l-0.08775,-0.00993c0,0 -0.17681,-0.02365 -0.15316,-0.20046c0.0023,-0.01722 0.00606,-0.03254 0.01096,-0.04616c-0.00673,-0.01308 -0.01249,-0.02807 -0.017,-0.04519c-0.04545,-0.17249 0.12704,-0.21794 0.12704,-0.21794c0.13767,-0.03569 0.25249,-0.07524 0.35875,-0.10953c0.03831,-0.22683 0.04555,-0.45625 0.09795,-0.6828c0.00962,-0.0416 0.01991,-0.08292 0.03076,-0.12401c-0.27195,0.04112 -0.54394,0.08563 -0.81788,0.13527c-0.00932,0.16335 -0.05515,0.30659 -0.17806,0.35571c-0.57065,0.22802 -0.40969,-0.7823 -0.35259,-0.96871l0.06257,-0.10616c0,0 0.10022,-0.14757 0.24778,-0.04735c0.0085,0.00578 0.01618,0.01171 0.02311,0.01776c0.28837,-0.2392 0.58925,-0.46254 0.88805,-0.69006c-0.00938,0.03018 -0.02023,0.06055 -0.0326,0.09103c-0.01904,0.04692 -0.17737,0.44484 -0.21381,0.47971c-0.10816,0.10349 -0.36792,0.14806 -0.62997,0.13035c0.00817,0.00836 0.01503,0.01691 0.02075,0.02554c0.08563,0.03414 0.10487,0.13482 0.10487,0.13482c0.00977,0.05172 0.02494,0.12876 0.03781,0.217c0.3215,-0.06175 0.64008,-0.12201 0.96089,-0.17089c0.10538,-0.31194 0.22578,-0.61778 0.31448,-0.93661c0,0 0.00514,-0.01822 0.01801,-0.04113c-0.10271,-0.02387 -0.20325,-0.05895 -0.29986,-0.10031c0,0 -0.16351,-0.07131 -0.0922,-0.23482c0.04826,-0.11065 0.13874,-0.11376 0.1922,-0.10421c0.01131,-0.01791 0.02736,-0.03568 0.04954,-0.05262z"/></g></g></g><g data-paper-data="{&quot;index&quot;:null}"><g stroke="#000000" stroke-width="2.5"><path d="M125.65015,222.25735c0,0 0.17544,-0.69993 0,-1.22626c-0.15693,-0.47076 -1.0033,-1.78365 -1.0033,-1.78365c0,0 -2.26632,-1.57889 -2.114,-3.15231c0.01729,-0.17861 0.69729,-4.06829 2.95003,-6.26896c1.61016,-1.57294 4.89623,-1.73775 5.32059,-1.56627c0.32803,0.13256 2.39223,0.34122 4.30359,1.19205c2.69366,1.19906 5.19062,3.01241 5.19062,3.01241l-0.94183,6.39096l-9.80397,-0.05379l0.33443,3.45582z" fill="#949494" stroke-linecap="butt"/><path d="M139.91935,215.90308l-6.1313,-1.22626l-1.56069,-1.56069l-1.56069,-4.68208l5.23947,1.67217l4.12469,2.34104z" fill="#000000" stroke-linecap="round"/><path d="M132.56179,213.89647h-0.78035" fill="none" stroke-linecap="round"/><path d="M132.45032,215.12274l-1.11478,-0.11148" fill="none" stroke-linecap="round"/><path d="M131.0011,216.12604l0.66887,0.11148" fill="none" stroke-linecap="round"/><path d="M138.57988,218.85383c0,0 -5.8627,-0.18584 -8.87942,0.07852c-0.74224,0.06504 -0.09967,0.92895 -0.56234,0.93406c-4.09927,0.04534 -4.5237,-0.91562 -4.90276,-1.38092c-0.94147,-1.15568 -1.97041,-2.69984 -1.92019,-2.97393c0.06458,-0.35244 0.87714,-1.17967 0.87714,-1.17967l1.84177,0.72046l2.564,0.89183l2.67548,0.55739l4.68208,0.11148l3.79026,2.00661" fill="#373737" stroke-linecap="round"/><path d="M138.42317,219.93971l-0.44591,1.11478h-5.79686l-1.22626,-0.22296l-0.44591,-1.11478l0.22296,-0.89183l0.55739,-0.66887l0.66887,0.22296l0.55739,0.66887l0.44591,0.55739z" fill="#000000" stroke-linecap="round"/><path d="M127.65676,220.36223l-0.11148,1.22626" fill="none" stroke-linecap="round"/><path d="M129.77484,220.47371l-4.01321,-0.33443" fill="none" stroke-linecap="round"/><path d="M127.21084,209.99477l-0.55739,1.0033l0.22296,1.0033l-1.67217,-0.89183l0.11148,-2.11808l1.56069,-1.78365l0.66887,0.89183l0.11148,1.56069z" fill="#151515" stroke-linecap="round"/><path d="M127.54528,211.72359l-1.56069,0.22296l-0.78035,-1.56069l0.44591,-0.66887l1.11478,-1.0033l0.89183,-0.11148l0.55739,0.44591l0.55739,0.55739l0.22296,1.22626z" fill="none" stroke-linecap="round"/></g><path d="M137.38678,211.2341c1.20552,0.35459 1.48809,1.06134 1.29549,1.91057c-0.1926,0.84923 -1.08487,1.37072 -1.99295,1.16478c-0.90808,-0.20595 -1.48809,-1.06134 -1.29549,-1.91057c0.1926,-0.84923 0.7512,-1.53002 1.99295,-1.16478z" fill="#54ff00" stroke="none" stroke-width="0" stroke-linecap="butt"/><path d="M132.87919,212.22113c-0.46646,0.05183 -0.51829,-0.41463 -0.51829,-0.41463l-0.01623,-0.64853c0.28432,-0.70922 0.54094,-1.25343 1.10955,-1.7722c0,0 0.35078,-0.3118 0.66259,0.03898c0.3118,0.35078 -0.03898,0.66259 -0.03898,0.66259c-0.46803,0.40137 -0.63633,0.85462 -0.86164,1.41924l0.07763,0.19626c0,0 0.05183,0.46646 -0.41463,0.51829z" fill="#54ff00" stroke="none" stroke-width="0.5" stroke-linecap="butt"/></g></g><g stroke-width="1"><path d="M326.13804,190.58204c0,-2.99817 2.4305,-5.42867 5.42866,-5.42867c2.99817,0 5.42867,2.4305 5.42867,5.42867c0,2.99817 -2.4305,5.42867 -5.42867,5.42867c-2.99817,0 -5.42866,-2.4305 -5.42866,-5.42867z" fill="#000000" stroke="none" stroke-linecap="butt"/><path d="M296.72878,180.47289c0,0 -4.1075,-10.93671 -3.45946,-17.61237c0.11274,-1.16136 -1.49867,-4.68769 3.04334,-5.35502c3.21532,-0.47241 4.3488,2.77956 4.3488,2.77956c0,0 -1.93227,0.09073 3.99574,0.12873c0.24221,0.00155 11.88834,-0.25982 12.12831,-0.25982c2.48531,0 9.56956,-1.17981 9.56956,-1.17981l3.73815,6.95388c0,0 0.45434,10.3462 0.37522,12.91036c-0.07421,2.405 -0.83613,2.02776 -0.83613,2.02776z" fill="#949494" stroke="#000000" stroke-linecap="butt"/><path d="M303.90476,164.4457c0,0 3.44368,0.19339 4.42019,1.5028c0.52373,0.70227 1.86046,4.45244 1.4287,7.42307c-0.15675,1.07851 -2.19519,5.56775 -4.67296,5.85379c-0.91372,0.10548 -4.04778,-0.67655 -5.9389,-2.67115c-1.53257,-1.61643 -1.97886,-4.2542 -1.9059,-6.07771c0.07355,-1.8384 1.68526,-3.73901 3.47758,-4.84244c1.47057,-0.90535 3.19128,-1.18836 3.19128,-1.18836" fill="#949494" stroke="#000000" stroke-linecap="round"/><path d="M327.39436,170.16624c0,3.54755 -2.72913,7.07885 -6.09567,7.07885c-3.36655,0 -6.48895,-3.40021 -6.48895,-6.94776c0,-3.54755 2.20477,-6.16122 5.57132,-6.16122c0.79411,0 2.33929,0.55328 3.03502,0.84439c2.25373,0.94298 3.97828,2.475 3.97828,5.18575z" fill="#949494" stroke="#000000" stroke-linecap="butt"/><g data-paper-data="{&quot;index&quot;:null}" stroke="#000000" stroke-linecap="round"><path d="M340.03458,157.35922c0,0 -3.80165,3.23206 -5.79363,4.05633c-1.13643,0.47025 -3.96347,1.0512 -5.39452,0.74359c-0.21216,-0.0456 -0.87257,-0.67426 -0.40512,-1.54364c0.4026,-0.74878 1.81107,-1.70998 3.08396,-2.23518c2.9595,-1.22111 8.37823,-1.02109 8.37823,-1.02109" fill="#949494"/><path d="M330.46503,158.80123l0.91763,3.27725" fill="none"/></g><path d="M293.20823,171.91012c0,0 4.3198,-2.67906 5.90431,-3.66173c1.06759,-0.6621 2.68035,-1.66231 2.68035,-1.66231c0,0 2.34447,-0.55309 2.56967,-0.37231c0.51576,0.41404 2.17243,0.7332 2.66466,2.08173c0.39308,1.07692 0.10457,3.20033 0.08667,3.81639c-0.03152,1.08516 -2.66223,2.61195 -2.66223,2.61195l-7.62014,3.57084z" data-paper-data="{&quot;index&quot;:null}" fill="#949494" stroke="#000000" stroke-linecap="butt"/><path d="M314.8751,174.13918l-0.3133,-1.82722l1.13019,-2.73307l2.58418,-1.38356l3.52661,1.37031l6.50252,5.56242l-0.1331,0.86924l-3.66475,4.95454l-8.08437,-4.91501z" data-paper-data="{&quot;index&quot;:null}" fill="#949494" stroke="#000000" stroke-linecap="round"/><g data-paper-data="{&quot;index&quot;:null}"><g><path d="M291.30712,172.75033l3.27584,-0.09595l0.0806,2.7517l-3.27584,0.09595z" fill="#000000" stroke="none" stroke-linecap="butt"/><path d="M275.2688,171.97153l2.5812,-0.14905c0,0 1.06575,1.12212 1.52957,1.81575c0.16462,0.24618 0.41686,1.77038 0.86009,1.52957c0.39256,-0.21327 0.97357,-2.21084 1.2075,-1.82102c0.22506,0.37502 6.5711,0.7502 6.69272,1.37058c0.31351,1.59909 1.46543,5.48731 1.46543,5.48731l-9.70772,-0.13183c0,0 -4.20557,-5.94981 -4.94957,-7.25196c-0.28393,-0.49693 0.32078,-0.84933 0.32078,-0.84933z" fill="#949494" stroke="#000000" stroke-linecap="butt"/><path d="M287.96081,174.20793l1.45273,-1.12913l1.54843,-0.02535l1.13284,0.86396l0.63061,1.52001l-2.17412,5.23857z" fill="#949494" stroke="#000000" stroke-linecap="butt"/><path d="M291.3101,177.33001l-1.19934,0.3289l-1.01883,-0.5803" fill="none" stroke="#000000" stroke-linecap="round"/><path d="M280.49031,174.94553l-2.03236,2.62062" fill="none" stroke="#000000" stroke-linecap="round"/></g><g stroke="none" stroke-linecap="butt"><path d="M281.70506,174.24134l4.52177,0.41851l1.79703,-0.29856l0.71669,5.57958l-8.97925,-0.74764z" fill="#8c6200"/><path d="M285.93895,174.80251l1.89404,-0.34824l0.92189,5.32129l-2.16247,-0.05319z" fill="#8c0081"/><path d="M275.2766,172.57993l1.50733,-0.14717l0.74202,0.11135l1.36249,1.3433l0.81358,1.49394l2.02481,-1.22237l1.6078,0.41868l-3.55202,4.86491z" fill="#8c0081"/><g fill="#ffffff"><path d="M286.52779,177.64403c0.00523,0.26729 -0.00643,0.47103 -0.15179,0.74753c-0.12803,0.2022 -0.31872,0.47743 -0.56376,0.56515c-0.17396,0.06227 -0.38801,-0.04167 -0.58017,-0.21443c0.06556,-0.53683 0.08937,-1.07658 0.12351,-1.61741c0,0 0.00503,-0.07975 -0.06032,-0.10952c0.47339,-0.38942 1.1203,-0.26478 1.3356,0.44098c0,0 0.04257,0.14492 -0.10234,0.18749c-0.00025,0.00007 -0.00048,0.00015 -0.00072,0.00021zM285.86713,178.31112c-0.00394,0.06244 0.04348,0.11625 0.10592,0.12019c0.06244,0.00394 0.11626,-0.04348 0.1202,-0.10592c0.00394,-0.06244 -0.04348,-0.11625 -0.10592,-0.12019c-0.06244,-0.00394 -0.11625,0.04348 -0.12019,0.10592zM285.94426,177.38902c-0.00394,0.06244 0.04348,0.11625 0.10592,0.12019c0.06244,0.00394 0.11625,-0.04349 0.12019,-0.10592c0.00394,-0.06244 -0.04348,-0.11625 -0.10592,-0.12019c-0.06244,-0.00394 -0.11625,0.04348 -0.12019,0.10592z"/><path d="M285.39133,176.42662c-0.00206,0.03276 -0.00893,0.06007 -0.01905,0.08282c0.04428,0.04601 0.10039,0.13649 0.02377,0.25599c-0.11322,0.17658 -0.28981,0.06337 -0.28981,0.06337c-0.10358,-0.06741 -0.20358,-0.14275 -0.29406,-0.22755c-0.01398,0.02755 -0.02844,0.04449 -0.02844,0.04449c-0.25367,0.29512 -0.47394,0.61272 -0.70999,0.91963c0.16192,0.34555 0.31126,0.69635 0.46105,1.05098c0.09467,-0.0451 0.17989,-0.08061 0.23683,-0.10487c0,0 0.111,-0.04702 0.20035,0.01438c0.01217,-0.00005 0.02501,0.00108 0.03852,0.0036c-0.1886,-0.24457 -0.31483,-0.52762 -0.28436,-0.701c0.01027,-0.05841 0.29575,-0.47329 0.32916,-0.52257c0.0217,-0.03202 0.04429,-0.06248 0.06766,-0.09137c-0.02709,0.4408 -0.04873,0.8809 -0.09407,1.31914c0.01044,0.00281 0.02126,0.00644 0.03247,0.01098c0.19442,0.07873 0.11568,0.27317 0.11568,0.27317l-0.06287,0.13055c-0.14489,0.17766 -1.02729,0.9954 -1.1774,0.28853c-0.03233,-0.15224 0.07773,-0.29068 0.23132,-0.40657c-0.13054,-0.30022 -0.26481,-0.5952 -0.40238,-0.88791c-0.03308,0.03748 -0.06675,0.07454 -0.10112,0.11114c-0.1872,0.19931 -0.40673,0.35635 -0.60341,0.54207c0.03594,0.12628 0.07233,0.26437 0.12744,0.42227c0,0 0.06831,0.19832 -0.13001,0.26664c-0.01969,0.00679 -0.03811,0.01094 -0.05529,0.01292c-0.01011,0.0137 -0.02263,0.02738 -0.03796,0.04089c-0.15738,0.13869 -0.29606,-0.01869 -0.29606,-0.01869l-0.06706,-0.07929c-0.26973,-0.41178 -0.37241,-0.68254 -0.41355,-1.03132l-0.01604,0.00455l-0.11309,-0.39892c-0.0073,-0.02363 -0.01051,-0.04897 -0.00886,-0.07512c0.00729,-0.11562 0.10694,-0.20343 0.22255,-0.19613c0.05781,0.00366 0.10866,0.03038 0.14416,0.07066l0.16424,0.18637c0.15372,0.13169 0.25174,0.25427 0.32163,0.37983c0.15447,-0.13359 0.31307,-0.26177 0.45439,-0.41273c0.0731,-0.07808 0.14298,-0.15807 0.21065,-0.23938c-0.15696,-0.32516 -0.31775,-0.64927 -0.48174,-0.97647c-0.03525,-0.07033 -0.24394,-0.46352 -0.38544,-0.74827c-0.01653,0.01539 -0.03269,0.03223 -0.04803,0.051l-0.19893,0.07152c0,0 -0.20934,-0.01321 -0.19613,-0.22255c0.00721,-0.11413 0.07269,-0.1621 0.13079,-0.18215c0.18099,-0.19551 0.3057,-0.27157 0.48754,-0.2879l-0.00677,-0.0368l0.20803,-0.03827c0.01792,-0.00371 0.03664,-0.0051 0.05579,-0.00389c0.11562,0.00729 0.20342,0.10694 0.19612,0.22255c-0.00292,0.04626 -0.02062,0.08806 -0.04821,0.12112l-0.14087,0.17302l-0.02414,-0.01966l-0.03162,0.06771c-0.02786,-0.01541 -0.0936,-0.05178 -0.12,-0.06638c0.38488,0.21502 0.46365,0.69685 0.67961,1.07641c0.07838,0.13776 0.15286,0.27659 0.22433,0.41641c0.19497,-0.25894 0.38377,-0.522 0.59602,-0.77219c0,0 0.00135,-0.00158 0.00394,-0.00429c-0.0415,-0.04115 -0.06571,-0.09933 -0.06173,-0.16225c0.00729,-0.11562 0.10694,-0.20343 0.22255,-0.19613c0.00799,0.0005 0.01585,0.00144 0.02355,0.00281l0.25725,0.04223l-0.01013,0.06178l0.0064,0.00287l-0.00436,0.00971c0.11826,0.01166 0.23212,0.04141 0.33298,0.09865l-0.03989,-0.0247c0,0 0.20934,0.01322 0.19613,0.22255z"/></g></g></g><g><path d="M294.2466,158.51078l0.39327,-4.06378l-11.52873,0.06324l-1.10752,-7.51528c0,0 2.93624,-2.13236 6.10378,-3.54236c2.24762,-1.00051 5.0607,-1.40176 5.0607,-1.40176l6.65031,0.28258l3.77037,7.83883l-3.18095,4.7991c0,0 -0.99528,1.54386 -1.17981,2.09744c-0.20631,0.61892 0,1.44198 0,1.44198z" fill="#949494" stroke="#000000" stroke-linecap="butt"/><path d="M282.31743,146.97488l4.85032,-2.75288l6.16122,-1.96634l-1.83526,5.50578l-1.83525,1.83525l-7.20994,1.44199z" fill="#000000" stroke="#000000" stroke-linecap="round"/><path d="M291.10044,148.67904h0.91763" fill="none" stroke="#000000" stroke-linecap="round"/><path d="M291.23153,150.12103l1.3109,-0.13109" fill="none" stroke="#000000" stroke-linecap="round"/><path d="M292.9357,151.30084l-0.78654,0.13109" fill="none" stroke="#000000" stroke-linecap="round"/><path d="M283.8284,154.23315l4.45705,-2.35962l5.50577,-0.13109l3.14616,-0.65545l3.01506,-1.04872l2.16578,-0.84722c0,0 0.95552,0.97277 1.03146,1.38721c0.05905,0.3223 -1.15091,2.13811 -2.258,3.49711c-0.44574,0.54716 -0.94484,1.67717 -5.76527,1.62385c-0.54406,-0.00601 0.21155,-1.02191 -0.66126,-1.09839c-3.54744,-0.31087 -10.44153,-0.09233 -10.44153,-0.09233" fill="#373737" stroke="#000000" stroke-linecap="round"/><path d="M290.6313,155.39216l0.52436,-0.65545l0.65545,-0.78654l0.78654,-0.26218l0.65545,0.78654l0.26218,1.04872l-0.52436,1.3109l-1.44199,0.26218h-6.81667l-0.52436,-1.3109z" fill="#000000" stroke="#000000" stroke-linecap="round"/><path d="M296.8684,156.28228l0.13109,1.44198" fill="none" stroke="#000000" stroke-linecap="round"/><path d="M294.37769,156.41336l4.71923,-0.39327" fill="none" stroke="#000000" stroke-linecap="round"/><path d="M296.86839,143.69765l0.13109,-1.83525l0.78654,-1.04872l1.83525,2.09743l0.1311,2.49071l-1.96634,1.04871l0.26217,-1.17981l-0.65544,-1.17981z" fill="#151515" stroke="#000000" stroke-linecap="round"/><path d="M295.29532,145.07516l0.26218,-1.44198l0.65545,-0.65545l0.65544,-0.52435l1.04872,0.13109l1.31089,1.17981l0.52436,0.78654l-0.91763,1.83526l-1.83526,-0.26218z" fill="none" stroke="#000000" stroke-linecap="round"/><path d="M284.65849,149.08736v-2.78023h2.70971v2.78023z" fill="#ff0000" stroke="none" stroke-linecap="butt"/><path d="M284.448,145.99336l5.38569,-2.15269" fill="none" stroke="#ff0000" stroke-linecap="round"/></g><path d="M280.60003,184.25515l-10.11219,-6.5144l21.08696,4.22462l45.83155,-0.11086l14.82171,-6.28523l-10.95487,11.01245l-46.97944,0.77391z" fill="#000000" stroke="none" stroke-linecap="butt"/><path d="M279.79412,177.89584l-6.5144,2.48168" fill="none" stroke="#000000" stroke-linecap="round"/><g data-paper-data="{&quot;index&quot;:null}"><g><path d="M326.43205,181.92018l-2.75474,-1.77533l1.49126,-2.31398l2.75473,1.77532z" data-paper-data="{&quot;index&quot;:null}" fill="#000000" stroke="none" stroke-linecap="butt"/><path d="M330.18055,182.88989l5.51538,2.19291l2.16183,4.92248l-0.86821,1.85451l-0.48973,0.80855l-4.87432,2.57357l-2.17738,0.29645l0.21161,-1.40207l0.48973,-0.80855l0.50465,-1.39461l1.49498,-1.13484l-2.45549,-0.29707l-1.76907,-1.92164l-2.12517,-1.75476z" fill="#949494" stroke="#000000" stroke-linecap="round"/><path d="M325.79939,186.82482l-0.80109,-0.78276l0.01895,-3.04901l0.77189,-2.67799l1.78055,-0.83435l1.68765,0.5121l0.81943,2.36662z" fill="#949494" stroke="#000000" stroke-linecap="round"/><path d="M328.32199,184.48463l-2.50366,-0.70881l-0.49315,-1.36137" fill="none" stroke="#000000" stroke-linecap="round"/></g><g stroke="none" stroke-linecap="butt"><path d="M333.0945,190.52584l-3.32141,-0.58611l-3.09719,-3.27158l3.06185,-3.03914l6.18968,2.15233l1.07925,3.01199z" fill="#8c6200"/><path d="M327.83341,187.77277l-1.34548,-1.09349l2.88171,-3.04409l2.98145,-0.13021z" fill="#8c0081"/><path d="M329.6895,195.09826l0.08155,-1.5123l0.22184,-0.71677l1.53319,-1.14461l1.21891,-1.39138l3.65253,-1.7304l0.75503,3.07455l-5.32511,3.27567z" fill="#8c0081"/><g fill="#ffffff"><path d="M329.86718,186.0861c0.12287,-0.23745 0.23026,-0.41097 0.48989,-0.58469c0.20896,-0.11668 0.50781,-0.26767 0.76503,-0.22792c0.1826,0.02822 0.32118,0.22165 0.40771,0.46514c-0.31361,0.44061 -0.59193,0.90368 -0.87983,1.36279c0,0 -0.04246,0.06769 0.00081,0.12502c-0.6018,0.11656 -1.11099,-0.30149 -0.96369,-1.0245c0,0 0.03169,-0.14768 0.17936,-0.116c0.00025,0.00005 0.00049,0.00011 0.00074,0.00016zM330.766,185.81477c0.03323,-0.05301 0.01722,-0.12292 -0.03578,-0.15616c-0.053,-0.03323 -0.12292,-0.01722 -0.15616,0.03579c-0.03323,0.05301 -0.01722,0.12292 0.03579,0.15616c0.053,0.03323 0.12292,0.01721 0.15616,-0.03579zM330.2585,186.5885c0.03323,-0.05301 0.01721,-0.12292 -0.03579,-0.15615c-0.053,-0.03323 -0.12292,-0.01722 -0.15616,0.03579c-0.03323,0.05301 -0.01722,0.12291 0.03579,0.15615c0.053,0.03323 0.12291,0.01723 0.15616,-0.03578z"/><path d="M330.28559,187.69812c0.01743,-0.02781 0.0365,-0.04853 0.05624,-0.06372c-0.01698,-0.06156 -0.02314,-0.16784 0.10118,-0.23635c0.18372,-0.10122 0.28494,0.0825 0.28494,0.0825c0.05891,0.10864 0.11088,0.22256 0.14997,0.34024c0.02542,-0.01755 0.0462,-0.02555 0.0462,-0.02555c0.3637,-0.13844 0.70876,-0.31257 1.06259,-0.46978c0.02245,-0.38094 0.05847,-0.7605 0.09591,-1.14365c-0.10471,-0.0055 -0.19656,-0.01492 -0.25819,-0.02075c0,0 -0.11999,-0.01161 -0.16923,-0.10818c-0.01072,-0.00575 -0.02148,-0.01287 -0.03215,-0.02153c0.04915,0.30491 0.02513,0.6139 -0.08433,0.75177c-0.03687,0.04645 -0.48565,0.27499 -0.53851,0.30237c-0.03435,0.0178 -0.06873,0.03379 -0.10305,0.04805c0.23401,-0.37454 0.4629,-0.75107 0.71172,-1.11465c-0.00784,-0.00745 -0.01562,-0.0158 -0.0233,-0.02513c-0.13336,-0.16191 0.02857,-0.29527 0.02857,-0.29527l0.11752,-0.08477c0.21208,-0.08706 1.37764,-0.38507 1.1725,0.30783c-0.04418,0.14924 -0.20695,0.21845 -0.3972,0.24707c-0.02843,0.32613 -0.05106,0.64945 -0.06971,0.97233c0.04694,-0.01717 0.09421,-0.0337 0.14188,-0.04948c0.25959,-0.08592 0.52742,-0.11928 0.78888,-0.18873c0.02862,-0.12813 0.06249,-0.26686 0.08935,-0.43193c0,0 0.03452,-0.2069 0.24142,-0.17238c0.02054,0.00342 0.0387,0.00856 0.05476,0.01502c0.01542,-0.00722 0.03296,-0.01328 0.05287,-0.01785c0.20446,-0.04685 0.25132,0.15761 0.25132,0.15761l0.02114,0.10167c0.04073,0.49057 0.00188,0.77753 -0.12829,1.10372l0.01627,0.00365l-0.09082,0.40457c-0.00485,0.02426 -0.0141,0.04806 -0.02802,0.07027c-0.06155,0.09815 -0.191,0.12781 -0.28916,0.06626c-0.04907,-0.03078 -0.08103,-0.07853 -0.09301,-0.13085l-0.05549,-0.24214c-0.07232,-0.18905 -0.10002,-0.34355 -0.10158,-0.48724c-0.19949,0.04376 -0.40002,0.08081 -0.59622,0.14611c-0.10149,0.03377 -0.20105,0.07076 -0.2993,0.10997c-0.01709,0.36067 -0.0303,0.72222 -0.04219,1.08802c-0.00256,0.07862 -0.00661,0.52375 -0.01802,0.84151c0.02186,-0.00565 0.0441,-0.01275 0.06654,-0.02193l0.20896,0.032c0,0 0.17771,0.11145 0.06626,0.28915c-0.06075,0.09688 -0.1412,0.10782 -0.20181,0.09774c-0.25232,0.08554 -0.39821,0.09293 -0.56583,0.02058l-0.0116,0.03557l-0.2011,-0.06556c-0.01752,-0.00529 -0.03463,-0.01298 -0.05089,-0.02318c-0.09815,-0.06154 -0.12782,-0.191 -0.06628,-0.28915c0.02463,-0.03927 0.06012,-0.06757 0.10013,-0.08346l0.20632,-0.08491l0.01185,0.02878l0.06008,-0.04442c0.01715,0.02684 0.05759,0.09014 0.07383,0.11557c-0.23577,-0.37254 -0.07524,-0.83361 -0.08407,-1.27022c-0.0032,-0.15846 -0.00248,-0.31602 0.00137,-0.47299c-0.29485,0.13462 -0.58624,0.27582 -0.89211,0.39452c0,0 -0.00195,0.00075 -0.00551,0.0019c0.01686,0.05596 0.01039,0.11864 -0.0231,0.17204c-0.06155,0.09815 -0.191,0.12781 -0.28915,0.06626c-0.00679,-0.00425 -0.01324,-0.00883 -0.01936,-0.0137l-0.20598,-0.15978l0.03837,-0.04947l-0.00425,-0.00557l0.00846,-0.00646c-0.09839,-0.06664 -0.18429,-0.14709 -0.24564,-0.2455l0.02328,0.04073c0,0 -0.1777,-0.11144 -0.06626,-0.28915z"/></g></g></g><path d="M292.35761,191.07974c0,-2.99817 2.4305,-5.42866 5.42866,-5.42866c2.99817,0 5.42867,2.4305 5.42867,5.42866c0,2.99817 -2.4305,5.42866 -5.42867,5.42866c-2.99817,0 -5.42866,-2.4305 -5.42866,-5.42866z" fill="#000000" stroke="none" stroke-linecap="butt"/></g><path d="M0,363.1006v-366.2012h480v366.2012z" fill="none" stroke="none" stroke-width="0" stroke-linecap="butt"/></g></g></svg>