<svg version="1.1" xmlns="http://www.w3.org/2000/svg" xmlns:xlink="http://www.w3.org/1999/xlink" width="480" height="366.2012" viewBox="0,0,480,366.2012"><defs><linearGradient x1="262.33602" y1="115.95473" x2="320.00184" y2="115.95473" gradientUnits="userSpaceOnUse" id="color-1"><stop offset="0" stop-color="#00cfff"/><stop offset="1" stop-color="#00cfff" stop-opacity="0"/></linearGradient></defs><g transform="translate(0,3.1006)"><g data-paper-data="{&quot;isPaintingLayer&quot;:true}" fill-rule="nonzero" stroke-linejoin="miter" stroke-miterlimit="10" stroke-dasharray="" stroke-dashoffset="0" style="mix-blend-mode: normal"><path d="M112.65962,308.43117v-46.78142h257.80899v46.78142z" data-paper-data="{&quot;index&quot;:null}" fill="#d69b00" stroke="none" stroke-width="0" stroke-linecap="butt"/><path d="M112.65962,270.41804v-12.24376h258.27269v12.24376l-26.38601,14.89331l-26.01259,-16.5131l-19.5513,16.03519l-32.63429,-16.42522l-27.68559,10.99528l-34.10893,-9.44539l-33.92592,10.61385l-22.50689,-8.30275l-20.62322,10.62362z" data-paper-data="{&quot;index&quot;:null}" fill="#00ff2a" stroke="none" stroke-width="0" stroke-linecap="butt"/><path d="M155.56323,294.32613v-72.52726h186.21721v72.52727z" data-paper-data="{&quot;index&quot;:null}" fill="#d69b00" stroke="none" stroke-width="0" stroke-linecap="butt"/><path d="M155.56323,230.56716v-12.24376h186.55214v12.24376l-19.0588,14.89331l-18.78908,-16.5131l-14.12203,16.03519l-23.57198,-16.42522l-19.99748,10.99528l-24.63712,-9.44539l-24.50493,10.61385l-16.25687,-8.30274l-14.89629,10.62361z" data-paper-data="{&quot;index&quot;:null}" fill="#00ff2a" stroke="none" stroke-width="0" stroke-linecap="butt"/><g data-paper-data="{&quot;index&quot;:null}" fill="#949494" stroke="#000000" stroke-width="1.5"><path d="M158.89506,198.19623c0,0 -4.66434,-8.38335 -2.45376,-13.0891c0.79463,-1.69155 0.6291,-1.82195 1.89357,-4.65361c0.45545,-1.01995 1.01244,-2.06492 1.58219,-3.28901c1.52783,-3.28252 3.1475,-6.82065 3.1475,-6.82065c0,0 9.01303,1.50102 12.175,1.50102c0.3053,0 15.12225,0.33254 15.4304,0.33056c7.54199,-0.04834 5.08363,-0.16378 5.08363,-0.16378c0,0 3.51248,-2.28262 4.65376,-2.0647c2.19158,0.41849 4.28075,-1.87039 5.46198,2.09903c0.5552,1.8657 0.43019,2.07279 0.67862,4.63193c0.36265,3.73578 0.53125,9.44018 -0.73424,13.22498c-1.70315,5.09374 -5.05671,7.793 -5.05671,7.793z" stroke-linecap="butt"/><path d="M175.2123,197.529c0,0 6.42525,-6.29863 6.17875,-12.88033c-0.25365,-3.0156 -3.60727,-9.17815 -3.60727,-9.17815l-2.83527,-3.50239l2.33493,3.00205c0,0 2.88,-0.33049 4.45826,-0.5116c1.78697,-0.20506 5.71537,-0.65586 5.71537,-0.65586l-0.16679,-1.16746" stroke-linecap="round"/><path d="M195.7961,177.3051c0,0 2.18918,0.36007 4.06014,1.51191c2.28031,1.40385 4.33084,3.82192 4.42441,6.16086c0.09281,2.31999 -0.47498,5.67592 -2.42482,7.73245c-2.406,2.53765 -6.39335,3.53261 -7.55584,3.39841c-3.15236,-0.36393 -5.74581,-6.07542 -5.94524,-7.44757c-0.54931,-3.77943 1.15135,-8.55062 1.81769,-9.4441c1.24238,-1.66593 5.62366,-1.91196 5.62366,-1.91196" stroke-linecap="round"/><path d="M160.60538,186.47805c0,-3.44878 2.1941,-5.39791 5.06143,-6.59764c0.88514,-0.37036 2.85102,-1.07428 3.86135,-1.07428c4.28313,0 7.08818,3.32528 7.08818,7.8387c0,4.51342 -3.97252,8.83938 -8.25565,8.83938c-4.28314,0 -7.75531,-4.49275 -7.75531,-9.00617z" stroke-linecap="butt"/></g><g data-paper-data="{&quot;index&quot;:null}" stroke="#000000" stroke-width="1.5" stroke-linecap="round"><path d="M147.11379,166.86827c0,0 6.89406,-0.25448 10.65931,1.2991c1.61945,0.6682 3.4114,1.89109 3.92361,2.84374c0.59471,1.10609 -0.2455,1.90591 -0.51543,1.96393c-1.82066,0.39135 -5.41742,-0.34776 -6.86325,-0.94605c-2.53434,-1.04869 -7.37104,-5.16072 -7.37104,-5.16072" fill="#949494"/><path d="M157.95453,172.87237l1.16746,-4.16952" fill="none"/></g><path d="M192.78652,199.90059l-0.83391,-10.67397c0,0 0.03744,-3.86961 1.21839,-4.58592c0.67042,-0.40666 2.83881,-2.0593 4.27725,-2.30059c1.80124,-0.30215 3.19468,1.33054 3.97669,1.64124c0.34144,0.13566 1.20166,3.07713 1.20166,3.07713c0,0 -0.094,2.41259 -0.15622,4.00965c-0.09235,2.37031 -0.34412,8.83248 -0.34412,8.83248z" data-paper-data="{&quot;index&quot;:null}" fill="#949494" stroke="#000000" stroke-width="1.5" stroke-linecap="butt"/><g data-paper-data="{&quot;index&quot;:null}" stroke-width="1.5"><g><path d="M163.01438,199.95639l2.21522,-3.53237l2.96719,1.86079l-2.21522,3.53237z" data-paper-data="{&quot;index&quot;:null}" fill="#000000" stroke="none" stroke-linecap="butt"/><path d="M169.35816,207.12606l-1.50102,3.16884l-1.00068,3.16884l-2.6685,1.6678l2.33493,0.50034l1.33425,1.33425l1.00068,0.66712l1.00068,1.50102l-2.6685,0.83391l-7.00479,-0.33357l-1.00068,-0.66712l-2.00137,-1.6678l-0.16679,-6.83801l5.1702,-5.50377z" fill="#949494" stroke="#000000" stroke-linecap="round"/><path d="M162.01979,204.2908l-0.33357,-3.16884l1.6678,-1.50102h2.50171l2.33493,2.6685l1.6678,3.50239l-0.50034,1.33425z" fill="#949494" stroke="#000000" stroke-linecap="round"/><path d="M167.52357,201.78908l0.16679,1.83459l-2.50171,2.16815" fill="none" stroke="#000000" stroke-linecap="round"/></g><g stroke="none" stroke-linecap="butt"><path d="M157.50939,215.44401l-0.38263,-4.0526l5.96895,-5.82103l5.16806,1.84837l-1.80201,5.44101l-3.51005,2.46825z" fill="#8c6200"/><path d="M160.01805,206.83826l3.50507,-1.45948l4.96321,1.9513l-0.95976,1.98611z" fill="#8c0081"/><path d="M166.80138,219.74436l-7.90314,-0.89905l-0.78993,-3.94964l5.14206,0.02173l2.15537,0.94493l2.38423,0.49097l0.64251,0.706l0.91036,1.69824z" fill="#8c0081"/><g fill="#ffffff"><path d="M164.27303,208.47096c0.00026,-0.00018 0.00051,-0.00039 0.00076,-0.00058c0.15302,-0.11622 0.26925,0.0368 0.26925,0.0368c0.56001,0.75343 0.19906,1.50993 -0.55716,1.70051c0.01889,-0.08941 -0.06657,-0.14447 -0.06657,-0.14447c-0.57952,-0.37349 -1.15015,-0.75673 -1.7493,-1.09504c-0.03176,-0.32722 0.02348,-0.62488 0.21861,-0.75596c0.27487,-0.18465 0.70068,-0.17203 1.00439,-0.15041c0.39288,0.05999 0.61028,0.2019 0.88001,0.40913zM163.09108,208.64359c0.0669,0.04312 0.1561,0.02383 0.19922,-0.04308c0.04312,-0.06691 0.02383,-0.15611 -0.04308,-0.19922c-0.06691,-0.04312 -0.1561,-0.02383 -0.19922,0.04308c-0.04312,0.0669 -0.02383,0.1561 0.04308,0.19922zM164.09343,209.26101c0.06691,0.04312 0.1561,0.02382 0.19922,-0.04308c0.04312,-0.06691 0.02383,-0.1561 -0.04306,-0.19922c-0.06691,-0.04312 -0.15611,-0.02383 -0.19922,0.04308c-0.04312,0.0669 -0.02383,0.1561 0.04308,0.19922z"/><path d="M164.66126,210.55395c0.22433,0.14457 0.07976,0.36889 0.07976,0.36889l0.00483,-0.0595c-0.01756,0.14649 -0.07308,0.28554 -0.15046,0.41543l0.01323,0.00287l-0.0019,0.00872l0.0709,0.03628l-0.15104,0.29527c-0.00442,0.00892 -0.00939,0.01767 -0.01491,0.02623c-0.07984,0.1239 -0.245,0.15961 -0.36889,0.07976c-0.06741,-0.04344 -0.10871,-0.11216 -0.1195,-0.18574c-0.00473,0.0006 -0.00736,0.0008 -0.00736,0.0008c-0.41646,0.02837 -0.82838,0.02301 -1.24074,0.02709c0.08918,0.17877 0.17508,0.35987 0.25693,0.54416c0.22553,0.50778 0.65937,0.95229 0.58886,1.50875c0.00498,-0.03807 0.0174,-0.13283 0.02267,-0.17299l0.0932,0.01874l-0.00189,-0.03956l0.28353,-0.01356c0.05467,-0.00329 0.11084,0.01017 0.16042,0.04211c0.12389,0.07985 0.1596,0.245 0.07974,0.36889c-0.01323,0.02053 -0.02879,0.03863 -0.04611,0.05418l-0.19628,0.18408l-0.03257,-0.03472c-0.15405,0.17384 -0.32611,0.2441 -0.66297,0.28176c-0.06439,0.04434 -0.16297,0.07516 -0.28526,-0.00365c-0.22433,-0.14457 -0.07976,-0.36889 -0.07976,-0.36889l0.22346,-0.14967c0.03082,-0.00154 0.06026,-0.00538 0.0885,-0.01066c-0.18468,-0.35992 -0.42966,-0.87054 -0.47505,-0.95974c-0.21116,-0.41501 -0.42158,-0.8244 -0.63596,-1.23068c-0.13436,0.00788 -0.26902,0.01901 -0.40417,0.03488c-0.26129,0.03069 -0.51231,0.09627 -0.76575,0.15354c0.07578,0.16638 0.12727,0.35933 0.14602,0.61617l0.06679,0.30891c0.01444,0.06675 0.00339,0.13901 -0.03652,0.20096c-0.07985,0.1239 -0.245,0.15961 -0.36889,0.07976c-0.02802,-0.01807 -0.05153,-0.04049 -0.07022,-0.06582l-0.32303,-0.41706l0.01678,-0.01299c-0.32605,-0.30552 -0.52571,-0.61514 -0.74362,-1.20229l-0.03053,-0.12854c0,0 -0.05639,-0.26084 0.20445,-0.31724c0.0254,-0.00549 0.04888,-0.00797 0.07053,-0.00799c0.01502,-0.01611 0.03317,-0.03182 0.05499,-0.04686c0.21972,-0.15145 0.37119,0.06827 0.37119,0.06827c0.12005,0.17567 0.23397,0.3172 0.33611,0.44938c0.3387,-0.06113 0.66527,-0.16729 1.01071,-0.20844c0.06343,-0.00756 0.12681,-0.01404 0.19016,-0.0196c-0.1958,-0.36191 -0.39641,-0.72216 -0.60522,-1.08255c-0.23464,0.06974 -0.45951,0.07787 -0.59097,-0.0702c-0.61037,-0.68752 0.89328,-0.97342 1.18461,-0.9876l0.18116,0.03422c0,0 0.25854,0.06621 0.19231,0.32475c-0.00381,0.01491 -0.00827,0.02871 -0.01328,0.04153c0.48294,0.28455 0.94989,0.59476 1.42167,0.89992c-0.04724,0.00209 -0.09547,0.00223 -0.14466,0.00027c-0.07569,-0.003 -0.71608,-0.02403 -0.78363,-0.05764c-0.20052,-0.09974 -0.39501,-0.44274 -0.50297,-0.82056c-0.00763,0.01574 -0.01617,0.02974 -0.02541,0.04216c-0.00462,0.13784 -0.13657,0.21599 -0.13657,0.21599c-0.06785,0.03998 -0.16858,0.10041 -0.28625,0.16327c0.24997,0.42118 0.49637,0.83903 0.72788,1.26577c0.4925,-0.0099 0.98403,0.00443 1.47778,-0.03242c0,0 0.02827,-0.00201 0.06702,0.00448c-0.01849,-0.15667 -0.02012,-0.31597 -0.01091,-0.47293c0,0 0.01744,-0.2663 0.28373,-0.24886c0.18021,0.01181 0.23049,0.13758 0.24416,0.21767c0.03095,0.00683 0.0641,0.02042 0.09919,0.04304z"/></g></g></g><path d="M174.18611,187.06262l-0.83391,12.00822l-7.8387,0.16679l-1.00068,-0.50034l-1.00068,-10.84075l1.16746,-4.66986l3.33561,-1.6678l3.66918,0.83391l1.6678,1.6678z" data-paper-data="{&quot;index&quot;:null}" fill="#949494" stroke="#000000" stroke-width="1.5" stroke-linecap="round"/><g data-paper-data="{&quot;index&quot;:null}" stroke-width="1.5"><g><path d="M202.0786,204.75046l-2.21522,-3.53237l2.96719,-1.86079l2.21522,3.53237z" fill="#000000" stroke="none" stroke-linecap="butt"/><path d="M217.2119,219.30097c0,0 0.05494,0.88875 -0.6714,0.93991c-1.90331,0.13404 -11.17003,-0.106 -11.17003,-0.106l-7.00479,-10.17363c0,0 4.92682,-1.53151 6.83973,-2.33083c0.74212,-0.3101 5.62688,6.13613 6.18267,6.10893c0.5777,-0.02828 -1.12403,1.99889 -1.07196,2.56489c0.05878,0.63906 1.84915,-0.1721 2.22593,-0.1721c1.06159,0 3.00205,0.33357 3.00205,0.33357l1.6678,2.83527z" fill="#949494" stroke="#000000" stroke-linecap="butt"/><path d="M197.1982,209.29411l4.00274,-6.00411l2.05353,-0.40804l1.71487,0.58709l1.06825,1.65554l-0.16679,2.33493z" fill="#949494" stroke="#000000" stroke-linecap="butt"/><path d="M202.03484,208.29344l-1.33425,-0.66712l-0.50034,-1.50102" fill="none" stroke="#000000" stroke-linecap="round"/><path d="M209.03964,219.88471l1.33425,-4.00274" fill="none" stroke="#000000" stroke-linecap="round"/></g><g stroke="none" stroke-linecap="butt"><path d="M206.39711,219.65695l-7.14089,-8.9677l6.40779,-3.18794l0.95512,2.11168l3.64045,4.48625z" fill="#8c6200"/><path d="M201.00648,212.80661l-1.58556,-2.24941l6.27976,-2.78827l0.97118,2.24941z" fill="#8c0081"/><path d="M206.11834,219.81077l2.63309,-7.19712l1.57985,1.40432l0.13918,3.0059l2.15537,-0.19607l2.38423,0.49097l0.64251,0.706l0.91034,1.69824z" fill="#8c0081"/><g fill="#ffffff"><path d="M203.25024,211.40513c-0.0001,-0.00031 -0.00018,-0.0006 -0.00029,-0.00092c-0.05747,-0.18337 0.12591,-0.24084 0.12591,-0.24084c0.89866,-0.27142 1.48799,0.32461 1.41092,1.10067c-0.07771,-0.04807 -0.15848,0.01364 -0.15848,0.01364c-0.54784,0.41859 -1.10184,0.82549 -1.62323,1.27447c-0.3186,-0.08106 -0.57991,-0.23392 -0.63709,-0.46195c-0.08053,-0.32119 0.0757,-0.71752 0.199,-0.99591c0.18963,-0.34928 0.39685,-0.50569 0.68324,-0.68919zM203.03896,212.37361c-0.04832,-0.06325 -0.13877,-0.07535 -0.20201,-0.02702c-0.06325,0.04832 -0.07535,0.13877 -0.02702,0.20201c0.04832,0.06325 0.13877,0.07535 0.20201,0.02702c0.06325,-0.04832 0.07535,-0.13877 0.02702,-0.20201zM203.93258,211.84194c0.06325,-0.04832 0.07535,-0.13877 0.02702,-0.20201c-0.04832,-0.06325 -0.13877,-0.07535 -0.20201,-0.02702c-0.06325,0.04832 -0.07535,0.13877 -0.02702,0.20201c0.04833,0.06325 0.13878,0.07535 0.20203,0.02702z"/><path d="M205.34148,211.74607c0.21206,-0.16202 0.37408,0.05003 0.37408,0.05003l-0.05434,-0.0247c0.13186,0.06617 0.24386,0.16556 0.33982,0.28238l0.00719,-0.01148l0.00756,0.00474l0.05816,-0.0544l0.22658,0.2422c0.00688,0.00718 0.01345,0.01482 0.01962,0.02292c0.08948,0.11711 0.06709,0.2846 -0.05003,0.37408c-0.06372,0.0487 -0.14238,0.06425 -0.21524,0.04946c-0.00104,0.00465 -0.00175,0.0072 -0.00175,0.0072c-0.1145,0.40142 -0.2592,0.78712 -0.39516,1.17645c0.19841,-0.0233 0.39791,-0.04271 0.59903,-0.05723c0.55416,-0.04003 1.11942,-0.29748 1.61903,-0.0425c-0.03411,-0.0176 -0.11905,-0.06141 -0.15506,-0.07996l0.04922,-0.08134l-0.03786,-0.01164l0.08337,-0.27135c0.01544,-0.05255 0.04714,-0.10084 0.09399,-0.13663c0.11712,-0.08948 0.2846,-0.06709 0.37408,0.05003c0.01482,0.0194 0.02659,0.04018 0.03533,0.06176l0.10664,0.24707l-0.0437,0.01886c0.11133,0.20386 0.11908,0.38954 0.04031,0.71923c0.01989,0.0756 0.01546,0.17879 -0.10015,0.26713c-0.21206,0.16202 -0.37408,-0.05003 -0.37408,-0.05003l-0.06506,-0.26096c0.009,-0.0295 0.01538,-0.05851 0.01998,-0.08687c-0.40122,0.05173 -0.96465,0.10909 -1.06395,0.12155c-0.46202,0.05797 -0.9185,0.11712 -1.3734,0.18108c-0.03814,0.12907 -0.07331,0.25954 -0.1042,0.39207c-0.05971,0.25622 -0.08311,0.51461 -0.11515,0.77246c0.18222,-0.01488 0.3812,0.00209 0.62917,0.07153l0.31326,0.04189c0.06769,0.00905 0.13193,0.04393 0.17667,0.10249c0.08948,0.11712 0.06709,0.2846 -0.05003,0.37408c-0.02649,0.02025 -0.05557,0.03476 -0.08572,0.04375l-0.50187,0.16251l-0.00654,-0.02018c-0.39796,0.20316 -0.75694,0.28603 -1.38319,0.29198l-0.13128,-0.01486c0,0 -0.26453,-0.03538 -0.22914,-0.2999c0.00344,-0.02576 0.00906,-0.04868 0.0164,-0.06906c-0.01007,-0.01957 -0.01869,-0.04198 -0.02544,-0.06761c-0.068,-0.25806 0.19006,-0.32606 0.19006,-0.32606c0.20597,-0.05339 0.37774,-0.11257 0.53672,-0.16386c0.05732,-0.33936 0.06815,-0.68259 0.14654,-1.02153c0.01439,-0.06223 0.02979,-0.12404 0.04603,-0.18553c-0.40686,0.06152 -0.81378,0.12811 -1.22362,0.20238c-0.01394,0.24439 -0.08251,0.45869 -0.26639,0.53217c-0.85374,0.34115 -0.61293,-1.17039 -0.52751,-1.44927l0.09361,-0.15882c0,0 0.14994,-0.22078 0.3707,-0.07083c0.01273,0.00865 0.0242,0.01751 0.03456,0.02657c0.43142,-0.35786 0.88157,-0.69199 1.3286,-1.03239c-0.01402,0.04514 -0.03026,0.09058 -0.04878,0.13618c-0.02849,0.07019 -0.26537,0.66553 -0.31988,0.71769c-0.16182,0.15483 -0.55045,0.22151 -0.94248,0.19501c0.01222,0.01252 0.02249,0.0253 0.03105,0.0382c0.12811,0.05107 0.15689,0.20171 0.15689,0.20171c0.01461,0.07738 0.03732,0.19263 0.05657,0.32465c0.48099,-0.09238 0.95761,-0.18253 1.43758,-0.25566c0.15765,-0.4667 0.33778,-0.92426 0.47049,-1.40126c0,0 0.00769,-0.02726 0.02694,-0.06153c-0.15367,-0.03571 -0.30407,-0.0882 -0.44862,-0.15007c0,0 -0.24462,-0.10668 -0.13793,-0.3513c0.0722,-0.16555 0.20756,-0.17019 0.28754,-0.15591c0.01691,-0.0268 0.04093,-0.05338 0.07412,-0.07873z"/></g></g></g><g data-paper-data="{&quot;index&quot;:null}" stroke-width="1.5"><g stroke="#000000"><path d="M199.0504,170.42242c0,0 -0.03905,-1.07884 -0.51014,-1.76224c-0.42136,-0.61124 -2.18385,-2.14587 -2.18385,-2.14587c0,0 -3.91372,-1.32617 -4.3494,-3.65067c-0.04945,-0.26386 -0.6904,-6.13655 1.63147,-10.23627c1.65957,-2.9303 6.31334,-4.53419 6.99454,-4.4643c0.52655,0.05403 3.57978,-0.50484 6.68053,-0.07728c4.36984,0.60254 8.71255,2.16971 8.71255,2.16971l1.30524,9.57614l-14.11149,4.0013l1.91828,4.82717z" fill="#949494" stroke-linecap="butt"/><path d="M216.91295,155.35464l-9.32132,0.78847l-2.89212,-1.59357l-4.19066,-6.07926l8.2252,0.22335l6.90142,1.64833z" fill="#000000" stroke-linecap="round"/><path d="M204.38334,155.85646l1.12142,-0.32463" fill="none" stroke-linecap="round"/><path d="M205.8547,157.34046l-1.6484,0.30355" fill="none" stroke-linecap="round"/><path d="M204.18944,159.38517l1.0076,-0.11805" fill="none" stroke-linecap="round"/><path d="M216.21559,160.15236c0,0 -8.50249,2.1719 -12.72778,3.8068c-1.03961,0.40225 0.24322,1.37644 -0.41954,1.57627c-5.87213,1.77051 -6.88184,0.56611 -7.62014,0.05512c-1.83375,-1.26915 -3.95481,-3.06017 -3.99667,-3.47495c-0.05382,-0.53334 0.76977,-2.06019 0.76977,-2.06019l2.9465,0.26917l4.05568,0.21497l4.07676,-0.31202l6.77491,-1.7876l6.28168,1.30685" fill="#373737" stroke-linecap="round"/><path d="M216.44212,161.77805l-0.17705,1.78753l-8.33056,2.41157l-1.85499,0.18973l-1.10457,-1.41652l-0.0506,-1.37438l0.52276,-1.1931l1.05397,0.04215l1.07928,0.72933l0.87269,0.61551z" fill="#000000" stroke-linecap="round"/><path d="M201.14565,166.86419l0.34993,1.80861" fill="none" stroke-linecap="round"/><path d="M198.32944,167.33218l5.90645,-1.18894" fill="none" stroke-linecap="round"/><path d="M196.19182,152.15081l-0.38363,1.67371l0.7378,1.34907l-2.77406,-0.58598l-0.72094,-3.09024l1.50082,-3.21252l1.33223,1.00337l0.80948,2.19647z" fill="#151515" stroke-linecap="round"/><path d="M197.39166,154.49614l-2.15009,0.96968l-1.77069,-1.91821l0.36255,-1.14672l1.18464,-1.90559l1.23525,-0.53122l0.98652,0.40892l1.0329,0.56914l0.83055,1.66948z" fill="none" stroke-linecap="round"/></g><path d="M211.33106,149.6985c1.87994,0.00806 2.58003,0.90616 2.65655,2.2067c0.07652,1.30054 -0.98881,2.42117 -2.37948,2.50298c-1.39066,0.08181 -2.58003,-0.90616 -2.65655,-2.2067c-0.07652,-1.30054 0.44303,-2.51127 2.37948,-2.50298z" fill="#54ff00" stroke="none" stroke-linecap="butt"/><path d="M205.26392,152.9922c-0.64879,0.26854 -0.91732,-0.38024 -0.91732,-0.38024l-0.29313,-0.92524c0.11355,-1.1375 0.25593,-2.02632 0.85725,-3.00838c0,0 0.37439,-0.59402 0.96841,-0.21963c0.59402,0.37439 0.21963,0.96841 0.21963,0.96841c-0.50563,0.77152 -0.55893,1.49288 -0.64781,2.39803l0.19321,0.24975c0,0 0.26854,0.64879 -0.38024,0.91732z" fill="#54ff00" stroke="none" stroke-linecap="butt"/></g><g stroke-width="2"><path d="M357.63487,183.29342c0,0 -0.80594,5.25073 -2.8038,5.5197c-1.34572,0.18115 -4.28899,-2.93699 -7.42973,-3.03152c-1.23159,-0.03706 -2.41236,3.90947 -3.74722,3.9503c-1.01301,0.031 -2.63476,-3.72715 -3.35727,-2.74732c-1.14544,1.55344 -2.73965,5.16559 -4.7228,5.54252c-1.89269,0.35976 -4.20015,-2.57177 -4.33254,1.05012c-0.19659,5.37812 -5.48015,-5.99285 -5.48015,-5.99285l-8.39438,-81.54122c0,0 -12.09643,-13.23229 -23.25312,-13.05616c-8.41124,0.13279 -26.45892,-0.12429 -20.13093,-5.66713c2.97498,-2.60579 23.48519,-13.36936 42.15106,-14.73771c16.54306,-1.21274 31.64858,6.81958 31.64858,6.81958l9.85227,103.89169z" data-paper-data="{&quot;index&quot;:null}" fill="#d6d6d6" stroke="none" stroke-linecap="butt"/><path d="M288.57601,214.8805c0,3.75536 -6.04032,6.79968 -13.49143,6.79968c-7.45111,0 -13.49143,-3.04432 -13.49143,-6.79968c0,-3.75536 6.04032,-6.79968 13.49143,-6.79968c7.45111,0 13.49143,3.04432 13.49143,6.79968z" fill="#d6d6d6" stroke="#8e8e8e" stroke-linecap="butt"/><path d="M318.50256,213.07519c0,3.75536 -6.04032,6.79969 -13.49143,6.79969c-7.45111,0 -13.49144,-3.04432 -13.49144,-6.79969c0,-3.75536 6.04032,-6.79968 13.49144,-6.79968c7.45111,0 13.49143,3.04432 13.49143,6.79968z" fill="#d6d6d6" stroke="#8e8e8e" stroke-linecap="butt"/><path d="M275.19251,210.23944v-22.88147h10.14556v22.88147z" fill="#d6d6d6" stroke="#8e8e8e" stroke-linecap="butt"/><path d="M302.82297,208.94426v-24.39251h12.08832v24.39251z" fill="#d6d6d6" stroke="#8e8e8e" stroke-linecap="butt"/><path d="M306.76962,136.37028c0,0 -0.30652,1.74632 -1.06637,1.83578c-0.51182,0.06025 -1.63123,-0.9768 -2.82575,-1.00824c-0.46841,-0.01233 -0.91749,1.30024 -1.42518,1.31381c-0.38528,0.01031 -1.00208,-1.2396 -1.27687,-0.91372c-0.43565,0.51665 -1.04197,1.718 -1.79622,1.84337c-0.71985,0.11965 -1.59744,-0.85534 -1.64779,0.34925c-0.07477,1.78869 -2.08426,-1.99314 -2.08426,-1.99314l-3.19263,-27.11948c0,0 -8.39321,-2.18943 -13.17457,-4.07452c-2.05256,-0.80923 -3.76293,-1.81767 -3.32568,-2.15259c1.13147,-0.86665 8.93212,-4.44646 16.03131,-4.90156c6.29182,-0.40334 12.0369,2.2681 12.0369,2.2681l3.74712,34.55294z" data-paper-data="{&quot;index&quot;:null}" fill="#000000" stroke="#000000" stroke-linecap="butt"/><path d="M298.09076,113.01669c2.601,6.46947 0.72393,13.12389 -5.74553,15.72489c-6.46946,2.601 -16.44116,0.13285 -19.04216,-6.33661c-2.08686,-5.19064 -1.04895,-10.13091 3.13339,-13.74538c0.3974,-0.34344 1.97858,-1.13074 2.42298,-1.42635c0.70787,-0.47087 1.62249,-1.89932 2.4081,-2.21517c0.46627,-0.18746 1.20013,0.78782 1.71206,0.75507c0.90088,-0.05762 1.60513,-1.01265 2.46348,-1.01157c1.39798,0.00176 2.97723,0.70396 4.29041,1.09631c0.38426,0.11481 1.58587,-2.01597 1.9539,-1.87874c3.25185,1.21263 5.01419,5.58226 6.40337,9.03756z" data-paper-data="{&quot;index&quot;:null}" fill="#ffd499" stroke="#dfba86" stroke-linecap="butt"/><path d="M279.44393,113.5368c1.39371,-0.05781 2.58176,1.29904 2.65359,3.03062c0.07183,1.73157 -0.99976,3.18216 -2.39347,3.23997c-1.39371,0.05782 -2.58176,-1.29904 -2.65359,-3.03061c-0.07183,-1.73157 0.99976,-3.18216 2.39347,-3.23998z" fill="#ffffff" stroke="none" stroke-linecap="butt"/><path d="M286.8224,113.75774c1.3937,-0.05781 2.58176,1.29904 2.65359,3.03062c0.07183,1.73157 -0.99977,3.18216 -2.39347,3.23998c-1.3937,0.05781 -2.58176,-1.29904 -2.65359,-3.03062c-0.07183,-1.73157 0.99977,-3.18216 2.39347,-3.23998z" fill="#ffffff" stroke="none" stroke-linecap="butt"/><path d="M278.08997,118.4194l-0.06661,-1.60588" fill="none" stroke="#000000" stroke-linecap="round"/><path d="M285.95112,116.32571l0.0571,1.37647" fill="none" stroke="#000000" stroke-linecap="round"/><path d="M286.67336,110.55494l-3.7184,3.7184l-3.7184,-3.7184" fill="none" stroke="#000000" stroke-linecap="round"/><path d="M272.17043,188.00556v-54.1816h45.54708v54.1816z" fill="#d6d6d6" stroke="#8e8e8e" stroke-linecap="butt"/><path d="M313.68071,184.39047l-8.82453,-0.7769l3.05826,-34.73783c0,0 0.85886,-4.9732 5.08335,-4.84022c3.44696,0.10851 3.74118,5.61711 3.74118,5.61711z" data-paper-data="{&quot;index&quot;:null}" fill="#d6d6d6" stroke="#8e8e8e" stroke-linecap="butt"/><path d="M276.25802,183.01689l-8.82453,-0.7769l3.05825,-34.73783c0,0 0.85886,-4.9732 5.08335,-4.84022c3.44696,0.10851 3.74118,5.61711 3.74118,5.61711z" data-paper-data="{&quot;index&quot;:null}" fill="#d6d6d6" stroke="#8e8e8e" stroke-linecap="butt"/><path d="M286.86896,127.40758c-0.45879,0.01985 -0.47863,-0.43894 -0.47863,-0.43894l-0.03285,-0.79103c-0.00067,-0.00333 -0.30001,-1.5249 -0.3397,-1.59291c-0.82307,-1.41065 -2.92309,-2.44814 -4.53665,-1.56441c-0.53015,0.29036 -1.12729,1.31136 -1.62089,1.73495c-0.72602,0.62306 -1.6778,1.31056 -2.09836,2.18306c0,0 -0.20537,0.41074 -0.61611,0.20537c-0.41074,-0.20537 -0.20537,-0.61611 -0.20537,-0.61611c0.66414,-1.29361 1.99607,-2.03027 2.99119,-3.04086c0.00825,-0.00838 0.97889,-1.19918 1.06063,-1.24391c2.04466,-1.11885 4.76307,0.00052 5.82477,1.88939c0.13782,0.24519 0.39522,1.64801 0.45227,1.93519l0.03863,0.86157c0,0 0.01985,0.45879 -0.43894,0.47863z" fill="#000000" stroke="none" stroke-linecap="butt"/><path d="M262.82314,112.9177c0,-5.2187 1.98603,-17.13189 1.98603,-17.13189c0,0 31.63686,-2.83462 47.02868,7.46117c7.06115,4.7233 11.11139,18.67056 6.39427,25.43782c0,0 -31.30928,11.13855 -48.81376,6.15448c-8.90982,-2.53691 -6.59523,-21.92158 -6.59523,-21.92158z" fill="url(#color-1)" stroke="none" stroke-linecap="butt"/><path d="M265.26282,97.01933c0,-15.67714 13.78815,-8.31073 29.46529,-8.31073c15.67714,0 28.38598,12.70883 28.38598,28.38598c0,15.67714 -12.70883,28.38598 -28.38598,28.38598c-5.56403,0 -32.75987,-5.86721 -28.89989,-15.58938c1.59314,-4.01267 21.03239,4.13027 30.33132,-0.51722c7.46939,-3.7331 5.48587,-20.39047 4.453,-22.91679c-3.34393,-8.17898 -35.34972,-3.46582 -35.34972,-9.43784z" fill="#d6d6d6" stroke="#8e8e8e" stroke-linecap="butt"/></g><text transform="translate(127.26643,90.11214) scale(0.86836,0.86836)" font-size="40" xml:space="preserve" fill="#000000" fill-rule="nonzero" stroke="none" stroke-width="1" stroke-linecap="butt" stroke-linejoin="miter" stroke-miterlimit="10" stroke-dasharray="" stroke-dashoffset="0" font-family="Sans Serif" font-weight="normal" text-anchor="start" style="mix-blend-mode: normal"><tspan x="0" dy="0">The Dog Park</tspan></text><path d="M0,363.1006v-366.2012h480v366.2012z" fill="none" stroke="none" stroke-width="0" stroke-linecap="butt"/></g></g></svg>