<svg version="1.1" xmlns="http://www.w3.org/2000/svg" xmlns:xlink="http://www.w3.org/1999/xlink" width="97.73434" height="37.17485" viewBox="0,0,97.73434,37.17485"><g transform="translate(-209.69106,-196.29511)"><g data-paper-data="{&quot;isPaintingLayer&quot;:true}" fill-rule="nonzero" stroke-width="1.5" stroke-linejoin="miter" stroke-miterlimit="10" stroke-dasharray="" stroke-dashoffset="0" style="mix-blend-mode: normal"><path d="M243.52058,207.10728l-0.5341,23.01857l-25.29274,-0.20021c0,0 -4.35354,-7.26696 0.42444,-10.82544c2.54162,-1.89292 15.70009,-0.05057 15.72661,-1.44027c0.01577,-0.82588 -13.7718,0.91148 -14.6977,-0.12862c-3.90358,-4.38509 -0.97622,-12.60325 -0.97622,-12.60325z" data-paper-data="{&quot;index&quot;:null}" fill="#920000" stroke="#920000" stroke-linecap="butt"/><path d="M243.61544,205.25993c0,0 2.55392,1.10811 5.01011,1.27345c5.33432,0.35908 25.74957,0.79711 25.74957,0.79711c0,0 1.7185,6.19029 1.65672,9.42679c-0.07687,4.02732 -2.08264,12.88744 -2.08264,12.88744c0,0 -18.69882,-0.70659 -24.3593,-0.6455c-3.47343,0.03749 -6.37559,0.97719 -6.37559,0.97719z" data-paper-data="{&quot;index&quot;:null}" fill="#fa0000" stroke="#7e0000" stroke-linecap="butt"/><path d="M286.50412,200.40725c8.9229,-0.93244 16.91225,5.5451 17.84469,14.46802c0.93244,8.92291 -5.5451,16.91225 -14.46802,17.84469c-8.92291,0.93244 -16.91225,-5.5451 -17.84469,-14.46802c-0.93244,-8.92291 5.5451,-16.91225 14.46802,-17.84469z" data-paper-data="{&quot;index&quot;:null}" fill="#b2936b" stroke="#856e50" stroke-linecap="butt"/><path d="M278.87496,203.8927c0,0 2.80133,6.65419 2.99829,9.16611c0.16335,2.08319 -6.799,8.73634 -6.799,8.73634" data-paper-data="{&quot;index&quot;:null}" fill="none" stroke="#000000" stroke-linecap="round"/><path d="M293.4107,200.07754c0,0 11.96834,1.14176 12.84398,8.89669c2.83044,25.06719 -9.54752,21.94734 -9.54752,21.94734c0,0 -3.6397,-2.17817 -4.09932,-5.36568c-0.22879,-1.58672 2.97314,-3.44334 2.55369,-5.36661c-0.24401,-1.11887 -2.89422,-2.67779 -2.99679,-3.79203c-0.30287,-3.29034 2.83367,-6.07219 2.45698,-8.37982c-0.12865,-0.78811 -3.00911,-1.46398 -3.06727,-2.00817c-0.2892,-2.70599 1.85626,-5.93173 1.85626,-5.93173z" data-paper-data="{&quot;index&quot;:null}" fill="#000000" stroke="#000000" stroke-linecap="butt"/><path d="M248.36121,206.72243c0,0 -2.94116,2.72843 -3.15799,2.41482c-0.19279,-0.27884 -2.03462,-0.536 -2.03462,-0.536c0,0 0.60939,-2.25683 0.17395,-2.22648c-0.58229,0.04058 0.59825,-1.22017 0.59825,-1.22017c0,0 -0.76588,-2.65004 -0.63855,-3.74967c0.1702,-1.46984 1.56897,-4.28557 1.56897,-4.28557c0,0 11.04367,1.6906 16.30184,3.61229c3.22498,1.17862 12.24962,6.82232 12.24962,6.82232z" data-paper-data="{&quot;index&quot;:null}" fill="#fa0000" stroke="#7e0000" stroke-linecap="round"/><path d="M272.15086,229.19393c0,0 -10.63323,-0.47943 -13.95708,-1.34063c-5.41938,-1.4042 -15.46965,-6.284 -15.46965,-6.284c0,0 0.4476,-3.11199 1.14221,-4.41849c0.51963,-0.97743 2.65493,-2.7238 2.65493,-2.7238c0,0 -0.25578,-1.70813 0.20047,-1.34406c0.34119,0.27224 1.12118,-1.93143 1.12118,-1.93143c0,0 1.66206,0.83424 1.97911,0.71421c0.35656,-0.135 1.22809,3.78101 1.22809,3.78101z" data-paper-data="{&quot;index&quot;:null}" fill="#fa0000" stroke="#7e0000" stroke-linecap="round"/><path d="M218.42263,210.90166c-0.54546,3.9922 -3.49567,3.42108 -5.35171,3.38565c-2.22683,-0.04251 -2.54028,-1.68978 -2.44066,-6.90929c0.09963,-5.21952 0.44519,-8.58188 2.672,-8.53938c1.06566,0.02034 1.24828,0.4313 1.77584,2.18677c0.30592,1.01799 1.16699,1.59869 1.48571,2.98426c0.28015,1.2179 1.95144,2.91708 1.92713,4.19027c-0.01659,0.86911 0.04063,1.90418 -0.06834,2.70173z" data-paper-data="{&quot;index&quot;:null}" fill="#935300" stroke="#603600" stroke-linecap="butt"/><path d="M218.24943,226.66346c-0.54546,3.99221 -3.49567,3.42109 -5.35171,3.38566c-2.22683,-0.04251 -2.54028,-1.68978 -2.44066,-6.90929c0.09963,-5.21952 0.44519,-8.58188 2.672,-8.53938c1.06566,0.02034 1.24829,0.4313 1.77585,2.18677c0.30593,1.01798 1.16699,1.59867 1.48571,2.98425c0.28016,1.21791 1.95145,2.9171 1.92714,4.19028c-0.01659,0.86911 0.04063,1.90416 -0.06834,2.70172z" data-paper-data="{&quot;index&quot;:null}" fill="#935300" stroke="#603600" stroke-linecap="butt"/><path d="M242.09713,209.54795c-1.00427,-0.01916 -1.79549,-1.23446 -1.76724,-2.71444c0.02825,-1.47998 0.86527,-2.66419 1.86953,-2.64502c1.00427,0.01916 1.79549,1.23446 1.76724,2.71444c-0.02825,1.47997 -0.86527,2.66419 -1.86953,2.64502z" data-paper-data="{&quot;index&quot;:null}" fill="#b2936b" stroke="#856e50" stroke-linecap="butt"/><path d="M249.32621,214.10275c-1.00428,-0.01917 -1.7955,-1.23447 -1.76725,-2.71444c0.02825,-1.47998 0.86527,-2.66419 1.86954,-2.64502c1.00427,0.01916 1.79549,1.23446 1.76724,2.71444c-0.02825,1.47998 -0.86526,2.66419 -1.86953,2.64502z" data-paper-data="{&quot;index&quot;:null}" fill="#b2936b" stroke="#856e50" stroke-linecap="butt"/><path d="M291.90868,199.95656l-4.875,9l-4.75,-8.76923" fill="none" stroke="#000000" stroke-linecap="round"/><path d="M282.28369,222.08798l4.75,-9.25641l4.875,9.5" data-paper-data="{&quot;index&quot;:null}" fill="none" stroke="#000000" stroke-linecap="round"/></g></g></svg>