<svg version="1.1" xmlns="http://www.w3.org/2000/svg" xmlns:xlink="http://www.w3.org/1999/xlink" width="46.7668" height="9.55864" viewBox="0,0,46.7668,9.55864"><g transform="translate(-217.1239,-195.65475)"><g data-paper-data="{&quot;isPaintingLayer&quot;:true}" fill="#ffffff" fill-rule="nonzero" stroke="#b1b1b1" stroke-width="1" stroke-linecap="butt" stroke-linejoin="miter" stroke-miterlimit="10" stroke-dasharray="" stroke-dashoffset="0" style="mix-blend-mode: normal"><path d="M238.03368,202.02218c0,0 1.68388,-4.619 2.85269,-5.27424c1.86376,-1.04484 7.25356,-0.39139 7.25356,-0.39139l-5.05312,1.8375l7.19687,3.82813l-7.19687,1.68438z"/><path d="M240.15869,203.88917c0,0 1.37461,-2.24151 2.32873,-2.55949c1.52145,-0.50704 5.92127,-0.18993 5.92127,-0.18993l-4.125,0.8917l5.875,1.85771l-5.875,0.81739z"/><path d="M226.53369,201.19401c0,0 1.01227,-2.7767 1.71489,-3.1706c1.1204,-0.6281 4.36045,-0.23527 4.36045,-0.23527l-3.03767,1.10461l4.32637,2.30126l-4.32637,1.01256z"/><path d="M249.90869,202.25162c0,0 1.37461,-1.24759 2.32873,-1.42457c1.52145,-0.28221 5.92127,-0.10571 5.92127,-0.10571l-4.125,0.49631l5.875,1.03398l-5.875,0.45495z"/><path d="M237.28371,203.45656l-5.875,-0.98468l5.875,-2.2379l-4.125,-1.07419c0,0 4.39983,-0.382 5.92127,0.2288c0.95413,0.38305 2.32873,3.08329 2.32873,3.08329z" data-paper-data="{&quot;index&quot;:null}"/><path d="M252.5337,202.70657l-5.875,-0.9568l5.875,-2.17453l-4.125,-1.04378c0,0 4.39982,-0.37119 5.92127,0.22232c0.95412,0.3722 2.32873,2.99599 2.32873,2.99599z" data-paper-data="{&quot;index&quot;:null}"/><path d="M253.4087,202.95657l-5.875,-0.78951l5.875,-1.79435l-4.125,-0.86129c0,0 4.39982,-0.3063 5.92127,0.18345c0.95412,0.30713 2.32873,2.47219 2.32873,2.47219z" data-paper-data="{&quot;index&quot;:null}"/><path d="M224.4087,202.83157l-5.875,-1.375l5.875,-3.125l-4.125,-1.5c0,0 4.39982,-0.53344 5.92127,0.31949c0.95412,0.53489 2.32873,4.30551 2.32873,4.30551z" data-paper-data="{&quot;index&quot;:null}"/></g></g></svg>