<svg version="1.1" xmlns="http://www.w3.org/2000/svg" xmlns:xlink="http://www.w3.org/1999/xlink" width="480.31525" height="86.16132" viewBox="0,0,480.31525,86.16132"><g transform="translate(0.31525,-273.83868)"><g data-paper-data="{&quot;isPaintingLayer&quot;:true}" fill-rule="nonzero" stroke="none" stroke-width="0" stroke-linecap="butt" stroke-linejoin="miter" stroke-miterlimit="10" stroke-dasharray="" stroke-dashoffset="0" style="mix-blend-mode: normal"><path d="M-0.31525,359.99999v-75.24996h159.66112v75.24997z" fill="#d69b00"/><path d="M-0.31525,294.41409v-20.57542h159.6647v20.57542l-16.3119,25.02794l-16.08104,-27.74997l-12.08665,26.94686l-20.17459,-27.60231l-17.11528,18.47737l-21.08621,-15.87281l-20.97307,17.83639l-13.9138,-13.95263l-12.74933,17.85281z" fill="#00d624"/><path d="M318.68117,359.99999v-74.36161h161.31522v74.36162z" fill="#d69b00"/><path d="M318.68117,295.18834v-20.33252h161.31883v20.33252l-16.48089,24.73248l-16.24764,-27.42237l-12.21187,26.62875l-20.38361,-27.27645l-17.29259,18.25924l-21.30466,-15.68543l-21.19035,17.62583l-14.05795,-13.78792l-12.88141,17.64205z" fill="#00d624"/></g></g></svg>