<svg version="1.1" xmlns="http://www.w3.org/2000/svg" xmlns:xlink="http://www.w3.org/1999/xlink" width="399.66621" height="326.94948" viewBox="0,0,399.66621,326.94948"><g transform="translate(-26.70528,-10.60707)"><g data-paper-data="{&quot;isPaintingLayer&quot;:true}" fill-rule="nonzero" stroke-linejoin="miter" stroke-miterlimit="10" stroke-dasharray="" stroke-dashoffset="0" style="mix-blend-mode: normal"><path d="M237.84707,251.96502c0,0 -1.75503,11.43406 -6.10559,12.01977c-2.93046,0.39448 -9.33976,-6.39564 -16.17909,-6.60148c-2.68193,-0.0807 -5.25318,8.51331 -8.16,8.60222c-2.20595,0.0675 -5.73749,-8.1163 -7.31084,-5.9826c-2.49433,3.38279 -5.9659,11.24866 -10.28444,12.06947c-4.12155,0.78341 -9.1463,-5.60032 -9.4346,2.28675c-0.4281,11.71146 -11.93364,-13.05012 -11.93364,-13.05012l-18.27971,-177.5653c0,0 -26.34135,-28.81482 -50.63631,-28.43127c-22.00671,0.34742 -41.44695,30.23348 -54.45853,24.36715c-11.75214,-5.29848 8.11763,-34.51508 10.62114,-36.70796c6.47835,-5.67441 51.14168,-29.1133 91.78874,-32.09304c36.02439,-2.64088 68.91838,14.85041 68.91838,14.85041l21.45445,226.23599z" data-paper-data="{&quot;index&quot;:null}" fill="#d6d6d6" stroke="none" stroke-width="0" stroke-linecap="butt"/><path d="M87.46354,320.74948c0,8.17773 -13.15349,14.80708 -29.37913,14.80708c-16.22565,0 -29.37913,-6.62936 -29.37913,-14.80708c0,-8.17773 13.15349,-14.80708 29.37913,-14.80708c16.22565,0 29.37913,6.62936 29.37913,14.80708z" fill="#d6d6d6" stroke="#8e8e8e" stroke-width="4" stroke-linecap="butt"/><path d="M152.63201,316.81822c0,8.17773 -13.15348,14.80709 -29.37913,14.80709c-16.22564,0 -29.37914,-6.62936 -29.37914,-14.80709c0,-8.17773 13.15349,-14.80708 29.37914,-14.80708c16.22565,0 29.37913,6.62936 29.37913,14.80708z" fill="#d6d6d6" stroke="#8e8e8e" stroke-width="4" stroke-linecap="butt"/><path d="M58.31944,310.64306v-49.82701h22.09311v49.82701z" fill="#d6d6d6" stroke="#8e8e8e" stroke-width="4" stroke-linecap="butt"/><path d="M118.48791,307.82266v-53.11747h26.3237v53.11747z" fill="#d6d6d6" stroke="#8e8e8e" stroke-width="4" stroke-linecap="butt"/><g stroke-width="2" stroke-linecap="butt"><path d="M370.23464,194.82841v-10.79162h6.99997v10.79162z" data-paper-data="{&quot;index&quot;:null}" fill="#ffd499" stroke="#dfba86"/><path d="M355.72291,207.07837l1.05357,-11.58925c0,0 6.02669,-3.1607 9.8333,-3.1607c4.50404,0 12.29162,3.1607 12.29162,3.1607v11.58925z" data-paper-data="{&quot;index&quot;:null}" fill="#ff00bf" stroke="#d5009f"/></g><g stroke-width="2" stroke-linecap="butt"><path d="M397.78272,195.03611v-10.79162h6.99997v10.79162z" data-paper-data="{&quot;index&quot;:null}" fill="#ffd499" stroke="#dfba86"/><path d="M383.27099,207.28607l1.05357,-11.58925c0,0 6.02669,-3.1607 9.8333,-3.1607c4.50404,0 12.29162,3.1607 12.29162,3.1607v11.58925z" data-paper-data="{&quot;index&quot;:null}" fill="#ff00bf" stroke="#d5009f"/></g><path d="M378.07711,152.42448l1.86635,34.8348l-10.74329,1.02026l-2.13458,-31.73185z" data-paper-data="{&quot;index&quot;:null}" fill="#7f00ff" stroke="#6600cc" stroke-width="2" stroke-linecap="round"/><path d="M399.87656,151.12954l6.33002,35.66374l-12.88163,-1.43428l-0.75624,-25.42197z" data-paper-data="{&quot;index&quot;:null}" fill="#7f00ff" stroke="#6600cc" stroke-width="2" stroke-linecap="round"/><path d="M399.0386,156.10927c0,0 -8.19237,1.84866 -13.08914,2.02554c-6.20127,0.22401 -21.13787,-0.78917 -21.13787,-0.78917c0,0 -3.76492,-35.47535 -4.17189,-46.74173c-0.23971,-6.63607 1.95367,-14.66622 1.95367,-14.66622l37.02247,0.52593c0,0 0.99425,8.54755 0.94244,13.9009c-0.10282,10.62508 -1.51968,45.74476 -1.51968,45.74476z" data-paper-data="{&quot;index&quot;:null}" fill="#7f00ff" stroke="#6600cc" stroke-width="2" stroke-linecap="butt"/><path d="M419.93339,114.52959c0,0 -0.66749,3.80281 -2.32214,3.99761c-1.11454,0.1312 -3.55219,-2.1271 -6.15339,-2.19556c-1.02002,-0.02684 -1.99794,2.83141 -3.10349,2.86098c-0.83899,0.02245 -2.18214,-2.69937 -2.78053,-1.98973c-0.94867,1.12507 -2.26901,3.74115 -3.91148,4.01414c-1.56755,0.26055 -3.47861,-1.86259 -3.58826,0.76054c-0.16282,3.89507 -4.53872,-4.34029 -4.53872,-4.34029l-6.95232,-59.05576c0,0 -18.27717,-4.76774 -28.68912,-8.87273c-4.46969,-1.7622 -8.19421,-3.95818 -7.24205,-4.6875c2.46391,-1.88723 19.45071,-9.68268 34.91,-10.6737c13.70115,-0.87832 26.21172,4.93904 26.21172,4.93904l8.15977,75.24296z" data-paper-data="{&quot;index&quot;:null}" fill="#000000" stroke="#000000" stroke-width="2" stroke-linecap="butt"/><path d="M401.03419,63.67448c5.66397,14.088 1.57644,28.57876 -12.51155,34.24274c-14.08799,5.66397 -35.80249,0.28929 -41.46647,-13.79869c-4.54438,-11.3032 -2.28421,-22.06121 6.82332,-29.93213c0.86539,-0.74789 4.30858,-2.46232 5.27632,-3.10605c1.54147,-1.02537 3.53316,-4.13599 5.24392,-4.82379c1.01535,-0.40821 2.61342,1.71556 3.72821,1.64426c1.96177,-0.12548 3.49536,-2.20516 5.3645,-2.2028c3.04426,0.00383 6.48325,1.53295 9.34285,2.38733c0.83678,0.25001 3.45342,-4.39001 4.25483,-4.09117c7.08127,2.64064 10.91897,12.156 13.94407,19.68032z" data-paper-data="{&quot;index&quot;:null}" fill="#ffd499" stroke="#dfba86" stroke-width="2" stroke-linecap="butt"/><path d="M340.3607,132.13624c0,4.42976 -2.08933,8.0208 -4.66665,8.0208c-2.57732,0 -4.66665,-3.59103 -4.66665,-8.0208c0,-4.42976 2.08933,-8.0208 4.66665,-8.0208c2.57732,0 4.66665,3.59103 4.66665,8.0208z" data-paper-data="{&quot;index&quot;:null}" fill="#ffd499" stroke="#dfba86" stroke-width="2" stroke-linecap="butt"/><path d="M425.37149,132.39702c0,4.26868 -2.48108,7.72913 -5.54164,7.72913c-3.06056,0 -5.54164,-3.46045 -5.54164,-7.72913c0,-4.26868 2.48108,-7.72913 5.54164,-7.72913c3.06056,0 5.54164,3.46045 5.54164,7.72913z" data-paper-data="{&quot;index&quot;:null}" fill="#ffd499" stroke="#dfba86" stroke-width="2" stroke-linecap="butt"/><path d="M360.42859,64.80709c3.03496,-0.12589 5.62207,2.8288 5.77849,6.59951c0.15641,3.77069 -2.17709,6.92952 -5.21205,7.05541c-3.03496,0.1259 -5.62208,-2.8288 -5.77849,-6.5995c-0.15641,-3.77069 2.1771,-6.92952 5.21206,-7.05542z" fill="#ffffff" stroke="none" stroke-width="0" stroke-linecap="butt"/><path d="M376.49606,65.28821c3.03495,-0.12589 5.62208,2.82881 5.77849,6.59951c0.15641,3.7707 -2.17711,6.92952 -5.21206,7.05542c-3.03495,0.12589 -5.62208,-2.82881 -5.77849,-6.59951c-0.15641,-3.7707 2.17711,-6.92952 5.21206,-7.05542z" fill="#ffffff" stroke="none" stroke-width="0" stroke-linecap="butt"/><path d="M357.48018,75.43951l-0.14506,-3.49699" fill="none" stroke="#000000" stroke-width="2" stroke-linecap="round"/><path d="M374.59875,70.88025l0.12434,2.99742" fill="none" stroke="#000000" stroke-width="2" stroke-linecap="round"/><path d="M364.11393,94.62248c0,0 4.18378,-9.96418 13.54573,-5.71225c2.666,1.21082 6.1693,11.7582 6.1693,11.7582" fill="none" stroke="#000000" stroke-width="2" stroke-linecap="round"/><path d="M376.17151,58.31374l-8.09724,8.09724l-8.09724,-8.09724" fill="none" stroke="#000000" stroke-width="2" stroke-linecap="round"/><path d="M51.73852,262.22625v-117.9866h99.18395v117.9866z" fill="#d6d6d6" stroke="#8e8e8e" stroke-width="4" stroke-linecap="butt"/><path d="M39.04673,107.80952c0,-34.13876 27.67493,-61.8137 61.8137,-61.8137c34.13876,0 61.8137,27.67493 61.8137,61.8137c0,34.13876 -27.67493,61.8137 -61.8137,61.8137c-34.13876,0 -61.8137,-27.67493 -61.8137,-61.8137z" fill="#d6d6d6" stroke="#8e8e8e" stroke-width="4" stroke-linecap="butt"/><path d="M142.13188,254.35397l-19.21642,-1.69178l6.6597,-75.64558c0,0 1.87026,-10.82972 11.06957,-10.54013c7.50615,0.23629 8.14685,12.2319 8.14685,12.2319z" data-paper-data="{&quot;index&quot;:null}" fill="#d6d6d6" stroke="#8e8e8e" stroke-width="4" stroke-linecap="butt"/><path d="M60.63971,251.36285l-19.21642,-1.69178l6.65969,-75.64558c0,0 1.87026,-10.82972 11.06957,-10.54013c7.50615,0.23629 8.14685,12.2319 8.14685,12.2319z" data-paper-data="{&quot;index&quot;:null}" fill="#d6d6d6" stroke="#8e8e8e" stroke-width="4" stroke-linecap="butt"/></g></g></svg>