<svg version="1.1" xmlns="http://www.w3.org/2000/svg" xmlns:xlink="http://www.w3.org/1999/xlink" width="489.22678" height="360.91169" viewBox="0,0,489.22678,360.91169"><g transform="translate(2.87733,0.5482)"><g data-paper-data="{&quot;isPaintingLayer&quot;:true}" fill-rule="nonzero" stroke="none" stroke-width="0" stroke-linecap="butt" stroke-linejoin="miter" stroke-miterlimit="10" stroke-dasharray="" stroke-dashoffset="0" style="mix-blend-mode: normal"><path d="M0.68117,360.36349v-75.56741h479.65752v75.56742z" fill="#d69b00"/><path d="M0.68117,294.50091v-20.66222h479.66828v20.66222l-49.00456,25.13352l-48.31102,-27.86704l-36.31101,27.06054l-60.60895,-27.71875l-51.4181,18.55532l-63.34764,-15.93977l-63.00778,17.91163l-41.80013,-14.01149l-38.3018,17.92812z" fill="#00d624"/><path d="M-0.15985,16.47899l-2.71748,-17.02719z" data-paper-data="{&quot;index&quot;:null}" fill="#d69b00"/><path d="M0.68117,360.36348v-75.56741h485.65739v75.56742z" fill="#d69b00"/><path d="M0.68117,294.5009v-20.66222h485.66828v20.66222l-49.61754,25.13352l-48.91533,-27.86704l-36.76521,27.06054l-61.36709,-27.71875l-52.06127,18.55532l-64.14003,-15.93977l-63.79592,17.91163l-42.323,-14.01149l-38.7809,17.92812z" fill="#00d624"/></g></g></svg>