<svg version="1.1" xmlns="http://www.w3.org/2000/svg" xmlns:xlink="http://www.w3.org/1999/xlink" width="247.83599" height="237.90797" viewBox="0,0,247.83599,237.90797"><g transform="translate(-145.25186,-59.56888)"><g data-paper-data="{&quot;isPaintingLayer&quot;:true}" fill-rule="nonzero" stroke-linejoin="miter" stroke-miterlimit="10" stroke-dasharray="" stroke-dashoffset="0" style="mix-blend-mode: normal"><path d="M306.06162,114.67632c0,0 -45.02996,-49.43186 -36.1516,-53.74566c6.11783,-2.97252 10.33558,13.34618 20.20056,13.44907c9.86498,0.10289 5.89147,-11.6922 12.93802,-13.10346c7.04656,-1.41127 13.30854,5.6687 22.49254,6.00753c9.18399,0.33883 10.00829,-5.73021 16.78544,-4.55841c6.77715,1.1718 9.2088,10.42012 17.0945,10.4164c7.8857,-0.00372 16.4116,-17.12648 21.79833,-10.43475c5.91413,7.3469 -30.65778,48.96929 -30.65778,48.96929z" fill="#000000" stroke="#000000" stroke-width="2" stroke-linecap="butt"/><g stroke="#444444" stroke-width="1.5" stroke-linecap="round"><path d="M215.99374,238.99551c0,0 -38.28801,-14.80462 -51.13189,-21.22438c-8.47441,-4.23576 -18.43208,-13.54579 -18.43208,-13.54579c0,0 12.20003,-8.80938 22.35813,-11.25601c12.76963,-3.07563 48.23326,-5.74629 48.23326,-5.74629z" fill="#9c9c9c"/><path d="M178.72547,192.04351c0,0 2.544,9.41485 3.01653,14.66518c0.52245,5.80498 -0.01653,18.66815 -0.01653,18.66815l-7.33333,-3.33333c0,0 1.01363,-8.72952 0.65362,-13.35824c-0.41099,-5.28421 -2.98695,-16.64176 -2.98695,-16.64176z" fill="#717171"/><path d="M197.05881,190.04352c0,0 0.21515,10.66213 -0.40167,16.72751c-0.70476,6.93014 -3.59833,22.60582 -3.59833,22.60582l-5.33333,-2c0,0 2.58829,-12.15084 3.23839,-18.27262c0.68173,-6.41963 0.76161,-19.39405 0.76161,-19.39405z" fill="#717171"/><path d="M158.72548,213.71017c0,0 1.51942,-6.49594 0.95686,-9.02745c-0.54819,-2.46682 -4.2902,-5.97255 -4.2902,-5.97255l6,-3.33333c0,0 2.74225,4.3607 3.17743,7.50364c0.54142,3.91031 -0.17743,14.16303 -0.17743,14.16303z" fill="#717171"/></g><path d="M310.21093,194.33793l-20.4074,28.29283l-9.00475,-5.94757l18.25132,-26.04527z" data-paper-data="{&quot;index&quot;:null}" fill="#868686" stroke="#565656" stroke-width="2" stroke-linecap="round"/><path d="M301.51432,227.84858v-10.79162h6.99997v10.79162z" data-paper-data="{&quot;index&quot;:null}" fill="#565656" stroke="#565656" stroke-width="2" stroke-linecap="butt"/><path d="M277.6205,223.72033l6.83031,-5.46888l2.58253,3.22543l-6.83031,5.46888z" data-paper-data="{&quot;index&quot;:null}" fill="#565656" stroke="#565656" stroke-width="2" stroke-linecap="butt"/><path d="M256.04957,220.26943l9.87543,-6.15601c0,0 6.15791,2.89674 8.45581,5.93153c2.71891,3.59081 4.90011,11.70738 4.90011,11.70738l-9.23943,6.99596z" data-paper-data="{&quot;index&quot;:null}" fill="#ff00bf" stroke="#565656" stroke-width="2" stroke-linecap="butt"/><path d="M287.00259,240.09854l1.05357,-11.58925c0,0 6.02669,-3.1607 9.8333,-3.1607c4.50404,0 12.29162,3.1607 12.29162,3.1607v11.58925z" data-paper-data="{&quot;index&quot;:null}" fill="#ff00bf" stroke="#565656" stroke-width="2" stroke-linecap="butt"/><path d="M332.89956,191.79977l-20.02143,30.18466l-8.33578,-9.92513l16.99077,-18.92518z" data-paper-data="{&quot;index&quot;:null}" fill="#565656" stroke="#565656" stroke-width="2" stroke-linecap="round"/><g stroke="#000000" stroke-width="1.5" stroke-linecap="butt"><path d="M264.97515,181.47689v-3.33333h20v3.33333z" fill="#c3c3c3"/><path d="M294.30849,179.97689c0,6.35127 -2.91015,11.5 -6.5,11.5c-3.58985,0 -6.5,-5.14873 -6.5,-11.5c0,-6.35127 2.91015,-11.5 6.5,-11.5c3.58985,0 6.5,5.14873 6.5,11.5z" fill="#d4d4d4"/></g><path d="M196.33787,275.58857c0,0 0.90378,-38.2849 3.03538,-53.01692c3.1611,-21.84709 28.06113,-57.04609 50.13414,-56.78123c10.64751,0.12776 19.13761,-5.0153 21.21526,2.18874c5.49466,19.05213 -12.56011,54.52608 15.94855,58.85941c13.85381,2.10579 22.87878,-18.90458 40.25588,-28.26278c7.60147,-4.09367 28.61952,-6.8 28.61952,-6.8l36.04126,0.06278l0.75,84.5c0,0 -0.03765,-20.52436 -24.49768,-20.35618c-24.92469,0.17138 -27.7506,20.15625 -27.7506,20.15625l-46.75314,-0.1789l-42.74386,-0.60521c0,0 0.22143,-19.44131 -26.25867,-18.93094c-27.01101,0.5206 -27.99605,19.16498 -27.99605,19.16498z" fill="#868686" stroke="#565656" stroke-width="1.5" stroke-linecap="butt"/><g stroke="none" stroke-linecap="butt"><path d="M204.97515,277.64355c0,-10.58546 8.58121,-19.16667 19.16667,-19.16667c10.58546,0 19.16667,8.58121 19.16667,19.16667c0,10.58546 -8.58121,19.16667 -19.16667,19.16667c-10.58546,0 -19.16667,-8.58121 -19.16667,-19.16667z" fill="#000000" stroke-width="NaN"/><path d="M212.97515,277.31018c0,-6.16718 4.99949,-11.16667 11.16667,-11.16667c6.16718,0 11.16667,4.99949 11.16667,11.16667c0,6.16718 -4.99949,11.16667 -11.16667,11.16667c-6.16718,0 -11.16667,-4.99949 -11.16667,-11.16667z" fill="#bfbfbf" stroke-width="0"/></g><g stroke="none" stroke-linecap="butt"><path d="M348.30848,278.31018c0,-10.58546 8.58121,-19.16666 19.16667,-19.16666c10.58546,0 19.16667,8.5812 19.16667,19.16666c0,10.58546 -8.58121,19.16667 -19.16667,19.16667c-10.58546,0 -19.16667,-8.58121 -19.16667,-19.16667z" fill="#000000" stroke-width="NaN"/><path d="M356.30848,277.97683c0,-6.16718 4.99949,-11.16667 11.16667,-11.16667c6.16718,0 11.16667,4.99949 11.16667,11.16667c0,6.16718 -4.99949,11.16667 -11.16667,11.16667c-6.16718,0 -11.16667,-4.99949 -11.16667,-11.16667z" fill="#bfbfbf" stroke-width="0"/></g><path d="M325.33566,210.13221c0,0 -8.06525,-2.34186 -12.43739,-4.5541c-5.53688,-2.80159 -18.12262,-10.90885 -18.12262,-10.90885c0,0 13.85291,-32.8751 18.94279,-42.93442c2.99802,-5.92509 8.79987,-11.89442 8.79987,-11.89442l32.15526,18.35699c0,0 -3.2615,7.96315 -5.89466,12.62443c-5.22615,9.2515 -23.44326,39.31038 -23.44326,39.31038z" data-paper-data="{&quot;index&quot;:null}" fill="#868686" stroke="#565656" stroke-width="2" stroke-linecap="butt"/><path d="M354.64328,124.04888c5.0752,14.31064 0.39059,28.61954 -13.92004,33.69475c-14.31064,5.0752 -35.78372,-1.19485 -40.85893,-15.50548c-4.07199,-11.48184 -1.36788,-22.13692 8.05804,-29.6236c0.89565,-0.71138 4.40693,-2.28163 5.40052,-2.8847c1.58264,-0.9606 3.70155,-3.986 5.43934,-4.6023c1.03139,-0.36578 2.54007,1.82241 3.65686,1.79737c1.96528,-0.04406 3.58375,-2.05839 5.45119,-1.97857c3.04148,0.13 6.41414,1.80035 9.23587,2.77251c0.8257,0.28447 3.63241,-4.24311 4.42074,-3.91131c6.96574,2.93187 10.40576,12.59811 13.1164,20.24135z" data-paper-data="{&quot;index&quot;:null}" fill="#868686" stroke="#565656" stroke-width="2" stroke-linecap="butt"/><path d="M273.13947,154.86966c0,4.42976 -2.08933,8.0208 -4.66665,8.0208c-2.57732,0 -4.66665,-3.59103 -4.66665,-8.0208c0,-4.42976 2.08933,-8.0208 4.66665,-8.0208c2.57732,0 4.66665,3.59103 4.66665,8.0208z" data-paper-data="{&quot;index&quot;:null}" fill="#868686" stroke="#565656" stroke-width="2" stroke-linecap="butt"/><path d="M290.55586,184.703c0,4.26868 -2.48108,7.72913 -5.54164,7.72913c-3.06056,0 -5.54164,-3.46045 -5.54164,-7.72913c0,-4.26868 2.48108,-7.72913 5.54164,-7.72913c3.06056,0 5.54164,3.46045 5.54164,7.72913z" data-paper-data="{&quot;index&quot;:null}" fill="#868686" stroke="#565656" stroke-width="2" stroke-linecap="butt"/><path d="M254.87954,168.96356v-6.66667h16.33333v6.66667z" fill="#868686" stroke="#565656" stroke-width="2" stroke-linecap="butt"/><path d="M318.37954,128.96352c3.03756,0 5.5,3.0594 5.5,6.83334c0,3.77395 -2.46244,6.83333 -5.5,6.83333c-3.03756,0 -5.5,-3.05939 -5.5,-6.83333c0,-3.77395 2.46244,-6.83334 5.5,-6.83334z" fill="#ffffff" stroke="none" stroke-width="0" stroke-linecap="butt"/><path d="M315.96287,144.71352c0,0 -3.57079,-4.88938 -4.084,-7.712c-0.48523,-2.66874 1.084,-6.788 1.084,-6.788" fill="none" stroke="#000000" stroke-width="2" stroke-linecap="round"/><path d="M332.71287,128.6302c3.03756,0 5.5,3.0594 5.5,6.83334c0,3.77395 -2.46244,6.83333 -5.5,6.83333c-3.03756,0 -5.5,-3.05939 -5.5,-6.83333c0,-3.77395 2.46244,-6.83334 5.5,-6.83334z" fill="#ffffff" stroke="none" stroke-width="0" stroke-linecap="butt"/><path d="M317.46287,134.21352v3.5" fill="none" stroke="#000000" stroke-width="2" stroke-linecap="round"/><path d="M335.46287,133.71352v3" fill="none" stroke="#000000" stroke-width="2" stroke-linecap="round"/><path d="M334.96287,125.21354c0,0 4.51605,3.78997 5.06547,6.38005c0.61075,2.87926 -1.56547,10.11995 -1.56547,10.11995" fill="none" stroke="#000000" stroke-width="2" stroke-linecap="round"/><path d="M333.5462,152.46352c0,3.77394 -2.46244,6.83334 -5.5,6.83334c-3.03756,0 -5.5,-3.05939 -5.5,-6.83334c0,-3.77394 2.46244,-6.83334 5.5,-6.83334c3.03756,0 5.5,3.05939 5.5,6.83334z" fill="#000000" stroke="#000000" stroke-width="2" stroke-linecap="butt"/></g></g></svg>