<svg xmlns="http://www.w3.org/2000/svg" xmlns:xlink="http://www.w3.org/1999/xlink" version="1.1" width="80" height="80" viewBox="0,0,80,80"><defs><clipPath id="clip-1"><path d="M219,202.0986v-44.1972h42v44.1972z" fill="none" fill-rule="nonzero"/></clipPath></defs><g transform="translate(-200,-140)"><g data-paper-data="{&quot;isPaintingLayer&quot;:true}" stroke="none" stroke-linecap="butt" stroke-linejoin="miter" stroke-miterlimit="10" stroke-dasharray="" stroke-dashoffset="0" style="mix-blend-mode: normal"><path d="M202,180c0,-20.98682 17.01318,-38 38,-38c20.98682,0 38,17.01318 38,38c0,20.98682 -17.01318,38 -38,38c-20.98682,0 -38,-17.01318 -38,-38z" fill-opacity="0.75" fill="#ffffff" fill-rule="nonzero" stroke-width="0"/><path d="M203,180c0,-20.4345 16.5655,-37 37,-37c20.4345,0 37,16.5655 37,37c0,20.4345 -16.5655,37 -37,37c-20.4345,0 -37,-16.5655 -37,-37zM200,180c0,-22.0914 17.9086,-40 40,-40c22.0914,0 40,17.9086 40,40c0,22.0914 -17.9086,40 -40,40c-22.0914,0 -40,-17.9086 -40,-40z" fill="#ffffff" fill-rule="evenodd" stroke-width="1"/><g clip-path="url(#clip-1)" stroke-width="1"><path d="M220.8942,162.9525c2.8066,-2.0889 6.212,-3.2171 9.7107,-3.2171c3.4987,0 6.9041,1.1282 9.7108,3.2171v0c2.8066,2.0889 6.2121,3.2171 9.7108,3.2171c3.4986,0 6.9041,-1.1282 9.7107,-3.2171v26.2658c-2.8066,2.0889 -6.2121,3.217 -9.7107,3.217c-3.4987,0 -6.9042,-1.1281 -9.7108,-3.217c-2.8067,-2.0889 -6.2121,-3.2171 -9.7108,-3.2171c-3.4987,0 -6.9041,1.1282 -9.7107,3.2171" fill="#4cbf56" fill-rule="nonzero"/><path d="M230.605,160.9982c-3.2271,0 -6.3681,1.0406 -8.9569,2.9673c-0.5594,0.4164 -1.3505,0.3004 -1.7669,-0.2591c-0.4164,-0.5594 -0.3004,-1.3505 0.2591,-1.7669c3.0245,-2.2511 6.6943,-3.4668 10.4647,-3.4668c3.7703,0 7.4401,1.2157 10.4647,3.4668c2.5887,1.9267 5.7297,2.9673 8.9568,2.9673c3.227,0 6.3681,-1.0406 8.9568,-2.9673c0.383,-0.2851 0.8941,-0.3297 1.3208,-0.1154c0.4266,0.2143 0.6959,0.6509 0.6959,1.1284v26.2658c0,0.3991 -0.1886,0.7747 -0.5088,1.013c-3.0246,2.2511 -6.6944,3.4668 -10.4647,3.4668c-3.7703,0 -7.4401,-1.2157 -10.4647,-3.4668c-2.5888,-1.9267 -5.7298,-2.9673 -8.9568,-2.9673c-3.2271,0 -6.3681,1.0406 -8.9569,2.9673c-0.5594,0.4164 -1.3505,0.3004 -1.7669,-0.2591c-0.4164,-0.5594 -0.3004,-1.3505 0.2591,-1.7669c3.0245,-2.2511 6.6943,-3.4669 10.4647,-3.4669c3.7703,0 7.4401,1.2158 10.4647,3.4669c2.5887,1.9267 5.7297,2.9673 8.9568,2.9673c3.0184,0 5.9616,-0.9104 8.448,-2.6048v-23.3057c-2.5769,1.4175 -5.4813,2.1702 -8.448,2.1702c-3.7703,0 -7.4401,-1.2157 -10.4647,-3.4668c-2.5888,-1.9267 -5.7298,-2.9673 -8.9568,-2.9673z" fill="#45993d" fill-rule="evenodd"/><path d="M220.8942,157.9014c1.0461,0 1.8941,0.848 1.8941,1.8941v40.4089c0,1.0462 -0.848,1.8942 -1.8941,1.8942c-1.0462,0 -1.8942,-0.848 -1.8942,-1.8942v-40.4089c0,-1.0461 0.848,-1.8941 1.8942,-1.8941z" fill="#45993d" fill-rule="evenodd"/></g></g></g></svg>